M48
; DRILL file {KiCad 8.0.0-rc1-6-gb7460f29b4} date 2025-05-04T14:31:25+0200
; FORMAT={-:-/ absolute / inch / decimal}
; #@! TF.CreationDate,2025-05-04T14:31:25+02:00
; #@! TF.GenerationSoftware,Kicad,Pcbnew,8.0.0-rc1-6-gb7460f29b4
; #@! TF.FileFunction,Plated,1,2,PTH
FMAT,2
INCH
; #@! TA.AperFunction,Plated,PTH,ViaDrill
T1C0.0157
; #@! TA.AperFunction,Plated,PTH,ViaDrill
T2C0.0315
; #@! TA.AperFunction,Plated,PTH,ViaDrill
T3C0.0394
; #@! TA.AperFunction,Plated,PTH,ComponentDrill
T4C0.0394
; #@! TA.AperFunction,Plated,PTH,ComponentDrill
T5C0.0402
; #@! TA.AperFunction,Plated,PTH,ViaDrill
T6C0.0472
; #@! TA.AperFunction,Plated,PTH,ComponentDrill
T7C0.0728
; #@! TA.AperFunction,Plated,PTH,ViaDrill
T8C0.0787
; #@! TA.AperFunction,Plated,PTH,ComponentDrill
T9C0.1260
%
G90
G05
T1
X4.787Y-7.097
X4.98Y-7.966
X4.984Y-7.4716
X5.015Y-8.258
X5.275Y-7.911
X5.458Y-8.1
X7.898Y-7.752
X8.134Y-7.358
X8.7355Y-6.9455
X8.794Y-9.131
X9.074Y-7.702
X9.075Y-8.554
X9.076Y-8.015
X9.086Y-6.903
X9.134Y-8.558
X9.15Y-8.653
X9.16Y-8.3627
X9.181Y-9.1013
X9.184Y-8.44
X9.224Y-8.757
X9.348Y-6.909
X9.351Y-7.965
X9.363Y-8.988
X9.379Y-9.129
X9.4Y-8.024
X9.406Y-8.912
X9.596Y-3.843
X9.657Y-8.338
X9.669Y-6.13
X9.675Y-8.435
X9.702Y-6.271
X9.761Y-6.709
X9.817Y-6.22
X9.964Y-8.831
X9.965Y-9.1253
X10.065Y-7.581
X10.066Y-8.748
X10.152Y-7.517
X10.208Y-9.047
X10.287Y-8.322
X10.319Y-7.565
X10.358Y-5.547
X10.382Y-8.371
X10.388Y-8.499
X10.399Y-7.476
X10.477Y-7.115
X10.483Y-6.7
X10.49Y-6.087
X10.495Y-6.028
X10.5056Y-5.891
X10.705Y-7.07
X10.705Y-7.339
X10.841Y-5.461
X10.868Y-4.487
X10.9Y-4.813
X11.137Y-5.999
X11.196Y-4.118
X11.238Y-5.88
X11.241Y-5.805
X11.254Y-4.173
X11.32Y-4.689
X11.58Y-5.803
X11.595Y-1.76
X11.615Y-5.877
X11.664Y-4.753
X11.711Y-1.853
X11.731Y-7.343
X11.732Y-7.067
X11.775Y-4.303
X11.82Y-4.776
X11.99Y-5.168
X12.054Y-5.843
X12.054Y-5.928
X12.181Y-5.521
X12.233Y-7.722
X12.236Y-6.657
X12.276Y-5.571
X12.335Y-5.703
X12.335Y-5.77
X12.438Y-1.859
X12.725Y-6.442
X12.851Y-5.879
X12.939Y-9.049
X13.012Y-6.904
X13.022Y-6.44
X13.076Y-7.974
X13.168Y-6.63
X13.345Y-9.048
X13.83Y-4.021
X13.83Y-4.098
X13.831Y-2.835
X13.832Y-2.758
X13.86Y-2.7972
X13.86Y-4.057
X13.886Y-2.839
X13.889Y-2.758
X13.89Y-4.097
X13.891Y-4.02
T2
X11.128Y-4.817
X12.7311Y-4.9209
T3
X8.727Y-7.415
X8.9Y-7.241
X9.163Y-7.971
X9.164Y-8.249
X9.677Y-7.717
X10.934Y-8.543
X12.3989Y-6.853
X12.679Y-6.909
X12.945Y-6.699
T4
X4.4109Y-7.004
X4.4109Y-7.104
X4.4109Y-7.204
X4.4109Y-7.304
X4.4109Y-8.4484
X4.4109Y-8.5484
X4.4109Y-8.6484
X4.4109Y-8.7484
X5.2076Y-7.004
X5.2076Y-7.104
X5.2076Y-7.204
X5.2076Y-7.304
X5.2076Y-8.4484
X5.2076Y-8.5484
X5.2076Y-8.6484
X5.2076Y-8.7484
X5.4853Y-7.004
X5.4853Y-7.104
X5.4853Y-7.204
X5.4853Y-7.304
X5.4853Y-8.4484
X5.4853Y-8.5484
X5.4853Y-8.6484
X5.4853Y-8.7484
X6.282Y-7.004
X6.282Y-7.104
X6.282Y-7.204
X6.282Y-7.304
X6.282Y-8.4484
X6.282Y-8.5484
X6.282Y-8.6484
X6.282Y-8.7484
X6.6367Y-6.761
X6.6367Y-6.861
X6.6367Y-6.961
X6.6367Y-7.061
X6.6367Y-7.7044
X6.6367Y-7.8044
X6.6367Y-7.9044
X6.6367Y-8.0044
X6.6367Y-8.6478
X6.6367Y-8.7478
X6.6367Y-8.8478
X6.6367Y-8.9478
X8.08Y-6.761
X8.08Y-6.861
X8.08Y-6.961
X8.08Y-7.061
X8.08Y-7.7044
X8.08Y-7.8044
X8.08Y-7.9044
X8.08Y-8.0044
X8.08Y-8.6478
X8.08Y-8.7478
X8.08Y-8.8478
X8.08Y-8.9478
X8.488Y-7.0368
X8.488Y-7.1368
X8.488Y-7.2368
X8.488Y-7.3368
X8.488Y-7.4368
X8.488Y-8.2361
X8.488Y-8.3361
X8.488Y-8.4361
X8.488Y-8.5361
X8.488Y-8.6361
X9.914Y-7.0368
X9.914Y-7.1368
X9.914Y-7.2368
X9.914Y-7.3368
X9.914Y-7.4368
X9.914Y-8.2361
X9.914Y-8.3361
X9.914Y-8.4361
X9.914Y-8.5361
X9.914Y-8.6361
X10.3915Y-6.1656
X10.3915Y-6.2656
X10.3915Y-6.3656
X10.3915Y-6.4656
X10.3915Y-7.893
X10.3915Y-7.993
X10.3915Y-8.093
X10.3915Y-8.193
X10.587Y-7.135
X10.587Y-7.235
X10.7599Y-4.682
X10.8599Y-4.682
X11.1019Y-3.073
X11.1019Y-3.173
X11.1019Y-3.273
X11.1019Y-3.373
X11.1882Y-6.1656
X11.1882Y-6.2656
X11.1882Y-6.3656
X11.1882Y-6.4656
X11.1882Y-7.893
X11.1882Y-7.993
X11.1882Y-8.093
X11.1882Y-8.193
X11.4659Y-6.1656
X11.4659Y-6.2656
X11.4659Y-6.3656
X11.4659Y-6.4656
X11.4659Y-7.893
X11.4659Y-7.993
X11.4659Y-8.093
X11.4659Y-8.193
X11.6106Y-7.135
X11.6106Y-7.235
X11.941Y-4.682
X12.041Y-4.682
X12.2626Y-6.1656
X12.2626Y-6.2656
X12.2626Y-6.3656
X12.2626Y-6.4656
X12.2626Y-7.893
X12.2626Y-7.993
X12.2626Y-8.093
X12.2626Y-8.193
X12.5903Y-5.8266
X12.5903Y-5.9266
X12.5903Y-6.0266
X12.5903Y-6.1266
X12.5903Y-6.2266
X12.5903Y-6.3266
X12.5903Y-6.4266
X12.5903Y-6.5266
X12.5903Y-6.6266
X12.5903Y-7.554
X12.5903Y-7.654
X12.5903Y-7.754
X12.5903Y-7.854
X12.5903Y-7.954
X12.5903Y-8.054
X12.5903Y-8.154
X12.5903Y-8.254
X12.5903Y-8.354
X14.23Y-3.0314
X14.23Y-3.1314
X14.23Y-4.2912
X14.23Y-4.3912
X14.247Y-5.8266
X14.247Y-5.9266
X14.247Y-6.0266
X14.247Y-6.1266
X14.247Y-6.2266
X14.247Y-6.3266
X14.247Y-6.4266
X14.247Y-6.5266
X14.247Y-6.6266
X14.247Y-7.554
X14.247Y-7.654
X14.247Y-7.754
X14.247Y-7.854
X14.247Y-7.954
X14.247Y-8.054
X14.247Y-8.154
X14.247Y-8.254
X14.247Y-8.354
T5
X3.6934Y-7.4802
X3.6934Y-7.5802
X3.6934Y-7.6802
X3.6934Y-7.7802
X3.6934Y-8.2676
X3.6934Y-8.3676
X3.6934Y-8.4676
X3.6934Y-8.5676
X10.0082Y-1.473
X10.0082Y-1.573
X10.0082Y-1.673
X10.0082Y-1.773
X10.0082Y-1.873
X10.0082Y-1.973
X10.0082Y-2.073
X10.0082Y-2.173
X10.0082Y-2.273
X10.0082Y-2.373
X10.0082Y-2.473
X10.0082Y-2.573
X10.0082Y-2.673
X10.0082Y-2.773
X10.0082Y-2.873
X10.0082Y-2.973
X10.0082Y-3.073
X10.0082Y-3.173
X10.0082Y-3.273
X10.0082Y-3.373
X10.2582Y-3.3639
X10.3582Y-3.3639
X10.4582Y-3.3639
X10.7082Y-1.473
X10.7082Y-1.573
X10.7082Y-1.673
X10.7082Y-1.773
X10.7082Y-1.873
X10.7082Y-1.973
X10.7082Y-2.073
X10.7082Y-2.173
X10.7082Y-2.273
X10.7082Y-2.373
X10.7082Y-2.473
X10.7082Y-2.573
X10.7082Y-2.673
X10.7082Y-2.773
X10.7082Y-2.873
X10.7082Y-2.973
X10.7082Y-3.073
X10.7082Y-3.173
X10.7082Y-3.273
X10.7082Y-3.373
T6
X6.473Y-8.148
X10.077Y-5.734
T7
X9.7184Y-5.7693
X9.7184Y-5.9252
X10.3357Y-9.0671
X10.4916Y-9.0671
X10.7688Y-9.0671
X10.9247Y-9.0671
X11.2019Y-9.0671
X11.3578Y-9.0671
X11.6349Y-9.0671
X11.7488Y-5.252
X11.7908Y-9.0671
X11.9047Y-5.252
X12.068Y-9.0671
X12.2064Y-2.4035
X12.2239Y-9.0671
X12.2271Y-3.62
X12.3623Y-2.4035
X12.383Y-3.62
X12.9299Y-5.252
X13.0858Y-5.252
X13.217Y-1.4699
X13.217Y-1.655
X13.217Y-1.84
X14.111Y-5.252
X14.184Y-2.1811
X14.184Y-2.337
X14.2669Y-5.252
T8
X8.709Y-6.672
X10.82Y-4.236
X11.446Y-3.615
X11.963Y-6.065
X13.975Y-5.682
X14.158Y-3.77
T9
X3.6263Y-6.6149
X3.6263Y-9.174
X9.5319Y-1.4968
X9.5319Y-6.2212
X13.6099Y-1.7392
X13.7989Y-1.629
X13.7989Y-1.8573
X14.2563Y-1.4968
X14.2563Y-9.174
M30
