%TF.GenerationSoftware,KiCad,Pcbnew,8.0.0-rc1-6-gb7460f29b4*%
%TF.CreationDate,2025-05-04T02:24:46+02:00*%
%TF.ProjectId,qpcb,71706362-2e6b-4696-9361-645f70636258,rev?*%
%TF.SameCoordinates,Original*%
%TF.FileFunction,Soldermask,Top*%
%TF.FilePolarity,Negative*%
%FSLAX46Y46*%
G04 Gerber Fmt 4.6, Leading zero omitted, Abs format (unit mm)*
G04 Created by KiCad (PCBNEW 8.0.0-rc1-6-gb7460f29b4) date 2025-05-04 02:24:46*
%MOMM*%
%LPD*%
G01*
G04 APERTURE LIST*
G04 Aperture macros list*
%AMRoundRect*
0 Rectangle with rounded corners*
0 $1 Rounding radius*
0 $2 $3 $4 $5 $6 $7 $8 $9 X,Y pos of 4 corners*
0 Add a 4 corners polygon primitive as box body*
4,1,4,$2,$3,$4,$5,$6,$7,$8,$9,$2,$3,0*
0 Add four circle primitives for the rounded corners*
1,1,$1+$1,$2,$3*
1,1,$1+$1,$4,$5*
1,1,$1+$1,$6,$7*
1,1,$1+$1,$8,$9*
0 Add four rect primitives between the rounded corners*
20,1,$1+$1,$2,$3,$4,$5,0*
20,1,$1+$1,$4,$5,$6,$7,0*
20,1,$1+$1,$6,$7,$8,$9,0*
20,1,$1+$1,$8,$9,$2,$3,0*%
G04 Aperture macros list end*
%ADD10R,0.920000X2.820000*%
%ADD11R,1.700000X1.700000*%
%ADD12C,1.700000*%
%ADD13C,1.000000*%
%ADD14RoundRect,0.250000X0.475000X-0.337500X0.475000X0.337500X-0.475000X0.337500X-0.475000X-0.337500X0*%
%ADD15RoundRect,0.250000X-0.475000X0.337500X-0.475000X-0.337500X0.475000X-0.337500X0.475000X0.337500X0*%
%ADD16R,1.150000X1.050000*%
%ADD17R,0.700000X1.350000*%
%ADD18R,1.150000X0.700000*%
%ADD19RoundRect,0.250000X0.337500X0.475000X-0.337500X0.475000X-0.337500X-0.475000X0.337500X-0.475000X0*%
%ADD20C,5.600000*%
%ADD21R,2.413000X5.334000*%
%ADD22C,2.775000*%
%ADD23RoundRect,0.250000X-0.450000X0.325000X-0.450000X-0.325000X0.450000X-0.325000X0.450000X0.325000X0*%
%ADD24R,1.525000X0.650000*%
%ADD25R,2.600000X3.100000*%
%ADD26R,2.230000X2.370000*%
%ADD27O,1.700000X1.700000*%
%ADD28R,3.073400X2.260600*%
%ADD29R,2.768600X2.260600*%
%ADD30R,2.100000X1.400000*%
%ADD31RoundRect,0.250000X-0.337500X-0.475000X0.337500X-0.475000X0.337500X0.475000X-0.337500X0.475000X0*%
%ADD32R,1.170000X1.260000*%
%ADD33R,1.220000X2.820000*%
%ADD34R,1.400000X2.100000*%
%ADD35R,2.100000X2.100000*%
%ADD36C,2.100000*%
%ADD37R,2.300000X1.800000*%
%ADD38R,1.900000X4.150000*%
%ADD39R,3.400000X5.000000*%
%ADD40C,4.800000*%
%ADD41R,1.600000X3.300000*%
%ADD42R,1.067000X2.286000*%
%ADD43R,10.668000X8.890000*%
%ADD44RoundRect,0.102000X-1.387500X1.387500X-1.387500X-1.387500X1.387500X-1.387500X1.387500X1.387500X0*%
%ADD45C,2.979000*%
%ADD46C,1.500000*%
%ADD47C,1.300000*%
%ADD48R,1.530000X1.530000*%
%ADD49C,1.550000*%
%ADD50R,5.510000X2.390000*%
%ADD51R,2.820000X0.920000*%
%ADD52R,2.370000X2.230000*%
%ADD53R,1.300000X2.800000*%
%ADD54RoundRect,0.100500X0.301500X-0.986500X0.301500X0.986500X-0.301500X0.986500X-0.301500X-0.986500X0*%
%ADD55R,1.060000X2.600000*%
%ADD56R,5.632000X5.700000*%
%ADD57R,2.700000X2.200000*%
%ADD58R,1.200000X0.750000*%
%ADD59RoundRect,0.249999X1.425001X-0.450001X1.425001X0.450001X-1.425001X0.450001X-1.425001X-0.450001X0*%
%ADD60O,1.800000X1.800000*%
%ADD61O,1.500000X1.500000*%
%ADD62R,3.500000X1.700000*%
%ADD63R,1.700000X3.500000*%
G04 APERTURE END LIST*
D10*
%TO.C,C11*%
X314922700Y-116054800D03*
X311842700Y-116054800D03*
%TD*%
D11*
%TO.C,U16*%
X168573000Y-171729400D03*
X205232000Y-171729400D03*
D12*
X168573000Y-174269400D03*
X205232000Y-174269400D03*
X168573000Y-176809400D03*
X205232000Y-176809400D03*
X168573000Y-179349400D03*
X205232000Y-179349400D03*
%TD*%
D13*
%TO.C,TP20*%
X210134200Y-167335200D03*
%TD*%
D14*
%TO.C,R20*%
X291939400Y-44065100D03*
X291939400Y-41990100D03*
%TD*%
D13*
%TO.C,TP4*%
X358241600Y-77397800D03*
%TD*%
D15*
%TO.C,R31*%
X362728200Y-123057300D03*
X362728200Y-125132300D03*
%TD*%
D16*
%TO.C,Y1*%
X309081200Y-183470800D03*
D17*
X310506200Y-183320800D03*
X311706200Y-183320800D03*
D16*
X313131200Y-183470800D03*
D18*
X313131200Y-182295800D03*
D16*
X313131200Y-181120800D03*
D17*
X311706200Y-181270800D03*
X310506200Y-181270800D03*
D16*
X309081200Y-181120800D03*
D18*
X309081200Y-182295800D03*
%TD*%
D13*
%TO.C,TP9*%
X322252400Y-139954000D03*
%TD*%
D19*
%TO.C,R1*%
X291477900Y-117678000D03*
X289402900Y-117678000D03*
%TD*%
D20*
%TO.C,H3*%
X242109000Y-158019600D03*
%TD*%
D13*
%TO.C,TP7*%
X275539200Y-122250200D03*
%TD*%
%TO.C,TP12*%
X272252400Y-139954000D03*
%TD*%
D10*
%TO.C,C3*%
X284922700Y-116054800D03*
X281842700Y-116054800D03*
%TD*%
D21*
%TO.C,L3*%
X338424400Y-93048200D03*
X345662400Y-93048200D03*
%TD*%
D22*
%TO.C,J14*%
X266487200Y-230305400D03*
X262527200Y-230305400D03*
%TD*%
D23*
%TO.C,D12*%
X291939400Y-37002600D03*
X291939400Y-39052600D03*
%TD*%
D19*
%TO.C,C62*%
X243709684Y-140695010D03*
X241634684Y-140695010D03*
%TD*%
D24*
%TO.C,IC2*%
X349331400Y-69143200D03*
X349331400Y-70413200D03*
X349331400Y-71683200D03*
X349331400Y-72953200D03*
X354755400Y-72953200D03*
X354755400Y-71683200D03*
X354755400Y-70413200D03*
X354755400Y-69143200D03*
D25*
X352043400Y-71048200D03*
%TD*%
D26*
%TO.C,C35*%
X329331400Y-106648200D03*
X329331400Y-101708200D03*
%TD*%
D22*
%TO.C,J11*%
X299487200Y-230305400D03*
X295527200Y-230305400D03*
%TD*%
D11*
%TO.C,JP9*%
X294909800Y-181229000D03*
D27*
X294909800Y-183769000D03*
%TD*%
D23*
%TO.C,D13*%
X285939400Y-37002600D03*
X285939400Y-39052600D03*
%TD*%
D13*
%TO.C,TP5*%
X307492400Y-81788000D03*
%TD*%
D20*
%TO.C,H1*%
X362109000Y-38019600D03*
%TD*%
D13*
%TO.C,TP2*%
X307543400Y-69848200D03*
%TD*%
D28*
%TO.C,L1*%
X343648402Y-55728200D03*
X336438398Y-55728200D03*
D29*
X340043400Y-66368200D03*
%TD*%
D13*
%TO.C,TP8*%
X322554600Y-85547200D03*
%TD*%
D30*
%TO.C,D16*%
X307543400Y-77248200D03*
X307543400Y-72848200D03*
%TD*%
D14*
%TO.C,R32*%
X321831400Y-103783200D03*
X321831400Y-101708200D03*
%TD*%
D13*
%TO.C,TP18*%
X307252400Y-139954000D03*
%TD*%
D15*
%TO.C,C2*%
X357043400Y-70010700D03*
X357043400Y-72085700D03*
%TD*%
D24*
%TO.C,IC5*%
X349331400Y-101143200D03*
X349331400Y-102413200D03*
X349331400Y-103683200D03*
X349331400Y-104953200D03*
X354755400Y-104953200D03*
X354755400Y-103683200D03*
X354755400Y-102413200D03*
X354755400Y-101143200D03*
D25*
X352043400Y-103048200D03*
%TD*%
D31*
%TO.C,C1*%
X289402900Y-115178000D03*
X291477900Y-115178000D03*
%TD*%
%TO.C,C18*%
X349402900Y-115178000D03*
X351477900Y-115178000D03*
%TD*%
D32*
%TO.C,D18*%
X344331400Y-100633200D03*
X344331400Y-103683200D03*
%TD*%
D22*
%TO.C,J12*%
X288487200Y-230305400D03*
X284527200Y-230305400D03*
%TD*%
D11*
%TO.C,U15*%
X168573000Y-195691400D03*
X205232000Y-195691400D03*
D12*
X168573000Y-198231400D03*
X205232000Y-198231400D03*
X168573000Y-200771400D03*
X205232000Y-200771400D03*
X168573000Y-203311400D03*
X205232000Y-203311400D03*
%TD*%
D19*
%TO.C,R12*%
X349331400Y-75953200D03*
X347256400Y-75953200D03*
%TD*%
D13*
%TO.C,TP3*%
X352252400Y-139954000D03*
%TD*%
D23*
%TO.C,D1*%
X327939400Y-37047600D03*
X327939400Y-39097600D03*
%TD*%
D22*
%TO.C,J8*%
X298418800Y-133400600D03*
X302378800Y-133400600D03*
%TD*%
D30*
%TO.C,D19*%
X314331400Y-104945700D03*
X314331400Y-100545700D03*
%TD*%
D33*
%TO.C,C45*%
X247066484Y-106455810D03*
X249766484Y-106455810D03*
%TD*%
D34*
%TO.C,D23*%
X256087084Y-141330010D03*
X251687084Y-141330010D03*
%TD*%
D35*
%TO.C,LO2*%
X319794000Y-212191600D03*
D36*
X319794000Y-209651600D03*
X319794000Y-207111600D03*
X319794000Y-204571600D03*
X319794000Y-202031600D03*
X319794000Y-199491600D03*
X319794000Y-196951600D03*
X319794000Y-194411600D03*
X319794000Y-191871600D03*
D35*
X361873800Y-212191600D03*
D36*
X361873800Y-209651600D03*
X361873800Y-207111600D03*
X361873800Y-204571600D03*
X361873800Y-202031600D03*
X361873800Y-199491600D03*
X361873800Y-196951600D03*
X361873800Y-194411600D03*
X361873800Y-191871600D03*
%TD*%
D20*
%TO.C,H5*%
X92109000Y-233019600D03*
%TD*%
D37*
%TO.C,C34*%
X334331400Y-100708200D03*
X334331400Y-103608200D03*
%TD*%
D26*
%TO.C,C12*%
X321043400Y-77518200D03*
X321043400Y-72578200D03*
%TD*%
D13*
%TO.C,TP13*%
X305866800Y-122250200D03*
%TD*%
D38*
%TO.C,C10*%
X330043400Y-71573200D03*
X330043400Y-78523200D03*
%TD*%
D13*
%TO.C,TP14*%
X247354484Y-142523810D03*
%TD*%
D39*
%TO.C,L2*%
X329493400Y-61048200D03*
X320593400Y-61048200D03*
%TD*%
D40*
%TO.C,J15*%
X350492200Y-47176400D03*
X350492200Y-41376400D03*
X345692200Y-44176400D03*
%TD*%
D23*
%TO.C,D11*%
X297939400Y-37002600D03*
X297939400Y-39052600D03*
%TD*%
D30*
%TO.C,D17*%
X302615000Y-77363200D03*
X302615000Y-72963200D03*
%TD*%
D39*
%TO.C,L4*%
X331493400Y-93048200D03*
X322593400Y-93048200D03*
%TD*%
D34*
%TO.C,D22*%
X256133084Y-136580210D03*
X251733084Y-136580210D03*
%TD*%
D41*
%TO.C,L6*%
X252937684Y-127461610D03*
X261837684Y-127461610D03*
%TD*%
D42*
%TO.C,IC1*%
X291228200Y-122554800D03*
X289526200Y-122554800D03*
X287824200Y-122554800D03*
X286122200Y-122554800D03*
X284420200Y-122554800D03*
D43*
X287824200Y-131825800D03*
%TD*%
D22*
%TO.C,J4*%
X310567600Y-91947800D03*
X314527600Y-91947800D03*
%TD*%
D44*
%TO.C,SW1*%
X335711800Y-37336000D03*
D45*
X335711800Y-42036000D03*
X335711800Y-46736000D03*
%TD*%
D11*
%TO.C,U20*%
X215595200Y-209198200D03*
D27*
X215595200Y-211738200D03*
X215595200Y-214278200D03*
X215595200Y-216818200D03*
X215595200Y-219358200D03*
D11*
X251815600Y-209198200D03*
D27*
X251815600Y-211738200D03*
X251815600Y-214278200D03*
X251815600Y-216818200D03*
X251815600Y-219358200D03*
%TD*%
D11*
%TO.C,U19*%
X215595200Y-178734200D03*
D27*
X215595200Y-181274200D03*
X215595200Y-183814200D03*
X215595200Y-186354200D03*
X215595200Y-188894200D03*
D11*
X251815600Y-178734200D03*
D27*
X251815600Y-181274200D03*
X251815600Y-183814200D03*
X251815600Y-186354200D03*
X251815600Y-188894200D03*
%TD*%
D46*
%TO.C,MUXOUT_1*%
X338828400Y-232638600D03*
%TD*%
D15*
%TO.C,C70*%
X303911000Y-181055100D03*
X303911000Y-183130100D03*
%TD*%
D47*
%TO.C,J17*%
X91651200Y-212537600D03*
D48*
X93811200Y-217617600D03*
D49*
X93811200Y-215077600D03*
X93811200Y-212537600D03*
X93811200Y-209997600D03*
%TD*%
D50*
%TO.C,C19*%
X361543400Y-100788200D03*
X361543400Y-105308200D03*
%TD*%
D14*
%TO.C,C8*%
X300228200Y-125132300D03*
X300228200Y-123057300D03*
%TD*%
D11*
%TO.C,U10*%
X159562800Y-177901600D03*
D12*
X159562800Y-180441600D03*
X159562800Y-182981600D03*
X159562800Y-185521600D03*
D11*
X139326800Y-177901600D03*
D12*
X139326800Y-180441600D03*
X139326800Y-182981600D03*
X139326800Y-185521600D03*
%TD*%
D50*
%TO.C,C4*%
X361543400Y-68788200D03*
X361543400Y-73308200D03*
%TD*%
D37*
%TO.C,C31*%
X339331400Y-100708200D03*
X339331400Y-103608200D03*
%TD*%
D51*
%TO.C,C6*%
X296228200Y-125634800D03*
X296228200Y-122554800D03*
%TD*%
D11*
%TO.C,JP4*%
X361442000Y-111536400D03*
D27*
X361442000Y-108996400D03*
%TD*%
D13*
%TO.C,TP15*%
X271957800Y-184759600D03*
%TD*%
D14*
%TO.C,R14*%
X297939400Y-44065100D03*
X297939400Y-41990100D03*
%TD*%
D22*
%TO.C,J10*%
X310487200Y-230305400D03*
X306527200Y-230305400D03*
%TD*%
D13*
%TO.C,TP10*%
X271957800Y-181259600D03*
%TD*%
D22*
%TO.C,J5*%
X310043400Y-61048200D03*
X314003400Y-61048200D03*
%TD*%
D15*
%TO.C,C14*%
X316043400Y-74010700D03*
X316043400Y-76085700D03*
%TD*%
D19*
%TO.C,R19*%
X321477900Y-117678000D03*
X319402900Y-117678000D03*
%TD*%
D13*
%TO.C,TP6*%
X292252400Y-139954000D03*
%TD*%
D23*
%TO.C,D2*%
X321939400Y-37002600D03*
X321939400Y-39052600D03*
%TD*%
D14*
%TO.C,C24*%
X360228200Y-125132300D03*
X360228200Y-123057300D03*
%TD*%
D31*
%TO.C,C22*%
X351005900Y-98048200D03*
X353080900Y-98048200D03*
%TD*%
D51*
%TO.C,C23*%
X356228200Y-125634800D03*
X356228200Y-122554800D03*
%TD*%
D52*
%TO.C,C59*%
X242441284Y-136758010D03*
X247381284Y-136758010D03*
%TD*%
D19*
%TO.C,C13*%
X314420200Y-119054800D03*
X312345200Y-119054800D03*
%TD*%
D14*
%TO.C,R3*%
X321939400Y-44065100D03*
X321939400Y-41990100D03*
%TD*%
D15*
%TO.C,C36*%
X324331400Y-101708200D03*
X324331400Y-103783200D03*
%TD*%
D42*
%TO.C,IC4*%
X351228200Y-122554800D03*
X349526200Y-122554800D03*
X347824200Y-122554800D03*
X346122200Y-122554800D03*
X344420200Y-122554800D03*
D43*
X347824200Y-131825800D03*
%TD*%
D53*
%TO.C,C57*%
X255470284Y-118266810D03*
X250770284Y-118266810D03*
%TD*%
D14*
%TO.C,R36*%
X250092884Y-114275110D03*
X250092884Y-112200110D03*
%TD*%
D15*
%TO.C,R27*%
X332728200Y-123057300D03*
X332728200Y-125132300D03*
%TD*%
D22*
%TO.C,J9*%
X328418800Y-133400600D03*
X332378800Y-133400600D03*
%TD*%
D31*
%TO.C,C43*%
X247328184Y-109326010D03*
X249403184Y-109326010D03*
%TD*%
D14*
%TO.C,R2*%
X327939400Y-44065100D03*
X327939400Y-41990100D03*
%TD*%
D11*
%TO.C,U5*%
X311469400Y-200482200D03*
D12*
X311469400Y-203022200D03*
X311469400Y-205562200D03*
X311469400Y-208102200D03*
D11*
X291233400Y-200482200D03*
D12*
X291233400Y-203022200D03*
X291233400Y-205562200D03*
X291233400Y-208102200D03*
%TD*%
D11*
%TO.C,JP3*%
X268909800Y-181229000D03*
D27*
X268909800Y-183769000D03*
%TD*%
D23*
%TO.C,D5*%
X315939400Y-37002600D03*
X315939400Y-39052600D03*
%TD*%
D11*
%TO.C,J2*%
X281988400Y-85674000D03*
D27*
X281988400Y-83134000D03*
X281988400Y-80594000D03*
X281988400Y-78054000D03*
%TD*%
D14*
%TO.C,C16*%
X330228200Y-125132300D03*
X330228200Y-123057300D03*
%TD*%
D19*
%TO.C,R13*%
X354331400Y-75953200D03*
X352256400Y-75953200D03*
%TD*%
D23*
%TO.C,D6*%
X309939400Y-37002600D03*
X309939400Y-39052600D03*
%TD*%
D13*
%TO.C,TP1*%
X358241600Y-109397800D03*
%TD*%
D54*
%TO.C,U2*%
X242599884Y-117510010D03*
X243869884Y-117510010D03*
X245139884Y-117510010D03*
X246409884Y-117510010D03*
X246409884Y-112570010D03*
X245139884Y-112570010D03*
X243869884Y-112570010D03*
X242599884Y-112570010D03*
%TD*%
D30*
%TO.C,D20*%
X309331400Y-104945700D03*
X309331400Y-100545700D03*
%TD*%
D11*
%TO.C,U11*%
X159562800Y-214588600D03*
D12*
X159562800Y-217128600D03*
X159562800Y-219668600D03*
X159562800Y-222208600D03*
D11*
X139326800Y-214588600D03*
D12*
X139326800Y-217128600D03*
X139326800Y-219668600D03*
X139326800Y-222208600D03*
%TD*%
D55*
%TO.C,D8*%
X342329400Y-70998200D03*
D56*
X340043400Y-77548200D03*
D55*
X337757400Y-70998200D03*
%TD*%
D11*
%TO.C,JP8*%
X305841400Y-118922800D03*
D27*
X303301400Y-118922800D03*
%TD*%
D13*
%TO.C,TP16*%
X297957800Y-181259600D03*
%TD*%
D31*
%TO.C,C9*%
X319402900Y-115178000D03*
X321477900Y-115178000D03*
%TD*%
%TO.C,C47*%
X245787484Y-120095610D03*
X247862484Y-120095610D03*
%TD*%
D35*
%TO.C,LO1*%
X319794000Y-168314600D03*
D36*
X319794000Y-165774600D03*
X319794000Y-163234600D03*
X319794000Y-160694600D03*
X319794000Y-158154600D03*
X319794000Y-155614600D03*
X319794000Y-153074600D03*
X319794000Y-150534600D03*
X319794000Y-147994600D03*
D35*
X361873800Y-168314600D03*
D36*
X361873800Y-165774600D03*
X361873800Y-163234600D03*
X361873800Y-160694600D03*
X361873800Y-158154600D03*
X361873800Y-155614600D03*
X361873800Y-153074600D03*
X361873800Y-150534600D03*
X361873800Y-147994600D03*
%TD*%
D11*
%TO.C,U14*%
X168573000Y-219653400D03*
X205232000Y-219653400D03*
D12*
X168573000Y-222193400D03*
X205232000Y-222193400D03*
X168573000Y-224733400D03*
X205232000Y-224733400D03*
X168573000Y-227273400D03*
X205232000Y-227273400D03*
%TD*%
D14*
%TO.C,R8*%
X315939400Y-44065100D03*
X315939400Y-41990100D03*
%TD*%
D51*
%TO.C,C15*%
X326228200Y-125634800D03*
X326228200Y-122554800D03*
%TD*%
D11*
%TO.C,U4*%
X311469400Y-156605200D03*
D12*
X311469400Y-159145200D03*
X311469400Y-161685200D03*
X311469400Y-164225200D03*
D11*
X291233400Y-156605200D03*
D12*
X291233400Y-159145200D03*
X291233400Y-161685200D03*
X291233400Y-164225200D03*
%TD*%
D15*
%TO.C,R11*%
X302728200Y-123057300D03*
X302728200Y-125132300D03*
%TD*%
D10*
%TO.C,C20*%
X344922700Y-116054800D03*
X341842700Y-116054800D03*
%TD*%
D14*
%TO.C,R37*%
X252592884Y-114275110D03*
X252592884Y-112200110D03*
%TD*%
D11*
%TO.C,JP2*%
X361442000Y-79536400D03*
D27*
X361442000Y-76996400D03*
%TD*%
D20*
%TO.C,H2*%
X242109000Y-38019600D03*
%TD*%
D57*
%TO.C,L5*%
X243122884Y-125836010D03*
X248822884Y-125836010D03*
%TD*%
D58*
%TO.C,D21*%
X242474684Y-132262210D03*
X245874684Y-132262210D03*
%TD*%
D22*
%TO.C,J3*%
X360273600Y-55399800D03*
X360273600Y-59359800D03*
%TD*%
D15*
%TO.C,C69*%
X306273200Y-181055100D03*
X306273200Y-183130100D03*
%TD*%
D31*
%TO.C,C7*%
X351005900Y-66048200D03*
X353080900Y-66048200D03*
%TD*%
D46*
%TO.C,MUXOUT_2*%
X328828400Y-232638600D03*
%TD*%
D14*
%TO.C,R9*%
X309939400Y-44065100D03*
X309939400Y-41990100D03*
%TD*%
D13*
%TO.C,TP11*%
X314375800Y-109474000D03*
%TD*%
%TO.C,TP19*%
X297957800Y-184759600D03*
%TD*%
D15*
%TO.C,C17*%
X357043400Y-102010700D03*
X357043400Y-104085700D03*
%TD*%
D11*
%TO.C,JP1*%
X275841400Y-118922800D03*
D27*
X273301400Y-118922800D03*
%TD*%
D11*
%TO.C,U7*%
X132273800Y-214588600D03*
D12*
X132273800Y-217128600D03*
X132273800Y-219668600D03*
X132273800Y-222208600D03*
D11*
X112037800Y-214588600D03*
D12*
X112037800Y-217128600D03*
X112037800Y-219668600D03*
X112037800Y-222208600D03*
%TD*%
D23*
%TO.C,D7*%
X303939400Y-37002600D03*
X303939400Y-39052600D03*
%TD*%
D22*
%TO.C,J13*%
X277487200Y-230305400D03*
X273527200Y-230305400D03*
%TD*%
D19*
%TO.C,R29*%
X349331400Y-107953200D03*
X347256400Y-107953200D03*
%TD*%
D20*
%TO.C,H4*%
X92109000Y-168019600D03*
%TD*%
D11*
%TO.C,U9*%
X284180400Y-200482200D03*
D12*
X284180400Y-203022200D03*
X284180400Y-205562200D03*
X284180400Y-208102200D03*
D11*
X263944400Y-200482200D03*
D12*
X263944400Y-203022200D03*
X263944400Y-205562200D03*
X263944400Y-208102200D03*
%TD*%
D19*
%TO.C,R30*%
X354331400Y-107953200D03*
X352256400Y-107953200D03*
%TD*%
D22*
%TO.C,J7*%
X358418800Y-133400600D03*
X362378800Y-133400600D03*
%TD*%
D19*
%TO.C,R28*%
X351477900Y-117678000D03*
X349402900Y-117678000D03*
%TD*%
D14*
%TO.C,R21*%
X285939400Y-44065100D03*
X285939400Y-41990100D03*
%TD*%
%TO.C,R22*%
X313543400Y-76085700D03*
X313543400Y-74010700D03*
%TD*%
%TO.C,R10*%
X303939400Y-44065100D03*
X303939400Y-41990100D03*
%TD*%
D11*
%TO.C,U6*%
X284180400Y-156605200D03*
D12*
X284180400Y-159145200D03*
X284180400Y-161685200D03*
X284180400Y-164225200D03*
D11*
X263944400Y-156605200D03*
D12*
X263944400Y-159145200D03*
X263944400Y-161685200D03*
X263944400Y-164225200D03*
%TD*%
D59*
%TO.C,R35*%
X243666684Y-109455010D03*
X243666684Y-103355010D03*
%TD*%
D13*
%TO.C,TP17*%
X261133084Y-136580210D03*
%TD*%
D42*
%TO.C,IC3*%
X321228200Y-122554800D03*
X319526200Y-122554800D03*
X317824200Y-122554800D03*
X316122200Y-122554800D03*
X314420200Y-122554800D03*
D43*
X317824200Y-131825800D03*
%TD*%
D19*
%TO.C,C5*%
X284420200Y-119054800D03*
X282345200Y-119054800D03*
%TD*%
%TO.C,C21*%
X344420200Y-119054800D03*
X342345200Y-119054800D03*
%TD*%
D22*
%TO.C,J6*%
X246846484Y-150499410D03*
X246846484Y-146539410D03*
%TD*%
D47*
%TO.C,J16*%
X91651200Y-192537600D03*
D48*
X93811200Y-197617600D03*
D49*
X93811200Y-195077600D03*
X93811200Y-192537600D03*
X93811200Y-189997600D03*
%TD*%
D11*
%TO.C,U3*%
X132273800Y-177901600D03*
D12*
X132273800Y-180441600D03*
X132273800Y-182981600D03*
X132273800Y-185521600D03*
D11*
X112037800Y-177901600D03*
D12*
X112037800Y-180441600D03*
X112037800Y-182981600D03*
X112037800Y-185521600D03*
%TD*%
D60*
%TO.C,U1*%
X260373400Y-37544000D03*
D61*
X260673400Y-40574000D03*
X265523400Y-40574000D03*
D60*
X265823400Y-37544000D03*
D27*
X254208400Y-37414000D03*
D62*
X253308400Y-37414000D03*
D27*
X254208400Y-39954000D03*
D62*
X253308400Y-39954000D03*
D11*
X254208400Y-42494000D03*
D62*
X253308400Y-42494000D03*
D27*
X254208400Y-45034000D03*
D62*
X253308400Y-45034000D03*
D27*
X254208400Y-47574000D03*
D62*
X253308400Y-47574000D03*
D27*
X254208400Y-50114000D03*
D62*
X253308400Y-50114000D03*
D27*
X254208400Y-52654000D03*
D62*
X253308400Y-52654000D03*
D11*
X254208400Y-55194000D03*
D62*
X253308400Y-55194000D03*
D27*
X254208400Y-57734000D03*
D62*
X253308400Y-57734000D03*
D27*
X254208400Y-60274000D03*
D62*
X253308400Y-60274000D03*
D27*
X254208400Y-62814000D03*
D62*
X253308400Y-62814000D03*
D27*
X254208400Y-65354000D03*
D62*
X253308400Y-65354000D03*
D11*
X254208400Y-67894000D03*
D62*
X253308400Y-67894000D03*
D27*
X254208400Y-70434000D03*
D62*
X253308400Y-70434000D03*
D27*
X254208400Y-72974000D03*
D62*
X253308400Y-72974000D03*
D27*
X254208400Y-75514000D03*
D62*
X253308400Y-75514000D03*
D27*
X254208400Y-78054000D03*
D62*
X253308400Y-78054000D03*
D11*
X254208400Y-80594000D03*
D62*
X253308400Y-80594000D03*
D27*
X254208400Y-83134000D03*
D62*
X253308400Y-83134000D03*
D27*
X254208400Y-85674000D03*
D62*
X253308400Y-85674000D03*
D27*
X271988400Y-85674000D03*
D62*
X272888400Y-85674000D03*
D27*
X271988400Y-83134000D03*
D62*
X272888400Y-83134000D03*
D11*
X271988400Y-80594000D03*
D62*
X272888400Y-80594000D03*
D27*
X271988400Y-78054000D03*
D62*
X272888400Y-78054000D03*
D27*
X271988400Y-75514000D03*
D62*
X272888400Y-75514000D03*
D27*
X271988400Y-72974000D03*
D62*
X272888400Y-72974000D03*
D27*
X271988400Y-70434000D03*
D62*
X272888400Y-70434000D03*
D11*
X271988400Y-67894000D03*
D62*
X272888400Y-67894000D03*
D27*
X271988400Y-65354000D03*
D62*
X272888400Y-65354000D03*
D27*
X271988400Y-62814000D03*
D62*
X272888400Y-62814000D03*
D27*
X271988400Y-60274000D03*
D62*
X272888400Y-60274000D03*
D27*
X271988400Y-57734000D03*
D62*
X272888400Y-57734000D03*
D11*
X271988400Y-55194000D03*
D62*
X272888400Y-55194000D03*
D27*
X271988400Y-52654000D03*
D62*
X272888400Y-52654000D03*
D27*
X271988400Y-50114000D03*
D62*
X272888400Y-50114000D03*
D27*
X271988400Y-47574000D03*
D62*
X272888400Y-47574000D03*
D27*
X271988400Y-45034000D03*
D62*
X272888400Y-45034000D03*
D11*
X271988400Y-42494000D03*
D62*
X272888400Y-42494000D03*
D27*
X271988400Y-39954000D03*
D62*
X272888400Y-39954000D03*
D27*
X271988400Y-37414000D03*
D62*
X272888400Y-37414000D03*
D27*
X260558400Y-85444000D03*
D63*
X260558400Y-86344000D03*
D11*
X263098400Y-85444000D03*
D63*
X263098400Y-86344000D03*
D27*
X265638400Y-85444000D03*
D63*
X265638400Y-86344000D03*
%TD*%
D20*
%TO.C,H6*%
X362109000Y-233019600D03*
%TD*%
M02*
