%TF.GenerationSoftware,KiCad,Pcbnew,(6.0.9)*%
%TF.CreationDate,2023-11-09T09:33:38+01:00*%
%TF.ProjectId,LO_daughter,4c4f5f64-6175-4676-9874-65722e6b6963,rev?*%
%TF.SameCoordinates,Original*%
%TF.FileFunction,Copper,L2,Bot*%
%TF.FilePolarity,Positive*%
%FSLAX46Y46*%
G04 Gerber Fmt 4.6, Leading zero omitted, Abs format (unit mm)*
G04 Created by KiCad (PCBNEW (6.0.9)) date 2023-11-09 09:33:38*
%MOMM*%
%LPD*%
G01*
G04 APERTURE LIST*
%TA.AperFunction,SMDPad,CuDef*%
%ADD10R,7.000000X5.000000*%
%TD*%
%TA.AperFunction,ComponentPad*%
%ADD11R,2.100000X2.100000*%
%TD*%
%TA.AperFunction,ComponentPad*%
%ADD12C,2.100000*%
%TD*%
%TA.AperFunction,ViaPad*%
%ADD13C,1.900000*%
%TD*%
%TA.AperFunction,ViaPad*%
%ADD14C,0.800000*%
%TD*%
%TA.AperFunction,ViaPad*%
%ADD15C,0.400000*%
%TD*%
%TA.AperFunction,Conductor*%
%ADD16C,1.072000*%
%TD*%
G04 APERTURE END LIST*
D10*
%TO.P,J3,2,Ext*%
%TO.N,GND*%
X141505000Y-89670000D03*
%TD*%
D11*
%TO.P,J2,1,Pin_1*%
%TO.N,unconnected-(J2-Pad1)*%
X173690000Y-79587500D03*
D12*
%TO.P,J2,2,Pin_2*%
%TO.N,unconnected-(J2-Pad2)*%
X173690000Y-77047500D03*
%TO.P,J2,3,Pin_3*%
%TO.N,unconnected-(J2-Pad3)*%
X173690000Y-74507500D03*
%TO.P,J2,4,Pin_4*%
%TO.N,unconnected-(J2-Pad4)*%
X173690000Y-71967500D03*
%TO.P,J2,5,Pin_5*%
%TO.N,unconnected-(J2-Pad5)*%
X173690000Y-69427500D03*
%TO.P,J2,6,Pin_6*%
%TO.N,unconnected-(J2-Pad6)*%
X173665000Y-66887500D03*
%TO.P,J2,7,Pin_7*%
%TO.N,unconnected-(J2-Pad7)*%
X173665000Y-64347500D03*
%TO.P,J2,8,Pin_8*%
%TO.N,unconnected-(J2-Pad8)*%
X173665000Y-61807500D03*
%TO.P,J2,9,Pin_9*%
%TO.N,unconnected-(J2-Pad9)*%
X173665000Y-59262500D03*
%TD*%
D10*
%TO.P,J4,2,Ext*%
%TO.N,GND*%
X164365000Y-89670000D03*
%TD*%
D11*
%TO.P,J1,1,Pin_1*%
%TO.N,/3.3V_a*%
X131610000Y-79587500D03*
D12*
%TO.P,J1,2,Pin_2*%
%TO.N,/3.3V_d*%
X131610000Y-77047500D03*
%TO.P,J1,3,Pin_3*%
%TO.N,/5V*%
X131610000Y-74507500D03*
%TO.P,J1,4,Pin_4*%
%TO.N,/MUXOUT*%
X131610000Y-71967500D03*
%TO.P,J1,5,Pin_5*%
%TO.N,/REFIN_A*%
X131610000Y-69427500D03*
%TO.P,J1,6,Pin_6*%
%TO.N,/LE*%
X131585000Y-66887500D03*
%TO.P,J1,7,Pin_7*%
%TO.N,/DATA*%
X131585000Y-64347500D03*
%TO.P,J1,8,Pin_8*%
%TO.N,/CLK*%
X131585000Y-61807500D03*
%TO.P,J1,9,Pin_9*%
%TO.N,GND*%
X131585000Y-59262500D03*
%TD*%
D13*
%TO.N,/3.3V_d*%
X142470000Y-67950000D03*
X156403000Y-61380000D03*
D14*
%TO.N,GND*%
X158300000Y-56300000D03*
X146170000Y-93340000D03*
X155100000Y-87830000D03*
X171400000Y-74920000D03*
D15*
X153439000Y-68740000D03*
D14*
X165400000Y-72750000D03*
X169380000Y-78460000D03*
X157170000Y-55690000D03*
X136480000Y-88150000D03*
X148350000Y-86550000D03*
X158830000Y-87860000D03*
X142510000Y-72860000D03*
X167440000Y-55890000D03*
X133840000Y-55460000D03*
X155740000Y-55710000D03*
D15*
X154091000Y-69360000D03*
D14*
X151470000Y-89830000D03*
X139410000Y-86220000D03*
X149750000Y-87900000D03*
X169530000Y-58080000D03*
X137950000Y-84050000D03*
X167830000Y-81350000D03*
X153970000Y-79950000D03*
X153110000Y-81370000D03*
X153200000Y-93310000D03*
X144290000Y-83400000D03*
X134370000Y-88230000D03*
D15*
X154091000Y-69990000D03*
X154093500Y-70610000D03*
D14*
X169380000Y-86150000D03*
X169530000Y-64140000D03*
D15*
X152789500Y-68740000D03*
D14*
X171200000Y-84370000D03*
X139360000Y-55420000D03*
X171370000Y-76670000D03*
X150530000Y-85720000D03*
X169480000Y-76640000D03*
X143800000Y-86130000D03*
D15*
X152794500Y-70610000D03*
D14*
X165350000Y-85150000D03*
X132040000Y-55460000D03*
X169600000Y-62170000D03*
X162080000Y-84000000D03*
X154470000Y-56980000D03*
X173570000Y-55850000D03*
X134340000Y-90240000D03*
D15*
X152792000Y-69990000D03*
D14*
X155060000Y-89690000D03*
D15*
X154081000Y-68140000D03*
D14*
X169530000Y-73200000D03*
X155750000Y-57030000D03*
D15*
X154078500Y-67520000D03*
D14*
X171460000Y-60190000D03*
X156890000Y-91520000D03*
X145530000Y-83960000D03*
X173220000Y-90140000D03*
X156400000Y-63630000D03*
X149110000Y-85700000D03*
X131900000Y-56860000D03*
D15*
X154730500Y-68140000D03*
D14*
X151320000Y-86660000D03*
X149810000Y-86660000D03*
X138050000Y-81310000D03*
X153280000Y-85230000D03*
X169570000Y-60160000D03*
X149680000Y-93380000D03*
X130180000Y-56890000D03*
X163460000Y-78290000D03*
X167750000Y-78590000D03*
X140110000Y-85380000D03*
X154220000Y-85840000D03*
X134270000Y-82490000D03*
X166810000Y-82160000D03*
X158790000Y-91520000D03*
X139040000Y-81980000D03*
D15*
X152142500Y-69360000D03*
D14*
X159870000Y-84490000D03*
X143040000Y-85310000D03*
X130500000Y-86250000D03*
X141620000Y-85350000D03*
X169510000Y-74890000D03*
X132390000Y-90260000D03*
X157130000Y-58620000D03*
X162030000Y-86120000D03*
X164690000Y-86100000D03*
X146200000Y-89720000D03*
D15*
X155377500Y-67520000D03*
D14*
X138040000Y-82720000D03*
X147750000Y-85200000D03*
X136380000Y-84370000D03*
X157000000Y-83000000D03*
X144980000Y-85620000D03*
D15*
X153441500Y-69990000D03*
D14*
X171230000Y-80380000D03*
X134340000Y-86260000D03*
D15*
X152130000Y-67520000D03*
D14*
X132390000Y-86280000D03*
X159620000Y-82510000D03*
X153230000Y-91490000D03*
X169570000Y-55890000D03*
D15*
X152142500Y-69990000D03*
D14*
X171270000Y-86180000D03*
X158470000Y-85490000D03*
X147960000Y-89690000D03*
X171460000Y-55920000D03*
X158110000Y-83880000D03*
X149710000Y-91560000D03*
X156810000Y-81610000D03*
X139060000Y-68080000D03*
X161360000Y-85010000D03*
X171160000Y-92170000D03*
X146240000Y-85100000D03*
X136380000Y-82410000D03*
X173150000Y-82390000D03*
X151440000Y-93450000D03*
X173150000Y-84350000D03*
D15*
X155380000Y-68140000D03*
D14*
X153990000Y-77350000D03*
X137840000Y-68440000D03*
X132320000Y-84470000D03*
X164020000Y-85150000D03*
X169310000Y-82380000D03*
X144220000Y-84690000D03*
X155930000Y-82450000D03*
X134230000Y-92250000D03*
X134270000Y-84450000D03*
X154200000Y-84240000D03*
X158790000Y-89720000D03*
X158760000Y-93340000D03*
D15*
X154728000Y-67520000D03*
D14*
X171270000Y-78490000D03*
X147960000Y-91490000D03*
D15*
X152140000Y-68740000D03*
D14*
X130500000Y-90230000D03*
X155050000Y-83390000D03*
D15*
X153441500Y-69360000D03*
D14*
X160930000Y-82380000D03*
X171490000Y-62200000D03*
X139080000Y-84690000D03*
X137570000Y-55420000D03*
X162030000Y-82640000D03*
X138000000Y-79950000D03*
X139060000Y-83310000D03*
X130250000Y-55460000D03*
X157180000Y-57010000D03*
X153970000Y-78690000D03*
X152010000Y-85660000D03*
D15*
X153429000Y-67520000D03*
D14*
X130430000Y-82480000D03*
X162170000Y-78310000D03*
D15*
X153431500Y-68140000D03*
D14*
X146240000Y-87860000D03*
X159980000Y-86420000D03*
X169410000Y-88120000D03*
X167790000Y-84080000D03*
D15*
X154088500Y-68740000D03*
D14*
X152930000Y-86470000D03*
X160990000Y-83650000D03*
X149710000Y-89760000D03*
X173110000Y-92150000D03*
X135630000Y-55460000D03*
D15*
X154740500Y-69990000D03*
D14*
X140450000Y-68340000D03*
D15*
X155387500Y-68740000D03*
D14*
X163420000Y-86150000D03*
D15*
X155390000Y-69990000D03*
D14*
X158420000Y-60730000D03*
X155210000Y-84890000D03*
X138210000Y-85320000D03*
X154460000Y-55660000D03*
X166790000Y-80790000D03*
X156890000Y-89720000D03*
X153060000Y-55730000D03*
X171420000Y-64170000D03*
X167900000Y-82600000D03*
X169380000Y-90130000D03*
X132280000Y-92270000D03*
X171270000Y-90160000D03*
X155060000Y-91490000D03*
X167810000Y-80040000D03*
D15*
X155390000Y-69360000D03*
D14*
X161990000Y-81350000D03*
D15*
X153444000Y-70610000D03*
D14*
X169310000Y-84340000D03*
X166660000Y-84770000D03*
D15*
X152779500Y-67520000D03*
X152782000Y-68140000D03*
D14*
X136450000Y-90160000D03*
X171420000Y-58110000D03*
D15*
X154738000Y-68740000D03*
D14*
X162680000Y-85140000D03*
X145600000Y-78740000D03*
X136340000Y-92170000D03*
X153070000Y-57050000D03*
X169340000Y-80350000D03*
X151510000Y-87970000D03*
X156030000Y-83930000D03*
X139060000Y-80600000D03*
X167490000Y-85500000D03*
D15*
X154743000Y-70610000D03*
D14*
X153230000Y-89690000D03*
X173250000Y-88130000D03*
D15*
X154740500Y-69360000D03*
D14*
X160700000Y-81290000D03*
X166840000Y-83450000D03*
X130430000Y-84440000D03*
X156930000Y-87860000D03*
X147020000Y-86210000D03*
X147930000Y-93310000D03*
X164880000Y-78270000D03*
X158340000Y-59290000D03*
X140830000Y-86230000D03*
X158160000Y-81500000D03*
X130530000Y-88220000D03*
D15*
X152145000Y-70610000D03*
D14*
X142240000Y-86250000D03*
D15*
X152132500Y-68140000D03*
D14*
X132420000Y-88250000D03*
X158270000Y-57760000D03*
X169270000Y-92140000D03*
X139060000Y-79310000D03*
X132320000Y-82510000D03*
X156930000Y-86240000D03*
D15*
X155392500Y-70610000D03*
D14*
X153270000Y-87830000D03*
X130390000Y-92240000D03*
X156860000Y-93340000D03*
X146200000Y-91520000D03*
X151470000Y-91630000D03*
X173220000Y-86160000D03*
X155030000Y-93310000D03*
X159450000Y-81310000D03*
X166860000Y-79470000D03*
X171200000Y-82410000D03*
X171420000Y-73230000D03*
D15*
X152792000Y-69360000D03*
D14*
X136450000Y-86180000D03*
X158180000Y-82510000D03*
X138090000Y-74690000D03*
X166090000Y-85990000D03*
X166280000Y-78330000D03*
X165550000Y-55860000D03*
X171300000Y-88150000D03*
X147100000Y-76840000D03*
X148000000Y-87830000D03*
X144310000Y-78740000D03*
D13*
%TO.N,/3.3V_a*%
X160428171Y-60268171D03*
X134110000Y-79570000D03*
X138570000Y-77220000D03*
X147670000Y-79900000D03*
X161170000Y-76610000D03*
X153720000Y-75010000D03*
%TO.N,/5V*%
X134170000Y-74510000D03*
X162764500Y-74470000D03*
X144390000Y-71230000D03*
%TO.N,/REFIN_A*%
X146550000Y-57240000D03*
X134230000Y-69430000D03*
%TO.N,Net-(C17-Pad1)*%
X162647679Y-72062739D03*
X147380000Y-73530000D03*
%TO.N,/MUXOUT*%
X134110000Y-71950000D03*
X147760000Y-59210000D03*
%TD*%
D16*
%TO.N,/3.3V_d*%
X148458365Y-60896000D02*
X143242880Y-60896000D01*
X156403000Y-61380000D02*
X155223000Y-60200000D01*
X143242880Y-60896000D02*
X142470000Y-61668880D01*
X155223000Y-60200000D02*
X149154365Y-60200000D01*
X149154365Y-60200000D02*
X148458365Y-60896000D01*
X142470000Y-61668880D02*
X142470000Y-67950000D01*
%TO.N,/3.3V_a*%
X138570000Y-77220000D02*
X140770000Y-77220000D01*
X148860000Y-79900000D02*
X147670000Y-79900000D01*
X153720000Y-75040000D02*
X148860000Y-79900000D01*
X160428171Y-60268171D02*
X163761921Y-63601921D01*
X135624365Y-79570000D02*
X134110000Y-79570000D01*
X161170000Y-76610000D02*
X159570000Y-75010000D01*
X143450000Y-79900000D02*
X147670000Y-79900000D01*
X159570000Y-75010000D02*
X153720000Y-75010000D01*
X163761921Y-63601921D02*
X165481921Y-63601921D01*
X167770000Y-74070000D02*
X165230000Y-76610000D01*
X165481921Y-63601921D02*
X167770000Y-65890000D01*
X138570000Y-77220000D02*
X137974365Y-77220000D01*
X153720000Y-75010000D02*
X153720000Y-75040000D01*
X137974365Y-77220000D02*
X135624365Y-79570000D01*
X140770000Y-77220000D02*
X143450000Y-79900000D01*
X165230000Y-76610000D02*
X161170000Y-76610000D01*
X167770000Y-65890000D02*
X167770000Y-74070000D01*
%TO.N,/5V*%
X139780000Y-70160000D02*
X135430000Y-74510000D01*
X162764500Y-74470000D02*
X161832500Y-73538000D01*
X161832500Y-73538000D02*
X157304755Y-73538000D01*
X151129635Y-75216000D02*
X146681635Y-75216000D01*
X144390000Y-72924365D02*
X144390000Y-71230000D01*
X146681635Y-75216000D02*
X144390000Y-72924365D01*
X153021635Y-73324000D02*
X151129635Y-75216000D01*
X157090755Y-73324000D02*
X153021635Y-73324000D01*
X144390000Y-71230000D02*
X143320000Y-70160000D01*
X135430000Y-74510000D02*
X134170000Y-74510000D01*
X143320000Y-70160000D02*
X139780000Y-70160000D01*
X157304755Y-73538000D02*
X157090755Y-73324000D01*
%TO.N,/REFIN_A*%
X134230000Y-65660000D02*
X134230000Y-69430000D01*
X146400000Y-57090000D02*
X142800000Y-57090000D01*
X146550000Y-57240000D02*
X146400000Y-57090000D01*
X142800000Y-57090000D02*
X134230000Y-65660000D01*
%TO.N,Net-(C17-Pad1)*%
X148858000Y-72052000D02*
X147380000Y-73530000D01*
X162636940Y-72052000D02*
X148858000Y-72052000D01*
X162647679Y-72062739D02*
X162636940Y-72052000D01*
%TO.N,/MUXOUT*%
X143130000Y-59210000D02*
X135916000Y-66424000D01*
X147760000Y-59210000D02*
X143130000Y-59210000D01*
X135916000Y-66424000D02*
X135916000Y-70144000D01*
X135916000Y-70144000D02*
X134110000Y-71950000D01*
%TD*%
%TA.AperFunction,Conductor*%
%TO.N,GND*%
G36*
X175733621Y-54578502D02*
G01*
X175780114Y-54632158D01*
X175791500Y-54684500D01*
X175791500Y-93835500D01*
X175771498Y-93903621D01*
X175717842Y-93950114D01*
X175665500Y-93961500D01*
X129154500Y-93961500D01*
X129086379Y-93941498D01*
X129039886Y-93887842D01*
X129028500Y-93835500D01*
X129028500Y-92214669D01*
X137497001Y-92214669D01*
X137497371Y-92221490D01*
X137502895Y-92272352D01*
X137506521Y-92287604D01*
X137551676Y-92408054D01*
X137560214Y-92423649D01*
X137636715Y-92525724D01*
X137649276Y-92538285D01*
X137751351Y-92614786D01*
X137766946Y-92623324D01*
X137887394Y-92668478D01*
X137902649Y-92672105D01*
X137953514Y-92677631D01*
X137960328Y-92678000D01*
X141232885Y-92678000D01*
X141248124Y-92673525D01*
X141249329Y-92672135D01*
X141251000Y-92664452D01*
X141251000Y-92659884D01*
X141759000Y-92659884D01*
X141763475Y-92675123D01*
X141764865Y-92676328D01*
X141772548Y-92677999D01*
X145049669Y-92677999D01*
X145056490Y-92677629D01*
X145107352Y-92672105D01*
X145122604Y-92668479D01*
X145243054Y-92623324D01*
X145258649Y-92614786D01*
X145360724Y-92538285D01*
X145373285Y-92525724D01*
X145449786Y-92423649D01*
X145458324Y-92408054D01*
X145503478Y-92287606D01*
X145507105Y-92272351D01*
X145512631Y-92221486D01*
X145513000Y-92214672D01*
X145513000Y-92214669D01*
X160357001Y-92214669D01*
X160357371Y-92221490D01*
X160362895Y-92272352D01*
X160366521Y-92287604D01*
X160411676Y-92408054D01*
X160420214Y-92423649D01*
X160496715Y-92525724D01*
X160509276Y-92538285D01*
X160611351Y-92614786D01*
X160626946Y-92623324D01*
X160747394Y-92668478D01*
X160762649Y-92672105D01*
X160813514Y-92677631D01*
X160820328Y-92678000D01*
X164092885Y-92678000D01*
X164108124Y-92673525D01*
X164109329Y-92672135D01*
X164111000Y-92664452D01*
X164111000Y-92659884D01*
X164619000Y-92659884D01*
X164623475Y-92675123D01*
X164624865Y-92676328D01*
X164632548Y-92677999D01*
X167909669Y-92677999D01*
X167916490Y-92677629D01*
X167967352Y-92672105D01*
X167982604Y-92668479D01*
X168103054Y-92623324D01*
X168118649Y-92614786D01*
X168220724Y-92538285D01*
X168233285Y-92525724D01*
X168309786Y-92423649D01*
X168318324Y-92408054D01*
X168363478Y-92287606D01*
X168367105Y-92272351D01*
X168372631Y-92221486D01*
X168373000Y-92214672D01*
X168373000Y-89942115D01*
X168368525Y-89926876D01*
X168367135Y-89925671D01*
X168359452Y-89924000D01*
X164637115Y-89924000D01*
X164621876Y-89928475D01*
X164620671Y-89929865D01*
X164619000Y-89937548D01*
X164619000Y-92659884D01*
X164111000Y-92659884D01*
X164111000Y-89942115D01*
X164106525Y-89926876D01*
X164105135Y-89925671D01*
X164097452Y-89924000D01*
X160375116Y-89924000D01*
X160359877Y-89928475D01*
X160358672Y-89929865D01*
X160357001Y-89937548D01*
X160357001Y-92214669D01*
X145513000Y-92214669D01*
X145513000Y-89942115D01*
X145508525Y-89926876D01*
X145507135Y-89925671D01*
X145499452Y-89924000D01*
X141777115Y-89924000D01*
X141761876Y-89928475D01*
X141760671Y-89929865D01*
X141759000Y-89937548D01*
X141759000Y-92659884D01*
X141251000Y-92659884D01*
X141251000Y-89942115D01*
X141246525Y-89926876D01*
X141245135Y-89925671D01*
X141237452Y-89924000D01*
X137515116Y-89924000D01*
X137499877Y-89928475D01*
X137498672Y-89929865D01*
X137497001Y-89937548D01*
X137497001Y-92214669D01*
X129028500Y-92214669D01*
X129028500Y-89397885D01*
X137497000Y-89397885D01*
X137501475Y-89413124D01*
X137502865Y-89414329D01*
X137510548Y-89416000D01*
X141232885Y-89416000D01*
X141248124Y-89411525D01*
X141249329Y-89410135D01*
X141251000Y-89402452D01*
X141251000Y-89397885D01*
X141759000Y-89397885D01*
X141763475Y-89413124D01*
X141764865Y-89414329D01*
X141772548Y-89416000D01*
X145494884Y-89416000D01*
X145510123Y-89411525D01*
X145511328Y-89410135D01*
X145512999Y-89402452D01*
X145512999Y-89397885D01*
X160357000Y-89397885D01*
X160361475Y-89413124D01*
X160362865Y-89414329D01*
X160370548Y-89416000D01*
X164092885Y-89416000D01*
X164108124Y-89411525D01*
X164109329Y-89410135D01*
X164111000Y-89402452D01*
X164111000Y-89397885D01*
X164619000Y-89397885D01*
X164623475Y-89413124D01*
X164624865Y-89414329D01*
X164632548Y-89416000D01*
X168354884Y-89416000D01*
X168370123Y-89411525D01*
X168371328Y-89410135D01*
X168372999Y-89402452D01*
X168372999Y-87125331D01*
X168372629Y-87118510D01*
X168367105Y-87067648D01*
X168363479Y-87052396D01*
X168318324Y-86931946D01*
X168309786Y-86916351D01*
X168233285Y-86814276D01*
X168220724Y-86801715D01*
X168118649Y-86725214D01*
X168103054Y-86716676D01*
X167982606Y-86671522D01*
X167967351Y-86667895D01*
X167916486Y-86662369D01*
X167909672Y-86662000D01*
X164637115Y-86662000D01*
X164621876Y-86666475D01*
X164620671Y-86667865D01*
X164619000Y-86675548D01*
X164619000Y-89397885D01*
X164111000Y-89397885D01*
X164111000Y-86680116D01*
X164106525Y-86664877D01*
X164105135Y-86663672D01*
X164097452Y-86662001D01*
X160820331Y-86662001D01*
X160813510Y-86662371D01*
X160762648Y-86667895D01*
X160747396Y-86671521D01*
X160626946Y-86716676D01*
X160611351Y-86725214D01*
X160509276Y-86801715D01*
X160496715Y-86814276D01*
X160420214Y-86916351D01*
X160411676Y-86931946D01*
X160366522Y-87052394D01*
X160362895Y-87067649D01*
X160357369Y-87118514D01*
X160357000Y-87125328D01*
X160357000Y-89397885D01*
X145512999Y-89397885D01*
X145512999Y-87125331D01*
X145512629Y-87118510D01*
X145507105Y-87067648D01*
X145503479Y-87052396D01*
X145458324Y-86931946D01*
X145449786Y-86916351D01*
X145373285Y-86814276D01*
X145360724Y-86801715D01*
X145258649Y-86725214D01*
X145243054Y-86716676D01*
X145122606Y-86671522D01*
X145107351Y-86667895D01*
X145056486Y-86662369D01*
X145049672Y-86662000D01*
X141777115Y-86662000D01*
X141761876Y-86666475D01*
X141760671Y-86667865D01*
X141759000Y-86675548D01*
X141759000Y-89397885D01*
X141251000Y-89397885D01*
X141251000Y-86680116D01*
X141246525Y-86664877D01*
X141245135Y-86663672D01*
X141237452Y-86662001D01*
X137960331Y-86662001D01*
X137953510Y-86662371D01*
X137902648Y-86667895D01*
X137887396Y-86671521D01*
X137766946Y-86716676D01*
X137751351Y-86725214D01*
X137649276Y-86801715D01*
X137636715Y-86814276D01*
X137560214Y-86916351D01*
X137551676Y-86931946D01*
X137506522Y-87052394D01*
X137502895Y-87067649D01*
X137497369Y-87118514D01*
X137497000Y-87125328D01*
X137497000Y-89397885D01*
X129028500Y-89397885D01*
X129028500Y-66887500D01*
X130021681Y-66887500D01*
X130040928Y-67132057D01*
X130042082Y-67136864D01*
X130042083Y-67136870D01*
X130063750Y-67227117D01*
X130098195Y-67370592D01*
X130100088Y-67375163D01*
X130100089Y-67375165D01*
X130128874Y-67444656D01*
X130192073Y-67597232D01*
X130320248Y-67806396D01*
X130479567Y-67992933D01*
X130483323Y-67996141D01*
X130572569Y-68072365D01*
X130611378Y-68131816D01*
X130611884Y-68202811D01*
X130572569Y-68263987D01*
X130508323Y-68318859D01*
X130504567Y-68322067D01*
X130501359Y-68325823D01*
X130366434Y-68483799D01*
X130345248Y-68508604D01*
X130342660Y-68512827D01*
X130342658Y-68512830D01*
X130339951Y-68517248D01*
X130217073Y-68717768D01*
X130123195Y-68944408D01*
X130110898Y-68995630D01*
X130070787Y-69162704D01*
X130065928Y-69182943D01*
X130046681Y-69427500D01*
X130065928Y-69672057D01*
X130067082Y-69676864D01*
X130067083Y-69676870D01*
X130084961Y-69751335D01*
X130123195Y-69910592D01*
X130217073Y-70137232D01*
X130254228Y-70197864D01*
X130340207Y-70338169D01*
X130345248Y-70346396D01*
X130348459Y-70350155D01*
X130348465Y-70350163D01*
X130359261Y-70362803D01*
X130504567Y-70532933D01*
X130508323Y-70536141D01*
X130585069Y-70601689D01*
X130623878Y-70661140D01*
X130624384Y-70732135D01*
X130585069Y-70793311D01*
X130523231Y-70846126D01*
X130504567Y-70862067D01*
X130501359Y-70865823D01*
X130366076Y-71024218D01*
X130345248Y-71048604D01*
X130342660Y-71052827D01*
X130342658Y-71052830D01*
X130324498Y-71082465D01*
X130217073Y-71257768D01*
X130123195Y-71484408D01*
X130103351Y-71567063D01*
X130079204Y-71667646D01*
X130065928Y-71722943D01*
X130046681Y-71967500D01*
X130065928Y-72212057D01*
X130067082Y-72216864D01*
X130067083Y-72216870D01*
X130103099Y-72366886D01*
X130123195Y-72450592D01*
X130217073Y-72677232D01*
X130235902Y-72707958D01*
X130333598Y-72867384D01*
X130345248Y-72886396D01*
X130348463Y-72890160D01*
X130348465Y-72890163D01*
X130455010Y-73014910D01*
X130504567Y-73072933D01*
X130508323Y-73076141D01*
X130585069Y-73141689D01*
X130623878Y-73201140D01*
X130624384Y-73272135D01*
X130585069Y-73333311D01*
X130508323Y-73398859D01*
X130504567Y-73402067D01*
X130501359Y-73405823D01*
X130351911Y-73580803D01*
X130345248Y-73588604D01*
X130342660Y-73592827D01*
X130342658Y-73592830D01*
X130315374Y-73637354D01*
X130217073Y-73797768D01*
X130199881Y-73839274D01*
X130129631Y-74008871D01*
X130123195Y-74024408D01*
X130111370Y-74073664D01*
X130072367Y-74236124D01*
X130065928Y-74262943D01*
X130046681Y-74507500D01*
X130065928Y-74752057D01*
X130067082Y-74756864D01*
X130067083Y-74756870D01*
X130102068Y-74902592D01*
X130123195Y-74990592D01*
X130125088Y-74995163D01*
X130125089Y-74995165D01*
X130130716Y-75008750D01*
X130217073Y-75217232D01*
X130300262Y-75352985D01*
X130320975Y-75386785D01*
X130345248Y-75426396D01*
X130348463Y-75430160D01*
X130348465Y-75430163D01*
X130455625Y-75555630D01*
X130504567Y-75612933D01*
X130508323Y-75616141D01*
X130585069Y-75681689D01*
X130623878Y-75741140D01*
X130624384Y-75812135D01*
X130585069Y-75873311D01*
X130530882Y-75919592D01*
X130504567Y-75942067D01*
X130501359Y-75945823D01*
X130377303Y-76091073D01*
X130345248Y-76128604D01*
X130342660Y-76132827D01*
X130342658Y-76132830D01*
X130305553Y-76193381D01*
X130217073Y-76337768D01*
X130123195Y-76564408D01*
X130065928Y-76802943D01*
X130046681Y-77047500D01*
X130065928Y-77292057D01*
X130067082Y-77296864D01*
X130067083Y-77296870D01*
X130089478Y-77390152D01*
X130123195Y-77530592D01*
X130217073Y-77757232D01*
X130282552Y-77864084D01*
X130325832Y-77934712D01*
X130344370Y-78003245D01*
X130322913Y-78070922D01*
X130293965Y-78101372D01*
X130196739Y-78174239D01*
X130109385Y-78290795D01*
X130058255Y-78427184D01*
X130051500Y-78489366D01*
X130051500Y-80685634D01*
X130058255Y-80747816D01*
X130109385Y-80884205D01*
X130196739Y-81000761D01*
X130313295Y-81088115D01*
X130449684Y-81139245D01*
X130511866Y-81146000D01*
X132708134Y-81146000D01*
X132770316Y-81139245D01*
X132906705Y-81088115D01*
X133023261Y-81000761D01*
X133110615Y-80884205D01*
X133122362Y-80852870D01*
X133165004Y-80796106D01*
X133231565Y-80771406D01*
X133303914Y-80788312D01*
X133477643Y-80889831D01*
X133482468Y-80891673D01*
X133482469Y-80891674D01*
X133508316Y-80901544D01*
X133701697Y-80975389D01*
X133706763Y-80976420D01*
X133706764Y-80976420D01*
X133730500Y-80981249D01*
X133936716Y-81023204D01*
X134072264Y-81028174D01*
X134171225Y-81031803D01*
X134171229Y-81031803D01*
X134176389Y-81031992D01*
X134181509Y-81031336D01*
X134181511Y-81031336D01*
X134409151Y-81002175D01*
X134409152Y-81002175D01*
X134414279Y-81001518D01*
X134419229Y-81000033D01*
X134639042Y-80934086D01*
X134639047Y-80934084D01*
X134643997Y-80932599D01*
X134859374Y-80827087D01*
X134863579Y-80824087D01*
X134863585Y-80824084D01*
X134981522Y-80739960D01*
X135054627Y-80687815D01*
X135091320Y-80651249D01*
X135153693Y-80617333D01*
X135180261Y-80614500D01*
X135560560Y-80614500D01*
X135574167Y-80615237D01*
X135607248Y-80618831D01*
X135607253Y-80618831D01*
X135613374Y-80619496D01*
X135631118Y-80617944D01*
X135665100Y-80614971D01*
X135669926Y-80614642D01*
X135672827Y-80614500D01*
X135675909Y-80614500D01*
X135687700Y-80613344D01*
X135720235Y-80610154D01*
X135721548Y-80610033D01*
X135811285Y-80602182D01*
X135811297Y-80602180D01*
X135817432Y-80601643D01*
X135822731Y-80600104D01*
X135828224Y-80599565D01*
X135920445Y-80571722D01*
X135921582Y-80571385D01*
X136014136Y-80544496D01*
X136019036Y-80541956D01*
X136024319Y-80540361D01*
X136109358Y-80495145D01*
X136110406Y-80494595D01*
X136190524Y-80453066D01*
X136190525Y-80453065D01*
X136195993Y-80450231D01*
X136200310Y-80446785D01*
X136205179Y-80444196D01*
X136279915Y-80383243D01*
X136280721Y-80382593D01*
X136321359Y-80350152D01*
X136323853Y-80347658D01*
X136324892Y-80346729D01*
X136329243Y-80343013D01*
X136359137Y-80318632D01*
X136359140Y-80318629D01*
X136363917Y-80314733D01*
X136394325Y-80277976D01*
X136402314Y-80269197D01*
X138020311Y-78651200D01*
X138082623Y-78617174D01*
X138151817Y-78622395D01*
X138151902Y-78622102D01*
X138153295Y-78622507D01*
X138154359Y-78622587D01*
X138161697Y-78625389D01*
X138166763Y-78626420D01*
X138166764Y-78626420D01*
X138223039Y-78637869D01*
X138396716Y-78673204D01*
X138532264Y-78678174D01*
X138631225Y-78681803D01*
X138631229Y-78681803D01*
X138636389Y-78681992D01*
X138641509Y-78681336D01*
X138641511Y-78681336D01*
X138869151Y-78652175D01*
X138869152Y-78652175D01*
X138874279Y-78651518D01*
X138957935Y-78626420D01*
X139099042Y-78584086D01*
X139099047Y-78584084D01*
X139103997Y-78582599D01*
X139319374Y-78477087D01*
X139323579Y-78474087D01*
X139323585Y-78474084D01*
X139462321Y-78375124D01*
X139514627Y-78337815D01*
X139551320Y-78301249D01*
X139613693Y-78267333D01*
X139640261Y-78264500D01*
X140285164Y-78264500D01*
X140353285Y-78284502D01*
X140374259Y-78301405D01*
X142666303Y-80593449D01*
X142675404Y-80603591D01*
X142700122Y-80634334D01*
X142704839Y-80638292D01*
X142704841Y-80638294D01*
X142739911Y-80667721D01*
X142743564Y-80670908D01*
X142745690Y-80672836D01*
X142747874Y-80675020D01*
X142750253Y-80676974D01*
X142750265Y-80676985D01*
X142782283Y-80703285D01*
X142783298Y-80704127D01*
X142857037Y-80766001D01*
X142861873Y-80768660D01*
X142866137Y-80772162D01*
X142910792Y-80796106D01*
X142950984Y-80817657D01*
X142952113Y-80818270D01*
X143036537Y-80864682D01*
X143041795Y-80866350D01*
X143046661Y-80868959D01*
X143052557Y-80870761D01*
X143052558Y-80870762D01*
X143070395Y-80876215D01*
X143138787Y-80897124D01*
X143139925Y-80897478D01*
X143231785Y-80926619D01*
X143237273Y-80927235D01*
X143242547Y-80928847D01*
X143338384Y-80938583D01*
X143339520Y-80938704D01*
X143391198Y-80944500D01*
X143394725Y-80944500D01*
X143396137Y-80944579D01*
X143401839Y-80945028D01*
X143440208Y-80948926D01*
X143440213Y-80948926D01*
X143446336Y-80949548D01*
X143493825Y-80945059D01*
X143505682Y-80944500D01*
X146599195Y-80944500D01*
X146667316Y-80964502D01*
X146679680Y-80973556D01*
X146830571Y-81098828D01*
X147037643Y-81219831D01*
X147261697Y-81305389D01*
X147266763Y-81306420D01*
X147266764Y-81306420D01*
X147323039Y-81317869D01*
X147496716Y-81353204D01*
X147632264Y-81358174D01*
X147731225Y-81361803D01*
X147731229Y-81361803D01*
X147736389Y-81361992D01*
X147741509Y-81361336D01*
X147741511Y-81361336D01*
X147969151Y-81332175D01*
X147969152Y-81332175D01*
X147974279Y-81331518D01*
X148057935Y-81306420D01*
X148199042Y-81264086D01*
X148199047Y-81264084D01*
X148203997Y-81262599D01*
X148419374Y-81157087D01*
X148423579Y-81154087D01*
X148423585Y-81154084D01*
X148516516Y-81087796D01*
X148614627Y-81017815D01*
X148651320Y-80981249D01*
X148713693Y-80947333D01*
X148740261Y-80944500D01*
X148796195Y-80944500D01*
X148809802Y-80945237D01*
X148842883Y-80948831D01*
X148842888Y-80948831D01*
X148849009Y-80949496D01*
X148866753Y-80947944D01*
X148900735Y-80944971D01*
X148905561Y-80944642D01*
X148908462Y-80944500D01*
X148911544Y-80944500D01*
X148923335Y-80943344D01*
X148955870Y-80940154D01*
X148957183Y-80940033D01*
X149046920Y-80932182D01*
X149046932Y-80932180D01*
X149053067Y-80931643D01*
X149058366Y-80930104D01*
X149063859Y-80929565D01*
X149156080Y-80901722D01*
X149157217Y-80901385D01*
X149249771Y-80874496D01*
X149254671Y-80871956D01*
X149259954Y-80870361D01*
X149344993Y-80825145D01*
X149346041Y-80824595D01*
X149426159Y-80783066D01*
X149426160Y-80783065D01*
X149431628Y-80780231D01*
X149435945Y-80776785D01*
X149440814Y-80774196D01*
X149515550Y-80713243D01*
X149516356Y-80712593D01*
X149556994Y-80680152D01*
X149559488Y-80677658D01*
X149560527Y-80676729D01*
X149564878Y-80673013D01*
X149594772Y-80648632D01*
X149594775Y-80648629D01*
X149599552Y-80644733D01*
X149629960Y-80607976D01*
X149637949Y-80599197D01*
X153731616Y-76505530D01*
X153793928Y-76471504D01*
X153804696Y-76469647D01*
X153908324Y-76456372D01*
X154019152Y-76442175D01*
X154019155Y-76442174D01*
X154024279Y-76441518D01*
X154029229Y-76440033D01*
X154249042Y-76374086D01*
X154249047Y-76374084D01*
X154253997Y-76372599D01*
X154469374Y-76267087D01*
X154473579Y-76264087D01*
X154473585Y-76264084D01*
X154573654Y-76192705D01*
X154664627Y-76127815D01*
X154701320Y-76091249D01*
X154763693Y-76057333D01*
X154790261Y-76054500D01*
X159085164Y-76054500D01*
X159153285Y-76074502D01*
X159174259Y-76091405D01*
X159676054Y-76593200D01*
X159710080Y-76655512D01*
X159712750Y-76675042D01*
X159720744Y-76813680D01*
X159773470Y-77047646D01*
X159863702Y-77269859D01*
X159989014Y-77474351D01*
X160146043Y-77655630D01*
X160330571Y-77808828D01*
X160537643Y-77929831D01*
X160761697Y-78015389D01*
X160766763Y-78016420D01*
X160766764Y-78016420D01*
X160823039Y-78027869D01*
X160996716Y-78063204D01*
X161132264Y-78068174D01*
X161231225Y-78071803D01*
X161231229Y-78071803D01*
X161236389Y-78071992D01*
X161241509Y-78071336D01*
X161241511Y-78071336D01*
X161469151Y-78042175D01*
X161469152Y-78042175D01*
X161474279Y-78041518D01*
X161557935Y-78016420D01*
X161699042Y-77974086D01*
X161699047Y-77974084D01*
X161703997Y-77972599D01*
X161919374Y-77867087D01*
X161923579Y-77864087D01*
X161923585Y-77864084D01*
X162016516Y-77797796D01*
X162114627Y-77727815D01*
X162151320Y-77691249D01*
X162213693Y-77657333D01*
X162240261Y-77654500D01*
X165166195Y-77654500D01*
X165179802Y-77655237D01*
X165212883Y-77658831D01*
X165212888Y-77658831D01*
X165219009Y-77659496D01*
X165236753Y-77657944D01*
X165270735Y-77654971D01*
X165275561Y-77654642D01*
X165278462Y-77654500D01*
X165281544Y-77654500D01*
X165293335Y-77653344D01*
X165325870Y-77650154D01*
X165327183Y-77650033D01*
X165416920Y-77642182D01*
X165416932Y-77642180D01*
X165423067Y-77641643D01*
X165428366Y-77640104D01*
X165433859Y-77639565D01*
X165526080Y-77611722D01*
X165527217Y-77611385D01*
X165619771Y-77584496D01*
X165624671Y-77581956D01*
X165629954Y-77580361D01*
X165714993Y-77535145D01*
X165716041Y-77534595D01*
X165796159Y-77493066D01*
X165796160Y-77493065D01*
X165801628Y-77490231D01*
X165805945Y-77486785D01*
X165810814Y-77484196D01*
X165885550Y-77423243D01*
X165886356Y-77422593D01*
X165926994Y-77390152D01*
X165929488Y-77387658D01*
X165930527Y-77386729D01*
X165934878Y-77383013D01*
X165964772Y-77358632D01*
X165964775Y-77358629D01*
X165969552Y-77354733D01*
X165999960Y-77317976D01*
X166007949Y-77309197D01*
X168463449Y-74853697D01*
X168473592Y-74844595D01*
X168499534Y-74823737D01*
X168504334Y-74819878D01*
X168537721Y-74780089D01*
X168540908Y-74776436D01*
X168542836Y-74774310D01*
X168545020Y-74772126D01*
X168546974Y-74769747D01*
X168546985Y-74769735D01*
X168573285Y-74737717D01*
X168574127Y-74736702D01*
X168632045Y-74667677D01*
X168636001Y-74662963D01*
X168638660Y-74658127D01*
X168642162Y-74653863D01*
X168687674Y-74568984D01*
X168688286Y-74567857D01*
X168718757Y-74512430D01*
X168734682Y-74483463D01*
X168736350Y-74478205D01*
X168738959Y-74473339D01*
X168767124Y-74381213D01*
X168767478Y-74380075D01*
X168796619Y-74288215D01*
X168797235Y-74282727D01*
X168798847Y-74277453D01*
X168808583Y-74181616D01*
X168808704Y-74180480D01*
X168814500Y-74128802D01*
X168814500Y-74125275D01*
X168814579Y-74123863D01*
X168815028Y-74118161D01*
X168818926Y-74079792D01*
X168818926Y-74079787D01*
X168819548Y-74073664D01*
X168815059Y-74026175D01*
X168814500Y-74014318D01*
X168814500Y-66887500D01*
X172101681Y-66887500D01*
X172120928Y-67132057D01*
X172122082Y-67136864D01*
X172122083Y-67136870D01*
X172143750Y-67227117D01*
X172178195Y-67370592D01*
X172180088Y-67375163D01*
X172180089Y-67375165D01*
X172208874Y-67444656D01*
X172272073Y-67597232D01*
X172400248Y-67806396D01*
X172559567Y-67992933D01*
X172563323Y-67996141D01*
X172652569Y-68072365D01*
X172691378Y-68131816D01*
X172691884Y-68202811D01*
X172652569Y-68263987D01*
X172588323Y-68318859D01*
X172584567Y-68322067D01*
X172581359Y-68325823D01*
X172446434Y-68483799D01*
X172425248Y-68508604D01*
X172422660Y-68512827D01*
X172422658Y-68512830D01*
X172419951Y-68517248D01*
X172297073Y-68717768D01*
X172203195Y-68944408D01*
X172190898Y-68995630D01*
X172150787Y-69162704D01*
X172145928Y-69182943D01*
X172126681Y-69427500D01*
X172145928Y-69672057D01*
X172147082Y-69676864D01*
X172147083Y-69676870D01*
X172164961Y-69751335D01*
X172203195Y-69910592D01*
X172297073Y-70137232D01*
X172334228Y-70197864D01*
X172420207Y-70338169D01*
X172425248Y-70346396D01*
X172428459Y-70350155D01*
X172428465Y-70350163D01*
X172439261Y-70362803D01*
X172584567Y-70532933D01*
X172588323Y-70536141D01*
X172665069Y-70601689D01*
X172703878Y-70661140D01*
X172704384Y-70732135D01*
X172665069Y-70793311D01*
X172603231Y-70846126D01*
X172584567Y-70862067D01*
X172581359Y-70865823D01*
X172446076Y-71024218D01*
X172425248Y-71048604D01*
X172422660Y-71052827D01*
X172422658Y-71052830D01*
X172404498Y-71082465D01*
X172297073Y-71257768D01*
X172203195Y-71484408D01*
X172183351Y-71567063D01*
X172159204Y-71667646D01*
X172145928Y-71722943D01*
X172126681Y-71967500D01*
X172145928Y-72212057D01*
X172147082Y-72216864D01*
X172147083Y-72216870D01*
X172183099Y-72366886D01*
X172203195Y-72450592D01*
X172297073Y-72677232D01*
X172315902Y-72707958D01*
X172413598Y-72867384D01*
X172425248Y-72886396D01*
X172428463Y-72890160D01*
X172428465Y-72890163D01*
X172535010Y-73014910D01*
X172584567Y-73072933D01*
X172588323Y-73076141D01*
X172665069Y-73141689D01*
X172703878Y-73201140D01*
X172704384Y-73272135D01*
X172665069Y-73333311D01*
X172588323Y-73398859D01*
X172584567Y-73402067D01*
X172581359Y-73405823D01*
X172431911Y-73580803D01*
X172425248Y-73588604D01*
X172422660Y-73592827D01*
X172422658Y-73592830D01*
X172395374Y-73637354D01*
X172297073Y-73797768D01*
X172279881Y-73839274D01*
X172209631Y-74008871D01*
X172203195Y-74024408D01*
X172191370Y-74073664D01*
X172152367Y-74236124D01*
X172145928Y-74262943D01*
X172126681Y-74507500D01*
X172145928Y-74752057D01*
X172147082Y-74756864D01*
X172147083Y-74756870D01*
X172182068Y-74902592D01*
X172203195Y-74990592D01*
X172205088Y-74995163D01*
X172205089Y-74995165D01*
X172210716Y-75008750D01*
X172297073Y-75217232D01*
X172380262Y-75352985D01*
X172400975Y-75386785D01*
X172425248Y-75426396D01*
X172428463Y-75430160D01*
X172428465Y-75430163D01*
X172535625Y-75555630D01*
X172584567Y-75612933D01*
X172588323Y-75616141D01*
X172665069Y-75681689D01*
X172703878Y-75741140D01*
X172704384Y-75812135D01*
X172665069Y-75873311D01*
X172610882Y-75919592D01*
X172584567Y-75942067D01*
X172581359Y-75945823D01*
X172457303Y-76091073D01*
X172425248Y-76128604D01*
X172422660Y-76132827D01*
X172422658Y-76132830D01*
X172385553Y-76193381D01*
X172297073Y-76337768D01*
X172203195Y-76564408D01*
X172145928Y-76802943D01*
X172126681Y-77047500D01*
X172145928Y-77292057D01*
X172147082Y-77296864D01*
X172147083Y-77296870D01*
X172169478Y-77390152D01*
X172203195Y-77530592D01*
X172297073Y-77757232D01*
X172362552Y-77864084D01*
X172405832Y-77934712D01*
X172424370Y-78003245D01*
X172402913Y-78070922D01*
X172373965Y-78101372D01*
X172276739Y-78174239D01*
X172189385Y-78290795D01*
X172138255Y-78427184D01*
X172131500Y-78489366D01*
X172131500Y-80685634D01*
X172138255Y-80747816D01*
X172189385Y-80884205D01*
X172276739Y-81000761D01*
X172393295Y-81088115D01*
X172529684Y-81139245D01*
X172591866Y-81146000D01*
X174788134Y-81146000D01*
X174850316Y-81139245D01*
X174986705Y-81088115D01*
X175103261Y-81000761D01*
X175190615Y-80884205D01*
X175241745Y-80747816D01*
X175248500Y-80685634D01*
X175248500Y-78489366D01*
X175241745Y-78427184D01*
X175190615Y-78290795D01*
X175103261Y-78174239D01*
X175006035Y-78101372D01*
X174963521Y-78044512D01*
X174958496Y-77973694D01*
X174974168Y-77934712D01*
X175017448Y-77864084D01*
X175082927Y-77757232D01*
X175176805Y-77530592D01*
X175210522Y-77390152D01*
X175232917Y-77296870D01*
X175232918Y-77296864D01*
X175234072Y-77292057D01*
X175253319Y-77047500D01*
X175234072Y-76802943D01*
X175176805Y-76564408D01*
X175082927Y-76337768D01*
X174994447Y-76193381D01*
X174957342Y-76132830D01*
X174957340Y-76132827D01*
X174954752Y-76128604D01*
X174922698Y-76091073D01*
X174798641Y-75945823D01*
X174795433Y-75942067D01*
X174769118Y-75919592D01*
X174714931Y-75873311D01*
X174676122Y-75813860D01*
X174675616Y-75742865D01*
X174714931Y-75681689D01*
X174791677Y-75616141D01*
X174795433Y-75612933D01*
X174844375Y-75555630D01*
X174951535Y-75430163D01*
X174951537Y-75430160D01*
X174954752Y-75426396D01*
X174979026Y-75386785D01*
X174999738Y-75352985D01*
X175082927Y-75217232D01*
X175169284Y-75008750D01*
X175174911Y-74995165D01*
X175174912Y-74995163D01*
X175176805Y-74990592D01*
X175197932Y-74902592D01*
X175232917Y-74756870D01*
X175232918Y-74756864D01*
X175234072Y-74752057D01*
X175253319Y-74507500D01*
X175234072Y-74262943D01*
X175227634Y-74236124D01*
X175188630Y-74073664D01*
X175176805Y-74024408D01*
X175170370Y-74008871D01*
X175100119Y-73839274D01*
X175082927Y-73797768D01*
X174984626Y-73637354D01*
X174957342Y-73592830D01*
X174957340Y-73592827D01*
X174954752Y-73588604D01*
X174948090Y-73580803D01*
X174798641Y-73405823D01*
X174795433Y-73402067D01*
X174791677Y-73398859D01*
X174714931Y-73333311D01*
X174676122Y-73273860D01*
X174675616Y-73202865D01*
X174714931Y-73141689D01*
X174791677Y-73076141D01*
X174795433Y-73072933D01*
X174844990Y-73014910D01*
X174951535Y-72890163D01*
X174951537Y-72890160D01*
X174954752Y-72886396D01*
X174966403Y-72867384D01*
X175064098Y-72707958D01*
X175082927Y-72677232D01*
X175176805Y-72450592D01*
X175196901Y-72366886D01*
X175232917Y-72216870D01*
X175232918Y-72216864D01*
X175234072Y-72212057D01*
X175253319Y-71967500D01*
X175234072Y-71722943D01*
X175220797Y-71667646D01*
X175196649Y-71567063D01*
X175176805Y-71484408D01*
X175082927Y-71257768D01*
X174975502Y-71082465D01*
X174957342Y-71052830D01*
X174957340Y-71052827D01*
X174954752Y-71048604D01*
X174933925Y-71024218D01*
X174798641Y-70865823D01*
X174795433Y-70862067D01*
X174776769Y-70846126D01*
X174714931Y-70793311D01*
X174676122Y-70733860D01*
X174675616Y-70662865D01*
X174714931Y-70601689D01*
X174791677Y-70536141D01*
X174795433Y-70532933D01*
X174940739Y-70362803D01*
X174951535Y-70350163D01*
X174951541Y-70350155D01*
X174954752Y-70346396D01*
X174959794Y-70338169D01*
X175045772Y-70197864D01*
X175082927Y-70137232D01*
X175176805Y-69910592D01*
X175215039Y-69751335D01*
X175232917Y-69676870D01*
X175232918Y-69676864D01*
X175234072Y-69672057D01*
X175253319Y-69427500D01*
X175234072Y-69182943D01*
X175229214Y-69162704D01*
X175189102Y-68995630D01*
X175176805Y-68944408D01*
X175082927Y-68717768D01*
X174960049Y-68517248D01*
X174957342Y-68512830D01*
X174957340Y-68512827D01*
X174954752Y-68508604D01*
X174933567Y-68483799D01*
X174798641Y-68325823D01*
X174795433Y-68322067D01*
X174791677Y-68318859D01*
X174702431Y-68242635D01*
X174663622Y-68183184D01*
X174663116Y-68112189D01*
X174702431Y-68051013D01*
X174766677Y-67996141D01*
X174770433Y-67992933D01*
X174929752Y-67806396D01*
X175057927Y-67597232D01*
X175121126Y-67444656D01*
X175149911Y-67375165D01*
X175149912Y-67375163D01*
X175151805Y-67370592D01*
X175186250Y-67227117D01*
X175207917Y-67136870D01*
X175207918Y-67136864D01*
X175209072Y-67132057D01*
X175228319Y-66887500D01*
X175209072Y-66642943D01*
X175151805Y-66404408D01*
X175057927Y-66177768D01*
X174929752Y-65968604D01*
X174917112Y-65953804D01*
X174773641Y-65785823D01*
X174770433Y-65782067D01*
X174689931Y-65713311D01*
X174651122Y-65653860D01*
X174650616Y-65582865D01*
X174689931Y-65521689D01*
X174766677Y-65456141D01*
X174770433Y-65452933D01*
X174889044Y-65314059D01*
X174926535Y-65270163D01*
X174926537Y-65270160D01*
X174929752Y-65266396D01*
X174935163Y-65257567D01*
X174993992Y-65161565D01*
X175057927Y-65057232D01*
X175151805Y-64830592D01*
X175171649Y-64747937D01*
X175207917Y-64596870D01*
X175207918Y-64596864D01*
X175209072Y-64592057D01*
X175228319Y-64347500D01*
X175209072Y-64102943D01*
X175151805Y-63864408D01*
X175057927Y-63637768D01*
X174929752Y-63428604D01*
X174770433Y-63242067D01*
X174689931Y-63173311D01*
X174651122Y-63113860D01*
X174650616Y-63042865D01*
X174689931Y-62981689D01*
X174766677Y-62916141D01*
X174770433Y-62912933D01*
X174805063Y-62872387D01*
X174926535Y-62730163D01*
X174926537Y-62730160D01*
X174929752Y-62726396D01*
X174953988Y-62686847D01*
X175004499Y-62604419D01*
X175057927Y-62517232D01*
X175151805Y-62290592D01*
X175188449Y-62137958D01*
X175207917Y-62056870D01*
X175207918Y-62056864D01*
X175209072Y-62052057D01*
X175228319Y-61807500D01*
X175209072Y-61562943D01*
X175151805Y-61324408D01*
X175147412Y-61313801D01*
X175073941Y-61136430D01*
X175057927Y-61097768D01*
X174929752Y-60888604D01*
X174770433Y-60702067D01*
X174687004Y-60630811D01*
X174648195Y-60571360D01*
X174647689Y-60500365D01*
X174687004Y-60439189D01*
X174766677Y-60371141D01*
X174770433Y-60367933D01*
X174773641Y-60364177D01*
X174926535Y-60185163D01*
X174926537Y-60185160D01*
X174929752Y-60181396D01*
X175057927Y-59972232D01*
X175151805Y-59745592D01*
X175171649Y-59662937D01*
X175207917Y-59511870D01*
X175207918Y-59511864D01*
X175209072Y-59507057D01*
X175228319Y-59262500D01*
X175209072Y-59017943D01*
X175199033Y-58976124D01*
X175167821Y-58846121D01*
X175151805Y-58779408D01*
X175057927Y-58552768D01*
X174929752Y-58343604D01*
X174910785Y-58321396D01*
X174773641Y-58160823D01*
X174770433Y-58157067D01*
X174744011Y-58134500D01*
X174587663Y-58000965D01*
X174587660Y-58000963D01*
X174583896Y-57997748D01*
X174579673Y-57995160D01*
X174579670Y-57995158D01*
X174510485Y-57952762D01*
X174374732Y-57869573D01*
X174161870Y-57781402D01*
X174152665Y-57777589D01*
X174152663Y-57777588D01*
X174148092Y-57775695D01*
X174065437Y-57755851D01*
X173914370Y-57719583D01*
X173914364Y-57719582D01*
X173909557Y-57718428D01*
X173665000Y-57699181D01*
X173420443Y-57718428D01*
X173415636Y-57719582D01*
X173415630Y-57719583D01*
X173264563Y-57755851D01*
X173181908Y-57775695D01*
X173177337Y-57777588D01*
X173177335Y-57777589D01*
X173168130Y-57781402D01*
X172955268Y-57869573D01*
X172819515Y-57952762D01*
X172750330Y-57995158D01*
X172750327Y-57995160D01*
X172746104Y-57997748D01*
X172742340Y-58000963D01*
X172742337Y-58000965D01*
X172585989Y-58134500D01*
X172559567Y-58157067D01*
X172556359Y-58160823D01*
X172419216Y-58321396D01*
X172400248Y-58343604D01*
X172272073Y-58552768D01*
X172178195Y-58779408D01*
X172162179Y-58846121D01*
X172130968Y-58976124D01*
X172120928Y-59017943D01*
X172101681Y-59262500D01*
X172120928Y-59507057D01*
X172122082Y-59511864D01*
X172122083Y-59511870D01*
X172158351Y-59662937D01*
X172178195Y-59745592D01*
X172272073Y-59972232D01*
X172400248Y-60181396D01*
X172403463Y-60185160D01*
X172403465Y-60185163D01*
X172556359Y-60364177D01*
X172559567Y-60367933D01*
X172563323Y-60371141D01*
X172642996Y-60439189D01*
X172681805Y-60498640D01*
X172682311Y-60569635D01*
X172642996Y-60630811D01*
X172559567Y-60702067D01*
X172400248Y-60888604D01*
X172272073Y-61097768D01*
X172256059Y-61136430D01*
X172182589Y-61313801D01*
X172178195Y-61324408D01*
X172120928Y-61562943D01*
X172101681Y-61807500D01*
X172120928Y-62052057D01*
X172122082Y-62056864D01*
X172122083Y-62056870D01*
X172141551Y-62137958D01*
X172178195Y-62290592D01*
X172272073Y-62517232D01*
X172325501Y-62604419D01*
X172376013Y-62686847D01*
X172400248Y-62726396D01*
X172403463Y-62730160D01*
X172403465Y-62730163D01*
X172524937Y-62872387D01*
X172559567Y-62912933D01*
X172563323Y-62916141D01*
X172640069Y-62981689D01*
X172678878Y-63041140D01*
X172679384Y-63112135D01*
X172640069Y-63173311D01*
X172559567Y-63242067D01*
X172400248Y-63428604D01*
X172272073Y-63637768D01*
X172178195Y-63864408D01*
X172120928Y-64102943D01*
X172101681Y-64347500D01*
X172120928Y-64592057D01*
X172122082Y-64596864D01*
X172122083Y-64596870D01*
X172158351Y-64747937D01*
X172178195Y-64830592D01*
X172272073Y-65057232D01*
X172336008Y-65161565D01*
X172394838Y-65257567D01*
X172400248Y-65266396D01*
X172403463Y-65270160D01*
X172403465Y-65270163D01*
X172440956Y-65314059D01*
X172559567Y-65452933D01*
X172563323Y-65456141D01*
X172640069Y-65521689D01*
X172678878Y-65581140D01*
X172679384Y-65652135D01*
X172640069Y-65713311D01*
X172559567Y-65782067D01*
X172556359Y-65785823D01*
X172412889Y-65953804D01*
X172400248Y-65968604D01*
X172272073Y-66177768D01*
X172178195Y-66404408D01*
X172120928Y-66642943D01*
X172101681Y-66887500D01*
X168814500Y-66887500D01*
X168814500Y-65953804D01*
X168815237Y-65940196D01*
X168818831Y-65907116D01*
X168818831Y-65907112D01*
X168819496Y-65900991D01*
X168814971Y-65849265D01*
X168814642Y-65844439D01*
X168814500Y-65841538D01*
X168814500Y-65838456D01*
X168813344Y-65826665D01*
X168810154Y-65794130D01*
X168810033Y-65792817D01*
X168802181Y-65703075D01*
X168802180Y-65703068D01*
X168801643Y-65696933D01*
X168800104Y-65691635D01*
X168799565Y-65686141D01*
X168771708Y-65593874D01*
X168771361Y-65592702D01*
X168758460Y-65548298D01*
X168744495Y-65500229D01*
X168741957Y-65495333D01*
X168740361Y-65490046D01*
X168723679Y-65458671D01*
X168695169Y-65405052D01*
X168694555Y-65403884D01*
X168653062Y-65323836D01*
X168650230Y-65318372D01*
X168646787Y-65314059D01*
X168644196Y-65309186D01*
X168640307Y-65304418D01*
X168640300Y-65304407D01*
X168583295Y-65234512D01*
X168582467Y-65233486D01*
X168552350Y-65195759D01*
X168552347Y-65195756D01*
X168550152Y-65193006D01*
X168547659Y-65190513D01*
X168546729Y-65189473D01*
X168543013Y-65185122D01*
X168518632Y-65155228D01*
X168518629Y-65155225D01*
X168514733Y-65150448D01*
X168477976Y-65120040D01*
X168469197Y-65112051D01*
X166265618Y-62908472D01*
X166256516Y-62898329D01*
X166235658Y-62872387D01*
X166231799Y-62867587D01*
X166192010Y-62834200D01*
X166188362Y-62831018D01*
X166186237Y-62829091D01*
X166184047Y-62826901D01*
X166149642Y-62798641D01*
X166148724Y-62797879D01*
X166074884Y-62735920D01*
X166070045Y-62733260D01*
X166065783Y-62729759D01*
X166060354Y-62726848D01*
X166060351Y-62726846D01*
X165980959Y-62684276D01*
X165979800Y-62683647D01*
X165900786Y-62640209D01*
X165895384Y-62637239D01*
X165890125Y-62635571D01*
X165885260Y-62632962D01*
X165793093Y-62604784D01*
X165792063Y-62604463D01*
X165700136Y-62575302D01*
X165694647Y-62574686D01*
X165689373Y-62573074D01*
X165593574Y-62563343D01*
X165592393Y-62563217D01*
X165561540Y-62559756D01*
X165544220Y-62557813D01*
X165544215Y-62557813D01*
X165540723Y-62557421D01*
X165537199Y-62557421D01*
X165535784Y-62557342D01*
X165530085Y-62556893D01*
X165520889Y-62555959D01*
X165491712Y-62552995D01*
X165491708Y-62552995D01*
X165485585Y-62552373D01*
X165438097Y-62556862D01*
X165426239Y-62557421D01*
X164246757Y-62557421D01*
X164178636Y-62537419D01*
X164157662Y-62520516D01*
X161923140Y-60285994D01*
X161889114Y-60223682D01*
X161886659Y-60207223D01*
X161872442Y-60034295D01*
X161872441Y-60034289D01*
X161872018Y-60029144D01*
X161813591Y-59796535D01*
X161811535Y-59791805D01*
X161811532Y-59791798D01*
X161720018Y-59581330D01*
X161720016Y-59581327D01*
X161717958Y-59576593D01*
X161700745Y-59549985D01*
X161590496Y-59379567D01*
X161590494Y-59379564D01*
X161587686Y-59375224D01*
X161558751Y-59343424D01*
X161429753Y-59201658D01*
X161429751Y-59201657D01*
X161426275Y-59197836D01*
X161422224Y-59194637D01*
X161422220Y-59194633D01*
X161242117Y-59052397D01*
X161238059Y-59049192D01*
X161028093Y-58933284D01*
X160905629Y-58889917D01*
X160806891Y-58854952D01*
X160806887Y-58854951D01*
X160802016Y-58853226D01*
X160796923Y-58852319D01*
X160796920Y-58852318D01*
X160570987Y-58812073D01*
X160570981Y-58812072D01*
X160565898Y-58811167D01*
X160478631Y-58810101D01*
X160331252Y-58808300D01*
X160331250Y-58808300D01*
X160326082Y-58808237D01*
X160089008Y-58844514D01*
X159861042Y-58919025D01*
X159856450Y-58921415D01*
X159856451Y-58921415D01*
X159661395Y-59022955D01*
X159648307Y-59029768D01*
X159644174Y-59032871D01*
X159644171Y-59032873D01*
X159460651Y-59170664D01*
X159456516Y-59173769D01*
X159397394Y-59235637D01*
X159305535Y-59331762D01*
X159290819Y-59347161D01*
X159287905Y-59351433D01*
X159287904Y-59351434D01*
X159235117Y-59428817D01*
X159155666Y-59545288D01*
X159153486Y-59549985D01*
X159060565Y-59750165D01*
X159054687Y-59762827D01*
X158990595Y-59993939D01*
X158965109Y-60232415D01*
X158978915Y-60471851D01*
X158980050Y-60476888D01*
X158980051Y-60476894D01*
X159000951Y-60569635D01*
X159031641Y-60705817D01*
X159121873Y-60928030D01*
X159247185Y-61132522D01*
X159404214Y-61313801D01*
X159588742Y-61466999D01*
X159795814Y-61588002D01*
X160019868Y-61673560D01*
X160024934Y-61674591D01*
X160024935Y-61674591D01*
X160032608Y-61676152D01*
X160254887Y-61721375D01*
X160360441Y-61725245D01*
X160427783Y-61747729D01*
X160444919Y-61762065D01*
X162978224Y-64295370D01*
X162987325Y-64305512D01*
X163012043Y-64336255D01*
X163016760Y-64340213D01*
X163016762Y-64340215D01*
X163051832Y-64369642D01*
X163055485Y-64372829D01*
X163057611Y-64374757D01*
X163059795Y-64376941D01*
X163062174Y-64378895D01*
X163062186Y-64378906D01*
X163094204Y-64405206D01*
X163095219Y-64406048D01*
X163168958Y-64467922D01*
X163173794Y-64470581D01*
X163178058Y-64474083D01*
X163262905Y-64519578D01*
X163264034Y-64520191D01*
X163348458Y-64566603D01*
X163353716Y-64568271D01*
X163358582Y-64570880D01*
X163450708Y-64599045D01*
X163451846Y-64599399D01*
X163543706Y-64628540D01*
X163549194Y-64629156D01*
X163554468Y-64630768D01*
X163650305Y-64640504D01*
X163651441Y-64640625D01*
X163703119Y-64646421D01*
X163706646Y-64646421D01*
X163708058Y-64646500D01*
X163713760Y-64646949D01*
X163752129Y-64650847D01*
X163752134Y-64650847D01*
X163758257Y-64651469D01*
X163805746Y-64646980D01*
X163817603Y-64646421D01*
X164997085Y-64646421D01*
X165065206Y-64666423D01*
X165086180Y-64683326D01*
X166688595Y-66285741D01*
X166722621Y-66348053D01*
X166725500Y-66374836D01*
X166725500Y-73585164D01*
X166705498Y-73653285D01*
X166688595Y-73674259D01*
X164834259Y-75528595D01*
X164771947Y-75562621D01*
X164745164Y-75565500D01*
X164019094Y-75565500D01*
X163950973Y-75545498D01*
X163904480Y-75491842D01*
X163894376Y-75421568D01*
X163916771Y-75365974D01*
X164015945Y-75227958D01*
X164018963Y-75223758D01*
X164022189Y-75217232D01*
X164122933Y-75013392D01*
X164122934Y-75013390D01*
X164125227Y-75008750D01*
X164194947Y-74779274D01*
X164226252Y-74541492D01*
X164227999Y-74470000D01*
X164220598Y-74379987D01*
X164208771Y-74236124D01*
X164208770Y-74236118D01*
X164208347Y-74230973D01*
X164167294Y-74067533D01*
X164151179Y-74003375D01*
X164151178Y-74003371D01*
X164149920Y-73998364D01*
X164147864Y-73993634D01*
X164147861Y-73993627D01*
X164056347Y-73783159D01*
X164056345Y-73783156D01*
X164054287Y-73778422D01*
X164005051Y-73702314D01*
X163926825Y-73581396D01*
X163926823Y-73581393D01*
X163924015Y-73577053D01*
X163917618Y-73570022D01*
X163766082Y-73403487D01*
X163766080Y-73403486D01*
X163762604Y-73399665D01*
X163758553Y-73396466D01*
X163758549Y-73396462D01*
X163667199Y-73324319D01*
X163656307Y-73315717D01*
X163615245Y-73257801D01*
X163612013Y-73186878D01*
X163645460Y-73127585D01*
X163655649Y-73117432D01*
X163762190Y-73011262D01*
X163902142Y-72816497D01*
X163957862Y-72703758D01*
X164006112Y-72606131D01*
X164006113Y-72606129D01*
X164008406Y-72601489D01*
X164078126Y-72372013D01*
X164109431Y-72134231D01*
X164110073Y-72107950D01*
X164111096Y-72066104D01*
X164111096Y-72066100D01*
X164111178Y-72062739D01*
X164103059Y-71963989D01*
X164091950Y-71828863D01*
X164091949Y-71828857D01*
X164091526Y-71823712D01*
X164033099Y-71591103D01*
X164031043Y-71586373D01*
X164031040Y-71586366D01*
X163939526Y-71375898D01*
X163939524Y-71375895D01*
X163937466Y-71371161D01*
X163899204Y-71312016D01*
X163810004Y-71174135D01*
X163810002Y-71174132D01*
X163807194Y-71169792D01*
X163768386Y-71127142D01*
X163649261Y-70996226D01*
X163649259Y-70996225D01*
X163645783Y-70992404D01*
X163641732Y-70989205D01*
X163641728Y-70989201D01*
X163480748Y-70862067D01*
X163457567Y-70843760D01*
X163247601Y-70727852D01*
X163102407Y-70676436D01*
X163026399Y-70649520D01*
X163026395Y-70649519D01*
X163021524Y-70647794D01*
X163016431Y-70646887D01*
X163016428Y-70646886D01*
X162790495Y-70606641D01*
X162790489Y-70606640D01*
X162785406Y-70605735D01*
X162698139Y-70604669D01*
X162550760Y-70602868D01*
X162550758Y-70602868D01*
X162545590Y-70602805D01*
X162308516Y-70639082D01*
X162080550Y-70713593D01*
X162075958Y-70715983D01*
X162075959Y-70715983D01*
X161891991Y-70811751D01*
X161867815Y-70824336D01*
X161863682Y-70827439D01*
X161863679Y-70827441D01*
X161730151Y-70927697D01*
X161676024Y-70968337D01*
X161672453Y-70972074D01*
X161668584Y-70975509D01*
X161666965Y-70973686D01*
X161614146Y-71004017D01*
X161584725Y-71007500D01*
X148921813Y-71007500D01*
X148908204Y-71006763D01*
X148875116Y-71003168D01*
X148875113Y-71003168D01*
X148868992Y-71002503D01*
X148862854Y-71003040D01*
X148862849Y-71003040D01*
X148817244Y-71007030D01*
X148812407Y-71007360D01*
X148809539Y-71007500D01*
X148806456Y-71007500D01*
X148803400Y-71007800D01*
X148803393Y-71007800D01*
X148762221Y-71011837D01*
X148760908Y-71011958D01*
X148671072Y-71019818D01*
X148671063Y-71019820D01*
X148664933Y-71020356D01*
X148659629Y-71021897D01*
X148654141Y-71022435D01*
X148648236Y-71024218D01*
X148648235Y-71024218D01*
X148632430Y-71028990D01*
X148561948Y-71050269D01*
X148560810Y-71050607D01*
X148468230Y-71077504D01*
X148463331Y-71080043D01*
X148458046Y-71081639D01*
X148372982Y-71126868D01*
X148371940Y-71127415D01*
X148291844Y-71168932D01*
X148291839Y-71168935D01*
X148286372Y-71171769D01*
X148282055Y-71175215D01*
X148277186Y-71177804D01*
X148202531Y-71238691D01*
X148201618Y-71239427D01*
X148161007Y-71271847D01*
X148158509Y-71274345D01*
X148157478Y-71275267D01*
X148153118Y-71278991D01*
X148123226Y-71303369D01*
X148123219Y-71303376D01*
X148118448Y-71307267D01*
X148114521Y-71312014D01*
X148114519Y-71312016D01*
X148088041Y-71344023D01*
X148080051Y-71352803D01*
X147399308Y-72033546D01*
X147336996Y-72067572D01*
X147308676Y-72070442D01*
X147289893Y-72070212D01*
X147283080Y-72070129D01*
X147283079Y-72070129D01*
X147277911Y-72070066D01*
X147040837Y-72106343D01*
X146812871Y-72180854D01*
X146808279Y-72183244D01*
X146808280Y-72183244D01*
X146620518Y-72280987D01*
X146600136Y-72291597D01*
X146596003Y-72294700D01*
X146596000Y-72294702D01*
X146412480Y-72432493D01*
X146408345Y-72435598D01*
X146242648Y-72608990D01*
X146107495Y-72807117D01*
X146070030Y-72887827D01*
X146023209Y-72941191D01*
X145954966Y-72960772D01*
X145886970Y-72940349D01*
X145866650Y-72923869D01*
X145471405Y-72528624D01*
X145437379Y-72466312D01*
X145434500Y-72439529D01*
X145434500Y-72300610D01*
X145454502Y-72232489D01*
X145471560Y-72211359D01*
X145500850Y-72182171D01*
X145504511Y-72178523D01*
X145644463Y-71983758D01*
X145654234Y-71963989D01*
X145748433Y-71773392D01*
X145748434Y-71773390D01*
X145750727Y-71768750D01*
X145820447Y-71539274D01*
X145851752Y-71301492D01*
X145852322Y-71278158D01*
X145853417Y-71233365D01*
X145853417Y-71233361D01*
X145853499Y-71230000D01*
X145840985Y-71077792D01*
X145834271Y-70996124D01*
X145834270Y-70996118D01*
X145833847Y-70990973D01*
X145775420Y-70758364D01*
X145773364Y-70753634D01*
X145773361Y-70753627D01*
X145681847Y-70543159D01*
X145681845Y-70543156D01*
X145679787Y-70538422D01*
X145673807Y-70529177D01*
X145552325Y-70341396D01*
X145552323Y-70341393D01*
X145549515Y-70337053D01*
X145528307Y-70313745D01*
X145391582Y-70163487D01*
X145391580Y-70163486D01*
X145388104Y-70159665D01*
X145384053Y-70156466D01*
X145384049Y-70156462D01*
X145203946Y-70014226D01*
X145199888Y-70011021D01*
X144989922Y-69895113D01*
X144867458Y-69851746D01*
X144768720Y-69816781D01*
X144768716Y-69816780D01*
X144763845Y-69815055D01*
X144758752Y-69814148D01*
X144758749Y-69814147D01*
X144532816Y-69773902D01*
X144532810Y-69773901D01*
X144527727Y-69772996D01*
X144513012Y-69772816D01*
X144459973Y-69772168D01*
X144392102Y-69751335D01*
X144372418Y-69735272D01*
X144103697Y-69466551D01*
X144094595Y-69456408D01*
X144073737Y-69430466D01*
X144069878Y-69425666D01*
X144052839Y-69411368D01*
X144030089Y-69392279D01*
X144026441Y-69389097D01*
X144024316Y-69387170D01*
X144022126Y-69384980D01*
X143987721Y-69356720D01*
X143986803Y-69355958D01*
X143912963Y-69293999D01*
X143908124Y-69291339D01*
X143903862Y-69287838D01*
X143898433Y-69284927D01*
X143898430Y-69284925D01*
X143819038Y-69242355D01*
X143817879Y-69241726D01*
X143738865Y-69198288D01*
X143733463Y-69195318D01*
X143728204Y-69193650D01*
X143723339Y-69191041D01*
X143631179Y-69162866D01*
X143629998Y-69162497D01*
X143592481Y-69150595D01*
X143533598Y-69110930D01*
X143505506Y-69045728D01*
X143517126Y-68975688D01*
X143541642Y-68941244D01*
X143580844Y-68902178D01*
X143580848Y-68902173D01*
X143584511Y-68898523D01*
X143724463Y-68703758D01*
X143773240Y-68605067D01*
X143828433Y-68493392D01*
X143828434Y-68493390D01*
X143830727Y-68488750D01*
X143900447Y-68259274D01*
X143931752Y-68021492D01*
X143931834Y-68018142D01*
X143933417Y-67953365D01*
X143933417Y-67953361D01*
X143933499Y-67950000D01*
X143922002Y-67810163D01*
X143914271Y-67716124D01*
X143914270Y-67716118D01*
X143913847Y-67710973D01*
X143855420Y-67478364D01*
X143853364Y-67473634D01*
X143853361Y-67473627D01*
X143761847Y-67263159D01*
X143761845Y-67263156D01*
X143759787Y-67258422D01*
X143742574Y-67231814D01*
X143632323Y-67061393D01*
X143632321Y-67061390D01*
X143629515Y-67057053D01*
X143626041Y-67053235D01*
X143626034Y-67053226D01*
X143547306Y-66966705D01*
X143516254Y-66902859D01*
X143514500Y-66881906D01*
X143514500Y-62153716D01*
X143534502Y-62085595D01*
X143551405Y-62064621D01*
X143638621Y-61977405D01*
X143700933Y-61943379D01*
X143727716Y-61940500D01*
X148394560Y-61940500D01*
X148408167Y-61941237D01*
X148441248Y-61944831D01*
X148441253Y-61944831D01*
X148447374Y-61945496D01*
X148465118Y-61943944D01*
X148499100Y-61940971D01*
X148503926Y-61940642D01*
X148506827Y-61940500D01*
X148509909Y-61940500D01*
X148521700Y-61939344D01*
X148554235Y-61936154D01*
X148555548Y-61936033D01*
X148645285Y-61928182D01*
X148645297Y-61928180D01*
X148651432Y-61927643D01*
X148656731Y-61926104D01*
X148662224Y-61925565D01*
X148754445Y-61897722D01*
X148755582Y-61897385D01*
X148848136Y-61870496D01*
X148853036Y-61867956D01*
X148858319Y-61866361D01*
X148943358Y-61821145D01*
X148944406Y-61820595D01*
X149024524Y-61779066D01*
X149024525Y-61779065D01*
X149029993Y-61776231D01*
X149034310Y-61772785D01*
X149039179Y-61770196D01*
X149113915Y-61709243D01*
X149114721Y-61708593D01*
X149155359Y-61676152D01*
X149157853Y-61673658D01*
X149158892Y-61672729D01*
X149163243Y-61669013D01*
X149193137Y-61644632D01*
X149193140Y-61644629D01*
X149197917Y-61640733D01*
X149228325Y-61603976D01*
X149236314Y-61595197D01*
X149550106Y-61281405D01*
X149612418Y-61247379D01*
X149639201Y-61244500D01*
X154738164Y-61244500D01*
X154806285Y-61264502D01*
X154827259Y-61281405D01*
X154909054Y-61363200D01*
X154943080Y-61425512D01*
X154945750Y-61445042D01*
X154946826Y-61463694D01*
X154953744Y-61583680D01*
X154954879Y-61588717D01*
X154954880Y-61588723D01*
X155005331Y-61812592D01*
X155006470Y-61817646D01*
X155096702Y-62039859D01*
X155222014Y-62244351D01*
X155379043Y-62425630D01*
X155563571Y-62578828D01*
X155770643Y-62699831D01*
X155994697Y-62785389D01*
X155999763Y-62786420D01*
X155999764Y-62786420D01*
X156055689Y-62797798D01*
X156229716Y-62833204D01*
X156365264Y-62838174D01*
X156464225Y-62841803D01*
X156464229Y-62841803D01*
X156469389Y-62841992D01*
X156474509Y-62841336D01*
X156474511Y-62841336D01*
X156702151Y-62812175D01*
X156702152Y-62812175D01*
X156707279Y-62811518D01*
X156712229Y-62810033D01*
X156932042Y-62744086D01*
X156932047Y-62744084D01*
X156936997Y-62742599D01*
X157152374Y-62637087D01*
X157156579Y-62634087D01*
X157156585Y-62634084D01*
X157255949Y-62563208D01*
X157347627Y-62497815D01*
X157517511Y-62328523D01*
X157657463Y-62133758D01*
X157697843Y-62052057D01*
X157761433Y-61923392D01*
X157761434Y-61923390D01*
X157763727Y-61918750D01*
X157833447Y-61689274D01*
X157864752Y-61451492D01*
X157865387Y-61425512D01*
X157866417Y-61383365D01*
X157866417Y-61383361D01*
X157866499Y-61380000D01*
X157857003Y-61264502D01*
X157847271Y-61146124D01*
X157847270Y-61146118D01*
X157846847Y-61140973D01*
X157788420Y-60908364D01*
X157786364Y-60903634D01*
X157786361Y-60903627D01*
X157694847Y-60693159D01*
X157694845Y-60693156D01*
X157692787Y-60688422D01*
X157602498Y-60548856D01*
X157565325Y-60491396D01*
X157565323Y-60491393D01*
X157562515Y-60487053D01*
X157548683Y-60471851D01*
X157404582Y-60313487D01*
X157404580Y-60313486D01*
X157401104Y-60309665D01*
X157397053Y-60306466D01*
X157397049Y-60306462D01*
X157233336Y-60177170D01*
X157212888Y-60161021D01*
X157002922Y-60045113D01*
X156844368Y-59988966D01*
X156781720Y-59966781D01*
X156781716Y-59966780D01*
X156776845Y-59965055D01*
X156771752Y-59964148D01*
X156771749Y-59964147D01*
X156545816Y-59923902D01*
X156545810Y-59923901D01*
X156540727Y-59922996D01*
X156526012Y-59922816D01*
X156472973Y-59922168D01*
X156405102Y-59901335D01*
X156385418Y-59885272D01*
X156006697Y-59506551D01*
X155997595Y-59496408D01*
X155976737Y-59470466D01*
X155972878Y-59465666D01*
X155933089Y-59432279D01*
X155929442Y-59429097D01*
X155927309Y-59427163D01*
X155925126Y-59424980D01*
X155890767Y-59396757D01*
X155889752Y-59395915D01*
X155820687Y-59337963D01*
X155820688Y-59337963D01*
X155815963Y-59333999D01*
X155811124Y-59331339D01*
X155806862Y-59327838D01*
X155801433Y-59324927D01*
X155801430Y-59324925D01*
X155722038Y-59282355D01*
X155720879Y-59281726D01*
X155641865Y-59238288D01*
X155636463Y-59235318D01*
X155631204Y-59233650D01*
X155626339Y-59231041D01*
X155534172Y-59202863D01*
X155533142Y-59202542D01*
X155441215Y-59173381D01*
X155435726Y-59172765D01*
X155430452Y-59171153D01*
X155334653Y-59161422D01*
X155333472Y-59161296D01*
X155302619Y-59157835D01*
X155285299Y-59155892D01*
X155285294Y-59155892D01*
X155281802Y-59155500D01*
X155278278Y-59155500D01*
X155276863Y-59155421D01*
X155271164Y-59154972D01*
X155261968Y-59154038D01*
X155232791Y-59151074D01*
X155232787Y-59151074D01*
X155226664Y-59150452D01*
X155179176Y-59154941D01*
X155167318Y-59155500D01*
X149335084Y-59155500D01*
X149266963Y-59135498D01*
X149220470Y-59081842D01*
X149209508Y-59039825D01*
X149204270Y-58976124D01*
X149203847Y-58970973D01*
X149163691Y-58811104D01*
X149146679Y-58743375D01*
X149146678Y-58743371D01*
X149145420Y-58738364D01*
X149143364Y-58733634D01*
X149143361Y-58733627D01*
X149051847Y-58523159D01*
X149051845Y-58523156D01*
X149049787Y-58518422D01*
X148950573Y-58365060D01*
X148922325Y-58321396D01*
X148922323Y-58321393D01*
X148919515Y-58317053D01*
X148777357Y-58160823D01*
X148761582Y-58143487D01*
X148761580Y-58143486D01*
X148758104Y-58139665D01*
X148754053Y-58136466D01*
X148754049Y-58136462D01*
X148573946Y-57994226D01*
X148569888Y-57991021D01*
X148359922Y-57875113D01*
X148237458Y-57831746D01*
X148138720Y-57796781D01*
X148138716Y-57796780D01*
X148133845Y-57795055D01*
X148089530Y-57787161D01*
X148057199Y-57781402D01*
X147993642Y-57749764D01*
X147957279Y-57688786D01*
X147958738Y-57620726D01*
X147978942Y-57554227D01*
X147980447Y-57549274D01*
X148011752Y-57311492D01*
X148013499Y-57240000D01*
X148007001Y-57160970D01*
X147994271Y-57006124D01*
X147994270Y-57006118D01*
X147993847Y-57000973D01*
X147935420Y-56768364D01*
X147933364Y-56763634D01*
X147933361Y-56763627D01*
X147841847Y-56553159D01*
X147841845Y-56553156D01*
X147839787Y-56548422D01*
X147737819Y-56390803D01*
X147712325Y-56351396D01*
X147712323Y-56351393D01*
X147709515Y-56347053D01*
X147679163Y-56313696D01*
X147551582Y-56173487D01*
X147551580Y-56173486D01*
X147548104Y-56169665D01*
X147544053Y-56166466D01*
X147544049Y-56166462D01*
X147390287Y-56045029D01*
X147359888Y-56021021D01*
X147149922Y-55905113D01*
X147027458Y-55861746D01*
X146928720Y-55826781D01*
X146928716Y-55826780D01*
X146923845Y-55825055D01*
X146918752Y-55824148D01*
X146918749Y-55824147D01*
X146692816Y-55783902D01*
X146692810Y-55783901D01*
X146687727Y-55782996D01*
X146600460Y-55781930D01*
X146453081Y-55780129D01*
X146453079Y-55780129D01*
X146447911Y-55780066D01*
X146210837Y-55816343D01*
X145982871Y-55890854D01*
X145770136Y-56001597D01*
X145745277Y-56020262D01*
X145678794Y-56045166D01*
X145669626Y-56045500D01*
X142863804Y-56045500D01*
X142850196Y-56044763D01*
X142817116Y-56041169D01*
X142817112Y-56041169D01*
X142810991Y-56040504D01*
X142793247Y-56042056D01*
X142759265Y-56045029D01*
X142754439Y-56045358D01*
X142751538Y-56045500D01*
X142748456Y-56045500D01*
X142736665Y-56046656D01*
X142704130Y-56049846D01*
X142702817Y-56049967D01*
X142613080Y-56057818D01*
X142613068Y-56057820D01*
X142606933Y-56058357D01*
X142601634Y-56059896D01*
X142596141Y-56060435D01*
X142503920Y-56088278D01*
X142502783Y-56088615D01*
X142410229Y-56115504D01*
X142405329Y-56118044D01*
X142400046Y-56119639D01*
X142394611Y-56122529D01*
X142394608Y-56122530D01*
X142314976Y-56164871D01*
X142313809Y-56165483D01*
X142298368Y-56173487D01*
X142228372Y-56209770D01*
X142224059Y-56213213D01*
X142219186Y-56215804D01*
X142214418Y-56219693D01*
X142214407Y-56219700D01*
X142144512Y-56276705D01*
X142143505Y-56277518D01*
X142103006Y-56309848D01*
X142100513Y-56312341D01*
X142099473Y-56313271D01*
X142095122Y-56316987D01*
X142065228Y-56341368D01*
X142065225Y-56341371D01*
X142060448Y-56345267D01*
X142056521Y-56350014D01*
X142056519Y-56350016D01*
X142030041Y-56382023D01*
X142022051Y-56390803D01*
X133536551Y-64876303D01*
X133526409Y-64885404D01*
X133495666Y-64910122D01*
X133491708Y-64914839D01*
X133491706Y-64914841D01*
X133462279Y-64949911D01*
X133459097Y-64953559D01*
X133457170Y-64955684D01*
X133454980Y-64957874D01*
X133453018Y-64960263D01*
X133453015Y-64960266D01*
X133426720Y-64992279D01*
X133425958Y-64993197D01*
X133363999Y-65067037D01*
X133361339Y-65071876D01*
X133357838Y-65076138D01*
X133354927Y-65081567D01*
X133354925Y-65081570D01*
X133312355Y-65160962D01*
X133311726Y-65162121D01*
X133285013Y-65210711D01*
X133265318Y-65246537D01*
X133263650Y-65251796D01*
X133261041Y-65256661D01*
X133232863Y-65348828D01*
X133232542Y-65349858D01*
X133203381Y-65441785D01*
X133202765Y-65447274D01*
X133201153Y-65452548D01*
X133195709Y-65506147D01*
X133191427Y-65548298D01*
X133191296Y-65549528D01*
X133185500Y-65601198D01*
X133185500Y-65604722D01*
X133185421Y-65606137D01*
X133184972Y-65611836D01*
X133180452Y-65656336D01*
X133183325Y-65686726D01*
X133184941Y-65703824D01*
X133185500Y-65715682D01*
X133185500Y-66069734D01*
X133165498Y-66137855D01*
X133111842Y-66184348D01*
X133041568Y-66194452D01*
X132976988Y-66164958D01*
X132952069Y-66135572D01*
X132849752Y-65968604D01*
X132837112Y-65953804D01*
X132693641Y-65785823D01*
X132690433Y-65782067D01*
X132609931Y-65713311D01*
X132571122Y-65653860D01*
X132570616Y-65582865D01*
X132609931Y-65521689D01*
X132686677Y-65456141D01*
X132690433Y-65452933D01*
X132809044Y-65314059D01*
X132846535Y-65270163D01*
X132846537Y-65270160D01*
X132849752Y-65266396D01*
X132855163Y-65257567D01*
X132913992Y-65161565D01*
X132977927Y-65057232D01*
X133071805Y-64830592D01*
X133091649Y-64747937D01*
X133127917Y-64596870D01*
X133127918Y-64596864D01*
X133129072Y-64592057D01*
X133148319Y-64347500D01*
X133129072Y-64102943D01*
X133071805Y-63864408D01*
X132977927Y-63637768D01*
X132849752Y-63428604D01*
X132690433Y-63242067D01*
X132609931Y-63173311D01*
X132571122Y-63113860D01*
X132570616Y-63042865D01*
X132609931Y-62981689D01*
X132686677Y-62916141D01*
X132690433Y-62912933D01*
X132725063Y-62872387D01*
X132846535Y-62730163D01*
X132846537Y-62730160D01*
X132849752Y-62726396D01*
X132873988Y-62686847D01*
X132924499Y-62604419D01*
X132977927Y-62517232D01*
X133071805Y-62290592D01*
X133108449Y-62137958D01*
X133127917Y-62056870D01*
X133127918Y-62056864D01*
X133129072Y-62052057D01*
X133148319Y-61807500D01*
X133129072Y-61562943D01*
X133071805Y-61324408D01*
X133067412Y-61313801D01*
X132993941Y-61136430D01*
X132977927Y-61097768D01*
X132849752Y-60888604D01*
X132690433Y-60702067D01*
X132607004Y-60630811D01*
X132511048Y-60548856D01*
X132500732Y-60534872D01*
X132499087Y-60536371D01*
X132493179Y-60529889D01*
X131597812Y-59634522D01*
X131583868Y-59626908D01*
X131582035Y-59627039D01*
X131575420Y-59631290D01*
X130674748Y-60531962D01*
X130674542Y-60531756D01*
X130664525Y-60544096D01*
X130562996Y-60630811D01*
X130479567Y-60702067D01*
X130320248Y-60888604D01*
X130192073Y-61097768D01*
X130176059Y-61136430D01*
X130102589Y-61313801D01*
X130098195Y-61324408D01*
X130040928Y-61562943D01*
X130021681Y-61807500D01*
X130040928Y-62052057D01*
X130042082Y-62056864D01*
X130042083Y-62056870D01*
X130061551Y-62137958D01*
X130098195Y-62290592D01*
X130192073Y-62517232D01*
X130245501Y-62604419D01*
X130296013Y-62686847D01*
X130320248Y-62726396D01*
X130323463Y-62730160D01*
X130323465Y-62730163D01*
X130444937Y-62872387D01*
X130479567Y-62912933D01*
X130483323Y-62916141D01*
X130560069Y-62981689D01*
X130598878Y-63041140D01*
X130599384Y-63112135D01*
X130560069Y-63173311D01*
X130479567Y-63242067D01*
X130320248Y-63428604D01*
X130192073Y-63637768D01*
X130098195Y-63864408D01*
X130040928Y-64102943D01*
X130021681Y-64347500D01*
X130040928Y-64592057D01*
X130042082Y-64596864D01*
X130042083Y-64596870D01*
X130078351Y-64747937D01*
X130098195Y-64830592D01*
X130192073Y-65057232D01*
X130256008Y-65161565D01*
X130314838Y-65257567D01*
X130320248Y-65266396D01*
X130323463Y-65270160D01*
X130323465Y-65270163D01*
X130360956Y-65314059D01*
X130479567Y-65452933D01*
X130483323Y-65456141D01*
X130560069Y-65521689D01*
X130598878Y-65581140D01*
X130599384Y-65652135D01*
X130560069Y-65713311D01*
X130479567Y-65782067D01*
X130476359Y-65785823D01*
X130332889Y-65953804D01*
X130320248Y-65968604D01*
X130192073Y-66177768D01*
X130098195Y-66404408D01*
X130040928Y-66642943D01*
X130021681Y-66887500D01*
X129028500Y-66887500D01*
X129028500Y-59267430D01*
X130022570Y-59267430D01*
X130041035Y-59502045D01*
X130042578Y-59511792D01*
X130097517Y-59740625D01*
X130100566Y-59750010D01*
X130190625Y-59967433D01*
X130195107Y-59976228D01*
X130306072Y-60157305D01*
X130316530Y-60166767D01*
X130325306Y-60162984D01*
X131212978Y-59275312D01*
X131219356Y-59263632D01*
X131949408Y-59263632D01*
X131949539Y-59265465D01*
X131953790Y-59272080D01*
X132841650Y-60159940D01*
X132854030Y-60166700D01*
X132861680Y-60160973D01*
X132974893Y-59976228D01*
X132979375Y-59967433D01*
X133069434Y-59750010D01*
X133072483Y-59740625D01*
X133127422Y-59511792D01*
X133128965Y-59502045D01*
X133147430Y-59267430D01*
X133147430Y-59257570D01*
X133128965Y-59022955D01*
X133127422Y-59013208D01*
X133072483Y-58784375D01*
X133069434Y-58774990D01*
X132979375Y-58557567D01*
X132974893Y-58548772D01*
X132863928Y-58367695D01*
X132853470Y-58358233D01*
X132844694Y-58362016D01*
X131957022Y-59249688D01*
X131949408Y-59263632D01*
X131219356Y-59263632D01*
X131220592Y-59261368D01*
X131220461Y-59259535D01*
X131216210Y-59252920D01*
X130328350Y-58365060D01*
X130315970Y-58358300D01*
X130308320Y-58364027D01*
X130195107Y-58548772D01*
X130190625Y-58557567D01*
X130100566Y-58774990D01*
X130097517Y-58784375D01*
X130042578Y-59013208D01*
X130041035Y-59022955D01*
X130022570Y-59257570D01*
X130022570Y-59267430D01*
X129028500Y-59267430D01*
X129028500Y-57994030D01*
X130680733Y-57994030D01*
X130684516Y-58002806D01*
X131572188Y-58890478D01*
X131586132Y-58898092D01*
X131587965Y-58897961D01*
X131594580Y-58893710D01*
X132482440Y-58005850D01*
X132489200Y-57993470D01*
X132483473Y-57985820D01*
X132298728Y-57872607D01*
X132289933Y-57868125D01*
X132072510Y-57778066D01*
X132063125Y-57775017D01*
X131834292Y-57720078D01*
X131824545Y-57718535D01*
X131589930Y-57700070D01*
X131580070Y-57700070D01*
X131345455Y-57718535D01*
X131335708Y-57720078D01*
X131106875Y-57775017D01*
X131097490Y-57778066D01*
X130880067Y-57868125D01*
X130871272Y-57872607D01*
X130690195Y-57983572D01*
X130680733Y-57994030D01*
X129028500Y-57994030D01*
X129028500Y-54684500D01*
X129048502Y-54616379D01*
X129102158Y-54569886D01*
X129154500Y-54558500D01*
X175665500Y-54558500D01*
X175733621Y-54578502D01*
G37*
%TD.AperFunction*%
%TA.AperFunction,Conductor*%
G36*
X142876707Y-71224502D02*
G01*
X142923200Y-71278158D01*
X142934377Y-71323246D01*
X142935838Y-71348597D01*
X142940446Y-71428521D01*
X142940447Y-71428527D01*
X142940744Y-71433680D01*
X142993470Y-71667646D01*
X143083702Y-71889859D01*
X143086404Y-71894268D01*
X143194363Y-72070442D01*
X143209014Y-72094351D01*
X143212395Y-72098254D01*
X143212400Y-72098261D01*
X143314737Y-72216402D01*
X143344220Y-72280987D01*
X143345500Y-72298899D01*
X143345500Y-72860560D01*
X143344763Y-72874167D01*
X143343280Y-72887824D01*
X143340504Y-72913374D01*
X143341041Y-72919510D01*
X143345029Y-72965100D01*
X143345358Y-72969926D01*
X143345500Y-72972827D01*
X143345500Y-72975909D01*
X143345801Y-72978977D01*
X143349846Y-73020235D01*
X143349967Y-73021548D01*
X143357818Y-73111285D01*
X143357820Y-73111297D01*
X143358357Y-73117432D01*
X143359896Y-73122731D01*
X143360435Y-73128224D01*
X143388278Y-73220445D01*
X143388615Y-73221582D01*
X143415504Y-73314136D01*
X143418044Y-73319036D01*
X143419639Y-73324319D01*
X143464855Y-73409358D01*
X143465405Y-73410406D01*
X143468096Y-73415598D01*
X143509769Y-73495993D01*
X143513215Y-73500310D01*
X143515804Y-73505179D01*
X143576757Y-73579915D01*
X143577407Y-73580721D01*
X143609848Y-73621359D01*
X143612342Y-73623853D01*
X143613271Y-73624892D01*
X143616987Y-73629243D01*
X143641368Y-73659137D01*
X143641371Y-73659140D01*
X143645267Y-73663917D01*
X143650014Y-73667844D01*
X143650016Y-73667846D01*
X143682023Y-73694324D01*
X143690803Y-73702314D01*
X145897938Y-75909449D01*
X145907039Y-75919591D01*
X145931757Y-75950334D01*
X145936474Y-75954292D01*
X145936476Y-75954294D01*
X145971546Y-75983721D01*
X145975199Y-75986908D01*
X145977325Y-75988836D01*
X145979509Y-75991020D01*
X145981888Y-75992974D01*
X145981900Y-75992985D01*
X146013918Y-76019285D01*
X146014933Y-76020127D01*
X146088672Y-76082001D01*
X146093508Y-76084660D01*
X146097772Y-76088162D01*
X146182619Y-76133657D01*
X146183748Y-76134270D01*
X146268172Y-76180682D01*
X146273430Y-76182350D01*
X146278296Y-76184959D01*
X146284192Y-76186761D01*
X146284193Y-76186762D01*
X146307273Y-76193818D01*
X146370422Y-76213124D01*
X146371560Y-76213478D01*
X146463420Y-76242619D01*
X146468908Y-76243235D01*
X146474182Y-76244847D01*
X146570019Y-76254583D01*
X146571155Y-76254704D01*
X146622833Y-76260500D01*
X146626360Y-76260500D01*
X146627772Y-76260579D01*
X146633474Y-76261028D01*
X146671843Y-76264926D01*
X146671848Y-76264926D01*
X146677971Y-76265548D01*
X146725460Y-76261059D01*
X146737317Y-76260500D01*
X150718164Y-76260500D01*
X150786285Y-76280502D01*
X150832778Y-76334158D01*
X150842882Y-76404432D01*
X150813388Y-76469012D01*
X150807259Y-76475595D01*
X148625476Y-78657378D01*
X148563164Y-78691404D01*
X148492349Y-78686339D01*
X148475492Y-78678594D01*
X148269922Y-78565113D01*
X148147458Y-78521746D01*
X148048720Y-78486781D01*
X148048716Y-78486780D01*
X148043845Y-78485055D01*
X148038752Y-78484148D01*
X148038749Y-78484147D01*
X147812816Y-78443902D01*
X147812810Y-78443901D01*
X147807727Y-78442996D01*
X147720460Y-78441930D01*
X147573081Y-78440129D01*
X147573079Y-78440129D01*
X147567911Y-78440066D01*
X147330837Y-78476343D01*
X147102871Y-78550854D01*
X147098279Y-78553244D01*
X147098280Y-78553244D01*
X146898241Y-78657378D01*
X146890136Y-78661597D01*
X146886003Y-78664700D01*
X146886000Y-78664702D01*
X146702480Y-78802493D01*
X146698345Y-78805598D01*
X146687876Y-78816553D01*
X146626353Y-78851981D01*
X146596784Y-78855500D01*
X143934836Y-78855500D01*
X143866715Y-78835498D01*
X143845741Y-78818595D01*
X141553697Y-76526551D01*
X141544595Y-76516408D01*
X141523737Y-76490466D01*
X141519878Y-76485666D01*
X141503001Y-76471504D01*
X141480089Y-76452279D01*
X141476441Y-76449097D01*
X141474316Y-76447170D01*
X141472126Y-76444980D01*
X141466104Y-76440033D01*
X141437721Y-76416720D01*
X141436803Y-76415958D01*
X141362963Y-76353999D01*
X141358124Y-76351339D01*
X141353862Y-76347838D01*
X141348433Y-76344927D01*
X141348430Y-76344925D01*
X141269038Y-76302355D01*
X141267879Y-76301726D01*
X141209012Y-76269364D01*
X141183463Y-76255318D01*
X141178204Y-76253650D01*
X141173339Y-76251041D01*
X141081172Y-76222863D01*
X141080142Y-76222542D01*
X140988215Y-76193381D01*
X140982726Y-76192765D01*
X140977452Y-76191153D01*
X140881653Y-76181422D01*
X140880472Y-76181296D01*
X140848522Y-76177712D01*
X140832299Y-76175892D01*
X140832294Y-76175892D01*
X140828802Y-76175500D01*
X140825278Y-76175500D01*
X140823863Y-76175421D01*
X140818164Y-76174972D01*
X140808968Y-76174038D01*
X140779791Y-76171074D01*
X140779787Y-76171074D01*
X140773664Y-76170452D01*
X140726176Y-76174941D01*
X140714318Y-76175500D01*
X139644571Y-76175500D01*
X139576450Y-76155498D01*
X139566479Y-76148382D01*
X139548631Y-76134286D01*
X139379888Y-76001021D01*
X139169922Y-75885113D01*
X139019015Y-75831674D01*
X138948720Y-75806781D01*
X138948716Y-75806780D01*
X138943845Y-75805055D01*
X138938752Y-75804148D01*
X138938749Y-75804147D01*
X138712816Y-75763902D01*
X138712810Y-75763901D01*
X138707727Y-75762996D01*
X138620460Y-75761930D01*
X138473081Y-75760129D01*
X138473079Y-75760129D01*
X138467911Y-75760066D01*
X138230837Y-75796343D01*
X138002871Y-75870854D01*
X137978797Y-75883386D01*
X137825106Y-75963393D01*
X137790136Y-75981597D01*
X137786003Y-75984700D01*
X137786000Y-75984702D01*
X137602480Y-76122493D01*
X137598345Y-76125598D01*
X137591434Y-76132830D01*
X137450316Y-76280502D01*
X137432648Y-76298990D01*
X137429737Y-76303257D01*
X137429734Y-76303261D01*
X137419617Y-76318093D01*
X137392664Y-76344715D01*
X137393552Y-76345804D01*
X137393551Y-76345804D01*
X137318815Y-76406757D01*
X137318009Y-76407407D01*
X137277371Y-76439848D01*
X137274877Y-76442342D01*
X137273838Y-76443271D01*
X137269487Y-76446987D01*
X137239593Y-76471368D01*
X137239590Y-76471371D01*
X137234813Y-76475267D01*
X137230886Y-76480014D01*
X137230884Y-76480016D01*
X137204406Y-76512023D01*
X137196416Y-76520803D01*
X135248500Y-78468719D01*
X135186188Y-78502745D01*
X135115373Y-78497680D01*
X135081313Y-78478506D01*
X134923946Y-78354226D01*
X134919888Y-78351021D01*
X134709922Y-78235113D01*
X134538019Y-78174239D01*
X134488720Y-78156781D01*
X134488716Y-78156780D01*
X134483845Y-78155055D01*
X134478752Y-78154148D01*
X134478749Y-78154147D01*
X134252816Y-78113902D01*
X134252810Y-78113901D01*
X134247727Y-78112996D01*
X134160460Y-78111930D01*
X134013081Y-78110129D01*
X134013079Y-78110129D01*
X134007911Y-78110066D01*
X133770837Y-78146343D01*
X133542871Y-78220854D01*
X133538279Y-78223244D01*
X133538280Y-78223244D01*
X133420605Y-78284502D01*
X133330136Y-78331597D01*
X133326003Y-78334700D01*
X133326000Y-78334702D01*
X133305335Y-78350218D01*
X133238850Y-78375124D01*
X133169454Y-78360131D01*
X133119181Y-78310001D01*
X133116610Y-78304395D01*
X133113767Y-78299202D01*
X133110615Y-78290795D01*
X133023261Y-78174239D01*
X132926035Y-78101372D01*
X132883521Y-78044512D01*
X132878496Y-77973694D01*
X132894168Y-77934712D01*
X132937448Y-77864084D01*
X133002927Y-77757232D01*
X133096805Y-77530592D01*
X133130522Y-77390152D01*
X133152917Y-77296870D01*
X133152918Y-77296864D01*
X133154072Y-77292057D01*
X133173319Y-77047500D01*
X133154072Y-76802943D01*
X133096805Y-76564408D01*
X133002927Y-76337768D01*
X132914447Y-76193381D01*
X132877342Y-76132830D01*
X132877340Y-76132827D01*
X132874752Y-76128604D01*
X132842698Y-76091073D01*
X132718641Y-75945823D01*
X132715433Y-75942067D01*
X132689118Y-75919592D01*
X132634931Y-75873311D01*
X132596122Y-75813860D01*
X132595616Y-75742865D01*
X132634931Y-75681689D01*
X132711677Y-75616141D01*
X132715433Y-75612933D01*
X132764375Y-75555630D01*
X132858726Y-75445160D01*
X132918177Y-75406351D01*
X132989172Y-75405845D01*
X133049772Y-75444492D01*
X133146043Y-75555630D01*
X133330571Y-75708828D01*
X133537643Y-75829831D01*
X133761697Y-75915389D01*
X133766763Y-75916420D01*
X133766764Y-75916420D01*
X133782355Y-75919592D01*
X133996716Y-75963204D01*
X134132264Y-75968174D01*
X134231225Y-75971803D01*
X134231229Y-75971803D01*
X134236389Y-75971992D01*
X134241509Y-75971336D01*
X134241511Y-75971336D01*
X134469151Y-75942175D01*
X134469152Y-75942175D01*
X134474279Y-75941518D01*
X134557935Y-75916420D01*
X134699042Y-75874086D01*
X134699047Y-75874084D01*
X134703997Y-75872599D01*
X134919374Y-75767087D01*
X134923579Y-75764087D01*
X134923585Y-75764084D01*
X135039098Y-75681689D01*
X135114627Y-75627815D01*
X135151320Y-75591249D01*
X135213693Y-75557333D01*
X135240261Y-75554500D01*
X135366195Y-75554500D01*
X135379802Y-75555237D01*
X135412883Y-75558831D01*
X135412888Y-75558831D01*
X135419009Y-75559496D01*
X135436753Y-75557944D01*
X135470735Y-75554971D01*
X135475561Y-75554642D01*
X135478462Y-75554500D01*
X135481544Y-75554500D01*
X135493335Y-75553344D01*
X135525870Y-75550154D01*
X135527183Y-75550033D01*
X135616920Y-75542182D01*
X135616932Y-75542180D01*
X135623067Y-75541643D01*
X135628366Y-75540104D01*
X135633859Y-75539565D01*
X135726080Y-75511722D01*
X135727217Y-75511385D01*
X135819771Y-75484496D01*
X135824671Y-75481956D01*
X135829954Y-75480361D01*
X135914993Y-75435145D01*
X135916041Y-75434595D01*
X135996159Y-75393066D01*
X135996160Y-75393065D01*
X136001628Y-75390231D01*
X136005945Y-75386785D01*
X136010814Y-75384196D01*
X136085550Y-75323243D01*
X136086356Y-75322593D01*
X136126994Y-75290152D01*
X136129488Y-75287658D01*
X136130527Y-75286729D01*
X136134878Y-75283013D01*
X136164772Y-75258632D01*
X136164775Y-75258629D01*
X136169552Y-75254733D01*
X136199960Y-75217976D01*
X136207949Y-75209197D01*
X140175741Y-71241405D01*
X140238053Y-71207379D01*
X140264836Y-71204500D01*
X142808586Y-71204500D01*
X142876707Y-71224502D01*
G37*
%TD.AperFunction*%
%TA.AperFunction,Conductor*%
G36*
X141343532Y-62577780D02*
G01*
X141400368Y-62620327D01*
X141425179Y-62686847D01*
X141425500Y-62695836D01*
X141425500Y-66881302D01*
X141405498Y-66949423D01*
X141390594Y-66968353D01*
X141332648Y-67028990D01*
X141197495Y-67227117D01*
X141096516Y-67444656D01*
X141032424Y-67675768D01*
X141006938Y-67914244D01*
X141020744Y-68153680D01*
X141021879Y-68158717D01*
X141021880Y-68158723D01*
X141045655Y-68264220D01*
X141073470Y-68387646D01*
X141163702Y-68609859D01*
X141289014Y-68814351D01*
X141369273Y-68907005D01*
X141398755Y-68971588D01*
X141388640Y-69041860D01*
X141342139Y-69095509D01*
X141274035Y-69115500D01*
X139843805Y-69115500D01*
X139830198Y-69114763D01*
X139797117Y-69111169D01*
X139797112Y-69111169D01*
X139790991Y-69110504D01*
X139773247Y-69112056D01*
X139739265Y-69115029D01*
X139734439Y-69115358D01*
X139731538Y-69115500D01*
X139728456Y-69115500D01*
X139716665Y-69116656D01*
X139684130Y-69119846D01*
X139682817Y-69119967D01*
X139593080Y-69127818D01*
X139593068Y-69127820D01*
X139586933Y-69128357D01*
X139581634Y-69129896D01*
X139576141Y-69130435D01*
X139483920Y-69158278D01*
X139482783Y-69158615D01*
X139390229Y-69185504D01*
X139385329Y-69188044D01*
X139380046Y-69189639D01*
X139295007Y-69234855D01*
X139293959Y-69235405D01*
X139281174Y-69242032D01*
X139208372Y-69279769D01*
X139204055Y-69283215D01*
X139199186Y-69285804D01*
X139124450Y-69346757D01*
X139123644Y-69347407D01*
X139083006Y-69379848D01*
X139080512Y-69382342D01*
X139079473Y-69383271D01*
X139075122Y-69386987D01*
X139045228Y-69411368D01*
X139045225Y-69411371D01*
X139040448Y-69415267D01*
X139036521Y-69420014D01*
X139036519Y-69420016D01*
X139010041Y-69452023D01*
X139002051Y-69460803D01*
X135452234Y-73010620D01*
X135389922Y-73044646D01*
X135319107Y-73039581D01*
X135262271Y-72997034D01*
X135237460Y-72930514D01*
X135252551Y-72861140D01*
X135260816Y-72847999D01*
X135361445Y-72707958D01*
X135364463Y-72703758D01*
X135411301Y-72608990D01*
X135468433Y-72493392D01*
X135468434Y-72493390D01*
X135470727Y-72488750D01*
X135540447Y-72259274D01*
X135571752Y-72021492D01*
X135571926Y-72014371D01*
X135593585Y-71946759D01*
X135608793Y-71928353D01*
X136609449Y-70927697D01*
X136619592Y-70918595D01*
X136645534Y-70897737D01*
X136650334Y-70893878D01*
X136679719Y-70858859D01*
X136683721Y-70854089D01*
X136686903Y-70850441D01*
X136688827Y-70848319D01*
X136691020Y-70846126D01*
X136719283Y-70811718D01*
X136720098Y-70810736D01*
X136778038Y-70741686D01*
X136778038Y-70741685D01*
X136782001Y-70736963D01*
X136784659Y-70732127D01*
X136788163Y-70727862D01*
X136833719Y-70642900D01*
X136834264Y-70641898D01*
X136877710Y-70562871D01*
X136877714Y-70562862D01*
X136880682Y-70557463D01*
X136882351Y-70552202D01*
X136884959Y-70547338D01*
X136913109Y-70455265D01*
X136913492Y-70454034D01*
X136940755Y-70368091D01*
X136942619Y-70362215D01*
X136943234Y-70356730D01*
X136944848Y-70351452D01*
X136945870Y-70341396D01*
X136954576Y-70255678D01*
X136954716Y-70254364D01*
X136960108Y-70206300D01*
X136960108Y-70206293D01*
X136960500Y-70202802D01*
X136960500Y-70199279D01*
X136960579Y-70197864D01*
X136961028Y-70192161D01*
X136964926Y-70153791D01*
X136964926Y-70153786D01*
X136965548Y-70147663D01*
X136961059Y-70100174D01*
X136960500Y-70088317D01*
X136960500Y-66908836D01*
X136980502Y-66840715D01*
X136997405Y-66819741D01*
X141210405Y-62606741D01*
X141272717Y-62572715D01*
X141343532Y-62577780D01*
G37*
%TD.AperFunction*%
%TD*%
M02*
