%TF.GenerationSoftware,KiCad,Pcbnew,(6.0.9)*%
%TF.CreationDate,2023-11-09T09:33:38+01:00*%
%TF.ProjectId,LO_daughter,4c4f5f64-6175-4676-9874-65722e6b6963,rev?*%
%TF.SameCoordinates,Original*%
%TF.FileFunction,Copper,L1,Top*%
%TF.FilePolarity,Positive*%
%FSLAX46Y46*%
G04 Gerber Fmt 4.6, Leading zero omitted, Abs format (unit mm)*
G04 Created by KiCad (PCBNEW (6.0.9)) date 2023-11-09 09:33:38*
%MOMM*%
%LPD*%
G01*
G04 APERTURE LIST*
G04 Aperture macros list*
%AMRoundRect*
0 Rectangle with rounded corners*
0 $1 Rounding radius*
0 $2 $3 $4 $5 $6 $7 $8 $9 X,Y pos of 4 corners*
0 Add a 4 corners polygon primitive as box body*
4,1,4,$2,$3,$4,$5,$6,$7,$8,$9,$2,$3,0*
0 Add four circle primitives for the rounded corners*
1,1,$1+$1,$2,$3*
1,1,$1+$1,$4,$5*
1,1,$1+$1,$6,$7*
1,1,$1+$1,$8,$9*
0 Add four rect primitives between the rounded corners*
20,1,$1+$1,$2,$3,$4,$5,0*
20,1,$1+$1,$4,$5,$6,$7,0*
20,1,$1+$1,$6,$7,$8,$9,0*
20,1,$1+$1,$8,$9,$2,$3,0*%
G04 Aperture macros list end*
%TA.AperFunction,SMDPad,CuDef*%
%ADD10RoundRect,0.237500X-0.237500X0.250000X-0.237500X-0.250000X0.237500X-0.250000X0.237500X0.250000X0*%
%TD*%
%TA.AperFunction,SMDPad,CuDef*%
%ADD11R,1.065000X0.360000*%
%TD*%
%TA.AperFunction,SMDPad,CuDef*%
%ADD12R,0.710000X0.360000*%
%TD*%
%TA.AperFunction,SMDPad,CuDef*%
%ADD13R,0.410000X1.780000*%
%TD*%
%TA.AperFunction,SMDPad,CuDef*%
%ADD14RoundRect,0.237500X-0.237500X0.300000X-0.237500X-0.300000X0.237500X-0.300000X0.237500X0.300000X0*%
%TD*%
%TA.AperFunction,SMDPad,CuDef*%
%ADD15R,3.180000X1.040000*%
%TD*%
%TA.AperFunction,SMDPad,CuDef*%
%ADD16RoundRect,0.250000X0.337500X0.475000X-0.337500X0.475000X-0.337500X-0.475000X0.337500X-0.475000X0*%
%TD*%
%TA.AperFunction,SMDPad,CuDef*%
%ADD17RoundRect,0.100000X0.100000X-0.217500X0.100000X0.217500X-0.100000X0.217500X-0.100000X-0.217500X0*%
%TD*%
%TA.AperFunction,SMDPad,CuDef*%
%ADD18RoundRect,0.250000X-0.337500X-0.475000X0.337500X-0.475000X0.337500X0.475000X-0.337500X0.475000X0*%
%TD*%
%TA.AperFunction,SMDPad,CuDef*%
%ADD19R,3.000000X5.000000*%
%TD*%
%TA.AperFunction,SMDPad,CuDef*%
%ADD20R,7.000000X5.000000*%
%TD*%
%TA.AperFunction,SMDPad,CuDef*%
%ADD21RoundRect,0.160000X0.222500X0.160000X-0.222500X0.160000X-0.222500X-0.160000X0.222500X-0.160000X0*%
%TD*%
%TA.AperFunction,SMDPad,CuDef*%
%ADD22RoundRect,0.250000X-0.475000X0.337500X-0.475000X-0.337500X0.475000X-0.337500X0.475000X0.337500X0*%
%TD*%
%TA.AperFunction,SMDPad,CuDef*%
%ADD23RoundRect,0.237500X-0.300000X-0.237500X0.300000X-0.237500X0.300000X0.237500X-0.300000X0.237500X0*%
%TD*%
%TA.AperFunction,SMDPad,CuDef*%
%ADD24RoundRect,0.237500X-0.250000X-0.237500X0.250000X-0.237500X0.250000X0.237500X-0.250000X0.237500X0*%
%TD*%
%TA.AperFunction,SMDPad,CuDef*%
%ADD25R,0.500000X0.400000*%
%TD*%
%TA.AperFunction,SMDPad,CuDef*%
%ADD26RoundRect,0.250000X-0.412500X-0.650000X0.412500X-0.650000X0.412500X0.650000X-0.412500X0.650000X0*%
%TD*%
%TA.AperFunction,SMDPad,CuDef*%
%ADD27RoundRect,0.160000X-0.222500X-0.160000X0.222500X-0.160000X0.222500X0.160000X-0.222500X0.160000X0*%
%TD*%
%TA.AperFunction,SMDPad,CuDef*%
%ADD28RoundRect,0.160000X0.197500X0.160000X-0.197500X0.160000X-0.197500X-0.160000X0.197500X-0.160000X0*%
%TD*%
%TA.AperFunction,SMDPad,CuDef*%
%ADD29RoundRect,0.237500X0.300000X0.237500X-0.300000X0.237500X-0.300000X-0.237500X0.300000X-0.237500X0*%
%TD*%
%TA.AperFunction,ComponentPad*%
%ADD30R,2.100000X2.100000*%
%TD*%
%TA.AperFunction,ComponentPad*%
%ADD31C,2.100000*%
%TD*%
%TA.AperFunction,SMDPad,CuDef*%
%ADD32RoundRect,0.155000X-0.212500X-0.155000X0.212500X-0.155000X0.212500X0.155000X-0.212500X0.155000X0*%
%TD*%
%TA.AperFunction,SMDPad,CuDef*%
%ADD33RoundRect,0.155000X0.212500X0.155000X-0.212500X0.155000X-0.212500X-0.155000X0.212500X-0.155000X0*%
%TD*%
%TA.AperFunction,SMDPad,CuDef*%
%ADD34R,0.800000X0.300000*%
%TD*%
%TA.AperFunction,SMDPad,CuDef*%
%ADD35R,0.300000X0.800000*%
%TD*%
%TA.AperFunction,SMDPad,CuDef*%
%ADD36R,3.750000X3.750000*%
%TD*%
%TA.AperFunction,SMDPad,CuDef*%
%ADD37RoundRect,0.250000X0.475000X-0.337500X0.475000X0.337500X-0.475000X0.337500X-0.475000X-0.337500X0*%
%TD*%
%TA.AperFunction,SMDPad,CuDef*%
%ADD38RoundRect,0.250000X0.350000X0.450000X-0.350000X0.450000X-0.350000X-0.450000X0.350000X-0.450000X0*%
%TD*%
%TA.AperFunction,SMDPad,CuDef*%
%ADD39RoundRect,0.237500X0.237500X-0.300000X0.237500X0.300000X-0.237500X0.300000X-0.237500X-0.300000X0*%
%TD*%
%TA.AperFunction,ViaPad*%
%ADD40C,1.900000*%
%TD*%
%TA.AperFunction,ViaPad*%
%ADD41C,0.800000*%
%TD*%
%TA.AperFunction,ViaPad*%
%ADD42C,0.400000*%
%TD*%
%TA.AperFunction,Conductor*%
%ADD43C,0.250000*%
%TD*%
%TA.AperFunction,Conductor*%
%ADD44C,1.072000*%
%TD*%
G04 APERTURE END LIST*
D10*
%TO.P,R3,1*%
%TO.N,Net-(C21-Pad2)*%
X170810000Y-69367500D03*
%TO.P,R3,2*%
%TO.N,GND*%
X170810000Y-71192500D03*
%TD*%
D11*
%TO.P,U2,1,GND_EXT_1*%
%TO.N,GND*%
X147683000Y-83880000D03*
D12*
%TO.P,U2,2,PRIMARY_DOT*%
%TO.N,/RF_A*%
X147505000Y-83170000D03*
D11*
%TO.P,U2,3,GND_EXT_2*%
%TO.N,GND*%
X147683000Y-82460000D03*
D12*
%TO.P,U2,4,SECONDARY*%
%TO.N,/RF_A+*%
X149335000Y-82460000D03*
D11*
%TO.P,U2,5,GND_EXT_3*%
%TO.N,GND*%
X149157000Y-83170000D03*
D12*
%TO.P,U2,6,SECONDARY_DOT*%
%TO.N,/RF_A-*%
X149335000Y-83880000D03*
D13*
%TO.P,U2,7,GND_EXT_4*%
%TO.N,GND*%
X148420000Y-83170000D03*
%TD*%
D14*
%TO.P,C4,1*%
%TO.N,/3.3V_d*%
X139577500Y-64600000D03*
%TO.P,C4,2*%
%TO.N,GND*%
X139577500Y-66325000D03*
%TD*%
D15*
%TO.P,C26,1*%
%TO.N,Net-(C26-Pad1)*%
X156200000Y-77390000D03*
%TO.P,C26,2*%
%TO.N,/RF_A-*%
X156200000Y-80070000D03*
%TD*%
D16*
%TO.P,C2,1*%
%TO.N,/3.3V_a*%
X140650000Y-72480000D03*
%TO.P,C2,2*%
%TO.N,GND*%
X138575000Y-72480000D03*
%TD*%
D17*
%TO.P,C24,1*%
%TO.N,Net-(C24-Pad1)*%
X162520000Y-69735000D03*
%TO.P,C24,2*%
%TO.N,GND*%
X162520000Y-68720000D03*
%TD*%
D18*
%TO.P,C13,1*%
%TO.N,GND*%
X142272500Y-56540000D03*
%TO.P,C13,2*%
%TO.N,Net-(C13-Pad2)*%
X144347500Y-56540000D03*
%TD*%
D19*
%TO.P,J3,1,In*%
%TO.N,/RF_A*%
X141505000Y-81670000D03*
D20*
%TO.P,J3,2,Ext*%
%TO.N,GND*%
X141505000Y-89670000D03*
%TD*%
D15*
%TO.P,C25,1*%
%TO.N,Net-(C25-Pad1)*%
X151740000Y-77410000D03*
%TO.P,C25,2*%
%TO.N,/RF_A+*%
X151740000Y-80090000D03*
%TD*%
D18*
%TO.P,C11,1*%
%TO.N,/5V*%
X165732500Y-76720000D03*
%TO.P,C11,2*%
%TO.N,GND*%
X167807500Y-76720000D03*
%TD*%
D21*
%TO.P,L1,1,1*%
%TO.N,/3.3V_a*%
X151682500Y-75620000D03*
%TO.P,L1,2,2*%
%TO.N,Net-(C25-Pad1)*%
X150537500Y-75620000D03*
%TD*%
D22*
%TO.P,C3,1*%
%TO.N,/5V*%
X145380000Y-75062500D03*
%TO.P,C3,2*%
%TO.N,GND*%
X145380000Y-77137500D03*
%TD*%
D23*
%TO.P,C14,1*%
%TO.N,GND*%
X142687500Y-58850000D03*
%TO.P,C14,2*%
%TO.N,Net-(C13-Pad2)*%
X144412500Y-58850000D03*
%TD*%
D24*
%TO.P,R1,1*%
%TO.N,Net-(C7-Pad2)*%
X149837500Y-58610000D03*
%TO.P,R1,2*%
%TO.N,Net-(C10-Pad1)*%
X151662500Y-58610000D03*
%TD*%
D22*
%TO.P,C1,1*%
%TO.N,/3.3V_d*%
X137537500Y-64595000D03*
%TO.P,C1,2*%
%TO.N,GND*%
X137537500Y-66670000D03*
%TD*%
D14*
%TO.P,C6,1*%
%TO.N,/5V*%
X143030000Y-75475000D03*
%TO.P,C6,2*%
%TO.N,GND*%
X143030000Y-77200000D03*
%TD*%
D25*
%TO.P,FB1,1*%
%TO.N,/3.3V_a*%
X148440000Y-77170000D03*
%TO.P,FB1,2*%
%TO.N,Net-(FB1-Pad2)*%
X148440000Y-76370000D03*
%TD*%
D26*
%TO.P,C21,1*%
%TO.N,Net-(C17-Pad1)*%
X167647500Y-66960000D03*
%TO.P,C21,2*%
%TO.N,Net-(C21-Pad2)*%
X170772500Y-66960000D03*
%TD*%
D27*
%TO.P,L2,1,1*%
%TO.N,/3.3V_a*%
X155607500Y-75650000D03*
%TO.P,L2,2,2*%
%TO.N,Net-(C26-Pad1)*%
X156752500Y-75650000D03*
%TD*%
D28*
%TO.P,R4,1*%
%TO.N,Net-(C17-Pad1)*%
X166777500Y-68970000D03*
%TO.P,R4,2*%
%TO.N,Net-(C24-Pad1)*%
X165582500Y-68970000D03*
%TD*%
D29*
%TO.P,C5,1*%
%TO.N,/3.3V_a*%
X140745000Y-70520000D03*
%TO.P,C5,2*%
%TO.N,GND*%
X139020000Y-70520000D03*
%TD*%
D14*
%TO.P,C19,1*%
%TO.N,Net-(C15-Pad1)*%
X165590000Y-62997500D03*
%TO.P,C19,2*%
%TO.N,GND*%
X165590000Y-64722500D03*
%TD*%
D22*
%TO.P,C16,1*%
%TO.N,GND*%
X160020000Y-56252500D03*
%TO.P,C16,2*%
%TO.N,Net-(C16-Pad2)*%
X160020000Y-58327500D03*
%TD*%
D14*
%TO.P,C20,1*%
%TO.N,Net-(C20-Pad1)*%
X159100000Y-78037500D03*
%TO.P,C20,2*%
%TO.N,/RF_B*%
X159100000Y-79762500D03*
%TD*%
D30*
%TO.P,J2,1,Pin_1*%
%TO.N,unconnected-(J2-Pad1)*%
X173690000Y-79587500D03*
D31*
%TO.P,J2,2,Pin_2*%
%TO.N,unconnected-(J2-Pad2)*%
X173690000Y-77047500D03*
%TO.P,J2,3,Pin_3*%
%TO.N,unconnected-(J2-Pad3)*%
X173690000Y-74507500D03*
%TO.P,J2,4,Pin_4*%
%TO.N,unconnected-(J2-Pad4)*%
X173690000Y-71967500D03*
%TO.P,J2,5,Pin_5*%
%TO.N,unconnected-(J2-Pad5)*%
X173690000Y-69427500D03*
%TO.P,J2,6,Pin_6*%
%TO.N,unconnected-(J2-Pad6)*%
X173665000Y-66887500D03*
%TO.P,J2,7,Pin_7*%
%TO.N,unconnected-(J2-Pad7)*%
X173665000Y-64347500D03*
%TO.P,J2,8,Pin_8*%
%TO.N,unconnected-(J2-Pad8)*%
X173665000Y-61807500D03*
%TO.P,J2,9,Pin_9*%
%TO.N,unconnected-(J2-Pad9)*%
X173665000Y-59262500D03*
%TD*%
D19*
%TO.P,J4,1,In*%
%TO.N,/RF_B*%
X164365000Y-81670000D03*
D20*
%TO.P,J4,2,Ext*%
%TO.N,GND*%
X164365000Y-89670000D03*
%TD*%
D23*
%TO.P,C12,1*%
%TO.N,/5V*%
X165687500Y-74390000D03*
%TO.P,C12,2*%
%TO.N,GND*%
X167412500Y-74390000D03*
%TD*%
D32*
%TO.P,C7,1*%
%TO.N,/REFIN_A*%
X149082500Y-56690000D03*
%TO.P,C7,2*%
%TO.N,Net-(C7-Pad2)*%
X150217500Y-56690000D03*
%TD*%
D33*
%TO.P,C8,1*%
%TO.N,GND*%
X155777500Y-58400000D03*
%TO.P,C8,2*%
%TO.N,Net-(C10-Pad1)*%
X154642500Y-58400000D03*
%TD*%
D34*
%TO.P,U1,1,CLK*%
%TO.N,/CLK*%
X151270000Y-67410000D03*
%TO.P,U1,2,DATA*%
%TO.N,/DATA*%
X151270000Y-67910000D03*
%TO.P,U1,3,LE*%
%TO.N,/LE*%
X151270000Y-68410000D03*
%TO.P,U1,4,CE*%
%TO.N,/3.3V_d*%
X151270000Y-68910000D03*
%TO.P,U1,5,AVDD*%
%TO.N,/3.3V_a*%
X151270000Y-69410000D03*
%TO.P,U1,6,Vp*%
%TO.N,/5V*%
X151270000Y-69910000D03*
%TO.P,U1,7,CPout*%
%TO.N,Net-(C17-Pad1)*%
X151270000Y-70410000D03*
%TO.P,U1,8,CPGND*%
%TO.N,GND*%
X151270000Y-70910000D03*
D35*
%TO.P,U1,9,AGND*%
X152020000Y-71660000D03*
%TO.P,U1,10,Vrf*%
%TO.N,Net-(FB1-Pad2)*%
X152520000Y-71660000D03*
%TO.P,U1,11,RF_OUT_A+*%
%TO.N,Net-(C25-Pad1)*%
X153020000Y-71660000D03*
%TO.P,U1,12,RF_OUT_A-*%
%TO.N,Net-(C26-Pad1)*%
X153520000Y-71660000D03*
%TO.P,U1,13,AGNDRF*%
%TO.N,GND*%
X154020000Y-71660000D03*
%TO.P,U1,14,RF_OUT_B*%
%TO.N,Net-(C20-Pad1)*%
X154520000Y-71660000D03*
%TO.P,U1,15,AGNDRF*%
%TO.N,GND*%
X155020000Y-71660000D03*
%TO.P,U1,16,AVDD*%
%TO.N,/3.3V_a*%
X155520000Y-71660000D03*
D34*
%TO.P,U1,17,VVCO*%
%TO.N,/5V*%
X156270000Y-70910000D03*
%TO.P,U1,18,AGNDVCO*%
%TO.N,GND*%
X156270000Y-70410000D03*
%TO.P,U1,19,VREGVCO*%
%TO.N,/5V*%
X156270000Y-69910000D03*
%TO.P,U1,20,VTUNE*%
%TO.N,Net-(C24-Pad1)*%
X156270000Y-69410000D03*
%TO.P,U1,21,AGNDVCO*%
%TO.N,GND*%
X156270000Y-68910000D03*
%TO.P,U1,22,RSET*%
%TO.N,Net-(R2-Pad2)*%
X156270000Y-68410000D03*
%TO.P,U1,23,VREF*%
%TO.N,Net-(C15-Pad1)*%
X156270000Y-67910000D03*
%TO.P,U1,24,VBIAS*%
%TO.N,Net-(C22-Pad1)*%
X156270000Y-67410000D03*
D35*
%TO.P,U1,25,CREG1*%
%TO.N,Net-(C16-Pad2)*%
X155520000Y-66660000D03*
%TO.P,U1,26,PDB_RF*%
%TO.N,/3.3V_a*%
X155020000Y-66660000D03*
%TO.P,U1,27,DVDD*%
%TO.N,/3.3V_d*%
X154520000Y-66660000D03*
%TO.P,U1,28,REFIN_B*%
%TO.N,Net-(C10-Pad2)*%
X154020000Y-66660000D03*
%TO.P,U1,29,REFIN_A*%
%TO.N,Net-(C9-Pad2)*%
X153520000Y-66660000D03*
%TO.P,U1,30,MUXOUT*%
%TO.N,/MUXOUT*%
X153020000Y-66660000D03*
%TO.P,U1,31,SDGND*%
%TO.N,GND*%
X152520000Y-66660000D03*
%TO.P,U1,32,CREG2*%
%TO.N,Net-(C13-Pad2)*%
X152020000Y-66660000D03*
D36*
%TO.P,U1,33,EP*%
%TO.N,GND*%
X153770000Y-69160000D03*
%TD*%
D32*
%TO.P,C10,1*%
%TO.N,Net-(C10-Pad1)*%
X153582500Y-59830000D03*
%TO.P,C10,2*%
%TO.N,Net-(C10-Pad2)*%
X154717500Y-59830000D03*
%TD*%
D37*
%TO.P,C22,1*%
%TO.N,Net-(C22-Pad1)*%
X167540000Y-59857500D03*
%TO.P,C22,2*%
%TO.N,GND*%
X167540000Y-57782500D03*
%TD*%
D14*
%TO.P,C18,1*%
%TO.N,GND*%
X162350000Y-56537500D03*
%TO.P,C18,2*%
%TO.N,Net-(C16-Pad2)*%
X162350000Y-58262500D03*
%TD*%
D22*
%TO.P,C17,1*%
%TO.N,Net-(C17-Pad1)*%
X168580000Y-69482500D03*
%TO.P,C17,2*%
%TO.N,GND*%
X168580000Y-71557500D03*
%TD*%
%TO.P,C15,1*%
%TO.N,Net-(C15-Pad1)*%
X167730000Y-62042500D03*
%TO.P,C15,2*%
%TO.N,GND*%
X167730000Y-64117500D03*
%TD*%
D38*
%TO.P,R2,1*%
%TO.N,GND*%
X164780000Y-66870000D03*
%TO.P,R2,2*%
%TO.N,Net-(R2-Pad2)*%
X162780000Y-66870000D03*
%TD*%
D30*
%TO.P,J1,1,Pin_1*%
%TO.N,/3.3V_a*%
X131610000Y-79587500D03*
D31*
%TO.P,J1,2,Pin_2*%
%TO.N,/3.3V_d*%
X131610000Y-77047500D03*
%TO.P,J1,3,Pin_3*%
%TO.N,/5V*%
X131610000Y-74507500D03*
%TO.P,J1,4,Pin_4*%
%TO.N,/MUXOUT*%
X131610000Y-71967500D03*
%TO.P,J1,5,Pin_5*%
%TO.N,/REFIN_A*%
X131610000Y-69427500D03*
%TO.P,J1,6,Pin_6*%
%TO.N,/LE*%
X131585000Y-66887500D03*
%TO.P,J1,7,Pin_7*%
%TO.N,/DATA*%
X131585000Y-64347500D03*
%TO.P,J1,8,Pin_8*%
%TO.N,/CLK*%
X131585000Y-61807500D03*
%TO.P,J1,9,Pin_9*%
%TO.N,GND*%
X131585000Y-59262500D03*
%TD*%
D39*
%TO.P,C23,1*%
%TO.N,Net-(C22-Pad1)*%
X165112500Y-59892500D03*
%TO.P,C23,2*%
%TO.N,GND*%
X165112500Y-58167500D03*
%TD*%
D32*
%TO.P,C9,1*%
%TO.N,Net-(C7-Pad2)*%
X150392500Y-60260000D03*
%TO.P,C9,2*%
%TO.N,Net-(C9-Pad2)*%
X151527500Y-60260000D03*
%TD*%
D40*
%TO.N,/3.3V_d*%
X142470000Y-67950000D03*
X156403000Y-61380000D03*
D41*
%TO.N,GND*%
X158300000Y-56300000D03*
X146170000Y-93340000D03*
X155100000Y-87830000D03*
X171400000Y-74920000D03*
D42*
X153439000Y-68740000D03*
D41*
X165400000Y-72750000D03*
X169380000Y-78460000D03*
X157170000Y-55690000D03*
X136480000Y-88150000D03*
X148350000Y-86550000D03*
X158830000Y-87860000D03*
X142510000Y-72860000D03*
X167440000Y-55890000D03*
X133840000Y-55460000D03*
X155740000Y-55710000D03*
D42*
X154091000Y-69360000D03*
D41*
X151470000Y-89830000D03*
X139410000Y-86220000D03*
X149750000Y-87900000D03*
X169530000Y-58080000D03*
X137950000Y-84050000D03*
X167830000Y-81350000D03*
X153970000Y-79950000D03*
X153110000Y-81370000D03*
X153200000Y-93310000D03*
X144290000Y-83400000D03*
X134370000Y-88230000D03*
D42*
X154091000Y-69990000D03*
X154093500Y-70610000D03*
D41*
X169380000Y-86150000D03*
X169530000Y-64140000D03*
D42*
X152789500Y-68740000D03*
D41*
X171200000Y-84370000D03*
X139360000Y-55420000D03*
X171370000Y-76670000D03*
X150530000Y-85720000D03*
X169480000Y-76640000D03*
X143800000Y-86130000D03*
D42*
X152794500Y-70610000D03*
D41*
X165350000Y-85150000D03*
X132040000Y-55460000D03*
X169600000Y-62170000D03*
X162080000Y-84000000D03*
X154470000Y-56980000D03*
X173570000Y-55850000D03*
X134340000Y-90240000D03*
D42*
X152792000Y-69990000D03*
D41*
X155060000Y-89690000D03*
D42*
X154081000Y-68140000D03*
D41*
X169530000Y-73200000D03*
X155750000Y-57030000D03*
D42*
X154078500Y-67520000D03*
D41*
X171460000Y-60190000D03*
X156890000Y-91520000D03*
X145530000Y-83960000D03*
X173220000Y-90140000D03*
X156400000Y-63630000D03*
X149110000Y-85700000D03*
X131900000Y-56860000D03*
D42*
X154730500Y-68140000D03*
D41*
X151320000Y-86660000D03*
X149810000Y-86660000D03*
X138050000Y-81310000D03*
X153280000Y-85230000D03*
X169570000Y-60160000D03*
X149680000Y-93380000D03*
X130180000Y-56890000D03*
X163460000Y-78290000D03*
X167750000Y-78590000D03*
X140110000Y-85380000D03*
X154220000Y-85840000D03*
X134270000Y-82490000D03*
X166810000Y-82160000D03*
X158790000Y-91520000D03*
X139040000Y-81980000D03*
D42*
X152142500Y-69360000D03*
D41*
X159870000Y-84490000D03*
X143040000Y-85310000D03*
X130500000Y-86250000D03*
X141620000Y-85350000D03*
X169510000Y-74890000D03*
X132390000Y-90260000D03*
X157130000Y-58620000D03*
X162030000Y-86120000D03*
X164690000Y-86100000D03*
X146200000Y-89720000D03*
D42*
X155377500Y-67520000D03*
D41*
X138040000Y-82720000D03*
X147750000Y-85200000D03*
X136380000Y-84370000D03*
X157000000Y-83000000D03*
X144980000Y-85620000D03*
D42*
X153441500Y-69990000D03*
D41*
X171230000Y-80380000D03*
X134340000Y-86260000D03*
D42*
X152130000Y-67520000D03*
D41*
X132390000Y-86280000D03*
X159620000Y-82510000D03*
X153230000Y-91490000D03*
X169570000Y-55890000D03*
D42*
X152142500Y-69990000D03*
D41*
X171270000Y-86180000D03*
X158470000Y-85490000D03*
X147960000Y-89690000D03*
X171460000Y-55920000D03*
X158110000Y-83880000D03*
X149710000Y-91560000D03*
X156810000Y-81610000D03*
X139060000Y-68080000D03*
X161360000Y-85010000D03*
X171160000Y-92170000D03*
X146240000Y-85100000D03*
X136380000Y-82410000D03*
X173150000Y-82390000D03*
X151440000Y-93450000D03*
X173150000Y-84350000D03*
D42*
X155380000Y-68140000D03*
D41*
X153990000Y-77350000D03*
X137840000Y-68440000D03*
X132320000Y-84470000D03*
X164020000Y-85150000D03*
X169310000Y-82380000D03*
X144220000Y-84690000D03*
X155930000Y-82450000D03*
X134230000Y-92250000D03*
X134270000Y-84450000D03*
X154200000Y-84240000D03*
X158790000Y-89720000D03*
X158760000Y-93340000D03*
D42*
X154728000Y-67520000D03*
D41*
X171270000Y-78490000D03*
X147960000Y-91490000D03*
D42*
X152140000Y-68740000D03*
D41*
X130500000Y-90230000D03*
X155050000Y-83390000D03*
D42*
X153441500Y-69360000D03*
D41*
X160930000Y-82380000D03*
X171490000Y-62200000D03*
X139080000Y-84690000D03*
X137570000Y-55420000D03*
X162030000Y-82640000D03*
X138000000Y-79950000D03*
X139060000Y-83310000D03*
X130250000Y-55460000D03*
X157180000Y-57010000D03*
X153970000Y-78690000D03*
X152010000Y-85660000D03*
D42*
X153429000Y-67520000D03*
D41*
X130430000Y-82480000D03*
X162170000Y-78310000D03*
D42*
X153431500Y-68140000D03*
D41*
X146240000Y-87860000D03*
X159980000Y-86420000D03*
X169410000Y-88120000D03*
X167790000Y-84080000D03*
D42*
X154088500Y-68740000D03*
D41*
X152930000Y-86470000D03*
X160990000Y-83650000D03*
X149710000Y-89760000D03*
X173110000Y-92150000D03*
X135630000Y-55460000D03*
D42*
X154740500Y-69990000D03*
D41*
X140450000Y-68340000D03*
D42*
X155387500Y-68740000D03*
D41*
X163420000Y-86150000D03*
D42*
X155390000Y-69990000D03*
D41*
X158420000Y-60730000D03*
X155210000Y-84890000D03*
X138210000Y-85320000D03*
X154460000Y-55660000D03*
X166790000Y-80790000D03*
X156890000Y-89720000D03*
X153060000Y-55730000D03*
X171420000Y-64170000D03*
X167900000Y-82600000D03*
X169380000Y-90130000D03*
X132280000Y-92270000D03*
X171270000Y-90160000D03*
X155060000Y-91490000D03*
X167810000Y-80040000D03*
D42*
X155390000Y-69360000D03*
D41*
X161990000Y-81350000D03*
D42*
X153444000Y-70610000D03*
D41*
X169310000Y-84340000D03*
X166660000Y-84770000D03*
D42*
X152779500Y-67520000D03*
X152782000Y-68140000D03*
D41*
X136450000Y-90160000D03*
X171420000Y-58110000D03*
D42*
X154738000Y-68740000D03*
D41*
X162680000Y-85140000D03*
X145600000Y-78740000D03*
X136340000Y-92170000D03*
X153070000Y-57050000D03*
X169340000Y-80350000D03*
X151510000Y-87970000D03*
X156030000Y-83930000D03*
X139060000Y-80600000D03*
X167490000Y-85500000D03*
D42*
X154743000Y-70610000D03*
D41*
X153230000Y-89690000D03*
X173250000Y-88130000D03*
D42*
X154740500Y-69360000D03*
D41*
X160700000Y-81290000D03*
X166840000Y-83450000D03*
X130430000Y-84440000D03*
X156930000Y-87860000D03*
X147020000Y-86210000D03*
X147930000Y-93310000D03*
X164880000Y-78270000D03*
X158340000Y-59290000D03*
X140830000Y-86230000D03*
X158160000Y-81500000D03*
X130530000Y-88220000D03*
D42*
X152145000Y-70610000D03*
D41*
X142240000Y-86250000D03*
D42*
X152132500Y-68140000D03*
D41*
X132420000Y-88250000D03*
X158270000Y-57760000D03*
X169270000Y-92140000D03*
X139060000Y-79310000D03*
X132320000Y-82510000D03*
X156930000Y-86240000D03*
D42*
X155392500Y-70610000D03*
D41*
X153270000Y-87830000D03*
X130390000Y-92240000D03*
X156860000Y-93340000D03*
X146200000Y-91520000D03*
X151470000Y-91630000D03*
X173220000Y-86160000D03*
X155030000Y-93310000D03*
X159450000Y-81310000D03*
X166860000Y-79470000D03*
X171200000Y-82410000D03*
X171420000Y-73230000D03*
D42*
X152792000Y-69360000D03*
D41*
X136450000Y-86180000D03*
X158180000Y-82510000D03*
X138090000Y-74690000D03*
X166090000Y-85990000D03*
X166280000Y-78330000D03*
X165550000Y-55860000D03*
X171300000Y-88150000D03*
X147100000Y-76840000D03*
X148000000Y-87830000D03*
X144310000Y-78740000D03*
D40*
%TO.N,/3.3V_a*%
X160428171Y-60268171D03*
X134110000Y-79570000D03*
X138570000Y-77220000D03*
X147670000Y-79900000D03*
X161170000Y-76610000D03*
X153720000Y-75010000D03*
%TO.N,/5V*%
X134170000Y-74510000D03*
X162764500Y-74470000D03*
X144390000Y-71230000D03*
%TO.N,/REFIN_A*%
X146550000Y-57240000D03*
X134230000Y-69430000D03*
%TO.N,Net-(C17-Pad1)*%
X162647679Y-72062739D03*
X147380000Y-73530000D03*
%TO.N,/MUXOUT*%
X134110000Y-71950000D03*
X147760000Y-59210000D03*
%TD*%
D43*
%TO.N,/3.3V_d*%
X148466000Y-68910000D02*
X148250000Y-69126000D01*
D44*
X141822500Y-67302500D02*
X142678000Y-68158000D01*
D43*
X151270000Y-68910000D02*
X148466000Y-68910000D01*
D44*
X147282000Y-68158000D02*
X148250000Y-69126000D01*
X134016865Y-77047500D02*
X136076500Y-74987865D01*
D43*
X155400000Y-64414034D02*
X155400000Y-62909500D01*
X155400000Y-62909500D02*
X155989500Y-62320000D01*
D44*
X139577500Y-64600000D02*
X137542500Y-64600000D01*
X136076500Y-65924085D02*
X137405585Y-64595000D01*
X156403000Y-61380000D02*
X156320000Y-61380000D01*
D43*
X154520000Y-65294034D02*
X155400000Y-64414034D01*
D44*
X142678000Y-68158000D02*
X147282000Y-68158000D01*
D43*
X154520000Y-66660000D02*
X154520000Y-65294034D01*
D44*
X156320000Y-61380000D02*
X155989500Y-61710500D01*
X136076500Y-74987865D02*
X136076500Y-65924085D01*
X139826737Y-64660000D02*
X141822500Y-66655763D01*
X131610000Y-77047500D02*
X134016865Y-77047500D01*
X141822500Y-66655763D02*
X141822500Y-67302500D01*
X155989500Y-61710500D02*
X155989500Y-62320000D01*
X141822500Y-67302500D02*
X142470000Y-67950000D01*
X137405585Y-64595000D02*
X137537500Y-64595000D01*
D43*
%TO.N,GND*%
X162520000Y-68720000D02*
X163310000Y-67930000D01*
D44*
X167125000Y-64722500D02*
X167730000Y-64117500D01*
X139020000Y-70520000D02*
X139020000Y-72035000D01*
X139020000Y-72035000D02*
X138575000Y-72480000D01*
D43*
X152520000Y-67878000D02*
X152782000Y-68140000D01*
X152020000Y-70910000D02*
X153770000Y-69160000D01*
X151270000Y-70910000D02*
X152020000Y-70910000D01*
X152520000Y-66660000D02*
X152520000Y-67878000D01*
D44*
X142272500Y-58435000D02*
X142687500Y-58850000D01*
X165590000Y-64722500D02*
X167125000Y-64722500D01*
D43*
X154020000Y-70770000D02*
X154178000Y-70612000D01*
X155020000Y-70410000D02*
X153770000Y-69160000D01*
X154020000Y-70683500D02*
X154093500Y-70610000D01*
X155777500Y-57057500D02*
X155750000Y-57030000D01*
X156270000Y-70410000D02*
X155020000Y-70410000D01*
X155020000Y-71660000D02*
X155020000Y-70410000D01*
X163310000Y-67930000D02*
X163870000Y-67930000D01*
X164780000Y-67020000D02*
X164780000Y-66870000D01*
D44*
X142272500Y-56540000D02*
X142272500Y-58435000D01*
D43*
X163870000Y-67930000D02*
X164780000Y-67020000D01*
X154020000Y-68910000D02*
X153770000Y-69160000D01*
X156270000Y-68910000D02*
X154020000Y-68910000D01*
X152020000Y-71660000D02*
X152020000Y-70910000D01*
X154020000Y-71660000D02*
X154020000Y-70683500D01*
X155372000Y-68910000D02*
X155194000Y-69088000D01*
D44*
%TO.N,/3.3V_a*%
X134092500Y-79587500D02*
X134110000Y-79570000D01*
D43*
X155570440Y-71609560D02*
X157443560Y-71609560D01*
D44*
X153720000Y-75300000D02*
X154070000Y-75650000D01*
D43*
X151270000Y-69410000D02*
X149620000Y-69410000D01*
D44*
X161170000Y-76610000D02*
X160800880Y-76610000D01*
X158000000Y-63120000D02*
X158161120Y-63120000D01*
X158161120Y-63120000D02*
X160428171Y-60852949D01*
X159296500Y-75105620D02*
X159296500Y-73462500D01*
X160800880Y-76610000D02*
X159296500Y-75105620D01*
X153720000Y-75010000D02*
X152730000Y-76000000D01*
X146755120Y-69430000D02*
X147723120Y-70398000D01*
X147723120Y-70398000D02*
X148360000Y-70398000D01*
X143805635Y-69430000D02*
X146755120Y-69430000D01*
X154070000Y-75650000D02*
X155480500Y-75650000D01*
X140650000Y-72480000D02*
X140650000Y-70615000D01*
D43*
X155927362Y-65935000D02*
X155045000Y-65935000D01*
D44*
X147950000Y-78190000D02*
X148420000Y-77720000D01*
X153720000Y-75010000D02*
X153720000Y-75300000D01*
D43*
X149620000Y-69410000D02*
X148632000Y-70398000D01*
D44*
X147950000Y-79620000D02*
X147950000Y-78190000D01*
X147670000Y-79900000D02*
X147950000Y-79620000D01*
X140650000Y-75140000D02*
X140650000Y-72480000D01*
X152730000Y-76000000D02*
X152190000Y-76000000D01*
D43*
X155020000Y-65960000D02*
X155020000Y-66660000D01*
X155045000Y-65935000D02*
X155020000Y-65960000D01*
D44*
X131610000Y-79587500D02*
X134092500Y-79587500D01*
X152190000Y-76000000D02*
X152050000Y-75860000D01*
D43*
X158000000Y-63120000D02*
X158000000Y-63862362D01*
X157443560Y-71609560D02*
X158100000Y-72266000D01*
X158000000Y-63862362D02*
X155927362Y-65935000D01*
D44*
X142715635Y-70520000D02*
X143805635Y-69430000D01*
X140745000Y-70520000D02*
X142715635Y-70520000D01*
D43*
X148632000Y-70398000D02*
X148360000Y-70398000D01*
D44*
X138570000Y-77220000D02*
X140650000Y-75140000D01*
X159296500Y-73462500D02*
X158100000Y-72266000D01*
D43*
X155520000Y-71660000D02*
X155570440Y-71609560D01*
D44*
X160428171Y-60852949D02*
X160428171Y-60268171D01*
%TO.N,/5V*%
X144390000Y-71230000D02*
X144440000Y-71280000D01*
X157406000Y-70590000D02*
X158222880Y-70590000D01*
X162102880Y-74470000D02*
X162764500Y-74470000D01*
D43*
X157086000Y-70910000D02*
X157406000Y-70590000D01*
D44*
X165732500Y-76720000D02*
X165732500Y-74435000D01*
X134167500Y-74507500D02*
X134170000Y-74510000D01*
D43*
X148425638Y-71550000D02*
X150065638Y-69910000D01*
D44*
X144390000Y-71230000D02*
X144830000Y-71670000D01*
X143442500Y-75062500D02*
X143030000Y-75475000D01*
D43*
X156270000Y-70910000D02*
X157086000Y-70910000D01*
D44*
X145380000Y-75062500D02*
X143442500Y-75062500D01*
D43*
X157150000Y-70650000D02*
X157150000Y-70090000D01*
X157150000Y-70090000D02*
X156970000Y-69910000D01*
X150065638Y-69910000D02*
X151270000Y-69910000D01*
D44*
X144440000Y-74740000D02*
X144540000Y-74840000D01*
X158222880Y-70590000D02*
X162102880Y-74470000D01*
X165687500Y-74390000D02*
X162844500Y-74390000D01*
X162844500Y-74390000D02*
X162764500Y-74470000D01*
D43*
X146730000Y-71550000D02*
X148425638Y-71550000D01*
X156970000Y-69910000D02*
X156270000Y-69910000D01*
D44*
X144440000Y-71280000D02*
X144440000Y-74740000D01*
X131610000Y-74507500D02*
X134167500Y-74507500D01*
X144830000Y-71670000D02*
X146660000Y-71670000D01*
X165732500Y-74435000D02*
X165687500Y-74390000D01*
%TO.N,/REFIN_A*%
X134227500Y-69427500D02*
X134230000Y-69430000D01*
X148945500Y-56827000D02*
X148945500Y-56690000D01*
X131610000Y-69427500D02*
X134227500Y-69427500D01*
X148532500Y-57240000D02*
X148945500Y-56827000D01*
X146550000Y-57240000D02*
X148532500Y-57240000D01*
%TO.N,Net-(C7-Pad2)*%
X150255500Y-59028000D02*
X150255500Y-60260000D01*
X149837500Y-58610000D02*
X150255500Y-59028000D01*
X150217500Y-58230000D02*
X149837500Y-58610000D01*
X150217500Y-56690000D02*
X150217500Y-58230000D01*
%TO.N,Net-(C10-Pad1)*%
X153445500Y-59693000D02*
X153445500Y-59830000D01*
X151662500Y-58610000D02*
X152362500Y-58610000D01*
X152831250Y-59078750D02*
X153445500Y-59693000D01*
X152362500Y-58610000D02*
X152831250Y-59078750D01*
X153510000Y-58400000D02*
X152831250Y-59078750D01*
X154642500Y-58400000D02*
X153510000Y-58400000D01*
%TO.N,Net-(C9-Pad2)*%
X153742000Y-63002000D02*
X153742000Y-64218000D01*
X151527500Y-60787500D02*
X153742000Y-63002000D01*
D43*
X153530000Y-64430000D02*
X153520000Y-64440000D01*
D44*
X151527500Y-60260000D02*
X151527500Y-60787500D01*
D43*
X153520000Y-64440000D02*
X153520000Y-66660000D01*
%TO.N,Net-(C10-Pad2)*%
X154020000Y-65157638D02*
X154020000Y-66660000D01*
X154603000Y-64574638D02*
X154020000Y-65157638D01*
X154603000Y-62193000D02*
X154603000Y-64574638D01*
D44*
X154717500Y-59830000D02*
X154717500Y-62178620D01*
%TO.N,Net-(C13-Pad2)*%
X144412500Y-61455860D02*
X144412500Y-58850000D01*
D43*
X151791000Y-64771000D02*
X151791000Y-66431000D01*
X151791000Y-66431000D02*
X152020000Y-66660000D01*
D44*
X151130000Y-64140000D02*
X150060000Y-63070000D01*
X144412500Y-56605000D02*
X144412500Y-58850000D01*
X146026640Y-63070000D02*
X144412500Y-61455860D01*
X150060000Y-63070000D02*
X146026640Y-63070000D01*
D43*
X151250000Y-64230000D02*
X151791000Y-64771000D01*
D44*
X144347500Y-56540000D02*
X144412500Y-56605000D01*
D43*
%TO.N,Net-(C15-Pad1)*%
X158830000Y-67910000D02*
X160880000Y-65860000D01*
D44*
X160058880Y-66618880D02*
X163680260Y-62997500D01*
X165590000Y-62300000D02*
X165847500Y-62042500D01*
D43*
X156270000Y-67910000D02*
X158830000Y-67910000D01*
D44*
X165590000Y-62997500D02*
X165590000Y-62300000D01*
X165847500Y-62042500D02*
X167730000Y-62042500D01*
X163680260Y-62997500D02*
X165590000Y-62997500D01*
D43*
%TO.N,Net-(C16-Pad2)*%
X156490000Y-66660000D02*
X156910000Y-66240000D01*
X155520000Y-66660000D02*
X156490000Y-66660000D01*
D44*
X162350000Y-58262500D02*
X160085000Y-58262500D01*
X162350000Y-58262500D02*
X162350000Y-60730000D01*
X162350000Y-60730000D02*
X156819000Y-66261000D01*
%TO.N,Net-(C17-Pad1)*%
X163721918Y-70988500D02*
X165784000Y-70988500D01*
X167647500Y-68100000D02*
X166777500Y-68970000D01*
D43*
X151270000Y-70410000D02*
X150720000Y-70410000D01*
X149690000Y-71440000D02*
X149690000Y-71550000D01*
D44*
X168580000Y-69482500D02*
X167290000Y-69482500D01*
D43*
X149680000Y-71480000D02*
X149680000Y-71657638D01*
D44*
X149680000Y-71657638D02*
X147807638Y-73530000D01*
X165784000Y-70988500D02*
X167290000Y-69482500D01*
X162647679Y-72062739D02*
X163721918Y-70988500D01*
X167290000Y-69482500D02*
X166777500Y-68970000D01*
X167647500Y-66960000D02*
X167647500Y-68100000D01*
D43*
X150720000Y-70410000D02*
X149690000Y-71440000D01*
%TO.N,Net-(C20-Pad1)*%
X154545000Y-72235000D02*
X154780560Y-72470560D01*
D44*
X159100000Y-76708000D02*
X158526000Y-76134000D01*
D43*
X154520000Y-71660000D02*
X154545000Y-71685000D01*
D44*
X159100000Y-78037500D02*
X159100000Y-76708000D01*
D43*
X154545000Y-71685000D02*
X154545000Y-72235000D01*
D44*
X158526000Y-76134000D02*
X158024500Y-76134000D01*
X158024500Y-76134000D02*
X158024500Y-73995620D01*
X158024500Y-73995620D02*
X156499440Y-72470560D01*
D43*
X154780560Y-72470560D02*
X156499440Y-72470560D01*
D44*
%TO.N,/RF_B*%
X164075000Y-79762500D02*
X159100000Y-79762500D01*
X164365000Y-80052500D02*
X164075000Y-79762500D01*
X164365000Y-81670000D02*
X164365000Y-80052500D01*
%TO.N,Net-(C21-Pad2)*%
X170772500Y-69330000D02*
X170810000Y-69367500D01*
X170772500Y-66960000D02*
X170772500Y-69330000D01*
D43*
%TO.N,Net-(C22-Pad1)*%
X157010000Y-67410000D02*
X158070000Y-66350000D01*
D44*
X165147500Y-59857500D02*
X165112500Y-59892500D01*
X164986380Y-59892500D02*
X165112500Y-59892500D01*
X158464440Y-66414440D02*
X164986380Y-59892500D01*
D43*
X156270000Y-67410000D02*
X157010000Y-67410000D01*
X158070000Y-66350000D02*
X158400000Y-66350000D01*
D44*
X167540000Y-59857500D02*
X165147500Y-59857500D01*
D43*
%TO.N,Net-(C24-Pad1)*%
X158670000Y-69110000D02*
X157270000Y-69110000D01*
X156970000Y-69410000D02*
X156270000Y-69410000D01*
X165542500Y-68930000D02*
X165582500Y-68970000D01*
X157270000Y-69110000D02*
X156970000Y-69410000D01*
X161940000Y-69850000D02*
X162190000Y-69600000D01*
D44*
X161570000Y-69480000D02*
X161940000Y-69850000D01*
D43*
X162385000Y-69600000D02*
X162520000Y-69735000D01*
X162432500Y-69590000D02*
X162542500Y-69700000D01*
D44*
X159040000Y-69480000D02*
X161570000Y-69480000D01*
X163790000Y-69400000D02*
X163940000Y-69400000D01*
D43*
X164410000Y-68930000D02*
X165542500Y-68930000D01*
X162190000Y-69600000D02*
X162385000Y-69600000D01*
X163340000Y-69850000D02*
X163790000Y-69400000D01*
X161940000Y-69850000D02*
X163340000Y-69850000D01*
X159040000Y-69480000D02*
X158670000Y-69110000D01*
D44*
X163940000Y-69400000D02*
X164410000Y-68930000D01*
D43*
%TO.N,Net-(C25-Pad1)*%
X153000000Y-71660000D02*
X152995000Y-71665000D01*
X153020000Y-71660000D02*
X153000000Y-71660000D01*
D44*
X152406865Y-73246000D02*
X152854000Y-73246000D01*
X152854000Y-73246000D02*
X152930000Y-73170000D01*
X150537500Y-75620000D02*
X150537500Y-76207500D01*
D43*
X152995000Y-71665000D02*
X152995000Y-73105000D01*
D44*
X150537500Y-76207500D02*
X151740000Y-77410000D01*
X150537500Y-75115365D02*
X152406865Y-73246000D01*
X150537500Y-75620000D02*
X150537500Y-75115365D01*
D43*
X152995000Y-73105000D02*
X152930000Y-73170000D01*
D44*
%TO.N,/RF_A+*%
X151740000Y-80090000D02*
X151740000Y-81682000D01*
X151740000Y-81682000D02*
X151182000Y-82240000D01*
X151182000Y-82240000D02*
X149361000Y-82240000D01*
D43*
%TO.N,Net-(C26-Pad1)*%
X153520000Y-71660000D02*
X153520000Y-72350000D01*
D44*
X155039380Y-73410000D02*
X154290000Y-73410000D01*
D43*
X153520000Y-72350000D02*
X154290000Y-73120000D01*
D44*
X156200000Y-77390000D02*
X156752500Y-76837500D01*
X156752500Y-75123120D02*
X155039380Y-73410000D01*
X156752500Y-76837500D02*
X156752500Y-75650000D01*
X156752500Y-75650000D02*
X156752500Y-75123120D01*
%TO.N,/RF_A-*%
X152180000Y-84090000D02*
X149670000Y-84090000D01*
X156200000Y-80070000D02*
X152180000Y-84090000D01*
D43*
%TO.N,Net-(FB1-Pad2)*%
X151165000Y-72385000D02*
X151100000Y-72450000D01*
X152520000Y-71660000D02*
X152520000Y-72360000D01*
X151100000Y-72450000D02*
X151100000Y-72640000D01*
D44*
X148550000Y-74744364D02*
X150624364Y-72670000D01*
D43*
X152495000Y-72385000D02*
X151165000Y-72385000D01*
D44*
X148550000Y-74760000D02*
X148550000Y-74744364D01*
X150624364Y-72670000D02*
X151000000Y-72670000D01*
D43*
X152520000Y-72360000D02*
X152495000Y-72385000D01*
D44*
X148534000Y-75850000D02*
X148534000Y-74974000D01*
%TO.N,/MUXOUT*%
X147760000Y-59210000D02*
X147760000Y-61798000D01*
X131610000Y-71967500D02*
X134092500Y-71967500D01*
X134092500Y-71967500D02*
X134110000Y-71950000D01*
D43*
X153020000Y-65960000D02*
X152408880Y-65348880D01*
D44*
X147760000Y-61798000D02*
X150636880Y-61798000D01*
D43*
X153020000Y-66660000D02*
X153020000Y-65960000D01*
D44*
X150636880Y-61798000D02*
X152408880Y-63570000D01*
D43*
X152408880Y-65348880D02*
X152408880Y-63570000D01*
D44*
%TO.N,/LE*%
X138066000Y-60506000D02*
X144446000Y-66886000D01*
X136144000Y-59654000D02*
X138066000Y-59654000D01*
X148776880Y-67854000D02*
X149684000Y-67854000D01*
X144446000Y-66886000D02*
X147808880Y-66886000D01*
D43*
X150240000Y-68410000D02*
X149684000Y-67854000D01*
D44*
X131585000Y-66887500D02*
X136144000Y-62328500D01*
X147808880Y-66886000D02*
X148776880Y-67854000D01*
X136144000Y-62328500D02*
X136144000Y-59654000D01*
X138066000Y-59654000D02*
X138066000Y-60506000D01*
D43*
X151270000Y-68410000D02*
X150240000Y-68410000D01*
D44*
%TO.N,/DATA*%
X148860000Y-65614000D02*
X149828000Y-66582000D01*
X144972880Y-65614000D02*
X148860000Y-65614000D01*
D43*
X151270000Y-67910000D02*
X150570000Y-67910000D01*
X150545000Y-67885000D02*
X150545000Y-67145000D01*
D44*
X134872000Y-58382000D02*
X139338000Y-58382000D01*
D43*
X150545000Y-67145000D02*
X150170000Y-66770000D01*
D44*
X139338000Y-59979120D02*
X144972880Y-65614000D01*
D43*
X150570000Y-67910000D02*
X150545000Y-67885000D01*
X150170000Y-66770000D02*
X150100000Y-66770000D01*
D44*
X134872000Y-61060500D02*
X134872000Y-58382000D01*
X139338000Y-58382000D02*
X139338000Y-59979120D01*
X131585000Y-64347500D02*
X134872000Y-61060500D01*
D43*
%TO.N,/CLK*%
X151270000Y-66390000D02*
X151270000Y-67410000D01*
D44*
X133600000Y-59792500D02*
X133600000Y-57110000D01*
X140610000Y-59452240D02*
X145499760Y-64342000D01*
D43*
X150950000Y-66070000D02*
X151270000Y-66390000D01*
D44*
X140610000Y-57110000D02*
X140610000Y-59452240D01*
X149452000Y-64342000D02*
X150930000Y-65820000D01*
X133600000Y-57110000D02*
X140610000Y-57110000D01*
X145499760Y-64342000D02*
X149452000Y-64342000D01*
X131585000Y-61807500D02*
X133600000Y-59792500D01*
%TO.N,Net-(R2-Pad2)*%
X160250000Y-68110000D02*
X160366640Y-68110000D01*
D43*
X159950000Y-68410000D02*
X156270000Y-68410000D01*
X160250000Y-68110000D02*
X159950000Y-68410000D01*
D44*
X160366640Y-68110000D02*
X161606640Y-66870000D01*
X161606640Y-66870000D02*
X162780000Y-66870000D01*
D43*
%TO.N,/RF_A*%
X146530000Y-83170000D02*
X146380000Y-83020000D01*
D44*
X145030000Y-81670000D02*
X146380000Y-83020000D01*
D43*
X147505000Y-83170000D02*
X146530000Y-83170000D01*
D44*
X141505000Y-81670000D02*
X145030000Y-81670000D01*
%TD*%
%TA.AperFunction,Conductor*%
%TO.N,GND*%
G36*
X175733621Y-54578502D02*
G01*
X175780114Y-54632158D01*
X175791500Y-54684500D01*
X175791500Y-93835500D01*
X175771498Y-93903621D01*
X175717842Y-93950114D01*
X175665500Y-93961500D01*
X129154500Y-93961500D01*
X129086379Y-93941498D01*
X129039886Y-93887842D01*
X129028500Y-93835500D01*
X129028500Y-92214669D01*
X137497001Y-92214669D01*
X137497371Y-92221490D01*
X137502895Y-92272352D01*
X137506521Y-92287604D01*
X137551676Y-92408054D01*
X137560214Y-92423649D01*
X137636715Y-92525724D01*
X137649276Y-92538285D01*
X137751351Y-92614786D01*
X137766946Y-92623324D01*
X137887394Y-92668478D01*
X137902649Y-92672105D01*
X137953514Y-92677631D01*
X137960328Y-92678000D01*
X141232885Y-92678000D01*
X141248124Y-92673525D01*
X141249329Y-92672135D01*
X141251000Y-92664452D01*
X141251000Y-92659884D01*
X141759000Y-92659884D01*
X141763475Y-92675123D01*
X141764865Y-92676328D01*
X141772548Y-92677999D01*
X145049669Y-92677999D01*
X145056490Y-92677629D01*
X145107352Y-92672105D01*
X145122604Y-92668479D01*
X145243054Y-92623324D01*
X145258649Y-92614786D01*
X145360724Y-92538285D01*
X145373285Y-92525724D01*
X145449786Y-92423649D01*
X145458324Y-92408054D01*
X145503478Y-92287606D01*
X145507105Y-92272351D01*
X145512631Y-92221486D01*
X145513000Y-92214672D01*
X145513000Y-92214669D01*
X160357001Y-92214669D01*
X160357371Y-92221490D01*
X160362895Y-92272352D01*
X160366521Y-92287604D01*
X160411676Y-92408054D01*
X160420214Y-92423649D01*
X160496715Y-92525724D01*
X160509276Y-92538285D01*
X160611351Y-92614786D01*
X160626946Y-92623324D01*
X160747394Y-92668478D01*
X160762649Y-92672105D01*
X160813514Y-92677631D01*
X160820328Y-92678000D01*
X164092885Y-92678000D01*
X164108124Y-92673525D01*
X164109329Y-92672135D01*
X164111000Y-92664452D01*
X164111000Y-92659884D01*
X164619000Y-92659884D01*
X164623475Y-92675123D01*
X164624865Y-92676328D01*
X164632548Y-92677999D01*
X167909669Y-92677999D01*
X167916490Y-92677629D01*
X167967352Y-92672105D01*
X167982604Y-92668479D01*
X168103054Y-92623324D01*
X168118649Y-92614786D01*
X168220724Y-92538285D01*
X168233285Y-92525724D01*
X168309786Y-92423649D01*
X168318324Y-92408054D01*
X168363478Y-92287606D01*
X168367105Y-92272351D01*
X168372631Y-92221486D01*
X168373000Y-92214672D01*
X168373000Y-89942115D01*
X168368525Y-89926876D01*
X168367135Y-89925671D01*
X168359452Y-89924000D01*
X164637115Y-89924000D01*
X164621876Y-89928475D01*
X164620671Y-89929865D01*
X164619000Y-89937548D01*
X164619000Y-92659884D01*
X164111000Y-92659884D01*
X164111000Y-89942115D01*
X164106525Y-89926876D01*
X164105135Y-89925671D01*
X164097452Y-89924000D01*
X160375116Y-89924000D01*
X160359877Y-89928475D01*
X160358672Y-89929865D01*
X160357001Y-89937548D01*
X160357001Y-92214669D01*
X145513000Y-92214669D01*
X145513000Y-89942115D01*
X145508525Y-89926876D01*
X145507135Y-89925671D01*
X145499452Y-89924000D01*
X141777115Y-89924000D01*
X141761876Y-89928475D01*
X141760671Y-89929865D01*
X141759000Y-89937548D01*
X141759000Y-92659884D01*
X141251000Y-92659884D01*
X141251000Y-89942115D01*
X141246525Y-89926876D01*
X141245135Y-89925671D01*
X141237452Y-89924000D01*
X137515116Y-89924000D01*
X137499877Y-89928475D01*
X137498672Y-89929865D01*
X137497001Y-89937548D01*
X137497001Y-92214669D01*
X129028500Y-92214669D01*
X129028500Y-89397885D01*
X137497000Y-89397885D01*
X137501475Y-89413124D01*
X137502865Y-89414329D01*
X137510548Y-89416000D01*
X141232885Y-89416000D01*
X141248124Y-89411525D01*
X141249329Y-89410135D01*
X141251000Y-89402452D01*
X141251000Y-89397885D01*
X141759000Y-89397885D01*
X141763475Y-89413124D01*
X141764865Y-89414329D01*
X141772548Y-89416000D01*
X145494884Y-89416000D01*
X145510123Y-89411525D01*
X145511328Y-89410135D01*
X145512999Y-89402452D01*
X145512999Y-89397885D01*
X160357000Y-89397885D01*
X160361475Y-89413124D01*
X160362865Y-89414329D01*
X160370548Y-89416000D01*
X164092885Y-89416000D01*
X164108124Y-89411525D01*
X164109329Y-89410135D01*
X164111000Y-89402452D01*
X164111000Y-89397885D01*
X164619000Y-89397885D01*
X164623475Y-89413124D01*
X164624865Y-89414329D01*
X164632548Y-89416000D01*
X168354884Y-89416000D01*
X168370123Y-89411525D01*
X168371328Y-89410135D01*
X168372999Y-89402452D01*
X168372999Y-87125331D01*
X168372629Y-87118510D01*
X168367105Y-87067648D01*
X168363479Y-87052396D01*
X168318324Y-86931946D01*
X168309786Y-86916351D01*
X168233285Y-86814276D01*
X168220724Y-86801715D01*
X168118649Y-86725214D01*
X168103054Y-86716676D01*
X167982606Y-86671522D01*
X167967351Y-86667895D01*
X167916486Y-86662369D01*
X167909672Y-86662000D01*
X164637115Y-86662000D01*
X164621876Y-86666475D01*
X164620671Y-86667865D01*
X164619000Y-86675548D01*
X164619000Y-89397885D01*
X164111000Y-89397885D01*
X164111000Y-86680116D01*
X164106525Y-86664877D01*
X164105135Y-86663672D01*
X164097452Y-86662001D01*
X160820331Y-86662001D01*
X160813510Y-86662371D01*
X160762648Y-86667895D01*
X160747396Y-86671521D01*
X160626946Y-86716676D01*
X160611351Y-86725214D01*
X160509276Y-86801715D01*
X160496715Y-86814276D01*
X160420214Y-86916351D01*
X160411676Y-86931946D01*
X160366522Y-87052394D01*
X160362895Y-87067649D01*
X160357369Y-87118514D01*
X160357000Y-87125328D01*
X160357000Y-89397885D01*
X145512999Y-89397885D01*
X145512999Y-87125331D01*
X145512629Y-87118510D01*
X145507105Y-87067648D01*
X145503479Y-87052396D01*
X145458324Y-86931946D01*
X145449786Y-86916351D01*
X145373285Y-86814276D01*
X145360724Y-86801715D01*
X145258649Y-86725214D01*
X145243054Y-86716676D01*
X145122606Y-86671522D01*
X145107351Y-86667895D01*
X145056486Y-86662369D01*
X145049672Y-86662000D01*
X141777115Y-86662000D01*
X141761876Y-86666475D01*
X141760671Y-86667865D01*
X141759000Y-86675548D01*
X141759000Y-89397885D01*
X141251000Y-89397885D01*
X141251000Y-86680116D01*
X141246525Y-86664877D01*
X141245135Y-86663672D01*
X141237452Y-86662001D01*
X137960331Y-86662001D01*
X137953510Y-86662371D01*
X137902648Y-86667895D01*
X137887396Y-86671521D01*
X137766946Y-86716676D01*
X137751351Y-86725214D01*
X137649276Y-86801715D01*
X137636715Y-86814276D01*
X137560214Y-86916351D01*
X137551676Y-86931946D01*
X137506522Y-87052394D01*
X137502895Y-87067649D01*
X137497369Y-87118514D01*
X137497000Y-87125328D01*
X137497000Y-89397885D01*
X129028500Y-89397885D01*
X129028500Y-66887500D01*
X130021681Y-66887500D01*
X130040928Y-67132057D01*
X130042082Y-67136864D01*
X130042083Y-67136870D01*
X130063118Y-67224485D01*
X130098195Y-67370592D01*
X130192073Y-67597232D01*
X130259883Y-67707888D01*
X130315208Y-67798171D01*
X130320248Y-67806396D01*
X130323463Y-67810160D01*
X130323465Y-67810163D01*
X130460090Y-67970129D01*
X130479567Y-67992933D01*
X130483323Y-67996141D01*
X130572569Y-68072365D01*
X130611378Y-68131816D01*
X130611884Y-68202811D01*
X130572569Y-68263987D01*
X130504567Y-68322067D01*
X130501359Y-68325823D01*
X130394805Y-68450581D01*
X130345248Y-68508604D01*
X130342660Y-68512827D01*
X130342658Y-68512830D01*
X130308152Y-68569140D01*
X130217073Y-68717768D01*
X130190583Y-68781720D01*
X130137862Y-68909000D01*
X130123195Y-68944408D01*
X130114732Y-68979658D01*
X130072027Y-69157540D01*
X130065928Y-69182943D01*
X130046681Y-69427500D01*
X130065928Y-69672057D01*
X130067082Y-69676864D01*
X130067083Y-69676870D01*
X130087416Y-69761562D01*
X130123195Y-69910592D01*
X130125088Y-69915163D01*
X130125089Y-69915165D01*
X130137033Y-69944000D01*
X130217073Y-70137232D01*
X130288249Y-70253382D01*
X130331648Y-70324202D01*
X130345248Y-70346396D01*
X130348463Y-70350160D01*
X130348465Y-70350163D01*
X130462381Y-70483540D01*
X130504567Y-70532933D01*
X130508323Y-70536141D01*
X130585069Y-70601689D01*
X130623878Y-70661140D01*
X130624384Y-70732135D01*
X130585069Y-70793311D01*
X130552930Y-70820761D01*
X130504567Y-70862067D01*
X130501359Y-70865823D01*
X130358157Y-71033490D01*
X130345248Y-71048604D01*
X130342660Y-71052827D01*
X130342658Y-71052830D01*
X130323732Y-71083715D01*
X130217073Y-71257768D01*
X130192223Y-71317761D01*
X130131394Y-71464615D01*
X130123195Y-71484408D01*
X130122040Y-71489220D01*
X130072282Y-71696477D01*
X130065928Y-71722943D01*
X130046681Y-71967500D01*
X130065928Y-72212057D01*
X130067082Y-72216864D01*
X130067083Y-72216870D01*
X130068874Y-72224329D01*
X130123195Y-72450592D01*
X130217073Y-72677232D01*
X130345248Y-72886396D01*
X130348463Y-72890160D01*
X130348465Y-72890163D01*
X130452525Y-73012000D01*
X130504567Y-73072933D01*
X130508323Y-73076141D01*
X130585069Y-73141689D01*
X130623878Y-73201140D01*
X130624384Y-73272135D01*
X130585069Y-73333311D01*
X130515301Y-73392899D01*
X130504567Y-73402067D01*
X130501359Y-73405823D01*
X130360165Y-73571139D01*
X130345248Y-73588604D01*
X130217073Y-73797768D01*
X130177692Y-73892842D01*
X130126167Y-74017234D01*
X130123195Y-74024408D01*
X130121232Y-74032584D01*
X130069136Y-74249581D01*
X130065928Y-74262943D01*
X130046681Y-74507500D01*
X130065928Y-74752057D01*
X130123195Y-74990592D01*
X130125088Y-74995163D01*
X130125089Y-74995165D01*
X130144168Y-75041225D01*
X130217073Y-75217232D01*
X130266867Y-75298489D01*
X130337249Y-75413342D01*
X130345248Y-75426396D01*
X130348463Y-75430160D01*
X130348465Y-75430163D01*
X130490249Y-75596169D01*
X130504567Y-75612933D01*
X130508323Y-75616141D01*
X130585069Y-75681689D01*
X130623878Y-75741140D01*
X130624384Y-75812135D01*
X130585069Y-75873311D01*
X130526075Y-75923697D01*
X130504567Y-75942067D01*
X130501359Y-75945823D01*
X130353118Y-76119390D01*
X130345248Y-76128604D01*
X130342660Y-76132827D01*
X130342658Y-76132830D01*
X130302781Y-76197905D01*
X130217073Y-76337768D01*
X130123195Y-76564408D01*
X130112861Y-76607454D01*
X130073837Y-76770000D01*
X130065928Y-76802943D01*
X130046681Y-77047500D01*
X130065928Y-77292057D01*
X130067082Y-77296864D01*
X130067083Y-77296870D01*
X130095541Y-77415405D01*
X130123195Y-77530592D01*
X130125088Y-77535163D01*
X130125089Y-77535165D01*
X130148763Y-77592319D01*
X130217073Y-77757232D01*
X130294312Y-77883275D01*
X130325832Y-77934712D01*
X130344370Y-78003245D01*
X130322913Y-78070922D01*
X130293965Y-78101372D01*
X130196739Y-78174239D01*
X130109385Y-78290795D01*
X130058255Y-78427184D01*
X130051500Y-78489366D01*
X130051500Y-80685634D01*
X130058255Y-80747816D01*
X130109385Y-80884205D01*
X130196739Y-81000761D01*
X130313295Y-81088115D01*
X130449684Y-81139245D01*
X130511866Y-81146000D01*
X132708134Y-81146000D01*
X132770316Y-81139245D01*
X132906705Y-81088115D01*
X133023261Y-81000761D01*
X133110615Y-80884205D01*
X133122362Y-80852870D01*
X133165004Y-80796106D01*
X133231565Y-80771406D01*
X133303914Y-80788312D01*
X133477643Y-80889831D01*
X133701697Y-80975389D01*
X133706763Y-80976420D01*
X133706764Y-80976420D01*
X133763039Y-80987869D01*
X133936716Y-81023204D01*
X134072264Y-81028174D01*
X134171225Y-81031803D01*
X134171229Y-81031803D01*
X134176389Y-81031992D01*
X134181509Y-81031336D01*
X134181511Y-81031336D01*
X134409151Y-81002175D01*
X134409152Y-81002175D01*
X134414279Y-81001518D01*
X134419229Y-81000033D01*
X134639042Y-80934086D01*
X134639047Y-80934084D01*
X134643997Y-80932599D01*
X134859374Y-80827087D01*
X134863579Y-80824087D01*
X134863585Y-80824084D01*
X134981522Y-80739960D01*
X135054627Y-80687815D01*
X135224511Y-80518523D01*
X135364463Y-80323758D01*
X135418601Y-80214220D01*
X135468433Y-80113392D01*
X135468434Y-80113390D01*
X135470727Y-80108750D01*
X135540447Y-79879274D01*
X135571752Y-79641492D01*
X135573499Y-79570000D01*
X135558698Y-79389970D01*
X135554271Y-79336124D01*
X135554270Y-79336118D01*
X135553847Y-79330973D01*
X135515201Y-79177117D01*
X135496679Y-79103375D01*
X135496678Y-79103371D01*
X135495420Y-79098364D01*
X135493364Y-79093634D01*
X135493361Y-79093627D01*
X135401847Y-78883159D01*
X135401845Y-78883156D01*
X135399787Y-78878422D01*
X135396412Y-78873204D01*
X135272325Y-78681396D01*
X135272323Y-78681393D01*
X135269515Y-78677053D01*
X135265076Y-78672174D01*
X135111582Y-78503487D01*
X135111580Y-78503486D01*
X135108104Y-78499665D01*
X135104053Y-78496466D01*
X135104049Y-78496462D01*
X134958434Y-78381463D01*
X134919888Y-78351021D01*
X134709922Y-78235113D01*
X134609544Y-78199567D01*
X134559278Y-78181767D01*
X134501742Y-78140173D01*
X134475826Y-78074075D01*
X134489760Y-78004459D01*
X134543354Y-77951129D01*
X134583021Y-77930568D01*
X134583026Y-77930565D01*
X134588493Y-77927731D01*
X134592810Y-77924285D01*
X134597679Y-77921696D01*
X134672415Y-77860743D01*
X134673221Y-77860093D01*
X134713859Y-77827652D01*
X134716353Y-77825158D01*
X134717392Y-77824229D01*
X134721743Y-77820513D01*
X134751637Y-77796132D01*
X134751640Y-77796129D01*
X134756417Y-77792233D01*
X134786825Y-77755476D01*
X134794814Y-77746697D01*
X136769949Y-75771562D01*
X136780092Y-75762460D01*
X136783070Y-75760066D01*
X136810834Y-75737743D01*
X136818906Y-75728124D01*
X136844221Y-75697954D01*
X136847403Y-75694306D01*
X136849327Y-75692184D01*
X136851520Y-75689991D01*
X136879783Y-75655583D01*
X136880598Y-75654601D01*
X136938538Y-75585551D01*
X136938538Y-75585550D01*
X136942501Y-75580828D01*
X136945159Y-75575992D01*
X136948663Y-75571727D01*
X136994219Y-75486765D01*
X136994764Y-75485763D01*
X137038210Y-75406736D01*
X137038214Y-75406727D01*
X137041182Y-75401328D01*
X137042851Y-75396067D01*
X137045459Y-75391203D01*
X137073609Y-75299130D01*
X137073992Y-75297899D01*
X137101255Y-75211956D01*
X137103119Y-75206080D01*
X137103734Y-75200595D01*
X137105348Y-75195317D01*
X137108519Y-75164104D01*
X137115076Y-75099543D01*
X137115216Y-75098229D01*
X137115447Y-75096176D01*
X137121000Y-75046667D01*
X137121000Y-75043144D01*
X137121079Y-75041729D01*
X137121528Y-75036026D01*
X137125426Y-74997656D01*
X137125426Y-74997651D01*
X137126048Y-74991528D01*
X137121559Y-74944039D01*
X137121000Y-74932182D01*
X137121000Y-73002095D01*
X137479501Y-73002095D01*
X137479838Y-73008614D01*
X137489757Y-73104206D01*
X137492649Y-73117600D01*
X137544088Y-73271784D01*
X137550261Y-73284962D01*
X137635563Y-73422807D01*
X137644599Y-73434208D01*
X137759329Y-73548739D01*
X137770740Y-73557751D01*
X137908743Y-73642816D01*
X137921924Y-73648963D01*
X138076210Y-73700138D01*
X138089586Y-73703005D01*
X138183938Y-73712672D01*
X138190354Y-73713000D01*
X138302885Y-73713000D01*
X138318124Y-73708525D01*
X138319329Y-73707135D01*
X138321000Y-73699452D01*
X138321000Y-72752115D01*
X138316525Y-72736876D01*
X138315135Y-72735671D01*
X138307452Y-72734000D01*
X137497616Y-72734000D01*
X137482377Y-72738475D01*
X137481172Y-72739865D01*
X137479501Y-72747548D01*
X137479501Y-73002095D01*
X137121000Y-73002095D01*
X137121000Y-70247885D01*
X137974500Y-70247885D01*
X137978975Y-70263124D01*
X137980365Y-70264329D01*
X137988048Y-70266000D01*
X138747885Y-70266000D01*
X138763124Y-70261525D01*
X138764329Y-70260135D01*
X138766000Y-70252452D01*
X138766000Y-69555115D01*
X138761525Y-69539876D01*
X138760135Y-69538671D01*
X138752452Y-69537000D01*
X138673734Y-69537000D01*
X138667218Y-69537337D01*
X138573368Y-69547075D01*
X138559972Y-69549968D01*
X138408547Y-69600488D01*
X138395385Y-69606653D01*
X138260008Y-69690426D01*
X138248610Y-69699460D01*
X138136137Y-69812129D01*
X138127125Y-69823540D01*
X138043588Y-69959063D01*
X138037444Y-69972241D01*
X137987185Y-70123766D01*
X137984319Y-70137132D01*
X137974828Y-70229770D01*
X137974500Y-70236185D01*
X137974500Y-70247885D01*
X137121000Y-70247885D01*
X137121000Y-67891500D01*
X137141002Y-67823379D01*
X137194658Y-67776886D01*
X137247000Y-67765500D01*
X137265385Y-67765500D01*
X137280624Y-67761025D01*
X137281829Y-67759635D01*
X137283500Y-67751952D01*
X137283500Y-66542000D01*
X137303502Y-66473879D01*
X137357158Y-66427386D01*
X137409500Y-66416000D01*
X137665500Y-66416000D01*
X137733621Y-66436002D01*
X137780114Y-66489658D01*
X137791500Y-66542000D01*
X137791500Y-67747384D01*
X137795975Y-67762623D01*
X137797365Y-67763828D01*
X137805048Y-67765499D01*
X138059595Y-67765499D01*
X138066114Y-67765162D01*
X138161706Y-67755243D01*
X138175100Y-67752351D01*
X138329284Y-67700912D01*
X138342462Y-67694739D01*
X138480307Y-67609437D01*
X138491708Y-67600401D01*
X138606239Y-67485671D01*
X138615251Y-67474260D01*
X138700316Y-67336257D01*
X138706464Y-67323074D01*
X138714930Y-67297549D01*
X138755360Y-67239189D01*
X138820924Y-67211952D01*
X138890806Y-67224485D01*
X138900638Y-67229956D01*
X139016559Y-67301410D01*
X139029741Y-67307556D01*
X139181266Y-67357815D01*
X139194632Y-67360681D01*
X139287270Y-67370172D01*
X139293685Y-67370500D01*
X139305385Y-67370500D01*
X139320624Y-67366025D01*
X139321829Y-67364635D01*
X139323500Y-67356952D01*
X139323500Y-66197000D01*
X139343502Y-66128879D01*
X139397158Y-66082386D01*
X139449500Y-66071000D01*
X139705500Y-66071000D01*
X139773621Y-66091002D01*
X139820114Y-66144658D01*
X139831500Y-66197000D01*
X139831500Y-67352385D01*
X139835975Y-67367624D01*
X139837365Y-67368829D01*
X139845048Y-67370500D01*
X139861266Y-67370500D01*
X139867782Y-67370163D01*
X139961632Y-67360425D01*
X139975028Y-67357532D01*
X140126453Y-67307012D01*
X140139615Y-67300847D01*
X140274992Y-67217074D01*
X140286390Y-67208040D01*
X140398863Y-67095371D01*
X140407877Y-67083957D01*
X140463681Y-66993425D01*
X140516452Y-66945931D01*
X140586524Y-66934507D01*
X140651648Y-66962781D01*
X140660036Y-66970445D01*
X140741095Y-67051504D01*
X140775121Y-67113816D01*
X140778000Y-67140599D01*
X140778000Y-67238695D01*
X140777263Y-67252302D01*
X140773004Y-67291509D01*
X140773541Y-67297645D01*
X140777529Y-67343235D01*
X140777858Y-67348061D01*
X140778000Y-67350962D01*
X140778000Y-67354044D01*
X140778301Y-67357112D01*
X140782346Y-67398370D01*
X140782467Y-67399683D01*
X140790318Y-67489420D01*
X140790320Y-67489432D01*
X140790857Y-67495567D01*
X140792396Y-67500866D01*
X140792935Y-67506359D01*
X140820778Y-67598580D01*
X140821115Y-67599717D01*
X140848004Y-67692271D01*
X140850544Y-67697171D01*
X140852139Y-67702454D01*
X140897355Y-67787493D01*
X140897905Y-67788541D01*
X140902897Y-67798171D01*
X140942269Y-67874128D01*
X140945715Y-67878445D01*
X140948304Y-67883314D01*
X140952202Y-67888093D01*
X140952203Y-67888095D01*
X140983681Y-67926691D01*
X141011830Y-67999073D01*
X141020744Y-68153680D01*
X141021879Y-68158717D01*
X141021880Y-68158723D01*
X141061865Y-68336150D01*
X141073470Y-68387646D01*
X141101520Y-68456725D01*
X141137648Y-68545695D01*
X141163702Y-68609859D01*
X141289014Y-68814351D01*
X141446043Y-68995630D01*
X141630571Y-69148828D01*
X141787812Y-69240712D01*
X141836536Y-69292351D01*
X141849607Y-69362134D01*
X141822876Y-69427905D01*
X141764829Y-69468784D01*
X141724242Y-69475500D01*
X140693456Y-69475500D01*
X140690400Y-69475800D01*
X140690393Y-69475800D01*
X140629782Y-69481743D01*
X140541141Y-69490435D01*
X140535242Y-69492216D01*
X140535237Y-69492217D01*
X140434036Y-69522772D01*
X140396453Y-69534118D01*
X140373041Y-69538823D01*
X140362891Y-69539876D01*
X140298266Y-69546581D01*
X140298263Y-69546582D01*
X140291407Y-69547293D01*
X140284871Y-69549474D01*
X140284869Y-69549474D01*
X140186988Y-69582130D01*
X140126393Y-69602346D01*
X139978469Y-69693884D01*
X139973297Y-69699065D01*
X139971227Y-69701139D01*
X139969462Y-69702105D01*
X139967559Y-69703613D01*
X139967301Y-69703287D01*
X139908946Y-69735219D01*
X139838125Y-69730218D01*
X139793030Y-69701292D01*
X139790369Y-69698636D01*
X139778960Y-69689625D01*
X139643437Y-69606088D01*
X139630259Y-69599944D01*
X139478734Y-69549685D01*
X139465368Y-69546819D01*
X139372730Y-69537328D01*
X139366315Y-69537000D01*
X139292115Y-69537000D01*
X139276876Y-69541475D01*
X139275671Y-69542865D01*
X139274000Y-69550548D01*
X139274000Y-70648000D01*
X139253998Y-70716121D01*
X139200342Y-70762614D01*
X139148000Y-70774000D01*
X137992615Y-70774000D01*
X137977376Y-70778475D01*
X137976171Y-70779865D01*
X137974500Y-70787548D01*
X137974500Y-70803766D01*
X137974837Y-70810282D01*
X137984575Y-70904132D01*
X137987468Y-70917528D01*
X138037988Y-71068953D01*
X138044153Y-71082115D01*
X138056929Y-71102761D01*
X138075766Y-71171213D01*
X138054604Y-71238983D01*
X138000163Y-71284553D01*
X137989659Y-71288587D01*
X137920718Y-71311587D01*
X137907538Y-71317761D01*
X137769693Y-71403063D01*
X137758292Y-71412099D01*
X137643761Y-71526829D01*
X137634749Y-71538240D01*
X137549684Y-71676243D01*
X137543537Y-71689424D01*
X137492362Y-71843710D01*
X137489495Y-71857086D01*
X137479828Y-71951438D01*
X137479500Y-71957855D01*
X137479500Y-72207885D01*
X137483975Y-72223124D01*
X137485365Y-72224329D01*
X137493048Y-72226000D01*
X138703000Y-72226000D01*
X138771121Y-72246002D01*
X138817614Y-72299658D01*
X138829000Y-72352000D01*
X138829000Y-73694884D01*
X138833475Y-73710123D01*
X138834865Y-73711328D01*
X138842548Y-73712999D01*
X138959595Y-73712999D01*
X138966114Y-73712662D01*
X139061706Y-73702743D01*
X139075100Y-73699851D01*
X139229284Y-73648412D01*
X139242462Y-73642239D01*
X139380307Y-73556937D01*
X139397445Y-73543354D01*
X139398571Y-73544775D01*
X139452603Y-73515206D01*
X139523424Y-73520206D01*
X139580299Y-73562700D01*
X139605171Y-73629197D01*
X139605500Y-73638302D01*
X139605500Y-74655164D01*
X139585498Y-74723285D01*
X139568595Y-74744259D01*
X138589308Y-75723546D01*
X138526996Y-75757572D01*
X138498676Y-75760442D01*
X138479893Y-75760212D01*
X138473080Y-75760129D01*
X138473079Y-75760129D01*
X138467911Y-75760066D01*
X138230837Y-75796343D01*
X138002871Y-75870854D01*
X137998279Y-75873244D01*
X137998280Y-75873244D01*
X137817910Y-75967139D01*
X137790136Y-75981597D01*
X137786003Y-75984700D01*
X137786000Y-75984702D01*
X137638040Y-76095794D01*
X137598345Y-76125598D01*
X137594773Y-76129336D01*
X137482615Y-76246703D01*
X137432648Y-76298990D01*
X137429734Y-76303262D01*
X137429733Y-76303263D01*
X137380031Y-76376124D01*
X137297495Y-76497117D01*
X137241320Y-76618134D01*
X137199826Y-76707526D01*
X137196516Y-76714656D01*
X137156297Y-76859684D01*
X137139053Y-76921866D01*
X137132424Y-76945768D01*
X137106938Y-77184244D01*
X137107235Y-77189396D01*
X137107235Y-77189400D01*
X137108813Y-77216759D01*
X137120744Y-77423680D01*
X137121879Y-77428717D01*
X137121880Y-77428723D01*
X137149838Y-77552782D01*
X137173470Y-77657646D01*
X137263702Y-77879859D01*
X137389014Y-78084351D01*
X137392398Y-78088257D01*
X137392399Y-78088259D01*
X137426565Y-78127701D01*
X137546043Y-78265630D01*
X137730571Y-78418828D01*
X137937643Y-78539831D01*
X138161697Y-78625389D01*
X138166763Y-78626420D01*
X138166764Y-78626420D01*
X138223039Y-78637869D01*
X138396716Y-78673204D01*
X138532264Y-78678174D01*
X138631225Y-78681803D01*
X138631229Y-78681803D01*
X138636389Y-78681992D01*
X138641509Y-78681336D01*
X138641511Y-78681336D01*
X138869151Y-78652175D01*
X138869152Y-78652175D01*
X138874279Y-78651518D01*
X138957935Y-78626420D01*
X139099042Y-78584086D01*
X139099047Y-78584084D01*
X139103997Y-78582599D01*
X139319374Y-78477087D01*
X139323579Y-78474087D01*
X139323585Y-78474084D01*
X139441589Y-78389912D01*
X139514627Y-78337815D01*
X139684511Y-78168523D01*
X139687840Y-78163891D01*
X139821445Y-77977958D01*
X139824463Y-77973758D01*
X139834126Y-77954208D01*
X139928433Y-77763392D01*
X139928434Y-77763390D01*
X139930727Y-77758750D01*
X139995284Y-77546266D01*
X142047000Y-77546266D01*
X142047337Y-77552782D01*
X142057075Y-77646632D01*
X142059968Y-77660028D01*
X142110488Y-77811453D01*
X142116653Y-77824615D01*
X142200426Y-77959992D01*
X142209460Y-77971390D01*
X142322129Y-78083863D01*
X142333540Y-78092875D01*
X142469063Y-78176412D01*
X142482241Y-78182556D01*
X142633766Y-78232815D01*
X142647132Y-78235681D01*
X142739770Y-78245172D01*
X142746185Y-78245500D01*
X142757885Y-78245500D01*
X142773124Y-78241025D01*
X142774329Y-78239635D01*
X142776000Y-78231952D01*
X142776000Y-77472115D01*
X142771525Y-77456876D01*
X142770135Y-77455671D01*
X142762452Y-77454000D01*
X142065115Y-77454000D01*
X142049876Y-77458475D01*
X142048671Y-77459865D01*
X142047000Y-77467548D01*
X142047000Y-77546266D01*
X139995284Y-77546266D01*
X140000447Y-77529274D01*
X140031752Y-77291492D01*
X140031926Y-77284371D01*
X140053585Y-77216759D01*
X140068793Y-77198353D01*
X141343449Y-75923697D01*
X141353592Y-75914595D01*
X141366015Y-75904607D01*
X141384334Y-75889878D01*
X141398236Y-75873311D01*
X141417721Y-75850089D01*
X141420903Y-75846441D01*
X141422830Y-75844316D01*
X141425020Y-75842126D01*
X141432846Y-75832599D01*
X141448238Y-75813860D01*
X141453247Y-75807761D01*
X141454083Y-75806755D01*
X141512033Y-75737693D01*
X141512037Y-75737687D01*
X141516001Y-75732963D01*
X141518661Y-75728124D01*
X141522162Y-75723862D01*
X141530224Y-75708828D01*
X141567645Y-75639038D01*
X141568274Y-75637879D01*
X141597800Y-75584171D01*
X141614682Y-75553463D01*
X141616350Y-75548204D01*
X141618959Y-75543339D01*
X141647124Y-75451213D01*
X141647478Y-75450075D01*
X141676619Y-75358215D01*
X141677235Y-75352727D01*
X141678847Y-75347453D01*
X141688583Y-75251616D01*
X141688704Y-75250480D01*
X141694500Y-75198802D01*
X141694500Y-75195275D01*
X141694579Y-75193863D01*
X141695028Y-75188161D01*
X141698926Y-75149792D01*
X141698926Y-75149787D01*
X141699548Y-75143664D01*
X141695059Y-75096175D01*
X141694500Y-75084318D01*
X141694500Y-73253211D01*
X141700907Y-73213544D01*
X141703103Y-73206925D01*
X141735297Y-73109861D01*
X141739466Y-73069177D01*
X141744506Y-73019980D01*
X141746000Y-73005400D01*
X141746000Y-71954600D01*
X141741793Y-71914053D01*
X141735738Y-71855692D01*
X141735737Y-71855688D01*
X141735026Y-71848834D01*
X141727091Y-71825048D01*
X141700976Y-71746774D01*
X141694500Y-71706898D01*
X141694500Y-71690500D01*
X141714502Y-71622379D01*
X141768158Y-71575886D01*
X141820500Y-71564500D01*
X142651830Y-71564500D01*
X142665437Y-71565237D01*
X142698518Y-71568831D01*
X142698523Y-71568831D01*
X142704644Y-71569496D01*
X142722388Y-71567944D01*
X142756370Y-71564971D01*
X142761196Y-71564642D01*
X142764097Y-71564500D01*
X142767179Y-71564500D01*
X142778970Y-71563344D01*
X142811505Y-71560154D01*
X142812818Y-71560033D01*
X142856502Y-71556211D01*
X142926107Y-71570199D01*
X142977099Y-71619598D01*
X142990400Y-71654026D01*
X142992145Y-71661765D01*
X142993470Y-71667646D01*
X143021686Y-71737132D01*
X143064389Y-71842296D01*
X143083702Y-71889859D01*
X143209014Y-72094351D01*
X143364737Y-72274122D01*
X143394220Y-72338707D01*
X143395500Y-72356619D01*
X143395500Y-73902620D01*
X143375498Y-73970741D01*
X143321842Y-74017234D01*
X143280481Y-74028141D01*
X143249433Y-74030857D01*
X143244134Y-74032396D01*
X143238641Y-74032935D01*
X143146420Y-74060778D01*
X143145283Y-74061115D01*
X143052729Y-74088004D01*
X143047829Y-74090544D01*
X143042546Y-74092139D01*
X143037111Y-74095029D01*
X143037108Y-74095030D01*
X142957476Y-74137371D01*
X142956309Y-74137983D01*
X142876339Y-74179436D01*
X142870872Y-74182270D01*
X142866559Y-74185713D01*
X142861686Y-74188304D01*
X142856918Y-74192193D01*
X142856907Y-74192200D01*
X142787012Y-74249205D01*
X142786005Y-74250018D01*
X142745506Y-74282348D01*
X142743013Y-74284841D01*
X142741973Y-74285771D01*
X142737622Y-74289487D01*
X142707728Y-74313868D01*
X142707725Y-74313871D01*
X142702948Y-74317767D01*
X142699021Y-74322514D01*
X142699019Y-74322516D01*
X142672541Y-74354523D01*
X142664551Y-74363303D01*
X142583626Y-74444228D01*
X142534406Y-74474657D01*
X142473893Y-74494846D01*
X142325969Y-74586384D01*
X142320796Y-74591566D01*
X142208242Y-74704316D01*
X142208238Y-74704321D01*
X142203071Y-74709497D01*
X142199231Y-74715727D01*
X142199230Y-74715728D01*
X142116568Y-74849831D01*
X142111791Y-74857580D01*
X142057026Y-75022691D01*
X142056326Y-75029527D01*
X142056325Y-75029530D01*
X142055127Y-75041225D01*
X142049223Y-75098855D01*
X142048710Y-75103859D01*
X142043862Y-75127852D01*
X142001153Y-75267548D01*
X142000531Y-75273673D01*
X141982254Y-75453598D01*
X141980452Y-75471336D01*
X141999729Y-75675265D01*
X142019882Y-75742865D01*
X142044343Y-75824916D01*
X142048922Y-75847911D01*
X142057293Y-75928593D01*
X142112346Y-76093607D01*
X142203884Y-76241531D01*
X142209065Y-76246703D01*
X142211139Y-76248773D01*
X142212105Y-76250538D01*
X142213613Y-76252441D01*
X142213287Y-76252699D01*
X142245219Y-76311054D01*
X142240218Y-76381875D01*
X142211292Y-76426970D01*
X142208636Y-76429631D01*
X142199625Y-76441040D01*
X142116088Y-76576563D01*
X142109944Y-76589741D01*
X142059685Y-76741266D01*
X142056819Y-76754632D01*
X142047328Y-76847270D01*
X142047000Y-76853685D01*
X142047000Y-76927885D01*
X142051475Y-76943124D01*
X142052865Y-76944329D01*
X142060548Y-76946000D01*
X143158000Y-76946000D01*
X143226121Y-76966002D01*
X143272614Y-77019658D01*
X143284000Y-77072000D01*
X143284000Y-78227385D01*
X143288475Y-78242624D01*
X143289865Y-78243829D01*
X143297548Y-78245500D01*
X143313766Y-78245500D01*
X143320282Y-78245163D01*
X143414132Y-78235425D01*
X143427528Y-78232532D01*
X143578953Y-78182012D01*
X143592115Y-78175847D01*
X143727492Y-78092074D01*
X143738890Y-78083040D01*
X143851363Y-77970371D01*
X143860375Y-77958960D01*
X143943912Y-77823437D01*
X143950056Y-77810260D01*
X143964269Y-77767409D01*
X144004699Y-77709049D01*
X144070263Y-77681812D01*
X144140145Y-77694345D01*
X144192157Y-77742670D01*
X144203385Y-77767199D01*
X144211586Y-77791779D01*
X144217761Y-77804962D01*
X144303063Y-77942807D01*
X144312099Y-77954208D01*
X144426829Y-78068739D01*
X144438240Y-78077751D01*
X144576243Y-78162816D01*
X144589424Y-78168963D01*
X144743710Y-78220138D01*
X144757086Y-78223005D01*
X144851438Y-78232672D01*
X144857854Y-78233000D01*
X145107885Y-78233000D01*
X145123124Y-78228525D01*
X145124329Y-78227135D01*
X145126000Y-78219452D01*
X145126000Y-78214884D01*
X145634000Y-78214884D01*
X145638475Y-78230123D01*
X145639865Y-78231328D01*
X145647548Y-78232999D01*
X145902095Y-78232999D01*
X145908614Y-78232662D01*
X146004206Y-78222743D01*
X146017600Y-78219851D01*
X146171784Y-78168412D01*
X146184962Y-78162239D01*
X146322807Y-78076937D01*
X146334208Y-78067901D01*
X146448739Y-77953171D01*
X146457751Y-77941760D01*
X146542816Y-77803757D01*
X146548963Y-77790576D01*
X146600138Y-77636290D01*
X146603005Y-77622914D01*
X146612672Y-77528562D01*
X146613000Y-77522146D01*
X146613000Y-77409615D01*
X146608525Y-77394376D01*
X146607135Y-77393171D01*
X146599452Y-77391500D01*
X145652115Y-77391500D01*
X145636876Y-77395975D01*
X145635671Y-77397365D01*
X145634000Y-77405048D01*
X145634000Y-78214884D01*
X145126000Y-78214884D01*
X145126000Y-77009500D01*
X145146002Y-76941379D01*
X145199658Y-76894886D01*
X145252000Y-76883500D01*
X146594884Y-76883500D01*
X146610123Y-76879025D01*
X146611328Y-76877635D01*
X146612999Y-76869952D01*
X146612999Y-76752905D01*
X146612662Y-76746386D01*
X146602743Y-76650794D01*
X146599851Y-76637400D01*
X146548412Y-76483216D01*
X146542239Y-76470038D01*
X146456937Y-76332193D01*
X146447901Y-76320792D01*
X146333172Y-76206262D01*
X146324238Y-76199206D01*
X146283177Y-76141288D01*
X146279947Y-76070365D01*
X146315574Y-76008954D01*
X146323407Y-76002154D01*
X146329348Y-75998478D01*
X146454305Y-75873303D01*
X146458146Y-75867072D01*
X146543275Y-75728968D01*
X146543276Y-75728966D01*
X146547115Y-75722738D01*
X146575261Y-75637879D01*
X146600632Y-75561389D01*
X146600632Y-75561387D01*
X146602797Y-75554861D01*
X146603543Y-75547587D01*
X146611983Y-75465208D01*
X146613500Y-75450400D01*
X146613500Y-74981596D01*
X146633502Y-74913475D01*
X146687158Y-74866982D01*
X146757432Y-74856878D01*
X146784449Y-74863886D01*
X146792557Y-74866982D01*
X146971697Y-74935389D01*
X146976763Y-74936420D01*
X146976764Y-74936420D01*
X147006639Y-74942498D01*
X147206716Y-74983204D01*
X147368117Y-74989122D01*
X147435459Y-75011606D01*
X147479955Y-75066930D01*
X147489500Y-75115037D01*
X147489500Y-75901544D01*
X147489800Y-75904600D01*
X147489800Y-75904607D01*
X147492793Y-75935130D01*
X147504435Y-76053859D01*
X147506216Y-76059758D01*
X147506217Y-76059763D01*
X147545956Y-76191386D01*
X147563639Y-76249954D01*
X147598497Y-76315512D01*
X147655582Y-76422873D01*
X147659804Y-76430814D01*
X147660885Y-76432140D01*
X147681500Y-76500424D01*
X147681500Y-76618134D01*
X147681869Y-76621531D01*
X147685798Y-76657694D01*
X147688255Y-76680316D01*
X147691027Y-76687709D01*
X147691027Y-76687711D01*
X147705295Y-76725771D01*
X147710478Y-76796578D01*
X147705295Y-76814229D01*
X147692909Y-76847270D01*
X147688255Y-76859684D01*
X147687402Y-76867532D01*
X147687402Y-76867534D01*
X147681869Y-76918469D01*
X147681500Y-76921866D01*
X147681500Y-76929164D01*
X147661498Y-76997285D01*
X147644595Y-77018259D01*
X147256551Y-77406303D01*
X147246409Y-77415404D01*
X147215666Y-77440122D01*
X147211708Y-77444839D01*
X147211706Y-77444841D01*
X147182279Y-77479911D01*
X147179097Y-77483559D01*
X147177170Y-77485684D01*
X147174980Y-77487874D01*
X147173018Y-77490263D01*
X147173015Y-77490266D01*
X147146720Y-77522279D01*
X147145958Y-77523197D01*
X147083999Y-77597037D01*
X147081339Y-77601876D01*
X147077838Y-77606138D01*
X147074927Y-77611567D01*
X147074925Y-77611570D01*
X147032355Y-77690962D01*
X147031726Y-77692121D01*
X147012103Y-77727815D01*
X146985318Y-77776537D01*
X146983650Y-77781796D01*
X146981041Y-77786661D01*
X146952863Y-77878828D01*
X146952542Y-77879858D01*
X146923381Y-77971785D01*
X146922765Y-77977274D01*
X146921153Y-77982548D01*
X146911483Y-78077751D01*
X146911427Y-78078298D01*
X146911296Y-78079528D01*
X146909022Y-78099802D01*
X146906382Y-78123339D01*
X146905500Y-78131198D01*
X146905500Y-78134722D01*
X146905421Y-78136137D01*
X146904972Y-78141836D01*
X146900452Y-78186336D01*
X146903918Y-78223005D01*
X146904941Y-78233824D01*
X146905500Y-78245682D01*
X146905500Y-78587103D01*
X146885498Y-78655224D01*
X146855153Y-78687863D01*
X146841655Y-78697998D01*
X146698345Y-78805598D01*
X146532648Y-78978990D01*
X146529734Y-78983262D01*
X146529733Y-78983263D01*
X146476112Y-79061869D01*
X146397495Y-79177117D01*
X146296516Y-79394656D01*
X146232424Y-79625768D01*
X146206938Y-79864244D01*
X146207235Y-79869396D01*
X146207235Y-79869400D01*
X146208090Y-79884220D01*
X146220744Y-80103680D01*
X146221879Y-80108717D01*
X146221880Y-80108723D01*
X146243385Y-80204147D01*
X146273470Y-80337646D01*
X146275419Y-80342445D01*
X146360447Y-80551842D01*
X146363702Y-80559859D01*
X146489014Y-80764351D01*
X146646043Y-80945630D01*
X146830571Y-81098828D01*
X147037643Y-81219831D01*
X147261697Y-81305389D01*
X147266763Y-81306420D01*
X147266764Y-81306420D01*
X147323039Y-81317869D01*
X147496716Y-81353204D01*
X147632264Y-81358174D01*
X147731225Y-81361803D01*
X147731229Y-81361803D01*
X147736389Y-81361992D01*
X147741509Y-81361336D01*
X147741511Y-81361336D01*
X147969151Y-81332175D01*
X147969152Y-81332175D01*
X147974279Y-81331518D01*
X147979229Y-81330033D01*
X148199042Y-81264086D01*
X148199047Y-81264084D01*
X148203997Y-81262599D01*
X148419374Y-81157087D01*
X148423579Y-81154087D01*
X148423585Y-81154084D01*
X148516516Y-81087796D01*
X148614627Y-81017815D01*
X148784511Y-80848523D01*
X148787840Y-80843891D01*
X148921445Y-80657958D01*
X148924463Y-80653758D01*
X148928672Y-80645243D01*
X149028433Y-80443392D01*
X149028434Y-80443390D01*
X149030727Y-80438750D01*
X149100447Y-80209274D01*
X149131752Y-79971492D01*
X149133499Y-79900000D01*
X149127001Y-79820970D01*
X149114271Y-79666124D01*
X149114270Y-79666118D01*
X149113847Y-79660973D01*
X149073029Y-79498469D01*
X149056679Y-79433375D01*
X149056678Y-79433371D01*
X149055420Y-79428364D01*
X149009735Y-79323295D01*
X149004950Y-79312290D01*
X148994500Y-79262048D01*
X148994500Y-78674836D01*
X149014502Y-78606715D01*
X149031405Y-78585741D01*
X149195020Y-78422126D01*
X149292162Y-78303863D01*
X149303023Y-78283609D01*
X149386047Y-78128770D01*
X149386047Y-78128769D01*
X149388959Y-78123339D01*
X149411048Y-78051089D01*
X149450091Y-77991795D01*
X149514995Y-77963021D01*
X149585152Y-77973904D01*
X149638289Y-78020990D01*
X149649523Y-78043700D01*
X149677171Y-78117450D01*
X149699385Y-78176705D01*
X149786739Y-78293261D01*
X149903295Y-78380615D01*
X150039684Y-78431745D01*
X150101866Y-78438500D01*
X151522739Y-78438500D01*
X151535472Y-78439145D01*
X151730209Y-78458926D01*
X151730214Y-78458926D01*
X151736337Y-78459548D01*
X151908809Y-78443244D01*
X151934130Y-78440851D01*
X151934131Y-78440851D01*
X151940265Y-78440271D01*
X151940408Y-78440228D01*
X151958358Y-78438500D01*
X153378134Y-78438500D01*
X153440316Y-78431745D01*
X153576705Y-78380615D01*
X153693261Y-78293261D01*
X153780615Y-78176705D01*
X153831745Y-78040316D01*
X153837930Y-77983378D01*
X153838131Y-77981531D01*
X153838500Y-77978134D01*
X153838500Y-76841866D01*
X153838130Y-76838459D01*
X153837149Y-76829422D01*
X153849679Y-76759540D01*
X153898001Y-76707526D01*
X153966774Y-76689894D01*
X153976452Y-76690602D01*
X153989794Y-76692099D01*
X154055260Y-76719571D01*
X154095482Y-76778076D01*
X154101262Y-76821866D01*
X154101500Y-76821866D01*
X154101500Y-77958134D01*
X154108255Y-78020316D01*
X154159385Y-78156705D01*
X154246739Y-78273261D01*
X154363295Y-78360615D01*
X154499684Y-78411745D01*
X154561866Y-78418500D01*
X155988911Y-78418500D01*
X156002519Y-78419237D01*
X156182884Y-78438831D01*
X156182888Y-78438831D01*
X156189009Y-78439496D01*
X156393067Y-78421643D01*
X156397132Y-78420462D01*
X156418283Y-78418500D01*
X157838134Y-78418500D01*
X157900316Y-78411745D01*
X157907712Y-78408973D01*
X157907718Y-78408971D01*
X157958557Y-78389912D01*
X158029364Y-78384729D01*
X158091733Y-78418650D01*
X158125947Y-78481298D01*
X158126582Y-78484236D01*
X158127293Y-78491093D01*
X158182346Y-78656107D01*
X158191579Y-78671027D01*
X158224837Y-78724771D01*
X158273884Y-78804031D01*
X158280788Y-78810923D01*
X158281589Y-78812387D01*
X158283611Y-78814938D01*
X158283174Y-78815284D01*
X158314866Y-78873204D01*
X158309863Y-78944024D01*
X158280944Y-78989110D01*
X158273071Y-78996997D01*
X158269232Y-79003225D01*
X158269228Y-79003230D01*
X158227616Y-79070737D01*
X158174844Y-79118230D01*
X158104772Y-79129652D01*
X158052128Y-79108406D01*
X158051760Y-79109079D01*
X158046052Y-79105954D01*
X158044791Y-79105445D01*
X158043892Y-79104771D01*
X158043890Y-79104770D01*
X158036705Y-79099385D01*
X157900316Y-79048255D01*
X157838134Y-79041500D01*
X156411089Y-79041500D01*
X156397481Y-79040763D01*
X156217116Y-79021168D01*
X156217113Y-79021168D01*
X156210992Y-79020503D01*
X156133637Y-79027271D01*
X156013066Y-79037819D01*
X156013062Y-79037820D01*
X156006933Y-79038356D01*
X156002868Y-79039537D01*
X155981713Y-79041500D01*
X154561866Y-79041500D01*
X154499684Y-79048255D01*
X154363295Y-79099385D01*
X154246739Y-79186739D01*
X154159385Y-79303295D01*
X154108255Y-79439684D01*
X154101500Y-79501866D01*
X154101500Y-80638134D01*
X154099990Y-80638134D01*
X154085085Y-80701390D01*
X154064648Y-80728206D01*
X154053595Y-80739259D01*
X153991283Y-80773285D01*
X153920468Y-80768220D01*
X153863632Y-80725673D01*
X153838821Y-80659153D01*
X153838500Y-80650164D01*
X153838500Y-79521866D01*
X153831745Y-79459684D01*
X153780615Y-79323295D01*
X153693261Y-79206739D01*
X153576705Y-79119385D01*
X153440316Y-79068255D01*
X153378134Y-79061500D01*
X151954003Y-79061500D01*
X151940833Y-79060810D01*
X151753456Y-79041116D01*
X151753454Y-79041116D01*
X151747327Y-79040472D01*
X151623309Y-79051758D01*
X151549474Y-79058477D01*
X151549472Y-79058477D01*
X151543333Y-79059036D01*
X151541226Y-79059656D01*
X151521716Y-79061500D01*
X150101866Y-79061500D01*
X150039684Y-79068255D01*
X149903295Y-79119385D01*
X149786739Y-79206739D01*
X149699385Y-79323295D01*
X149648255Y-79459684D01*
X149641500Y-79521866D01*
X149641500Y-80658134D01*
X149648255Y-80720316D01*
X149699385Y-80856705D01*
X149786739Y-80973261D01*
X149793919Y-80978642D01*
X149795682Y-80980405D01*
X149829708Y-81042717D01*
X149824643Y-81113532D01*
X149782096Y-81170368D01*
X149715576Y-81195179D01*
X149706587Y-81195500D01*
X149309456Y-81195500D01*
X149306400Y-81195800D01*
X149306393Y-81195800D01*
X149245782Y-81201743D01*
X149157141Y-81210435D01*
X149151242Y-81212216D01*
X149151237Y-81212217D01*
X148966945Y-81267858D01*
X148961046Y-81269639D01*
X148780186Y-81365804D01*
X148775407Y-81369702D01*
X148775402Y-81369705D01*
X148626222Y-81491373D01*
X148626220Y-81491375D01*
X148621448Y-81495267D01*
X148617523Y-81500012D01*
X148494809Y-81648347D01*
X148494807Y-81648350D01*
X148490880Y-81653097D01*
X148487949Y-81658518D01*
X148431279Y-81763327D01*
X148381284Y-81813735D01*
X148311973Y-81829113D01*
X148245351Y-81804577D01*
X148237931Y-81798623D01*
X148209135Y-81773671D01*
X148201452Y-81772000D01*
X147881115Y-81772000D01*
X147865876Y-81776475D01*
X147864671Y-81777865D01*
X147863000Y-81785548D01*
X147863000Y-82355500D01*
X147842998Y-82423621D01*
X147789342Y-82470114D01*
X147737000Y-82481500D01*
X147629000Y-82481500D01*
X147560879Y-82461498D01*
X147514386Y-82407842D01*
X147503000Y-82355500D01*
X147503000Y-81790116D01*
X147498525Y-81774877D01*
X147497135Y-81773672D01*
X147489452Y-81772001D01*
X147105831Y-81772001D01*
X147099010Y-81772371D01*
X147048148Y-81777895D01*
X147032896Y-81781521D01*
X146912446Y-81826676D01*
X146896852Y-81835214D01*
X146855946Y-81865871D01*
X146789440Y-81890719D01*
X146720057Y-81875666D01*
X146691286Y-81854140D01*
X145813697Y-80976551D01*
X145804595Y-80966408D01*
X145798351Y-80958642D01*
X145779878Y-80935666D01*
X145740089Y-80902279D01*
X145736441Y-80899097D01*
X145734316Y-80897170D01*
X145732126Y-80894980D01*
X145725858Y-80889831D01*
X145697721Y-80866720D01*
X145696803Y-80865958D01*
X145622963Y-80803999D01*
X145618124Y-80801339D01*
X145613862Y-80797838D01*
X145608433Y-80794927D01*
X145608430Y-80794925D01*
X145529038Y-80752355D01*
X145527879Y-80751726D01*
X145448865Y-80708288D01*
X145443463Y-80705318D01*
X145438204Y-80703650D01*
X145433339Y-80701041D01*
X145341172Y-80672863D01*
X145340142Y-80672542D01*
X145248215Y-80643381D01*
X145242726Y-80642765D01*
X145237452Y-80641153D01*
X145141653Y-80631422D01*
X145140472Y-80631296D01*
X145109619Y-80627835D01*
X145092299Y-80625892D01*
X145092294Y-80625892D01*
X145088802Y-80625500D01*
X145085278Y-80625500D01*
X145083863Y-80625421D01*
X145078164Y-80624972D01*
X145068968Y-80624038D01*
X145039791Y-80621074D01*
X145039787Y-80621074D01*
X145033664Y-80620452D01*
X144986176Y-80624941D01*
X144974318Y-80625500D01*
X143639500Y-80625500D01*
X143571379Y-80605498D01*
X143524886Y-80551842D01*
X143513500Y-80499500D01*
X143513500Y-79121866D01*
X143506745Y-79059684D01*
X143455615Y-78923295D01*
X143368261Y-78806739D01*
X143251705Y-78719385D01*
X143115316Y-78668255D01*
X143053134Y-78661500D01*
X139956866Y-78661500D01*
X139894684Y-78668255D01*
X139758295Y-78719385D01*
X139641739Y-78806739D01*
X139554385Y-78923295D01*
X139503255Y-79059684D01*
X139496500Y-79121866D01*
X139496500Y-84218134D01*
X139503255Y-84280316D01*
X139554385Y-84416705D01*
X139641739Y-84533261D01*
X139758295Y-84620615D01*
X139894684Y-84671745D01*
X139956866Y-84678500D01*
X143053134Y-84678500D01*
X143115316Y-84671745D01*
X143251705Y-84620615D01*
X143368261Y-84533261D01*
X143455615Y-84416705D01*
X143506745Y-84280316D01*
X143513500Y-84218134D01*
X143513500Y-82840500D01*
X143533502Y-82772379D01*
X143587158Y-82725886D01*
X143639500Y-82714500D01*
X144545164Y-82714500D01*
X144613285Y-82734502D01*
X144634259Y-82751405D01*
X145677874Y-83795020D01*
X145796137Y-83892162D01*
X145801564Y-83895072D01*
X145801567Y-83895074D01*
X145968345Y-83984500D01*
X145976661Y-83988959D01*
X146172547Y-84048847D01*
X146233896Y-84055079D01*
X146370208Y-84068926D01*
X146370213Y-84068926D01*
X146376336Y-84069548D01*
X146444455Y-84063109D01*
X146511950Y-84056729D01*
X146581650Y-84070232D01*
X146632986Y-84119274D01*
X146644678Y-84155117D01*
X146646568Y-84154668D01*
X146652021Y-84177604D01*
X146697176Y-84298054D01*
X146705714Y-84313649D01*
X146782215Y-84415724D01*
X146794776Y-84428285D01*
X146896851Y-84504786D01*
X146912446Y-84513324D01*
X147032894Y-84558478D01*
X147048149Y-84562105D01*
X147099014Y-84567631D01*
X147105828Y-84568000D01*
X147484885Y-84568000D01*
X147500124Y-84563525D01*
X147501329Y-84562135D01*
X147503000Y-84554452D01*
X147503000Y-83984500D01*
X147523002Y-83916379D01*
X147576658Y-83869886D01*
X147629000Y-83858500D01*
X147737000Y-83858500D01*
X147805121Y-83878502D01*
X147851614Y-83932158D01*
X147863000Y-83984500D01*
X147863000Y-84549884D01*
X147867475Y-84565123D01*
X147868865Y-84566328D01*
X147876548Y-84567999D01*
X148166895Y-84567999D01*
X148166927Y-84568000D01*
X148196885Y-84568000D01*
X148212124Y-84563525D01*
X148213329Y-84562135D01*
X148215000Y-84554452D01*
X148215000Y-83766259D01*
X148235002Y-83698138D01*
X148240176Y-83690691D01*
X148244676Y-83684687D01*
X148301536Y-83642174D01*
X148372355Y-83637150D01*
X148434647Y-83671211D01*
X148468636Y-83733544D01*
X148471500Y-83760255D01*
X148471500Y-84108134D01*
X148478255Y-84170316D01*
X148529385Y-84306705D01*
X148534771Y-84313891D01*
X148599826Y-84400694D01*
X148624674Y-84467200D01*
X148625000Y-84476259D01*
X148625000Y-84549884D01*
X148629475Y-84565123D01*
X148630865Y-84566328D01*
X148638548Y-84567999D01*
X148664910Y-84567999D01*
X148733031Y-84588001D01*
X148776571Y-84635623D01*
X148791771Y-84664697D01*
X148920122Y-84824334D01*
X149077037Y-84956001D01*
X149082429Y-84958965D01*
X149082433Y-84958968D01*
X149184734Y-85015208D01*
X149256537Y-85054682D01*
X149262404Y-85056543D01*
X149262406Y-85056544D01*
X149287474Y-85064496D01*
X149451785Y-85116619D01*
X149611198Y-85134500D01*
X152116195Y-85134500D01*
X152129802Y-85135237D01*
X152162883Y-85138831D01*
X152162888Y-85138831D01*
X152169009Y-85139496D01*
X152186753Y-85137944D01*
X152220735Y-85134971D01*
X152225561Y-85134642D01*
X152228462Y-85134500D01*
X152231544Y-85134500D01*
X152243335Y-85133344D01*
X152275870Y-85130154D01*
X152277183Y-85130033D01*
X152366920Y-85122182D01*
X152366932Y-85122180D01*
X152373067Y-85121643D01*
X152378366Y-85120104D01*
X152383859Y-85119565D01*
X152476080Y-85091722D01*
X152477217Y-85091385D01*
X152569771Y-85064496D01*
X152574671Y-85061956D01*
X152579954Y-85060361D01*
X152664993Y-85015145D01*
X152666041Y-85014595D01*
X152746159Y-84973066D01*
X152746160Y-84973065D01*
X152751628Y-84970231D01*
X152755945Y-84966785D01*
X152760814Y-84964196D01*
X152835550Y-84903243D01*
X152836356Y-84902593D01*
X152876994Y-84870152D01*
X152879488Y-84867658D01*
X152880527Y-84866729D01*
X152884878Y-84863013D01*
X152914772Y-84838632D01*
X152914775Y-84838629D01*
X152919552Y-84834733D01*
X152949960Y-84797976D01*
X152957949Y-84789197D01*
X156611741Y-81135405D01*
X156674053Y-81101379D01*
X156700836Y-81098500D01*
X157838134Y-81098500D01*
X157900316Y-81091745D01*
X158036705Y-81040615D01*
X158153261Y-80953261D01*
X158240615Y-80836705D01*
X158244221Y-80827087D01*
X158272486Y-80751690D01*
X158315127Y-80694925D01*
X158381689Y-80670225D01*
X158456584Y-80688659D01*
X158520741Y-80728206D01*
X158545080Y-80743209D01*
X158710191Y-80797974D01*
X158717027Y-80798674D01*
X158717030Y-80798675D01*
X158768526Y-80803951D01*
X158812928Y-80808500D01*
X159387072Y-80808500D01*
X159390316Y-80808163D01*
X159390324Y-80808163D01*
X159395043Y-80807673D01*
X159408046Y-80807000D01*
X162230500Y-80807000D01*
X162298621Y-80827002D01*
X162345114Y-80880658D01*
X162356500Y-80933000D01*
X162356500Y-84218134D01*
X162363255Y-84280316D01*
X162414385Y-84416705D01*
X162501739Y-84533261D01*
X162618295Y-84620615D01*
X162754684Y-84671745D01*
X162816866Y-84678500D01*
X165913134Y-84678500D01*
X165975316Y-84671745D01*
X166111705Y-84620615D01*
X166228261Y-84533261D01*
X166315615Y-84416705D01*
X166366745Y-84280316D01*
X166373500Y-84218134D01*
X166373500Y-79121866D01*
X166366745Y-79059684D01*
X166315615Y-78923295D01*
X166228261Y-78806739D01*
X166111705Y-78719385D01*
X165975316Y-78668255D01*
X165913134Y-78661500D01*
X162816866Y-78661500D01*
X162813469Y-78661869D01*
X162762534Y-78667402D01*
X162762532Y-78667402D01*
X162754684Y-78668255D01*
X162747291Y-78671027D01*
X162747289Y-78671027D01*
X162643377Y-78709982D01*
X162599148Y-78718000D01*
X160171829Y-78718000D01*
X160103708Y-78697998D01*
X160057215Y-78644342D01*
X160047111Y-78574068D01*
X160052236Y-78552333D01*
X160069705Y-78499665D01*
X160072974Y-78489809D01*
X160074044Y-78479364D01*
X160081487Y-78406720D01*
X160086729Y-78381463D01*
X160122426Y-78268933D01*
X160126619Y-78255715D01*
X160144500Y-78096302D01*
X160144500Y-77919661D01*
X160164502Y-77851540D01*
X160218158Y-77805047D01*
X160288432Y-77794943D01*
X160334070Y-77810873D01*
X160450209Y-77878739D01*
X160537643Y-77929831D01*
X160542468Y-77931673D01*
X160542469Y-77931674D01*
X160598743Y-77953163D01*
X160761697Y-78015389D01*
X160766763Y-78016420D01*
X160766764Y-78016420D01*
X160822281Y-78027715D01*
X160996716Y-78063204D01*
X161132264Y-78068174D01*
X161231225Y-78071803D01*
X161231229Y-78071803D01*
X161236389Y-78071992D01*
X161241509Y-78071336D01*
X161241511Y-78071336D01*
X161469151Y-78042175D01*
X161469152Y-78042175D01*
X161474279Y-78041518D01*
X161520287Y-78027715D01*
X161699042Y-77974086D01*
X161699047Y-77974084D01*
X161703997Y-77972599D01*
X161919374Y-77867087D01*
X161923579Y-77864087D01*
X161923585Y-77864084D01*
X162026639Y-77790576D01*
X162114627Y-77727815D01*
X162284511Y-77558523D01*
X162293319Y-77546266D01*
X162421445Y-77367958D01*
X162424463Y-77363758D01*
X162430687Y-77351166D01*
X162528433Y-77153392D01*
X162528434Y-77153390D01*
X162530727Y-77148750D01*
X162600447Y-76919274D01*
X162631752Y-76681492D01*
X162632640Y-76645161D01*
X162633417Y-76613365D01*
X162633417Y-76613361D01*
X162633499Y-76610000D01*
X162618670Y-76429631D01*
X162614271Y-76376124D01*
X162614270Y-76376118D01*
X162613847Y-76370973D01*
X162572475Y-76206262D01*
X162556679Y-76143375D01*
X162556678Y-76143371D01*
X162555420Y-76138364D01*
X162553362Y-76133631D01*
X162553359Y-76133622D01*
X162539554Y-76101874D01*
X162530733Y-76031428D01*
X162561399Y-75967395D01*
X162621816Y-75930108D01*
X162659720Y-75925716D01*
X162825725Y-75931803D01*
X162825729Y-75931803D01*
X162830889Y-75931992D01*
X162836009Y-75931336D01*
X162836011Y-75931336D01*
X163063651Y-75902175D01*
X163063652Y-75902175D01*
X163068779Y-75901518D01*
X163078965Y-75898462D01*
X163293542Y-75834086D01*
X163293547Y-75834084D01*
X163298497Y-75832599D01*
X163513874Y-75727087D01*
X163518079Y-75724087D01*
X163518085Y-75724084D01*
X163632813Y-75642249D01*
X163709127Y-75587815D01*
X163712784Y-75584171D01*
X163826101Y-75471249D01*
X163888473Y-75437333D01*
X163915041Y-75434500D01*
X164562000Y-75434500D01*
X164630121Y-75454502D01*
X164676614Y-75508158D01*
X164688000Y-75560500D01*
X164688000Y-75946789D01*
X164681593Y-75986455D01*
X164647203Y-76090139D01*
X164646503Y-76096975D01*
X164646502Y-76096978D01*
X164645475Y-76107000D01*
X164636500Y-76194600D01*
X164636500Y-77245400D01*
X164636837Y-77248646D01*
X164636837Y-77248650D01*
X164646618Y-77342914D01*
X164647474Y-77351166D01*
X164649655Y-77357702D01*
X164649655Y-77357704D01*
X164681782Y-77454000D01*
X164703450Y-77518946D01*
X164796522Y-77669348D01*
X164921697Y-77794305D01*
X164927927Y-77798145D01*
X164927928Y-77798146D01*
X165065288Y-77882816D01*
X165072262Y-77887115D01*
X165152005Y-77913564D01*
X165233611Y-77940632D01*
X165233613Y-77940632D01*
X165240139Y-77942797D01*
X165246975Y-77943497D01*
X165246978Y-77943498D01*
X165290031Y-77947909D01*
X165344600Y-77953500D01*
X166120400Y-77953500D01*
X166123646Y-77953163D01*
X166123650Y-77953163D01*
X166219308Y-77943238D01*
X166219312Y-77943237D01*
X166226166Y-77942526D01*
X166232702Y-77940345D01*
X166232704Y-77940345D01*
X166364806Y-77896272D01*
X166393946Y-77886550D01*
X166544348Y-77793478D01*
X166561260Y-77776537D01*
X166645528Y-77692121D01*
X166669305Y-77668303D01*
X166672102Y-77663765D01*
X166729353Y-77623176D01*
X166800276Y-77619946D01*
X166861687Y-77655572D01*
X166869062Y-77664068D01*
X166877098Y-77674207D01*
X166991829Y-77788739D01*
X167003240Y-77797751D01*
X167141243Y-77882816D01*
X167154424Y-77888963D01*
X167308710Y-77940138D01*
X167322086Y-77943005D01*
X167416438Y-77952672D01*
X167422854Y-77953000D01*
X167535385Y-77953000D01*
X167550624Y-77948525D01*
X167551829Y-77947135D01*
X167553500Y-77939452D01*
X167553500Y-77934884D01*
X168061500Y-77934884D01*
X168065975Y-77950123D01*
X168067365Y-77951328D01*
X168075048Y-77952999D01*
X168192095Y-77952999D01*
X168198614Y-77952662D01*
X168294206Y-77942743D01*
X168307600Y-77939851D01*
X168461784Y-77888412D01*
X168474962Y-77882239D01*
X168612807Y-77796937D01*
X168624208Y-77787901D01*
X168738739Y-77673171D01*
X168747751Y-77661760D01*
X168832816Y-77523757D01*
X168838963Y-77510576D01*
X168890138Y-77356290D01*
X168893005Y-77342914D01*
X168902672Y-77248562D01*
X168903000Y-77242146D01*
X168903000Y-76992115D01*
X168898525Y-76976876D01*
X168897135Y-76975671D01*
X168889452Y-76974000D01*
X168079615Y-76974000D01*
X168064376Y-76978475D01*
X168063171Y-76979865D01*
X168061500Y-76987548D01*
X168061500Y-77934884D01*
X167553500Y-77934884D01*
X167553500Y-76592000D01*
X167573502Y-76523879D01*
X167627158Y-76477386D01*
X167679500Y-76466000D01*
X168884884Y-76466000D01*
X168900123Y-76461525D01*
X168901328Y-76460135D01*
X168902999Y-76452452D01*
X168902999Y-76197905D01*
X168902662Y-76191386D01*
X168892743Y-76095794D01*
X168889851Y-76082400D01*
X168838412Y-75928216D01*
X168832239Y-75915038D01*
X168746937Y-75777193D01*
X168737901Y-75765792D01*
X168623171Y-75651261D01*
X168611760Y-75642249D01*
X168473757Y-75557184D01*
X168460576Y-75551037D01*
X168306290Y-75499862D01*
X168292914Y-75496995D01*
X168198562Y-75487328D01*
X168192145Y-75487000D01*
X168183396Y-75487000D01*
X168115275Y-75466998D01*
X168068782Y-75413342D01*
X168058678Y-75343068D01*
X168088172Y-75278488D01*
X168117093Y-75253856D01*
X168172490Y-75219575D01*
X168183890Y-75210540D01*
X168296363Y-75097871D01*
X168305375Y-75086460D01*
X168388912Y-74950937D01*
X168395056Y-74937759D01*
X168445315Y-74786234D01*
X168448181Y-74772868D01*
X168457672Y-74680230D01*
X168458000Y-74673815D01*
X168458000Y-74662115D01*
X168453525Y-74646876D01*
X168452135Y-74645671D01*
X168444452Y-74644000D01*
X167284500Y-74644000D01*
X167216379Y-74623998D01*
X167169886Y-74570342D01*
X167158500Y-74518000D01*
X167158500Y-74117885D01*
X167666500Y-74117885D01*
X167670975Y-74133124D01*
X167672365Y-74134329D01*
X167680048Y-74136000D01*
X168439885Y-74136000D01*
X168455124Y-74131525D01*
X168456329Y-74130135D01*
X168458000Y-74122452D01*
X168458000Y-74106234D01*
X168457663Y-74099718D01*
X168447925Y-74005868D01*
X168445032Y-73992472D01*
X168394512Y-73841047D01*
X168388347Y-73827885D01*
X168304574Y-73692508D01*
X168295540Y-73681110D01*
X168182871Y-73568637D01*
X168171460Y-73559625D01*
X168035937Y-73476088D01*
X168022759Y-73469944D01*
X167871234Y-73419685D01*
X167857868Y-73416819D01*
X167765230Y-73407328D01*
X167758815Y-73407000D01*
X167684615Y-73407000D01*
X167669376Y-73411475D01*
X167668171Y-73412865D01*
X167666500Y-73420548D01*
X167666500Y-74117885D01*
X167158500Y-74117885D01*
X167158500Y-73425115D01*
X167154025Y-73409876D01*
X167152635Y-73408671D01*
X167144952Y-73407000D01*
X167066234Y-73407000D01*
X167059718Y-73407337D01*
X166965868Y-73417075D01*
X166952472Y-73419968D01*
X166801047Y-73470488D01*
X166787885Y-73476653D01*
X166652508Y-73560426D01*
X166641106Y-73569464D01*
X166639433Y-73571139D01*
X166638007Y-73571919D01*
X166635373Y-73574007D01*
X166635016Y-73573556D01*
X166577151Y-73605219D01*
X166506331Y-73600216D01*
X166461246Y-73571299D01*
X166458185Y-73568244D01*
X166453003Y-73563071D01*
X166446772Y-73559230D01*
X166311150Y-73475631D01*
X166311148Y-73475630D01*
X166304920Y-73471791D01*
X166139809Y-73417026D01*
X166132974Y-73416326D01*
X166132971Y-73416325D01*
X166058638Y-73408709D01*
X166034645Y-73403860D01*
X165998790Y-73392899D01*
X165997527Y-73392506D01*
X165983068Y-73387919D01*
X165905715Y-73363381D01*
X165900226Y-73362765D01*
X165894952Y-73361153D01*
X165799153Y-73351422D01*
X165797972Y-73351296D01*
X165767119Y-73347835D01*
X165749799Y-73345892D01*
X165749794Y-73345892D01*
X165746302Y-73345500D01*
X165742778Y-73345500D01*
X165741363Y-73345421D01*
X165735664Y-73344972D01*
X165726468Y-73344038D01*
X165697291Y-73341074D01*
X165697287Y-73341074D01*
X165691164Y-73340452D01*
X165643676Y-73344941D01*
X165631818Y-73345500D01*
X163737774Y-73345500D01*
X163669653Y-73325498D01*
X163659693Y-73318391D01*
X163656318Y-73315725D01*
X163615250Y-73257814D01*
X163612010Y-73186892D01*
X163645460Y-73127585D01*
X163656695Y-73116389D01*
X163762190Y-73011262D01*
X163902142Y-72816497D01*
X163941494Y-72736876D01*
X164006112Y-72606131D01*
X164006113Y-72606129D01*
X164008406Y-72601489D01*
X164078126Y-72372013D01*
X164108335Y-72142553D01*
X164137057Y-72077627D01*
X164196323Y-72038535D01*
X164233257Y-72033000D01*
X165720195Y-72033000D01*
X165733802Y-72033737D01*
X165766883Y-72037331D01*
X165766888Y-72037331D01*
X165773009Y-72037996D01*
X165790753Y-72036444D01*
X165824735Y-72033471D01*
X165829561Y-72033142D01*
X165832462Y-72033000D01*
X165835544Y-72033000D01*
X165847335Y-72031844D01*
X165879870Y-72028654D01*
X165881183Y-72028533D01*
X165970920Y-72020682D01*
X165970932Y-72020680D01*
X165977067Y-72020143D01*
X165982366Y-72018604D01*
X165987859Y-72018065D01*
X166080080Y-71990222D01*
X166081217Y-71989885D01*
X166173771Y-71962996D01*
X166178671Y-71960456D01*
X166183954Y-71958861D01*
X166215486Y-71942095D01*
X167347001Y-71942095D01*
X167347338Y-71948614D01*
X167357257Y-72044206D01*
X167360149Y-72057600D01*
X167411588Y-72211784D01*
X167417761Y-72224962D01*
X167503063Y-72362807D01*
X167512099Y-72374208D01*
X167626829Y-72488739D01*
X167638240Y-72497751D01*
X167776243Y-72582816D01*
X167789424Y-72588963D01*
X167943710Y-72640138D01*
X167957086Y-72643005D01*
X168051438Y-72652672D01*
X168057854Y-72653000D01*
X168307885Y-72653000D01*
X168323124Y-72648525D01*
X168324329Y-72647135D01*
X168326000Y-72639452D01*
X168326000Y-71829615D01*
X168321525Y-71814376D01*
X168320135Y-71813171D01*
X168312452Y-71811500D01*
X167365116Y-71811500D01*
X167349877Y-71815975D01*
X167348672Y-71817365D01*
X167347001Y-71825048D01*
X167347001Y-71942095D01*
X166215486Y-71942095D01*
X166268993Y-71913645D01*
X166270041Y-71913095D01*
X166350159Y-71871566D01*
X166350160Y-71871565D01*
X166355628Y-71868731D01*
X166359945Y-71865285D01*
X166364814Y-71862696D01*
X166439550Y-71801743D01*
X166440356Y-71801093D01*
X166480994Y-71768652D01*
X166483488Y-71766158D01*
X166484527Y-71765229D01*
X166488878Y-71761513D01*
X166518772Y-71737132D01*
X166518775Y-71737129D01*
X166523552Y-71733233D01*
X166528594Y-71727139D01*
X166553959Y-71696477D01*
X166561949Y-71687697D01*
X167131905Y-71117741D01*
X167194217Y-71083715D01*
X167265032Y-71088780D01*
X167321868Y-71131327D01*
X167346679Y-71197847D01*
X167347000Y-71206836D01*
X167347000Y-71285385D01*
X167351475Y-71300624D01*
X167352865Y-71301829D01*
X167360548Y-71303500D01*
X168708000Y-71303500D01*
X168776121Y-71323502D01*
X168822614Y-71377158D01*
X168834000Y-71429500D01*
X168834000Y-72634884D01*
X168838475Y-72650123D01*
X168839865Y-72651328D01*
X168847548Y-72652999D01*
X169102095Y-72652999D01*
X169108614Y-72652662D01*
X169204206Y-72642743D01*
X169217600Y-72639851D01*
X169371784Y-72588412D01*
X169384962Y-72582239D01*
X169522807Y-72496937D01*
X169534208Y-72487901D01*
X169648739Y-72373171D01*
X169657751Y-72361760D01*
X169742816Y-72223757D01*
X169748963Y-72210576D01*
X169800138Y-72056290D01*
X169803005Y-72042915D01*
X169805314Y-72020382D01*
X169832156Y-71954655D01*
X169890271Y-71913874D01*
X169961209Y-71910986D01*
X170019676Y-71944053D01*
X170102129Y-72026363D01*
X170113540Y-72035375D01*
X170249063Y-72118912D01*
X170262241Y-72125056D01*
X170413766Y-72175315D01*
X170427132Y-72178181D01*
X170519770Y-72187672D01*
X170526185Y-72188000D01*
X170537885Y-72188000D01*
X170553124Y-72183525D01*
X170554329Y-72182135D01*
X170556000Y-72174452D01*
X170556000Y-72169885D01*
X171064000Y-72169885D01*
X171068475Y-72185124D01*
X171069865Y-72186329D01*
X171077548Y-72188000D01*
X171093766Y-72188000D01*
X171100282Y-72187663D01*
X171194132Y-72177925D01*
X171207528Y-72175032D01*
X171358953Y-72124512D01*
X171372115Y-72118347D01*
X171507492Y-72034574D01*
X171518890Y-72025540D01*
X171631363Y-71912871D01*
X171640375Y-71901460D01*
X171723912Y-71765937D01*
X171730056Y-71752759D01*
X171780315Y-71601234D01*
X171783181Y-71587868D01*
X171792672Y-71495230D01*
X171793000Y-71488815D01*
X171793000Y-71464615D01*
X171788525Y-71449376D01*
X171787135Y-71448171D01*
X171779452Y-71446500D01*
X171082115Y-71446500D01*
X171066876Y-71450975D01*
X171065671Y-71452365D01*
X171064000Y-71460048D01*
X171064000Y-72169885D01*
X170556000Y-72169885D01*
X170556000Y-71064500D01*
X170576002Y-70996379D01*
X170629658Y-70949886D01*
X170682000Y-70938500D01*
X171774885Y-70938500D01*
X171790124Y-70934025D01*
X171791329Y-70932635D01*
X171793000Y-70924952D01*
X171793000Y-70896234D01*
X171792663Y-70889718D01*
X171782925Y-70795868D01*
X171780032Y-70782472D01*
X171729512Y-70631047D01*
X171723347Y-70617885D01*
X171639574Y-70482508D01*
X171630540Y-70471110D01*
X171528860Y-70369607D01*
X171494781Y-70307324D01*
X171499784Y-70236504D01*
X171528705Y-70191416D01*
X171529022Y-70191099D01*
X171636929Y-70083003D01*
X171728209Y-69934920D01*
X171782974Y-69769809D01*
X171783820Y-69761554D01*
X171788929Y-69736718D01*
X171796717Y-69711866D01*
X171837374Y-69582130D01*
X171841159Y-69547293D01*
X171858831Y-69384616D01*
X171858831Y-69384612D01*
X171859496Y-69378491D01*
X171844621Y-69208469D01*
X171842180Y-69180566D01*
X171842179Y-69180562D01*
X171841643Y-69174433D01*
X171822003Y-69106829D01*
X171817000Y-69071679D01*
X171817000Y-68065976D01*
X171835740Y-67999860D01*
X171838033Y-67996141D01*
X171877115Y-67932738D01*
X171925330Y-67787373D01*
X171930632Y-67771389D01*
X171930632Y-67771387D01*
X171932797Y-67764861D01*
X171933783Y-67755243D01*
X171939732Y-67697171D01*
X171943500Y-67660400D01*
X171943500Y-67437433D01*
X171963502Y-67369312D01*
X172017158Y-67322819D01*
X172087432Y-67312715D01*
X172152012Y-67342209D01*
X172185909Y-67389215D01*
X172272073Y-67597232D01*
X172339883Y-67707888D01*
X172395208Y-67798171D01*
X172400248Y-67806396D01*
X172403463Y-67810160D01*
X172403465Y-67810163D01*
X172540090Y-67970129D01*
X172559567Y-67992933D01*
X172563323Y-67996141D01*
X172652569Y-68072365D01*
X172691378Y-68131816D01*
X172691884Y-68202811D01*
X172652569Y-68263987D01*
X172584567Y-68322067D01*
X172581359Y-68325823D01*
X172474805Y-68450581D01*
X172425248Y-68508604D01*
X172422660Y-68512827D01*
X172422658Y-68512830D01*
X172388152Y-68569140D01*
X172297073Y-68717768D01*
X172270583Y-68781720D01*
X172217862Y-68909000D01*
X172203195Y-68944408D01*
X172194732Y-68979658D01*
X172152027Y-69157540D01*
X172145928Y-69182943D01*
X172126681Y-69427500D01*
X172145928Y-69672057D01*
X172147082Y-69676864D01*
X172147083Y-69676870D01*
X172167416Y-69761562D01*
X172203195Y-69910592D01*
X172205088Y-69915163D01*
X172205089Y-69915165D01*
X172217033Y-69944000D01*
X172297073Y-70137232D01*
X172368249Y-70253382D01*
X172411648Y-70324202D01*
X172425248Y-70346396D01*
X172428463Y-70350160D01*
X172428465Y-70350163D01*
X172542381Y-70483540D01*
X172584567Y-70532933D01*
X172588323Y-70536141D01*
X172665069Y-70601689D01*
X172703878Y-70661140D01*
X172704384Y-70732135D01*
X172665069Y-70793311D01*
X172632930Y-70820761D01*
X172584567Y-70862067D01*
X172581359Y-70865823D01*
X172438157Y-71033490D01*
X172425248Y-71048604D01*
X172422660Y-71052827D01*
X172422658Y-71052830D01*
X172403732Y-71083715D01*
X172297073Y-71257768D01*
X172272223Y-71317761D01*
X172211394Y-71464615D01*
X172203195Y-71484408D01*
X172202040Y-71489220D01*
X172152282Y-71696477D01*
X172145928Y-71722943D01*
X172126681Y-71967500D01*
X172145928Y-72212057D01*
X172147082Y-72216864D01*
X172147083Y-72216870D01*
X172148874Y-72224329D01*
X172203195Y-72450592D01*
X172297073Y-72677232D01*
X172425248Y-72886396D01*
X172428463Y-72890160D01*
X172428465Y-72890163D01*
X172532525Y-73012000D01*
X172584567Y-73072933D01*
X172588323Y-73076141D01*
X172665069Y-73141689D01*
X172703878Y-73201140D01*
X172704384Y-73272135D01*
X172665069Y-73333311D01*
X172595301Y-73392899D01*
X172584567Y-73402067D01*
X172581359Y-73405823D01*
X172440165Y-73571139D01*
X172425248Y-73588604D01*
X172297073Y-73797768D01*
X172257692Y-73892842D01*
X172206167Y-74017234D01*
X172203195Y-74024408D01*
X172201232Y-74032584D01*
X172149136Y-74249581D01*
X172145928Y-74262943D01*
X172126681Y-74507500D01*
X172145928Y-74752057D01*
X172203195Y-74990592D01*
X172205088Y-74995163D01*
X172205089Y-74995165D01*
X172224168Y-75041225D01*
X172297073Y-75217232D01*
X172346867Y-75298489D01*
X172417249Y-75413342D01*
X172425248Y-75426396D01*
X172428463Y-75430160D01*
X172428465Y-75430163D01*
X172570249Y-75596169D01*
X172584567Y-75612933D01*
X172588323Y-75616141D01*
X172665069Y-75681689D01*
X172703878Y-75741140D01*
X172704384Y-75812135D01*
X172665069Y-75873311D01*
X172606075Y-75923697D01*
X172584567Y-75942067D01*
X172581359Y-75945823D01*
X172433118Y-76119390D01*
X172425248Y-76128604D01*
X172422660Y-76132827D01*
X172422658Y-76132830D01*
X172382781Y-76197905D01*
X172297073Y-76337768D01*
X172203195Y-76564408D01*
X172192861Y-76607454D01*
X172153837Y-76770000D01*
X172145928Y-76802943D01*
X172126681Y-77047500D01*
X172145928Y-77292057D01*
X172147082Y-77296864D01*
X172147083Y-77296870D01*
X172175541Y-77415405D01*
X172203195Y-77530592D01*
X172205088Y-77535163D01*
X172205089Y-77535165D01*
X172228763Y-77592319D01*
X172297073Y-77757232D01*
X172374312Y-77883275D01*
X172405832Y-77934712D01*
X172424370Y-78003245D01*
X172402913Y-78070922D01*
X172373965Y-78101372D01*
X172276739Y-78174239D01*
X172189385Y-78290795D01*
X172138255Y-78427184D01*
X172131500Y-78489366D01*
X172131500Y-80685634D01*
X172138255Y-80747816D01*
X172189385Y-80884205D01*
X172276739Y-81000761D01*
X172393295Y-81088115D01*
X172529684Y-81139245D01*
X172591866Y-81146000D01*
X174788134Y-81146000D01*
X174850316Y-81139245D01*
X174986705Y-81088115D01*
X175103261Y-81000761D01*
X175190615Y-80884205D01*
X175241745Y-80747816D01*
X175248500Y-80685634D01*
X175248500Y-78489366D01*
X175241745Y-78427184D01*
X175190615Y-78290795D01*
X175103261Y-78174239D01*
X175006035Y-78101372D01*
X174963521Y-78044512D01*
X174958496Y-77973694D01*
X174974168Y-77934712D01*
X175005688Y-77883275D01*
X175082927Y-77757232D01*
X175151237Y-77592319D01*
X175174911Y-77535165D01*
X175174912Y-77535163D01*
X175176805Y-77530592D01*
X175204459Y-77415405D01*
X175232917Y-77296870D01*
X175232918Y-77296864D01*
X175234072Y-77292057D01*
X175253319Y-77047500D01*
X175234072Y-76802943D01*
X175226164Y-76770000D01*
X175187139Y-76607454D01*
X175176805Y-76564408D01*
X175082927Y-76337768D01*
X174997219Y-76197905D01*
X174957342Y-76132830D01*
X174957340Y-76132827D01*
X174954752Y-76128604D01*
X174946883Y-76119390D01*
X174798641Y-75945823D01*
X174795433Y-75942067D01*
X174773925Y-75923697D01*
X174714931Y-75873311D01*
X174676122Y-75813860D01*
X174675616Y-75742865D01*
X174714931Y-75681689D01*
X174791677Y-75616141D01*
X174795433Y-75612933D01*
X174809751Y-75596169D01*
X174951535Y-75430163D01*
X174951537Y-75430160D01*
X174954752Y-75426396D01*
X174962752Y-75413342D01*
X175033133Y-75298489D01*
X175082927Y-75217232D01*
X175155832Y-75041225D01*
X175174911Y-74995165D01*
X175174912Y-74995163D01*
X175176805Y-74990592D01*
X175234072Y-74752057D01*
X175253319Y-74507500D01*
X175234072Y-74262943D01*
X175230865Y-74249581D01*
X175178768Y-74032584D01*
X175176805Y-74024408D01*
X175173834Y-74017234D01*
X175122308Y-73892842D01*
X175082927Y-73797768D01*
X174954752Y-73588604D01*
X174939836Y-73571139D01*
X174798641Y-73405823D01*
X174795433Y-73402067D01*
X174784699Y-73392899D01*
X174714931Y-73333311D01*
X174676122Y-73273860D01*
X174675616Y-73202865D01*
X174714931Y-73141689D01*
X174791677Y-73076141D01*
X174795433Y-73072933D01*
X174847475Y-73012000D01*
X174951535Y-72890163D01*
X174951537Y-72890160D01*
X174954752Y-72886396D01*
X175082927Y-72677232D01*
X175176805Y-72450592D01*
X175231126Y-72224329D01*
X175232917Y-72216870D01*
X175232918Y-72216864D01*
X175234072Y-72212057D01*
X175253319Y-71967500D01*
X175234072Y-71722943D01*
X175227719Y-71696477D01*
X175177960Y-71489220D01*
X175176805Y-71484408D01*
X175168607Y-71464615D01*
X175107777Y-71317761D01*
X175082927Y-71257768D01*
X174976268Y-71083715D01*
X174957342Y-71052830D01*
X174957340Y-71052827D01*
X174954752Y-71048604D01*
X174941844Y-71033490D01*
X174798641Y-70865823D01*
X174795433Y-70862067D01*
X174747070Y-70820761D01*
X174714931Y-70793311D01*
X174676122Y-70733860D01*
X174675616Y-70662865D01*
X174714931Y-70601689D01*
X174791677Y-70536141D01*
X174795433Y-70532933D01*
X174837619Y-70483540D01*
X174951535Y-70350163D01*
X174951537Y-70350160D01*
X174954752Y-70346396D01*
X174968353Y-70324202D01*
X175011751Y-70253382D01*
X175082927Y-70137232D01*
X175162967Y-69944000D01*
X175174911Y-69915165D01*
X175174912Y-69915163D01*
X175176805Y-69910592D01*
X175212584Y-69761562D01*
X175232917Y-69676870D01*
X175232918Y-69676864D01*
X175234072Y-69672057D01*
X175253319Y-69427500D01*
X175234072Y-69182943D01*
X175227974Y-69157540D01*
X175185268Y-68979658D01*
X175176805Y-68944408D01*
X175162139Y-68909000D01*
X175109417Y-68781720D01*
X175082927Y-68717768D01*
X174991848Y-68569140D01*
X174957342Y-68512830D01*
X174957340Y-68512827D01*
X174954752Y-68508604D01*
X174905196Y-68450581D01*
X174798641Y-68325823D01*
X174795433Y-68322067D01*
X174702431Y-68242635D01*
X174663622Y-68183184D01*
X174663116Y-68112189D01*
X174702431Y-68051013D01*
X174766677Y-67996141D01*
X174770433Y-67992933D01*
X174789910Y-67970129D01*
X174926535Y-67810163D01*
X174926537Y-67810160D01*
X174929752Y-67806396D01*
X174934793Y-67798171D01*
X174990117Y-67707888D01*
X175057927Y-67597232D01*
X175151805Y-67370592D01*
X175186882Y-67224485D01*
X175207917Y-67136870D01*
X175207918Y-67136864D01*
X175209072Y-67132057D01*
X175228319Y-66887500D01*
X175209072Y-66642943D01*
X175205338Y-66627386D01*
X175168483Y-66473879D01*
X175151805Y-66404408D01*
X175057927Y-66177768D01*
X174941186Y-65987262D01*
X174932342Y-65972830D01*
X174932340Y-65972827D01*
X174929752Y-65968604D01*
X174922663Y-65960303D01*
X174773641Y-65785823D01*
X174770433Y-65782067D01*
X174704297Y-65725581D01*
X174689931Y-65713311D01*
X174651122Y-65653860D01*
X174650616Y-65582865D01*
X174689931Y-65521689D01*
X174766677Y-65456141D01*
X174770433Y-65452933D01*
X174773641Y-65449177D01*
X174926535Y-65270163D01*
X174926537Y-65270160D01*
X174929752Y-65266396D01*
X174963498Y-65211328D01*
X174990130Y-65167867D01*
X175057927Y-65057232D01*
X175120556Y-64906034D01*
X175149911Y-64835165D01*
X175149912Y-64835163D01*
X175151805Y-64830592D01*
X175195379Y-64649094D01*
X175207917Y-64596870D01*
X175207918Y-64596864D01*
X175209072Y-64592057D01*
X175228319Y-64347500D01*
X175209072Y-64102943D01*
X175151805Y-63864408D01*
X175139824Y-63835482D01*
X175079244Y-63689232D01*
X175057927Y-63637768D01*
X174942887Y-63450038D01*
X174932342Y-63432830D01*
X174932340Y-63432827D01*
X174929752Y-63428604D01*
X174915392Y-63411790D01*
X174773641Y-63245823D01*
X174770433Y-63242067D01*
X174714584Y-63194367D01*
X174689931Y-63173311D01*
X174651122Y-63113860D01*
X174650616Y-63042865D01*
X174689931Y-62981689D01*
X174766677Y-62916141D01*
X174770433Y-62912933D01*
X174843900Y-62826915D01*
X174926535Y-62730163D01*
X174926537Y-62730160D01*
X174929752Y-62726396D01*
X174952333Y-62689548D01*
X174983232Y-62639124D01*
X175057927Y-62517232D01*
X175151805Y-62290592D01*
X175209072Y-62052057D01*
X175228319Y-61807500D01*
X175209072Y-61562943D01*
X175207332Y-61555692D01*
X175171649Y-61407063D01*
X175151805Y-61324408D01*
X175147748Y-61314612D01*
X175084644Y-61162269D01*
X175057927Y-61097768D01*
X174969520Y-60953500D01*
X174932342Y-60892830D01*
X174932340Y-60892827D01*
X174929752Y-60888604D01*
X174922001Y-60879528D01*
X174773641Y-60705823D01*
X174770433Y-60702067D01*
X174723605Y-60662072D01*
X174687004Y-60630811D01*
X174648195Y-60571360D01*
X174647689Y-60500365D01*
X174687004Y-60439189D01*
X174766677Y-60371141D01*
X174770433Y-60367933D01*
X174791709Y-60343022D01*
X174926535Y-60185163D01*
X174926537Y-60185160D01*
X174929752Y-60181396D01*
X174943769Y-60158523D01*
X174995349Y-60074351D01*
X175057927Y-59972232D01*
X175129586Y-59799233D01*
X175149911Y-59750165D01*
X175149912Y-59750163D01*
X175151805Y-59745592D01*
X175209072Y-59507057D01*
X175228319Y-59262500D01*
X175209072Y-59017943D01*
X175203607Y-58995176D01*
X175156948Y-58800832D01*
X175151805Y-58779408D01*
X175120842Y-58704656D01*
X175102288Y-58659865D01*
X175057927Y-58552768D01*
X174955148Y-58385047D01*
X174932342Y-58347830D01*
X174932340Y-58347827D01*
X174929752Y-58343604D01*
X174883819Y-58289823D01*
X174773641Y-58160823D01*
X174770433Y-58157067D01*
X174659474Y-58062298D01*
X174587663Y-58000965D01*
X174587660Y-58000963D01*
X174583896Y-57997748D01*
X174579673Y-57995160D01*
X174579670Y-57995158D01*
X174456341Y-57919583D01*
X174374732Y-57869573D01*
X174205936Y-57799655D01*
X174152665Y-57777589D01*
X174152663Y-57777588D01*
X174148092Y-57775695D01*
X174065437Y-57755851D01*
X173914370Y-57719583D01*
X173914364Y-57719582D01*
X173909557Y-57718428D01*
X173665000Y-57699181D01*
X173420443Y-57718428D01*
X173415636Y-57719582D01*
X173415630Y-57719583D01*
X173264563Y-57755851D01*
X173181908Y-57775695D01*
X173177337Y-57777588D01*
X173177335Y-57777589D01*
X173124064Y-57799655D01*
X172955268Y-57869573D01*
X172873659Y-57919583D01*
X172750330Y-57995158D01*
X172750327Y-57995160D01*
X172746104Y-57997748D01*
X172742340Y-58000963D01*
X172742337Y-58000965D01*
X172670526Y-58062298D01*
X172559567Y-58157067D01*
X172556359Y-58160823D01*
X172446182Y-58289823D01*
X172400248Y-58343604D01*
X172397660Y-58347827D01*
X172397658Y-58347830D01*
X172374852Y-58385047D01*
X172272073Y-58552768D01*
X172227712Y-58659865D01*
X172209159Y-58704656D01*
X172178195Y-58779408D01*
X172173052Y-58800832D01*
X172126394Y-58995176D01*
X172120928Y-59017943D01*
X172101681Y-59262500D01*
X172120928Y-59507057D01*
X172178195Y-59745592D01*
X172180088Y-59750163D01*
X172180089Y-59750165D01*
X172200414Y-59799233D01*
X172272073Y-59972232D01*
X172334651Y-60074351D01*
X172386232Y-60158523D01*
X172400248Y-60181396D01*
X172403463Y-60185160D01*
X172403465Y-60185163D01*
X172538291Y-60343022D01*
X172559567Y-60367933D01*
X172563323Y-60371141D01*
X172642996Y-60439189D01*
X172681805Y-60498640D01*
X172682311Y-60569635D01*
X172642996Y-60630811D01*
X172606395Y-60662072D01*
X172559567Y-60702067D01*
X172556359Y-60705823D01*
X172408000Y-60879528D01*
X172400248Y-60888604D01*
X172397660Y-60892827D01*
X172397658Y-60892830D01*
X172360480Y-60953500D01*
X172272073Y-61097768D01*
X172245356Y-61162269D01*
X172182253Y-61314612D01*
X172178195Y-61324408D01*
X172158351Y-61407063D01*
X172122669Y-61555692D01*
X172120928Y-61562943D01*
X172101681Y-61807500D01*
X172120928Y-62052057D01*
X172178195Y-62290592D01*
X172272073Y-62517232D01*
X172346768Y-62639124D01*
X172377668Y-62689548D01*
X172400248Y-62726396D01*
X172403463Y-62730160D01*
X172403465Y-62730163D01*
X172486100Y-62826915D01*
X172559567Y-62912933D01*
X172563323Y-62916141D01*
X172640069Y-62981689D01*
X172678878Y-63041140D01*
X172679384Y-63112135D01*
X172640069Y-63173311D01*
X172615416Y-63194367D01*
X172559567Y-63242067D01*
X172556359Y-63245823D01*
X172414609Y-63411790D01*
X172400248Y-63428604D01*
X172397660Y-63432827D01*
X172397658Y-63432830D01*
X172387113Y-63450038D01*
X172272073Y-63637768D01*
X172250756Y-63689232D01*
X172190177Y-63835482D01*
X172178195Y-63864408D01*
X172120928Y-64102943D01*
X172101681Y-64347500D01*
X172120928Y-64592057D01*
X172122082Y-64596864D01*
X172122083Y-64596870D01*
X172134621Y-64649094D01*
X172178195Y-64830592D01*
X172180088Y-64835163D01*
X172180089Y-64835165D01*
X172209444Y-64906034D01*
X172272073Y-65057232D01*
X172339870Y-65167867D01*
X172366503Y-65211328D01*
X172400248Y-65266396D01*
X172403463Y-65270160D01*
X172403465Y-65270163D01*
X172556359Y-65449177D01*
X172559567Y-65452933D01*
X172563323Y-65456141D01*
X172640069Y-65521689D01*
X172678878Y-65581140D01*
X172679384Y-65652135D01*
X172640069Y-65713311D01*
X172625703Y-65725581D01*
X172559567Y-65782067D01*
X172556359Y-65785823D01*
X172407338Y-65960303D01*
X172400248Y-65968604D01*
X172397660Y-65972827D01*
X172397658Y-65972830D01*
X172388814Y-65987262D01*
X172272073Y-66177768D01*
X172236824Y-66262866D01*
X172185909Y-66385785D01*
X172141360Y-66441066D01*
X172073997Y-66463487D01*
X172005206Y-66445929D01*
X171956827Y-66393967D01*
X171943500Y-66337567D01*
X171943500Y-66259600D01*
X171935484Y-66182339D01*
X171933238Y-66160692D01*
X171933237Y-66160688D01*
X171932526Y-66153834D01*
X171924201Y-66128879D01*
X171878868Y-65993002D01*
X171876550Y-65986054D01*
X171783478Y-65835652D01*
X171658303Y-65710695D01*
X171651423Y-65706454D01*
X171513968Y-65621725D01*
X171513966Y-65621724D01*
X171507738Y-65617885D01*
X171417161Y-65587842D01*
X171346389Y-65564368D01*
X171346387Y-65564368D01*
X171339861Y-65562203D01*
X171333025Y-65561503D01*
X171333022Y-65561502D01*
X171289969Y-65557091D01*
X171235400Y-65551500D01*
X170309600Y-65551500D01*
X170306354Y-65551837D01*
X170306350Y-65551837D01*
X170210692Y-65561762D01*
X170210688Y-65561763D01*
X170203834Y-65562474D01*
X170197298Y-65564655D01*
X170197296Y-65564655D01*
X170127797Y-65587842D01*
X170036054Y-65618450D01*
X169885652Y-65711522D01*
X169760695Y-65836697D01*
X169756855Y-65842927D01*
X169756854Y-65842928D01*
X169695452Y-65942541D01*
X169667885Y-65987262D01*
X169665581Y-65994209D01*
X169631801Y-66096054D01*
X169612203Y-66155139D01*
X169601500Y-66259600D01*
X169601500Y-67660400D01*
X169601837Y-67663646D01*
X169601837Y-67663650D01*
X169611341Y-67755243D01*
X169612474Y-67766166D01*
X169614655Y-67772702D01*
X169614655Y-67772704D01*
X169653153Y-67888095D01*
X169668450Y-67933946D01*
X169709145Y-67999707D01*
X169728000Y-68066009D01*
X169728000Y-68444422D01*
X169707998Y-68512543D01*
X169654342Y-68559036D01*
X169584068Y-68569140D01*
X169528548Y-68545297D01*
X169528303Y-68545695D01*
X169525613Y-68544037D01*
X169525614Y-68544037D01*
X169377738Y-68452885D01*
X169278948Y-68420118D01*
X169216389Y-68399368D01*
X169216387Y-68399368D01*
X169209861Y-68397203D01*
X169203025Y-68396503D01*
X169203022Y-68396502D01*
X169159969Y-68392091D01*
X169105400Y-68386500D01*
X168807765Y-68386500D01*
X168739644Y-68366498D01*
X168693151Y-68312842D01*
X168682410Y-68247767D01*
X168682932Y-68242635D01*
X168686081Y-68211634D01*
X168686216Y-68210364D01*
X168691608Y-68162300D01*
X168691608Y-68162293D01*
X168692000Y-68158802D01*
X168692000Y-68155279D01*
X168692079Y-68153864D01*
X168692528Y-68148161D01*
X168696426Y-68109791D01*
X168696426Y-68109786D01*
X168697048Y-68103663D01*
X168694334Y-68074954D01*
X168707836Y-68005254D01*
X168712516Y-67996979D01*
X168748274Y-67938970D01*
X168748275Y-67938967D01*
X168752115Y-67932738D01*
X168800330Y-67787373D01*
X168805632Y-67771389D01*
X168805632Y-67771387D01*
X168807797Y-67764861D01*
X168808783Y-67755243D01*
X168814732Y-67697171D01*
X168818500Y-67660400D01*
X168818500Y-66259600D01*
X168810484Y-66182339D01*
X168808238Y-66160692D01*
X168808237Y-66160688D01*
X168807526Y-66153834D01*
X168799201Y-66128879D01*
X168753868Y-65993002D01*
X168751550Y-65986054D01*
X168658478Y-65835652D01*
X168533303Y-65710695D01*
X168526423Y-65706454D01*
X168388968Y-65621725D01*
X168388966Y-65621724D01*
X168382738Y-65617885D01*
X168292161Y-65587842D01*
X168221389Y-65564368D01*
X168221387Y-65564368D01*
X168214861Y-65562203D01*
X168208025Y-65561503D01*
X168208022Y-65561502D01*
X168164969Y-65557091D01*
X168110400Y-65551500D01*
X167184600Y-65551500D01*
X167181354Y-65551837D01*
X167181350Y-65551837D01*
X167085692Y-65561762D01*
X167085688Y-65561763D01*
X167078834Y-65562474D01*
X167072298Y-65564655D01*
X167072296Y-65564655D01*
X167002797Y-65587842D01*
X166911054Y-65618450D01*
X166760652Y-65711522D01*
X166635695Y-65836697D01*
X166631855Y-65842927D01*
X166631854Y-65842928D01*
X166570452Y-65942541D01*
X166542885Y-65987262D01*
X166540581Y-65994209D01*
X166506801Y-66096054D01*
X166487203Y-66155139D01*
X166476500Y-66259600D01*
X166476500Y-67660400D01*
X166476836Y-67663643D01*
X166476837Y-67663653D01*
X166482853Y-67721635D01*
X166469988Y-67791457D01*
X166446621Y-67823733D01*
X166124008Y-68146346D01*
X166061696Y-68180372D01*
X165997234Y-68177485D01*
X165941438Y-68160000D01*
X165902719Y-68147866D01*
X165833437Y-68141500D01*
X165682610Y-68141500D01*
X165614489Y-68121498D01*
X165567996Y-68067842D01*
X165557892Y-67997568D01*
X165587386Y-67932988D01*
X165604350Y-67916751D01*
X165609208Y-67912901D01*
X165723739Y-67798171D01*
X165732751Y-67786760D01*
X165817816Y-67648757D01*
X165823963Y-67635576D01*
X165875138Y-67481290D01*
X165878005Y-67467914D01*
X165887672Y-67373562D01*
X165888000Y-67367146D01*
X165888000Y-67142115D01*
X165883525Y-67126876D01*
X165882135Y-67125671D01*
X165874452Y-67124000D01*
X164652000Y-67124000D01*
X164583879Y-67103998D01*
X164537386Y-67050342D01*
X164526000Y-66998000D01*
X164526000Y-66742000D01*
X164546002Y-66673879D01*
X164599658Y-66627386D01*
X164652000Y-66616000D01*
X165869884Y-66616000D01*
X165885123Y-66611525D01*
X165886328Y-66610135D01*
X165887999Y-66602452D01*
X165887999Y-66372905D01*
X165887662Y-66366386D01*
X165877743Y-66270794D01*
X165874851Y-66257400D01*
X165823412Y-66103216D01*
X165817238Y-66090038D01*
X165736956Y-65960303D01*
X165718118Y-65891851D01*
X165739279Y-65824081D01*
X165793720Y-65778510D01*
X165844100Y-65768000D01*
X165873766Y-65768000D01*
X165880282Y-65767663D01*
X165974132Y-65757925D01*
X165987528Y-65755032D01*
X166138953Y-65704512D01*
X166152115Y-65698347D01*
X166287492Y-65614574D01*
X166298890Y-65605540D01*
X166411363Y-65492871D01*
X166420375Y-65481460D01*
X166503912Y-65345937D01*
X166510056Y-65332759D01*
X166560315Y-65181234D01*
X166563181Y-65167867D01*
X166567093Y-65129687D01*
X166593935Y-65063960D01*
X166652050Y-65023178D01*
X166722988Y-65020290D01*
X166769288Y-65046474D01*
X166771083Y-65044201D01*
X166788240Y-65057751D01*
X166926243Y-65142816D01*
X166939424Y-65148963D01*
X167093710Y-65200138D01*
X167107086Y-65203005D01*
X167201438Y-65212672D01*
X167207854Y-65213000D01*
X167457885Y-65213000D01*
X167473124Y-65208525D01*
X167474329Y-65207135D01*
X167476000Y-65199452D01*
X167476000Y-65194884D01*
X167984000Y-65194884D01*
X167988475Y-65210123D01*
X167989865Y-65211328D01*
X167997548Y-65212999D01*
X168252095Y-65212999D01*
X168258614Y-65212662D01*
X168354206Y-65202743D01*
X168367600Y-65199851D01*
X168521784Y-65148412D01*
X168534962Y-65142239D01*
X168672807Y-65056937D01*
X168684208Y-65047901D01*
X168798739Y-64933171D01*
X168807751Y-64921760D01*
X168892816Y-64783757D01*
X168898963Y-64770576D01*
X168950138Y-64616290D01*
X168953005Y-64602914D01*
X168962672Y-64508562D01*
X168963000Y-64502146D01*
X168963000Y-64389615D01*
X168958525Y-64374376D01*
X168957135Y-64373171D01*
X168949452Y-64371500D01*
X168002115Y-64371500D01*
X167986876Y-64375975D01*
X167985671Y-64377365D01*
X167984000Y-64385048D01*
X167984000Y-65194884D01*
X167476000Y-65194884D01*
X167476000Y-63989500D01*
X167496002Y-63921379D01*
X167549658Y-63874886D01*
X167602000Y-63863500D01*
X168944884Y-63863500D01*
X168960123Y-63859025D01*
X168961328Y-63857635D01*
X168962999Y-63849952D01*
X168962999Y-63732905D01*
X168962662Y-63726386D01*
X168952743Y-63630794D01*
X168949851Y-63617400D01*
X168898412Y-63463216D01*
X168892239Y-63450038D01*
X168806937Y-63312193D01*
X168797901Y-63300792D01*
X168683172Y-63186262D01*
X168674238Y-63179206D01*
X168633177Y-63121288D01*
X168629947Y-63050365D01*
X168665574Y-62988954D01*
X168673407Y-62982154D01*
X168679348Y-62978478D01*
X168804305Y-62853303D01*
X168873342Y-62741305D01*
X168893275Y-62708968D01*
X168893276Y-62708966D01*
X168897115Y-62702738D01*
X168952797Y-62534861D01*
X168963500Y-62430400D01*
X168963500Y-61654600D01*
X168961234Y-61632760D01*
X168953238Y-61555692D01*
X168953237Y-61555688D01*
X168952526Y-61548834D01*
X168896550Y-61381054D01*
X168803478Y-61230652D01*
X168678303Y-61105695D01*
X168654491Y-61091017D01*
X168533968Y-61016725D01*
X168533966Y-61016724D01*
X168527738Y-61012885D01*
X168520791Y-61010581D01*
X168514156Y-61007487D01*
X168515344Y-61004939D01*
X168467602Y-60971856D01*
X168440373Y-60906289D01*
X168452915Y-60836409D01*
X168486170Y-60795445D01*
X168489348Y-60793478D01*
X168614305Y-60668303D01*
X168618146Y-60662072D01*
X168703275Y-60523968D01*
X168703276Y-60523966D01*
X168707115Y-60517738D01*
X168762797Y-60349861D01*
X168766916Y-60309665D01*
X168771903Y-60260987D01*
X168773500Y-60245400D01*
X168773500Y-59469600D01*
X168769396Y-59430046D01*
X168763238Y-59370692D01*
X168763237Y-59370688D01*
X168762526Y-59363834D01*
X168760285Y-59357115D01*
X168708868Y-59203002D01*
X168706550Y-59196054D01*
X168613478Y-59045652D01*
X168488303Y-58920695D01*
X168483765Y-58917898D01*
X168443176Y-58860647D01*
X168439946Y-58789724D01*
X168475572Y-58728313D01*
X168484068Y-58720938D01*
X168494207Y-58712902D01*
X168608739Y-58598171D01*
X168617751Y-58586760D01*
X168702816Y-58448757D01*
X168708963Y-58435576D01*
X168760138Y-58281290D01*
X168763005Y-58267914D01*
X168772672Y-58173562D01*
X168773000Y-58167146D01*
X168773000Y-58054615D01*
X168768525Y-58039376D01*
X168767135Y-58038171D01*
X168759452Y-58036500D01*
X167412000Y-58036500D01*
X167343879Y-58016498D01*
X167297386Y-57962842D01*
X167286000Y-57910500D01*
X167286000Y-57510385D01*
X167794000Y-57510385D01*
X167798475Y-57525624D01*
X167799865Y-57526829D01*
X167807548Y-57528500D01*
X168754884Y-57528500D01*
X168770123Y-57524025D01*
X168771328Y-57522635D01*
X168772999Y-57514952D01*
X168772999Y-57397905D01*
X168772661Y-57391383D01*
X168762743Y-57295794D01*
X168759851Y-57282400D01*
X168708412Y-57128216D01*
X168702239Y-57115038D01*
X168616937Y-56977193D01*
X168607901Y-56965792D01*
X168493171Y-56851261D01*
X168481760Y-56842249D01*
X168343757Y-56757184D01*
X168330576Y-56751037D01*
X168176290Y-56699862D01*
X168162914Y-56696995D01*
X168068562Y-56687328D01*
X168062145Y-56687000D01*
X167812115Y-56687000D01*
X167796876Y-56691475D01*
X167795671Y-56692865D01*
X167794000Y-56700548D01*
X167794000Y-57510385D01*
X167286000Y-57510385D01*
X167286000Y-56705116D01*
X167281525Y-56689877D01*
X167280135Y-56688672D01*
X167272452Y-56687001D01*
X167017905Y-56687001D01*
X167011386Y-56687338D01*
X166915794Y-56697257D01*
X166902400Y-56700149D01*
X166748216Y-56751588D01*
X166735038Y-56757761D01*
X166597193Y-56843063D01*
X166585792Y-56852099D01*
X166471261Y-56966829D01*
X166462249Y-56978240D01*
X166377184Y-57116243D01*
X166371037Y-57129424D01*
X166319862Y-57283710D01*
X166316995Y-57297086D01*
X166307328Y-57391438D01*
X166307000Y-57397855D01*
X166307000Y-57604485D01*
X166286998Y-57672606D01*
X166233342Y-57719099D01*
X166163068Y-57729203D01*
X166098488Y-57699709D01*
X166061476Y-57644361D01*
X166032012Y-57556047D01*
X166025847Y-57542885D01*
X165942074Y-57407508D01*
X165933040Y-57396110D01*
X165820371Y-57283637D01*
X165808960Y-57274625D01*
X165673437Y-57191088D01*
X165660259Y-57184944D01*
X165508734Y-57134685D01*
X165495368Y-57131819D01*
X165402730Y-57122328D01*
X165396315Y-57122000D01*
X165384615Y-57122000D01*
X165369376Y-57126475D01*
X165368171Y-57127865D01*
X165366500Y-57135548D01*
X165366500Y-58295500D01*
X165346498Y-58363621D01*
X165292842Y-58410114D01*
X165240500Y-58421500D01*
X164147615Y-58421500D01*
X164132376Y-58425975D01*
X164131171Y-58427365D01*
X164129500Y-58435048D01*
X164129500Y-58513766D01*
X164129837Y-58520282D01*
X164139575Y-58614132D01*
X164142468Y-58627528D01*
X164192988Y-58778953D01*
X164199153Y-58792115D01*
X164282926Y-58927492D01*
X164296507Y-58944627D01*
X164294288Y-58946386D01*
X164322129Y-58997278D01*
X164317120Y-59068097D01*
X164278666Y-59121801D01*
X164246828Y-59147767D01*
X164242901Y-59152514D01*
X164242899Y-59152516D01*
X164216421Y-59184523D01*
X164208431Y-59193303D01*
X163609595Y-59792139D01*
X163547283Y-59826165D01*
X163476468Y-59821100D01*
X163419632Y-59778553D01*
X163394821Y-59712033D01*
X163394500Y-59703044D01*
X163394500Y-58324271D01*
X163395190Y-58311101D01*
X163398884Y-58275956D01*
X163398884Y-58275954D01*
X163399528Y-58269827D01*
X163394795Y-58217819D01*
X163394500Y-58213588D01*
X163394500Y-58210956D01*
X163390834Y-58173562D01*
X163389951Y-58164559D01*
X163389869Y-58163684D01*
X163381523Y-58071971D01*
X163381522Y-58071967D01*
X163380964Y-58065833D01*
X163379924Y-58062298D01*
X163379565Y-58058641D01*
X163351136Y-57964480D01*
X163350927Y-57963778D01*
X163335421Y-57911089D01*
X163332322Y-57895385D01*
X164129500Y-57895385D01*
X164133975Y-57910624D01*
X164135365Y-57911829D01*
X164143048Y-57913500D01*
X164840385Y-57913500D01*
X164855624Y-57909025D01*
X164856829Y-57907635D01*
X164858500Y-57899952D01*
X164858500Y-57140115D01*
X164854025Y-57124876D01*
X164852635Y-57123671D01*
X164844952Y-57122000D01*
X164828734Y-57122000D01*
X164822218Y-57122337D01*
X164728368Y-57132075D01*
X164714972Y-57134968D01*
X164563547Y-57185488D01*
X164550385Y-57191653D01*
X164415008Y-57275426D01*
X164403610Y-57284460D01*
X164291137Y-57397129D01*
X164282125Y-57408540D01*
X164198588Y-57544063D01*
X164192444Y-57557241D01*
X164142185Y-57708766D01*
X164139319Y-57722132D01*
X164129828Y-57814770D01*
X164129500Y-57821185D01*
X164129500Y-57895385D01*
X163332322Y-57895385D01*
X163330968Y-57888521D01*
X163323419Y-57815765D01*
X163323418Y-57815761D01*
X163322707Y-57808907D01*
X163319621Y-57799655D01*
X163269972Y-57650841D01*
X163267654Y-57643893D01*
X163176116Y-57495969D01*
X163168861Y-57488726D01*
X163167895Y-57486962D01*
X163166387Y-57485059D01*
X163166713Y-57484801D01*
X163134781Y-57426446D01*
X163139782Y-57355625D01*
X163168708Y-57310530D01*
X163171364Y-57307869D01*
X163180375Y-57296460D01*
X163263912Y-57160937D01*
X163270056Y-57147759D01*
X163320315Y-56996234D01*
X163323181Y-56982868D01*
X163332672Y-56890230D01*
X163333000Y-56883815D01*
X163333000Y-56809615D01*
X163328525Y-56794376D01*
X163327135Y-56793171D01*
X163319452Y-56791500D01*
X162222000Y-56791500D01*
X162153879Y-56771498D01*
X162107386Y-56717842D01*
X162096000Y-56665500D01*
X162096000Y-56265385D01*
X162604000Y-56265385D01*
X162608475Y-56280624D01*
X162609865Y-56281829D01*
X162617548Y-56283500D01*
X163314885Y-56283500D01*
X163330124Y-56279025D01*
X163331329Y-56277635D01*
X163333000Y-56269952D01*
X163333000Y-56191234D01*
X163332663Y-56184718D01*
X163322925Y-56090868D01*
X163320032Y-56077472D01*
X163269512Y-55926047D01*
X163263347Y-55912885D01*
X163179574Y-55777508D01*
X163170540Y-55766110D01*
X163057871Y-55653637D01*
X163046460Y-55644625D01*
X162910937Y-55561088D01*
X162897759Y-55554944D01*
X162746234Y-55504685D01*
X162732868Y-55501819D01*
X162640230Y-55492328D01*
X162633815Y-55492000D01*
X162622115Y-55492000D01*
X162606876Y-55496475D01*
X162605671Y-55497865D01*
X162604000Y-55505548D01*
X162604000Y-56265385D01*
X162096000Y-56265385D01*
X162096000Y-55510115D01*
X162091525Y-55494876D01*
X162090135Y-55493671D01*
X162082452Y-55492000D01*
X162066234Y-55492000D01*
X162059718Y-55492337D01*
X161965868Y-55502075D01*
X161952472Y-55504968D01*
X161801047Y-55555488D01*
X161787885Y-55561653D01*
X161652508Y-55645426D01*
X161641110Y-55654460D01*
X161528637Y-55767129D01*
X161519625Y-55778540D01*
X161478127Y-55845863D01*
X161425355Y-55893356D01*
X161355284Y-55904780D01*
X161290160Y-55876506D01*
X161250660Y-55817512D01*
X161245540Y-55792749D01*
X161242744Y-55765795D01*
X161239851Y-55752400D01*
X161188412Y-55598216D01*
X161182239Y-55585038D01*
X161096937Y-55447193D01*
X161087901Y-55435792D01*
X160973171Y-55321261D01*
X160961760Y-55312249D01*
X160823757Y-55227184D01*
X160810576Y-55221037D01*
X160656290Y-55169862D01*
X160642914Y-55166995D01*
X160548562Y-55157328D01*
X160542145Y-55157000D01*
X160292115Y-55157000D01*
X160276876Y-55161475D01*
X160275671Y-55162865D01*
X160274000Y-55170548D01*
X160274000Y-56380500D01*
X160253998Y-56448621D01*
X160200342Y-56495114D01*
X160148000Y-56506500D01*
X158805116Y-56506500D01*
X158789877Y-56510975D01*
X158788672Y-56512365D01*
X158787001Y-56520048D01*
X158787001Y-56637095D01*
X158787338Y-56643614D01*
X158797257Y-56739206D01*
X158800149Y-56752600D01*
X158851588Y-56906784D01*
X158857761Y-56919962D01*
X158943063Y-57057807D01*
X158952099Y-57069208D01*
X159066828Y-57183738D01*
X159075762Y-57190794D01*
X159116823Y-57248712D01*
X159120053Y-57319635D01*
X159084426Y-57381046D01*
X159076593Y-57387846D01*
X159070652Y-57391522D01*
X158945695Y-57516697D01*
X158941855Y-57522927D01*
X158941854Y-57522928D01*
X158865059Y-57647513D01*
X158852885Y-57667262D01*
X158850581Y-57674209D01*
X158812895Y-57787830D01*
X158797203Y-57835139D01*
X158796503Y-57841975D01*
X158796502Y-57841978D01*
X158792932Y-57876819D01*
X158786500Y-57939600D01*
X158786500Y-58715400D01*
X158786837Y-58718646D01*
X158786837Y-58718650D01*
X158796627Y-58813000D01*
X158797474Y-58821166D01*
X158799655Y-58827702D01*
X158799655Y-58827704D01*
X158799732Y-58827935D01*
X158853450Y-58988946D01*
X158946522Y-59139348D01*
X159071697Y-59264305D01*
X159077929Y-59268147D01*
X159077931Y-59268148D01*
X159153407Y-59314673D01*
X159200900Y-59367445D01*
X159212322Y-59437517D01*
X159191378Y-59492936D01*
X159155666Y-59545288D01*
X159153486Y-59549985D01*
X159060565Y-59750165D01*
X159054687Y-59762827D01*
X158990595Y-59993939D01*
X158965109Y-60232415D01*
X158965406Y-60237567D01*
X158965406Y-60237571D01*
X158966042Y-60248598D01*
X158978915Y-60471851D01*
X158993146Y-60535000D01*
X159028614Y-60692387D01*
X159024078Y-60763238D01*
X158994792Y-60809182D01*
X158053272Y-61750702D01*
X157990960Y-61784728D01*
X157920145Y-61779663D01*
X157863309Y-61737116D01*
X157838498Y-61670596D01*
X157839255Y-61645161D01*
X157864315Y-61454813D01*
X157864315Y-61454809D01*
X157864752Y-61451492D01*
X157865770Y-61409836D01*
X157866417Y-61383365D01*
X157866417Y-61383361D01*
X157866499Y-61380000D01*
X157857149Y-61266278D01*
X157847271Y-61146124D01*
X157847270Y-61146118D01*
X157846847Y-61140973D01*
X157800756Y-60957474D01*
X157789679Y-60913375D01*
X157789678Y-60913371D01*
X157788420Y-60908364D01*
X157786364Y-60903634D01*
X157786361Y-60903627D01*
X157694847Y-60693159D01*
X157694845Y-60693156D01*
X157692787Y-60688422D01*
X157687237Y-60679842D01*
X157565325Y-60491396D01*
X157565323Y-60491393D01*
X157562515Y-60487053D01*
X157548683Y-60471851D01*
X157404582Y-60313487D01*
X157404580Y-60313486D01*
X157401104Y-60309665D01*
X157397053Y-60306466D01*
X157397049Y-60306462D01*
X157233336Y-60177170D01*
X157212888Y-60161021D01*
X157002922Y-60045113D01*
X156844368Y-59988966D01*
X156781720Y-59966781D01*
X156781716Y-59966780D01*
X156776845Y-59965055D01*
X156771752Y-59964148D01*
X156771749Y-59964147D01*
X156545816Y-59923902D01*
X156545810Y-59923901D01*
X156540727Y-59922996D01*
X156453460Y-59921930D01*
X156306081Y-59920129D01*
X156306079Y-59920129D01*
X156300911Y-59920066D01*
X156063837Y-59956343D01*
X155933111Y-59999071D01*
X155927145Y-60001021D01*
X155856181Y-60003172D01*
X155795320Y-59966616D01*
X155763883Y-59902959D01*
X155762000Y-59881256D01*
X155762000Y-59778456D01*
X155761484Y-59773187D01*
X155749644Y-59652445D01*
X155747065Y-59626141D01*
X155745284Y-59620242D01*
X155745283Y-59620237D01*
X155689642Y-59435945D01*
X155687861Y-59430046D01*
X155591696Y-59249186D01*
X155566109Y-59217813D01*
X155551857Y-59200338D01*
X155551666Y-59199885D01*
X156031500Y-59199885D01*
X156035975Y-59215124D01*
X156037365Y-59216329D01*
X156044186Y-59217813D01*
X156045888Y-59217734D01*
X156105046Y-59212298D01*
X156118096Y-59209685D01*
X156257589Y-59165971D01*
X156271334Y-59159765D01*
X156395604Y-59084504D01*
X156407473Y-59075197D01*
X156510197Y-58972473D01*
X156519504Y-58960604D01*
X156594765Y-58836334D01*
X156600971Y-58822589D01*
X156644687Y-58683088D01*
X156647009Y-58671497D01*
X156644194Y-58657165D01*
X156632298Y-58654000D01*
X156049615Y-58654000D01*
X156034376Y-58658475D01*
X156033171Y-58659865D01*
X156031500Y-58667548D01*
X156031500Y-59199885D01*
X155551666Y-59199885D01*
X155524303Y-59134906D01*
X155523500Y-59120703D01*
X155523500Y-58998665D01*
X155538664Y-58938737D01*
X155607113Y-58812142D01*
X155607114Y-58812140D01*
X155610045Y-58806719D01*
X155670617Y-58611042D01*
X155675806Y-58561674D01*
X155691384Y-58413456D01*
X155691384Y-58413454D01*
X155692028Y-58407327D01*
X155683271Y-58311101D01*
X155674023Y-58209471D01*
X155674022Y-58209467D01*
X155673464Y-58203333D01*
X155651258Y-58127885D01*
X156031500Y-58127885D01*
X156035975Y-58143124D01*
X156037365Y-58144329D01*
X156045048Y-58146000D01*
X156630658Y-58146000D01*
X156645203Y-58141729D01*
X156647248Y-58129698D01*
X156644687Y-58116912D01*
X156600971Y-57977411D01*
X156594765Y-57963666D01*
X156519504Y-57839396D01*
X156510197Y-57827527D01*
X156407473Y-57724803D01*
X156395604Y-57715496D01*
X156271334Y-57640235D01*
X156257589Y-57634029D01*
X156118096Y-57590315D01*
X156105046Y-57587702D01*
X156048038Y-57582463D01*
X156034376Y-57586475D01*
X156033171Y-57587865D01*
X156031500Y-57595548D01*
X156031500Y-58127885D01*
X155651258Y-58127885D01*
X155615630Y-58006830D01*
X155582165Y-57942817D01*
X155537839Y-57858031D01*
X155523500Y-57799655D01*
X155523500Y-57600115D01*
X155519025Y-57584876D01*
X155517635Y-57583671D01*
X155510814Y-57582187D01*
X155509112Y-57582266D01*
X155449954Y-57587702D01*
X155436905Y-57590315D01*
X155404931Y-57600335D01*
X155333946Y-57601619D01*
X155286261Y-57576623D01*
X155240181Y-57537958D01*
X155235463Y-57533999D01*
X155230071Y-57531035D01*
X155230067Y-57531032D01*
X155061358Y-57438284D01*
X155061359Y-57438284D01*
X155055963Y-57435318D01*
X155050096Y-57433457D01*
X155050094Y-57433456D01*
X154939155Y-57398264D01*
X154860715Y-57373381D01*
X154701302Y-57355500D01*
X153573804Y-57355500D01*
X153560196Y-57354763D01*
X153527116Y-57351169D01*
X153527112Y-57351169D01*
X153520991Y-57350504D01*
X153503247Y-57352056D01*
X153469265Y-57355029D01*
X153464439Y-57355358D01*
X153461538Y-57355500D01*
X153458456Y-57355500D01*
X153446665Y-57356656D01*
X153414130Y-57359846D01*
X153412817Y-57359967D01*
X153323075Y-57367819D01*
X153323068Y-57367820D01*
X153316933Y-57368357D01*
X153311635Y-57369896D01*
X153306141Y-57370435D01*
X153213874Y-57398292D01*
X153212736Y-57398629D01*
X153120229Y-57425505D01*
X153115333Y-57428043D01*
X153110046Y-57429639D01*
X153104602Y-57432533D01*
X153104601Y-57432534D01*
X153025052Y-57474831D01*
X153023884Y-57475445D01*
X152994267Y-57490797D01*
X152938372Y-57519770D01*
X152934059Y-57523213D01*
X152929186Y-57525804D01*
X152924418Y-57529693D01*
X152924407Y-57529700D01*
X152854512Y-57586705D01*
X152853588Y-57587451D01*
X152832665Y-57604154D01*
X152766952Y-57631021D01*
X152717221Y-57626177D01*
X152686987Y-57616934D01*
X152673725Y-57612879D01*
X152672636Y-57612541D01*
X152580715Y-57583381D01*
X152575226Y-57582765D01*
X152569952Y-57581153D01*
X152474153Y-57571422D01*
X152472972Y-57571296D01*
X152442119Y-57567835D01*
X152424799Y-57565892D01*
X152424794Y-57565892D01*
X152421302Y-57565500D01*
X152417778Y-57565500D01*
X152416363Y-57565421D01*
X152410664Y-57564972D01*
X152401468Y-57564038D01*
X152372291Y-57561074D01*
X152372287Y-57561074D01*
X152366164Y-57560452D01*
X152318676Y-57564941D01*
X152306818Y-57565500D01*
X151610956Y-57565500D01*
X151607900Y-57565800D01*
X151607893Y-57565800D01*
X151551937Y-57571287D01*
X151458641Y-57580435D01*
X151424547Y-57590728D01*
X151424416Y-57590768D01*
X151353422Y-57591307D01*
X151293406Y-57553379D01*
X151263422Y-57489024D01*
X151262000Y-57470145D01*
X151262000Y-56638456D01*
X151259258Y-56610485D01*
X151255757Y-56574782D01*
X151247065Y-56486141D01*
X151245284Y-56480242D01*
X151245283Y-56480237D01*
X151189642Y-56295945D01*
X151187861Y-56290046D01*
X151091696Y-56109186D01*
X151087798Y-56104407D01*
X151087795Y-56104402D01*
X150986649Y-55980385D01*
X158787000Y-55980385D01*
X158791475Y-55995624D01*
X158792865Y-55996829D01*
X158800548Y-55998500D01*
X159747885Y-55998500D01*
X159763124Y-55994025D01*
X159764329Y-55992635D01*
X159766000Y-55984952D01*
X159766000Y-55175116D01*
X159761525Y-55159877D01*
X159760135Y-55158672D01*
X159752452Y-55157001D01*
X159497905Y-55157001D01*
X159491386Y-55157338D01*
X159395794Y-55167257D01*
X159382400Y-55170149D01*
X159228216Y-55221588D01*
X159215038Y-55227761D01*
X159077193Y-55313063D01*
X159065792Y-55322099D01*
X158951261Y-55436829D01*
X158942249Y-55448240D01*
X158857184Y-55586243D01*
X158851037Y-55599424D01*
X158799862Y-55753710D01*
X158796995Y-55767086D01*
X158787328Y-55861438D01*
X158787000Y-55867855D01*
X158787000Y-55980385D01*
X150986649Y-55980385D01*
X150966127Y-55955222D01*
X150966125Y-55955220D01*
X150962233Y-55950448D01*
X150853845Y-55860782D01*
X150809153Y-55823809D01*
X150809150Y-55823807D01*
X150804403Y-55819880D01*
X150624219Y-55722455D01*
X150428542Y-55661883D01*
X150422417Y-55661239D01*
X150422416Y-55661239D01*
X150230956Y-55641116D01*
X150230954Y-55641116D01*
X150224827Y-55640472D01*
X150148902Y-55647381D01*
X150026971Y-55658477D01*
X150026967Y-55658478D01*
X150020833Y-55659036D01*
X149824330Y-55716870D01*
X149818866Y-55719727D01*
X149818865Y-55719727D01*
X149728277Y-55767086D01*
X149642803Y-55811771D01*
X149642062Y-55810353D01*
X149581558Y-55828657D01*
X149520600Y-55813497D01*
X149357642Y-55725387D01*
X149357640Y-55725386D01*
X149352219Y-55722455D01*
X149156542Y-55661883D01*
X149150417Y-55661239D01*
X149150416Y-55661239D01*
X148958956Y-55641116D01*
X148958954Y-55641116D01*
X148952827Y-55640472D01*
X148876902Y-55647381D01*
X148754971Y-55658477D01*
X148754967Y-55658478D01*
X148748833Y-55659036D01*
X148552330Y-55716870D01*
X148546866Y-55719727D01*
X148546865Y-55719727D01*
X148515273Y-55736243D01*
X148370803Y-55811771D01*
X148366002Y-55815631D01*
X148365999Y-55815633D01*
X148274442Y-55889247D01*
X148211166Y-55940122D01*
X148079499Y-56097037D01*
X148061265Y-56130204D01*
X148010922Y-56180259D01*
X147950853Y-56195500D01*
X147624571Y-56195500D01*
X147556450Y-56175498D01*
X147546479Y-56168382D01*
X147517995Y-56145886D01*
X147359888Y-56021021D01*
X147149922Y-55905113D01*
X146982605Y-55845863D01*
X146928720Y-55826781D01*
X146928716Y-55826780D01*
X146923845Y-55825055D01*
X146918752Y-55824148D01*
X146918749Y-55824147D01*
X146692816Y-55783902D01*
X146692810Y-55783901D01*
X146687727Y-55782996D01*
X146600460Y-55781930D01*
X146453081Y-55780129D01*
X146453079Y-55780129D01*
X146447911Y-55780066D01*
X146210837Y-55816343D01*
X145982871Y-55890854D01*
X145955480Y-55905113D01*
X145784682Y-55994025D01*
X145770136Y-56001597D01*
X145766003Y-56004700D01*
X145766000Y-56004702D01*
X145744070Y-56021168D01*
X145643862Y-56096406D01*
X145577379Y-56121312D01*
X145507983Y-56106320D01*
X145457709Y-56056190D01*
X145442883Y-56008650D01*
X145433238Y-55915692D01*
X145433237Y-55915688D01*
X145432526Y-55908834D01*
X145426528Y-55890854D01*
X145378868Y-55748002D01*
X145376550Y-55741054D01*
X145283478Y-55590652D01*
X145158303Y-55465695D01*
X145129986Y-55448240D01*
X145013968Y-55376725D01*
X145013966Y-55376724D01*
X145007738Y-55372885D01*
X144927995Y-55346436D01*
X144846389Y-55319368D01*
X144846387Y-55319368D01*
X144839861Y-55317203D01*
X144833025Y-55316503D01*
X144833022Y-55316502D01*
X144789969Y-55312091D01*
X144735400Y-55306500D01*
X143959600Y-55306500D01*
X143956354Y-55306837D01*
X143956350Y-55306837D01*
X143860692Y-55316762D01*
X143860688Y-55316763D01*
X143853834Y-55317474D01*
X143847298Y-55319655D01*
X143847296Y-55319655D01*
X143839971Y-55322099D01*
X143686054Y-55373450D01*
X143535652Y-55466522D01*
X143410695Y-55591697D01*
X143407898Y-55596235D01*
X143350647Y-55636824D01*
X143279724Y-55640054D01*
X143218313Y-55604428D01*
X143210938Y-55595932D01*
X143202902Y-55585793D01*
X143088171Y-55471261D01*
X143076760Y-55462249D01*
X142938757Y-55377184D01*
X142925576Y-55371037D01*
X142771290Y-55319862D01*
X142757914Y-55316995D01*
X142663562Y-55307328D01*
X142657145Y-55307000D01*
X142544615Y-55307000D01*
X142529376Y-55311475D01*
X142528171Y-55312865D01*
X142526500Y-55320548D01*
X142526500Y-56668000D01*
X142506498Y-56736121D01*
X142452842Y-56782614D01*
X142400500Y-56794000D01*
X142144500Y-56794000D01*
X142076379Y-56773998D01*
X142029886Y-56720342D01*
X142018500Y-56668000D01*
X142018500Y-55325116D01*
X142014025Y-55309877D01*
X142012635Y-55308672D01*
X142004952Y-55307001D01*
X141887905Y-55307001D01*
X141881386Y-55307338D01*
X141785794Y-55317257D01*
X141772400Y-55320149D01*
X141618216Y-55371588D01*
X141605038Y-55377761D01*
X141467193Y-55463063D01*
X141455792Y-55472099D01*
X141341261Y-55586829D01*
X141332249Y-55598240D01*
X141247184Y-55736243D01*
X141241037Y-55749424D01*
X141189862Y-55903710D01*
X141186995Y-55917086D01*
X141177328Y-56011438D01*
X141177000Y-56017855D01*
X141177000Y-56021168D01*
X141156998Y-56089289D01*
X141103342Y-56135782D01*
X141033068Y-56145886D01*
X141013741Y-56141533D01*
X140922838Y-56113394D01*
X140921998Y-56113131D01*
X140834082Y-56085242D01*
X140834081Y-56085242D01*
X140828215Y-56083381D01*
X140824555Y-56082970D01*
X140821042Y-56081883D01*
X140814921Y-56081240D01*
X140814918Y-56081239D01*
X140723307Y-56071610D01*
X140722435Y-56071515D01*
X140672293Y-56065891D01*
X140672283Y-56065890D01*
X140668802Y-56065500D01*
X140666152Y-56065500D01*
X140661975Y-56065164D01*
X140623457Y-56061116D01*
X140623454Y-56061116D01*
X140617327Y-56060472D01*
X140569658Y-56064810D01*
X140567779Y-56064981D01*
X140556360Y-56065500D01*
X133661771Y-56065500D01*
X133648601Y-56064810D01*
X133613456Y-56061116D01*
X133613454Y-56061116D01*
X133607327Y-56060472D01*
X133555319Y-56065205D01*
X133551088Y-56065500D01*
X133548456Y-56065500D01*
X133528852Y-56067422D01*
X133502059Y-56070049D01*
X133501184Y-56070131D01*
X133409471Y-56078477D01*
X133409467Y-56078478D01*
X133403333Y-56079036D01*
X133399798Y-56080076D01*
X133396141Y-56080435D01*
X133390250Y-56082214D01*
X133390248Y-56082214D01*
X133302162Y-56108809D01*
X133301342Y-56109054D01*
X133206830Y-56136870D01*
X133203567Y-56138576D01*
X133200046Y-56139639D01*
X133123651Y-56180259D01*
X133113202Y-56185815D01*
X133112425Y-56186224D01*
X133047328Y-56220257D01*
X133025303Y-56231771D01*
X133022437Y-56234076D01*
X133019186Y-56235804D01*
X133014406Y-56239702D01*
X133014399Y-56239707D01*
X132942852Y-56298059D01*
X132942372Y-56298448D01*
X132865666Y-56360122D01*
X132863302Y-56362939D01*
X132860448Y-56365267D01*
X132856520Y-56370015D01*
X132797747Y-56441059D01*
X132797196Y-56441721D01*
X132733999Y-56517037D01*
X132732227Y-56520259D01*
X132729880Y-56523097D01*
X132726954Y-56528508D01*
X132726953Y-56528510D01*
X132683048Y-56609712D01*
X132682653Y-56610435D01*
X132635318Y-56696537D01*
X132634206Y-56700043D01*
X132632455Y-56703281D01*
X132607897Y-56782614D01*
X132603394Y-56797162D01*
X132603137Y-56797982D01*
X132573381Y-56891785D01*
X132572970Y-56895445D01*
X132571883Y-56898958D01*
X132571240Y-56905079D01*
X132571239Y-56905082D01*
X132561610Y-56996693D01*
X132561515Y-56997565D01*
X132555891Y-57047707D01*
X132555890Y-57047717D01*
X132555500Y-57051198D01*
X132555500Y-57053848D01*
X132555164Y-57058025D01*
X132554389Y-57065400D01*
X132550472Y-57102673D01*
X132553124Y-57131819D01*
X132554981Y-57152221D01*
X132555500Y-57163640D01*
X132555500Y-57804969D01*
X132535498Y-57873090D01*
X132481842Y-57919583D01*
X132411568Y-57929687D01*
X132363664Y-57912401D01*
X132298722Y-57872604D01*
X132289933Y-57868125D01*
X132072510Y-57778066D01*
X132063125Y-57775017D01*
X131834292Y-57720078D01*
X131824545Y-57718535D01*
X131589930Y-57700070D01*
X131580070Y-57700070D01*
X131345455Y-57718535D01*
X131335708Y-57720078D01*
X131106875Y-57775017D01*
X131097490Y-57778066D01*
X130880067Y-57868125D01*
X130871272Y-57872607D01*
X130690195Y-57983572D01*
X130680733Y-57994030D01*
X130684516Y-58002806D01*
X131855115Y-59173405D01*
X131889141Y-59235717D01*
X131884076Y-59306532D01*
X131855115Y-59351595D01*
X130674748Y-60531962D01*
X130674542Y-60531756D01*
X130664525Y-60544096D01*
X130526395Y-60662072D01*
X130479567Y-60702067D01*
X130476359Y-60705823D01*
X130328000Y-60879528D01*
X130320248Y-60888604D01*
X130317660Y-60892827D01*
X130317658Y-60892830D01*
X130280480Y-60953500D01*
X130192073Y-61097768D01*
X130165356Y-61162269D01*
X130102253Y-61314612D01*
X130098195Y-61324408D01*
X130078351Y-61407063D01*
X130042669Y-61555692D01*
X130040928Y-61562943D01*
X130021681Y-61807500D01*
X130040928Y-62052057D01*
X130098195Y-62290592D01*
X130192073Y-62517232D01*
X130266768Y-62639124D01*
X130297668Y-62689548D01*
X130320248Y-62726396D01*
X130323463Y-62730160D01*
X130323465Y-62730163D01*
X130406100Y-62826915D01*
X130479567Y-62912933D01*
X130483323Y-62916141D01*
X130560069Y-62981689D01*
X130598878Y-63041140D01*
X130599384Y-63112135D01*
X130560069Y-63173311D01*
X130535416Y-63194367D01*
X130479567Y-63242067D01*
X130476359Y-63245823D01*
X130334609Y-63411790D01*
X130320248Y-63428604D01*
X130317660Y-63432827D01*
X130317658Y-63432830D01*
X130307113Y-63450038D01*
X130192073Y-63637768D01*
X130170756Y-63689232D01*
X130110177Y-63835482D01*
X130098195Y-63864408D01*
X130040928Y-64102943D01*
X130021681Y-64347500D01*
X130040928Y-64592057D01*
X130042082Y-64596864D01*
X130042083Y-64596870D01*
X130054621Y-64649094D01*
X130098195Y-64830592D01*
X130100088Y-64835163D01*
X130100089Y-64835165D01*
X130129444Y-64906034D01*
X130192073Y-65057232D01*
X130259870Y-65167867D01*
X130286503Y-65211328D01*
X130320248Y-65266396D01*
X130323463Y-65270160D01*
X130323465Y-65270163D01*
X130476359Y-65449177D01*
X130479567Y-65452933D01*
X130483323Y-65456141D01*
X130560069Y-65521689D01*
X130598878Y-65581140D01*
X130599384Y-65652135D01*
X130560069Y-65713311D01*
X130545703Y-65725581D01*
X130479567Y-65782067D01*
X130476359Y-65785823D01*
X130327338Y-65960303D01*
X130320248Y-65968604D01*
X130317660Y-65972827D01*
X130317658Y-65972830D01*
X130308814Y-65987262D01*
X130192073Y-66177768D01*
X130098195Y-66404408D01*
X130081517Y-66473879D01*
X130044663Y-66627386D01*
X130040928Y-66642943D01*
X130021681Y-66887500D01*
X129028500Y-66887500D01*
X129028500Y-59267430D01*
X130022570Y-59267430D01*
X130041035Y-59502045D01*
X130042578Y-59511792D01*
X130097517Y-59740625D01*
X130100566Y-59750010D01*
X130190625Y-59967433D01*
X130195107Y-59976228D01*
X130306072Y-60157305D01*
X130316530Y-60166767D01*
X130325306Y-60162984D01*
X131212978Y-59275312D01*
X131220592Y-59261368D01*
X131220461Y-59259535D01*
X131216210Y-59252920D01*
X130328350Y-58365060D01*
X130315970Y-58358300D01*
X130308320Y-58364027D01*
X130195107Y-58548772D01*
X130190625Y-58557567D01*
X130100566Y-58774990D01*
X130097517Y-58784375D01*
X130042578Y-59013208D01*
X130041035Y-59022955D01*
X130022570Y-59257570D01*
X130022570Y-59267430D01*
X129028500Y-59267430D01*
X129028500Y-54684500D01*
X129048502Y-54616379D01*
X129102158Y-54569886D01*
X129154500Y-54558500D01*
X175665500Y-54558500D01*
X175733621Y-54578502D01*
G37*
%TD.AperFunction*%
%TA.AperFunction,Conductor*%
G36*
X148577012Y-82955031D02*
G01*
X148595323Y-82974686D01*
X148616739Y-83003261D01*
X148623919Y-83008642D01*
X148623920Y-83008643D01*
X148704686Y-83069174D01*
X148747201Y-83126033D01*
X148752227Y-83196852D01*
X148718167Y-83259145D01*
X148704686Y-83270826D01*
X148623920Y-83331357D01*
X148616739Y-83336739D01*
X148595325Y-83365312D01*
X148538466Y-83407825D01*
X148467648Y-83412850D01*
X148405355Y-83378790D01*
X148371364Y-83316459D01*
X148368500Y-83289745D01*
X148368500Y-83050255D01*
X148388502Y-82982134D01*
X148442158Y-82935641D01*
X148512432Y-82925537D01*
X148577012Y-82955031D01*
G37*
%TD.AperFunction*%
%TA.AperFunction,Conductor*%
G36*
X153438285Y-81138502D02*
G01*
X153484778Y-81192158D01*
X153494882Y-81262432D01*
X153465388Y-81327012D01*
X153459259Y-81333595D01*
X153003844Y-81789010D01*
X152941532Y-81823036D01*
X152870717Y-81817971D01*
X152813881Y-81775424D01*
X152789070Y-81708904D01*
X152789233Y-81697958D01*
X152788904Y-81697957D01*
X152788925Y-81691793D01*
X152789548Y-81685664D01*
X152785059Y-81638175D01*
X152784500Y-81626318D01*
X152784500Y-81244500D01*
X152804502Y-81176379D01*
X152858158Y-81129886D01*
X152910500Y-81118500D01*
X153370164Y-81118500D01*
X153438285Y-81138502D01*
G37*
%TD.AperFunction*%
%TA.AperFunction,Conductor*%
G36*
X155345931Y-68926002D02*
G01*
X155392424Y-68979658D01*
X155402528Y-69049932D01*
X155395793Y-69076227D01*
X155368255Y-69149684D01*
X155361500Y-69211866D01*
X155361500Y-69288000D01*
X155341498Y-69356121D01*
X155287842Y-69402614D01*
X155235500Y-69414000D01*
X154042115Y-69414000D01*
X154026876Y-69418475D01*
X154025671Y-69419865D01*
X154024000Y-69427548D01*
X154024000Y-70667810D01*
X154003998Y-70735931D01*
X153950342Y-70782424D01*
X153880068Y-70792528D01*
X153853773Y-70785793D01*
X153780316Y-70758255D01*
X153718134Y-70751500D01*
X153642000Y-70751500D01*
X153573879Y-70731498D01*
X153527386Y-70677842D01*
X153516000Y-70625500D01*
X153516000Y-69032000D01*
X153536002Y-68963879D01*
X153589658Y-68917386D01*
X153642000Y-68906000D01*
X155277810Y-68906000D01*
X155345931Y-68926002D01*
G37*
%TD.AperFunction*%
%TA.AperFunction,Conductor*%
G36*
X163722811Y-67931791D02*
G01*
X163768382Y-67986232D01*
X163777286Y-68056668D01*
X163746695Y-68120737D01*
X163731504Y-68135082D01*
X163713006Y-68149848D01*
X163474264Y-68388590D01*
X163421588Y-68420116D01*
X163390046Y-68429639D01*
X163384598Y-68432536D01*
X163382494Y-68433403D01*
X163311891Y-68440869D01*
X163248459Y-68408978D01*
X163212772Y-68349520D01*
X163209190Y-68336150D01*
X163170341Y-68242360D01*
X163162752Y-68171770D01*
X163194532Y-68108283D01*
X163255590Y-68072056D01*
X163273743Y-68068815D01*
X163274000Y-68068788D01*
X163286166Y-68067526D01*
X163292702Y-68065345D01*
X163292704Y-68065345D01*
X163446998Y-68013868D01*
X163453946Y-68011550D01*
X163530980Y-67963880D01*
X163586589Y-67929468D01*
X163655041Y-67910630D01*
X163722811Y-67931791D01*
G37*
%TD.AperFunction*%
%TA.AperFunction,Conductor*%
G36*
X164586820Y-64062002D02*
G01*
X164633313Y-64115658D01*
X164643417Y-64185932D01*
X164638292Y-64207667D01*
X164619685Y-64263765D01*
X164616819Y-64277132D01*
X164607328Y-64369770D01*
X164607000Y-64376185D01*
X164607000Y-64450385D01*
X164611475Y-64465624D01*
X164612865Y-64466829D01*
X164620548Y-64468500D01*
X165718000Y-64468500D01*
X165786121Y-64488502D01*
X165832614Y-64542158D01*
X165844000Y-64594500D01*
X165844000Y-64850500D01*
X165823998Y-64918621D01*
X165770342Y-64965114D01*
X165718000Y-64976500D01*
X164625115Y-64976500D01*
X164609876Y-64980975D01*
X164608671Y-64982365D01*
X164607000Y-64990048D01*
X164607000Y-65068766D01*
X164607337Y-65075282D01*
X164617075Y-65169132D01*
X164619968Y-65182528D01*
X164670488Y-65333953D01*
X164676651Y-65347111D01*
X164752510Y-65469698D01*
X164771347Y-65538150D01*
X164750185Y-65605920D01*
X164695744Y-65651491D01*
X164645365Y-65662001D01*
X164382905Y-65662001D01*
X164376386Y-65662338D01*
X164280794Y-65672257D01*
X164267400Y-65675149D01*
X164113216Y-65726588D01*
X164100038Y-65732761D01*
X163962193Y-65818063D01*
X163950792Y-65827099D01*
X163869570Y-65908462D01*
X163807287Y-65942541D01*
X163736467Y-65937538D01*
X163691380Y-65908617D01*
X163608488Y-65825870D01*
X163608483Y-65825866D01*
X163603303Y-65820695D01*
X163589819Y-65812383D01*
X163458968Y-65731725D01*
X163458966Y-65731724D01*
X163452738Y-65727885D01*
X163308447Y-65680026D01*
X163291389Y-65674368D01*
X163291387Y-65674368D01*
X163284861Y-65672203D01*
X163278025Y-65671503D01*
X163278022Y-65671502D01*
X163234969Y-65667091D01*
X163180400Y-65661500D01*
X162797596Y-65661500D01*
X162729475Y-65641498D01*
X162682982Y-65587842D01*
X162672878Y-65517568D01*
X162702372Y-65452988D01*
X162708501Y-65446405D01*
X164076001Y-64078905D01*
X164138313Y-64044879D01*
X164165096Y-64042000D01*
X164518699Y-64042000D01*
X164586820Y-64062002D01*
G37*
%TD.AperFunction*%
%TA.AperFunction,Conductor*%
G36*
X156920641Y-63059255D02*
G01*
X156951154Y-63123361D01*
X156952217Y-63131847D01*
X156968419Y-63309886D01*
X156969036Y-63316667D01*
X157026870Y-63513170D01*
X157121771Y-63694697D01*
X157125489Y-63699321D01*
X157146028Y-63767199D01*
X157126587Y-63835482D01*
X157109131Y-63857327D01*
X156207558Y-64758900D01*
X156145247Y-64792924D01*
X156074431Y-64787859D01*
X156017596Y-64745312D01*
X155992785Y-64678792D01*
X155996424Y-64638467D01*
X155998736Y-64629463D01*
X156005137Y-64610768D01*
X156010033Y-64599454D01*
X156010033Y-64599453D01*
X156013181Y-64592179D01*
X156014420Y-64584356D01*
X156014423Y-64584346D01*
X156020099Y-64548510D01*
X156022505Y-64536890D01*
X156031528Y-64501745D01*
X156031528Y-64501744D01*
X156033500Y-64494064D01*
X156033500Y-64473810D01*
X156035051Y-64454099D01*
X156036980Y-64441920D01*
X156038220Y-64434091D01*
X156034059Y-64390072D01*
X156033500Y-64378215D01*
X156033500Y-63479911D01*
X156053502Y-63411790D01*
X156107158Y-63365297D01*
X156148081Y-63354430D01*
X156180028Y-63351523D01*
X156180031Y-63351522D01*
X156186167Y-63350964D01*
X156382670Y-63293130D01*
X156564197Y-63198229D01*
X156568998Y-63194369D01*
X156569001Y-63194367D01*
X156719034Y-63073737D01*
X156723834Y-63069878D01*
X156730216Y-63062272D01*
X156731856Y-63061181D01*
X156732198Y-63060846D01*
X156732262Y-63060911D01*
X156789327Y-63022947D01*
X156860315Y-63021823D01*
X156920641Y-63059255D01*
G37*
%TD.AperFunction*%
%TA.AperFunction,Conductor*%
G36*
X142883621Y-58616002D02*
G01*
X142930114Y-58669658D01*
X142941500Y-58722000D01*
X142941500Y-59814885D01*
X142945975Y-59830124D01*
X142947365Y-59831329D01*
X142955048Y-59833000D01*
X143033766Y-59833000D01*
X143040282Y-59832663D01*
X143134132Y-59822925D01*
X143147528Y-59820032D01*
X143202124Y-59801817D01*
X143273073Y-59799233D01*
X143334157Y-59835416D01*
X143365982Y-59898880D01*
X143368000Y-59921341D01*
X143368000Y-60428904D01*
X143347998Y-60497025D01*
X143294342Y-60543518D01*
X143224068Y-60553622D01*
X143159488Y-60524128D01*
X143152905Y-60517999D01*
X142470405Y-59835499D01*
X142436379Y-59773187D01*
X142433500Y-59746404D01*
X142433500Y-58722000D01*
X142453502Y-58653879D01*
X142507158Y-58607386D01*
X142559500Y-58596000D01*
X142815500Y-58596000D01*
X142883621Y-58616002D01*
G37*
%TD.AperFunction*%
%TD*%
M02*
