M48
; DRILL file {KiCad (6.0.9)} date Thu Nov  9 09:33:41 2023
; FORMAT={-:-/ absolute / inch / decimal}
; #@! TF.CreationDate,2023-11-09T09:33:41+01:00
; #@! TF.GenerationSoftware,Kicad,Pcbnew,(6.0.9)
; #@! TF.FileFunction,Plated,1,2,PTH
FMAT,2
INCH
; #@! TA.AperFunction,Plated,PTH,ViaDrill
T1C0.0118
; #@! TA.AperFunction,Plated,PTH,ViaDrill
T2C0.0157
; #@! TA.AperFunction,Plated,PTH,ViaDrill
T3C0.0315
; #@! TA.AperFunction,Plated,PTH,ComponentDrill
T4C0.0394
%
G90
G05
T1
X5.9894Y-2.6583
X5.9895Y-2.6827
X5.9898Y-2.7063
X5.9899Y-2.7307
X5.9899Y-2.7555
X5.99Y-2.7799
X6.0149Y-2.6583
X6.015Y-2.6827
X6.0153Y-2.7063
X6.0154Y-2.7307
X6.0154Y-2.7555
X6.0155Y-2.7799
X6.0405Y-2.6583
X6.0406Y-2.6827
X6.0409Y-2.7063
X6.041Y-2.7307
X6.041Y-2.7555
X6.0411Y-2.7799
X6.0661Y-2.6583
X6.0662Y-2.6827
X6.0665Y-2.7063
X6.0666Y-2.7307
X6.0666Y-2.7555
X6.0667Y-2.7799
X6.0917Y-2.6583
X6.0918Y-2.6827
X6.092Y-2.7063
X6.0921Y-2.7307
X6.0921Y-2.7555
X6.0922Y-2.7799
X6.1172Y-2.6583
X6.1173Y-2.6827
X6.1176Y-2.7063
X6.1177Y-2.7307
X6.1177Y-2.7555
X6.1178Y-2.7799
T2
X5.1252Y-2.2398
X5.128Y-2.1835
X5.1335Y-3.6315
X5.135Y-3.2472
X5.135Y-3.3244
X5.1378Y-3.3957
X5.1378Y-3.5524
X5.139Y-3.4732
X5.1929Y-2.2386
X5.1984Y-2.1835
X5.2079Y-3.6327
X5.2094Y-3.2484
X5.2094Y-3.3256
X5.2122Y-3.3969
X5.2122Y-3.5535
X5.2134Y-3.4744
X5.2693Y-2.1835
X5.2846Y-3.6319
X5.2862Y-3.2476
X5.2862Y-3.3248
X5.289Y-3.3961
X5.289Y-3.5528
X5.2902Y-3.4736
X5.3398Y-2.1835
X5.3677Y-3.6287
X5.3693Y-3.2445
X5.3693Y-3.3217
X5.372Y-3.3929
X5.372Y-3.5496
X5.3732Y-3.4705
X5.4161Y-2.1819
X5.4268Y-2.6945
X5.4311Y-3.3091
X5.4331Y-3.1476
X5.4346Y-3.2567
X5.435Y-3.2012
X5.4366Y-2.9406
X5.4413Y-3.3591
X5.474Y-3.2276
X5.4748Y-2.6803
X5.4748Y-3.1224
X5.4748Y-3.1732
X5.4748Y-3.2799
X5.4756Y-3.3343
X5.4866Y-2.1819
X5.4886Y-3.3945
X5.5161Y-3.3614
X5.5295Y-2.6906
X5.5445Y-3.3949
X5.5756Y-3.3602
X5.6Y-3.3957
X5.6106Y-2.8685
X5.6315Y-3.3587
X5.6614Y-3.3909
X5.678Y-3.3343
X5.6807Y-3.2835
X5.6815Y-3.1
X5.7079Y-3.3709
X5.7295Y-3.3055
X5.7323Y-3.1
X5.7547Y-3.6748
X5.7559Y-3.5323
X5.7559Y-3.6031
X5.7575Y-3.3504
X5.7575Y-3.4591
X5.7882Y-3.3941
X5.7913Y-3.0252
X5.8169Y-3.3543
X5.824Y-3.6736
X5.8252Y-3.5311
X5.8252Y-3.602
X5.8268Y-3.4579
X5.8406Y-3.4075
X5.8705Y-3.374
X5.8929Y-3.6764
X5.8941Y-3.5339
X5.8941Y-3.6047
X5.8957Y-3.4606
X5.898Y-3.4118
X5.9264Y-3.3748
X5.9575Y-3.4118
X5.9622Y-3.6791
X5.9634Y-3.5366
X5.9634Y-3.6075
X5.965Y-3.4634
X5.9846Y-3.3724
X6.0209Y-3.4043
X6.026Y-2.1941
X6.0264Y-2.2461
X6.028Y-3.2035
X6.0315Y-3.6736
X6.0327Y-3.5311
X6.0327Y-3.602
X6.0343Y-3.4579
X6.0346Y-3.3555
X6.0618Y-3.098
X6.0618Y-3.1476
X6.0626Y-3.0453
X6.0709Y-3.3165
X6.0717Y-3.3795
X6.0811Y-2.1913
X6.0815Y-2.2433
X6.1035Y-3.6736
X6.1043Y-3.2831
X6.1047Y-3.5311
X6.1047Y-3.602
X6.1063Y-3.4579
X6.1106Y-3.3421
X6.1315Y-2.1933
X6.1319Y-2.2453
X6.139Y-3.2461
X6.1429Y-3.3043
X6.1575Y-2.5051
X6.1736Y-3.213
X6.1756Y-3.6748
X6.1768Y-3.5323
X6.1768Y-3.6031
X6.1783Y-3.3953
X6.1783Y-3.4591
X6.1811Y-3.2677
X6.1862Y-2.3079
X6.1878Y-2.1925
X6.1882Y-2.2445
X6.2248Y-3.3024
X6.2268Y-3.2087
X6.2276Y-3.2484
X6.2311Y-2.274
X6.2323Y-2.2165
X6.2339Y-2.3343
X6.237Y-2.3909
X6.239Y-3.3657
X6.2504Y-3.6748
X6.2516Y-3.5323
X6.2516Y-3.6031
X6.2531Y-3.4591
X6.2776Y-3.2012
X6.2843Y-3.2484
X6.2941Y-3.3264
X6.2984Y-3.4024
X6.3268Y-3.2004
X6.3358Y-3.2433
X6.3382Y-3.2933
X6.3528Y-3.3469
X6.3776Y-3.2028
X6.3791Y-3.2535
X6.3791Y-3.3906
X6.3811Y-3.3071
X6.3846Y-3.0831
X6.4047Y-3.352
X6.4339Y-3.3917
X6.4354Y-3.0823
X6.4575Y-3.3524
X6.4839Y-3.3898
X6.4913Y-3.0815
X6.5098Y-3.3524
X6.5118Y-2.8642
X6.5177Y-2.1992
X6.539Y-3.3854
X6.5465Y-3.0839
X6.5614Y-3.3374
X6.5665Y-3.1807
X6.5673Y-3.2346
X6.5685Y-3.2854
X6.5693Y-3.1287
X6.5921Y-2.2004
X6.5941Y-3.3661
X6.6043Y-3.0941
X6.6059Y-3.3102
X6.6067Y-3.1512
X6.6075Y-3.2028
X6.6102Y-3.252
X6.6642Y-3.6276
X6.6657Y-3.2433
X6.6657Y-3.3205
X6.6669Y-3.1634
X6.6685Y-3.089
X6.6685Y-3.3917
X6.6685Y-3.5484
X6.6697Y-3.4693
X6.6724Y-3.0173
X6.6736Y-2.9484
X6.6744Y-2.2866
X6.6744Y-2.5252
X6.6744Y-2.8819
X6.676Y-2.2004
X6.676Y-2.3685
X6.6772Y-2.4476
X6.7386Y-3.6287
X6.7402Y-3.2445
X6.7402Y-3.3217
X6.7413Y-3.1646
X6.7429Y-3.0902
X6.7429Y-3.3929
X6.7429Y-3.5496
X6.7441Y-3.4705
X6.7469Y-3.0185
X6.748Y-2.9496
X6.7488Y-2.2878
X6.7488Y-2.5264
X6.7488Y-2.8831
X6.7504Y-2.2016
X6.7504Y-2.3697
X6.7516Y-2.4488
X6.8154Y-3.628
X6.8169Y-3.2437
X6.8169Y-3.3209
X6.8197Y-3.3921
X6.8197Y-3.5488
X6.8209Y-3.4697
X6.8335Y-2.1988
T3
X5.2799Y-2.8327
X5.2799Y-3.1327
X5.2823Y-2.9335
X5.2846Y-2.7335
X5.4555Y-3.0402
X5.6091Y-2.6752
X5.6846Y-2.8043
X5.7697Y-2.2535
X5.8024Y-2.8949
X5.8138Y-3.1457
X5.8173Y-2.3311
X6.052Y-2.9531
X6.1576Y-2.4165
X6.3161Y-2.3728
X6.3453Y-3.0161
X6.4035Y-2.8371
X6.4081Y-2.9319
T4
X5.1805Y-2.3332
X5.1805Y-2.4334
X5.1805Y-2.5334
X5.1805Y-2.6334
X5.1815Y-2.7334
X5.1815Y-2.8334
X5.1815Y-2.9334
X5.1815Y-3.0334
X5.1815Y-3.1334
X6.8372Y-2.3332
X6.8372Y-2.4334
X6.8372Y-2.5334
X6.8372Y-2.6334
X6.8382Y-2.7334
X6.8382Y-2.8334
X6.8382Y-2.9334
X6.8382Y-3.0334
X6.8382Y-3.1334
T0
M30
