%TF.GenerationSoftware,KiCad,Pcbnew,(6.0.9)*%
%TF.CreationDate,2023-11-09T09:33:38+01:00*%
%TF.ProjectId,LO_daughter,4c4f5f64-6175-4676-9874-65722e6b6963,rev?*%
%TF.SameCoordinates,Original*%
%TF.FileFunction,Paste,Top*%
%TF.FilePolarity,Positive*%
%FSLAX46Y46*%
G04 Gerber Fmt 4.6, Leading zero omitted, Abs format (unit mm)*
G04 Created by KiCad (PCBNEW (6.0.9)) date 2023-11-09 09:33:38*
%MOMM*%
%LPD*%
G01*
G04 APERTURE LIST*
G04 Aperture macros list*
%AMRoundRect*
0 Rectangle with rounded corners*
0 $1 Rounding radius*
0 $2 $3 $4 $5 $6 $7 $8 $9 X,Y pos of 4 corners*
0 Add a 4 corners polygon primitive as box body*
4,1,4,$2,$3,$4,$5,$6,$7,$8,$9,$2,$3,0*
0 Add four circle primitives for the rounded corners*
1,1,$1+$1,$2,$3*
1,1,$1+$1,$4,$5*
1,1,$1+$1,$6,$7*
1,1,$1+$1,$8,$9*
0 Add four rect primitives between the rounded corners*
20,1,$1+$1,$2,$3,$4,$5,0*
20,1,$1+$1,$4,$5,$6,$7,0*
20,1,$1+$1,$6,$7,$8,$9,0*
20,1,$1+$1,$8,$9,$2,$3,0*%
G04 Aperture macros list end*
%ADD10RoundRect,0.237500X-0.237500X0.250000X-0.237500X-0.250000X0.237500X-0.250000X0.237500X0.250000X0*%
%ADD11R,1.065000X0.360000*%
%ADD12R,0.710000X0.360000*%
%ADD13R,0.410000X1.780000*%
%ADD14RoundRect,0.237500X-0.237500X0.300000X-0.237500X-0.300000X0.237500X-0.300000X0.237500X0.300000X0*%
%ADD15R,3.180000X1.040000*%
%ADD16RoundRect,0.250000X0.337500X0.475000X-0.337500X0.475000X-0.337500X-0.475000X0.337500X-0.475000X0*%
%ADD17RoundRect,0.090000X0.090000X-0.139000X0.090000X0.139000X-0.090000X0.139000X-0.090000X-0.139000X0*%
%ADD18RoundRect,0.250000X-0.337500X-0.475000X0.337500X-0.475000X0.337500X0.475000X-0.337500X0.475000X0*%
%ADD19R,3.000000X5.000000*%
%ADD20R,7.000000X5.000000*%
%ADD21RoundRect,0.160000X0.222500X0.160000X-0.222500X0.160000X-0.222500X-0.160000X0.222500X-0.160000X0*%
%ADD22RoundRect,0.250000X-0.475000X0.337500X-0.475000X-0.337500X0.475000X-0.337500X0.475000X0.337500X0*%
%ADD23RoundRect,0.237500X-0.300000X-0.237500X0.300000X-0.237500X0.300000X0.237500X-0.300000X0.237500X0*%
%ADD24RoundRect,0.237500X-0.250000X-0.237500X0.250000X-0.237500X0.250000X0.237500X-0.250000X0.237500X0*%
%ADD25R,0.500000X0.400000*%
%ADD26RoundRect,0.250000X-0.412500X-0.650000X0.412500X-0.650000X0.412500X0.650000X-0.412500X0.650000X0*%
%ADD27RoundRect,0.160000X-0.222500X-0.160000X0.222500X-0.160000X0.222500X0.160000X-0.222500X0.160000X0*%
%ADD28RoundRect,0.160000X0.197500X0.160000X-0.197500X0.160000X-0.197500X-0.160000X0.197500X-0.160000X0*%
%ADD29RoundRect,0.237500X0.300000X0.237500X-0.300000X0.237500X-0.300000X-0.237500X0.300000X-0.237500X0*%
%ADD30RoundRect,0.155000X-0.212500X-0.155000X0.212500X-0.155000X0.212500X0.155000X-0.212500X0.155000X0*%
%ADD31RoundRect,0.155000X0.212500X0.155000X-0.212500X0.155000X-0.212500X-0.155000X0.212500X-0.155000X0*%
%ADD32R,0.800000X0.300000*%
%ADD33R,0.300000X0.800000*%
%ADD34R,3.750000X3.750000*%
%ADD35RoundRect,0.250000X0.475000X-0.337500X0.475000X0.337500X-0.475000X0.337500X-0.475000X-0.337500X0*%
%ADD36RoundRect,0.250000X0.350000X0.450000X-0.350000X0.450000X-0.350000X-0.450000X0.350000X-0.450000X0*%
%ADD37RoundRect,0.237500X0.237500X-0.300000X0.237500X0.300000X-0.237500X0.300000X-0.237500X-0.300000X0*%
G04 APERTURE END LIST*
D10*
%TO.C,R3*%
X170810000Y-69367500D03*
X170810000Y-71192500D03*
%TD*%
D11*
%TO.C,U2*%
X147683000Y-83880000D03*
D12*
X147505000Y-83170000D03*
D11*
X147683000Y-82460000D03*
D12*
X149335000Y-82460000D03*
D11*
X149157000Y-83170000D03*
D12*
X149335000Y-83880000D03*
D13*
X148420000Y-83170000D03*
%TD*%
D14*
%TO.C,C4*%
X139577500Y-64600000D03*
X139577500Y-66325000D03*
%TD*%
D15*
%TO.C,C26*%
X156200000Y-77390000D03*
X156200000Y-80070000D03*
%TD*%
D16*
%TO.C,C2*%
X140650000Y-72480000D03*
X138575000Y-72480000D03*
%TD*%
D17*
%TO.C,C24*%
X162520000Y-68727500D03*
X162520000Y-69760000D03*
%TD*%
D18*
%TO.C,C13*%
X142272500Y-56540000D03*
X144347500Y-56540000D03*
%TD*%
D19*
%TO.C,J3*%
X141505000Y-81670000D03*
D20*
X141505000Y-89670000D03*
%TD*%
D15*
%TO.C,C25*%
X151740000Y-77410000D03*
X151740000Y-80090000D03*
%TD*%
D18*
%TO.C,C11*%
X165732500Y-76720000D03*
X167807500Y-76720000D03*
%TD*%
D21*
%TO.C,L1*%
X151682500Y-75620000D03*
X150537500Y-75620000D03*
%TD*%
D22*
%TO.C,C3*%
X145380000Y-75062500D03*
X145380000Y-77137500D03*
%TD*%
D23*
%TO.C,C14*%
X142687500Y-58850000D03*
X144412500Y-58850000D03*
%TD*%
D24*
%TO.C,R1*%
X149837500Y-58610000D03*
X151662500Y-58610000D03*
%TD*%
D22*
%TO.C,C1*%
X137537500Y-64595000D03*
X137537500Y-66670000D03*
%TD*%
D14*
%TO.C,C6*%
X143030000Y-75475000D03*
X143030000Y-77200000D03*
%TD*%
D25*
%TO.C,FB1*%
X148440000Y-77170000D03*
X148440000Y-76370000D03*
%TD*%
D26*
%TO.C,C21*%
X167647500Y-66960000D03*
X170772500Y-66960000D03*
%TD*%
D27*
%TO.C,L2*%
X155607500Y-75650000D03*
X156752500Y-75650000D03*
%TD*%
D28*
%TO.C,R4*%
X166777500Y-68970000D03*
X165582500Y-68970000D03*
%TD*%
D29*
%TO.C,C5*%
X140745000Y-70520000D03*
X139020000Y-70520000D03*
%TD*%
D14*
%TO.C,C19*%
X165590000Y-62997500D03*
X165590000Y-64722500D03*
%TD*%
D22*
%TO.C,C16*%
X160020000Y-56252500D03*
X160020000Y-58327500D03*
%TD*%
D14*
%TO.C,C20*%
X159100000Y-78037500D03*
X159100000Y-79762500D03*
%TD*%
D19*
%TO.C,J4*%
X164365000Y-81670000D03*
D20*
X164365000Y-89670000D03*
%TD*%
D23*
%TO.C,C12*%
X165687500Y-74390000D03*
X167412500Y-74390000D03*
%TD*%
D30*
%TO.C,C7*%
X149082500Y-56690000D03*
X150217500Y-56690000D03*
%TD*%
D31*
%TO.C,C8*%
X155777500Y-58400000D03*
X154642500Y-58400000D03*
%TD*%
D32*
%TO.C,U1*%
X151270000Y-67410000D03*
X151270000Y-67910000D03*
X151270000Y-68410000D03*
X151270000Y-68910000D03*
X151270000Y-69410000D03*
X151270000Y-69910000D03*
X151270000Y-70410000D03*
X151270000Y-70910000D03*
D33*
X152020000Y-71660000D03*
X152520000Y-71660000D03*
X153020000Y-71660000D03*
X153520000Y-71660000D03*
X154020000Y-71660000D03*
X154520000Y-71660000D03*
X155020000Y-71660000D03*
X155520000Y-71660000D03*
D32*
X156270000Y-70910000D03*
X156270000Y-70410000D03*
X156270000Y-69910000D03*
X156270000Y-69410000D03*
X156270000Y-68910000D03*
X156270000Y-68410000D03*
X156270000Y-67910000D03*
X156270000Y-67410000D03*
D33*
X155520000Y-66660000D03*
X155020000Y-66660000D03*
X154520000Y-66660000D03*
X154020000Y-66660000D03*
X153520000Y-66660000D03*
X153020000Y-66660000D03*
X152520000Y-66660000D03*
X152020000Y-66660000D03*
D34*
X153770000Y-69160000D03*
%TD*%
D30*
%TO.C,C10*%
X153582500Y-59830000D03*
X154717500Y-59830000D03*
%TD*%
D35*
%TO.C,C22*%
X167540000Y-59857500D03*
X167540000Y-57782500D03*
%TD*%
D14*
%TO.C,C18*%
X162350000Y-56537500D03*
X162350000Y-58262500D03*
%TD*%
D22*
%TO.C,C17*%
X168580000Y-69482500D03*
X168580000Y-71557500D03*
%TD*%
%TO.C,C15*%
X167730000Y-62042500D03*
X167730000Y-64117500D03*
%TD*%
D36*
%TO.C,R2*%
X164780000Y-66870000D03*
X162780000Y-66870000D03*
%TD*%
D37*
%TO.C,C23*%
X165112500Y-59892500D03*
X165112500Y-58167500D03*
%TD*%
D30*
%TO.C,C9*%
X150392500Y-60260000D03*
X151527500Y-60260000D03*
%TD*%
M02*
