%TF.GenerationSoftware,KiCad,Pcbnew,(6.0.9)*%
%TF.CreationDate,2023-11-09T09:33:38+01:00*%
%TF.ProjectId,LO_daughter,4c4f5f64-6175-4676-9874-65722e6b6963,rev?*%
%TF.SameCoordinates,Original*%
%TF.FileFunction,Legend,Top*%
%TF.FilePolarity,Positive*%
%FSLAX46Y46*%
G04 Gerber Fmt 4.6, Leading zero omitted, Abs format (unit mm)*
G04 Created by KiCad (PCBNEW (6.0.9)) date 2023-11-09 09:33:38*
%MOMM*%
%LPD*%
G01*
G04 APERTURE LIST*
%ADD10C,0.150000*%
%ADD11C,0.254000*%
%ADD12C,0.120000*%
%ADD13C,0.100000*%
%ADD14C,0.200000*%
%ADD15C,0.050000*%
%ADD16C,0.250000*%
G04 APERTURE END LIST*
D10*
%TO.C,R3*%
X172692380Y-70446666D02*
X172216190Y-70780000D01*
X172692380Y-71018095D02*
X171692380Y-71018095D01*
X171692380Y-70637142D01*
X171740000Y-70541904D01*
X171787619Y-70494285D01*
X171882857Y-70446666D01*
X172025714Y-70446666D01*
X172120952Y-70494285D01*
X172168571Y-70541904D01*
X172216190Y-70637142D01*
X172216190Y-71018095D01*
X171692380Y-70113333D02*
X171692380Y-69494285D01*
X172073333Y-69827619D01*
X172073333Y-69684761D01*
X172120952Y-69589523D01*
X172168571Y-69541904D01*
X172263809Y-69494285D01*
X172501904Y-69494285D01*
X172597142Y-69541904D01*
X172644761Y-69589523D01*
X172692380Y-69684761D01*
X172692380Y-69970476D01*
X172644761Y-70065714D01*
X172597142Y-70113333D01*
D11*
%TO.C,U2*%
X147964523Y-84137619D02*
X148992619Y-84137619D01*
X149113571Y-84077142D01*
X149174047Y-84016666D01*
X149234523Y-83895714D01*
X149234523Y-83653809D01*
X149174047Y-83532857D01*
X149113571Y-83472380D01*
X148992619Y-83411904D01*
X147964523Y-83411904D01*
X148085476Y-82867619D02*
X148025000Y-82807142D01*
X147964523Y-82686190D01*
X147964523Y-82383809D01*
X148025000Y-82262857D01*
X148085476Y-82202380D01*
X148206428Y-82141904D01*
X148327380Y-82141904D01*
X148508809Y-82202380D01*
X149234523Y-82928095D01*
X149234523Y-82141904D01*
D10*
%TO.C,C4*%
X141174642Y-65769166D02*
X141222261Y-65816785D01*
X141269880Y-65959642D01*
X141269880Y-66054880D01*
X141222261Y-66197738D01*
X141127023Y-66292976D01*
X141031785Y-66340595D01*
X140841309Y-66388214D01*
X140698452Y-66388214D01*
X140507976Y-66340595D01*
X140412738Y-66292976D01*
X140317500Y-66197738D01*
X140269880Y-66054880D01*
X140269880Y-65959642D01*
X140317500Y-65816785D01*
X140365119Y-65769166D01*
X140603214Y-64912023D02*
X141269880Y-64912023D01*
X140222261Y-65150119D02*
X140936547Y-65388214D01*
X140936547Y-64769166D01*
D11*
%TO.C,C26*%
X156653571Y-79546428D02*
X156714047Y-79606904D01*
X156774523Y-79788333D01*
X156774523Y-79909285D01*
X156714047Y-80090714D01*
X156593095Y-80211666D01*
X156472142Y-80272142D01*
X156230238Y-80332619D01*
X156048809Y-80332619D01*
X155806904Y-80272142D01*
X155685952Y-80211666D01*
X155565000Y-80090714D01*
X155504523Y-79909285D01*
X155504523Y-79788333D01*
X155565000Y-79606904D01*
X155625476Y-79546428D01*
X155625476Y-79062619D02*
X155565000Y-79002142D01*
X155504523Y-78881190D01*
X155504523Y-78578809D01*
X155565000Y-78457857D01*
X155625476Y-78397380D01*
X155746428Y-78336904D01*
X155867380Y-78336904D01*
X156048809Y-78397380D01*
X156774523Y-79123095D01*
X156774523Y-78336904D01*
X155504523Y-77248333D02*
X155504523Y-77490238D01*
X155565000Y-77611190D01*
X155625476Y-77671666D01*
X155806904Y-77792619D01*
X156048809Y-77853095D01*
X156532619Y-77853095D01*
X156653571Y-77792619D01*
X156714047Y-77732142D01*
X156774523Y-77611190D01*
X156774523Y-77369285D01*
X156714047Y-77248333D01*
X156653571Y-77187857D01*
X156532619Y-77127380D01*
X156230238Y-77127380D01*
X156109285Y-77187857D01*
X156048809Y-77248333D01*
X155988333Y-77369285D01*
X155988333Y-77611190D01*
X156048809Y-77732142D01*
X156109285Y-77792619D01*
X156230238Y-77853095D01*
D10*
%TO.C,C2*%
X139445833Y-74517142D02*
X139398214Y-74564761D01*
X139255357Y-74612380D01*
X139160119Y-74612380D01*
X139017261Y-74564761D01*
X138922023Y-74469523D01*
X138874404Y-74374285D01*
X138826785Y-74183809D01*
X138826785Y-74040952D01*
X138874404Y-73850476D01*
X138922023Y-73755238D01*
X139017261Y-73660000D01*
X139160119Y-73612380D01*
X139255357Y-73612380D01*
X139398214Y-73660000D01*
X139445833Y-73707619D01*
X139826785Y-73707619D02*
X139874404Y-73660000D01*
X139969642Y-73612380D01*
X140207738Y-73612380D01*
X140302976Y-73660000D01*
X140350595Y-73707619D01*
X140398214Y-73802857D01*
X140398214Y-73898095D01*
X140350595Y-74040952D01*
X139779166Y-74612380D01*
X140398214Y-74612380D01*
%TO.C,C24*%
X161027142Y-70012857D02*
X161074761Y-70060476D01*
X161122380Y-70203333D01*
X161122380Y-70298571D01*
X161074761Y-70441428D01*
X160979523Y-70536666D01*
X160884285Y-70584285D01*
X160693809Y-70631904D01*
X160550952Y-70631904D01*
X160360476Y-70584285D01*
X160265238Y-70536666D01*
X160170000Y-70441428D01*
X160122380Y-70298571D01*
X160122380Y-70203333D01*
X160170000Y-70060476D01*
X160217619Y-70012857D01*
X160217619Y-69631904D02*
X160170000Y-69584285D01*
X160122380Y-69489047D01*
X160122380Y-69250952D01*
X160170000Y-69155714D01*
X160217619Y-69108095D01*
X160312857Y-69060476D01*
X160408095Y-69060476D01*
X160550952Y-69108095D01*
X161122380Y-69679523D01*
X161122380Y-69060476D01*
X160455714Y-68203333D02*
X161122380Y-68203333D01*
X160074761Y-68441428D02*
X160789047Y-68679523D01*
X160789047Y-68060476D01*
%TO.C,C13*%
X142667142Y-55217142D02*
X142619523Y-55264761D01*
X142476666Y-55312380D01*
X142381428Y-55312380D01*
X142238571Y-55264761D01*
X142143333Y-55169523D01*
X142095714Y-55074285D01*
X142048095Y-54883809D01*
X142048095Y-54740952D01*
X142095714Y-54550476D01*
X142143333Y-54455238D01*
X142238571Y-54360000D01*
X142381428Y-54312380D01*
X142476666Y-54312380D01*
X142619523Y-54360000D01*
X142667142Y-54407619D01*
X143619523Y-55312380D02*
X143048095Y-55312380D01*
X143333809Y-55312380D02*
X143333809Y-54312380D01*
X143238571Y-54455238D01*
X143143333Y-54550476D01*
X143048095Y-54598095D01*
X143952857Y-54312380D02*
X144571904Y-54312380D01*
X144238571Y-54693333D01*
X144381428Y-54693333D01*
X144476666Y-54740952D01*
X144524285Y-54788571D01*
X144571904Y-54883809D01*
X144571904Y-55121904D01*
X144524285Y-55217142D01*
X144476666Y-55264761D01*
X144381428Y-55312380D01*
X144095714Y-55312380D01*
X144000476Y-55264761D01*
X143952857Y-55217142D01*
%TO.C,J3*%
X139046666Y-85122380D02*
X139046666Y-85836666D01*
X138999047Y-85979523D01*
X138903809Y-86074761D01*
X138760952Y-86122380D01*
X138665714Y-86122380D01*
X139427619Y-85122380D02*
X140046666Y-85122380D01*
X139713333Y-85503333D01*
X139856190Y-85503333D01*
X139951428Y-85550952D01*
X139999047Y-85598571D01*
X140046666Y-85693809D01*
X140046666Y-85931904D01*
X139999047Y-86027142D01*
X139951428Y-86074761D01*
X139856190Y-86122380D01*
X139570476Y-86122380D01*
X139475238Y-86074761D01*
X139427619Y-86027142D01*
D11*
%TO.C,C25*%
X152193571Y-79566428D02*
X152254047Y-79626904D01*
X152314523Y-79808333D01*
X152314523Y-79929285D01*
X152254047Y-80110714D01*
X152133095Y-80231666D01*
X152012142Y-80292142D01*
X151770238Y-80352619D01*
X151588809Y-80352619D01*
X151346904Y-80292142D01*
X151225952Y-80231666D01*
X151105000Y-80110714D01*
X151044523Y-79929285D01*
X151044523Y-79808333D01*
X151105000Y-79626904D01*
X151165476Y-79566428D01*
X151165476Y-79082619D02*
X151105000Y-79022142D01*
X151044523Y-78901190D01*
X151044523Y-78598809D01*
X151105000Y-78477857D01*
X151165476Y-78417380D01*
X151286428Y-78356904D01*
X151407380Y-78356904D01*
X151588809Y-78417380D01*
X152314523Y-79143095D01*
X152314523Y-78356904D01*
X151044523Y-77207857D02*
X151044523Y-77812619D01*
X151649285Y-77873095D01*
X151588809Y-77812619D01*
X151528333Y-77691666D01*
X151528333Y-77389285D01*
X151588809Y-77268333D01*
X151649285Y-77207857D01*
X151770238Y-77147380D01*
X152072619Y-77147380D01*
X152193571Y-77207857D01*
X152254047Y-77268333D01*
X152314523Y-77389285D01*
X152314523Y-77691666D01*
X152254047Y-77812619D01*
X152193571Y-77873095D01*
D10*
%TO.C,C11*%
X166127142Y-75397142D02*
X166079523Y-75444761D01*
X165936666Y-75492380D01*
X165841428Y-75492380D01*
X165698571Y-75444761D01*
X165603333Y-75349523D01*
X165555714Y-75254285D01*
X165508095Y-75063809D01*
X165508095Y-74920952D01*
X165555714Y-74730476D01*
X165603333Y-74635238D01*
X165698571Y-74540000D01*
X165841428Y-74492380D01*
X165936666Y-74492380D01*
X166079523Y-74540000D01*
X166127142Y-74587619D01*
X167079523Y-75492380D02*
X166508095Y-75492380D01*
X166793809Y-75492380D02*
X166793809Y-74492380D01*
X166698571Y-74635238D01*
X166603333Y-74730476D01*
X166508095Y-74778095D01*
X168031904Y-75492380D02*
X167460476Y-75492380D01*
X167746190Y-75492380D02*
X167746190Y-74492380D01*
X167650952Y-74635238D01*
X167555714Y-74730476D01*
X167460476Y-74778095D01*
%TO.C,L1*%
X150943333Y-77242380D02*
X150467142Y-77242380D01*
X150467142Y-76242380D01*
X151800476Y-77242380D02*
X151229047Y-77242380D01*
X151514761Y-77242380D02*
X151514761Y-76242380D01*
X151419523Y-76385238D01*
X151324285Y-76480476D01*
X151229047Y-76528095D01*
%TO.C,C3*%
X147417142Y-76266666D02*
X147464761Y-76314285D01*
X147512380Y-76457142D01*
X147512380Y-76552380D01*
X147464761Y-76695238D01*
X147369523Y-76790476D01*
X147274285Y-76838095D01*
X147083809Y-76885714D01*
X146940952Y-76885714D01*
X146750476Y-76838095D01*
X146655238Y-76790476D01*
X146560000Y-76695238D01*
X146512380Y-76552380D01*
X146512380Y-76457142D01*
X146560000Y-76314285D01*
X146607619Y-76266666D01*
X146512380Y-75933333D02*
X146512380Y-75314285D01*
X146893333Y-75647619D01*
X146893333Y-75504761D01*
X146940952Y-75409523D01*
X146988571Y-75361904D01*
X147083809Y-75314285D01*
X147321904Y-75314285D01*
X147417142Y-75361904D01*
X147464761Y-75409523D01*
X147512380Y-75504761D01*
X147512380Y-75790476D01*
X147464761Y-75885714D01*
X147417142Y-75933333D01*
%TO.C,C14*%
X142907142Y-57777142D02*
X142859523Y-57824761D01*
X142716666Y-57872380D01*
X142621428Y-57872380D01*
X142478571Y-57824761D01*
X142383333Y-57729523D01*
X142335714Y-57634285D01*
X142288095Y-57443809D01*
X142288095Y-57300952D01*
X142335714Y-57110476D01*
X142383333Y-57015238D01*
X142478571Y-56920000D01*
X142621428Y-56872380D01*
X142716666Y-56872380D01*
X142859523Y-56920000D01*
X142907142Y-56967619D01*
X143859523Y-57872380D02*
X143288095Y-57872380D01*
X143573809Y-57872380D02*
X143573809Y-56872380D01*
X143478571Y-57015238D01*
X143383333Y-57110476D01*
X143288095Y-57158095D01*
X144716666Y-57205714D02*
X144716666Y-57872380D01*
X144478571Y-56824761D02*
X144240476Y-57539047D01*
X144859523Y-57539047D01*
%TO.C,R1*%
X150583333Y-57632380D02*
X150250000Y-57156190D01*
X150011904Y-57632380D02*
X150011904Y-56632380D01*
X150392857Y-56632380D01*
X150488095Y-56680000D01*
X150535714Y-56727619D01*
X150583333Y-56822857D01*
X150583333Y-56965714D01*
X150535714Y-57060952D01*
X150488095Y-57108571D01*
X150392857Y-57156190D01*
X150011904Y-57156190D01*
X151535714Y-57632380D02*
X150964285Y-57632380D01*
X151250000Y-57632380D02*
X151250000Y-56632380D01*
X151154761Y-56775238D01*
X151059523Y-56870476D01*
X150964285Y-56918095D01*
%TO.C,C1*%
X139574642Y-65799166D02*
X139622261Y-65846785D01*
X139669880Y-65989642D01*
X139669880Y-66084880D01*
X139622261Y-66227738D01*
X139527023Y-66322976D01*
X139431785Y-66370595D01*
X139241309Y-66418214D01*
X139098452Y-66418214D01*
X138907976Y-66370595D01*
X138812738Y-66322976D01*
X138717500Y-66227738D01*
X138669880Y-66084880D01*
X138669880Y-65989642D01*
X138717500Y-65846785D01*
X138765119Y-65799166D01*
X139669880Y-64846785D02*
X139669880Y-65418214D01*
X139669880Y-65132500D02*
X138669880Y-65132500D01*
X138812738Y-65227738D01*
X138907976Y-65322976D01*
X138955595Y-65418214D01*
%TO.C,C6*%
X144817142Y-76504166D02*
X144864761Y-76551785D01*
X144912380Y-76694642D01*
X144912380Y-76789880D01*
X144864761Y-76932738D01*
X144769523Y-77027976D01*
X144674285Y-77075595D01*
X144483809Y-77123214D01*
X144340952Y-77123214D01*
X144150476Y-77075595D01*
X144055238Y-77027976D01*
X143960000Y-76932738D01*
X143912380Y-76789880D01*
X143912380Y-76694642D01*
X143960000Y-76551785D01*
X144007619Y-76504166D01*
X143912380Y-75647023D02*
X143912380Y-75837500D01*
X143960000Y-75932738D01*
X144007619Y-75980357D01*
X144150476Y-76075595D01*
X144340952Y-76123214D01*
X144721904Y-76123214D01*
X144817142Y-76075595D01*
X144864761Y-76027976D01*
X144912380Y-75932738D01*
X144912380Y-75742261D01*
X144864761Y-75647023D01*
X144817142Y-75599404D01*
X144721904Y-75551785D01*
X144483809Y-75551785D01*
X144388571Y-75599404D01*
X144340952Y-75647023D01*
X144293333Y-75742261D01*
X144293333Y-75932738D01*
X144340952Y-76027976D01*
X144388571Y-76075595D01*
X144483809Y-76123214D01*
D11*
%TO.C,FB1*%
X149879285Y-77938333D02*
X149879285Y-78361666D01*
X150544523Y-78361666D02*
X149274523Y-78361666D01*
X149274523Y-77756904D01*
X149879285Y-76849761D02*
X149939761Y-76668333D01*
X150000238Y-76607857D01*
X150121190Y-76547380D01*
X150302619Y-76547380D01*
X150423571Y-76607857D01*
X150484047Y-76668333D01*
X150544523Y-76789285D01*
X150544523Y-77273095D01*
X149274523Y-77273095D01*
X149274523Y-76849761D01*
X149335000Y-76728809D01*
X149395476Y-76668333D01*
X149516428Y-76607857D01*
X149637380Y-76607857D01*
X149758333Y-76668333D01*
X149818809Y-76728809D01*
X149879285Y-76849761D01*
X149879285Y-77273095D01*
X150544523Y-75337857D02*
X150544523Y-76063571D01*
X150544523Y-75700714D02*
X149274523Y-75700714D01*
X149455952Y-75821666D01*
X149576904Y-75942619D01*
X149637380Y-76063571D01*
D10*
%TO.C,C21*%
X168567142Y-65467142D02*
X168519523Y-65514761D01*
X168376666Y-65562380D01*
X168281428Y-65562380D01*
X168138571Y-65514761D01*
X168043333Y-65419523D01*
X167995714Y-65324285D01*
X167948095Y-65133809D01*
X167948095Y-64990952D01*
X167995714Y-64800476D01*
X168043333Y-64705238D01*
X168138571Y-64610000D01*
X168281428Y-64562380D01*
X168376666Y-64562380D01*
X168519523Y-64610000D01*
X168567142Y-64657619D01*
X168948095Y-64657619D02*
X168995714Y-64610000D01*
X169090952Y-64562380D01*
X169329047Y-64562380D01*
X169424285Y-64610000D01*
X169471904Y-64657619D01*
X169519523Y-64752857D01*
X169519523Y-64848095D01*
X169471904Y-64990952D01*
X168900476Y-65562380D01*
X169519523Y-65562380D01*
X170471904Y-65562380D02*
X169900476Y-65562380D01*
X170186190Y-65562380D02*
X170186190Y-64562380D01*
X170090952Y-64705238D01*
X169995714Y-64800476D01*
X169900476Y-64848095D01*
%TO.C,L2*%
X156013333Y-74932380D02*
X155537142Y-74932380D01*
X155537142Y-73932380D01*
X156299047Y-74027619D02*
X156346666Y-73980000D01*
X156441904Y-73932380D01*
X156680000Y-73932380D01*
X156775238Y-73980000D01*
X156822857Y-74027619D01*
X156870476Y-74122857D01*
X156870476Y-74218095D01*
X156822857Y-74360952D01*
X156251428Y-74932380D01*
X156870476Y-74932380D01*
%TO.C,R4*%
X166013333Y-70592380D02*
X165680000Y-70116190D01*
X165441904Y-70592380D02*
X165441904Y-69592380D01*
X165822857Y-69592380D01*
X165918095Y-69640000D01*
X165965714Y-69687619D01*
X166013333Y-69782857D01*
X166013333Y-69925714D01*
X165965714Y-70020952D01*
X165918095Y-70068571D01*
X165822857Y-70116190D01*
X165441904Y-70116190D01*
X166870476Y-69925714D02*
X166870476Y-70592380D01*
X166632380Y-69544761D02*
X166394285Y-70259047D01*
X167013333Y-70259047D01*
%TO.C,C5*%
X139715833Y-72307142D02*
X139668214Y-72354761D01*
X139525357Y-72402380D01*
X139430119Y-72402380D01*
X139287261Y-72354761D01*
X139192023Y-72259523D01*
X139144404Y-72164285D01*
X139096785Y-71973809D01*
X139096785Y-71830952D01*
X139144404Y-71640476D01*
X139192023Y-71545238D01*
X139287261Y-71450000D01*
X139430119Y-71402380D01*
X139525357Y-71402380D01*
X139668214Y-71450000D01*
X139715833Y-71497619D01*
X140620595Y-71402380D02*
X140144404Y-71402380D01*
X140096785Y-71878571D01*
X140144404Y-71830952D01*
X140239642Y-71783333D01*
X140477738Y-71783333D01*
X140572976Y-71830952D01*
X140620595Y-71878571D01*
X140668214Y-71973809D01*
X140668214Y-72211904D01*
X140620595Y-72307142D01*
X140572976Y-72354761D01*
X140477738Y-72402380D01*
X140239642Y-72402380D01*
X140144404Y-72354761D01*
X140096785Y-72307142D01*
%TO.C,C19*%
X167577142Y-65052857D02*
X167624761Y-65100476D01*
X167672380Y-65243333D01*
X167672380Y-65338571D01*
X167624761Y-65481428D01*
X167529523Y-65576666D01*
X167434285Y-65624285D01*
X167243809Y-65671904D01*
X167100952Y-65671904D01*
X166910476Y-65624285D01*
X166815238Y-65576666D01*
X166720000Y-65481428D01*
X166672380Y-65338571D01*
X166672380Y-65243333D01*
X166720000Y-65100476D01*
X166767619Y-65052857D01*
X167672380Y-64100476D02*
X167672380Y-64671904D01*
X167672380Y-64386190D02*
X166672380Y-64386190D01*
X166815238Y-64481428D01*
X166910476Y-64576666D01*
X166958095Y-64671904D01*
X167672380Y-63624285D02*
X167672380Y-63433809D01*
X167624761Y-63338571D01*
X167577142Y-63290952D01*
X167434285Y-63195714D01*
X167243809Y-63148095D01*
X166862857Y-63148095D01*
X166767619Y-63195714D01*
X166720000Y-63243333D01*
X166672380Y-63338571D01*
X166672380Y-63529047D01*
X166720000Y-63624285D01*
X166767619Y-63671904D01*
X166862857Y-63719523D01*
X167100952Y-63719523D01*
X167196190Y-63671904D01*
X167243809Y-63624285D01*
X167291428Y-63529047D01*
X167291428Y-63338571D01*
X167243809Y-63243333D01*
X167196190Y-63195714D01*
X167100952Y-63148095D01*
%TO.C,C16*%
X162057142Y-57932857D02*
X162104761Y-57980476D01*
X162152380Y-58123333D01*
X162152380Y-58218571D01*
X162104761Y-58361428D01*
X162009523Y-58456666D01*
X161914285Y-58504285D01*
X161723809Y-58551904D01*
X161580952Y-58551904D01*
X161390476Y-58504285D01*
X161295238Y-58456666D01*
X161200000Y-58361428D01*
X161152380Y-58218571D01*
X161152380Y-58123333D01*
X161200000Y-57980476D01*
X161247619Y-57932857D01*
X162152380Y-56980476D02*
X162152380Y-57551904D01*
X162152380Y-57266190D02*
X161152380Y-57266190D01*
X161295238Y-57361428D01*
X161390476Y-57456666D01*
X161438095Y-57551904D01*
X161152380Y-56123333D02*
X161152380Y-56313809D01*
X161200000Y-56409047D01*
X161247619Y-56456666D01*
X161390476Y-56551904D01*
X161580952Y-56599523D01*
X161961904Y-56599523D01*
X162057142Y-56551904D01*
X162104761Y-56504285D01*
X162152380Y-56409047D01*
X162152380Y-56218571D01*
X162104761Y-56123333D01*
X162057142Y-56075714D01*
X161961904Y-56028095D01*
X161723809Y-56028095D01*
X161628571Y-56075714D01*
X161580952Y-56123333D01*
X161533333Y-56218571D01*
X161533333Y-56409047D01*
X161580952Y-56504285D01*
X161628571Y-56551904D01*
X161723809Y-56599523D01*
%TO.C,C20*%
X160887142Y-79542857D02*
X160934761Y-79590476D01*
X160982380Y-79733333D01*
X160982380Y-79828571D01*
X160934761Y-79971428D01*
X160839523Y-80066666D01*
X160744285Y-80114285D01*
X160553809Y-80161904D01*
X160410952Y-80161904D01*
X160220476Y-80114285D01*
X160125238Y-80066666D01*
X160030000Y-79971428D01*
X159982380Y-79828571D01*
X159982380Y-79733333D01*
X160030000Y-79590476D01*
X160077619Y-79542857D01*
X160077619Y-79161904D02*
X160030000Y-79114285D01*
X159982380Y-79019047D01*
X159982380Y-78780952D01*
X160030000Y-78685714D01*
X160077619Y-78638095D01*
X160172857Y-78590476D01*
X160268095Y-78590476D01*
X160410952Y-78638095D01*
X160982380Y-79209523D01*
X160982380Y-78590476D01*
X159982380Y-77971428D02*
X159982380Y-77876190D01*
X160030000Y-77780952D01*
X160077619Y-77733333D01*
X160172857Y-77685714D01*
X160363333Y-77638095D01*
X160601428Y-77638095D01*
X160791904Y-77685714D01*
X160887142Y-77733333D01*
X160934761Y-77780952D01*
X160982380Y-77876190D01*
X160982380Y-77971428D01*
X160934761Y-78066666D01*
X160887142Y-78114285D01*
X160791904Y-78161904D01*
X160601428Y-78209523D01*
X160363333Y-78209523D01*
X160172857Y-78161904D01*
X160077619Y-78114285D01*
X160030000Y-78066666D01*
X159982380Y-77971428D01*
D11*
%TO.C,J2*%
X176644523Y-81735833D02*
X177551666Y-81735833D01*
X177733095Y-81796309D01*
X177854047Y-81917261D01*
X177914523Y-82098690D01*
X177914523Y-82219642D01*
X176765476Y-81191547D02*
X176705000Y-81131071D01*
X176644523Y-81010119D01*
X176644523Y-80707738D01*
X176705000Y-80586785D01*
X176765476Y-80526309D01*
X176886428Y-80465833D01*
X177007380Y-80465833D01*
X177188809Y-80526309D01*
X177914523Y-81252023D01*
X177914523Y-80465833D01*
D10*
%TO.C,J4*%
X161906666Y-85122380D02*
X161906666Y-85836666D01*
X161859047Y-85979523D01*
X161763809Y-86074761D01*
X161620952Y-86122380D01*
X161525714Y-86122380D01*
X162811428Y-85455714D02*
X162811428Y-86122380D01*
X162573333Y-85074761D02*
X162335238Y-85789047D01*
X162954285Y-85789047D01*
%TO.C,C12*%
X165907142Y-73317142D02*
X165859523Y-73364761D01*
X165716666Y-73412380D01*
X165621428Y-73412380D01*
X165478571Y-73364761D01*
X165383333Y-73269523D01*
X165335714Y-73174285D01*
X165288095Y-72983809D01*
X165288095Y-72840952D01*
X165335714Y-72650476D01*
X165383333Y-72555238D01*
X165478571Y-72460000D01*
X165621428Y-72412380D01*
X165716666Y-72412380D01*
X165859523Y-72460000D01*
X165907142Y-72507619D01*
X166859523Y-73412380D02*
X166288095Y-73412380D01*
X166573809Y-73412380D02*
X166573809Y-72412380D01*
X166478571Y-72555238D01*
X166383333Y-72650476D01*
X166288095Y-72698095D01*
X167240476Y-72507619D02*
X167288095Y-72460000D01*
X167383333Y-72412380D01*
X167621428Y-72412380D01*
X167716666Y-72460000D01*
X167764285Y-72507619D01*
X167811904Y-72602857D01*
X167811904Y-72698095D01*
X167764285Y-72840952D01*
X167192857Y-73412380D01*
X167811904Y-73412380D01*
%TO.C,C7*%
X149483333Y-55887142D02*
X149435714Y-55934761D01*
X149292857Y-55982380D01*
X149197619Y-55982380D01*
X149054761Y-55934761D01*
X148959523Y-55839523D01*
X148911904Y-55744285D01*
X148864285Y-55553809D01*
X148864285Y-55410952D01*
X148911904Y-55220476D01*
X148959523Y-55125238D01*
X149054761Y-55030000D01*
X149197619Y-54982380D01*
X149292857Y-54982380D01*
X149435714Y-55030000D01*
X149483333Y-55077619D01*
X149816666Y-54982380D02*
X150483333Y-54982380D01*
X150054761Y-55982380D01*
%TO.C,C8*%
X156463333Y-59957142D02*
X156415714Y-60004761D01*
X156272857Y-60052380D01*
X156177619Y-60052380D01*
X156034761Y-60004761D01*
X155939523Y-59909523D01*
X155891904Y-59814285D01*
X155844285Y-59623809D01*
X155844285Y-59480952D01*
X155891904Y-59290476D01*
X155939523Y-59195238D01*
X156034761Y-59100000D01*
X156177619Y-59052380D01*
X156272857Y-59052380D01*
X156415714Y-59100000D01*
X156463333Y-59147619D01*
X157034761Y-59480952D02*
X156939523Y-59433333D01*
X156891904Y-59385714D01*
X156844285Y-59290476D01*
X156844285Y-59242857D01*
X156891904Y-59147619D01*
X156939523Y-59100000D01*
X157034761Y-59052380D01*
X157225238Y-59052380D01*
X157320476Y-59100000D01*
X157368095Y-59147619D01*
X157415714Y-59242857D01*
X157415714Y-59290476D01*
X157368095Y-59385714D01*
X157320476Y-59433333D01*
X157225238Y-59480952D01*
X157034761Y-59480952D01*
X156939523Y-59528571D01*
X156891904Y-59576190D01*
X156844285Y-59671428D01*
X156844285Y-59861904D01*
X156891904Y-59957142D01*
X156939523Y-60004761D01*
X157034761Y-60052380D01*
X157225238Y-60052380D01*
X157320476Y-60004761D01*
X157368095Y-59957142D01*
X157415714Y-59861904D01*
X157415714Y-59671428D01*
X157368095Y-59576190D01*
X157320476Y-59528571D01*
X157225238Y-59480952D01*
D11*
%TO.C,U1*%
X152802380Y-68464523D02*
X152802380Y-69492619D01*
X152862857Y-69613571D01*
X152923333Y-69674047D01*
X153044285Y-69734523D01*
X153286190Y-69734523D01*
X153407142Y-69674047D01*
X153467619Y-69613571D01*
X153528095Y-69492619D01*
X153528095Y-68464523D01*
X154798095Y-69734523D02*
X154072380Y-69734523D01*
X154435238Y-69734523D02*
X154435238Y-68464523D01*
X154314285Y-68645952D01*
X154193333Y-68766904D01*
X154072380Y-68827380D01*
D10*
%TO.C,C10*%
X153507142Y-59027142D02*
X153459523Y-59074761D01*
X153316666Y-59122380D01*
X153221428Y-59122380D01*
X153078571Y-59074761D01*
X152983333Y-58979523D01*
X152935714Y-58884285D01*
X152888095Y-58693809D01*
X152888095Y-58550952D01*
X152935714Y-58360476D01*
X152983333Y-58265238D01*
X153078571Y-58170000D01*
X153221428Y-58122380D01*
X153316666Y-58122380D01*
X153459523Y-58170000D01*
X153507142Y-58217619D01*
X154459523Y-59122380D02*
X153888095Y-59122380D01*
X154173809Y-59122380D02*
X154173809Y-58122380D01*
X154078571Y-58265238D01*
X153983333Y-58360476D01*
X153888095Y-58408095D01*
X155078571Y-58122380D02*
X155173809Y-58122380D01*
X155269047Y-58170000D01*
X155316666Y-58217619D01*
X155364285Y-58312857D01*
X155411904Y-58503333D01*
X155411904Y-58741428D01*
X155364285Y-58931904D01*
X155316666Y-59027142D01*
X155269047Y-59074761D01*
X155173809Y-59122380D01*
X155078571Y-59122380D01*
X154983333Y-59074761D01*
X154935714Y-59027142D01*
X154888095Y-58931904D01*
X154840476Y-58741428D01*
X154840476Y-58503333D01*
X154888095Y-58312857D01*
X154935714Y-58217619D01*
X154983333Y-58170000D01*
X155078571Y-58122380D01*
%TO.C,C22*%
X166217142Y-59462857D02*
X166264761Y-59510476D01*
X166312380Y-59653333D01*
X166312380Y-59748571D01*
X166264761Y-59891428D01*
X166169523Y-59986666D01*
X166074285Y-60034285D01*
X165883809Y-60081904D01*
X165740952Y-60081904D01*
X165550476Y-60034285D01*
X165455238Y-59986666D01*
X165360000Y-59891428D01*
X165312380Y-59748571D01*
X165312380Y-59653333D01*
X165360000Y-59510476D01*
X165407619Y-59462857D01*
X165407619Y-59081904D02*
X165360000Y-59034285D01*
X165312380Y-58939047D01*
X165312380Y-58700952D01*
X165360000Y-58605714D01*
X165407619Y-58558095D01*
X165502857Y-58510476D01*
X165598095Y-58510476D01*
X165740952Y-58558095D01*
X166312380Y-59129523D01*
X166312380Y-58510476D01*
X165407619Y-58129523D02*
X165360000Y-58081904D01*
X165312380Y-57986666D01*
X165312380Y-57748571D01*
X165360000Y-57653333D01*
X165407619Y-57605714D01*
X165502857Y-57558095D01*
X165598095Y-57558095D01*
X165740952Y-57605714D01*
X166312380Y-58177142D01*
X166312380Y-57558095D01*
%TO.C,C18*%
X164137142Y-58042857D02*
X164184761Y-58090476D01*
X164232380Y-58233333D01*
X164232380Y-58328571D01*
X164184761Y-58471428D01*
X164089523Y-58566666D01*
X163994285Y-58614285D01*
X163803809Y-58661904D01*
X163660952Y-58661904D01*
X163470476Y-58614285D01*
X163375238Y-58566666D01*
X163280000Y-58471428D01*
X163232380Y-58328571D01*
X163232380Y-58233333D01*
X163280000Y-58090476D01*
X163327619Y-58042857D01*
X164232380Y-57090476D02*
X164232380Y-57661904D01*
X164232380Y-57376190D02*
X163232380Y-57376190D01*
X163375238Y-57471428D01*
X163470476Y-57566666D01*
X163518095Y-57661904D01*
X163660952Y-56519047D02*
X163613333Y-56614285D01*
X163565714Y-56661904D01*
X163470476Y-56709523D01*
X163422857Y-56709523D01*
X163327619Y-56661904D01*
X163280000Y-56614285D01*
X163232380Y-56519047D01*
X163232380Y-56328571D01*
X163280000Y-56233333D01*
X163327619Y-56185714D01*
X163422857Y-56138095D01*
X163470476Y-56138095D01*
X163565714Y-56185714D01*
X163613333Y-56233333D01*
X163660952Y-56328571D01*
X163660952Y-56519047D01*
X163708571Y-56614285D01*
X163756190Y-56661904D01*
X163851428Y-56709523D01*
X164041904Y-56709523D01*
X164137142Y-56661904D01*
X164184761Y-56614285D01*
X164232380Y-56519047D01*
X164232380Y-56328571D01*
X164184761Y-56233333D01*
X164137142Y-56185714D01*
X164041904Y-56138095D01*
X163851428Y-56138095D01*
X163756190Y-56185714D01*
X163708571Y-56233333D01*
X163660952Y-56328571D01*
%TO.C,C17*%
X170617142Y-71162857D02*
X170664761Y-71210476D01*
X170712380Y-71353333D01*
X170712380Y-71448571D01*
X170664761Y-71591428D01*
X170569523Y-71686666D01*
X170474285Y-71734285D01*
X170283809Y-71781904D01*
X170140952Y-71781904D01*
X169950476Y-71734285D01*
X169855238Y-71686666D01*
X169760000Y-71591428D01*
X169712380Y-71448571D01*
X169712380Y-71353333D01*
X169760000Y-71210476D01*
X169807619Y-71162857D01*
X170712380Y-70210476D02*
X170712380Y-70781904D01*
X170712380Y-70496190D02*
X169712380Y-70496190D01*
X169855238Y-70591428D01*
X169950476Y-70686666D01*
X169998095Y-70781904D01*
X169712380Y-69877142D02*
X169712380Y-69210476D01*
X170712380Y-69639047D01*
%TO.C,C15*%
X169767142Y-63722857D02*
X169814761Y-63770476D01*
X169862380Y-63913333D01*
X169862380Y-64008571D01*
X169814761Y-64151428D01*
X169719523Y-64246666D01*
X169624285Y-64294285D01*
X169433809Y-64341904D01*
X169290952Y-64341904D01*
X169100476Y-64294285D01*
X169005238Y-64246666D01*
X168910000Y-64151428D01*
X168862380Y-64008571D01*
X168862380Y-63913333D01*
X168910000Y-63770476D01*
X168957619Y-63722857D01*
X169862380Y-62770476D02*
X169862380Y-63341904D01*
X169862380Y-63056190D02*
X168862380Y-63056190D01*
X169005238Y-63151428D01*
X169100476Y-63246666D01*
X169148095Y-63341904D01*
X168862380Y-61865714D02*
X168862380Y-62341904D01*
X169338571Y-62389523D01*
X169290952Y-62341904D01*
X169243333Y-62246666D01*
X169243333Y-62008571D01*
X169290952Y-61913333D01*
X169338571Y-61865714D01*
X169433809Y-61818095D01*
X169671904Y-61818095D01*
X169767142Y-61865714D01*
X169814761Y-61913333D01*
X169862380Y-62008571D01*
X169862380Y-62246666D01*
X169814761Y-62341904D01*
X169767142Y-62389523D01*
%TO.C,R2*%
X163613333Y-68972380D02*
X163280000Y-68496190D01*
X163041904Y-68972380D02*
X163041904Y-67972380D01*
X163422857Y-67972380D01*
X163518095Y-68020000D01*
X163565714Y-68067619D01*
X163613333Y-68162857D01*
X163613333Y-68305714D01*
X163565714Y-68400952D01*
X163518095Y-68448571D01*
X163422857Y-68496190D01*
X163041904Y-68496190D01*
X163994285Y-68067619D02*
X164041904Y-68020000D01*
X164137142Y-67972380D01*
X164375238Y-67972380D01*
X164470476Y-68020000D01*
X164518095Y-68067619D01*
X164565714Y-68162857D01*
X164565714Y-68258095D01*
X164518095Y-68400952D01*
X163946666Y-68972380D01*
X164565714Y-68972380D01*
D11*
%TO.C,J1*%
X134564523Y-81735833D02*
X135471666Y-81735833D01*
X135653095Y-81796309D01*
X135774047Y-81917261D01*
X135834523Y-82098690D01*
X135834523Y-82219642D01*
X135834523Y-80465833D02*
X135834523Y-81191547D01*
X135834523Y-80828690D02*
X134564523Y-80828690D01*
X134745952Y-80949642D01*
X134866904Y-81070595D01*
X134927380Y-81191547D01*
D10*
%TO.C,C23*%
X163839642Y-59122857D02*
X163887261Y-59170476D01*
X163934880Y-59313333D01*
X163934880Y-59408571D01*
X163887261Y-59551428D01*
X163792023Y-59646666D01*
X163696785Y-59694285D01*
X163506309Y-59741904D01*
X163363452Y-59741904D01*
X163172976Y-59694285D01*
X163077738Y-59646666D01*
X162982500Y-59551428D01*
X162934880Y-59408571D01*
X162934880Y-59313333D01*
X162982500Y-59170476D01*
X163030119Y-59122857D01*
X163030119Y-58741904D02*
X162982500Y-58694285D01*
X162934880Y-58599047D01*
X162934880Y-58360952D01*
X162982500Y-58265714D01*
X163030119Y-58218095D01*
X163125357Y-58170476D01*
X163220595Y-58170476D01*
X163363452Y-58218095D01*
X163934880Y-58789523D01*
X163934880Y-58170476D01*
X162934880Y-57837142D02*
X162934880Y-57218095D01*
X163315833Y-57551428D01*
X163315833Y-57408571D01*
X163363452Y-57313333D01*
X163411071Y-57265714D01*
X163506309Y-57218095D01*
X163744404Y-57218095D01*
X163839642Y-57265714D01*
X163887261Y-57313333D01*
X163934880Y-57408571D01*
X163934880Y-57694285D01*
X163887261Y-57789523D01*
X163839642Y-57837142D01*
%TO.C,C9*%
X150793333Y-59457142D02*
X150745714Y-59504761D01*
X150602857Y-59552380D01*
X150507619Y-59552380D01*
X150364761Y-59504761D01*
X150269523Y-59409523D01*
X150221904Y-59314285D01*
X150174285Y-59123809D01*
X150174285Y-58980952D01*
X150221904Y-58790476D01*
X150269523Y-58695238D01*
X150364761Y-58600000D01*
X150507619Y-58552380D01*
X150602857Y-58552380D01*
X150745714Y-58600000D01*
X150793333Y-58647619D01*
X151269523Y-59552380D02*
X151460000Y-59552380D01*
X151555238Y-59504761D01*
X151602857Y-59457142D01*
X151698095Y-59314285D01*
X151745714Y-59123809D01*
X151745714Y-58742857D01*
X151698095Y-58647619D01*
X151650476Y-58600000D01*
X151555238Y-58552380D01*
X151364761Y-58552380D01*
X151269523Y-58600000D01*
X151221904Y-58647619D01*
X151174285Y-58742857D01*
X151174285Y-58980952D01*
X151221904Y-59076190D01*
X151269523Y-59123809D01*
X151364761Y-59171428D01*
X151555238Y-59171428D01*
X151650476Y-59123809D01*
X151698095Y-59076190D01*
X151745714Y-58980952D01*
D12*
%TO.C,R3*%
X170287500Y-70025276D02*
X170287500Y-70534724D01*
X171332500Y-70025276D02*
X171332500Y-70534724D01*
D13*
%TO.C,U2*%
X148920000Y-82170000D02*
X148720000Y-82170000D01*
X146720000Y-83770000D02*
X146720000Y-83770000D01*
X148820000Y-84170000D02*
X148720000Y-84170000D01*
X146720000Y-83870000D02*
X146720000Y-83870000D01*
X146720000Y-83770000D02*
G75*
G03*
X146720000Y-83870000I0J-50000D01*
G01*
X146720000Y-83870000D02*
G75*
G03*
X146720000Y-83770000I0J50000D01*
G01*
D12*
%TO.C,C4*%
X139067500Y-65316233D02*
X139067500Y-65608767D01*
X140087500Y-65316233D02*
X140087500Y-65608767D01*
D14*
%TO.C,C26*%
X157495000Y-78730000D02*
X154905000Y-78730000D01*
D12*
%TO.C,C2*%
X139873752Y-73215000D02*
X139351248Y-73215000D01*
X139873752Y-71745000D02*
X139351248Y-71745000D01*
%TO.C,C13*%
X143048748Y-55805000D02*
X143571252Y-55805000D01*
X143048748Y-57275000D02*
X143571252Y-57275000D01*
D14*
%TO.C,C25*%
X153035000Y-78750000D02*
X150445000Y-78750000D01*
D12*
%TO.C,C11*%
X166508748Y-77455000D02*
X167031252Y-77455000D01*
X166508748Y-75985000D02*
X167031252Y-75985000D01*
%TO.C,L1*%
X151210200Y-75980000D02*
X151009800Y-75980000D01*
X151210200Y-75260000D02*
X151009800Y-75260000D01*
%TO.C,C3*%
X144645000Y-75838748D02*
X144645000Y-76361252D01*
X146115000Y-75838748D02*
X146115000Y-76361252D01*
%TO.C,C14*%
X143403733Y-59360000D02*
X143696267Y-59360000D01*
X143403733Y-58340000D02*
X143696267Y-58340000D01*
%TO.C,R1*%
X150495276Y-59132500D02*
X151004724Y-59132500D01*
X150495276Y-58087500D02*
X151004724Y-58087500D01*
%TO.C,C1*%
X136802500Y-65371248D02*
X136802500Y-65893752D01*
X138272500Y-65371248D02*
X138272500Y-65893752D01*
%TO.C,C6*%
X142520000Y-76191233D02*
X142520000Y-76483767D01*
X143540000Y-76191233D02*
X143540000Y-76483767D01*
D15*
%TO.C,FB1*%
X148290000Y-76770000D02*
X148590000Y-76770000D01*
D12*
%TO.C,C21*%
X168498748Y-67870000D02*
X169921252Y-67870000D01*
X168498748Y-66050000D02*
X169921252Y-66050000D01*
%TO.C,L2*%
X156079800Y-75290000D02*
X156280200Y-75290000D01*
X156079800Y-76010000D02*
X156280200Y-76010000D01*
%TO.C,R4*%
X166347621Y-69350000D02*
X166012379Y-69350000D01*
X166347621Y-68590000D02*
X166012379Y-68590000D01*
%TO.C,C5*%
X140028767Y-70010000D02*
X139736233Y-70010000D01*
X140028767Y-71030000D02*
X139736233Y-71030000D01*
%TO.C,C19*%
X166100000Y-63713733D02*
X166100000Y-64006267D01*
X165080000Y-63713733D02*
X165080000Y-64006267D01*
%TO.C,C16*%
X159285000Y-57028748D02*
X159285000Y-57551252D01*
X160755000Y-57028748D02*
X160755000Y-57551252D01*
%TO.C,C20*%
X159610000Y-78753733D02*
X159610000Y-79046267D01*
X158590000Y-78753733D02*
X158590000Y-79046267D01*
D14*
%TO.C,J2*%
X172390000Y-57767500D02*
X172390000Y-81012500D01*
X174960000Y-81032500D02*
X175005000Y-57767500D01*
X175005000Y-57767500D02*
X172465000Y-57767500D01*
X172390000Y-81012500D02*
X174960000Y-81032500D01*
D12*
%TO.C,C12*%
X166403733Y-74900000D02*
X166696267Y-74900000D01*
X166403733Y-73880000D02*
X166696267Y-73880000D01*
%TO.C,C7*%
X149534165Y-57050000D02*
X149765835Y-57050000D01*
X149534165Y-56330000D02*
X149765835Y-56330000D01*
%TO.C,C8*%
X155325835Y-58760000D02*
X155094165Y-58760000D01*
X155325835Y-58040000D02*
X155094165Y-58040000D01*
D16*
%TO.C,U1*%
X150995000Y-66660000D02*
G75*
G03*
X150995000Y-66660000I-125000J0D01*
G01*
D12*
%TO.C,C10*%
X154034165Y-60190000D02*
X154265835Y-60190000D01*
X154034165Y-59470000D02*
X154265835Y-59470000D01*
%TO.C,C22*%
X166805000Y-59081252D02*
X166805000Y-58558748D01*
X168275000Y-59081252D02*
X168275000Y-58558748D01*
%TO.C,C18*%
X161840000Y-57253733D02*
X161840000Y-57546267D01*
X162860000Y-57253733D02*
X162860000Y-57546267D01*
%TO.C,C17*%
X169315000Y-70258748D02*
X169315000Y-70781252D01*
X167845000Y-70258748D02*
X167845000Y-70781252D01*
%TO.C,C15*%
X166995000Y-62818748D02*
X166995000Y-63341252D01*
X168465000Y-62818748D02*
X168465000Y-63341252D01*
%TO.C,R2*%
X164007064Y-67605000D02*
X163552936Y-67605000D01*
X164007064Y-66135000D02*
X163552936Y-66135000D01*
D14*
%TO.C,J1*%
X130310000Y-81012500D02*
X132880000Y-81032500D01*
X132880000Y-81032500D02*
X132925000Y-57767500D01*
X130310000Y-57767500D02*
X130310000Y-81012500D01*
X132925000Y-57767500D02*
X130385000Y-57767500D01*
D12*
%TO.C,C23*%
X164602500Y-59176267D02*
X164602500Y-58883733D01*
X165622500Y-59176267D02*
X165622500Y-58883733D01*
%TO.C,C9*%
X150844165Y-60620000D02*
X151075835Y-60620000D01*
X150844165Y-59900000D02*
X151075835Y-59900000D01*
%TD*%
M02*
