M48
; DRILL file {KiCad (6.0.9)} date Thu Nov  9 09:29:18 2023
; FORMAT={-:-/ absolute / inch / decimal}
; #@! TF.CreationDate,2023-11-09T09:29:18+01:00
; #@! TF.GenerationSoftware,Kicad,Pcbnew,(6.0.9)
; #@! TF.FileFunction,Plated,1,2,PTH
FMAT,2
INCH
; #@! TA.AperFunction,Plated,PTH,ViaDrill
T1C0.0157
; #@! TA.AperFunction,Plated,PTH,ViaDrill
T2C0.0315
; #@! TA.AperFunction,Plated,PTH,ComponentDrill
T3C0.0394
; #@! TA.AperFunction,Plated,PTH,ComponentDrill
T4C0.0402
%
G90
G05
T1
X4.389Y-4.2228
X4.3992Y-4.1331
X4.4Y-4.42
X4.45Y-4.1772
X4.4768Y-4.0894
X4.4941Y-4.0035
X4.4961Y-3.9189
X4.54Y-3.55
X4.54Y-4.07
X4.55Y-3.67
X4.56Y-3.85
X4.56Y-3.96
X4.58Y-4.6
X4.59Y-3.75
X4.62Y-3.49
X4.63Y-3.61
X4.65Y-4.56
X4.67Y-3.69
X4.68Y-4.01
X4.69Y-4.1
X4.7Y-3.43
X4.7Y-4.37
X4.71Y-3.55
X4.72Y-3.91
X4.75Y-3.63
X4.76Y-4.59
X4.77Y-3.37
X4.78Y-3.49
X4.79Y-3.83
X4.79Y-4.07
X4.79Y-4.36
X4.8Y-3.97
X4.8Y-4.43
X4.81Y-4.64
X4.82Y-3.57
X4.83Y-4.27
X4.84Y-3.31
X4.85Y-3.43
X4.85Y-3.89
X4.85Y-4.16
X4.85Y-4.48
X4.86Y-3.77
X4.86Y-4.69
X4.89Y-3.51
X4.91Y-3.25
X4.91Y-4.54
X4.92Y-3.37
X4.92Y-3.7
X4.93Y-3.83
X4.94Y-4.74
X4.96Y-3.45
X4.97Y-4.6
X4.99Y-3.18
X5.0Y-3.3
X5.0Y-3.63
X5.0Y-3.76
X5.03Y-4.74
X5.04Y-3.38
X5.05Y-3.85
X5.06Y-3.1
X5.06Y-3.56
X5.06Y-4.6
X5.07Y-3.22
X5.08Y-3.68
X5.1Y-4.41
X5.1Y-4.75
X5.1028Y-3.7669
X5.11Y-3.3
X5.11Y-3.5
X5.13Y-3.93
X5.14Y-3.03
X5.14Y-3.6
X5.14Y-4.16
X5.15Y-3.15
X5.15Y-4.6
X5.1579Y-3.6945
X5.1591Y-3.8374
X5.17Y-4.08
X5.19Y-3.23
X5.2Y-4.75
X5.22Y-2.96
X5.23Y-3.08
X5.23Y-3.67
X5.23Y-3.76
X5.23Y-3.84
X5.23Y-3.93
X5.24Y-3.43
X5.24Y-4.02
X5.24Y-4.6
X5.27Y-3.16
X5.27Y-3.37
X5.3Y-2.88
X5.3Y-4.75
X5.31Y-3.0
X5.32Y-3.32
X5.34Y-4.6
X5.35Y-3.08
X5.37Y-3.27
X5.37Y-3.78
X5.37Y-3.87
X5.37Y-3.97
X5.37Y-4.06
X5.38Y-2.81
X5.38Y-3.54
X5.38Y-3.62
X5.39Y-2.93
X5.4Y-4.75
X5.41Y-3.46
X5.42Y-3.23
X5.43Y-3.01
X5.43Y-4.11
X5.43Y-4.6
X5.45Y-4.38
X5.46Y-3.62
X5.46Y-3.78
X5.461Y-3.9693
X5.4618Y-3.8681
X5.47Y-3.18
X5.47Y-3.4
X5.48Y-2.92
X5.48Y-4.3
X5.49Y-4.2
X5.4937Y-4.0469
X5.5Y-4.75
X5.51Y-4.45
X5.52Y-3.13
X5.53Y-2.63
X5.53Y-3.34
X5.53Y-3.53
X5.5488Y-4.122
X5.5539Y-3.8693
X5.5567Y-3.9681
X5.56Y-3.78
X5.56Y-4.51
X5.5657Y-4.2634
X5.57Y-3.08
X5.5705Y-4.3598
X5.58Y-2.59
X5.58Y-3.58
X5.59Y-3.28
X5.59Y-3.48
X5.59Y-4.59
X5.59Y-4.75
X5.6118Y-4.0386
X5.6134Y-4.1902
X5.622Y-3.9295
X5.63Y-3.81
X5.6346Y-4.4256
X5.64Y-2.54
X5.6469Y-4.311
X5.65Y-2.71
X5.65Y-2.82
X5.65Y-2.92
X5.65Y-3.05
X5.65Y-3.22
X5.67Y-4.59
X5.67Y-4.75
X5.6752Y-4.1181
X5.6874Y-3.9937
X5.69Y-3.87
X5.6913Y-4.2358
X5.7Y-2.47
X5.72Y-3.16
X5.72Y-4.41
X5.73Y-3.05
X5.7335Y-4.0579
X5.74Y-2.62
X5.74Y-4.17
X5.75Y-4.59
X5.75Y-4.75
X5.76Y-2.41
X5.76Y-2.7
X5.76Y-2.81
X5.76Y-2.92
X5.76Y-3.94
X5.77Y-3.77
X5.8Y-3.16
X5.8Y-3.62
X5.81Y-3.7
X5.81Y-4.1
X5.82Y-2.35
X5.82Y-3.05
X5.82Y-4.0
X5.82Y-4.59
X5.83Y-2.54
X5.83Y-3.36
X5.84Y-3.84
X5.8429Y-4.411
X5.85Y-2.64
X5.85Y-4.75
X5.87Y-2.81
X5.87Y-2.92
X5.87Y-3.16
X5.88Y-3.77
X5.89Y-2.72
X5.89Y-3.62
X5.89Y-3.7
X5.89Y-3.9
X5.9Y-2.34
X5.9Y-2.47
X5.9Y-3.05
X5.91Y-2.58
X5.91Y-4.59
X5.95Y-3.16
X5.95Y-4.76
X5.96Y-3.05
X5.96Y-3.97
X5.98Y-2.83
X5.98Y-2.92
X5.99Y-2.34
X5.99Y-2.66
X5.99Y-3.36
X5.99Y-4.59
X6.0Y-2.74
X6.01Y-2.56
X6.01Y-3.49
X6.01Y-3.56
X6.01Y-3.64
X6.0193Y-4.3488
X6.02Y-2.47
X6.03Y-4.75
X6.04Y-4.09
X6.08Y-2.81
X6.09Y-2.34
X6.09Y-4.35
X6.1Y-2.59
X6.1Y-2.91
X6.11Y-2.72
X6.12Y-4.75
X6.13Y-2.47
X6.13Y-4.13
X6.13Y-4.41
X6.15Y-2.34
X6.16Y-4.32
X6.18Y-2.85
X6.18Y-4.46
X6.18Y-4.7
X6.19Y-2.54
X6.19Y-2.64
X6.19Y-2.74
X6.19Y-4.25
X6.19Y-4.53
X6.2Y-3.41
X6.21Y-4.4
X6.22Y-3.07
X6.22Y-3.13
X6.22Y-3.2
X6.23Y-2.34
X6.24Y-4.32
X6.25Y-3.36
X6.25Y-4.48
X6.26Y-3.44
X6.26Y-4.25
X6.28Y-2.69
X6.28Y-2.75
X6.28Y-2.81
X6.28Y-2.88
X6.28Y-2.94
X6.28Y-3.0
X6.28Y-3.07
X6.28Y-3.13
X6.29Y-3.32
X6.29Y-4.4
X6.3Y-2.34
X6.32Y-3.39
X6.32Y-3.48
X6.32Y-4.32
X6.33Y-3.57
X6.33Y-3.66
X6.33Y-4.25
X6.34Y-2.69
X6.34Y-2.75
X6.34Y-2.81
X6.34Y-2.88
X6.34Y-2.94
X6.34Y-3.0
X6.34Y-3.07
X6.34Y-3.28
X6.34Y-4.48
X6.36Y-2.34
X6.38Y-3.33
X6.38Y-3.43
X6.39Y-3.23
X6.39Y-4.4
X6.4Y-4.32
X6.41Y-3.49
X6.41Y-3.57
X6.41Y-3.66
X6.41Y-4.25
X6.42Y-2.34
X6.45Y-2.95
X6.45Y-3.16
X6.46Y-2.85
X6.46Y-3.06
X6.47Y-2.72
X6.48Y-2.37
T2
X5.2Y-3.53
X5.71Y-3.69
X5.9417Y-3.4283
X6.3787Y-3.8028
T3
X4.4478Y-3.0055
X4.4478Y-3.1055
X4.4478Y-3.2055
X4.4478Y-3.3055
X4.4478Y-3.4055
X4.4488Y-3.5055
X4.4488Y-3.6055
X4.4488Y-3.7055
X4.4488Y-3.8057
X6.1045Y-3.0055
X6.1045Y-3.1055
X6.1045Y-3.2055
X6.1045Y-3.3055
X6.1045Y-3.4055
X6.1055Y-3.5055
X6.1055Y-3.6055
X6.1055Y-3.7055
X6.1055Y-3.8057
X6.28Y-4.62
X6.28Y-4.72
X7.68Y-3.32
X7.68Y-3.42
T4
X6.6248Y-2.688
X6.6248Y-2.788
X6.6248Y-2.888
X6.6248Y-2.988
X6.6248Y-3.088
X6.6248Y-3.188
X6.6248Y-3.288
X6.6248Y-3.388
X6.6248Y-3.488
X6.6248Y-3.588
X6.6248Y-3.688
X6.6248Y-3.788
X6.6248Y-3.888
X6.6248Y-3.988
X6.6248Y-4.088
X6.6248Y-4.188
X6.6248Y-4.288
X6.6248Y-4.388
X6.6248Y-4.488
X6.6248Y-4.588
X6.8748Y-4.5789
X6.9748Y-4.5789
X7.0748Y-4.5789
X7.3248Y-2.688
X7.3248Y-2.788
X7.3248Y-2.888
X7.3248Y-2.988
X7.3248Y-3.088
X7.3248Y-3.188
X7.3248Y-3.288
X7.3248Y-3.388
X7.3248Y-3.488
X7.3248Y-3.588
X7.3248Y-3.688
X7.3248Y-3.788
X7.3248Y-3.888
X7.3248Y-3.988
X7.3248Y-4.088
X7.3248Y-4.188
X7.3248Y-4.288
X7.3248Y-4.388
X7.3248Y-4.488
X7.3248Y-4.588
T0
M30
