%TF.GenerationSoftware,KiCad,Pcbnew,(6.0.9)*%
%TF.CreationDate,2023-11-09T09:29:14+01:00*%
%TF.ProjectId,LO_mother,4c4f5f6d-6f74-4686-9572-2e6b69636164,rev?*%
%TF.SameCoordinates,Original*%
%TF.FileFunction,Soldermask,Bot*%
%TF.FilePolarity,Negative*%
%FSLAX46Y46*%
G04 Gerber Fmt 4.6, Leading zero omitted, Abs format (unit mm)*
G04 Created by KiCad (PCBNEW (6.0.9)) date 2023-11-09 09:29:14*
%MOMM*%
%LPD*%
G01*
G04 APERTURE LIST*
%ADD10R,2.100000X2.100000*%
%ADD11C,2.100000*%
%ADD12O,1.800000X1.800000*%
%ADD13O,1.500000X1.500000*%
%ADD14O,1.700000X1.700000*%
%ADD15R,1.700000X1.700000*%
G04 APERTURE END LIST*
D10*
%TO.C,J2*%
X155055000Y-76340000D03*
D11*
X155055000Y-78880000D03*
X155055000Y-81420000D03*
X155055000Y-83960000D03*
X155055000Y-86500000D03*
X155080000Y-89040000D03*
X155080000Y-91580000D03*
X155080000Y-94120000D03*
X155080000Y-96665000D03*
%TD*%
D10*
%TO.C,J3*%
X112975000Y-76340000D03*
D11*
X112975000Y-78880000D03*
X112975000Y-81420000D03*
X112975000Y-83960000D03*
X112975000Y-86500000D03*
X113000000Y-89040000D03*
X113000000Y-91580000D03*
X113000000Y-94120000D03*
X113000000Y-96665000D03*
%TD*%
D12*
%TO.C,U4*%
X179885000Y-68405000D03*
D13*
X174735000Y-71435000D03*
D12*
X174435000Y-68405000D03*
D13*
X179585000Y-71435000D03*
D14*
X168270000Y-68275000D03*
X168270000Y-70815000D03*
D15*
X168270000Y-73355000D03*
D14*
X168270000Y-75895000D03*
X168270000Y-78435000D03*
X168270000Y-80975000D03*
X168270000Y-83515000D03*
D15*
X168270000Y-86055000D03*
D14*
X168270000Y-88595000D03*
X168270000Y-91135000D03*
X168270000Y-93675000D03*
X168270000Y-96215000D03*
D15*
X168270000Y-98755000D03*
D14*
X168270000Y-101295000D03*
X168270000Y-103835000D03*
X168270000Y-106375000D03*
X168270000Y-108915000D03*
D15*
X168270000Y-111455000D03*
D14*
X168270000Y-113995000D03*
X168270000Y-116535000D03*
X186050000Y-116535000D03*
X186050000Y-113995000D03*
D15*
X186050000Y-111455000D03*
D14*
X186050000Y-108915000D03*
X186050000Y-106375000D03*
X186050000Y-103835000D03*
X186050000Y-101295000D03*
D15*
X186050000Y-98755000D03*
D14*
X186050000Y-96215000D03*
X186050000Y-93675000D03*
X186050000Y-91135000D03*
X186050000Y-88595000D03*
D15*
X186050000Y-86055000D03*
D14*
X186050000Y-83515000D03*
X186050000Y-80975000D03*
X186050000Y-78435000D03*
X186050000Y-75895000D03*
D15*
X186050000Y-73355000D03*
D14*
X186050000Y-70815000D03*
X186050000Y-68275000D03*
X174620000Y-116305000D03*
D15*
X177160000Y-116305000D03*
D14*
X179700000Y-116305000D03*
%TD*%
D15*
%TO.C,U5*%
X195072000Y-84328000D03*
D14*
X195072000Y-86868000D03*
%TD*%
D15*
%TO.C,J1*%
X159512000Y-117348000D03*
D14*
X159512000Y-119888000D03*
%TD*%
M02*
