%TF.GenerationSoftware,KiCad,Pcbnew,(6.0.9)*%
%TF.CreationDate,2023-11-09T09:29:14+01:00*%
%TF.ProjectId,LO_mother,4c4f5f6d-6f74-4686-9572-2e6b69636164,rev?*%
%TF.SameCoordinates,Original*%
%TF.FileFunction,Legend,Top*%
%TF.FilePolarity,Positive*%
%FSLAX46Y46*%
G04 Gerber Fmt 4.6, Leading zero omitted, Abs format (unit mm)*
G04 Created by KiCad (PCBNEW (6.0.9)) date 2023-11-09 09:29:14*
%MOMM*%
%LPD*%
G01*
G04 APERTURE LIST*
%ADD10C,0.150000*%
%ADD11C,0.254000*%
%ADD12C,0.120000*%
%ADD13C,0.200000*%
%ADD14C,0.127000*%
G04 APERTURE END LIST*
D10*
%TO.C,C3*%
X138943142Y-113776666D02*
X138990761Y-113824285D01*
X139038380Y-113967142D01*
X139038380Y-114062380D01*
X138990761Y-114205238D01*
X138895523Y-114300476D01*
X138800285Y-114348095D01*
X138609809Y-114395714D01*
X138466952Y-114395714D01*
X138276476Y-114348095D01*
X138181238Y-114300476D01*
X138086000Y-114205238D01*
X138038380Y-114062380D01*
X138038380Y-113967142D01*
X138086000Y-113824285D01*
X138133619Y-113776666D01*
X138038380Y-113443333D02*
X138038380Y-112824285D01*
X138419333Y-113157619D01*
X138419333Y-113014761D01*
X138466952Y-112919523D01*
X138514571Y-112871904D01*
X138609809Y-112824285D01*
X138847904Y-112824285D01*
X138943142Y-112871904D01*
X138990761Y-112919523D01*
X139038380Y-113014761D01*
X139038380Y-113300476D01*
X138990761Y-113395714D01*
X138943142Y-113443333D01*
D11*
%TO.C,J2*%
X150709523Y-75038333D02*
X151616666Y-75038333D01*
X151798095Y-75098809D01*
X151919047Y-75219761D01*
X151979523Y-75401190D01*
X151979523Y-75522142D01*
X150830476Y-74494047D02*
X150770000Y-74433571D01*
X150709523Y-74312619D01*
X150709523Y-74010238D01*
X150770000Y-73889285D01*
X150830476Y-73828809D01*
X150951428Y-73768333D01*
X151072380Y-73768333D01*
X151253809Y-73828809D01*
X151979523Y-74554523D01*
X151979523Y-73768333D01*
D10*
%TO.C,C9*%
X135837142Y-108116666D02*
X135884761Y-108164285D01*
X135932380Y-108307142D01*
X135932380Y-108402380D01*
X135884761Y-108545238D01*
X135789523Y-108640476D01*
X135694285Y-108688095D01*
X135503809Y-108735714D01*
X135360952Y-108735714D01*
X135170476Y-108688095D01*
X135075238Y-108640476D01*
X134980000Y-108545238D01*
X134932380Y-108402380D01*
X134932380Y-108307142D01*
X134980000Y-108164285D01*
X135027619Y-108116666D01*
X135932380Y-107640476D02*
X135932380Y-107450000D01*
X135884761Y-107354761D01*
X135837142Y-107307142D01*
X135694285Y-107211904D01*
X135503809Y-107164285D01*
X135122857Y-107164285D01*
X135027619Y-107211904D01*
X134980000Y-107259523D01*
X134932380Y-107354761D01*
X134932380Y-107545238D01*
X134980000Y-107640476D01*
X135027619Y-107688095D01*
X135122857Y-107735714D01*
X135360952Y-107735714D01*
X135456190Y-107688095D01*
X135503809Y-107640476D01*
X135551428Y-107545238D01*
X135551428Y-107354761D01*
X135503809Y-107259523D01*
X135456190Y-107211904D01*
X135360952Y-107164285D01*
%TO.C,U2*%
X151499404Y-105549369D02*
X151499404Y-104739845D01*
X151451785Y-104644607D01*
X151404166Y-104596988D01*
X151308928Y-104549369D01*
X151118452Y-104549369D01*
X151023214Y-104596988D01*
X150975595Y-104644607D01*
X150927976Y-104739845D01*
X150927976Y-105549369D01*
X150499404Y-105454130D02*
X150451785Y-105501750D01*
X150356547Y-105549369D01*
X150118452Y-105549369D01*
X150023214Y-105501750D01*
X149975595Y-105454130D01*
X149927976Y-105358892D01*
X149927976Y-105263654D01*
X149975595Y-105120797D01*
X150547023Y-104549369D01*
X149927976Y-104549369D01*
%TO.C,C17*%
X139289642Y-70617142D02*
X139242023Y-70664761D01*
X139099166Y-70712380D01*
X139003928Y-70712380D01*
X138861071Y-70664761D01*
X138765833Y-70569523D01*
X138718214Y-70474285D01*
X138670595Y-70283809D01*
X138670595Y-70140952D01*
X138718214Y-69950476D01*
X138765833Y-69855238D01*
X138861071Y-69760000D01*
X139003928Y-69712380D01*
X139099166Y-69712380D01*
X139242023Y-69760000D01*
X139289642Y-69807619D01*
X140242023Y-70712380D02*
X139670595Y-70712380D01*
X139956309Y-70712380D02*
X139956309Y-69712380D01*
X139861071Y-69855238D01*
X139765833Y-69950476D01*
X139670595Y-69998095D01*
X140575357Y-69712380D02*
X141242023Y-69712380D01*
X140813452Y-70712380D01*
%TO.C,R1*%
X144343333Y-87874880D02*
X144010000Y-87398690D01*
X143771904Y-87874880D02*
X143771904Y-86874880D01*
X144152857Y-86874880D01*
X144248095Y-86922500D01*
X144295714Y-86970119D01*
X144343333Y-87065357D01*
X144343333Y-87208214D01*
X144295714Y-87303452D01*
X144248095Y-87351071D01*
X144152857Y-87398690D01*
X143771904Y-87398690D01*
X145295714Y-87874880D02*
X144724285Y-87874880D01*
X145010000Y-87874880D02*
X145010000Y-86874880D01*
X144914761Y-87017738D01*
X144819523Y-87112976D01*
X144724285Y-87160595D01*
%TO.C,C7*%
X152855142Y-107726666D02*
X152902761Y-107774285D01*
X152950380Y-107917142D01*
X152950380Y-108012380D01*
X152902761Y-108155238D01*
X152807523Y-108250476D01*
X152712285Y-108298095D01*
X152521809Y-108345714D01*
X152378952Y-108345714D01*
X152188476Y-108298095D01*
X152093238Y-108250476D01*
X151998000Y-108155238D01*
X151950380Y-108012380D01*
X151950380Y-107917142D01*
X151998000Y-107774285D01*
X152045619Y-107726666D01*
X151950380Y-107393333D02*
X151950380Y-106726666D01*
X152950380Y-107155238D01*
%TO.C,C15*%
X133174642Y-107827142D02*
X133127023Y-107874761D01*
X132984166Y-107922380D01*
X132888928Y-107922380D01*
X132746071Y-107874761D01*
X132650833Y-107779523D01*
X132603214Y-107684285D01*
X132555595Y-107493809D01*
X132555595Y-107350952D01*
X132603214Y-107160476D01*
X132650833Y-107065238D01*
X132746071Y-106970000D01*
X132888928Y-106922380D01*
X132984166Y-106922380D01*
X133127023Y-106970000D01*
X133174642Y-107017619D01*
X134127023Y-107922380D02*
X133555595Y-107922380D01*
X133841309Y-107922380D02*
X133841309Y-106922380D01*
X133746071Y-107065238D01*
X133650833Y-107160476D01*
X133555595Y-107208095D01*
X135031785Y-106922380D02*
X134555595Y-106922380D01*
X134507976Y-107398571D01*
X134555595Y-107350952D01*
X134650833Y-107303333D01*
X134888928Y-107303333D01*
X134984166Y-107350952D01*
X135031785Y-107398571D01*
X135079404Y-107493809D01*
X135079404Y-107731904D01*
X135031785Y-107827142D01*
X134984166Y-107874761D01*
X134888928Y-107922380D01*
X134650833Y-107922380D01*
X134555595Y-107874761D01*
X134507976Y-107827142D01*
D11*
%TO.C,J3*%
X108629523Y-75038333D02*
X109536666Y-75038333D01*
X109718095Y-75098809D01*
X109839047Y-75219761D01*
X109899523Y-75401190D01*
X109899523Y-75522142D01*
X108629523Y-74554523D02*
X108629523Y-73768333D01*
X109113333Y-74191666D01*
X109113333Y-74010238D01*
X109173809Y-73889285D01*
X109234285Y-73828809D01*
X109355238Y-73768333D01*
X109657619Y-73768333D01*
X109778571Y-73828809D01*
X109839047Y-73889285D01*
X109899523Y-74010238D01*
X109899523Y-74373095D01*
X109839047Y-74494047D01*
X109778571Y-74554523D01*
%TO.C,1*%
X161934523Y-63747142D02*
X161934523Y-64472857D01*
X161934523Y-64110000D02*
X160664523Y-64110000D01*
X160845952Y-64230952D01*
X160966904Y-64351904D01*
X161027380Y-64472857D01*
D10*
%TO.C,C1*%
X155707142Y-113506666D02*
X155754761Y-113554285D01*
X155802380Y-113697142D01*
X155802380Y-113792380D01*
X155754761Y-113935238D01*
X155659523Y-114030476D01*
X155564285Y-114078095D01*
X155373809Y-114125714D01*
X155230952Y-114125714D01*
X155040476Y-114078095D01*
X154945238Y-114030476D01*
X154850000Y-113935238D01*
X154802380Y-113792380D01*
X154802380Y-113697142D01*
X154850000Y-113554285D01*
X154897619Y-113506666D01*
X155802380Y-112554285D02*
X155802380Y-113125714D01*
X155802380Y-112840000D02*
X154802380Y-112840000D01*
X154945238Y-112935238D01*
X155040476Y-113030476D01*
X155088095Y-113125714D01*
%TO.C,C5*%
X148849142Y-109640666D02*
X148896761Y-109688285D01*
X148944380Y-109831142D01*
X148944380Y-109926380D01*
X148896761Y-110069238D01*
X148801523Y-110164476D01*
X148706285Y-110212095D01*
X148515809Y-110259714D01*
X148372952Y-110259714D01*
X148182476Y-110212095D01*
X148087238Y-110164476D01*
X147992000Y-110069238D01*
X147944380Y-109926380D01*
X147944380Y-109831142D01*
X147992000Y-109688285D01*
X148039619Y-109640666D01*
X147944380Y-108735904D02*
X147944380Y-109212095D01*
X148420571Y-109259714D01*
X148372952Y-109212095D01*
X148325333Y-109116857D01*
X148325333Y-108878761D01*
X148372952Y-108783523D01*
X148420571Y-108735904D01*
X148515809Y-108688285D01*
X148753904Y-108688285D01*
X148849142Y-108735904D01*
X148896761Y-108783523D01*
X148944380Y-108878761D01*
X148944380Y-109116857D01*
X148896761Y-109212095D01*
X148849142Y-109259714D01*
%TO.C,C16*%
X149007142Y-89825357D02*
X149054761Y-89872976D01*
X149102380Y-90015833D01*
X149102380Y-90111071D01*
X149054761Y-90253928D01*
X148959523Y-90349166D01*
X148864285Y-90396785D01*
X148673809Y-90444404D01*
X148530952Y-90444404D01*
X148340476Y-90396785D01*
X148245238Y-90349166D01*
X148150000Y-90253928D01*
X148102380Y-90111071D01*
X148102380Y-90015833D01*
X148150000Y-89872976D01*
X148197619Y-89825357D01*
X149102380Y-88872976D02*
X149102380Y-89444404D01*
X149102380Y-89158690D02*
X148102380Y-89158690D01*
X148245238Y-89253928D01*
X148340476Y-89349166D01*
X148388095Y-89444404D01*
X148102380Y-88015833D02*
X148102380Y-88206309D01*
X148150000Y-88301547D01*
X148197619Y-88349166D01*
X148340476Y-88444404D01*
X148530952Y-88492023D01*
X148911904Y-88492023D01*
X149007142Y-88444404D01*
X149054761Y-88396785D01*
X149102380Y-88301547D01*
X149102380Y-88111071D01*
X149054761Y-88015833D01*
X149007142Y-87968214D01*
X148911904Y-87920595D01*
X148673809Y-87920595D01*
X148578571Y-87968214D01*
X148530952Y-88015833D01*
X148483333Y-88111071D01*
X148483333Y-88301547D01*
X148530952Y-88396785D01*
X148578571Y-88444404D01*
X148673809Y-88492023D01*
%TO.C,C11*%
X147439142Y-116253142D02*
X147391523Y-116300761D01*
X147248666Y-116348380D01*
X147153428Y-116348380D01*
X147010571Y-116300761D01*
X146915333Y-116205523D01*
X146867714Y-116110285D01*
X146820095Y-115919809D01*
X146820095Y-115776952D01*
X146867714Y-115586476D01*
X146915333Y-115491238D01*
X147010571Y-115396000D01*
X147153428Y-115348380D01*
X147248666Y-115348380D01*
X147391523Y-115396000D01*
X147439142Y-115443619D01*
X148391523Y-116348380D02*
X147820095Y-116348380D01*
X148105809Y-116348380D02*
X148105809Y-115348380D01*
X148010571Y-115491238D01*
X147915333Y-115586476D01*
X147820095Y-115634095D01*
X149343904Y-116348380D02*
X148772476Y-116348380D01*
X149058190Y-116348380D02*
X149058190Y-115348380D01*
X148962952Y-115491238D01*
X148867714Y-115586476D01*
X148772476Y-115634095D01*
%TO.C,C14*%
X149725142Y-107117142D02*
X149677523Y-107164761D01*
X149534666Y-107212380D01*
X149439428Y-107212380D01*
X149296571Y-107164761D01*
X149201333Y-107069523D01*
X149153714Y-106974285D01*
X149106095Y-106783809D01*
X149106095Y-106640952D01*
X149153714Y-106450476D01*
X149201333Y-106355238D01*
X149296571Y-106260000D01*
X149439428Y-106212380D01*
X149534666Y-106212380D01*
X149677523Y-106260000D01*
X149725142Y-106307619D01*
X150677523Y-107212380D02*
X150106095Y-107212380D01*
X150391809Y-107212380D02*
X150391809Y-106212380D01*
X150296571Y-106355238D01*
X150201333Y-106450476D01*
X150106095Y-106498095D01*
X151534666Y-106545714D02*
X151534666Y-107212380D01*
X151296571Y-106164761D02*
X151058476Y-106879047D01*
X151677523Y-106879047D01*
%TO.C,C13*%
X115422142Y-107469642D02*
X115374523Y-107517261D01*
X115231666Y-107564880D01*
X115136428Y-107564880D01*
X114993571Y-107517261D01*
X114898333Y-107422023D01*
X114850714Y-107326785D01*
X114803095Y-107136309D01*
X114803095Y-106993452D01*
X114850714Y-106802976D01*
X114898333Y-106707738D01*
X114993571Y-106612500D01*
X115136428Y-106564880D01*
X115231666Y-106564880D01*
X115374523Y-106612500D01*
X115422142Y-106660119D01*
X116374523Y-107564880D02*
X115803095Y-107564880D01*
X116088809Y-107564880D02*
X116088809Y-106564880D01*
X115993571Y-106707738D01*
X115898333Y-106802976D01*
X115803095Y-106850595D01*
X116707857Y-106564880D02*
X117326904Y-106564880D01*
X116993571Y-106945833D01*
X117136428Y-106945833D01*
X117231666Y-106993452D01*
X117279285Y-107041071D01*
X117326904Y-107136309D01*
X117326904Y-107374404D01*
X117279285Y-107469642D01*
X117231666Y-107517261D01*
X117136428Y-107564880D01*
X116850714Y-107564880D01*
X116755476Y-107517261D01*
X116707857Y-107469642D01*
%TO.C,C2*%
X121925142Y-113949166D02*
X121972761Y-113996785D01*
X122020380Y-114139642D01*
X122020380Y-114234880D01*
X121972761Y-114377738D01*
X121877523Y-114472976D01*
X121782285Y-114520595D01*
X121591809Y-114568214D01*
X121448952Y-114568214D01*
X121258476Y-114520595D01*
X121163238Y-114472976D01*
X121068000Y-114377738D01*
X121020380Y-114234880D01*
X121020380Y-114139642D01*
X121068000Y-113996785D01*
X121115619Y-113949166D01*
X121115619Y-113568214D02*
X121068000Y-113520595D01*
X121020380Y-113425357D01*
X121020380Y-113187261D01*
X121068000Y-113092023D01*
X121115619Y-113044404D01*
X121210857Y-112996785D01*
X121306095Y-112996785D01*
X121448952Y-113044404D01*
X122020380Y-113615833D01*
X122020380Y-112996785D01*
%TO.C,R2*%
X144443333Y-92804880D02*
X144110000Y-92328690D01*
X143871904Y-92804880D02*
X143871904Y-91804880D01*
X144252857Y-91804880D01*
X144348095Y-91852500D01*
X144395714Y-91900119D01*
X144443333Y-91995357D01*
X144443333Y-92138214D01*
X144395714Y-92233452D01*
X144348095Y-92281071D01*
X144252857Y-92328690D01*
X143871904Y-92328690D01*
X144824285Y-91900119D02*
X144871904Y-91852500D01*
X144967142Y-91804880D01*
X145205238Y-91804880D01*
X145300476Y-91852500D01*
X145348095Y-91900119D01*
X145395714Y-91995357D01*
X145395714Y-92090595D01*
X145348095Y-92233452D01*
X144776666Y-92804880D01*
X145395714Y-92804880D01*
%TO.C,C10*%
X114165142Y-116507142D02*
X114117523Y-116554761D01*
X113974666Y-116602380D01*
X113879428Y-116602380D01*
X113736571Y-116554761D01*
X113641333Y-116459523D01*
X113593714Y-116364285D01*
X113546095Y-116173809D01*
X113546095Y-116030952D01*
X113593714Y-115840476D01*
X113641333Y-115745238D01*
X113736571Y-115650000D01*
X113879428Y-115602380D01*
X113974666Y-115602380D01*
X114117523Y-115650000D01*
X114165142Y-115697619D01*
X115117523Y-116602380D02*
X114546095Y-116602380D01*
X114831809Y-116602380D02*
X114831809Y-115602380D01*
X114736571Y-115745238D01*
X114641333Y-115840476D01*
X114546095Y-115888095D01*
X115736571Y-115602380D02*
X115831809Y-115602380D01*
X115927047Y-115650000D01*
X115974666Y-115697619D01*
X116022285Y-115792857D01*
X116069904Y-115983333D01*
X116069904Y-116221428D01*
X116022285Y-116411904D01*
X115974666Y-116507142D01*
X115927047Y-116554761D01*
X115831809Y-116602380D01*
X115736571Y-116602380D01*
X115641333Y-116554761D01*
X115593714Y-116507142D01*
X115546095Y-116411904D01*
X115498476Y-116221428D01*
X115498476Y-115983333D01*
X115546095Y-115792857D01*
X115593714Y-115697619D01*
X115641333Y-115650000D01*
X115736571Y-115602380D01*
%TO.C,C18*%
X167227142Y-63932857D02*
X167274761Y-63980476D01*
X167322380Y-64123333D01*
X167322380Y-64218571D01*
X167274761Y-64361428D01*
X167179523Y-64456666D01*
X167084285Y-64504285D01*
X166893809Y-64551904D01*
X166750952Y-64551904D01*
X166560476Y-64504285D01*
X166465238Y-64456666D01*
X166370000Y-64361428D01*
X166322380Y-64218571D01*
X166322380Y-64123333D01*
X166370000Y-63980476D01*
X166417619Y-63932857D01*
X167322380Y-62980476D02*
X167322380Y-63551904D01*
X167322380Y-63266190D02*
X166322380Y-63266190D01*
X166465238Y-63361428D01*
X166560476Y-63456666D01*
X166608095Y-63551904D01*
X166750952Y-62409047D02*
X166703333Y-62504285D01*
X166655714Y-62551904D01*
X166560476Y-62599523D01*
X166512857Y-62599523D01*
X166417619Y-62551904D01*
X166370000Y-62504285D01*
X166322380Y-62409047D01*
X166322380Y-62218571D01*
X166370000Y-62123333D01*
X166417619Y-62075714D01*
X166512857Y-62028095D01*
X166560476Y-62028095D01*
X166655714Y-62075714D01*
X166703333Y-62123333D01*
X166750952Y-62218571D01*
X166750952Y-62409047D01*
X166798571Y-62504285D01*
X166846190Y-62551904D01*
X166941428Y-62599523D01*
X167131904Y-62599523D01*
X167227142Y-62551904D01*
X167274761Y-62504285D01*
X167322380Y-62409047D01*
X167322380Y-62218571D01*
X167274761Y-62123333D01*
X167227142Y-62075714D01*
X167131904Y-62028095D01*
X166941428Y-62028095D01*
X166846190Y-62075714D01*
X166798571Y-62123333D01*
X166750952Y-62218571D01*
%TO.C,U3*%
X134689404Y-105909369D02*
X134689404Y-105099845D01*
X134641785Y-105004607D01*
X134594166Y-104956988D01*
X134498928Y-104909369D01*
X134308452Y-104909369D01*
X134213214Y-104956988D01*
X134165595Y-105004607D01*
X134117976Y-105099845D01*
X134117976Y-105909369D01*
X133737023Y-105909369D02*
X133117976Y-105909369D01*
X133451309Y-105528416D01*
X133308452Y-105528416D01*
X133213214Y-105480797D01*
X133165595Y-105433178D01*
X133117976Y-105337940D01*
X133117976Y-105099845D01*
X133165595Y-105004607D01*
X133213214Y-104956988D01*
X133308452Y-104909369D01*
X133594166Y-104909369D01*
X133689404Y-104956988D01*
X133737023Y-105004607D01*
%TO.C,C4*%
X115321142Y-109894666D02*
X115368761Y-109942285D01*
X115416380Y-110085142D01*
X115416380Y-110180380D01*
X115368761Y-110323238D01*
X115273523Y-110418476D01*
X115178285Y-110466095D01*
X114987809Y-110513714D01*
X114844952Y-110513714D01*
X114654476Y-110466095D01*
X114559238Y-110418476D01*
X114464000Y-110323238D01*
X114416380Y-110180380D01*
X114416380Y-110085142D01*
X114464000Y-109942285D01*
X114511619Y-109894666D01*
X114749714Y-109037523D02*
X115416380Y-109037523D01*
X114368761Y-109275619D02*
X115083047Y-109513714D01*
X115083047Y-108894666D01*
%TO.C,C8*%
X118565142Y-108169166D02*
X118612761Y-108216785D01*
X118660380Y-108359642D01*
X118660380Y-108454880D01*
X118612761Y-108597738D01*
X118517523Y-108692976D01*
X118422285Y-108740595D01*
X118231809Y-108788214D01*
X118088952Y-108788214D01*
X117898476Y-108740595D01*
X117803238Y-108692976D01*
X117708000Y-108597738D01*
X117660380Y-108454880D01*
X117660380Y-108359642D01*
X117708000Y-108216785D01*
X117755619Y-108169166D01*
X118088952Y-107597738D02*
X118041333Y-107692976D01*
X117993714Y-107740595D01*
X117898476Y-107788214D01*
X117850857Y-107788214D01*
X117755619Y-107740595D01*
X117708000Y-107692976D01*
X117660380Y-107597738D01*
X117660380Y-107407261D01*
X117708000Y-107312023D01*
X117755619Y-107264404D01*
X117850857Y-107216785D01*
X117898476Y-107216785D01*
X117993714Y-107264404D01*
X118041333Y-107312023D01*
X118088952Y-107407261D01*
X118088952Y-107597738D01*
X118136571Y-107692976D01*
X118184190Y-107740595D01*
X118279428Y-107788214D01*
X118469904Y-107788214D01*
X118565142Y-107740595D01*
X118612761Y-107692976D01*
X118660380Y-107597738D01*
X118660380Y-107407261D01*
X118612761Y-107312023D01*
X118565142Y-107264404D01*
X118469904Y-107216785D01*
X118279428Y-107216785D01*
X118184190Y-107264404D01*
X118136571Y-107312023D01*
X118088952Y-107407261D01*
%TO.C,U1*%
X117649404Y-105961869D02*
X117649404Y-105152345D01*
X117601785Y-105057107D01*
X117554166Y-105009488D01*
X117458928Y-104961869D01*
X117268452Y-104961869D01*
X117173214Y-105009488D01*
X117125595Y-105057107D01*
X117077976Y-105152345D01*
X117077976Y-105961869D01*
X116077976Y-104961869D02*
X116649404Y-104961869D01*
X116363690Y-104961869D02*
X116363690Y-105961869D01*
X116458928Y-105819011D01*
X116554166Y-105723773D01*
X116649404Y-105676154D01*
%TO.C,U4*%
X176398095Y-91857380D02*
X176398095Y-92666904D01*
X176445714Y-92762142D01*
X176493333Y-92809761D01*
X176588571Y-92857380D01*
X176779047Y-92857380D01*
X176874285Y-92809761D01*
X176921904Y-92762142D01*
X176969523Y-92666904D01*
X176969523Y-91857380D01*
X177874285Y-92190714D02*
X177874285Y-92857380D01*
X177636190Y-91809761D02*
X177398095Y-92524047D01*
X178017142Y-92524047D01*
X163673096Y-81096218D02*
X163592284Y-81123155D01*
X163511471Y-81203967D01*
X163457597Y-81311717D01*
X163457597Y-81419467D01*
X163484534Y-81500279D01*
X163565346Y-81634966D01*
X163646158Y-81715778D01*
X163780845Y-81796590D01*
X163861658Y-81823528D01*
X163969407Y-81823528D01*
X164077157Y-81769653D01*
X164131032Y-81715778D01*
X164184906Y-81608028D01*
X164184906Y-81554154D01*
X163996345Y-81365592D01*
X163888595Y-81473341D01*
X164481218Y-81365592D02*
X163915532Y-80799906D01*
X164131032Y-80584407D01*
X164211844Y-80557470D01*
X164265719Y-80557470D01*
X164346531Y-80584407D01*
X164427343Y-80665219D01*
X164454280Y-80746032D01*
X164454280Y-80799906D01*
X164427343Y-80880719D01*
X164211844Y-81096218D01*
X164912216Y-80180346D02*
X165289340Y-80557470D01*
X164562030Y-80099534D02*
X164831404Y-80638282D01*
X165181590Y-80288096D01*
X163673096Y-96336218D02*
X163592284Y-96363155D01*
X163511471Y-96443967D01*
X163457597Y-96551717D01*
X163457597Y-96659467D01*
X163484534Y-96740279D01*
X163565346Y-96874966D01*
X163646158Y-96955778D01*
X163780845Y-97036590D01*
X163861658Y-97063528D01*
X163969407Y-97063528D01*
X164077157Y-97009653D01*
X164131032Y-96955778D01*
X164184906Y-96848028D01*
X164184906Y-96794154D01*
X163996345Y-96605592D01*
X163888595Y-96713341D01*
X164481218Y-96605592D02*
X163915532Y-96039906D01*
X164131032Y-95824407D01*
X164211844Y-95797470D01*
X164265719Y-95797470D01*
X164346531Y-95824407D01*
X164427343Y-95905219D01*
X164454280Y-95986032D01*
X164454280Y-96039906D01*
X164427343Y-96120719D01*
X164211844Y-96336218D01*
X165073841Y-96012969D02*
X165181590Y-95905219D01*
X165208528Y-95824407D01*
X165208528Y-95770532D01*
X165181590Y-95635845D01*
X165100778Y-95501158D01*
X164885279Y-95285659D01*
X164804467Y-95258722D01*
X164750592Y-95258722D01*
X164669780Y-95285659D01*
X164562030Y-95393409D01*
X164535093Y-95474221D01*
X164535093Y-95528096D01*
X164562030Y-95608908D01*
X164696717Y-95743595D01*
X164777529Y-95770532D01*
X164831404Y-95770532D01*
X164912216Y-95743595D01*
X165019966Y-95635845D01*
X165046903Y-95555033D01*
X165046903Y-95501158D01*
X165019966Y-95420346D01*
X189246158Y-111603155D02*
X189165346Y-111630093D01*
X189084534Y-111710905D01*
X189030659Y-111818654D01*
X189030659Y-111926404D01*
X189057597Y-112007216D01*
X189138409Y-112141903D01*
X189219221Y-112222715D01*
X189353908Y-112303528D01*
X189434720Y-112330465D01*
X189542470Y-112330465D01*
X189650219Y-112276590D01*
X189704094Y-112222715D01*
X189757969Y-112114966D01*
X189757969Y-112061091D01*
X189569407Y-111872529D01*
X189461658Y-111980279D01*
X190054280Y-111872529D02*
X189488595Y-111306844D01*
X190377529Y-111549280D01*
X189811844Y-110983595D01*
X190646903Y-111279906D02*
X190081218Y-110714221D01*
X190215905Y-110579534D01*
X190323654Y-110525659D01*
X190431404Y-110525659D01*
X190512216Y-110552597D01*
X190646903Y-110633409D01*
X190727715Y-110714221D01*
X190808528Y-110848908D01*
X190835465Y-110929720D01*
X190835465Y-111037470D01*
X190781590Y-111145219D01*
X190646903Y-111279906D01*
X163149722Y-109305592D02*
X163068910Y-109332529D01*
X162988097Y-109413341D01*
X162934223Y-109521091D01*
X162934223Y-109628841D01*
X162961160Y-109709653D01*
X163041972Y-109844340D01*
X163122784Y-109925152D01*
X163257471Y-110005964D01*
X163338284Y-110032902D01*
X163446033Y-110032902D01*
X163553783Y-109979027D01*
X163607658Y-109925152D01*
X163661532Y-109817402D01*
X163661532Y-109763528D01*
X163472971Y-109574966D01*
X163365221Y-109682715D01*
X163957844Y-109574966D02*
X163392158Y-109009280D01*
X163607658Y-108793781D01*
X163688470Y-108766844D01*
X163742345Y-108766844D01*
X163823157Y-108793781D01*
X163903969Y-108874593D01*
X163930906Y-108955406D01*
X163930906Y-109009280D01*
X163903969Y-109090093D01*
X163688470Y-109305592D01*
X164819841Y-108712969D02*
X164496592Y-109036218D01*
X164658216Y-108874593D02*
X164092531Y-108308908D01*
X164119468Y-108443595D01*
X164119468Y-108551345D01*
X164092531Y-108632157D01*
X164442717Y-107958722D02*
X164792903Y-107608536D01*
X164819841Y-108012597D01*
X164900653Y-107931784D01*
X164981465Y-107904847D01*
X165035340Y-107904847D01*
X165116152Y-107931784D01*
X165250839Y-108066471D01*
X165277776Y-108147284D01*
X165277776Y-108201158D01*
X165250839Y-108281971D01*
X165089215Y-108443595D01*
X165008402Y-108470532D01*
X164954528Y-108470532D01*
X163673096Y-78556218D02*
X163592284Y-78583155D01*
X163511471Y-78663967D01*
X163457597Y-78771717D01*
X163457597Y-78879467D01*
X163484534Y-78960279D01*
X163565346Y-79094966D01*
X163646158Y-79175778D01*
X163780845Y-79256590D01*
X163861658Y-79283528D01*
X163969407Y-79283528D01*
X164077157Y-79229653D01*
X164131032Y-79175778D01*
X164184906Y-79068028D01*
X164184906Y-79014154D01*
X163996345Y-78825592D01*
X163888595Y-78933341D01*
X164481218Y-78825592D02*
X163915532Y-78259906D01*
X164131032Y-78044407D01*
X164211844Y-78017470D01*
X164265719Y-78017470D01*
X164346531Y-78044407D01*
X164427343Y-78125219D01*
X164454280Y-78206032D01*
X164454280Y-78259906D01*
X164427343Y-78340719D01*
X164211844Y-78556218D01*
X164427343Y-77748096D02*
X164777529Y-77397910D01*
X164804467Y-77801971D01*
X164885279Y-77721158D01*
X164966091Y-77694221D01*
X165019966Y-77694221D01*
X165100778Y-77721158D01*
X165235465Y-77855845D01*
X165262402Y-77936658D01*
X165262402Y-77990532D01*
X165235465Y-78071345D01*
X165073841Y-78232969D01*
X164993028Y-78259906D01*
X164939154Y-78259906D01*
X181064761Y-118928809D02*
X181179047Y-118966904D01*
X181369523Y-118966904D01*
X181445714Y-118928809D01*
X181483809Y-118890714D01*
X181521904Y-118814523D01*
X181521904Y-118738333D01*
X181483809Y-118662142D01*
X181445714Y-118624047D01*
X181369523Y-118585952D01*
X181217142Y-118547857D01*
X181140952Y-118509761D01*
X181102857Y-118471666D01*
X181064761Y-118395476D01*
X181064761Y-118319285D01*
X181102857Y-118243095D01*
X181140952Y-118205000D01*
X181217142Y-118166904D01*
X181407619Y-118166904D01*
X181521904Y-118205000D01*
X181788571Y-118166904D02*
X181979047Y-118966904D01*
X182131428Y-118395476D01*
X182283809Y-118966904D01*
X182474285Y-118166904D01*
X182779047Y-118966904D02*
X182779047Y-118166904D01*
X182969523Y-118166904D01*
X183083809Y-118205000D01*
X183160000Y-118281190D01*
X183198095Y-118357380D01*
X183236190Y-118509761D01*
X183236190Y-118624047D01*
X183198095Y-118776428D01*
X183160000Y-118852619D01*
X183083809Y-118928809D01*
X182969523Y-118966904D01*
X182779047Y-118966904D01*
X183579047Y-118966904D02*
X183579047Y-118166904D01*
X184112380Y-118166904D02*
X184264761Y-118166904D01*
X184340952Y-118205000D01*
X184417142Y-118281190D01*
X184455238Y-118433571D01*
X184455238Y-118700238D01*
X184417142Y-118852619D01*
X184340952Y-118928809D01*
X184264761Y-118966904D01*
X184112380Y-118966904D01*
X184036190Y-118928809D01*
X183960000Y-118852619D01*
X183921904Y-118700238D01*
X183921904Y-118433571D01*
X183960000Y-118281190D01*
X184036190Y-118205000D01*
X184112380Y-118166904D01*
X189311597Y-87145964D02*
X189580971Y-86876590D01*
X189419346Y-87361463D02*
X189042223Y-86607216D01*
X189796470Y-86984340D01*
X189742595Y-85960719D02*
X189661783Y-85987656D01*
X189580971Y-86068468D01*
X189527096Y-86176218D01*
X189527096Y-86283967D01*
X189554033Y-86364780D01*
X189634845Y-86499467D01*
X189715658Y-86580279D01*
X189850345Y-86661091D01*
X189931157Y-86688028D01*
X190038906Y-86688028D01*
X190146656Y-86634154D01*
X190200531Y-86580279D01*
X190254406Y-86472529D01*
X190254406Y-86418654D01*
X190065844Y-86230093D01*
X189958094Y-86337842D01*
X190550717Y-86230093D02*
X189985032Y-85664407D01*
X190873966Y-85906844D01*
X190308280Y-85341158D01*
X191143340Y-85637470D02*
X190577654Y-85071784D01*
X190712341Y-84937097D01*
X190820091Y-84883223D01*
X190927841Y-84883223D01*
X191008653Y-84910160D01*
X191143340Y-84990972D01*
X191224152Y-85071784D01*
X191304964Y-85206471D01*
X191331902Y-85287284D01*
X191331902Y-85395033D01*
X191278027Y-85502783D01*
X191143340Y-85637470D01*
X163149722Y-101685592D02*
X163068910Y-101712529D01*
X162988097Y-101793341D01*
X162934223Y-101901091D01*
X162934223Y-102008841D01*
X162961160Y-102089653D01*
X163041972Y-102224340D01*
X163122784Y-102305152D01*
X163257471Y-102385964D01*
X163338284Y-102412902D01*
X163446033Y-102412902D01*
X163553783Y-102359027D01*
X163607658Y-102305152D01*
X163661532Y-102197402D01*
X163661532Y-102143528D01*
X163472971Y-101954966D01*
X163365221Y-102062715D01*
X163957844Y-101954966D02*
X163392158Y-101389280D01*
X163607658Y-101173781D01*
X163688470Y-101146844D01*
X163742345Y-101146844D01*
X163823157Y-101173781D01*
X163903969Y-101254593D01*
X163930906Y-101335406D01*
X163930906Y-101389280D01*
X163903969Y-101470093D01*
X163688470Y-101685592D01*
X164819841Y-101092969D02*
X164496592Y-101416218D01*
X164658216Y-101254593D02*
X164092531Y-100688908D01*
X164119468Y-100823595D01*
X164119468Y-100931345D01*
X164092531Y-101012157D01*
X164604341Y-100177097D02*
X164658216Y-100123223D01*
X164739028Y-100096285D01*
X164792903Y-100096285D01*
X164873715Y-100123223D01*
X165008402Y-100204035D01*
X165143089Y-100338722D01*
X165223902Y-100473409D01*
X165250839Y-100554221D01*
X165250839Y-100608096D01*
X165223902Y-100688908D01*
X165170027Y-100742783D01*
X165089215Y-100769720D01*
X165035340Y-100769720D01*
X164954528Y-100742783D01*
X164819841Y-100661971D01*
X164685154Y-100527284D01*
X164604341Y-100392597D01*
X164577404Y-100311784D01*
X164577404Y-100257910D01*
X164604341Y-100177097D01*
X163003722Y-104225592D02*
X162922910Y-104252529D01*
X162842097Y-104333341D01*
X162788223Y-104441091D01*
X162788223Y-104548841D01*
X162815160Y-104629653D01*
X162895972Y-104764340D01*
X162976784Y-104845152D01*
X163111471Y-104925964D01*
X163192284Y-104952902D01*
X163300033Y-104952902D01*
X163407783Y-104899027D01*
X163461658Y-104845152D01*
X163515532Y-104737402D01*
X163515532Y-104683528D01*
X163326971Y-104494966D01*
X163219221Y-104602715D01*
X163811844Y-104494966D02*
X163246158Y-103929280D01*
X163461658Y-103713781D01*
X163542470Y-103686844D01*
X163596345Y-103686844D01*
X163677157Y-103713781D01*
X163757969Y-103794593D01*
X163784906Y-103875406D01*
X163784906Y-103929280D01*
X163757969Y-104010093D01*
X163542470Y-104225592D01*
X164673841Y-103632969D02*
X164350592Y-103956218D01*
X164512216Y-103794593D02*
X163946531Y-103228908D01*
X163973468Y-103363595D01*
X163973468Y-103471345D01*
X163946531Y-103552157D01*
X165212589Y-103094221D02*
X164889340Y-103417470D01*
X165050964Y-103255845D02*
X164485279Y-102690160D01*
X164512216Y-102824847D01*
X164512216Y-102932597D01*
X164485279Y-103013409D01*
X163103722Y-114385592D02*
X163022910Y-114412529D01*
X162942097Y-114493341D01*
X162888223Y-114601091D01*
X162888223Y-114708841D01*
X162915160Y-114789653D01*
X162995972Y-114924340D01*
X163076784Y-115005152D01*
X163211471Y-115085964D01*
X163292284Y-115112902D01*
X163400033Y-115112902D01*
X163507783Y-115059027D01*
X163561658Y-115005152D01*
X163615532Y-114897402D01*
X163615532Y-114843528D01*
X163426971Y-114654966D01*
X163319221Y-114762715D01*
X163911844Y-114654966D02*
X163346158Y-114089280D01*
X163561658Y-113873781D01*
X163642470Y-113846844D01*
X163696345Y-113846844D01*
X163777157Y-113873781D01*
X163857969Y-113954593D01*
X163884906Y-114035406D01*
X163884906Y-114089280D01*
X163857969Y-114170093D01*
X163642470Y-114385592D01*
X164773841Y-113792969D02*
X164450592Y-114116218D01*
X164612216Y-113954593D02*
X164046531Y-113388908D01*
X164073468Y-113523595D01*
X164073468Y-113631345D01*
X164046531Y-113712157D01*
X164881590Y-112930972D02*
X165258714Y-113308096D01*
X164531404Y-112850160D02*
X164800778Y-113388908D01*
X165150964Y-113038722D01*
X189314788Y-81938773D02*
X189584162Y-81669399D01*
X189422537Y-82154272D02*
X189045414Y-81400025D01*
X189799661Y-81777149D01*
X189988223Y-81588587D02*
X189422537Y-81022902D01*
X189557224Y-80888215D01*
X189664974Y-80834340D01*
X189772723Y-80834340D01*
X189853536Y-80861277D01*
X189988223Y-80942089D01*
X190069035Y-81022902D01*
X190149847Y-81157589D01*
X190176784Y-81238401D01*
X190176784Y-81346150D01*
X190122910Y-81453900D01*
X189988223Y-81588587D01*
X190823282Y-80645778D02*
X190823282Y-80699653D01*
X190769407Y-80807402D01*
X190715532Y-80861277D01*
X190607783Y-80915152D01*
X190500033Y-80915152D01*
X190419221Y-80888215D01*
X190284534Y-80807402D01*
X190203722Y-80726590D01*
X190122910Y-80591903D01*
X190095972Y-80511091D01*
X190095972Y-80403341D01*
X190149847Y-80295592D01*
X190203722Y-80241717D01*
X190311471Y-80187842D01*
X190365346Y-80187842D01*
X191038781Y-80645778D02*
X191469780Y-80214780D01*
X190904094Y-79541345D02*
X191658341Y-79918468D01*
X191281218Y-79164221D01*
X192358714Y-79218096D02*
X191900778Y-79137284D01*
X192035465Y-79541345D02*
X191469780Y-78975659D01*
X191685279Y-78760160D01*
X191766091Y-78733223D01*
X191819966Y-78733223D01*
X191900778Y-78760160D01*
X191981590Y-78840972D01*
X192008528Y-78921784D01*
X192008528Y-78975659D01*
X191981590Y-79056471D01*
X191766091Y-79271971D01*
X192304839Y-78679348D02*
X192493401Y-78490786D01*
X192870524Y-78706285D02*
X192601150Y-78975659D01*
X192035465Y-78409974D01*
X192304839Y-78140600D01*
X193005211Y-77978975D02*
X192816650Y-78167537D01*
X193112961Y-78463849D02*
X192547276Y-77898163D01*
X192816650Y-77628789D01*
X189082131Y-76363308D02*
X189432317Y-76013122D01*
X189459255Y-76417183D01*
X189540067Y-76336370D01*
X189620879Y-76309433D01*
X189674754Y-76309433D01*
X189755566Y-76336370D01*
X189890253Y-76471057D01*
X189917190Y-76551870D01*
X189917190Y-76605744D01*
X189890253Y-76686557D01*
X189728629Y-76848181D01*
X189647816Y-76875118D01*
X189593942Y-76875118D01*
X189593942Y-75851497D02*
X190348189Y-76228621D01*
X189971065Y-75474374D01*
X190105752Y-75339687D02*
X190455938Y-74989500D01*
X190482876Y-75393561D01*
X190563688Y-75312749D01*
X190644500Y-75285812D01*
X190698375Y-75285812D01*
X190779187Y-75312749D01*
X190913874Y-75447436D01*
X190940812Y-75528248D01*
X190940812Y-75582123D01*
X190913874Y-75662935D01*
X190752250Y-75824560D01*
X190671438Y-75851497D01*
X190617563Y-75851497D01*
X191183248Y-75501311D02*
X191614247Y-75070312D01*
X191398748Y-74585439D02*
X191587309Y-74396877D01*
X191964433Y-74612377D02*
X191695059Y-74881751D01*
X191129374Y-74316065D01*
X191398748Y-74046691D01*
X192206870Y-74369940D02*
X191641184Y-73804255D01*
X192530118Y-74046691D01*
X191964433Y-73481006D01*
X189257722Y-101695592D02*
X189176910Y-101722529D01*
X189096097Y-101803341D01*
X189042223Y-101911091D01*
X189042223Y-102018841D01*
X189069160Y-102099653D01*
X189149972Y-102234340D01*
X189230784Y-102315152D01*
X189365471Y-102395964D01*
X189446284Y-102422902D01*
X189554033Y-102422902D01*
X189661783Y-102369027D01*
X189715658Y-102315152D01*
X189769532Y-102207402D01*
X189769532Y-102153528D01*
X189580971Y-101964966D01*
X189473221Y-102072715D01*
X190065844Y-101964966D02*
X189500158Y-101399280D01*
X189715658Y-101183781D01*
X189796470Y-101156844D01*
X189850345Y-101156844D01*
X189931157Y-101183781D01*
X190011969Y-101264593D01*
X190038906Y-101345406D01*
X190038906Y-101399280D01*
X190011969Y-101480093D01*
X189796470Y-101695592D01*
X190092781Y-100914407D02*
X190092781Y-100860532D01*
X190119719Y-100779720D01*
X190254406Y-100645033D01*
X190335218Y-100618096D01*
X190389093Y-100618096D01*
X190469905Y-100645033D01*
X190523780Y-100698908D01*
X190577654Y-100806658D01*
X190577654Y-101453155D01*
X190927841Y-101102969D01*
X191466589Y-100564221D02*
X191143340Y-100887470D01*
X191304964Y-100725845D02*
X190739279Y-100160160D01*
X190766216Y-100294847D01*
X190766216Y-100402597D01*
X190739279Y-100483409D01*
X189049847Y-78895592D02*
X189400033Y-78545406D01*
X189426971Y-78949467D01*
X189507783Y-78868654D01*
X189588595Y-78841717D01*
X189642470Y-78841717D01*
X189723282Y-78868654D01*
X189857969Y-79003341D01*
X189884906Y-79084154D01*
X189884906Y-79138028D01*
X189857969Y-79218841D01*
X189696345Y-79380465D01*
X189615532Y-79407402D01*
X189561658Y-79407402D01*
X189561658Y-78383781D02*
X190315905Y-78760905D01*
X189938781Y-78006658D01*
X190073468Y-77871971D02*
X190423654Y-77521784D01*
X190450592Y-77925845D01*
X190531404Y-77845033D01*
X190612216Y-77818096D01*
X190666091Y-77818096D01*
X190746903Y-77845033D01*
X190881590Y-77979720D01*
X190908528Y-78060532D01*
X190908528Y-78114407D01*
X190881590Y-78195219D01*
X190719966Y-78356844D01*
X190639154Y-78383781D01*
X190585279Y-78383781D01*
X189257722Y-83651592D02*
X189176910Y-83678529D01*
X189096097Y-83759341D01*
X189042223Y-83867091D01*
X189042223Y-83974841D01*
X189069160Y-84055653D01*
X189149972Y-84190340D01*
X189230784Y-84271152D01*
X189365471Y-84351964D01*
X189446284Y-84378902D01*
X189554033Y-84378902D01*
X189661783Y-84325027D01*
X189715658Y-84271152D01*
X189769532Y-84163402D01*
X189769532Y-84109528D01*
X189580971Y-83920966D01*
X189473221Y-84028715D01*
X190065844Y-83920966D02*
X189500158Y-83355280D01*
X189715658Y-83139781D01*
X189796470Y-83112844D01*
X189850345Y-83112844D01*
X189931157Y-83139781D01*
X190011969Y-83220593D01*
X190038906Y-83301406D01*
X190038906Y-83355280D01*
X190011969Y-83436093D01*
X189796470Y-83651592D01*
X190092781Y-82870407D02*
X190092781Y-82816532D01*
X190119719Y-82735720D01*
X190254406Y-82601033D01*
X190335218Y-82574096D01*
X190389093Y-82574096D01*
X190469905Y-82601033D01*
X190523780Y-82654908D01*
X190577654Y-82762658D01*
X190577654Y-83409155D01*
X190927841Y-83058969D01*
X190927841Y-82412471D02*
X190847028Y-82439409D01*
X190793154Y-82439409D01*
X190712341Y-82412471D01*
X190685404Y-82385534D01*
X190658467Y-82304722D01*
X190658467Y-82250847D01*
X190685404Y-82170035D01*
X190793154Y-82062285D01*
X190873966Y-82035348D01*
X190927841Y-82035348D01*
X191008653Y-82062285D01*
X191035590Y-82089223D01*
X191062528Y-82170035D01*
X191062528Y-82223910D01*
X191035590Y-82304722D01*
X190927841Y-82412471D01*
X190900903Y-82493284D01*
X190900903Y-82547158D01*
X190927841Y-82627971D01*
X191035590Y-82735720D01*
X191116402Y-82762658D01*
X191170277Y-82762658D01*
X191251089Y-82735720D01*
X191358839Y-82627971D01*
X191385776Y-82547158D01*
X191385776Y-82493284D01*
X191358839Y-82412471D01*
X191251089Y-82304722D01*
X191170277Y-82277784D01*
X191116402Y-82277784D01*
X191035590Y-82304722D01*
X163646158Y-73503155D02*
X163565346Y-73530093D01*
X163484534Y-73610905D01*
X163430659Y-73718654D01*
X163430659Y-73826404D01*
X163457597Y-73907216D01*
X163538409Y-74041903D01*
X163619221Y-74122715D01*
X163753908Y-74203528D01*
X163834720Y-74230465D01*
X163942470Y-74230465D01*
X164050219Y-74176590D01*
X164104094Y-74122715D01*
X164157969Y-74014966D01*
X164157969Y-73961091D01*
X163969407Y-73772529D01*
X163861658Y-73880279D01*
X164454280Y-73772529D02*
X163888595Y-73206844D01*
X164777529Y-73449280D01*
X164211844Y-72883595D01*
X165046903Y-73179906D02*
X164481218Y-72614221D01*
X164615905Y-72479534D01*
X164723654Y-72425659D01*
X164831404Y-72425659D01*
X164912216Y-72452597D01*
X165046903Y-72533409D01*
X165127715Y-72614221D01*
X165208528Y-72748908D01*
X165235465Y-72829720D01*
X165235465Y-72937470D01*
X165181590Y-73045219D01*
X165046903Y-73179906D01*
X189257722Y-106765592D02*
X189176910Y-106792529D01*
X189096097Y-106873341D01*
X189042223Y-106981091D01*
X189042223Y-107088841D01*
X189069160Y-107169653D01*
X189149972Y-107304340D01*
X189230784Y-107385152D01*
X189365471Y-107465964D01*
X189446284Y-107492902D01*
X189554033Y-107492902D01*
X189661783Y-107439027D01*
X189715658Y-107385152D01*
X189769532Y-107277402D01*
X189769532Y-107223528D01*
X189580971Y-107034966D01*
X189473221Y-107142715D01*
X190065844Y-107034966D02*
X189500158Y-106469280D01*
X189715658Y-106253781D01*
X189796470Y-106226844D01*
X189850345Y-106226844D01*
X189931157Y-106253781D01*
X190011969Y-106334593D01*
X190038906Y-106415406D01*
X190038906Y-106469280D01*
X190011969Y-106550093D01*
X189796470Y-106765592D01*
X190927841Y-106172969D02*
X190604592Y-106496218D01*
X190766216Y-106334593D02*
X190200531Y-105768908D01*
X190227468Y-105903595D01*
X190227468Y-106011345D01*
X190200531Y-106092157D01*
X191197215Y-105903595D02*
X191304964Y-105795845D01*
X191331902Y-105715033D01*
X191331902Y-105661158D01*
X191304964Y-105526471D01*
X191224152Y-105391784D01*
X191008653Y-105176285D01*
X190927841Y-105149348D01*
X190873966Y-105149348D01*
X190793154Y-105176285D01*
X190685404Y-105284035D01*
X190658467Y-105364847D01*
X190658467Y-105418722D01*
X190685404Y-105499534D01*
X190820091Y-105634221D01*
X190900903Y-105661158D01*
X190954778Y-105661158D01*
X191035590Y-105634221D01*
X191143340Y-105526471D01*
X191170277Y-105445659D01*
X191170277Y-105391784D01*
X191143340Y-105310972D01*
X189246158Y-73503155D02*
X189165346Y-73530093D01*
X189084534Y-73610905D01*
X189030659Y-73718654D01*
X189030659Y-73826404D01*
X189057597Y-73907216D01*
X189138409Y-74041903D01*
X189219221Y-74122715D01*
X189353908Y-74203528D01*
X189434720Y-74230465D01*
X189542470Y-74230465D01*
X189650219Y-74176590D01*
X189704094Y-74122715D01*
X189757969Y-74014966D01*
X189757969Y-73961091D01*
X189569407Y-73772529D01*
X189461658Y-73880279D01*
X190054280Y-73772529D02*
X189488595Y-73206844D01*
X190377529Y-73449280D01*
X189811844Y-72883595D01*
X190646903Y-73179906D02*
X190081218Y-72614221D01*
X190215905Y-72479534D01*
X190323654Y-72425659D01*
X190431404Y-72425659D01*
X190512216Y-72452597D01*
X190646903Y-72533409D01*
X190727715Y-72614221D01*
X190808528Y-72748908D01*
X190835465Y-72829720D01*
X190835465Y-72937470D01*
X190781590Y-73045219D01*
X190646903Y-73179906D01*
X189998375Y-94348435D02*
X189540439Y-94267622D01*
X189675126Y-94671683D02*
X189109441Y-94105998D01*
X189324940Y-93890499D01*
X189405752Y-93863561D01*
X189459627Y-93863561D01*
X189540439Y-93890499D01*
X189621251Y-93971311D01*
X189648189Y-94052123D01*
X189648189Y-94105998D01*
X189621251Y-94186810D01*
X189405752Y-94402309D01*
X189675126Y-93540312D02*
X190133062Y-93998248D01*
X190213874Y-94025186D01*
X190267749Y-94025186D01*
X190348561Y-93998248D01*
X190456311Y-93890499D01*
X190483248Y-93809687D01*
X190483248Y-93755812D01*
X190456311Y-93674999D01*
X189998375Y-93217064D01*
X190833435Y-93513375D02*
X190267749Y-92947690D01*
X191156683Y-93190126D01*
X190590998Y-92624441D01*
X163673096Y-88716218D02*
X163592284Y-88743155D01*
X163511471Y-88823967D01*
X163457597Y-88931717D01*
X163457597Y-89039467D01*
X163484534Y-89120279D01*
X163565346Y-89254966D01*
X163646158Y-89335778D01*
X163780845Y-89416590D01*
X163861658Y-89443528D01*
X163969407Y-89443528D01*
X164077157Y-89389653D01*
X164131032Y-89335778D01*
X164184906Y-89228028D01*
X164184906Y-89174154D01*
X163996345Y-88985592D01*
X163888595Y-89093341D01*
X164481218Y-88985592D02*
X163915532Y-88419906D01*
X164131032Y-88204407D01*
X164211844Y-88177470D01*
X164265719Y-88177470D01*
X164346531Y-88204407D01*
X164427343Y-88285219D01*
X164454280Y-88366032D01*
X164454280Y-88419906D01*
X164427343Y-88500719D01*
X164211844Y-88716218D01*
X164723654Y-87611784D02*
X164615905Y-87719534D01*
X164588967Y-87800346D01*
X164588967Y-87854221D01*
X164615905Y-87988908D01*
X164696717Y-88123595D01*
X164912216Y-88339094D01*
X164993028Y-88366032D01*
X165046903Y-88366032D01*
X165127715Y-88339094D01*
X165235465Y-88231345D01*
X165262402Y-88150532D01*
X165262402Y-88096658D01*
X165235465Y-88015845D01*
X165100778Y-87881158D01*
X165019966Y-87854221D01*
X164966091Y-87854221D01*
X164885279Y-87881158D01*
X164777529Y-87988908D01*
X164750592Y-88069720D01*
X164750592Y-88123595D01*
X164777529Y-88204407D01*
X189113129Y-68932309D02*
X189867377Y-69309433D01*
X189490253Y-68555186D01*
X190136751Y-68447436D02*
X190244500Y-68393561D01*
X190298375Y-68393561D01*
X190379187Y-68420499D01*
X190460000Y-68501311D01*
X190486937Y-68582123D01*
X190486937Y-68635998D01*
X190460000Y-68716810D01*
X190244500Y-68932309D01*
X189678815Y-68366624D01*
X189867377Y-68178062D01*
X189948189Y-68151125D01*
X190002064Y-68151125D01*
X190082876Y-68178062D01*
X190136751Y-68231937D01*
X190163688Y-68312749D01*
X190163688Y-68366624D01*
X190136751Y-68447436D01*
X189948189Y-68635998D01*
X190244500Y-67800938D02*
X190702436Y-68258874D01*
X190783248Y-68285812D01*
X190837123Y-68285812D01*
X190917935Y-68258874D01*
X191025685Y-68151125D01*
X191052622Y-68070312D01*
X191052622Y-68016438D01*
X191025685Y-67935625D01*
X190567749Y-67477690D01*
X191348934Y-67774001D02*
X191456683Y-67720126D01*
X191591370Y-67585439D01*
X191618308Y-67504627D01*
X191618308Y-67450752D01*
X191591370Y-67369940D01*
X191537496Y-67316065D01*
X191456683Y-67289128D01*
X191402809Y-67289128D01*
X191321996Y-67316065D01*
X191187309Y-67396877D01*
X191106497Y-67423815D01*
X191052622Y-67423815D01*
X190971810Y-67396877D01*
X190917935Y-67343003D01*
X190890998Y-67262190D01*
X190890998Y-67208316D01*
X190917935Y-67127503D01*
X191052622Y-66992816D01*
X191160372Y-66938942D01*
X163646158Y-98903155D02*
X163565346Y-98930093D01*
X163484534Y-99010905D01*
X163430659Y-99118654D01*
X163430659Y-99226404D01*
X163457597Y-99307216D01*
X163538409Y-99441903D01*
X163619221Y-99522715D01*
X163753908Y-99603528D01*
X163834720Y-99630465D01*
X163942470Y-99630465D01*
X164050219Y-99576590D01*
X164104094Y-99522715D01*
X164157969Y-99414966D01*
X164157969Y-99361091D01*
X163969407Y-99172529D01*
X163861658Y-99280279D01*
X164454280Y-99172529D02*
X163888595Y-98606844D01*
X164777529Y-98849280D01*
X164211844Y-98283595D01*
X165046903Y-98579906D02*
X164481218Y-98014221D01*
X164615905Y-97879534D01*
X164723654Y-97825659D01*
X164831404Y-97825659D01*
X164912216Y-97852597D01*
X165046903Y-97933409D01*
X165127715Y-98014221D01*
X165208528Y-98148908D01*
X165235465Y-98229720D01*
X165235465Y-98337470D01*
X165181590Y-98445219D01*
X165046903Y-98579906D01*
X163673096Y-68396218D02*
X163592284Y-68423155D01*
X163511471Y-68503967D01*
X163457597Y-68611717D01*
X163457597Y-68719467D01*
X163484534Y-68800279D01*
X163565346Y-68934966D01*
X163646158Y-69015778D01*
X163780845Y-69096590D01*
X163861658Y-69123528D01*
X163969407Y-69123528D01*
X164077157Y-69069653D01*
X164131032Y-69015778D01*
X164184906Y-68908028D01*
X164184906Y-68854154D01*
X163996345Y-68665592D01*
X163888595Y-68773341D01*
X164481218Y-68665592D02*
X163915532Y-68099906D01*
X164131032Y-67884407D01*
X164211844Y-67857470D01*
X164265719Y-67857470D01*
X164346531Y-67884407D01*
X164427343Y-67965219D01*
X164454280Y-68046032D01*
X164454280Y-68099906D01*
X164427343Y-68180719D01*
X164211844Y-68396218D01*
X164588967Y-67426471D02*
X164642842Y-67372597D01*
X164723654Y-67345659D01*
X164777529Y-67345659D01*
X164858341Y-67372597D01*
X164993028Y-67453409D01*
X165127715Y-67588096D01*
X165208528Y-67722783D01*
X165235465Y-67803595D01*
X165235465Y-67857470D01*
X165208528Y-67938282D01*
X165154653Y-67992157D01*
X165073841Y-68019094D01*
X165019966Y-68019094D01*
X164939154Y-67992157D01*
X164804467Y-67911345D01*
X164669780Y-67776658D01*
X164588967Y-67641971D01*
X164562030Y-67561158D01*
X164562030Y-67507284D01*
X164588967Y-67426471D01*
X163149722Y-116925592D02*
X163068910Y-116952529D01*
X162988097Y-117033341D01*
X162934223Y-117141091D01*
X162934223Y-117248841D01*
X162961160Y-117329653D01*
X163041972Y-117464340D01*
X163122784Y-117545152D01*
X163257471Y-117625964D01*
X163338284Y-117652902D01*
X163446033Y-117652902D01*
X163553783Y-117599027D01*
X163607658Y-117545152D01*
X163661532Y-117437402D01*
X163661532Y-117383528D01*
X163472971Y-117194966D01*
X163365221Y-117302715D01*
X163957844Y-117194966D02*
X163392158Y-116629280D01*
X163607658Y-116413781D01*
X163688470Y-116386844D01*
X163742345Y-116386844D01*
X163823157Y-116413781D01*
X163903969Y-116494593D01*
X163930906Y-116575406D01*
X163930906Y-116629280D01*
X163903969Y-116710093D01*
X163688470Y-116925592D01*
X164819841Y-116332969D02*
X164496592Y-116656218D01*
X164658216Y-116494593D02*
X164092531Y-115928908D01*
X164119468Y-116063595D01*
X164119468Y-116171345D01*
X164092531Y-116252157D01*
X164765966Y-115255473D02*
X164496592Y-115524847D01*
X164739028Y-115821158D01*
X164739028Y-115767284D01*
X164765966Y-115686471D01*
X164900653Y-115551784D01*
X164981465Y-115524847D01*
X165035340Y-115524847D01*
X165116152Y-115551784D01*
X165250839Y-115686471D01*
X165277776Y-115767284D01*
X165277776Y-115821158D01*
X165250839Y-115901971D01*
X165116152Y-116036658D01*
X165035340Y-116063595D01*
X164981465Y-116063595D01*
X163673096Y-83636218D02*
X163592284Y-83663155D01*
X163511471Y-83743967D01*
X163457597Y-83851717D01*
X163457597Y-83959467D01*
X163484534Y-84040279D01*
X163565346Y-84174966D01*
X163646158Y-84255778D01*
X163780845Y-84336590D01*
X163861658Y-84363528D01*
X163969407Y-84363528D01*
X164077157Y-84309653D01*
X164131032Y-84255778D01*
X164184906Y-84148028D01*
X164184906Y-84094154D01*
X163996345Y-83905592D01*
X163888595Y-84013341D01*
X164481218Y-83905592D02*
X163915532Y-83339906D01*
X164131032Y-83124407D01*
X164211844Y-83097470D01*
X164265719Y-83097470D01*
X164346531Y-83124407D01*
X164427343Y-83205219D01*
X164454280Y-83286032D01*
X164454280Y-83339906D01*
X164427343Y-83420719D01*
X164211844Y-83636218D01*
X164750592Y-82504847D02*
X164481218Y-82774221D01*
X164723654Y-83070532D01*
X164723654Y-83016658D01*
X164750592Y-82935845D01*
X164885279Y-82801158D01*
X164966091Y-82774221D01*
X165019966Y-82774221D01*
X165100778Y-82801158D01*
X165235465Y-82935845D01*
X165262402Y-83016658D01*
X165262402Y-83070532D01*
X165235465Y-83151345D01*
X165100778Y-83286032D01*
X165019966Y-83312969D01*
X164966091Y-83312969D01*
X163646158Y-86203155D02*
X163565346Y-86230093D01*
X163484534Y-86310905D01*
X163430659Y-86418654D01*
X163430659Y-86526404D01*
X163457597Y-86607216D01*
X163538409Y-86741903D01*
X163619221Y-86822715D01*
X163753908Y-86903528D01*
X163834720Y-86930465D01*
X163942470Y-86930465D01*
X164050219Y-86876590D01*
X164104094Y-86822715D01*
X164157969Y-86714966D01*
X164157969Y-86661091D01*
X163969407Y-86472529D01*
X163861658Y-86580279D01*
X164454280Y-86472529D02*
X163888595Y-85906844D01*
X164777529Y-86149280D01*
X164211844Y-85583595D01*
X165046903Y-85879906D02*
X164481218Y-85314221D01*
X164615905Y-85179534D01*
X164723654Y-85125659D01*
X164831404Y-85125659D01*
X164912216Y-85152597D01*
X165046903Y-85233409D01*
X165127715Y-85314221D01*
X165208528Y-85448908D01*
X165235465Y-85529720D01*
X165235465Y-85637470D01*
X165181590Y-85745219D01*
X165046903Y-85879906D01*
X163573096Y-70926218D02*
X163492284Y-70953155D01*
X163411471Y-71033967D01*
X163357597Y-71141717D01*
X163357597Y-71249467D01*
X163384534Y-71330279D01*
X163465346Y-71464966D01*
X163546158Y-71545778D01*
X163680845Y-71626590D01*
X163761658Y-71653528D01*
X163869407Y-71653528D01*
X163977157Y-71599653D01*
X164031032Y-71545778D01*
X164084906Y-71438028D01*
X164084906Y-71384154D01*
X163896345Y-71195592D01*
X163788595Y-71303341D01*
X164381218Y-71195592D02*
X163815532Y-70629906D01*
X164031032Y-70414407D01*
X164111844Y-70387470D01*
X164165719Y-70387470D01*
X164246531Y-70414407D01*
X164327343Y-70495219D01*
X164354280Y-70576032D01*
X164354280Y-70629906D01*
X164327343Y-70710719D01*
X164111844Y-70926218D01*
X165243215Y-70333595D02*
X164919966Y-70656844D01*
X165081590Y-70495219D02*
X164515905Y-69929534D01*
X164542842Y-70064221D01*
X164542842Y-70171971D01*
X164515905Y-70252783D01*
X189257722Y-109305592D02*
X189176910Y-109332529D01*
X189096097Y-109413341D01*
X189042223Y-109521091D01*
X189042223Y-109628841D01*
X189069160Y-109709653D01*
X189149972Y-109844340D01*
X189230784Y-109925152D01*
X189365471Y-110005964D01*
X189446284Y-110032902D01*
X189554033Y-110032902D01*
X189661783Y-109979027D01*
X189715658Y-109925152D01*
X189769532Y-109817402D01*
X189769532Y-109763528D01*
X189580971Y-109574966D01*
X189473221Y-109682715D01*
X190065844Y-109574966D02*
X189500158Y-109009280D01*
X189715658Y-108793781D01*
X189796470Y-108766844D01*
X189850345Y-108766844D01*
X189931157Y-108793781D01*
X190011969Y-108874593D01*
X190038906Y-108955406D01*
X190038906Y-109009280D01*
X190011969Y-109090093D01*
X189796470Y-109305592D01*
X190927841Y-108712969D02*
X190604592Y-109036218D01*
X190766216Y-108874593D02*
X190200531Y-108308908D01*
X190227468Y-108443595D01*
X190227468Y-108551345D01*
X190200531Y-108632157D01*
X190927841Y-108066471D02*
X190847028Y-108093409D01*
X190793154Y-108093409D01*
X190712341Y-108066471D01*
X190685404Y-108039534D01*
X190658467Y-107958722D01*
X190658467Y-107904847D01*
X190685404Y-107824035D01*
X190793154Y-107716285D01*
X190873966Y-107689348D01*
X190927841Y-107689348D01*
X191008653Y-107716285D01*
X191035590Y-107743223D01*
X191062528Y-107824035D01*
X191062528Y-107877910D01*
X191035590Y-107958722D01*
X190927841Y-108066471D01*
X190900903Y-108147284D01*
X190900903Y-108201158D01*
X190927841Y-108281971D01*
X191035590Y-108389720D01*
X191116402Y-108416658D01*
X191170277Y-108416658D01*
X191251089Y-108389720D01*
X191358839Y-108281971D01*
X191385776Y-108201158D01*
X191385776Y-108147284D01*
X191358839Y-108066471D01*
X191251089Y-107958722D01*
X191170277Y-107931784D01*
X191116402Y-107931784D01*
X191035590Y-107958722D01*
X189257722Y-91525592D02*
X189176910Y-91552529D01*
X189096097Y-91633341D01*
X189042223Y-91741091D01*
X189042223Y-91848841D01*
X189069160Y-91929653D01*
X189149972Y-92064340D01*
X189230784Y-92145152D01*
X189365471Y-92225964D01*
X189446284Y-92252902D01*
X189554033Y-92252902D01*
X189661783Y-92199027D01*
X189715658Y-92145152D01*
X189769532Y-92037402D01*
X189769532Y-91983528D01*
X189580971Y-91794966D01*
X189473221Y-91902715D01*
X190065844Y-91794966D02*
X189500158Y-91229280D01*
X189715658Y-91013781D01*
X189796470Y-90986844D01*
X189850345Y-90986844D01*
X189931157Y-91013781D01*
X190011969Y-91094593D01*
X190038906Y-91175406D01*
X190038906Y-91229280D01*
X190011969Y-91310093D01*
X189796470Y-91525592D01*
X190092781Y-90744407D02*
X190092781Y-90690532D01*
X190119719Y-90609720D01*
X190254406Y-90475033D01*
X190335218Y-90448096D01*
X190389093Y-90448096D01*
X190469905Y-90475033D01*
X190523780Y-90528908D01*
X190577654Y-90636658D01*
X190577654Y-91283155D01*
X190927841Y-90932969D01*
X190847028Y-89882410D02*
X190739279Y-89990160D01*
X190712341Y-90070972D01*
X190712341Y-90124847D01*
X190739279Y-90259534D01*
X190820091Y-90394221D01*
X191035590Y-90609720D01*
X191116402Y-90636658D01*
X191170277Y-90636658D01*
X191251089Y-90609720D01*
X191358839Y-90501971D01*
X191385776Y-90421158D01*
X191385776Y-90367284D01*
X191358839Y-90286471D01*
X191224152Y-90151784D01*
X191143340Y-90124847D01*
X191089465Y-90124847D01*
X191008653Y-90151784D01*
X190900903Y-90259534D01*
X190873966Y-90340346D01*
X190873966Y-90394221D01*
X190900903Y-90475033D01*
X189257722Y-104225592D02*
X189176910Y-104252529D01*
X189096097Y-104333341D01*
X189042223Y-104441091D01*
X189042223Y-104548841D01*
X189069160Y-104629653D01*
X189149972Y-104764340D01*
X189230784Y-104845152D01*
X189365471Y-104925964D01*
X189446284Y-104952902D01*
X189554033Y-104952902D01*
X189661783Y-104899027D01*
X189715658Y-104845152D01*
X189769532Y-104737402D01*
X189769532Y-104683528D01*
X189580971Y-104494966D01*
X189473221Y-104602715D01*
X190065844Y-104494966D02*
X189500158Y-103929280D01*
X189715658Y-103713781D01*
X189796470Y-103686844D01*
X189850345Y-103686844D01*
X189931157Y-103713781D01*
X190011969Y-103794593D01*
X190038906Y-103875406D01*
X190038906Y-103929280D01*
X190011969Y-104010093D01*
X189796470Y-104225592D01*
X190092781Y-103444407D02*
X190092781Y-103390532D01*
X190119719Y-103309720D01*
X190254406Y-103175033D01*
X190335218Y-103148096D01*
X190389093Y-103148096D01*
X190469905Y-103175033D01*
X190523780Y-103228908D01*
X190577654Y-103336658D01*
X190577654Y-103983155D01*
X190927841Y-103632969D01*
X190712341Y-102717097D02*
X190766216Y-102663223D01*
X190847028Y-102636285D01*
X190900903Y-102636285D01*
X190981715Y-102663223D01*
X191116402Y-102744035D01*
X191251089Y-102878722D01*
X191331902Y-103013409D01*
X191358839Y-103094221D01*
X191358839Y-103148096D01*
X191331902Y-103228908D01*
X191278027Y-103282783D01*
X191197215Y-103309720D01*
X191143340Y-103309720D01*
X191062528Y-103282783D01*
X190927841Y-103201971D01*
X190793154Y-103067284D01*
X190712341Y-102932597D01*
X190685404Y-102851784D01*
X190685404Y-102797910D01*
X190712341Y-102717097D01*
X189246158Y-98903155D02*
X189165346Y-98930093D01*
X189084534Y-99010905D01*
X189030659Y-99118654D01*
X189030659Y-99226404D01*
X189057597Y-99307216D01*
X189138409Y-99441903D01*
X189219221Y-99522715D01*
X189353908Y-99603528D01*
X189434720Y-99630465D01*
X189542470Y-99630465D01*
X189650219Y-99576590D01*
X189704094Y-99522715D01*
X189757969Y-99414966D01*
X189757969Y-99361091D01*
X189569407Y-99172529D01*
X189461658Y-99280279D01*
X190054280Y-99172529D02*
X189488595Y-98606844D01*
X190377529Y-98849280D01*
X189811844Y-98283595D01*
X190646903Y-98579906D02*
X190081218Y-98014221D01*
X190215905Y-97879534D01*
X190323654Y-97825659D01*
X190431404Y-97825659D01*
X190512216Y-97852597D01*
X190646903Y-97933409D01*
X190727715Y-98014221D01*
X190808528Y-98148908D01*
X190835465Y-98229720D01*
X190835465Y-98337470D01*
X190781590Y-98445219D01*
X190646903Y-98579906D01*
X189257722Y-88995592D02*
X189176910Y-89022529D01*
X189096097Y-89103341D01*
X189042223Y-89211091D01*
X189042223Y-89318841D01*
X189069160Y-89399653D01*
X189149972Y-89534340D01*
X189230784Y-89615152D01*
X189365471Y-89695964D01*
X189446284Y-89722902D01*
X189554033Y-89722902D01*
X189661783Y-89669027D01*
X189715658Y-89615152D01*
X189769532Y-89507402D01*
X189769532Y-89453528D01*
X189580971Y-89264966D01*
X189473221Y-89372715D01*
X190065844Y-89264966D02*
X189500158Y-88699280D01*
X189715658Y-88483781D01*
X189796470Y-88456844D01*
X189850345Y-88456844D01*
X189931157Y-88483781D01*
X190011969Y-88564593D01*
X190038906Y-88645406D01*
X190038906Y-88699280D01*
X190011969Y-88780093D01*
X189796470Y-88995592D01*
X190092781Y-88214407D02*
X190092781Y-88160532D01*
X190119719Y-88079720D01*
X190254406Y-87945033D01*
X190335218Y-87918096D01*
X190389093Y-87918096D01*
X190469905Y-87945033D01*
X190523780Y-87998908D01*
X190577654Y-88106658D01*
X190577654Y-88753155D01*
X190927841Y-88402969D01*
X190550717Y-87648722D02*
X190927841Y-87271598D01*
X191251089Y-88079720D01*
X189080473Y-71474966D02*
X189834720Y-71852089D01*
X189457597Y-71097842D01*
X190157969Y-71474966D02*
X190265719Y-71421091D01*
X190400406Y-71286404D01*
X190427343Y-71205592D01*
X190427343Y-71151717D01*
X190400406Y-71070905D01*
X190346531Y-71017030D01*
X190265719Y-70990093D01*
X190211844Y-70990093D01*
X190131032Y-71017030D01*
X189996345Y-71097842D01*
X189915532Y-71124780D01*
X189861658Y-71124780D01*
X189780845Y-71097842D01*
X189726971Y-71043967D01*
X189700033Y-70963155D01*
X189700033Y-70909280D01*
X189726971Y-70828468D01*
X189861658Y-70693781D01*
X189969407Y-70639906D01*
X190588967Y-70559094D02*
X190858341Y-70828468D01*
X190104094Y-70451345D02*
X190588967Y-70559094D01*
X190481218Y-70074221D01*
X191181590Y-70451345D02*
X191289340Y-70397470D01*
X191424027Y-70262783D01*
X191450964Y-70181971D01*
X191450964Y-70128096D01*
X191424027Y-70047284D01*
X191370152Y-69993409D01*
X191289340Y-69966471D01*
X191235465Y-69966471D01*
X191154653Y-69993409D01*
X191019966Y-70074221D01*
X190939154Y-70101158D01*
X190885279Y-70101158D01*
X190804467Y-70074221D01*
X190750592Y-70020346D01*
X190723654Y-69939534D01*
X190723654Y-69885659D01*
X190750592Y-69804847D01*
X190885279Y-69670160D01*
X190993028Y-69616285D01*
X163003722Y-106765592D02*
X162922910Y-106792529D01*
X162842097Y-106873341D01*
X162788223Y-106981091D01*
X162788223Y-107088841D01*
X162815160Y-107169653D01*
X162895972Y-107304340D01*
X162976784Y-107385152D01*
X163111471Y-107465964D01*
X163192284Y-107492902D01*
X163300033Y-107492902D01*
X163407783Y-107439027D01*
X163461658Y-107385152D01*
X163515532Y-107277402D01*
X163515532Y-107223528D01*
X163326971Y-107034966D01*
X163219221Y-107142715D01*
X163811844Y-107034966D02*
X163246158Y-106469280D01*
X163461658Y-106253781D01*
X163542470Y-106226844D01*
X163596345Y-106226844D01*
X163677157Y-106253781D01*
X163757969Y-106334593D01*
X163784906Y-106415406D01*
X163784906Y-106469280D01*
X163757969Y-106550093D01*
X163542470Y-106765592D01*
X164673841Y-106172969D02*
X164350592Y-106496218D01*
X164512216Y-106334593D02*
X163946531Y-105768908D01*
X163973468Y-105903595D01*
X163973468Y-106011345D01*
X163946531Y-106092157D01*
X164377529Y-105445659D02*
X164377529Y-105391784D01*
X164404467Y-105310972D01*
X164539154Y-105176285D01*
X164619966Y-105149348D01*
X164673841Y-105149348D01*
X164754653Y-105176285D01*
X164808528Y-105230160D01*
X164862402Y-105337910D01*
X164862402Y-105984407D01*
X165212589Y-105634221D01*
X163673096Y-93796218D02*
X163592284Y-93823155D01*
X163511471Y-93903967D01*
X163457597Y-94011717D01*
X163457597Y-94119467D01*
X163484534Y-94200279D01*
X163565346Y-94334966D01*
X163646158Y-94415778D01*
X163780845Y-94496590D01*
X163861658Y-94523528D01*
X163969407Y-94523528D01*
X164077157Y-94469653D01*
X164131032Y-94415778D01*
X164184906Y-94308028D01*
X164184906Y-94254154D01*
X163996345Y-94065592D01*
X163888595Y-94173341D01*
X164481218Y-94065592D02*
X163915532Y-93499906D01*
X164131032Y-93284407D01*
X164211844Y-93257470D01*
X164265719Y-93257470D01*
X164346531Y-93284407D01*
X164427343Y-93365219D01*
X164454280Y-93446032D01*
X164454280Y-93499906D01*
X164427343Y-93580719D01*
X164211844Y-93796218D01*
X164804467Y-93095845D02*
X164723654Y-93122783D01*
X164669780Y-93122783D01*
X164588967Y-93095845D01*
X164562030Y-93068908D01*
X164535093Y-92988096D01*
X164535093Y-92934221D01*
X164562030Y-92853409D01*
X164669780Y-92745659D01*
X164750592Y-92718722D01*
X164804467Y-92718722D01*
X164885279Y-92745659D01*
X164912216Y-92772597D01*
X164939154Y-92853409D01*
X164939154Y-92907284D01*
X164912216Y-92988096D01*
X164804467Y-93095845D01*
X164777529Y-93176658D01*
X164777529Y-93230532D01*
X164804467Y-93311345D01*
X164912216Y-93419094D01*
X164993028Y-93446032D01*
X165046903Y-93446032D01*
X165127715Y-93419094D01*
X165235465Y-93311345D01*
X165262402Y-93230532D01*
X165262402Y-93176658D01*
X165235465Y-93095845D01*
X165127715Y-92988096D01*
X165046903Y-92961158D01*
X164993028Y-92961158D01*
X164912216Y-92988096D01*
X189257722Y-114385592D02*
X189176910Y-114412529D01*
X189096097Y-114493341D01*
X189042223Y-114601091D01*
X189042223Y-114708841D01*
X189069160Y-114789653D01*
X189149972Y-114924340D01*
X189230784Y-115005152D01*
X189365471Y-115085964D01*
X189446284Y-115112902D01*
X189554033Y-115112902D01*
X189661783Y-115059027D01*
X189715658Y-115005152D01*
X189769532Y-114897402D01*
X189769532Y-114843528D01*
X189580971Y-114654966D01*
X189473221Y-114762715D01*
X190065844Y-114654966D02*
X189500158Y-114089280D01*
X189715658Y-113873781D01*
X189796470Y-113846844D01*
X189850345Y-113846844D01*
X189931157Y-113873781D01*
X190011969Y-113954593D01*
X190038906Y-114035406D01*
X190038906Y-114089280D01*
X190011969Y-114170093D01*
X189796470Y-114385592D01*
X190927841Y-113792969D02*
X190604592Y-114116218D01*
X190766216Y-113954593D02*
X190200531Y-113388908D01*
X190227468Y-113523595D01*
X190227468Y-113631345D01*
X190200531Y-113712157D01*
X190550717Y-113038722D02*
X190927841Y-112661598D01*
X191251089Y-113469720D01*
X163773096Y-91226218D02*
X163692284Y-91253155D01*
X163611471Y-91333967D01*
X163557597Y-91441717D01*
X163557597Y-91549467D01*
X163584534Y-91630279D01*
X163665346Y-91764966D01*
X163746158Y-91845778D01*
X163880845Y-91926590D01*
X163961658Y-91953528D01*
X164069407Y-91953528D01*
X164177157Y-91899653D01*
X164231032Y-91845778D01*
X164284906Y-91738028D01*
X164284906Y-91684154D01*
X164096345Y-91495592D01*
X163988595Y-91603341D01*
X164581218Y-91495592D02*
X164015532Y-90929906D01*
X164231032Y-90714407D01*
X164311844Y-90687470D01*
X164365719Y-90687470D01*
X164446531Y-90714407D01*
X164527343Y-90795219D01*
X164554280Y-90876032D01*
X164554280Y-90929906D01*
X164527343Y-91010719D01*
X164311844Y-91226218D01*
X164527343Y-90418096D02*
X164904467Y-90040972D01*
X165227715Y-90849094D01*
X169650476Y-118928809D02*
X169764761Y-118966904D01*
X169955238Y-118966904D01*
X170031428Y-118928809D01*
X170069523Y-118890714D01*
X170107619Y-118814523D01*
X170107619Y-118738333D01*
X170069523Y-118662142D01*
X170031428Y-118624047D01*
X169955238Y-118585952D01*
X169802857Y-118547857D01*
X169726666Y-118509761D01*
X169688571Y-118471666D01*
X169650476Y-118395476D01*
X169650476Y-118319285D01*
X169688571Y-118243095D01*
X169726666Y-118205000D01*
X169802857Y-118166904D01*
X169993333Y-118166904D01*
X170107619Y-118205000D01*
X170374285Y-118166904D02*
X170564761Y-118966904D01*
X170717142Y-118395476D01*
X170869523Y-118966904D01*
X171060000Y-118166904D01*
X171821904Y-118890714D02*
X171783809Y-118928809D01*
X171669523Y-118966904D01*
X171593333Y-118966904D01*
X171479047Y-118928809D01*
X171402857Y-118852619D01*
X171364761Y-118776428D01*
X171326666Y-118624047D01*
X171326666Y-118509761D01*
X171364761Y-118357380D01*
X171402857Y-118281190D01*
X171479047Y-118205000D01*
X171593333Y-118166904D01*
X171669523Y-118166904D01*
X171783809Y-118205000D01*
X171821904Y-118243095D01*
X172545714Y-118966904D02*
X172164761Y-118966904D01*
X172164761Y-118166904D01*
X172812380Y-118966904D02*
X172812380Y-118166904D01*
X173269523Y-118966904D02*
X172926666Y-118509761D01*
X173269523Y-118166904D02*
X172812380Y-118624047D01*
X189257722Y-116925592D02*
X189176910Y-116952529D01*
X189096097Y-117033341D01*
X189042223Y-117141091D01*
X189042223Y-117248841D01*
X189069160Y-117329653D01*
X189149972Y-117464340D01*
X189230784Y-117545152D01*
X189365471Y-117625964D01*
X189446284Y-117652902D01*
X189554033Y-117652902D01*
X189661783Y-117599027D01*
X189715658Y-117545152D01*
X189769532Y-117437402D01*
X189769532Y-117383528D01*
X189580971Y-117194966D01*
X189473221Y-117302715D01*
X190065844Y-117194966D02*
X189500158Y-116629280D01*
X189715658Y-116413781D01*
X189796470Y-116386844D01*
X189850345Y-116386844D01*
X189931157Y-116413781D01*
X190011969Y-116494593D01*
X190038906Y-116575406D01*
X190038906Y-116629280D01*
X190011969Y-116710093D01*
X189796470Y-116925592D01*
X190927841Y-116332969D02*
X190604592Y-116656218D01*
X190766216Y-116494593D02*
X190200531Y-115928908D01*
X190227468Y-116063595D01*
X190227468Y-116171345D01*
X190200531Y-116252157D01*
X190847028Y-115282410D02*
X190739279Y-115390160D01*
X190712341Y-115470972D01*
X190712341Y-115524847D01*
X190739279Y-115659534D01*
X190820091Y-115794221D01*
X191035590Y-116009720D01*
X191116402Y-116036658D01*
X191170277Y-116036658D01*
X191251089Y-116009720D01*
X191358839Y-115901971D01*
X191385776Y-115821158D01*
X191385776Y-115767284D01*
X191358839Y-115686471D01*
X191224152Y-115551784D01*
X191143340Y-115524847D01*
X191089465Y-115524847D01*
X191008653Y-115551784D01*
X190900903Y-115659534D01*
X190873966Y-115740346D01*
X190873966Y-115794221D01*
X190900903Y-115875033D01*
X189257722Y-96605592D02*
X189176910Y-96632529D01*
X189096097Y-96713341D01*
X189042223Y-96821091D01*
X189042223Y-96928841D01*
X189069160Y-97009653D01*
X189149972Y-97144340D01*
X189230784Y-97225152D01*
X189365471Y-97305964D01*
X189446284Y-97332902D01*
X189554033Y-97332902D01*
X189661783Y-97279027D01*
X189715658Y-97225152D01*
X189769532Y-97117402D01*
X189769532Y-97063528D01*
X189580971Y-96874966D01*
X189473221Y-96982715D01*
X190065844Y-96874966D02*
X189500158Y-96309280D01*
X189715658Y-96093781D01*
X189796470Y-96066844D01*
X189850345Y-96066844D01*
X189931157Y-96093781D01*
X190011969Y-96174593D01*
X190038906Y-96255406D01*
X190038906Y-96309280D01*
X190011969Y-96390093D01*
X189796470Y-96605592D01*
X190092781Y-95824407D02*
X190092781Y-95770532D01*
X190119719Y-95689720D01*
X190254406Y-95555033D01*
X190335218Y-95528096D01*
X190389093Y-95528096D01*
X190469905Y-95555033D01*
X190523780Y-95608908D01*
X190577654Y-95716658D01*
X190577654Y-96363155D01*
X190927841Y-96012969D01*
X190631529Y-95285659D02*
X190631529Y-95231784D01*
X190658467Y-95150972D01*
X190793154Y-95016285D01*
X190873966Y-94989348D01*
X190927841Y-94989348D01*
X191008653Y-95016285D01*
X191062528Y-95070160D01*
X191116402Y-95177910D01*
X191116402Y-95824407D01*
X191466589Y-95474221D01*
X163646158Y-111603155D02*
X163565346Y-111630093D01*
X163484534Y-111710905D01*
X163430659Y-111818654D01*
X163430659Y-111926404D01*
X163457597Y-112007216D01*
X163538409Y-112141903D01*
X163619221Y-112222715D01*
X163753908Y-112303528D01*
X163834720Y-112330465D01*
X163942470Y-112330465D01*
X164050219Y-112276590D01*
X164104094Y-112222715D01*
X164157969Y-112114966D01*
X164157969Y-112061091D01*
X163969407Y-111872529D01*
X163861658Y-111980279D01*
X164454280Y-111872529D02*
X163888595Y-111306844D01*
X164777529Y-111549280D01*
X164211844Y-110983595D01*
X165046903Y-111279906D02*
X164481218Y-110714221D01*
X164615905Y-110579534D01*
X164723654Y-110525659D01*
X164831404Y-110525659D01*
X164912216Y-110552597D01*
X165046903Y-110633409D01*
X165127715Y-110714221D01*
X165208528Y-110848908D01*
X165235465Y-110929720D01*
X165235465Y-111037470D01*
X165181590Y-111145219D01*
X165046903Y-111279906D01*
X163573096Y-76016218D02*
X163492284Y-76043155D01*
X163411471Y-76123967D01*
X163357597Y-76231717D01*
X163357597Y-76339467D01*
X163384534Y-76420279D01*
X163465346Y-76554966D01*
X163546158Y-76635778D01*
X163680845Y-76716590D01*
X163761658Y-76743528D01*
X163869407Y-76743528D01*
X163977157Y-76689653D01*
X164031032Y-76635778D01*
X164084906Y-76528028D01*
X164084906Y-76474154D01*
X163896345Y-76285592D01*
X163788595Y-76393341D01*
X164381218Y-76285592D02*
X163815532Y-75719906D01*
X164031032Y-75504407D01*
X164111844Y-75477470D01*
X164165719Y-75477470D01*
X164246531Y-75504407D01*
X164327343Y-75585219D01*
X164354280Y-75666032D01*
X164354280Y-75719906D01*
X164327343Y-75800719D01*
X164111844Y-76016218D01*
X164408155Y-75235033D02*
X164408155Y-75181158D01*
X164435093Y-75100346D01*
X164569780Y-74965659D01*
X164650592Y-74938722D01*
X164704467Y-74938722D01*
X164785279Y-74965659D01*
X164839154Y-75019534D01*
X164893028Y-75127284D01*
X164893028Y-75773781D01*
X165243215Y-75423595D01*
%TO.C,U5*%
X194310095Y-81450380D02*
X194310095Y-82259904D01*
X194357714Y-82355142D01*
X194405333Y-82402761D01*
X194500571Y-82450380D01*
X194691047Y-82450380D01*
X194786285Y-82402761D01*
X194833904Y-82355142D01*
X194881523Y-82259904D01*
X194881523Y-81450380D01*
X195833904Y-81450380D02*
X195357714Y-81450380D01*
X195310095Y-81926571D01*
X195357714Y-81878952D01*
X195452952Y-81831333D01*
X195691047Y-81831333D01*
X195786285Y-81878952D01*
X195833904Y-81926571D01*
X195881523Y-82021809D01*
X195881523Y-82259904D01*
X195833904Y-82355142D01*
X195786285Y-82402761D01*
X195691047Y-82450380D01*
X195452952Y-82450380D01*
X195357714Y-82402761D01*
X195310095Y-82355142D01*
%TO.C,J1*%
X159178666Y-114470380D02*
X159178666Y-115184666D01*
X159131047Y-115327523D01*
X159035809Y-115422761D01*
X158892952Y-115470380D01*
X158797714Y-115470380D01*
X160178666Y-115470380D02*
X159607238Y-115470380D01*
X159892952Y-115470380D02*
X159892952Y-114470380D01*
X159797714Y-114613238D01*
X159702476Y-114708476D01*
X159607238Y-114756095D01*
%TO.C,C6*%
X132593142Y-109132666D02*
X132640761Y-109180285D01*
X132688380Y-109323142D01*
X132688380Y-109418380D01*
X132640761Y-109561238D01*
X132545523Y-109656476D01*
X132450285Y-109704095D01*
X132259809Y-109751714D01*
X132116952Y-109751714D01*
X131926476Y-109704095D01*
X131831238Y-109656476D01*
X131736000Y-109561238D01*
X131688380Y-109418380D01*
X131688380Y-109323142D01*
X131736000Y-109180285D01*
X131783619Y-109132666D01*
X131688380Y-108275523D02*
X131688380Y-108466000D01*
X131736000Y-108561238D01*
X131783619Y-108608857D01*
X131926476Y-108704095D01*
X132116952Y-108751714D01*
X132497904Y-108751714D01*
X132593142Y-108704095D01*
X132640761Y-108656476D01*
X132688380Y-108561238D01*
X132688380Y-108370761D01*
X132640761Y-108275523D01*
X132593142Y-108227904D01*
X132497904Y-108180285D01*
X132259809Y-108180285D01*
X132164571Y-108227904D01*
X132116952Y-108275523D01*
X132069333Y-108370761D01*
X132069333Y-108561238D01*
X132116952Y-108656476D01*
X132164571Y-108704095D01*
X132259809Y-108751714D01*
%TO.C,C12*%
X131183142Y-116507142D02*
X131135523Y-116554761D01*
X130992666Y-116602380D01*
X130897428Y-116602380D01*
X130754571Y-116554761D01*
X130659333Y-116459523D01*
X130611714Y-116364285D01*
X130564095Y-116173809D01*
X130564095Y-116030952D01*
X130611714Y-115840476D01*
X130659333Y-115745238D01*
X130754571Y-115650000D01*
X130897428Y-115602380D01*
X130992666Y-115602380D01*
X131135523Y-115650000D01*
X131183142Y-115697619D01*
X132135523Y-116602380D02*
X131564095Y-116602380D01*
X131849809Y-116602380D02*
X131849809Y-115602380D01*
X131754571Y-115745238D01*
X131659333Y-115840476D01*
X131564095Y-115888095D01*
X132516476Y-115697619D02*
X132564095Y-115650000D01*
X132659333Y-115602380D01*
X132897428Y-115602380D01*
X132992666Y-115650000D01*
X133040285Y-115697619D01*
X133087904Y-115792857D01*
X133087904Y-115888095D01*
X133040285Y-116030952D01*
X132468857Y-116602380D01*
X133087904Y-116602380D01*
D12*
%TO.C,C3*%
X137641000Y-113348748D02*
X137641000Y-113871252D01*
X136171000Y-113348748D02*
X136171000Y-113871252D01*
D13*
%TO.C,J2*%
X156355000Y-74915000D02*
X153785000Y-74895000D01*
X153785000Y-74895000D02*
X153740000Y-98160000D01*
X156355000Y-98160000D02*
X156355000Y-74915000D01*
X153740000Y-98160000D02*
X156280000Y-98160000D01*
D12*
%TO.C,C9*%
X137895000Y-108211252D02*
X137895000Y-107688748D01*
X136425000Y-108211252D02*
X136425000Y-107688748D01*
D14*
%TO.C,U2*%
X152727500Y-108071750D02*
X152727500Y-108571750D01*
X149227500Y-108571750D02*
X152227500Y-108571750D01*
X149227500Y-111571750D02*
X149227500Y-108571750D01*
X152227500Y-111571750D02*
X149227500Y-111571750D01*
X152727500Y-108071750D02*
X152227500Y-108071750D01*
X152227500Y-108571750D02*
X152227500Y-111571750D01*
D12*
%TO.C,C17*%
X140193752Y-69315000D02*
X139671248Y-69315000D01*
X140193752Y-67845000D02*
X139671248Y-67845000D01*
%TO.C,R1*%
X144342379Y-88212500D02*
X144677621Y-88212500D01*
X144342379Y-88972500D02*
X144677621Y-88972500D01*
%TO.C,C7*%
X153443000Y-107821252D02*
X153443000Y-107298748D01*
X154913000Y-107821252D02*
X154913000Y-107298748D01*
%TO.C,C15*%
X134078752Y-105055000D02*
X133556248Y-105055000D01*
X134078752Y-106525000D02*
X133556248Y-106525000D01*
D13*
%TO.C,J3*%
X114275000Y-98160000D02*
X114275000Y-74915000D01*
X114275000Y-74915000D02*
X111705000Y-74895000D01*
X111705000Y-74895000D02*
X111660000Y-98160000D01*
X111660000Y-98160000D02*
X114200000Y-98160000D01*
%TO.C,1*%
X159060000Y-62085000D02*
X159060000Y-62085000D01*
X159060000Y-62085000D02*
X159160000Y-62085000D01*
X159160000Y-62085000D02*
X159160000Y-62085000D01*
X159060000Y-62085000D02*
G75*
G03*
X159160000Y-62085000I50000J0D01*
G01*
X159160000Y-62085000D02*
G75*
G03*
X159060000Y-62085000I-50000J0D01*
G01*
D12*
%TO.C,C1*%
X154405000Y-113078748D02*
X154405000Y-113601252D01*
X152935000Y-113078748D02*
X152935000Y-113601252D01*
%TO.C,C5*%
X147547000Y-109212748D02*
X147547000Y-109735252D01*
X146077000Y-109212748D02*
X146077000Y-109735252D01*
%TO.C,C16*%
X147130000Y-89066665D02*
X147130000Y-89298335D01*
X147850000Y-89066665D02*
X147850000Y-89298335D01*
%TO.C,C11*%
X148793252Y-113136000D02*
X147370748Y-113136000D01*
X148793252Y-114956000D02*
X147370748Y-114956000D01*
%TO.C,C14*%
X150629252Y-104345000D02*
X150106748Y-104345000D01*
X150629252Y-105815000D02*
X150106748Y-105815000D01*
%TO.C,C13*%
X116326252Y-106167500D02*
X115803748Y-106167500D01*
X116326252Y-104697500D02*
X115803748Y-104697500D01*
%TO.C,C2*%
X119153000Y-113521248D02*
X119153000Y-114043752D01*
X120623000Y-113521248D02*
X120623000Y-114043752D01*
%TO.C,R2*%
X144777621Y-91562500D02*
X144442379Y-91562500D01*
X144777621Y-90802500D02*
X144442379Y-90802500D01*
%TO.C,C10*%
X115519252Y-113390000D02*
X114096748Y-113390000D01*
X115519252Y-115210000D02*
X114096748Y-115210000D01*
%TO.C,C18*%
X165925000Y-63028748D02*
X165925000Y-63551252D01*
X164455000Y-63028748D02*
X164455000Y-63551252D01*
D14*
%TO.C,U3*%
X135417500Y-111931750D02*
X132417500Y-111931750D01*
X132417500Y-111931750D02*
X132417500Y-108931750D01*
X135417500Y-108931750D02*
X135417500Y-111931750D01*
X135917500Y-108431750D02*
X135917500Y-108931750D01*
X135917500Y-108431750D02*
X135417500Y-108431750D01*
X132417500Y-108931750D02*
X135417500Y-108931750D01*
D12*
%TO.C,C4*%
X114019000Y-109466748D02*
X114019000Y-109989252D01*
X112549000Y-109466748D02*
X112549000Y-109989252D01*
%TO.C,C8*%
X119153000Y-108263752D02*
X119153000Y-107741248D01*
X120623000Y-108263752D02*
X120623000Y-107741248D01*
D14*
%TO.C,U1*%
X115377500Y-108984250D02*
X118377500Y-108984250D01*
X118377500Y-111984250D02*
X115377500Y-111984250D01*
X118877500Y-108484250D02*
X118377500Y-108484250D01*
X118377500Y-108984250D02*
X118377500Y-111984250D01*
X115377500Y-111984250D02*
X115377500Y-108984250D01*
X118877500Y-108484250D02*
X118877500Y-108984250D01*
D12*
%TO.C,U4*%
X187660000Y-112505000D02*
X187660000Y-112905000D01*
X166660000Y-110005000D02*
X166660000Y-110405000D01*
X166660000Y-79505000D02*
X166660000Y-79905000D01*
X166660000Y-69305000D02*
X166660000Y-69705000D01*
X166660000Y-115105000D02*
X166660000Y-115505000D01*
X187660000Y-104905000D02*
X187660000Y-105305000D01*
X166660000Y-99805000D02*
X166660000Y-100205000D01*
X166660000Y-84605000D02*
X166660000Y-85005000D01*
X166660000Y-77005000D02*
X166660000Y-77405000D01*
X187660000Y-102405000D02*
X187660000Y-102805000D01*
X166660000Y-89705000D02*
X166660000Y-90105000D01*
X166660000Y-74405000D02*
X166660000Y-74805000D01*
X187660000Y-99805000D02*
X187660000Y-100205000D01*
X187660000Y-77005000D02*
X187660000Y-77405000D01*
X187660000Y-87105000D02*
X187660000Y-87505000D01*
X187660000Y-71905000D02*
X187660000Y-72305000D01*
X166660000Y-82005000D02*
X166660000Y-82405000D01*
X166660000Y-112505000D02*
X166660000Y-112905000D01*
X187660000Y-89705000D02*
X187660000Y-90105000D01*
X187660000Y-110005000D02*
X187660000Y-110405000D01*
X166660000Y-97305000D02*
X166660000Y-97705000D01*
X187660000Y-107505000D02*
X187660000Y-107905000D01*
X187660000Y-84605000D02*
X187660000Y-85005000D01*
X175660000Y-117905000D02*
X176060000Y-117905000D01*
X166660000Y-107505000D02*
X166660000Y-107905000D01*
X187660000Y-97305000D02*
X187660000Y-97705000D01*
X166660000Y-66905000D02*
X187660000Y-66905000D01*
X166660000Y-102405000D02*
X166660000Y-102805000D01*
X166660000Y-66905000D02*
X166660000Y-67205000D01*
X166660000Y-92205000D02*
X166660000Y-92605000D01*
X166660000Y-87105000D02*
X166660000Y-87505000D01*
X173460000Y-117905000D02*
X166660000Y-117905000D01*
X187660000Y-69305000D02*
X187660000Y-69705000D01*
X187660000Y-92205000D02*
X187660000Y-92605000D01*
X187660000Y-94705000D02*
X187660000Y-95105000D01*
X166660000Y-69572000D02*
X169667000Y-69572000D01*
X169667000Y-69572000D02*
X169667000Y-66905000D01*
X187660000Y-74405000D02*
X187660000Y-74805000D01*
X166660000Y-71905000D02*
X166660000Y-72305000D01*
X166660000Y-104905000D02*
X166660000Y-105305000D01*
X187660000Y-117905000D02*
X180860000Y-117905000D01*
X187660000Y-79505000D02*
X187660000Y-79905000D01*
X187660000Y-115105000D02*
X187660000Y-115505000D01*
X166660000Y-94705000D02*
X166660000Y-95105000D01*
X187660000Y-82005000D02*
X187660000Y-82405000D01*
X187660000Y-66905000D02*
X187660000Y-67205000D01*
X178260000Y-117905000D02*
X178660000Y-117905000D01*
%TO.C,U5*%
X196402000Y-85598000D02*
X196402000Y-88198000D01*
X193742000Y-85598000D02*
X196402000Y-85598000D01*
X193742000Y-85598000D02*
X193742000Y-88198000D01*
X193742000Y-88198000D02*
X196402000Y-88198000D01*
X193742000Y-84328000D02*
X193742000Y-82998000D01*
X193742000Y-82998000D02*
X195072000Y-82998000D01*
%TO.C,J1*%
X158182000Y-121218000D02*
X160842000Y-121218000D01*
X158182000Y-117348000D02*
X158182000Y-116018000D01*
X158182000Y-118618000D02*
X160842000Y-118618000D01*
X158182000Y-116018000D02*
X159512000Y-116018000D01*
X158182000Y-118618000D02*
X158182000Y-121218000D01*
X160842000Y-118618000D02*
X160842000Y-121218000D01*
%TO.C,C6*%
X129821000Y-108704748D02*
X129821000Y-109227252D01*
X131291000Y-108704748D02*
X131291000Y-109227252D01*
%TO.C,C12*%
X132537252Y-115210000D02*
X131114748Y-115210000D01*
X132537252Y-113390000D02*
X131114748Y-113390000D01*
%TD*%
M02*
