M48
; DRILL file {KiCad 8.0.0-rc1-6-gb7460f29b4} date 2025-05-06T11:40:33+0200
; FORMAT={-:-/ absolute / inch / decimal}
; #@! TF.CreationDate,2025-05-06T11:40:33+02:00
; #@! TF.GenerationSoftware,Kicad,Pcbnew,8.0.0-rc1-6-gb7460f29b4
; #@! TF.FileFunction,Plated,1,2,PTH
FMAT,2
INCH
; #@! TA.AperFunction,Plated,PTH,ViaDrill
T1C0.0236
; #@! TA.AperFunction,Plated,PTH,ViaDrill
T2C0.0315
; #@! TA.AperFunction,Plated,PTH,ComponentDrill
T3C0.0394
; #@! TA.AperFunction,Plated,PTH,ComponentDrill
T4C0.0630
%
G90
G05
T1
X5.306Y-4.392
X5.307Y-4.329
X5.309Y-4.268
X5.31Y-4.129
X5.31Y-4.204
X5.345Y-4.058
X5.3882Y-3.6098
X5.3902Y-3.6909
X5.414Y-4.268
X5.414Y-4.328
X5.417Y-4.019
X5.417Y-4.208
X5.42Y-4.393
X5.435Y-4.133
X5.4776Y-3.8476
X5.494Y-4.019
X5.52Y-4.21
X5.522Y-4.293
X5.528Y-4.591
X5.5646Y-4.2522
X5.566Y-4.091
X5.577Y-4.634
X5.605Y-4.212
X5.605Y-4.292
X5.613Y-4.407
X5.616Y-4.097
X5.689Y-4.386
X5.721Y-4.336
X5.722Y-4.211
X5.7272Y-3.6008
X5.778Y-4.228
X5.779Y-4.354
X5.83Y-4.381
X5.8377Y-4.0335
X5.8516Y-4.2185
X5.897Y-4.383
X5.9193Y-4.2193
X5.955Y-4.383
X6.021Y-4.382
X6.0528Y-3.6968
X6.058Y-3.794
X6.089Y-4.382
X6.102Y-3.7472
X6.11Y-4.276
X6.1106Y-4.228
X6.1512Y-3.7965
X6.1516Y-3.6996
X6.164Y-4.38
X6.225Y-4.351
X6.249Y-4.297
X6.25Y-4.24
X6.285Y-4.416
X6.296Y-4.361
X6.307Y-4.205
X6.336Y-4.314
X6.372Y-4.178
X6.383Y-4.279
X6.385Y-4.218
X6.419Y-4.073
X6.4205Y-4.4087
X6.479Y-4.072
X6.493Y-4.328
X6.495Y-4.248
X6.5373Y-4.2883
X6.543Y-4.448
X6.576Y-4.246
X6.578Y-4.328
X6.586Y-4.113
X6.6137Y-4.4575
X6.658Y-4.411
X6.68Y-4.151
X6.693Y-4.211
X6.693Y-4.264
X6.739Y-4.319
X6.778Y-4.356
X6.797Y-4.406
T2
X5.328Y-3.8571
X5.3327Y-3.7579
X5.5835Y-4.0001
X5.6571Y-3.6996
X5.7226Y-3.8781
X5.822Y-3.8606
X5.828Y-3.2177
X5.855Y-4.141
X5.8654Y-3.3555
X6.1Y-3.9776
X6.202Y-3.4587
X6.3307Y-3.4126
X6.3724Y-4.015
X6.4508Y-3.9457
X6.5638Y-3.8258
T3
X5.2285Y-3.3576
X5.2285Y-3.4578
X5.2285Y-3.5578
X5.2285Y-3.6578
X5.2295Y-3.7578
X5.2295Y-3.8578
X5.2295Y-3.9578
X5.2295Y-4.0578
X5.2295Y-4.1578
X6.8852Y-3.3576
X6.8852Y-3.4578
X6.8852Y-3.5578
X6.8852Y-3.6578
X6.8862Y-3.7578
X6.8862Y-3.8578
X6.8862Y-3.9578
X6.8862Y-4.0578
X6.8862Y-4.1578
T4
X5.2624Y-4.508
X5.2624Y-4.708
X5.3624Y-4.608
X5.4624Y-4.508
X5.4624Y-4.708
X5.6561Y-4.508
X5.6561Y-4.708
X5.7561Y-4.608
X5.8561Y-4.508
X5.8561Y-4.708
X6.2467Y-4.508
X6.2467Y-4.708
X6.3467Y-4.608
X6.4467Y-4.508
X6.4467Y-4.708
X6.6404Y-4.508
X6.6404Y-4.708
X6.7404Y-4.608
X6.8404Y-4.508
X6.8404Y-4.708
M30
