%TF.GenerationSoftware,KiCad,Pcbnew,8.0.0-rc1-6-gb7460f29b4*%
%TF.CreationDate,2025-05-06T11:40:33+02:00*%
%TF.ProjectId,LO_daughter,4c4f5f64-6175-4676-9874-65722e6b6963,rev?*%
%TF.SameCoordinates,Original*%
%TF.FileFunction,Soldermask,Top*%
%TF.FilePolarity,Negative*%
%FSLAX46Y46*%
G04 Gerber Fmt 4.6, Leading zero omitted, Abs format (unit mm)*
G04 Created by KiCad (PCBNEW 8.0.0-rc1-6-gb7460f29b4) date 2025-05-06 11:40:33*
%MOMM*%
%LPD*%
G01*
G04 APERTURE LIST*
G04 Aperture macros list*
%AMRoundRect*
0 Rectangle with rounded corners*
0 $1 Rounding radius*
0 $2 $3 $4 $5 $6 $7 $8 $9 X,Y pos of 4 corners*
0 Add a 4 corners polygon primitive as box body*
4,1,4,$2,$3,$4,$5,$6,$7,$8,$9,$2,$3,0*
0 Add four circle primitives for the rounded corners*
1,1,$1+$1,$2,$3*
1,1,$1+$1,$4,$5*
1,1,$1+$1,$6,$7*
1,1,$1+$1,$8,$9*
0 Add four rect primitives between the rounded corners*
20,1,$1+$1,$2,$3,$4,$5,0*
20,1,$1+$1,$4,$5,$6,$7,0*
20,1,$1+$1,$6,$7,$8,$9,0*
20,1,$1+$1,$8,$9,$2,$3,0*%
G04 Aperture macros list end*
%ADD10RoundRect,0.237500X-0.237500X0.250000X-0.237500X-0.250000X0.237500X-0.250000X0.237500X0.250000X0*%
%ADD11R,1.065000X0.360000*%
%ADD12R,0.710000X0.360000*%
%ADD13R,0.410000X1.780000*%
%ADD14RoundRect,0.237500X-0.237500X0.300000X-0.237500X-0.300000X0.237500X-0.300000X0.237500X0.300000X0*%
%ADD15R,3.180000X1.040000*%
%ADD16RoundRect,0.250000X0.337500X0.475000X-0.337500X0.475000X-0.337500X-0.475000X0.337500X-0.475000X0*%
%ADD17C,2.400000*%
%ADD18RoundRect,0.100000X0.100000X-0.217500X0.100000X0.217500X-0.100000X0.217500X-0.100000X-0.217500X0*%
%ADD19RoundRect,0.250000X-0.337500X-0.475000X0.337500X-0.475000X0.337500X0.475000X-0.337500X0.475000X0*%
%ADD20RoundRect,0.160000X0.222500X0.160000X-0.222500X0.160000X-0.222500X-0.160000X0.222500X-0.160000X0*%
%ADD21RoundRect,0.250000X-0.475000X0.337500X-0.475000X-0.337500X0.475000X-0.337500X0.475000X0.337500X0*%
%ADD22RoundRect,0.237500X-0.300000X-0.237500X0.300000X-0.237500X0.300000X0.237500X-0.300000X0.237500X0*%
%ADD23RoundRect,0.237500X-0.250000X-0.237500X0.250000X-0.237500X0.250000X0.237500X-0.250000X0.237500X0*%
%ADD24R,0.500000X0.400000*%
%ADD25RoundRect,0.250000X-0.412500X-0.650000X0.412500X-0.650000X0.412500X0.650000X-0.412500X0.650000X0*%
%ADD26RoundRect,0.160000X-0.222500X-0.160000X0.222500X-0.160000X0.222500X0.160000X-0.222500X0.160000X0*%
%ADD27RoundRect,0.160000X0.197500X0.160000X-0.197500X0.160000X-0.197500X-0.160000X0.197500X-0.160000X0*%
%ADD28RoundRect,0.016240X-0.215760X0.495760X-0.215760X-0.495760X0.215760X-0.495760X0.215760X0.495760X0*%
%ADD29RoundRect,0.016240X-0.495760X0.215760X-0.495760X-0.215760X0.495760X-0.215760X0.495760X0.215760X0*%
%ADD30RoundRect,0.102000X-1.805000X1.805000X-1.805000X-1.805000X1.805000X-1.805000X1.805000X1.805000X0*%
%ADD31RoundRect,0.237500X0.300000X0.237500X-0.300000X0.237500X-0.300000X-0.237500X0.300000X-0.237500X0*%
%ADD32R,2.100000X2.100000*%
%ADD33C,2.100000*%
%ADD34RoundRect,0.155000X-0.212500X-0.155000X0.212500X-0.155000X0.212500X0.155000X-0.212500X0.155000X0*%
%ADD35RoundRect,0.155000X0.212500X0.155000X-0.212500X0.155000X-0.212500X-0.155000X0.212500X-0.155000X0*%
%ADD36R,0.800000X0.300000*%
%ADD37R,0.300000X0.800000*%
%ADD38R,3.750000X3.750000*%
%ADD39RoundRect,0.250000X0.475000X-0.337500X0.475000X0.337500X-0.475000X0.337500X-0.475000X-0.337500X0*%
%ADD40RoundRect,0.016240X0.495760X0.215760X-0.495760X0.215760X-0.495760X-0.215760X0.495760X-0.215760X0*%
%ADD41RoundRect,0.016240X0.215760X0.495760X-0.215760X0.495760X-0.215760X-0.495760X0.215760X-0.495760X0*%
%ADD42RoundRect,0.102000X1.805000X1.805000X-1.805000X1.805000X-1.805000X-1.805000X1.805000X-1.805000X0*%
%ADD43RoundRect,0.250000X0.350000X0.450000X-0.350000X0.450000X-0.350000X-0.450000X0.350000X-0.450000X0*%
%ADD44RoundRect,0.237500X0.237500X-0.300000X0.237500X0.300000X-0.237500X0.300000X-0.237500X-0.300000X0*%
G04 APERTURE END LIST*
D10*
%TO.C,R3*%
X172030000Y-95387500D03*
X172030000Y-97212500D03*
%TD*%
D11*
%TO.C,U3*%
X148903000Y-109900000D03*
D12*
X148725000Y-109190000D03*
D11*
X148903000Y-108480000D03*
D12*
X150555000Y-108480000D03*
D11*
X150377000Y-109190000D03*
D12*
X150555000Y-109900000D03*
D13*
X149640000Y-109190000D03*
%TD*%
D14*
%TO.C,C4*%
X140797500Y-90620000D03*
X140797500Y-92345000D03*
%TD*%
D15*
%TO.C,C26*%
X157420000Y-103410000D03*
X157420000Y-106090000D03*
%TD*%
D16*
%TO.C,C2*%
X142935000Y-98377500D03*
X140860000Y-98377500D03*
%TD*%
D17*
%TO.C,U6*%
X146205800Y-117043200D03*
X143665800Y-114503200D03*
X143665800Y-119583200D03*
X148745800Y-119583200D03*
X148745800Y-114503200D03*
%TD*%
D18*
%TO.C,C24*%
X163710000Y-96625000D03*
X163710000Y-95610000D03*
%TD*%
D19*
%TO.C,C13*%
X143492500Y-82560000D03*
X145567500Y-82560000D03*
%TD*%
D15*
%TO.C,C25*%
X152960000Y-103430000D03*
X152960000Y-106110000D03*
%TD*%
D19*
%TO.C,C11*%
X166952500Y-102740000D03*
X169027500Y-102740000D03*
%TD*%
D17*
%TO.C,J3*%
X171205800Y-117043200D03*
X168665800Y-114503200D03*
X168665800Y-119583200D03*
X173745800Y-119583200D03*
X173745800Y-114503200D03*
%TD*%
%TO.C,j4*%
X161205800Y-117043200D03*
X158665800Y-114503200D03*
X158665800Y-119583200D03*
X163745800Y-119583200D03*
X163745800Y-114503200D03*
%TD*%
D20*
%TO.C,L1*%
X152902500Y-101640000D03*
X151757500Y-101640000D03*
%TD*%
D21*
%TO.C,C3*%
X145948400Y-101074400D03*
X145948400Y-103149400D03*
%TD*%
D22*
%TO.C,C14*%
X143907500Y-84870000D03*
X145632500Y-84870000D03*
%TD*%
D23*
%TO.C,R1*%
X151057500Y-84630000D03*
X152882500Y-84630000D03*
%TD*%
D21*
%TO.C,C1*%
X138757500Y-90615000D03*
X138757500Y-92690000D03*
%TD*%
D14*
%TO.C,C6*%
X143638400Y-101106900D03*
X143638400Y-102831900D03*
%TD*%
D24*
%TO.C,FB1*%
X149660000Y-103190000D03*
X149660000Y-102390000D03*
%TD*%
D25*
%TO.C,C21*%
X168867500Y-92980000D03*
X171992500Y-92980000D03*
%TD*%
D26*
%TO.C,L2*%
X156827500Y-101670000D03*
X157972500Y-101670000D03*
%TD*%
D27*
%TO.C,R4*%
X167997500Y-94990000D03*
X166802500Y-94990000D03*
%TD*%
D28*
%TO.C,U2*%
X167831800Y-106476800D03*
X167321800Y-106476800D03*
X166811800Y-106476800D03*
X166301800Y-106476800D03*
X165791800Y-106476800D03*
X165281800Y-106476800D03*
X164771800Y-106476800D03*
X164261800Y-106476800D03*
D29*
X163601800Y-107136800D03*
X163601800Y-107646800D03*
X163601800Y-108156800D03*
X163601800Y-108666800D03*
X163601800Y-109176800D03*
X163601800Y-109686800D03*
X163601800Y-110196800D03*
X163601800Y-110706800D03*
D28*
X164261800Y-111366800D03*
X164771800Y-111366800D03*
X165281800Y-111366800D03*
X165791800Y-111366800D03*
X166301800Y-111366800D03*
X166811800Y-111366800D03*
X167321800Y-111366800D03*
X167831800Y-111366800D03*
D29*
X168491800Y-110706800D03*
X168491800Y-110196800D03*
X168491800Y-109686800D03*
X168491800Y-109176800D03*
X168491800Y-108666800D03*
X168491800Y-108156800D03*
X168491800Y-107646800D03*
X168491800Y-107136800D03*
D30*
X166046800Y-108921800D03*
%TD*%
D31*
%TO.C,C5*%
X143030000Y-96417500D03*
X141305000Y-96417500D03*
%TD*%
D14*
%TO.C,C19*%
X166810000Y-89017500D03*
X166810000Y-90742500D03*
%TD*%
D21*
%TO.C,C16*%
X161240000Y-82272500D03*
X161240000Y-84347500D03*
%TD*%
D14*
%TO.C,C20*%
X160320000Y-103057500D03*
X160320000Y-104782500D03*
%TD*%
D32*
%TO.C,J2*%
X174910000Y-105607500D03*
D33*
X174910000Y-103067500D03*
X174910000Y-100527500D03*
X174910000Y-97987500D03*
X174910000Y-95447500D03*
X174885000Y-92907500D03*
X174885000Y-90367500D03*
X174885000Y-87827500D03*
X174885000Y-85282500D03*
%TD*%
D22*
%TO.C,C12*%
X166907500Y-100410000D03*
X168632500Y-100410000D03*
%TD*%
D34*
%TO.C,C7*%
X150302500Y-82710000D03*
X151437500Y-82710000D03*
%TD*%
D35*
%TO.C,C8*%
X156997500Y-84420000D03*
X155862500Y-84420000D03*
%TD*%
D36*
%TO.C,U1*%
X152490000Y-93430000D03*
X152490000Y-93930000D03*
X152490000Y-94430000D03*
X152490000Y-94930000D03*
X152490000Y-95430000D03*
X152490000Y-95930000D03*
X152490000Y-96430000D03*
X152490000Y-96930000D03*
D37*
X153240000Y-97680000D03*
X153740000Y-97680000D03*
X154240000Y-97680000D03*
X154740000Y-97680000D03*
X155240000Y-97680000D03*
X155740000Y-97680000D03*
X156240000Y-97680000D03*
X156740000Y-97680000D03*
D36*
X157490000Y-96930000D03*
X157490000Y-96430000D03*
X157490000Y-95930000D03*
X157490000Y-95430000D03*
X157490000Y-94930000D03*
X157490000Y-94430000D03*
X157490000Y-93930000D03*
X157490000Y-93430000D03*
D37*
X156740000Y-92680000D03*
X156240000Y-92680000D03*
X155740000Y-92680000D03*
X155240000Y-92680000D03*
X154740000Y-92680000D03*
X154240000Y-92680000D03*
X153740000Y-92680000D03*
X153240000Y-92680000D03*
D38*
X154990000Y-95180000D03*
%TD*%
D34*
%TO.C,C10*%
X154802500Y-85850000D03*
X155937500Y-85850000D03*
%TD*%
D39*
%TO.C,C22*%
X168760000Y-85877500D03*
X168760000Y-83802500D03*
%TD*%
D14*
%TO.C,C18*%
X163570000Y-82557500D03*
X163570000Y-84282500D03*
%TD*%
D21*
%TO.C,C17*%
X169800000Y-95502500D03*
X169800000Y-97577500D03*
%TD*%
D40*
%TO.C,U4*%
X143786300Y-109789700D03*
X143786300Y-109279700D03*
X143786300Y-108769700D03*
X143786300Y-108259700D03*
X143786300Y-107749700D03*
X143786300Y-107239700D03*
X143786300Y-106729700D03*
X143786300Y-106219700D03*
D41*
X143126300Y-105559700D03*
X142616300Y-105559700D03*
X142106300Y-105559700D03*
X141596300Y-105559700D03*
X141086300Y-105559700D03*
X140576300Y-105559700D03*
X140066300Y-105559700D03*
X139556300Y-105559700D03*
D40*
X138896300Y-106219700D03*
X138896300Y-106729700D03*
X138896300Y-107239700D03*
X138896300Y-107749700D03*
X138896300Y-108259700D03*
X138896300Y-108769700D03*
X138896300Y-109279700D03*
X138896300Y-109789700D03*
D41*
X139556300Y-110449700D03*
X140066300Y-110449700D03*
X140576300Y-110449700D03*
X141086300Y-110449700D03*
X141596300Y-110449700D03*
X142106300Y-110449700D03*
X142616300Y-110449700D03*
X143126300Y-110449700D03*
D42*
X141341300Y-108004700D03*
%TD*%
D17*
%TO.C,U5*%
X136205800Y-117043200D03*
X133665800Y-114503200D03*
X133665800Y-119583200D03*
X138745800Y-119583200D03*
X138745800Y-114503200D03*
%TD*%
D21*
%TO.C,C15*%
X168950000Y-88062500D03*
X168950000Y-90137500D03*
%TD*%
D43*
%TO.C,R2*%
X166000000Y-92890000D03*
X164000000Y-92890000D03*
%TD*%
D32*
%TO.C,J1*%
X132830000Y-105607500D03*
D33*
X132830000Y-103067500D03*
X132830000Y-100527500D03*
X132830000Y-97987500D03*
X132830000Y-95447500D03*
X132805000Y-92907500D03*
X132805000Y-90367500D03*
X132805000Y-87827500D03*
X132805000Y-85282500D03*
%TD*%
D44*
%TO.C,C23*%
X166332500Y-85912500D03*
X166332500Y-84187500D03*
%TD*%
D34*
%TO.C,C9*%
X151612500Y-86280000D03*
X152747500Y-86280000D03*
%TD*%
M02*
