%TF.GenerationSoftware,KiCad,Pcbnew,8.0.0-rc1-6-gb7460f29b4*%
%TF.CreationDate,2025-05-06T11:40:32+02:00*%
%TF.ProjectId,LO_daughter,4c4f5f64-6175-4676-9874-65722e6b6963,rev?*%
%TF.SameCoordinates,Original*%
%TF.FileFunction,Legend,Top*%
%TF.FilePolarity,Positive*%
%FSLAX46Y46*%
G04 Gerber Fmt 4.6, Leading zero omitted, Abs format (unit mm)*
G04 Created by KiCad (PCBNEW 8.0.0-rc1-6-gb7460f29b4) date 2025-05-06 11:40:32*
%MOMM*%
%LPD*%
G01*
G04 APERTURE LIST*
G04 Aperture macros list*
%AMRoundRect*
0 Rectangle with rounded corners*
0 $1 Rounding radius*
0 $2 $3 $4 $5 $6 $7 $8 $9 X,Y pos of 4 corners*
0 Add a 4 corners polygon primitive as box body*
4,1,4,$2,$3,$4,$5,$6,$7,$8,$9,$2,$3,0*
0 Add four circle primitives for the rounded corners*
1,1,$1+$1,$2,$3*
1,1,$1+$1,$4,$5*
1,1,$1+$1,$6,$7*
1,1,$1+$1,$8,$9*
0 Add four rect primitives between the rounded corners*
20,1,$1+$1,$2,$3,$4,$5,0*
20,1,$1+$1,$4,$5,$6,$7,0*
20,1,$1+$1,$6,$7,$8,$9,0*
20,1,$1+$1,$8,$9,$2,$3,0*%
G04 Aperture macros list end*
%ADD10C,0.175000*%
%ADD11C,0.150000*%
%ADD12C,0.254000*%
%ADD13C,0.120000*%
%ADD14C,0.100000*%
%ADD15C,0.200000*%
%ADD16C,0.050000*%
%ADD17C,0.127000*%
%ADD18C,0.400000*%
%ADD19C,0.250000*%
%ADD20RoundRect,0.237500X-0.237500X0.250000X-0.237500X-0.250000X0.237500X-0.250000X0.237500X0.250000X0*%
%ADD21R,1.065000X0.360000*%
%ADD22R,0.710000X0.360000*%
%ADD23R,0.410000X1.780000*%
%ADD24RoundRect,0.237500X-0.237500X0.300000X-0.237500X-0.300000X0.237500X-0.300000X0.237500X0.300000X0*%
%ADD25R,3.180000X1.040000*%
%ADD26RoundRect,0.250000X0.337500X0.475000X-0.337500X0.475000X-0.337500X-0.475000X0.337500X-0.475000X0*%
%ADD27C,2.400000*%
%ADD28RoundRect,0.100000X0.100000X-0.217500X0.100000X0.217500X-0.100000X0.217500X-0.100000X-0.217500X0*%
%ADD29RoundRect,0.250000X-0.337500X-0.475000X0.337500X-0.475000X0.337500X0.475000X-0.337500X0.475000X0*%
%ADD30RoundRect,0.160000X0.222500X0.160000X-0.222500X0.160000X-0.222500X-0.160000X0.222500X-0.160000X0*%
%ADD31RoundRect,0.250000X-0.475000X0.337500X-0.475000X-0.337500X0.475000X-0.337500X0.475000X0.337500X0*%
%ADD32RoundRect,0.237500X-0.300000X-0.237500X0.300000X-0.237500X0.300000X0.237500X-0.300000X0.237500X0*%
%ADD33RoundRect,0.237500X-0.250000X-0.237500X0.250000X-0.237500X0.250000X0.237500X-0.250000X0.237500X0*%
%ADD34R,0.500000X0.400000*%
%ADD35RoundRect,0.250000X-0.412500X-0.650000X0.412500X-0.650000X0.412500X0.650000X-0.412500X0.650000X0*%
%ADD36RoundRect,0.160000X-0.222500X-0.160000X0.222500X-0.160000X0.222500X0.160000X-0.222500X0.160000X0*%
%ADD37RoundRect,0.160000X0.197500X0.160000X-0.197500X0.160000X-0.197500X-0.160000X0.197500X-0.160000X0*%
%ADD38RoundRect,0.016240X-0.215760X0.495760X-0.215760X-0.495760X0.215760X-0.495760X0.215760X0.495760X0*%
%ADD39RoundRect,0.016240X-0.495760X0.215760X-0.495760X-0.215760X0.495760X-0.215760X0.495760X0.215760X0*%
%ADD40RoundRect,0.102000X-1.805000X1.805000X-1.805000X-1.805000X1.805000X-1.805000X1.805000X1.805000X0*%
%ADD41RoundRect,0.237500X0.300000X0.237500X-0.300000X0.237500X-0.300000X-0.237500X0.300000X-0.237500X0*%
%ADD42R,2.100000X2.100000*%
%ADD43C,2.100000*%
%ADD44RoundRect,0.155000X-0.212500X-0.155000X0.212500X-0.155000X0.212500X0.155000X-0.212500X0.155000X0*%
%ADD45RoundRect,0.155000X0.212500X0.155000X-0.212500X0.155000X-0.212500X-0.155000X0.212500X-0.155000X0*%
%ADD46R,0.800000X0.300000*%
%ADD47R,0.300000X0.800000*%
%ADD48R,3.750000X3.750000*%
%ADD49RoundRect,0.250000X0.475000X-0.337500X0.475000X0.337500X-0.475000X0.337500X-0.475000X-0.337500X0*%
%ADD50RoundRect,0.016240X0.495760X0.215760X-0.495760X0.215760X-0.495760X-0.215760X0.495760X-0.215760X0*%
%ADD51RoundRect,0.016240X0.215760X0.495760X-0.215760X0.495760X-0.215760X-0.495760X0.215760X-0.495760X0*%
%ADD52RoundRect,0.102000X1.805000X1.805000X-1.805000X1.805000X-1.805000X-1.805000X1.805000X-1.805000X0*%
%ADD53RoundRect,0.250000X0.350000X0.450000X-0.350000X0.450000X-0.350000X-0.450000X0.350000X-0.450000X0*%
%ADD54RoundRect,0.237500X0.237500X-0.300000X0.237500X0.300000X-0.237500X0.300000X-0.237500X-0.300000X0*%
G04 APERTURE END LIST*
D10*
X176192216Y-116094197D02*
X176525550Y-115860864D01*
X176192216Y-115694197D02*
X176892216Y-115694197D01*
X176892216Y-115694197D02*
X176892216Y-115960864D01*
X176892216Y-115960864D02*
X176858883Y-116027531D01*
X176858883Y-116027531D02*
X176825550Y-116060864D01*
X176825550Y-116060864D02*
X176758883Y-116094197D01*
X176758883Y-116094197D02*
X176658883Y-116094197D01*
X176658883Y-116094197D02*
X176592216Y-116060864D01*
X176592216Y-116060864D02*
X176558883Y-116027531D01*
X176558883Y-116027531D02*
X176525550Y-115960864D01*
X176525550Y-115960864D02*
X176525550Y-115694197D01*
X176558883Y-116627531D02*
X176558883Y-116394197D01*
X176192216Y-116394197D02*
X176892216Y-116394197D01*
X176892216Y-116394197D02*
X176892216Y-116727531D01*
X176558883Y-117760864D02*
X176525550Y-117860864D01*
X176525550Y-117860864D02*
X176492216Y-117894197D01*
X176492216Y-117894197D02*
X176425550Y-117927530D01*
X176425550Y-117927530D02*
X176325550Y-117927530D01*
X176325550Y-117927530D02*
X176258883Y-117894197D01*
X176258883Y-117894197D02*
X176225550Y-117860864D01*
X176225550Y-117860864D02*
X176192216Y-117794197D01*
X176192216Y-117794197D02*
X176192216Y-117527530D01*
X176192216Y-117527530D02*
X176892216Y-117527530D01*
X176892216Y-117527530D02*
X176892216Y-117760864D01*
X176892216Y-117760864D02*
X176858883Y-117827530D01*
X176858883Y-117827530D02*
X176825550Y-117860864D01*
X176825550Y-117860864D02*
X176758883Y-117894197D01*
X176758883Y-117894197D02*
X176692216Y-117894197D01*
X176692216Y-117894197D02*
X176625550Y-117860864D01*
X176625550Y-117860864D02*
X176592216Y-117827530D01*
X176592216Y-117827530D02*
X176558883Y-117760864D01*
X176558883Y-117760864D02*
X176558883Y-117527530D01*
X176825550Y-118194197D02*
X176858883Y-118227530D01*
X176858883Y-118227530D02*
X176892216Y-118294197D01*
X176892216Y-118294197D02*
X176892216Y-118460864D01*
X176892216Y-118460864D02*
X176858883Y-118527530D01*
X176858883Y-118527530D02*
X176825550Y-118560864D01*
X176825550Y-118560864D02*
X176758883Y-118594197D01*
X176758883Y-118594197D02*
X176692216Y-118594197D01*
X176692216Y-118594197D02*
X176592216Y-118560864D01*
X176592216Y-118560864D02*
X176192216Y-118160864D01*
X176192216Y-118160864D02*
X176192216Y-118594197D01*
X151579616Y-116221197D02*
X151912950Y-115987864D01*
X151579616Y-115821197D02*
X152279616Y-115821197D01*
X152279616Y-115821197D02*
X152279616Y-116087864D01*
X152279616Y-116087864D02*
X152246283Y-116154531D01*
X152246283Y-116154531D02*
X152212950Y-116187864D01*
X152212950Y-116187864D02*
X152146283Y-116221197D01*
X152146283Y-116221197D02*
X152046283Y-116221197D01*
X152046283Y-116221197D02*
X151979616Y-116187864D01*
X151979616Y-116187864D02*
X151946283Y-116154531D01*
X151946283Y-116154531D02*
X151912950Y-116087864D01*
X151912950Y-116087864D02*
X151912950Y-115821197D01*
X151946283Y-116754531D02*
X151946283Y-116521197D01*
X151579616Y-116521197D02*
X152279616Y-116521197D01*
X152279616Y-116521197D02*
X152279616Y-116854531D01*
X151779616Y-117621197D02*
X151779616Y-117954530D01*
X151579616Y-117554530D02*
X152279616Y-117787864D01*
X152279616Y-117787864D02*
X151579616Y-118021197D01*
X152212950Y-118221197D02*
X152246283Y-118254530D01*
X152246283Y-118254530D02*
X152279616Y-118321197D01*
X152279616Y-118321197D02*
X152279616Y-118487864D01*
X152279616Y-118487864D02*
X152246283Y-118554530D01*
X152246283Y-118554530D02*
X152212950Y-118587864D01*
X152212950Y-118587864D02*
X152146283Y-118621197D01*
X152146283Y-118621197D02*
X152079616Y-118621197D01*
X152079616Y-118621197D02*
X151979616Y-118587864D01*
X151979616Y-118587864D02*
X151579616Y-118187864D01*
X151579616Y-118187864D02*
X151579616Y-118621197D01*
X155886633Y-117987002D02*
X155553300Y-118220335D01*
X155886633Y-118387002D02*
X155186633Y-118387002D01*
X155186633Y-118387002D02*
X155186633Y-118120335D01*
X155186633Y-118120335D02*
X155219966Y-118053669D01*
X155219966Y-118053669D02*
X155253300Y-118020335D01*
X155253300Y-118020335D02*
X155319966Y-117987002D01*
X155319966Y-117987002D02*
X155419966Y-117987002D01*
X155419966Y-117987002D02*
X155486633Y-118020335D01*
X155486633Y-118020335D02*
X155519966Y-118053669D01*
X155519966Y-118053669D02*
X155553300Y-118120335D01*
X155553300Y-118120335D02*
X155553300Y-118387002D01*
X155519966Y-117453669D02*
X155519966Y-117687002D01*
X155886633Y-117687002D02*
X155186633Y-117687002D01*
X155186633Y-117687002D02*
X155186633Y-117353669D01*
X155519966Y-116320336D02*
X155553300Y-116220336D01*
X155553300Y-116220336D02*
X155586633Y-116187002D01*
X155586633Y-116187002D02*
X155653300Y-116153669D01*
X155653300Y-116153669D02*
X155753300Y-116153669D01*
X155753300Y-116153669D02*
X155819966Y-116187002D01*
X155819966Y-116187002D02*
X155853300Y-116220336D01*
X155853300Y-116220336D02*
X155886633Y-116287002D01*
X155886633Y-116287002D02*
X155886633Y-116553669D01*
X155886633Y-116553669D02*
X155186633Y-116553669D01*
X155186633Y-116553669D02*
X155186633Y-116320336D01*
X155186633Y-116320336D02*
X155219966Y-116253669D01*
X155219966Y-116253669D02*
X155253300Y-116220336D01*
X155253300Y-116220336D02*
X155319966Y-116187002D01*
X155319966Y-116187002D02*
X155386633Y-116187002D01*
X155386633Y-116187002D02*
X155453300Y-116220336D01*
X155453300Y-116220336D02*
X155486633Y-116253669D01*
X155486633Y-116253669D02*
X155519966Y-116320336D01*
X155519966Y-116320336D02*
X155519966Y-116553669D01*
X155886633Y-115487002D02*
X155886633Y-115887002D01*
X155886633Y-115687002D02*
X155186633Y-115687002D01*
X155186633Y-115687002D02*
X155286633Y-115753669D01*
X155286633Y-115753669D02*
X155353300Y-115820336D01*
X155353300Y-115820336D02*
X155386633Y-115887002D01*
X130994633Y-117860002D02*
X130661300Y-118093335D01*
X130994633Y-118260002D02*
X130294633Y-118260002D01*
X130294633Y-118260002D02*
X130294633Y-117993335D01*
X130294633Y-117993335D02*
X130327966Y-117926669D01*
X130327966Y-117926669D02*
X130361300Y-117893335D01*
X130361300Y-117893335D02*
X130427966Y-117860002D01*
X130427966Y-117860002D02*
X130527966Y-117860002D01*
X130527966Y-117860002D02*
X130594633Y-117893335D01*
X130594633Y-117893335D02*
X130627966Y-117926669D01*
X130627966Y-117926669D02*
X130661300Y-117993335D01*
X130661300Y-117993335D02*
X130661300Y-118260002D01*
X130627966Y-117326669D02*
X130627966Y-117560002D01*
X130994633Y-117560002D02*
X130294633Y-117560002D01*
X130294633Y-117560002D02*
X130294633Y-117226669D01*
X130794633Y-116460002D02*
X130794633Y-116126669D01*
X130994633Y-116526669D02*
X130294633Y-116293336D01*
X130294633Y-116293336D02*
X130994633Y-116060002D01*
X130994633Y-115460002D02*
X130994633Y-115860002D01*
X130994633Y-115660002D02*
X130294633Y-115660002D01*
X130294633Y-115660002D02*
X130394633Y-115726669D01*
X130394633Y-115726669D02*
X130461300Y-115793336D01*
X130461300Y-115793336D02*
X130494633Y-115860002D01*
D11*
X173914819Y-96466666D02*
X173438628Y-96799999D01*
X173914819Y-97038094D02*
X172914819Y-97038094D01*
X172914819Y-97038094D02*
X172914819Y-96657142D01*
X172914819Y-96657142D02*
X172962438Y-96561904D01*
X172962438Y-96561904D02*
X173010057Y-96514285D01*
X173010057Y-96514285D02*
X173105295Y-96466666D01*
X173105295Y-96466666D02*
X173248152Y-96466666D01*
X173248152Y-96466666D02*
X173343390Y-96514285D01*
X173343390Y-96514285D02*
X173391009Y-96561904D01*
X173391009Y-96561904D02*
X173438628Y-96657142D01*
X173438628Y-96657142D02*
X173438628Y-97038094D01*
X172914819Y-96133332D02*
X172914819Y-95514285D01*
X172914819Y-95514285D02*
X173295771Y-95847618D01*
X173295771Y-95847618D02*
X173295771Y-95704761D01*
X173295771Y-95704761D02*
X173343390Y-95609523D01*
X173343390Y-95609523D02*
X173391009Y-95561904D01*
X173391009Y-95561904D02*
X173486247Y-95514285D01*
X173486247Y-95514285D02*
X173724342Y-95514285D01*
X173724342Y-95514285D02*
X173819580Y-95561904D01*
X173819580Y-95561904D02*
X173867200Y-95609523D01*
X173867200Y-95609523D02*
X173914819Y-95704761D01*
X173914819Y-95704761D02*
X173914819Y-95990475D01*
X173914819Y-95990475D02*
X173867200Y-96085713D01*
X173867200Y-96085713D02*
X173819580Y-96133332D01*
D12*
X149184318Y-110157619D02*
X150212413Y-110157619D01*
X150212413Y-110157619D02*
X150333365Y-110097142D01*
X150333365Y-110097142D02*
X150393842Y-110036666D01*
X150393842Y-110036666D02*
X150454318Y-109915714D01*
X150454318Y-109915714D02*
X150454318Y-109673809D01*
X150454318Y-109673809D02*
X150393842Y-109552857D01*
X150393842Y-109552857D02*
X150333365Y-109492380D01*
X150333365Y-109492380D02*
X150212413Y-109431904D01*
X150212413Y-109431904D02*
X149184318Y-109431904D01*
X149184318Y-108948095D02*
X149184318Y-108161904D01*
X149184318Y-108161904D02*
X149668127Y-108585238D01*
X149668127Y-108585238D02*
X149668127Y-108403809D01*
X149668127Y-108403809D02*
X149728603Y-108282857D01*
X149728603Y-108282857D02*
X149789080Y-108222381D01*
X149789080Y-108222381D02*
X149910032Y-108161904D01*
X149910032Y-108161904D02*
X150212413Y-108161904D01*
X150212413Y-108161904D02*
X150333365Y-108222381D01*
X150333365Y-108222381D02*
X150393842Y-108282857D01*
X150393842Y-108282857D02*
X150454318Y-108403809D01*
X150454318Y-108403809D02*
X150454318Y-108766666D01*
X150454318Y-108766666D02*
X150393842Y-108887619D01*
X150393842Y-108887619D02*
X150333365Y-108948095D01*
D11*
X142397080Y-91789166D02*
X142444700Y-91836785D01*
X142444700Y-91836785D02*
X142492319Y-91979642D01*
X142492319Y-91979642D02*
X142492319Y-92074880D01*
X142492319Y-92074880D02*
X142444700Y-92217737D01*
X142444700Y-92217737D02*
X142349461Y-92312975D01*
X142349461Y-92312975D02*
X142254223Y-92360594D01*
X142254223Y-92360594D02*
X142063747Y-92408213D01*
X142063747Y-92408213D02*
X141920890Y-92408213D01*
X141920890Y-92408213D02*
X141730414Y-92360594D01*
X141730414Y-92360594D02*
X141635176Y-92312975D01*
X141635176Y-92312975D02*
X141539938Y-92217737D01*
X141539938Y-92217737D02*
X141492319Y-92074880D01*
X141492319Y-92074880D02*
X141492319Y-91979642D01*
X141492319Y-91979642D02*
X141539938Y-91836785D01*
X141539938Y-91836785D02*
X141587557Y-91789166D01*
X141825652Y-90932023D02*
X142492319Y-90932023D01*
X141444700Y-91170118D02*
X142158985Y-91408213D01*
X142158985Y-91408213D02*
X142158985Y-90789166D01*
D12*
X157873365Y-105566428D02*
X157933842Y-105626904D01*
X157933842Y-105626904D02*
X157994318Y-105808333D01*
X157994318Y-105808333D02*
X157994318Y-105929285D01*
X157994318Y-105929285D02*
X157933842Y-106110714D01*
X157933842Y-106110714D02*
X157812889Y-106231666D01*
X157812889Y-106231666D02*
X157691937Y-106292143D01*
X157691937Y-106292143D02*
X157450032Y-106352619D01*
X157450032Y-106352619D02*
X157268603Y-106352619D01*
X157268603Y-106352619D02*
X157026699Y-106292143D01*
X157026699Y-106292143D02*
X156905746Y-106231666D01*
X156905746Y-106231666D02*
X156784794Y-106110714D01*
X156784794Y-106110714D02*
X156724318Y-105929285D01*
X156724318Y-105929285D02*
X156724318Y-105808333D01*
X156724318Y-105808333D02*
X156784794Y-105626904D01*
X156784794Y-105626904D02*
X156845270Y-105566428D01*
X156845270Y-105082619D02*
X156784794Y-105022143D01*
X156784794Y-105022143D02*
X156724318Y-104901190D01*
X156724318Y-104901190D02*
X156724318Y-104598809D01*
X156724318Y-104598809D02*
X156784794Y-104477857D01*
X156784794Y-104477857D02*
X156845270Y-104417381D01*
X156845270Y-104417381D02*
X156966222Y-104356904D01*
X156966222Y-104356904D02*
X157087175Y-104356904D01*
X157087175Y-104356904D02*
X157268603Y-104417381D01*
X157268603Y-104417381D02*
X157994318Y-105143095D01*
X157994318Y-105143095D02*
X157994318Y-104356904D01*
X156724318Y-103268333D02*
X156724318Y-103510238D01*
X156724318Y-103510238D02*
X156784794Y-103631190D01*
X156784794Y-103631190D02*
X156845270Y-103691666D01*
X156845270Y-103691666D02*
X157026699Y-103812619D01*
X157026699Y-103812619D02*
X157268603Y-103873095D01*
X157268603Y-103873095D02*
X157752413Y-103873095D01*
X157752413Y-103873095D02*
X157873365Y-103812619D01*
X157873365Y-103812619D02*
X157933842Y-103752142D01*
X157933842Y-103752142D02*
X157994318Y-103631190D01*
X157994318Y-103631190D02*
X157994318Y-103389285D01*
X157994318Y-103389285D02*
X157933842Y-103268333D01*
X157933842Y-103268333D02*
X157873365Y-103207857D01*
X157873365Y-103207857D02*
X157752413Y-103147380D01*
X157752413Y-103147380D02*
X157450032Y-103147380D01*
X157450032Y-103147380D02*
X157329080Y-103207857D01*
X157329080Y-103207857D02*
X157268603Y-103268333D01*
X157268603Y-103268333D02*
X157208127Y-103389285D01*
X157208127Y-103389285D02*
X157208127Y-103631190D01*
X157208127Y-103631190D02*
X157268603Y-103752142D01*
X157268603Y-103752142D02*
X157329080Y-103812619D01*
X157329080Y-103812619D02*
X157450032Y-103873095D01*
D11*
X141730833Y-100417080D02*
X141683214Y-100464700D01*
X141683214Y-100464700D02*
X141540357Y-100512319D01*
X141540357Y-100512319D02*
X141445119Y-100512319D01*
X141445119Y-100512319D02*
X141302262Y-100464700D01*
X141302262Y-100464700D02*
X141207024Y-100369461D01*
X141207024Y-100369461D02*
X141159405Y-100274223D01*
X141159405Y-100274223D02*
X141111786Y-100083747D01*
X141111786Y-100083747D02*
X141111786Y-99940890D01*
X141111786Y-99940890D02*
X141159405Y-99750414D01*
X141159405Y-99750414D02*
X141207024Y-99655176D01*
X141207024Y-99655176D02*
X141302262Y-99559938D01*
X141302262Y-99559938D02*
X141445119Y-99512319D01*
X141445119Y-99512319D02*
X141540357Y-99512319D01*
X141540357Y-99512319D02*
X141683214Y-99559938D01*
X141683214Y-99559938D02*
X141730833Y-99607557D01*
X142111786Y-99607557D02*
X142159405Y-99559938D01*
X142159405Y-99559938D02*
X142254643Y-99512319D01*
X142254643Y-99512319D02*
X142492738Y-99512319D01*
X142492738Y-99512319D02*
X142587976Y-99559938D01*
X142587976Y-99559938D02*
X142635595Y-99607557D01*
X142635595Y-99607557D02*
X142683214Y-99702795D01*
X142683214Y-99702795D02*
X142683214Y-99798033D01*
X142683214Y-99798033D02*
X142635595Y-99940890D01*
X142635595Y-99940890D02*
X142064167Y-100512319D01*
X142064167Y-100512319D02*
X142683214Y-100512319D01*
D12*
X145238180Y-116347518D02*
X145238180Y-117375613D01*
X145238180Y-117375613D02*
X145298657Y-117496565D01*
X145298657Y-117496565D02*
X145359133Y-117557042D01*
X145359133Y-117557042D02*
X145480085Y-117617518D01*
X145480085Y-117617518D02*
X145721990Y-117617518D01*
X145721990Y-117617518D02*
X145842942Y-117557042D01*
X145842942Y-117557042D02*
X145903419Y-117496565D01*
X145903419Y-117496565D02*
X145963895Y-117375613D01*
X145963895Y-117375613D02*
X145963895Y-116347518D01*
X147112942Y-116347518D02*
X146871037Y-116347518D01*
X146871037Y-116347518D02*
X146750085Y-116407994D01*
X146750085Y-116407994D02*
X146689609Y-116468470D01*
X146689609Y-116468470D02*
X146568656Y-116649899D01*
X146568656Y-116649899D02*
X146508180Y-116891803D01*
X146508180Y-116891803D02*
X146508180Y-117375613D01*
X146508180Y-117375613D02*
X146568656Y-117496565D01*
X146568656Y-117496565D02*
X146629133Y-117557042D01*
X146629133Y-117557042D02*
X146750085Y-117617518D01*
X146750085Y-117617518D02*
X146991990Y-117617518D01*
X146991990Y-117617518D02*
X147112942Y-117557042D01*
X147112942Y-117557042D02*
X147173418Y-117496565D01*
X147173418Y-117496565D02*
X147233895Y-117375613D01*
X147233895Y-117375613D02*
X147233895Y-117073232D01*
X147233895Y-117073232D02*
X147173418Y-116952280D01*
X147173418Y-116952280D02*
X147112942Y-116891803D01*
X147112942Y-116891803D02*
X146991990Y-116831327D01*
X146991990Y-116831327D02*
X146750085Y-116831327D01*
X146750085Y-116831327D02*
X146629133Y-116891803D01*
X146629133Y-116891803D02*
X146568656Y-116952280D01*
X146568656Y-116952280D02*
X146508180Y-117073232D01*
D11*
X162219580Y-96902857D02*
X162267200Y-96950476D01*
X162267200Y-96950476D02*
X162314819Y-97093333D01*
X162314819Y-97093333D02*
X162314819Y-97188571D01*
X162314819Y-97188571D02*
X162267200Y-97331428D01*
X162267200Y-97331428D02*
X162171961Y-97426666D01*
X162171961Y-97426666D02*
X162076723Y-97474285D01*
X162076723Y-97474285D02*
X161886247Y-97521904D01*
X161886247Y-97521904D02*
X161743390Y-97521904D01*
X161743390Y-97521904D02*
X161552914Y-97474285D01*
X161552914Y-97474285D02*
X161457676Y-97426666D01*
X161457676Y-97426666D02*
X161362438Y-97331428D01*
X161362438Y-97331428D02*
X161314819Y-97188571D01*
X161314819Y-97188571D02*
X161314819Y-97093333D01*
X161314819Y-97093333D02*
X161362438Y-96950476D01*
X161362438Y-96950476D02*
X161410057Y-96902857D01*
X161410057Y-96521904D02*
X161362438Y-96474285D01*
X161362438Y-96474285D02*
X161314819Y-96379047D01*
X161314819Y-96379047D02*
X161314819Y-96140952D01*
X161314819Y-96140952D02*
X161362438Y-96045714D01*
X161362438Y-96045714D02*
X161410057Y-95998095D01*
X161410057Y-95998095D02*
X161505295Y-95950476D01*
X161505295Y-95950476D02*
X161600533Y-95950476D01*
X161600533Y-95950476D02*
X161743390Y-95998095D01*
X161743390Y-95998095D02*
X162314819Y-96569523D01*
X162314819Y-96569523D02*
X162314819Y-95950476D01*
X161648152Y-95093333D02*
X162314819Y-95093333D01*
X161267200Y-95331428D02*
X161981485Y-95569523D01*
X161981485Y-95569523D02*
X161981485Y-94950476D01*
X143887142Y-81239580D02*
X143839523Y-81287200D01*
X143839523Y-81287200D02*
X143696666Y-81334819D01*
X143696666Y-81334819D02*
X143601428Y-81334819D01*
X143601428Y-81334819D02*
X143458571Y-81287200D01*
X143458571Y-81287200D02*
X143363333Y-81191961D01*
X143363333Y-81191961D02*
X143315714Y-81096723D01*
X143315714Y-81096723D02*
X143268095Y-80906247D01*
X143268095Y-80906247D02*
X143268095Y-80763390D01*
X143268095Y-80763390D02*
X143315714Y-80572914D01*
X143315714Y-80572914D02*
X143363333Y-80477676D01*
X143363333Y-80477676D02*
X143458571Y-80382438D01*
X143458571Y-80382438D02*
X143601428Y-80334819D01*
X143601428Y-80334819D02*
X143696666Y-80334819D01*
X143696666Y-80334819D02*
X143839523Y-80382438D01*
X143839523Y-80382438D02*
X143887142Y-80430057D01*
X144839523Y-81334819D02*
X144268095Y-81334819D01*
X144553809Y-81334819D02*
X144553809Y-80334819D01*
X144553809Y-80334819D02*
X144458571Y-80477676D01*
X144458571Y-80477676D02*
X144363333Y-80572914D01*
X144363333Y-80572914D02*
X144268095Y-80620533D01*
X145172857Y-80334819D02*
X145791904Y-80334819D01*
X145791904Y-80334819D02*
X145458571Y-80715771D01*
X145458571Y-80715771D02*
X145601428Y-80715771D01*
X145601428Y-80715771D02*
X145696666Y-80763390D01*
X145696666Y-80763390D02*
X145744285Y-80811009D01*
X145744285Y-80811009D02*
X145791904Y-80906247D01*
X145791904Y-80906247D02*
X145791904Y-81144342D01*
X145791904Y-81144342D02*
X145744285Y-81239580D01*
X145744285Y-81239580D02*
X145696666Y-81287200D01*
X145696666Y-81287200D02*
X145601428Y-81334819D01*
X145601428Y-81334819D02*
X145315714Y-81334819D01*
X145315714Y-81334819D02*
X145220476Y-81287200D01*
X145220476Y-81287200D02*
X145172857Y-81239580D01*
D12*
X153413365Y-105586428D02*
X153473842Y-105646904D01*
X153473842Y-105646904D02*
X153534318Y-105828333D01*
X153534318Y-105828333D02*
X153534318Y-105949285D01*
X153534318Y-105949285D02*
X153473842Y-106130714D01*
X153473842Y-106130714D02*
X153352889Y-106251666D01*
X153352889Y-106251666D02*
X153231937Y-106312143D01*
X153231937Y-106312143D02*
X152990032Y-106372619D01*
X152990032Y-106372619D02*
X152808603Y-106372619D01*
X152808603Y-106372619D02*
X152566699Y-106312143D01*
X152566699Y-106312143D02*
X152445746Y-106251666D01*
X152445746Y-106251666D02*
X152324794Y-106130714D01*
X152324794Y-106130714D02*
X152264318Y-105949285D01*
X152264318Y-105949285D02*
X152264318Y-105828333D01*
X152264318Y-105828333D02*
X152324794Y-105646904D01*
X152324794Y-105646904D02*
X152385270Y-105586428D01*
X152385270Y-105102619D02*
X152324794Y-105042143D01*
X152324794Y-105042143D02*
X152264318Y-104921190D01*
X152264318Y-104921190D02*
X152264318Y-104618809D01*
X152264318Y-104618809D02*
X152324794Y-104497857D01*
X152324794Y-104497857D02*
X152385270Y-104437381D01*
X152385270Y-104437381D02*
X152506222Y-104376904D01*
X152506222Y-104376904D02*
X152627175Y-104376904D01*
X152627175Y-104376904D02*
X152808603Y-104437381D01*
X152808603Y-104437381D02*
X153534318Y-105163095D01*
X153534318Y-105163095D02*
X153534318Y-104376904D01*
X152264318Y-103227857D02*
X152264318Y-103832619D01*
X152264318Y-103832619D02*
X152869080Y-103893095D01*
X152869080Y-103893095D02*
X152808603Y-103832619D01*
X152808603Y-103832619D02*
X152748127Y-103711666D01*
X152748127Y-103711666D02*
X152748127Y-103409285D01*
X152748127Y-103409285D02*
X152808603Y-103288333D01*
X152808603Y-103288333D02*
X152869080Y-103227857D01*
X152869080Y-103227857D02*
X152990032Y-103167380D01*
X152990032Y-103167380D02*
X153292413Y-103167380D01*
X153292413Y-103167380D02*
X153413365Y-103227857D01*
X153413365Y-103227857D02*
X153473842Y-103288333D01*
X153473842Y-103288333D02*
X153534318Y-103409285D01*
X153534318Y-103409285D02*
X153534318Y-103711666D01*
X153534318Y-103711666D02*
X153473842Y-103832619D01*
X153473842Y-103832619D02*
X153413365Y-103893095D01*
D11*
X167347142Y-101419580D02*
X167299523Y-101467200D01*
X167299523Y-101467200D02*
X167156666Y-101514819D01*
X167156666Y-101514819D02*
X167061428Y-101514819D01*
X167061428Y-101514819D02*
X166918571Y-101467200D01*
X166918571Y-101467200D02*
X166823333Y-101371961D01*
X166823333Y-101371961D02*
X166775714Y-101276723D01*
X166775714Y-101276723D02*
X166728095Y-101086247D01*
X166728095Y-101086247D02*
X166728095Y-100943390D01*
X166728095Y-100943390D02*
X166775714Y-100752914D01*
X166775714Y-100752914D02*
X166823333Y-100657676D01*
X166823333Y-100657676D02*
X166918571Y-100562438D01*
X166918571Y-100562438D02*
X167061428Y-100514819D01*
X167061428Y-100514819D02*
X167156666Y-100514819D01*
X167156666Y-100514819D02*
X167299523Y-100562438D01*
X167299523Y-100562438D02*
X167347142Y-100610057D01*
X168299523Y-101514819D02*
X167728095Y-101514819D01*
X168013809Y-101514819D02*
X168013809Y-100514819D01*
X168013809Y-100514819D02*
X167918571Y-100657676D01*
X167918571Y-100657676D02*
X167823333Y-100752914D01*
X167823333Y-100752914D02*
X167728095Y-100800533D01*
X169251904Y-101514819D02*
X168680476Y-101514819D01*
X168966190Y-101514819D02*
X168966190Y-100514819D01*
X168966190Y-100514819D02*
X168870952Y-100657676D01*
X168870952Y-100657676D02*
X168775714Y-100752914D01*
X168775714Y-100752914D02*
X168680476Y-100800533D01*
D12*
X170782467Y-116347518D02*
X170782467Y-117254661D01*
X170782467Y-117254661D02*
X170721990Y-117436089D01*
X170721990Y-117436089D02*
X170601038Y-117557042D01*
X170601038Y-117557042D02*
X170419609Y-117617518D01*
X170419609Y-117617518D02*
X170298657Y-117617518D01*
X171266276Y-116347518D02*
X172052467Y-116347518D01*
X172052467Y-116347518D02*
X171629133Y-116831327D01*
X171629133Y-116831327D02*
X171810562Y-116831327D01*
X171810562Y-116831327D02*
X171931514Y-116891803D01*
X171931514Y-116891803D02*
X171991990Y-116952280D01*
X171991990Y-116952280D02*
X172052467Y-117073232D01*
X172052467Y-117073232D02*
X172052467Y-117375613D01*
X172052467Y-117375613D02*
X171991990Y-117496565D01*
X171991990Y-117496565D02*
X171931514Y-117557042D01*
X171931514Y-117557042D02*
X171810562Y-117617518D01*
X171810562Y-117617518D02*
X171447705Y-117617518D01*
X171447705Y-117617518D02*
X171326752Y-117557042D01*
X171326752Y-117557042D02*
X171266276Y-117496565D01*
X160601037Y-116770851D02*
X160601037Y-117859422D01*
X160601037Y-117859422D02*
X160540561Y-117980375D01*
X160540561Y-117980375D02*
X160419609Y-118040851D01*
X160419609Y-118040851D02*
X160359133Y-118040851D01*
X160601037Y-116347518D02*
X160540561Y-116407994D01*
X160540561Y-116407994D02*
X160601037Y-116468470D01*
X160601037Y-116468470D02*
X160661514Y-116407994D01*
X160661514Y-116407994D02*
X160601037Y-116347518D01*
X160601037Y-116347518D02*
X160601037Y-116468470D01*
X161750085Y-116770851D02*
X161750085Y-117617518D01*
X161447704Y-116287042D02*
X161145323Y-117194184D01*
X161145323Y-117194184D02*
X161931514Y-117194184D01*
D11*
X152163333Y-103264819D02*
X151687143Y-103264819D01*
X151687143Y-103264819D02*
X151687143Y-102264819D01*
X153020476Y-103264819D02*
X152449048Y-103264819D01*
X152734762Y-103264819D02*
X152734762Y-102264819D01*
X152734762Y-102264819D02*
X152639524Y-102407676D01*
X152639524Y-102407676D02*
X152544286Y-102502914D01*
X152544286Y-102502914D02*
X152449048Y-102550533D01*
X147987980Y-102278566D02*
X148035600Y-102326185D01*
X148035600Y-102326185D02*
X148083219Y-102469042D01*
X148083219Y-102469042D02*
X148083219Y-102564280D01*
X148083219Y-102564280D02*
X148035600Y-102707137D01*
X148035600Y-102707137D02*
X147940361Y-102802375D01*
X147940361Y-102802375D02*
X147845123Y-102849994D01*
X147845123Y-102849994D02*
X147654647Y-102897613D01*
X147654647Y-102897613D02*
X147511790Y-102897613D01*
X147511790Y-102897613D02*
X147321314Y-102849994D01*
X147321314Y-102849994D02*
X147226076Y-102802375D01*
X147226076Y-102802375D02*
X147130838Y-102707137D01*
X147130838Y-102707137D02*
X147083219Y-102564280D01*
X147083219Y-102564280D02*
X147083219Y-102469042D01*
X147083219Y-102469042D02*
X147130838Y-102326185D01*
X147130838Y-102326185D02*
X147178457Y-102278566D01*
X147083219Y-101945232D02*
X147083219Y-101326185D01*
X147083219Y-101326185D02*
X147464171Y-101659518D01*
X147464171Y-101659518D02*
X147464171Y-101516661D01*
X147464171Y-101516661D02*
X147511790Y-101421423D01*
X147511790Y-101421423D02*
X147559409Y-101373804D01*
X147559409Y-101373804D02*
X147654647Y-101326185D01*
X147654647Y-101326185D02*
X147892742Y-101326185D01*
X147892742Y-101326185D02*
X147987980Y-101373804D01*
X147987980Y-101373804D02*
X148035600Y-101421423D01*
X148035600Y-101421423D02*
X148083219Y-101516661D01*
X148083219Y-101516661D02*
X148083219Y-101802375D01*
X148083219Y-101802375D02*
X148035600Y-101897613D01*
X148035600Y-101897613D02*
X147987980Y-101945232D01*
X144127142Y-83799580D02*
X144079523Y-83847200D01*
X144079523Y-83847200D02*
X143936666Y-83894819D01*
X143936666Y-83894819D02*
X143841428Y-83894819D01*
X143841428Y-83894819D02*
X143698571Y-83847200D01*
X143698571Y-83847200D02*
X143603333Y-83751961D01*
X143603333Y-83751961D02*
X143555714Y-83656723D01*
X143555714Y-83656723D02*
X143508095Y-83466247D01*
X143508095Y-83466247D02*
X143508095Y-83323390D01*
X143508095Y-83323390D02*
X143555714Y-83132914D01*
X143555714Y-83132914D02*
X143603333Y-83037676D01*
X143603333Y-83037676D02*
X143698571Y-82942438D01*
X143698571Y-82942438D02*
X143841428Y-82894819D01*
X143841428Y-82894819D02*
X143936666Y-82894819D01*
X143936666Y-82894819D02*
X144079523Y-82942438D01*
X144079523Y-82942438D02*
X144127142Y-82990057D01*
X145079523Y-83894819D02*
X144508095Y-83894819D01*
X144793809Y-83894819D02*
X144793809Y-82894819D01*
X144793809Y-82894819D02*
X144698571Y-83037676D01*
X144698571Y-83037676D02*
X144603333Y-83132914D01*
X144603333Y-83132914D02*
X144508095Y-83180533D01*
X145936666Y-83228152D02*
X145936666Y-83894819D01*
X145698571Y-82847200D02*
X145460476Y-83561485D01*
X145460476Y-83561485D02*
X146079523Y-83561485D01*
X151803333Y-83654819D02*
X151470000Y-83178628D01*
X151231905Y-83654819D02*
X151231905Y-82654819D01*
X151231905Y-82654819D02*
X151612857Y-82654819D01*
X151612857Y-82654819D02*
X151708095Y-82702438D01*
X151708095Y-82702438D02*
X151755714Y-82750057D01*
X151755714Y-82750057D02*
X151803333Y-82845295D01*
X151803333Y-82845295D02*
X151803333Y-82988152D01*
X151803333Y-82988152D02*
X151755714Y-83083390D01*
X151755714Y-83083390D02*
X151708095Y-83131009D01*
X151708095Y-83131009D02*
X151612857Y-83178628D01*
X151612857Y-83178628D02*
X151231905Y-83178628D01*
X152755714Y-83654819D02*
X152184286Y-83654819D01*
X152470000Y-83654819D02*
X152470000Y-82654819D01*
X152470000Y-82654819D02*
X152374762Y-82797676D01*
X152374762Y-82797676D02*
X152279524Y-82892914D01*
X152279524Y-82892914D02*
X152184286Y-82940533D01*
X140797080Y-91819166D02*
X140844700Y-91866785D01*
X140844700Y-91866785D02*
X140892319Y-92009642D01*
X140892319Y-92009642D02*
X140892319Y-92104880D01*
X140892319Y-92104880D02*
X140844700Y-92247737D01*
X140844700Y-92247737D02*
X140749461Y-92342975D01*
X140749461Y-92342975D02*
X140654223Y-92390594D01*
X140654223Y-92390594D02*
X140463747Y-92438213D01*
X140463747Y-92438213D02*
X140320890Y-92438213D01*
X140320890Y-92438213D02*
X140130414Y-92390594D01*
X140130414Y-92390594D02*
X140035176Y-92342975D01*
X140035176Y-92342975D02*
X139939938Y-92247737D01*
X139939938Y-92247737D02*
X139892319Y-92104880D01*
X139892319Y-92104880D02*
X139892319Y-92009642D01*
X139892319Y-92009642D02*
X139939938Y-91866785D01*
X139939938Y-91866785D02*
X139987557Y-91819166D01*
X140892319Y-90866785D02*
X140892319Y-91438213D01*
X140892319Y-91152499D02*
X139892319Y-91152499D01*
X139892319Y-91152499D02*
X140035176Y-91247737D01*
X140035176Y-91247737D02*
X140130414Y-91342975D01*
X140130414Y-91342975D02*
X140178033Y-91438213D01*
X145427980Y-102136066D02*
X145475600Y-102183685D01*
X145475600Y-102183685D02*
X145523219Y-102326542D01*
X145523219Y-102326542D02*
X145523219Y-102421780D01*
X145523219Y-102421780D02*
X145475600Y-102564637D01*
X145475600Y-102564637D02*
X145380361Y-102659875D01*
X145380361Y-102659875D02*
X145285123Y-102707494D01*
X145285123Y-102707494D02*
X145094647Y-102755113D01*
X145094647Y-102755113D02*
X144951790Y-102755113D01*
X144951790Y-102755113D02*
X144761314Y-102707494D01*
X144761314Y-102707494D02*
X144666076Y-102659875D01*
X144666076Y-102659875D02*
X144570838Y-102564637D01*
X144570838Y-102564637D02*
X144523219Y-102421780D01*
X144523219Y-102421780D02*
X144523219Y-102326542D01*
X144523219Y-102326542D02*
X144570838Y-102183685D01*
X144570838Y-102183685D02*
X144618457Y-102136066D01*
X144523219Y-101278923D02*
X144523219Y-101469399D01*
X144523219Y-101469399D02*
X144570838Y-101564637D01*
X144570838Y-101564637D02*
X144618457Y-101612256D01*
X144618457Y-101612256D02*
X144761314Y-101707494D01*
X144761314Y-101707494D02*
X144951790Y-101755113D01*
X144951790Y-101755113D02*
X145332742Y-101755113D01*
X145332742Y-101755113D02*
X145427980Y-101707494D01*
X145427980Y-101707494D02*
X145475600Y-101659875D01*
X145475600Y-101659875D02*
X145523219Y-101564637D01*
X145523219Y-101564637D02*
X145523219Y-101374161D01*
X145523219Y-101374161D02*
X145475600Y-101278923D01*
X145475600Y-101278923D02*
X145427980Y-101231304D01*
X145427980Y-101231304D02*
X145332742Y-101183685D01*
X145332742Y-101183685D02*
X145094647Y-101183685D01*
X145094647Y-101183685D02*
X144999409Y-101231304D01*
X144999409Y-101231304D02*
X144951790Y-101278923D01*
X144951790Y-101278923D02*
X144904171Y-101374161D01*
X144904171Y-101374161D02*
X144904171Y-101564637D01*
X144904171Y-101564637D02*
X144951790Y-101659875D01*
X144951790Y-101659875D02*
X144999409Y-101707494D01*
X144999409Y-101707494D02*
X145094647Y-101755113D01*
D12*
X151099080Y-103958332D02*
X151099080Y-104381666D01*
X151764318Y-104381666D02*
X150494318Y-104381666D01*
X150494318Y-104381666D02*
X150494318Y-103776904D01*
X151099080Y-102869761D02*
X151159556Y-102688333D01*
X151159556Y-102688333D02*
X151220032Y-102627856D01*
X151220032Y-102627856D02*
X151340984Y-102567380D01*
X151340984Y-102567380D02*
X151522413Y-102567380D01*
X151522413Y-102567380D02*
X151643365Y-102627856D01*
X151643365Y-102627856D02*
X151703842Y-102688333D01*
X151703842Y-102688333D02*
X151764318Y-102809285D01*
X151764318Y-102809285D02*
X151764318Y-103293095D01*
X151764318Y-103293095D02*
X150494318Y-103293095D01*
X150494318Y-103293095D02*
X150494318Y-102869761D01*
X150494318Y-102869761D02*
X150554794Y-102748809D01*
X150554794Y-102748809D02*
X150615270Y-102688333D01*
X150615270Y-102688333D02*
X150736222Y-102627856D01*
X150736222Y-102627856D02*
X150857175Y-102627856D01*
X150857175Y-102627856D02*
X150978127Y-102688333D01*
X150978127Y-102688333D02*
X151038603Y-102748809D01*
X151038603Y-102748809D02*
X151099080Y-102869761D01*
X151099080Y-102869761D02*
X151099080Y-103293095D01*
X151764318Y-101357856D02*
X151764318Y-102083571D01*
X151764318Y-101720714D02*
X150494318Y-101720714D01*
X150494318Y-101720714D02*
X150675746Y-101841666D01*
X150675746Y-101841666D02*
X150796699Y-101962618D01*
X150796699Y-101962618D02*
X150857175Y-102083571D01*
D11*
X169787142Y-91489580D02*
X169739523Y-91537200D01*
X169739523Y-91537200D02*
X169596666Y-91584819D01*
X169596666Y-91584819D02*
X169501428Y-91584819D01*
X169501428Y-91584819D02*
X169358571Y-91537200D01*
X169358571Y-91537200D02*
X169263333Y-91441961D01*
X169263333Y-91441961D02*
X169215714Y-91346723D01*
X169215714Y-91346723D02*
X169168095Y-91156247D01*
X169168095Y-91156247D02*
X169168095Y-91013390D01*
X169168095Y-91013390D02*
X169215714Y-90822914D01*
X169215714Y-90822914D02*
X169263333Y-90727676D01*
X169263333Y-90727676D02*
X169358571Y-90632438D01*
X169358571Y-90632438D02*
X169501428Y-90584819D01*
X169501428Y-90584819D02*
X169596666Y-90584819D01*
X169596666Y-90584819D02*
X169739523Y-90632438D01*
X169739523Y-90632438D02*
X169787142Y-90680057D01*
X170168095Y-90680057D02*
X170215714Y-90632438D01*
X170215714Y-90632438D02*
X170310952Y-90584819D01*
X170310952Y-90584819D02*
X170549047Y-90584819D01*
X170549047Y-90584819D02*
X170644285Y-90632438D01*
X170644285Y-90632438D02*
X170691904Y-90680057D01*
X170691904Y-90680057D02*
X170739523Y-90775295D01*
X170739523Y-90775295D02*
X170739523Y-90870533D01*
X170739523Y-90870533D02*
X170691904Y-91013390D01*
X170691904Y-91013390D02*
X170120476Y-91584819D01*
X170120476Y-91584819D02*
X170739523Y-91584819D01*
X171691904Y-91584819D02*
X171120476Y-91584819D01*
X171406190Y-91584819D02*
X171406190Y-90584819D01*
X171406190Y-90584819D02*
X171310952Y-90727676D01*
X171310952Y-90727676D02*
X171215714Y-90822914D01*
X171215714Y-90822914D02*
X171120476Y-90870533D01*
X157233333Y-100954819D02*
X156757143Y-100954819D01*
X156757143Y-100954819D02*
X156757143Y-99954819D01*
X157519048Y-100050057D02*
X157566667Y-100002438D01*
X157566667Y-100002438D02*
X157661905Y-99954819D01*
X157661905Y-99954819D02*
X157900000Y-99954819D01*
X157900000Y-99954819D02*
X157995238Y-100002438D01*
X157995238Y-100002438D02*
X158042857Y-100050057D01*
X158042857Y-100050057D02*
X158090476Y-100145295D01*
X158090476Y-100145295D02*
X158090476Y-100240533D01*
X158090476Y-100240533D02*
X158042857Y-100383390D01*
X158042857Y-100383390D02*
X157471429Y-100954819D01*
X157471429Y-100954819D02*
X158090476Y-100954819D01*
X167233333Y-96614819D02*
X166900000Y-96138628D01*
X166661905Y-96614819D02*
X166661905Y-95614819D01*
X166661905Y-95614819D02*
X167042857Y-95614819D01*
X167042857Y-95614819D02*
X167138095Y-95662438D01*
X167138095Y-95662438D02*
X167185714Y-95710057D01*
X167185714Y-95710057D02*
X167233333Y-95805295D01*
X167233333Y-95805295D02*
X167233333Y-95948152D01*
X167233333Y-95948152D02*
X167185714Y-96043390D01*
X167185714Y-96043390D02*
X167138095Y-96091009D01*
X167138095Y-96091009D02*
X167042857Y-96138628D01*
X167042857Y-96138628D02*
X166661905Y-96138628D01*
X168090476Y-95948152D02*
X168090476Y-96614819D01*
X167852381Y-95567200D02*
X167614286Y-96281485D01*
X167614286Y-96281485D02*
X168233333Y-96281485D01*
X169951757Y-109684701D02*
X170762346Y-109684701D01*
X170762346Y-109684701D02*
X170857709Y-109637020D01*
X170857709Y-109637020D02*
X170905391Y-109589338D01*
X170905391Y-109589338D02*
X170953072Y-109493975D01*
X170953072Y-109493975D02*
X170953072Y-109303248D01*
X170953072Y-109303248D02*
X170905391Y-109207885D01*
X170905391Y-109207885D02*
X170857709Y-109160203D01*
X170857709Y-109160203D02*
X170762346Y-109112521D01*
X170762346Y-109112521D02*
X169951757Y-109112521D01*
X170047121Y-108683386D02*
X169999439Y-108635704D01*
X169999439Y-108635704D02*
X169951757Y-108540341D01*
X169951757Y-108540341D02*
X169951757Y-108301933D01*
X169951757Y-108301933D02*
X169999439Y-108206569D01*
X169999439Y-108206569D02*
X170047121Y-108158888D01*
X170047121Y-108158888D02*
X170142484Y-108111206D01*
X170142484Y-108111206D02*
X170237847Y-108111206D01*
X170237847Y-108111206D02*
X170380892Y-108158888D01*
X170380892Y-108158888D02*
X170953072Y-108731068D01*
X170953072Y-108731068D02*
X170953072Y-108111206D01*
X142000833Y-98207080D02*
X141953214Y-98254700D01*
X141953214Y-98254700D02*
X141810357Y-98302319D01*
X141810357Y-98302319D02*
X141715119Y-98302319D01*
X141715119Y-98302319D02*
X141572262Y-98254700D01*
X141572262Y-98254700D02*
X141477024Y-98159461D01*
X141477024Y-98159461D02*
X141429405Y-98064223D01*
X141429405Y-98064223D02*
X141381786Y-97873747D01*
X141381786Y-97873747D02*
X141381786Y-97730890D01*
X141381786Y-97730890D02*
X141429405Y-97540414D01*
X141429405Y-97540414D02*
X141477024Y-97445176D01*
X141477024Y-97445176D02*
X141572262Y-97349938D01*
X141572262Y-97349938D02*
X141715119Y-97302319D01*
X141715119Y-97302319D02*
X141810357Y-97302319D01*
X141810357Y-97302319D02*
X141953214Y-97349938D01*
X141953214Y-97349938D02*
X142000833Y-97397557D01*
X142905595Y-97302319D02*
X142429405Y-97302319D01*
X142429405Y-97302319D02*
X142381786Y-97778509D01*
X142381786Y-97778509D02*
X142429405Y-97730890D01*
X142429405Y-97730890D02*
X142524643Y-97683271D01*
X142524643Y-97683271D02*
X142762738Y-97683271D01*
X142762738Y-97683271D02*
X142857976Y-97730890D01*
X142857976Y-97730890D02*
X142905595Y-97778509D01*
X142905595Y-97778509D02*
X142953214Y-97873747D01*
X142953214Y-97873747D02*
X142953214Y-98111842D01*
X142953214Y-98111842D02*
X142905595Y-98207080D01*
X142905595Y-98207080D02*
X142857976Y-98254700D01*
X142857976Y-98254700D02*
X142762738Y-98302319D01*
X142762738Y-98302319D02*
X142524643Y-98302319D01*
X142524643Y-98302319D02*
X142429405Y-98254700D01*
X142429405Y-98254700D02*
X142381786Y-98207080D01*
X168799580Y-91072857D02*
X168847200Y-91120476D01*
X168847200Y-91120476D02*
X168894819Y-91263333D01*
X168894819Y-91263333D02*
X168894819Y-91358571D01*
X168894819Y-91358571D02*
X168847200Y-91501428D01*
X168847200Y-91501428D02*
X168751961Y-91596666D01*
X168751961Y-91596666D02*
X168656723Y-91644285D01*
X168656723Y-91644285D02*
X168466247Y-91691904D01*
X168466247Y-91691904D02*
X168323390Y-91691904D01*
X168323390Y-91691904D02*
X168132914Y-91644285D01*
X168132914Y-91644285D02*
X168037676Y-91596666D01*
X168037676Y-91596666D02*
X167942438Y-91501428D01*
X167942438Y-91501428D02*
X167894819Y-91358571D01*
X167894819Y-91358571D02*
X167894819Y-91263333D01*
X167894819Y-91263333D02*
X167942438Y-91120476D01*
X167942438Y-91120476D02*
X167990057Y-91072857D01*
X168894819Y-90120476D02*
X168894819Y-90691904D01*
X168894819Y-90406190D02*
X167894819Y-90406190D01*
X167894819Y-90406190D02*
X168037676Y-90501428D01*
X168037676Y-90501428D02*
X168132914Y-90596666D01*
X168132914Y-90596666D02*
X168180533Y-90691904D01*
X168894819Y-89644285D02*
X168894819Y-89453809D01*
X168894819Y-89453809D02*
X168847200Y-89358571D01*
X168847200Y-89358571D02*
X168799580Y-89310952D01*
X168799580Y-89310952D02*
X168656723Y-89215714D01*
X168656723Y-89215714D02*
X168466247Y-89168095D01*
X168466247Y-89168095D02*
X168085295Y-89168095D01*
X168085295Y-89168095D02*
X167990057Y-89215714D01*
X167990057Y-89215714D02*
X167942438Y-89263333D01*
X167942438Y-89263333D02*
X167894819Y-89358571D01*
X167894819Y-89358571D02*
X167894819Y-89549047D01*
X167894819Y-89549047D02*
X167942438Y-89644285D01*
X167942438Y-89644285D02*
X167990057Y-89691904D01*
X167990057Y-89691904D02*
X168085295Y-89739523D01*
X168085295Y-89739523D02*
X168323390Y-89739523D01*
X168323390Y-89739523D02*
X168418628Y-89691904D01*
X168418628Y-89691904D02*
X168466247Y-89644285D01*
X168466247Y-89644285D02*
X168513866Y-89549047D01*
X168513866Y-89549047D02*
X168513866Y-89358571D01*
X168513866Y-89358571D02*
X168466247Y-89263333D01*
X168466247Y-89263333D02*
X168418628Y-89215714D01*
X168418628Y-89215714D02*
X168323390Y-89168095D01*
X163279580Y-83952857D02*
X163327200Y-84000476D01*
X163327200Y-84000476D02*
X163374819Y-84143333D01*
X163374819Y-84143333D02*
X163374819Y-84238571D01*
X163374819Y-84238571D02*
X163327200Y-84381428D01*
X163327200Y-84381428D02*
X163231961Y-84476666D01*
X163231961Y-84476666D02*
X163136723Y-84524285D01*
X163136723Y-84524285D02*
X162946247Y-84571904D01*
X162946247Y-84571904D02*
X162803390Y-84571904D01*
X162803390Y-84571904D02*
X162612914Y-84524285D01*
X162612914Y-84524285D02*
X162517676Y-84476666D01*
X162517676Y-84476666D02*
X162422438Y-84381428D01*
X162422438Y-84381428D02*
X162374819Y-84238571D01*
X162374819Y-84238571D02*
X162374819Y-84143333D01*
X162374819Y-84143333D02*
X162422438Y-84000476D01*
X162422438Y-84000476D02*
X162470057Y-83952857D01*
X163374819Y-83000476D02*
X163374819Y-83571904D01*
X163374819Y-83286190D02*
X162374819Y-83286190D01*
X162374819Y-83286190D02*
X162517676Y-83381428D01*
X162517676Y-83381428D02*
X162612914Y-83476666D01*
X162612914Y-83476666D02*
X162660533Y-83571904D01*
X162374819Y-82143333D02*
X162374819Y-82333809D01*
X162374819Y-82333809D02*
X162422438Y-82429047D01*
X162422438Y-82429047D02*
X162470057Y-82476666D01*
X162470057Y-82476666D02*
X162612914Y-82571904D01*
X162612914Y-82571904D02*
X162803390Y-82619523D01*
X162803390Y-82619523D02*
X163184342Y-82619523D01*
X163184342Y-82619523D02*
X163279580Y-82571904D01*
X163279580Y-82571904D02*
X163327200Y-82524285D01*
X163327200Y-82524285D02*
X163374819Y-82429047D01*
X163374819Y-82429047D02*
X163374819Y-82238571D01*
X163374819Y-82238571D02*
X163327200Y-82143333D01*
X163327200Y-82143333D02*
X163279580Y-82095714D01*
X163279580Y-82095714D02*
X163184342Y-82048095D01*
X163184342Y-82048095D02*
X162946247Y-82048095D01*
X162946247Y-82048095D02*
X162851009Y-82095714D01*
X162851009Y-82095714D02*
X162803390Y-82143333D01*
X162803390Y-82143333D02*
X162755771Y-82238571D01*
X162755771Y-82238571D02*
X162755771Y-82429047D01*
X162755771Y-82429047D02*
X162803390Y-82524285D01*
X162803390Y-82524285D02*
X162851009Y-82571904D01*
X162851009Y-82571904D02*
X162946247Y-82619523D01*
X162109580Y-104562857D02*
X162157200Y-104610476D01*
X162157200Y-104610476D02*
X162204819Y-104753333D01*
X162204819Y-104753333D02*
X162204819Y-104848571D01*
X162204819Y-104848571D02*
X162157200Y-104991428D01*
X162157200Y-104991428D02*
X162061961Y-105086666D01*
X162061961Y-105086666D02*
X161966723Y-105134285D01*
X161966723Y-105134285D02*
X161776247Y-105181904D01*
X161776247Y-105181904D02*
X161633390Y-105181904D01*
X161633390Y-105181904D02*
X161442914Y-105134285D01*
X161442914Y-105134285D02*
X161347676Y-105086666D01*
X161347676Y-105086666D02*
X161252438Y-104991428D01*
X161252438Y-104991428D02*
X161204819Y-104848571D01*
X161204819Y-104848571D02*
X161204819Y-104753333D01*
X161204819Y-104753333D02*
X161252438Y-104610476D01*
X161252438Y-104610476D02*
X161300057Y-104562857D01*
X161300057Y-104181904D02*
X161252438Y-104134285D01*
X161252438Y-104134285D02*
X161204819Y-104039047D01*
X161204819Y-104039047D02*
X161204819Y-103800952D01*
X161204819Y-103800952D02*
X161252438Y-103705714D01*
X161252438Y-103705714D02*
X161300057Y-103658095D01*
X161300057Y-103658095D02*
X161395295Y-103610476D01*
X161395295Y-103610476D02*
X161490533Y-103610476D01*
X161490533Y-103610476D02*
X161633390Y-103658095D01*
X161633390Y-103658095D02*
X162204819Y-104229523D01*
X162204819Y-104229523D02*
X162204819Y-103610476D01*
X161204819Y-102991428D02*
X161204819Y-102896190D01*
X161204819Y-102896190D02*
X161252438Y-102800952D01*
X161252438Y-102800952D02*
X161300057Y-102753333D01*
X161300057Y-102753333D02*
X161395295Y-102705714D01*
X161395295Y-102705714D02*
X161585771Y-102658095D01*
X161585771Y-102658095D02*
X161823866Y-102658095D01*
X161823866Y-102658095D02*
X162014342Y-102705714D01*
X162014342Y-102705714D02*
X162109580Y-102753333D01*
X162109580Y-102753333D02*
X162157200Y-102800952D01*
X162157200Y-102800952D02*
X162204819Y-102896190D01*
X162204819Y-102896190D02*
X162204819Y-102991428D01*
X162204819Y-102991428D02*
X162157200Y-103086666D01*
X162157200Y-103086666D02*
X162109580Y-103134285D01*
X162109580Y-103134285D02*
X162014342Y-103181904D01*
X162014342Y-103181904D02*
X161823866Y-103229523D01*
X161823866Y-103229523D02*
X161585771Y-103229523D01*
X161585771Y-103229523D02*
X161395295Y-103181904D01*
X161395295Y-103181904D02*
X161300057Y-103134285D01*
X161300057Y-103134285D02*
X161252438Y-103086666D01*
X161252438Y-103086666D02*
X161204819Y-102991428D01*
D12*
X177864318Y-107755832D02*
X178771461Y-107755832D01*
X178771461Y-107755832D02*
X178952889Y-107816309D01*
X178952889Y-107816309D02*
X179073842Y-107937261D01*
X179073842Y-107937261D02*
X179134318Y-108118690D01*
X179134318Y-108118690D02*
X179134318Y-108239642D01*
X177985270Y-107211547D02*
X177924794Y-107151071D01*
X177924794Y-107151071D02*
X177864318Y-107030118D01*
X177864318Y-107030118D02*
X177864318Y-106727737D01*
X177864318Y-106727737D02*
X177924794Y-106606785D01*
X177924794Y-106606785D02*
X177985270Y-106546309D01*
X177985270Y-106546309D02*
X178106222Y-106485832D01*
X178106222Y-106485832D02*
X178227175Y-106485832D01*
X178227175Y-106485832D02*
X178408603Y-106546309D01*
X178408603Y-106546309D02*
X179134318Y-107272023D01*
X179134318Y-107272023D02*
X179134318Y-106485832D01*
D11*
X167127142Y-99339580D02*
X167079523Y-99387200D01*
X167079523Y-99387200D02*
X166936666Y-99434819D01*
X166936666Y-99434819D02*
X166841428Y-99434819D01*
X166841428Y-99434819D02*
X166698571Y-99387200D01*
X166698571Y-99387200D02*
X166603333Y-99291961D01*
X166603333Y-99291961D02*
X166555714Y-99196723D01*
X166555714Y-99196723D02*
X166508095Y-99006247D01*
X166508095Y-99006247D02*
X166508095Y-98863390D01*
X166508095Y-98863390D02*
X166555714Y-98672914D01*
X166555714Y-98672914D02*
X166603333Y-98577676D01*
X166603333Y-98577676D02*
X166698571Y-98482438D01*
X166698571Y-98482438D02*
X166841428Y-98434819D01*
X166841428Y-98434819D02*
X166936666Y-98434819D01*
X166936666Y-98434819D02*
X167079523Y-98482438D01*
X167079523Y-98482438D02*
X167127142Y-98530057D01*
X168079523Y-99434819D02*
X167508095Y-99434819D01*
X167793809Y-99434819D02*
X167793809Y-98434819D01*
X167793809Y-98434819D02*
X167698571Y-98577676D01*
X167698571Y-98577676D02*
X167603333Y-98672914D01*
X167603333Y-98672914D02*
X167508095Y-98720533D01*
X168460476Y-98530057D02*
X168508095Y-98482438D01*
X168508095Y-98482438D02*
X168603333Y-98434819D01*
X168603333Y-98434819D02*
X168841428Y-98434819D01*
X168841428Y-98434819D02*
X168936666Y-98482438D01*
X168936666Y-98482438D02*
X168984285Y-98530057D01*
X168984285Y-98530057D02*
X169031904Y-98625295D01*
X169031904Y-98625295D02*
X169031904Y-98720533D01*
X169031904Y-98720533D02*
X168984285Y-98863390D01*
X168984285Y-98863390D02*
X168412857Y-99434819D01*
X168412857Y-99434819D02*
X169031904Y-99434819D01*
X150703333Y-81909580D02*
X150655714Y-81957200D01*
X150655714Y-81957200D02*
X150512857Y-82004819D01*
X150512857Y-82004819D02*
X150417619Y-82004819D01*
X150417619Y-82004819D02*
X150274762Y-81957200D01*
X150274762Y-81957200D02*
X150179524Y-81861961D01*
X150179524Y-81861961D02*
X150131905Y-81766723D01*
X150131905Y-81766723D02*
X150084286Y-81576247D01*
X150084286Y-81576247D02*
X150084286Y-81433390D01*
X150084286Y-81433390D02*
X150131905Y-81242914D01*
X150131905Y-81242914D02*
X150179524Y-81147676D01*
X150179524Y-81147676D02*
X150274762Y-81052438D01*
X150274762Y-81052438D02*
X150417619Y-81004819D01*
X150417619Y-81004819D02*
X150512857Y-81004819D01*
X150512857Y-81004819D02*
X150655714Y-81052438D01*
X150655714Y-81052438D02*
X150703333Y-81100057D01*
X151036667Y-81004819D02*
X151703333Y-81004819D01*
X151703333Y-81004819D02*
X151274762Y-82004819D01*
X157683333Y-85979580D02*
X157635714Y-86027200D01*
X157635714Y-86027200D02*
X157492857Y-86074819D01*
X157492857Y-86074819D02*
X157397619Y-86074819D01*
X157397619Y-86074819D02*
X157254762Y-86027200D01*
X157254762Y-86027200D02*
X157159524Y-85931961D01*
X157159524Y-85931961D02*
X157111905Y-85836723D01*
X157111905Y-85836723D02*
X157064286Y-85646247D01*
X157064286Y-85646247D02*
X157064286Y-85503390D01*
X157064286Y-85503390D02*
X157111905Y-85312914D01*
X157111905Y-85312914D02*
X157159524Y-85217676D01*
X157159524Y-85217676D02*
X157254762Y-85122438D01*
X157254762Y-85122438D02*
X157397619Y-85074819D01*
X157397619Y-85074819D02*
X157492857Y-85074819D01*
X157492857Y-85074819D02*
X157635714Y-85122438D01*
X157635714Y-85122438D02*
X157683333Y-85170057D01*
X158254762Y-85503390D02*
X158159524Y-85455771D01*
X158159524Y-85455771D02*
X158111905Y-85408152D01*
X158111905Y-85408152D02*
X158064286Y-85312914D01*
X158064286Y-85312914D02*
X158064286Y-85265295D01*
X158064286Y-85265295D02*
X158111905Y-85170057D01*
X158111905Y-85170057D02*
X158159524Y-85122438D01*
X158159524Y-85122438D02*
X158254762Y-85074819D01*
X158254762Y-85074819D02*
X158445238Y-85074819D01*
X158445238Y-85074819D02*
X158540476Y-85122438D01*
X158540476Y-85122438D02*
X158588095Y-85170057D01*
X158588095Y-85170057D02*
X158635714Y-85265295D01*
X158635714Y-85265295D02*
X158635714Y-85312914D01*
X158635714Y-85312914D02*
X158588095Y-85408152D01*
X158588095Y-85408152D02*
X158540476Y-85455771D01*
X158540476Y-85455771D02*
X158445238Y-85503390D01*
X158445238Y-85503390D02*
X158254762Y-85503390D01*
X158254762Y-85503390D02*
X158159524Y-85551009D01*
X158159524Y-85551009D02*
X158111905Y-85598628D01*
X158111905Y-85598628D02*
X158064286Y-85693866D01*
X158064286Y-85693866D02*
X158064286Y-85884342D01*
X158064286Y-85884342D02*
X158111905Y-85979580D01*
X158111905Y-85979580D02*
X158159524Y-86027200D01*
X158159524Y-86027200D02*
X158254762Y-86074819D01*
X158254762Y-86074819D02*
X158445238Y-86074819D01*
X158445238Y-86074819D02*
X158540476Y-86027200D01*
X158540476Y-86027200D02*
X158588095Y-85979580D01*
X158588095Y-85979580D02*
X158635714Y-85884342D01*
X158635714Y-85884342D02*
X158635714Y-85693866D01*
X158635714Y-85693866D02*
X158588095Y-85598628D01*
X158588095Y-85598628D02*
X158540476Y-85551009D01*
X158540476Y-85551009D02*
X158445238Y-85503390D01*
D12*
X154022380Y-94484318D02*
X154022380Y-95512413D01*
X154022380Y-95512413D02*
X154082857Y-95633365D01*
X154082857Y-95633365D02*
X154143333Y-95693842D01*
X154143333Y-95693842D02*
X154264285Y-95754318D01*
X154264285Y-95754318D02*
X154506190Y-95754318D01*
X154506190Y-95754318D02*
X154627142Y-95693842D01*
X154627142Y-95693842D02*
X154687619Y-95633365D01*
X154687619Y-95633365D02*
X154748095Y-95512413D01*
X154748095Y-95512413D02*
X154748095Y-94484318D01*
X156018095Y-95754318D02*
X155292380Y-95754318D01*
X155655237Y-95754318D02*
X155655237Y-94484318D01*
X155655237Y-94484318D02*
X155534285Y-94665746D01*
X155534285Y-94665746D02*
X155413333Y-94786699D01*
X155413333Y-94786699D02*
X155292380Y-94847175D01*
D11*
X154727142Y-85049580D02*
X154679523Y-85097200D01*
X154679523Y-85097200D02*
X154536666Y-85144819D01*
X154536666Y-85144819D02*
X154441428Y-85144819D01*
X154441428Y-85144819D02*
X154298571Y-85097200D01*
X154298571Y-85097200D02*
X154203333Y-85001961D01*
X154203333Y-85001961D02*
X154155714Y-84906723D01*
X154155714Y-84906723D02*
X154108095Y-84716247D01*
X154108095Y-84716247D02*
X154108095Y-84573390D01*
X154108095Y-84573390D02*
X154155714Y-84382914D01*
X154155714Y-84382914D02*
X154203333Y-84287676D01*
X154203333Y-84287676D02*
X154298571Y-84192438D01*
X154298571Y-84192438D02*
X154441428Y-84144819D01*
X154441428Y-84144819D02*
X154536666Y-84144819D01*
X154536666Y-84144819D02*
X154679523Y-84192438D01*
X154679523Y-84192438D02*
X154727142Y-84240057D01*
X155679523Y-85144819D02*
X155108095Y-85144819D01*
X155393809Y-85144819D02*
X155393809Y-84144819D01*
X155393809Y-84144819D02*
X155298571Y-84287676D01*
X155298571Y-84287676D02*
X155203333Y-84382914D01*
X155203333Y-84382914D02*
X155108095Y-84430533D01*
X156298571Y-84144819D02*
X156393809Y-84144819D01*
X156393809Y-84144819D02*
X156489047Y-84192438D01*
X156489047Y-84192438D02*
X156536666Y-84240057D01*
X156536666Y-84240057D02*
X156584285Y-84335295D01*
X156584285Y-84335295D02*
X156631904Y-84525771D01*
X156631904Y-84525771D02*
X156631904Y-84763866D01*
X156631904Y-84763866D02*
X156584285Y-84954342D01*
X156584285Y-84954342D02*
X156536666Y-85049580D01*
X156536666Y-85049580D02*
X156489047Y-85097200D01*
X156489047Y-85097200D02*
X156393809Y-85144819D01*
X156393809Y-85144819D02*
X156298571Y-85144819D01*
X156298571Y-85144819D02*
X156203333Y-85097200D01*
X156203333Y-85097200D02*
X156155714Y-85049580D01*
X156155714Y-85049580D02*
X156108095Y-84954342D01*
X156108095Y-84954342D02*
X156060476Y-84763866D01*
X156060476Y-84763866D02*
X156060476Y-84525771D01*
X156060476Y-84525771D02*
X156108095Y-84335295D01*
X156108095Y-84335295D02*
X156155714Y-84240057D01*
X156155714Y-84240057D02*
X156203333Y-84192438D01*
X156203333Y-84192438D02*
X156298571Y-84144819D01*
X167439580Y-85482857D02*
X167487200Y-85530476D01*
X167487200Y-85530476D02*
X167534819Y-85673333D01*
X167534819Y-85673333D02*
X167534819Y-85768571D01*
X167534819Y-85768571D02*
X167487200Y-85911428D01*
X167487200Y-85911428D02*
X167391961Y-86006666D01*
X167391961Y-86006666D02*
X167296723Y-86054285D01*
X167296723Y-86054285D02*
X167106247Y-86101904D01*
X167106247Y-86101904D02*
X166963390Y-86101904D01*
X166963390Y-86101904D02*
X166772914Y-86054285D01*
X166772914Y-86054285D02*
X166677676Y-86006666D01*
X166677676Y-86006666D02*
X166582438Y-85911428D01*
X166582438Y-85911428D02*
X166534819Y-85768571D01*
X166534819Y-85768571D02*
X166534819Y-85673333D01*
X166534819Y-85673333D02*
X166582438Y-85530476D01*
X166582438Y-85530476D02*
X166630057Y-85482857D01*
X166630057Y-85101904D02*
X166582438Y-85054285D01*
X166582438Y-85054285D02*
X166534819Y-84959047D01*
X166534819Y-84959047D02*
X166534819Y-84720952D01*
X166534819Y-84720952D02*
X166582438Y-84625714D01*
X166582438Y-84625714D02*
X166630057Y-84578095D01*
X166630057Y-84578095D02*
X166725295Y-84530476D01*
X166725295Y-84530476D02*
X166820533Y-84530476D01*
X166820533Y-84530476D02*
X166963390Y-84578095D01*
X166963390Y-84578095D02*
X167534819Y-85149523D01*
X167534819Y-85149523D02*
X167534819Y-84530476D01*
X166630057Y-84149523D02*
X166582438Y-84101904D01*
X166582438Y-84101904D02*
X166534819Y-84006666D01*
X166534819Y-84006666D02*
X166534819Y-83768571D01*
X166534819Y-83768571D02*
X166582438Y-83673333D01*
X166582438Y-83673333D02*
X166630057Y-83625714D01*
X166630057Y-83625714D02*
X166725295Y-83578095D01*
X166725295Y-83578095D02*
X166820533Y-83578095D01*
X166820533Y-83578095D02*
X166963390Y-83625714D01*
X166963390Y-83625714D02*
X167534819Y-84197142D01*
X167534819Y-84197142D02*
X167534819Y-83578095D01*
X165359580Y-84062857D02*
X165407200Y-84110476D01*
X165407200Y-84110476D02*
X165454819Y-84253333D01*
X165454819Y-84253333D02*
X165454819Y-84348571D01*
X165454819Y-84348571D02*
X165407200Y-84491428D01*
X165407200Y-84491428D02*
X165311961Y-84586666D01*
X165311961Y-84586666D02*
X165216723Y-84634285D01*
X165216723Y-84634285D02*
X165026247Y-84681904D01*
X165026247Y-84681904D02*
X164883390Y-84681904D01*
X164883390Y-84681904D02*
X164692914Y-84634285D01*
X164692914Y-84634285D02*
X164597676Y-84586666D01*
X164597676Y-84586666D02*
X164502438Y-84491428D01*
X164502438Y-84491428D02*
X164454819Y-84348571D01*
X164454819Y-84348571D02*
X164454819Y-84253333D01*
X164454819Y-84253333D02*
X164502438Y-84110476D01*
X164502438Y-84110476D02*
X164550057Y-84062857D01*
X165454819Y-83110476D02*
X165454819Y-83681904D01*
X165454819Y-83396190D02*
X164454819Y-83396190D01*
X164454819Y-83396190D02*
X164597676Y-83491428D01*
X164597676Y-83491428D02*
X164692914Y-83586666D01*
X164692914Y-83586666D02*
X164740533Y-83681904D01*
X164883390Y-82539047D02*
X164835771Y-82634285D01*
X164835771Y-82634285D02*
X164788152Y-82681904D01*
X164788152Y-82681904D02*
X164692914Y-82729523D01*
X164692914Y-82729523D02*
X164645295Y-82729523D01*
X164645295Y-82729523D02*
X164550057Y-82681904D01*
X164550057Y-82681904D02*
X164502438Y-82634285D01*
X164502438Y-82634285D02*
X164454819Y-82539047D01*
X164454819Y-82539047D02*
X164454819Y-82348571D01*
X164454819Y-82348571D02*
X164502438Y-82253333D01*
X164502438Y-82253333D02*
X164550057Y-82205714D01*
X164550057Y-82205714D02*
X164645295Y-82158095D01*
X164645295Y-82158095D02*
X164692914Y-82158095D01*
X164692914Y-82158095D02*
X164788152Y-82205714D01*
X164788152Y-82205714D02*
X164835771Y-82253333D01*
X164835771Y-82253333D02*
X164883390Y-82348571D01*
X164883390Y-82348571D02*
X164883390Y-82539047D01*
X164883390Y-82539047D02*
X164931009Y-82634285D01*
X164931009Y-82634285D02*
X164978628Y-82681904D01*
X164978628Y-82681904D02*
X165073866Y-82729523D01*
X165073866Y-82729523D02*
X165264342Y-82729523D01*
X165264342Y-82729523D02*
X165359580Y-82681904D01*
X165359580Y-82681904D02*
X165407200Y-82634285D01*
X165407200Y-82634285D02*
X165454819Y-82539047D01*
X165454819Y-82539047D02*
X165454819Y-82348571D01*
X165454819Y-82348571D02*
X165407200Y-82253333D01*
X165407200Y-82253333D02*
X165359580Y-82205714D01*
X165359580Y-82205714D02*
X165264342Y-82158095D01*
X165264342Y-82158095D02*
X165073866Y-82158095D01*
X165073866Y-82158095D02*
X164978628Y-82205714D01*
X164978628Y-82205714D02*
X164931009Y-82253333D01*
X164931009Y-82253333D02*
X164883390Y-82348571D01*
X171839580Y-97182857D02*
X171887200Y-97230476D01*
X171887200Y-97230476D02*
X171934819Y-97373333D01*
X171934819Y-97373333D02*
X171934819Y-97468571D01*
X171934819Y-97468571D02*
X171887200Y-97611428D01*
X171887200Y-97611428D02*
X171791961Y-97706666D01*
X171791961Y-97706666D02*
X171696723Y-97754285D01*
X171696723Y-97754285D02*
X171506247Y-97801904D01*
X171506247Y-97801904D02*
X171363390Y-97801904D01*
X171363390Y-97801904D02*
X171172914Y-97754285D01*
X171172914Y-97754285D02*
X171077676Y-97706666D01*
X171077676Y-97706666D02*
X170982438Y-97611428D01*
X170982438Y-97611428D02*
X170934819Y-97468571D01*
X170934819Y-97468571D02*
X170934819Y-97373333D01*
X170934819Y-97373333D02*
X170982438Y-97230476D01*
X170982438Y-97230476D02*
X171030057Y-97182857D01*
X171934819Y-96230476D02*
X171934819Y-96801904D01*
X171934819Y-96516190D02*
X170934819Y-96516190D01*
X170934819Y-96516190D02*
X171077676Y-96611428D01*
X171077676Y-96611428D02*
X171172914Y-96706666D01*
X171172914Y-96706666D02*
X171220533Y-96801904D01*
X170934819Y-95897142D02*
X170934819Y-95230476D01*
X170934819Y-95230476D02*
X171934819Y-95659047D01*
X145109293Y-105194312D02*
X145109293Y-106004901D01*
X145109293Y-106004901D02*
X145156975Y-106100264D01*
X145156975Y-106100264D02*
X145204656Y-106147946D01*
X145204656Y-106147946D02*
X145300020Y-106195627D01*
X145300020Y-106195627D02*
X145490746Y-106195627D01*
X145490746Y-106195627D02*
X145586110Y-106147946D01*
X145586110Y-106147946D02*
X145633791Y-106100264D01*
X145633791Y-106100264D02*
X145681473Y-106004901D01*
X145681473Y-106004901D02*
X145681473Y-105194312D01*
X146587425Y-105528084D02*
X146587425Y-106195627D01*
X146349017Y-105146631D02*
X146110608Y-105861856D01*
X146110608Y-105861856D02*
X146730470Y-105861856D01*
D12*
X135238180Y-116347518D02*
X135238180Y-117375613D01*
X135238180Y-117375613D02*
X135298657Y-117496565D01*
X135298657Y-117496565D02*
X135359133Y-117557042D01*
X135359133Y-117557042D02*
X135480085Y-117617518D01*
X135480085Y-117617518D02*
X135721990Y-117617518D01*
X135721990Y-117617518D02*
X135842942Y-117557042D01*
X135842942Y-117557042D02*
X135903419Y-117496565D01*
X135903419Y-117496565D02*
X135963895Y-117375613D01*
X135963895Y-117375613D02*
X135963895Y-116347518D01*
X137173418Y-116347518D02*
X136568656Y-116347518D01*
X136568656Y-116347518D02*
X136508180Y-116952280D01*
X136508180Y-116952280D02*
X136568656Y-116891803D01*
X136568656Y-116891803D02*
X136689609Y-116831327D01*
X136689609Y-116831327D02*
X136991990Y-116831327D01*
X136991990Y-116831327D02*
X137112942Y-116891803D01*
X137112942Y-116891803D02*
X137173418Y-116952280D01*
X137173418Y-116952280D02*
X137233895Y-117073232D01*
X137233895Y-117073232D02*
X137233895Y-117375613D01*
X137233895Y-117375613D02*
X137173418Y-117496565D01*
X137173418Y-117496565D02*
X137112942Y-117557042D01*
X137112942Y-117557042D02*
X136991990Y-117617518D01*
X136991990Y-117617518D02*
X136689609Y-117617518D01*
X136689609Y-117617518D02*
X136568656Y-117557042D01*
X136568656Y-117557042D02*
X136508180Y-117496565D01*
D11*
X170989580Y-89742857D02*
X171037200Y-89790476D01*
X171037200Y-89790476D02*
X171084819Y-89933333D01*
X171084819Y-89933333D02*
X171084819Y-90028571D01*
X171084819Y-90028571D02*
X171037200Y-90171428D01*
X171037200Y-90171428D02*
X170941961Y-90266666D01*
X170941961Y-90266666D02*
X170846723Y-90314285D01*
X170846723Y-90314285D02*
X170656247Y-90361904D01*
X170656247Y-90361904D02*
X170513390Y-90361904D01*
X170513390Y-90361904D02*
X170322914Y-90314285D01*
X170322914Y-90314285D02*
X170227676Y-90266666D01*
X170227676Y-90266666D02*
X170132438Y-90171428D01*
X170132438Y-90171428D02*
X170084819Y-90028571D01*
X170084819Y-90028571D02*
X170084819Y-89933333D01*
X170084819Y-89933333D02*
X170132438Y-89790476D01*
X170132438Y-89790476D02*
X170180057Y-89742857D01*
X171084819Y-88790476D02*
X171084819Y-89361904D01*
X171084819Y-89076190D02*
X170084819Y-89076190D01*
X170084819Y-89076190D02*
X170227676Y-89171428D01*
X170227676Y-89171428D02*
X170322914Y-89266666D01*
X170322914Y-89266666D02*
X170370533Y-89361904D01*
X170084819Y-87885714D02*
X170084819Y-88361904D01*
X170084819Y-88361904D02*
X170561009Y-88409523D01*
X170561009Y-88409523D02*
X170513390Y-88361904D01*
X170513390Y-88361904D02*
X170465771Y-88266666D01*
X170465771Y-88266666D02*
X170465771Y-88028571D01*
X170465771Y-88028571D02*
X170513390Y-87933333D01*
X170513390Y-87933333D02*
X170561009Y-87885714D01*
X170561009Y-87885714D02*
X170656247Y-87838095D01*
X170656247Y-87838095D02*
X170894342Y-87838095D01*
X170894342Y-87838095D02*
X170989580Y-87885714D01*
X170989580Y-87885714D02*
X171037200Y-87933333D01*
X171037200Y-87933333D02*
X171084819Y-88028571D01*
X171084819Y-88028571D02*
X171084819Y-88266666D01*
X171084819Y-88266666D02*
X171037200Y-88361904D01*
X171037200Y-88361904D02*
X170989580Y-88409523D01*
X164833333Y-94994819D02*
X164500000Y-94518628D01*
X164261905Y-94994819D02*
X164261905Y-93994819D01*
X164261905Y-93994819D02*
X164642857Y-93994819D01*
X164642857Y-93994819D02*
X164738095Y-94042438D01*
X164738095Y-94042438D02*
X164785714Y-94090057D01*
X164785714Y-94090057D02*
X164833333Y-94185295D01*
X164833333Y-94185295D02*
X164833333Y-94328152D01*
X164833333Y-94328152D02*
X164785714Y-94423390D01*
X164785714Y-94423390D02*
X164738095Y-94471009D01*
X164738095Y-94471009D02*
X164642857Y-94518628D01*
X164642857Y-94518628D02*
X164261905Y-94518628D01*
X165214286Y-94090057D02*
X165261905Y-94042438D01*
X165261905Y-94042438D02*
X165357143Y-93994819D01*
X165357143Y-93994819D02*
X165595238Y-93994819D01*
X165595238Y-93994819D02*
X165690476Y-94042438D01*
X165690476Y-94042438D02*
X165738095Y-94090057D01*
X165738095Y-94090057D02*
X165785714Y-94185295D01*
X165785714Y-94185295D02*
X165785714Y-94280533D01*
X165785714Y-94280533D02*
X165738095Y-94423390D01*
X165738095Y-94423390D02*
X165166667Y-94994819D01*
X165166667Y-94994819D02*
X165785714Y-94994819D01*
D12*
X135784318Y-107755832D02*
X136691461Y-107755832D01*
X136691461Y-107755832D02*
X136872889Y-107816309D01*
X136872889Y-107816309D02*
X136993842Y-107937261D01*
X136993842Y-107937261D02*
X137054318Y-108118690D01*
X137054318Y-108118690D02*
X137054318Y-108239642D01*
X137054318Y-106485832D02*
X137054318Y-107211547D01*
X137054318Y-106848690D02*
X135784318Y-106848690D01*
X135784318Y-106848690D02*
X135965746Y-106969642D01*
X135965746Y-106969642D02*
X136086699Y-107090594D01*
X136086699Y-107090594D02*
X136147175Y-107211547D01*
D11*
X165062080Y-85142857D02*
X165109700Y-85190476D01*
X165109700Y-85190476D02*
X165157319Y-85333333D01*
X165157319Y-85333333D02*
X165157319Y-85428571D01*
X165157319Y-85428571D02*
X165109700Y-85571428D01*
X165109700Y-85571428D02*
X165014461Y-85666666D01*
X165014461Y-85666666D02*
X164919223Y-85714285D01*
X164919223Y-85714285D02*
X164728747Y-85761904D01*
X164728747Y-85761904D02*
X164585890Y-85761904D01*
X164585890Y-85761904D02*
X164395414Y-85714285D01*
X164395414Y-85714285D02*
X164300176Y-85666666D01*
X164300176Y-85666666D02*
X164204938Y-85571428D01*
X164204938Y-85571428D02*
X164157319Y-85428571D01*
X164157319Y-85428571D02*
X164157319Y-85333333D01*
X164157319Y-85333333D02*
X164204938Y-85190476D01*
X164204938Y-85190476D02*
X164252557Y-85142857D01*
X164252557Y-84761904D02*
X164204938Y-84714285D01*
X164204938Y-84714285D02*
X164157319Y-84619047D01*
X164157319Y-84619047D02*
X164157319Y-84380952D01*
X164157319Y-84380952D02*
X164204938Y-84285714D01*
X164204938Y-84285714D02*
X164252557Y-84238095D01*
X164252557Y-84238095D02*
X164347795Y-84190476D01*
X164347795Y-84190476D02*
X164443033Y-84190476D01*
X164443033Y-84190476D02*
X164585890Y-84238095D01*
X164585890Y-84238095D02*
X165157319Y-84809523D01*
X165157319Y-84809523D02*
X165157319Y-84190476D01*
X164157319Y-83857142D02*
X164157319Y-83238095D01*
X164157319Y-83238095D02*
X164538271Y-83571428D01*
X164538271Y-83571428D02*
X164538271Y-83428571D01*
X164538271Y-83428571D02*
X164585890Y-83333333D01*
X164585890Y-83333333D02*
X164633509Y-83285714D01*
X164633509Y-83285714D02*
X164728747Y-83238095D01*
X164728747Y-83238095D02*
X164966842Y-83238095D01*
X164966842Y-83238095D02*
X165062080Y-83285714D01*
X165062080Y-83285714D02*
X165109700Y-83333333D01*
X165109700Y-83333333D02*
X165157319Y-83428571D01*
X165157319Y-83428571D02*
X165157319Y-83714285D01*
X165157319Y-83714285D02*
X165109700Y-83809523D01*
X165109700Y-83809523D02*
X165062080Y-83857142D01*
X152013333Y-85479580D02*
X151965714Y-85527200D01*
X151965714Y-85527200D02*
X151822857Y-85574819D01*
X151822857Y-85574819D02*
X151727619Y-85574819D01*
X151727619Y-85574819D02*
X151584762Y-85527200D01*
X151584762Y-85527200D02*
X151489524Y-85431961D01*
X151489524Y-85431961D02*
X151441905Y-85336723D01*
X151441905Y-85336723D02*
X151394286Y-85146247D01*
X151394286Y-85146247D02*
X151394286Y-85003390D01*
X151394286Y-85003390D02*
X151441905Y-84812914D01*
X151441905Y-84812914D02*
X151489524Y-84717676D01*
X151489524Y-84717676D02*
X151584762Y-84622438D01*
X151584762Y-84622438D02*
X151727619Y-84574819D01*
X151727619Y-84574819D02*
X151822857Y-84574819D01*
X151822857Y-84574819D02*
X151965714Y-84622438D01*
X151965714Y-84622438D02*
X152013333Y-84670057D01*
X152489524Y-85574819D02*
X152680000Y-85574819D01*
X152680000Y-85574819D02*
X152775238Y-85527200D01*
X152775238Y-85527200D02*
X152822857Y-85479580D01*
X152822857Y-85479580D02*
X152918095Y-85336723D01*
X152918095Y-85336723D02*
X152965714Y-85146247D01*
X152965714Y-85146247D02*
X152965714Y-84765295D01*
X152965714Y-84765295D02*
X152918095Y-84670057D01*
X152918095Y-84670057D02*
X152870476Y-84622438D01*
X152870476Y-84622438D02*
X152775238Y-84574819D01*
X152775238Y-84574819D02*
X152584762Y-84574819D01*
X152584762Y-84574819D02*
X152489524Y-84622438D01*
X152489524Y-84622438D02*
X152441905Y-84670057D01*
X152441905Y-84670057D02*
X152394286Y-84765295D01*
X152394286Y-84765295D02*
X152394286Y-85003390D01*
X152394286Y-85003390D02*
X152441905Y-85098628D01*
X152441905Y-85098628D02*
X152489524Y-85146247D01*
X152489524Y-85146247D02*
X152584762Y-85193866D01*
X152584762Y-85193866D02*
X152775238Y-85193866D01*
X152775238Y-85193866D02*
X152870476Y-85146247D01*
X152870476Y-85146247D02*
X152918095Y-85098628D01*
X152918095Y-85098628D02*
X152965714Y-85003390D01*
D13*
%TO.C,R3*%
X171507500Y-96045276D02*
X171507500Y-96554724D01*
X172552500Y-96045276D02*
X172552500Y-96554724D01*
D14*
%TO.C,U3*%
X147940000Y-109790000D02*
X147940000Y-109790000D01*
X147940000Y-109890000D02*
X147940000Y-109890000D01*
X150040000Y-110190000D02*
X149940000Y-110190000D01*
X150140000Y-108190000D02*
X149940000Y-108190000D01*
X147940000Y-109790000D02*
G75*
G02*
X147940000Y-109890000I0J-50000D01*
G01*
X147940000Y-109890000D02*
G75*
G02*
X147940000Y-109790000I0J50000D01*
G01*
D13*
%TO.C,C4*%
X140287500Y-91336233D02*
X140287500Y-91628767D01*
X141307500Y-91336233D02*
X141307500Y-91628767D01*
D15*
%TO.C,C26*%
X158715000Y-104750000D02*
X156125000Y-104750000D01*
D13*
%TO.C,C2*%
X142158752Y-97642500D02*
X141636248Y-97642500D01*
X142158752Y-99112500D02*
X141636248Y-99112500D01*
D14*
%TO.C,U6*%
X142705800Y-115543200D02*
X142705800Y-118543200D01*
X144705800Y-113543200D02*
X147705800Y-113543200D01*
X144705800Y-120543200D02*
X147705800Y-120543200D01*
X149705800Y-115543200D02*
X149705800Y-118543200D01*
D13*
%TO.C,C13*%
X144268748Y-81825000D02*
X144791252Y-81825000D01*
X144268748Y-83295000D02*
X144791252Y-83295000D01*
D15*
%TO.C,C25*%
X154255000Y-104770000D02*
X151665000Y-104770000D01*
D13*
%TO.C,C11*%
X167728748Y-102005000D02*
X168251252Y-102005000D01*
X167728748Y-103475000D02*
X168251252Y-103475000D01*
D14*
%TO.C,J3*%
X167705800Y-115543200D02*
X167705800Y-118543200D01*
X169705800Y-113543200D02*
X172705800Y-113543200D01*
X169705800Y-120543200D02*
X172705800Y-120543200D01*
X174705800Y-115543200D02*
X174705800Y-118543200D01*
%TO.C,j4*%
X157705800Y-115543200D02*
X157705800Y-118543200D01*
X159705800Y-113543200D02*
X162705800Y-113543200D01*
X159705800Y-120543200D02*
X162705800Y-120543200D01*
X164705800Y-115543200D02*
X164705800Y-118543200D01*
D13*
%TO.C,L1*%
X152430200Y-101280000D02*
X152229800Y-101280000D01*
X152430200Y-102000000D02*
X152229800Y-102000000D01*
%TO.C,C3*%
X145213400Y-101850648D02*
X145213400Y-102373152D01*
X146683400Y-101850648D02*
X146683400Y-102373152D01*
%TO.C,C14*%
X144623733Y-84360000D02*
X144916267Y-84360000D01*
X144623733Y-85380000D02*
X144916267Y-85380000D01*
%TO.C,R1*%
X151715276Y-84107500D02*
X152224724Y-84107500D01*
X151715276Y-85152500D02*
X152224724Y-85152500D01*
%TO.C,C1*%
X138022500Y-91391248D02*
X138022500Y-91913752D01*
X139492500Y-91391248D02*
X139492500Y-91913752D01*
%TO.C,C6*%
X143128400Y-101823133D02*
X143128400Y-102115667D01*
X144148400Y-101823133D02*
X144148400Y-102115667D01*
D16*
%TO.C,FB1*%
X149510000Y-102790000D02*
X149810000Y-102790000D01*
D13*
%TO.C,C21*%
X169718748Y-92070000D02*
X171141252Y-92070000D01*
X169718748Y-93890000D02*
X171141252Y-93890000D01*
%TO.C,L2*%
X157299800Y-101310000D02*
X157500200Y-101310000D01*
X157299800Y-102030000D02*
X157500200Y-102030000D01*
%TO.C,R4*%
X167567621Y-94610000D02*
X167232379Y-94610000D01*
X167567621Y-95370000D02*
X167232379Y-95370000D01*
D17*
%TO.C,U2*%
X163546800Y-106421800D02*
X163546800Y-106821800D01*
X163546800Y-111421800D02*
X163546800Y-111021800D01*
X163946800Y-106421800D02*
X163546800Y-106421800D01*
X163946800Y-111421800D02*
X163546800Y-111421800D01*
X168546800Y-106421800D02*
X168146800Y-106421800D01*
X168546800Y-106821800D02*
X168546800Y-106421800D01*
X168546800Y-111021800D02*
X168546800Y-111421800D01*
X168546800Y-111421800D02*
X168146800Y-111421800D01*
D18*
X167896800Y-105421800D02*
G75*
G02*
X167796800Y-105421800I-50000J0D01*
G01*
X167796800Y-105421800D02*
G75*
G02*
X167896800Y-105421800I50000J0D01*
G01*
D13*
%TO.C,C5*%
X142313767Y-95907500D02*
X142021233Y-95907500D01*
X142313767Y-96927500D02*
X142021233Y-96927500D01*
%TO.C,C19*%
X166300000Y-89733733D02*
X166300000Y-90026267D01*
X167320000Y-89733733D02*
X167320000Y-90026267D01*
%TO.C,C16*%
X160505000Y-83048748D02*
X160505000Y-83571252D01*
X161975000Y-83048748D02*
X161975000Y-83571252D01*
%TO.C,C20*%
X159810000Y-103773733D02*
X159810000Y-104066267D01*
X160830000Y-103773733D02*
X160830000Y-104066267D01*
D15*
%TO.C,J2*%
X173610000Y-83787500D02*
X173610000Y-107032500D01*
X173610000Y-107032500D02*
X176180000Y-107052500D01*
X176180000Y-107052500D02*
X176225000Y-83787500D01*
X176225000Y-83787500D02*
X173685000Y-83787500D01*
D13*
%TO.C,C12*%
X167623733Y-99900000D02*
X167916267Y-99900000D01*
X167623733Y-100920000D02*
X167916267Y-100920000D01*
%TO.C,C7*%
X150754165Y-82350000D02*
X150985835Y-82350000D01*
X150754165Y-83070000D02*
X150985835Y-83070000D01*
%TO.C,C8*%
X156545835Y-84060000D02*
X156314165Y-84060000D01*
X156545835Y-84780000D02*
X156314165Y-84780000D01*
D19*
%TO.C,U1*%
X152215000Y-92680000D02*
G75*
G02*
X151965000Y-92680000I-125000J0D01*
G01*
X151965000Y-92680000D02*
G75*
G02*
X152215000Y-92680000I125000J0D01*
G01*
D13*
%TO.C,C10*%
X155254165Y-85490000D02*
X155485835Y-85490000D01*
X155254165Y-86210000D02*
X155485835Y-86210000D01*
%TO.C,C22*%
X168025000Y-85101252D02*
X168025000Y-84578748D01*
X169495000Y-85101252D02*
X169495000Y-84578748D01*
%TO.C,C18*%
X163060000Y-83273733D02*
X163060000Y-83566267D01*
X164080000Y-83273733D02*
X164080000Y-83566267D01*
%TO.C,C17*%
X169065000Y-96278748D02*
X169065000Y-96801252D01*
X170535000Y-96278748D02*
X170535000Y-96801252D01*
D17*
%TO.C,U4*%
X138841300Y-105504700D02*
X139241300Y-105504700D01*
X138841300Y-105904700D02*
X138841300Y-105504700D01*
X138841300Y-110504700D02*
X138841300Y-110104700D01*
X139241300Y-110504700D02*
X138841300Y-110504700D01*
X143441300Y-110504700D02*
X143841300Y-110504700D01*
X143841300Y-105504700D02*
X143441300Y-105504700D01*
X143841300Y-105904700D02*
X143841300Y-105504700D01*
X143841300Y-110504700D02*
X143841300Y-110104700D01*
D18*
X144891300Y-109804700D02*
G75*
G02*
X144791300Y-109804700I-50000J0D01*
G01*
X144791300Y-109804700D02*
G75*
G02*
X144891300Y-109804700I50000J0D01*
G01*
D14*
%TO.C,U5*%
X132705800Y-115543200D02*
X132705800Y-118543200D01*
X134705800Y-113543200D02*
X137705800Y-113543200D01*
X134705800Y-120543200D02*
X137705800Y-120543200D01*
X139705800Y-115543200D02*
X139705800Y-118543200D01*
D13*
%TO.C,C15*%
X168215000Y-88838748D02*
X168215000Y-89361252D01*
X169685000Y-88838748D02*
X169685000Y-89361252D01*
%TO.C,R2*%
X165227064Y-92155000D02*
X164772936Y-92155000D01*
X165227064Y-93625000D02*
X164772936Y-93625000D01*
D15*
%TO.C,J1*%
X131530000Y-83787500D02*
X131530000Y-107032500D01*
X131530000Y-107032500D02*
X134100000Y-107052500D01*
X134100000Y-107052500D02*
X134145000Y-83787500D01*
X134145000Y-83787500D02*
X131605000Y-83787500D01*
D13*
%TO.C,C23*%
X165822500Y-85196267D02*
X165822500Y-84903733D01*
X166842500Y-85196267D02*
X166842500Y-84903733D01*
%TO.C,C9*%
X152064165Y-85920000D02*
X152295835Y-85920000D01*
X152064165Y-86640000D02*
X152295835Y-86640000D01*
%TD*%
%LPC*%
D20*
%TO.C,R3*%
X172030000Y-95387500D03*
X172030000Y-97212500D03*
%TD*%
D21*
%TO.C,U3*%
X148903000Y-109900000D03*
D22*
X148725000Y-109190000D03*
D21*
X148903000Y-108480000D03*
D22*
X150555000Y-108480000D03*
D21*
X150377000Y-109190000D03*
D22*
X150555000Y-109900000D03*
D23*
X149640000Y-109190000D03*
%TD*%
D24*
%TO.C,C4*%
X140797500Y-90620000D03*
X140797500Y-92345000D03*
%TD*%
D25*
%TO.C,C26*%
X157420000Y-103410000D03*
X157420000Y-106090000D03*
%TD*%
D26*
%TO.C,C2*%
X142935000Y-98377500D03*
X140860000Y-98377500D03*
%TD*%
D27*
%TO.C,U6*%
X146205800Y-117043200D03*
X143665800Y-114503200D03*
X143665800Y-119583200D03*
X148745800Y-119583200D03*
X148745800Y-114503200D03*
%TD*%
D28*
%TO.C,C24*%
X163710000Y-96625000D03*
X163710000Y-95610000D03*
%TD*%
D29*
%TO.C,C13*%
X143492500Y-82560000D03*
X145567500Y-82560000D03*
%TD*%
D25*
%TO.C,C25*%
X152960000Y-103430000D03*
X152960000Y-106110000D03*
%TD*%
D29*
%TO.C,C11*%
X166952500Y-102740000D03*
X169027500Y-102740000D03*
%TD*%
D27*
%TO.C,J3*%
X171205800Y-117043200D03*
X168665800Y-114503200D03*
X168665800Y-119583200D03*
X173745800Y-119583200D03*
X173745800Y-114503200D03*
%TD*%
%TO.C,j4*%
X161205800Y-117043200D03*
X158665800Y-114503200D03*
X158665800Y-119583200D03*
X163745800Y-119583200D03*
X163745800Y-114503200D03*
%TD*%
D30*
%TO.C,L1*%
X152902500Y-101640000D03*
X151757500Y-101640000D03*
%TD*%
D31*
%TO.C,C3*%
X145948400Y-101074400D03*
X145948400Y-103149400D03*
%TD*%
D32*
%TO.C,C14*%
X143907500Y-84870000D03*
X145632500Y-84870000D03*
%TD*%
D33*
%TO.C,R1*%
X151057500Y-84630000D03*
X152882500Y-84630000D03*
%TD*%
D31*
%TO.C,C1*%
X138757500Y-90615000D03*
X138757500Y-92690000D03*
%TD*%
D24*
%TO.C,C6*%
X143638400Y-101106900D03*
X143638400Y-102831900D03*
%TD*%
D34*
%TO.C,FB1*%
X149660000Y-103190000D03*
X149660000Y-102390000D03*
%TD*%
D35*
%TO.C,C21*%
X168867500Y-92980000D03*
X171992500Y-92980000D03*
%TD*%
D36*
%TO.C,L2*%
X156827500Y-101670000D03*
X157972500Y-101670000D03*
%TD*%
D37*
%TO.C,R4*%
X167997500Y-94990000D03*
X166802500Y-94990000D03*
%TD*%
D38*
%TO.C,U2*%
X167831800Y-106476800D03*
X167321800Y-106476800D03*
X166811800Y-106476800D03*
X166301800Y-106476800D03*
X165791800Y-106476800D03*
X165281800Y-106476800D03*
X164771800Y-106476800D03*
X164261800Y-106476800D03*
D39*
X163601800Y-107136800D03*
X163601800Y-107646800D03*
X163601800Y-108156800D03*
X163601800Y-108666800D03*
X163601800Y-109176800D03*
X163601800Y-109686800D03*
X163601800Y-110196800D03*
X163601800Y-110706800D03*
D38*
X164261800Y-111366800D03*
X164771800Y-111366800D03*
X165281800Y-111366800D03*
X165791800Y-111366800D03*
X166301800Y-111366800D03*
X166811800Y-111366800D03*
X167321800Y-111366800D03*
X167831800Y-111366800D03*
D39*
X168491800Y-110706800D03*
X168491800Y-110196800D03*
X168491800Y-109686800D03*
X168491800Y-109176800D03*
X168491800Y-108666800D03*
X168491800Y-108156800D03*
X168491800Y-107646800D03*
X168491800Y-107136800D03*
D40*
X166046800Y-108921800D03*
%TD*%
D41*
%TO.C,C5*%
X143030000Y-96417500D03*
X141305000Y-96417500D03*
%TD*%
D24*
%TO.C,C19*%
X166810000Y-89017500D03*
X166810000Y-90742500D03*
%TD*%
D31*
%TO.C,C16*%
X161240000Y-82272500D03*
X161240000Y-84347500D03*
%TD*%
D24*
%TO.C,C20*%
X160320000Y-103057500D03*
X160320000Y-104782500D03*
%TD*%
D42*
%TO.C,J2*%
X174910000Y-105607500D03*
D43*
X174910000Y-103067500D03*
X174910000Y-100527500D03*
X174910000Y-97987500D03*
X174910000Y-95447500D03*
X174885000Y-92907500D03*
X174885000Y-90367500D03*
X174885000Y-87827500D03*
X174885000Y-85282500D03*
%TD*%
D32*
%TO.C,C12*%
X166907500Y-100410000D03*
X168632500Y-100410000D03*
%TD*%
D44*
%TO.C,C7*%
X150302500Y-82710000D03*
X151437500Y-82710000D03*
%TD*%
D45*
%TO.C,C8*%
X156997500Y-84420000D03*
X155862500Y-84420000D03*
%TD*%
D46*
%TO.C,U1*%
X152490000Y-93430000D03*
X152490000Y-93930000D03*
X152490000Y-94430000D03*
X152490000Y-94930000D03*
X152490000Y-95430000D03*
X152490000Y-95930000D03*
X152490000Y-96430000D03*
X152490000Y-96930000D03*
D47*
X153240000Y-97680000D03*
X153740000Y-97680000D03*
X154240000Y-97680000D03*
X154740000Y-97680000D03*
X155240000Y-97680000D03*
X155740000Y-97680000D03*
X156240000Y-97680000D03*
X156740000Y-97680000D03*
D46*
X157490000Y-96930000D03*
X157490000Y-96430000D03*
X157490000Y-95930000D03*
X157490000Y-95430000D03*
X157490000Y-94930000D03*
X157490000Y-94430000D03*
X157490000Y-93930000D03*
X157490000Y-93430000D03*
D47*
X156740000Y-92680000D03*
X156240000Y-92680000D03*
X155740000Y-92680000D03*
X155240000Y-92680000D03*
X154740000Y-92680000D03*
X154240000Y-92680000D03*
X153740000Y-92680000D03*
X153240000Y-92680000D03*
D48*
X154990000Y-95180000D03*
%TD*%
D44*
%TO.C,C10*%
X154802500Y-85850000D03*
X155937500Y-85850000D03*
%TD*%
D49*
%TO.C,C22*%
X168760000Y-85877500D03*
X168760000Y-83802500D03*
%TD*%
D24*
%TO.C,C18*%
X163570000Y-82557500D03*
X163570000Y-84282500D03*
%TD*%
D31*
%TO.C,C17*%
X169800000Y-95502500D03*
X169800000Y-97577500D03*
%TD*%
D50*
%TO.C,U4*%
X143786300Y-109789700D03*
X143786300Y-109279700D03*
X143786300Y-108769700D03*
X143786300Y-108259700D03*
X143786300Y-107749700D03*
X143786300Y-107239700D03*
X143786300Y-106729700D03*
X143786300Y-106219700D03*
D51*
X143126300Y-105559700D03*
X142616300Y-105559700D03*
X142106300Y-105559700D03*
X141596300Y-105559700D03*
X141086300Y-105559700D03*
X140576300Y-105559700D03*
X140066300Y-105559700D03*
X139556300Y-105559700D03*
D50*
X138896300Y-106219700D03*
X138896300Y-106729700D03*
X138896300Y-107239700D03*
X138896300Y-107749700D03*
X138896300Y-108259700D03*
X138896300Y-108769700D03*
X138896300Y-109279700D03*
X138896300Y-109789700D03*
D51*
X139556300Y-110449700D03*
X140066300Y-110449700D03*
X140576300Y-110449700D03*
X141086300Y-110449700D03*
X141596300Y-110449700D03*
X142106300Y-110449700D03*
X142616300Y-110449700D03*
X143126300Y-110449700D03*
D52*
X141341300Y-108004700D03*
%TD*%
D27*
%TO.C,U5*%
X136205800Y-117043200D03*
X133665800Y-114503200D03*
X133665800Y-119583200D03*
X138745800Y-119583200D03*
X138745800Y-114503200D03*
%TD*%
D31*
%TO.C,C15*%
X168950000Y-88062500D03*
X168950000Y-90137500D03*
%TD*%
D53*
%TO.C,R2*%
X166000000Y-92890000D03*
X164000000Y-92890000D03*
%TD*%
D42*
%TO.C,J1*%
X132830000Y-105607500D03*
D43*
X132830000Y-103067500D03*
X132830000Y-100527500D03*
X132830000Y-97987500D03*
X132830000Y-95447500D03*
X132805000Y-92907500D03*
X132805000Y-90367500D03*
X132805000Y-87827500D03*
X132805000Y-85282500D03*
%TD*%
D54*
%TO.C,C23*%
X166332500Y-85912500D03*
X166332500Y-84187500D03*
%TD*%
D44*
%TO.C,C9*%
X151612500Y-86280000D03*
X152747500Y-86280000D03*
%TD*%
%LPD*%
M02*
