%TF.GenerationSoftware,KiCad,Pcbnew,8.0.0-rc1-6-gb7460f29b4*%
%TF.CreationDate,2025-05-06T11:40:33+02:00*%
%TF.ProjectId,LO_daughter,4c4f5f64-6175-4676-9874-65722e6b6963,rev?*%
%TF.SameCoordinates,Original*%
%TF.FileFunction,Copper,L2,Bot*%
%TF.FilePolarity,Positive*%
%FSLAX46Y46*%
G04 Gerber Fmt 4.6, Leading zero omitted, Abs format (unit mm)*
G04 Created by KiCad (PCBNEW 8.0.0-rc1-6-gb7460f29b4) date 2025-05-06 11:40:33*
%MOMM*%
%LPD*%
G01*
G04 APERTURE LIST*
%TA.AperFunction,ComponentPad*%
%ADD10C,2.400000*%
%TD*%
%TA.AperFunction,ComponentPad*%
%ADD11R,2.100000X2.100000*%
%TD*%
%TA.AperFunction,ComponentPad*%
%ADD12C,2.100000*%
%TD*%
%TA.AperFunction,ViaPad*%
%ADD13C,1.900000*%
%TD*%
%TA.AperFunction,ViaPad*%
%ADD14C,0.800000*%
%TD*%
%TA.AperFunction,Conductor*%
%ADD15C,0.541000*%
%TD*%
%TA.AperFunction,Conductor*%
%ADD16C,1.072000*%
%TD*%
G04 APERTURE END LIST*
D10*
%TO.P,U6,1,1*%
%TO.N,/RF_A2*%
X146205800Y-117043200D03*
%TO.P,U6,2,2*%
%TO.N,GND*%
X143665800Y-114503200D03*
%TO.P,U6,3,3*%
X143665800Y-119583200D03*
%TO.P,U6,4,4*%
X148745800Y-119583200D03*
%TO.P,U6,5,5*%
X148745800Y-114503200D03*
%TD*%
%TO.P,J3,1,1*%
%TO.N,/RF_B2*%
X171205800Y-117043200D03*
%TO.P,J3,2,2*%
%TO.N,GND*%
X168665800Y-114503200D03*
%TO.P,J3,3,3*%
X168665800Y-119583200D03*
%TO.P,J3,4,4*%
X173745800Y-119583200D03*
%TO.P,J3,5,5*%
X173745800Y-114503200D03*
%TD*%
%TO.P,j4,1,1*%
%TO.N,/RF_B1*%
X161205800Y-117043200D03*
%TO.P,j4,2,2*%
%TO.N,GND*%
X158665800Y-114503200D03*
%TO.P,j4,3,3*%
X158665800Y-119583200D03*
%TO.P,j4,4,4*%
X163745800Y-119583200D03*
%TO.P,j4,5,5*%
X163745800Y-114503200D03*
%TD*%
D11*
%TO.P,J2,1,Pin_1*%
%TO.N,unconnected-(J2-Pin_1-Pad1)*%
X174910000Y-105607500D03*
D12*
%TO.P,J2,2,Pin_2*%
%TO.N,unconnected-(J2-Pin_2-Pad2)*%
X174910000Y-103067500D03*
%TO.P,J2,3,Pin_3*%
%TO.N,unconnected-(J2-Pin_3-Pad3)*%
X174910000Y-100527500D03*
%TO.P,J2,4,Pin_4*%
%TO.N,unconnected-(J2-Pin_4-Pad4)*%
X174910000Y-97987500D03*
%TO.P,J2,5,Pin_5*%
%TO.N,unconnected-(J2-Pin_5-Pad5)*%
X174910000Y-95447500D03*
%TO.P,J2,6,Pin_6*%
%TO.N,unconnected-(J2-Pin_6-Pad6)*%
X174885000Y-92907500D03*
%TO.P,J2,7,Pin_7*%
%TO.N,unconnected-(J2-Pin_7-Pad7)*%
X174885000Y-90367500D03*
%TO.P,J2,8,Pin_8*%
%TO.N,unconnected-(J2-Pin_8-Pad8)*%
X174885000Y-87827500D03*
%TO.P,J2,9,Pin_9*%
%TO.N,unconnected-(J2-Pin_9-Pad9)*%
X174885000Y-85282500D03*
%TD*%
D10*
%TO.P,U5,1,1*%
%TO.N,/RF_A1*%
X136205800Y-117043200D03*
%TO.P,U5,2,2*%
%TO.N,GND*%
X133665800Y-114503200D03*
%TO.P,U5,3,3*%
X133665800Y-119583200D03*
%TO.P,U5,4,4*%
X138745800Y-119583200D03*
%TO.P,U5,5,5*%
X138745800Y-114503200D03*
%TD*%
D11*
%TO.P,J1,1,Pin_1*%
%TO.N,/3.3V_a*%
X132830000Y-105607500D03*
D12*
%TO.P,J1,2,Pin_2*%
%TO.N,/3.3V_d*%
X132830000Y-103067500D03*
%TO.P,J1,3,Pin_3*%
%TO.N,/5V*%
X132830000Y-100527500D03*
%TO.P,J1,4,Pin_4*%
%TO.N,/MUXOUT*%
X132830000Y-97987500D03*
%TO.P,J1,5,Pin_5*%
%TO.N,/REFIN_A*%
X132830000Y-95447500D03*
%TO.P,J1,6,Pin_6*%
%TO.N,/LE*%
X132805000Y-92907500D03*
%TO.P,J1,7,Pin_7*%
%TO.N,/DATA*%
X132805000Y-90367500D03*
%TO.P,J1,8,Pin_8*%
%TO.N,/CLK*%
X132805000Y-87827500D03*
%TO.P,J1,9,Pin_9*%
%TO.N,GND*%
X132805000Y-85282500D03*
%TD*%
D13*
%TO.N,/3.3V_d*%
X143690000Y-93970000D03*
X157530000Y-87850000D03*
D14*
%TO.N,GND*%
X172161200Y-110642400D03*
X134797800Y-109956600D03*
X146786600Y-110591600D03*
X142570200Y-111937800D03*
X155210000Y-107390000D03*
X141655800Y-117703600D03*
X140411200Y-116611400D03*
X142367000Y-109016800D03*
X137668000Y-111582200D03*
X162128200Y-108686600D03*
X136910000Y-93750000D03*
X163080000Y-111980000D03*
X166192200Y-112979200D03*
X137515600Y-109931200D03*
X167081200Y-109931200D03*
X156250000Y-93970000D03*
D13*
%TO.N,/3.3V_a*%
X160800000Y-86680000D03*
D14*
%TO.N,GND*%
X140208000Y-106934000D03*
X151257000Y-111328200D03*
X134848600Y-108407200D03*
X134874000Y-104876600D03*
X167284400Y-104470200D03*
X137591800Y-106883200D03*
X145338800Y-106959400D03*
X154660600Y-111302800D03*
X164566600Y-103428800D03*
X159639000Y-112166400D03*
X164922200Y-109931200D03*
X144500600Y-111404400D03*
X159918400Y-110769400D03*
X167030400Y-107848400D03*
X139547600Y-102082600D03*
X172643800Y-111912400D03*
X167987904Y-113221421D03*
X156565600Y-111252000D03*
X137591800Y-102082600D03*
X138049000Y-104978200D03*
X148630000Y-107150000D03*
D13*
%TO.N,/3.3V_a*%
X148717000Y-105181400D03*
D14*
%TO.N,GND*%
X156240000Y-96430000D03*
X161848800Y-106121200D03*
X140258800Y-109042200D03*
X150350000Y-107170000D03*
X166046800Y-108921800D03*
X142646400Y-104063800D03*
X152933400Y-111302800D03*
X158115000Y-110515400D03*
X141376400Y-103911400D03*
X160934400Y-109575600D03*
X171170600Y-109702600D03*
X158724600Y-109143800D03*
X154990000Y-95180000D03*
X155194000Y-108610400D03*
X158750000Y-107696000D03*
X149783800Y-111328200D03*
X137515600Y-108407200D03*
X148278400Y-102451900D03*
D13*
%TO.N,/3.3V_a*%
X141821151Y-101602744D03*
D14*
%TO.N,GND*%
X145470000Y-91460000D03*
X142367000Y-106984800D03*
X160197800Y-106807000D03*
X164973000Y-107899200D03*
X148082000Y-111277400D03*
X139130000Y-97730000D03*
X135763000Y-103073200D03*
X169113200Y-112039400D03*
X145313400Y-110134400D03*
X169672000Y-105435400D03*
X136860000Y-91690000D03*
X153740000Y-93898000D03*
X134772400Y-111556800D03*
X170002200Y-108305600D03*
X146761200Y-107391200D03*
X141341300Y-108004700D03*
X153873200Y-96367600D03*
X163042600Y-103454200D03*
X134874000Y-106781600D03*
D13*
%TO.N,/3.3V_a*%
X161860000Y-101980000D03*
D14*
%TO.N,GND*%
X170002200Y-106959400D03*
D13*
%TO.N,/3.3V_a*%
X154940000Y-101030000D03*
D14*
%TO.N,GND*%
X162179000Y-107137200D03*
D13*
%TO.N,/5V*%
X163850000Y-100220000D03*
X145355000Y-98505000D03*
%TO.N,/REFIN_A*%
X148030000Y-81730000D03*
X135450000Y-95450000D03*
%TO.N,Net-(U1-CPout)*%
X166721321Y-97174907D03*
X147880000Y-98060000D03*
%TO.N,/MUXOUT*%
X135330000Y-97970000D03*
X148980000Y-85230000D03*
%TD*%
D15*
%TO.N,/3.3V_d*%
X143690000Y-93970000D02*
X151410000Y-93970000D01*
X151410000Y-93970000D02*
X157530000Y-87850000D01*
%TO.N,/3.3V_a*%
X160800000Y-86680000D02*
X168370000Y-94250000D01*
X168370000Y-101700000D02*
X168090000Y-101980000D01*
X154940000Y-101030000D02*
X156250000Y-102340000D01*
X132830000Y-105607500D02*
X136913700Y-101523800D01*
X161500000Y-102340000D02*
X161860000Y-101980000D01*
X148717000Y-105181400D02*
X148995600Y-105460000D01*
X158380000Y-105460000D02*
X161860000Y-101980000D01*
X168370000Y-94250000D02*
X168370000Y-101700000D01*
X156250000Y-102340000D02*
X161500000Y-102340000D01*
X145059400Y-101523800D02*
X148717000Y-105181400D01*
X148995600Y-105460000D02*
X158380000Y-105460000D01*
D16*
X154940000Y-101030000D02*
X154940000Y-101060000D01*
D15*
X168090000Y-101980000D02*
X161860000Y-101980000D01*
X136913700Y-101523800D02*
X145059400Y-101523800D01*
%TO.N,/5V*%
X162960000Y-99330000D02*
X163850000Y-100220000D01*
X151090000Y-101020000D02*
X152780000Y-99330000D01*
X145355000Y-98505000D02*
X147870000Y-101020000D01*
X135390000Y-100530000D02*
X135387500Y-100527500D01*
X140890000Y-100530000D02*
X135390000Y-100530000D01*
X147870000Y-101020000D02*
X151090000Y-101020000D01*
X135387500Y-100527500D02*
X132830000Y-100527500D01*
X143100000Y-98320000D02*
X140890000Y-100530000D01*
X145170000Y-98320000D02*
X143100000Y-98320000D01*
X152780000Y-99330000D02*
X162960000Y-99330000D01*
X145355000Y-98505000D02*
X145170000Y-98320000D01*
%TO.N,/REFIN_A*%
X135450000Y-81660000D02*
X135450000Y-95450000D01*
X148030000Y-81730000D02*
X147960000Y-81660000D01*
X147960000Y-81660000D02*
X135450000Y-81660000D01*
%TO.N,Net-(U1-CPout)*%
X150690200Y-97459800D02*
X150090000Y-98060000D01*
X150090000Y-98060000D02*
X147880000Y-98060000D01*
X165444907Y-97174907D02*
X165160014Y-97459800D01*
X165160014Y-97459800D02*
X150690200Y-97459800D01*
X166721321Y-97174907D02*
X165444907Y-97174907D01*
%TO.N,/MUXOUT*%
X135330000Y-97970000D02*
X136240000Y-97970000D01*
X136240000Y-97970000D02*
X148980000Y-85230000D01*
%TD*%
%TA.AperFunction,Conductor*%
%TO.N,GND*%
G36*
X147429814Y-80134809D02*
G01*
X147497917Y-80154868D01*
X147544365Y-80208563D01*
X147554410Y-80278845D01*
X147524863Y-80343401D01*
X147470622Y-80379981D01*
X147442126Y-80389764D01*
X147442119Y-80389766D01*
X147229542Y-80504807D01*
X147229541Y-80504808D01*
X147038792Y-80653274D01*
X146875101Y-80831091D01*
X146874093Y-80832387D01*
X146873546Y-80832780D01*
X146871564Y-80834934D01*
X146871120Y-80834526D01*
X146816469Y-80873861D01*
X146774658Y-80881000D01*
X135373271Y-80881000D01*
X135222773Y-80910937D01*
X135222770Y-80910938D01*
X135081004Y-80969659D01*
X134953417Y-81054910D01*
X134953411Y-81054915D01*
X134844915Y-81163411D01*
X134844910Y-81163417D01*
X134759659Y-81291004D01*
X134700938Y-81432770D01*
X134700937Y-81432773D01*
X134671000Y-81583271D01*
X134671000Y-94146508D01*
X134650998Y-94214629D01*
X134622391Y-94245939D01*
X134458799Y-94373268D01*
X134296070Y-94550039D01*
X134235217Y-94586610D01*
X134164253Y-94584475D01*
X134105707Y-94544314D01*
X134095940Y-94530541D01*
X134094758Y-94528613D01*
X134094754Y-94528607D01*
X134094753Y-94528606D01*
X134094752Y-94528604D01*
X133935433Y-94342067D01*
X133842430Y-94262634D01*
X133803621Y-94203183D01*
X133803115Y-94132188D01*
X133841071Y-94072190D01*
X133842321Y-94071105D01*
X133910433Y-94012933D01*
X134069752Y-93826396D01*
X134197927Y-93617232D01*
X134291805Y-93390592D01*
X134349072Y-93152057D01*
X134368319Y-92907500D01*
X134349072Y-92662943D01*
X134291805Y-92424408D01*
X134197927Y-92197768D01*
X134069752Y-91988604D01*
X133910433Y-91802067D01*
X133829929Y-91733309D01*
X133791121Y-91673860D01*
X133790615Y-91602866D01*
X133828571Y-91542867D01*
X133829879Y-91541732D01*
X133910433Y-91472933D01*
X134069752Y-91286396D01*
X134197927Y-91077232D01*
X134291805Y-90850592D01*
X134349072Y-90612057D01*
X134368319Y-90367500D01*
X134349072Y-90122943D01*
X134291805Y-89884408D01*
X134197927Y-89657768D01*
X134069752Y-89448604D01*
X133910433Y-89262067D01*
X133829929Y-89193309D01*
X133791121Y-89133860D01*
X133790615Y-89062866D01*
X133828571Y-89002867D01*
X133829879Y-89001732D01*
X133910433Y-88932933D01*
X134069752Y-88746396D01*
X134197927Y-88537232D01*
X134291805Y-88310592D01*
X134349072Y-88072057D01*
X134368319Y-87827500D01*
X134349072Y-87582943D01*
X134291805Y-87344408D01*
X134197927Y-87117768D01*
X134069752Y-86908604D01*
X133910433Y-86722067D01*
X133757396Y-86591360D01*
X133742337Y-86578498D01*
X133735073Y-86571782D01*
X132929948Y-85766657D01*
X132997993Y-85748425D01*
X133112007Y-85682599D01*
X133205099Y-85589507D01*
X133270925Y-85475493D01*
X133289157Y-85407448D01*
X134074461Y-86192752D01*
X134074462Y-86192751D01*
X134197479Y-85992008D01*
X134291328Y-85765435D01*
X134348576Y-85526978D01*
X134367817Y-85282500D01*
X134348576Y-85038021D01*
X134291328Y-84799564D01*
X134197479Y-84572991D01*
X134074462Y-84372247D01*
X134074460Y-84372247D01*
X133289157Y-85157550D01*
X133270925Y-85089507D01*
X133205099Y-84975493D01*
X133112007Y-84882401D01*
X132997993Y-84816575D01*
X132929948Y-84798342D01*
X133715251Y-84013038D01*
X133715251Y-84013037D01*
X133514503Y-83890018D01*
X133287935Y-83796171D01*
X133049478Y-83738923D01*
X132805000Y-83719682D01*
X132560521Y-83738923D01*
X132322064Y-83796171D01*
X132095496Y-83890018D01*
X131894747Y-84013037D01*
X131894747Y-84013038D01*
X132680051Y-84798342D01*
X132612007Y-84816575D01*
X132497993Y-84882401D01*
X132404901Y-84975493D01*
X132339075Y-85089507D01*
X132320842Y-85157551D01*
X131535538Y-84372247D01*
X131535537Y-84372247D01*
X131412518Y-84572996D01*
X131318671Y-84799564D01*
X131261423Y-85038021D01*
X131242182Y-85282500D01*
X131261423Y-85526978D01*
X131318671Y-85765435D01*
X131412518Y-85992003D01*
X131535538Y-86192751D01*
X132320841Y-85407447D01*
X132339075Y-85475493D01*
X132404901Y-85589507D01*
X132497993Y-85682599D01*
X132612007Y-85748425D01*
X132680051Y-85766657D01*
X131874913Y-86571795D01*
X131867649Y-86578510D01*
X131699567Y-86722067D01*
X131540245Y-86908607D01*
X131412074Y-87117766D01*
X131412073Y-87117768D01*
X131318195Y-87344408D01*
X131260928Y-87582943D01*
X131241681Y-87827500D01*
X131260928Y-88072057D01*
X131318195Y-88310592D01*
X131412073Y-88537232D01*
X131465094Y-88623756D01*
X131540245Y-88746392D01*
X131540246Y-88746394D01*
X131540248Y-88746396D01*
X131699567Y-88932933D01*
X131765903Y-88989589D01*
X131780069Y-89001689D01*
X131818878Y-89061140D01*
X131819384Y-89132135D01*
X131781428Y-89192133D01*
X131780069Y-89193311D01*
X131699567Y-89262067D01*
X131540245Y-89448607D01*
X131412074Y-89657766D01*
X131412073Y-89657768D01*
X131318195Y-89884408D01*
X131260928Y-90122943D01*
X131241681Y-90367500D01*
X131260928Y-90612057D01*
X131318195Y-90850592D01*
X131412073Y-91077232D01*
X131412074Y-91077233D01*
X131540245Y-91286392D01*
X131540246Y-91286394D01*
X131540248Y-91286396D01*
X131699567Y-91472933D01*
X131765903Y-91529589D01*
X131780069Y-91541689D01*
X131818878Y-91601140D01*
X131819384Y-91672135D01*
X131781428Y-91732133D01*
X131780069Y-91733311D01*
X131699567Y-91802067D01*
X131540245Y-91988607D01*
X131412074Y-92197766D01*
X131318195Y-92424407D01*
X131287735Y-92551283D01*
X131260928Y-92662943D01*
X131241681Y-92907500D01*
X131260928Y-93152057D01*
X131318195Y-93390592D01*
X131412073Y-93617232D01*
X131412074Y-93617233D01*
X131540245Y-93826392D01*
X131540246Y-93826394D01*
X131540248Y-93826396D01*
X131699566Y-94012932D01*
X131699569Y-94012935D01*
X131792568Y-94092364D01*
X131831378Y-94151814D01*
X131831884Y-94222809D01*
X131793928Y-94282808D01*
X131792570Y-94283985D01*
X131724567Y-94342066D01*
X131565245Y-94528607D01*
X131437074Y-94737766D01*
X131343195Y-94964407D01*
X131323431Y-95046731D01*
X131285928Y-95202943D01*
X131266681Y-95447500D01*
X131285928Y-95692057D01*
X131343195Y-95930592D01*
X131437073Y-96157232D01*
X131437074Y-96157233D01*
X131565245Y-96366392D01*
X131565246Y-96366394D01*
X131565248Y-96366396D01*
X131724567Y-96552933D01*
X131781431Y-96601500D01*
X131805069Y-96621689D01*
X131843878Y-96681140D01*
X131844384Y-96752135D01*
X131806428Y-96812133D01*
X131805069Y-96813311D01*
X131724567Y-96882067D01*
X131565245Y-97068607D01*
X131437074Y-97277766D01*
X131437073Y-97277768D01*
X131436228Y-97279808D01*
X131343195Y-97504407D01*
X131308217Y-97650104D01*
X131285928Y-97742943D01*
X131266681Y-97987500D01*
X131285928Y-98232057D01*
X131343195Y-98470592D01*
X131437073Y-98697232D01*
X131485374Y-98776052D01*
X131565245Y-98906392D01*
X131565246Y-98906394D01*
X131565248Y-98906396D01*
X131724567Y-99092933D01*
X131783508Y-99143274D01*
X131805069Y-99161689D01*
X131843878Y-99221140D01*
X131844384Y-99292135D01*
X131806428Y-99352133D01*
X131805069Y-99353311D01*
X131724567Y-99422067D01*
X131565245Y-99608607D01*
X131437074Y-99817766D01*
X131343195Y-100044407D01*
X131285928Y-100282943D01*
X131266681Y-100527500D01*
X131285928Y-100772056D01*
X131343195Y-101010592D01*
X131437073Y-101237232D01*
X131565245Y-101446392D01*
X131565246Y-101446394D01*
X131565248Y-101446396D01*
X131724567Y-101632933D01*
X131777919Y-101678500D01*
X131805069Y-101701689D01*
X131843878Y-101761140D01*
X131844384Y-101832135D01*
X131806428Y-101892133D01*
X131805069Y-101893311D01*
X131724567Y-101962067D01*
X131565245Y-102148607D01*
X131437074Y-102357766D01*
X131437073Y-102357768D01*
X131343195Y-102584408D01*
X131285928Y-102822943D01*
X131266681Y-103067500D01*
X131285928Y-103312057D01*
X131343195Y-103550592D01*
X131437073Y-103777232D01*
X131437074Y-103777233D01*
X131546129Y-103955197D01*
X131564667Y-104023730D01*
X131543210Y-104091407D01*
X131514206Y-104121898D01*
X131417096Y-104194595D01*
X131329555Y-104311534D01*
X131329555Y-104311535D01*
X131278505Y-104448406D01*
X131272000Y-104508902D01*
X131272000Y-105353500D01*
X132399297Y-105353500D01*
X132364075Y-105414507D01*
X132330000Y-105541674D01*
X132330000Y-105673326D01*
X132364075Y-105800493D01*
X132399297Y-105861500D01*
X131272000Y-105861500D01*
X131272000Y-106706097D01*
X131278505Y-106766593D01*
X131329555Y-106903464D01*
X131329555Y-106903465D01*
X131417095Y-107020404D01*
X131534034Y-107107944D01*
X131670906Y-107158994D01*
X131731402Y-107165499D01*
X131731415Y-107165500D01*
X132576000Y-107165500D01*
X132576000Y-106038202D01*
X132637007Y-106073425D01*
X132764174Y-106107500D01*
X132895826Y-106107500D01*
X133022993Y-106073425D01*
X133084000Y-106038202D01*
X133084000Y-107165500D01*
X133928585Y-107165500D01*
X133928597Y-107165499D01*
X133989093Y-107158994D01*
X134125964Y-107107944D01*
X134125965Y-107107944D01*
X134242904Y-107020404D01*
X134330444Y-106903465D01*
X134330444Y-106903464D01*
X134381494Y-106766593D01*
X134387999Y-106706097D01*
X134388000Y-106706085D01*
X134388000Y-105861500D01*
X133260703Y-105861500D01*
X133295925Y-105800493D01*
X133330000Y-105673326D01*
X133330000Y-105541674D01*
X133295925Y-105414507D01*
X133260703Y-105353500D01*
X134388000Y-105353500D01*
X134388000Y-104508914D01*
X134387999Y-104508902D01*
X134381494Y-104448406D01*
X134330444Y-104311535D01*
X134330444Y-104311534D01*
X134242905Y-104194597D01*
X134145793Y-104121899D01*
X134103247Y-104065063D01*
X134098183Y-103994247D01*
X134113867Y-103955201D01*
X134222927Y-103777232D01*
X134316805Y-103550592D01*
X134374072Y-103312057D01*
X134393319Y-103067500D01*
X134374072Y-102822943D01*
X134316805Y-102584408D01*
X134222927Y-102357768D01*
X134094752Y-102148604D01*
X133935433Y-101962067D01*
X133854929Y-101893309D01*
X133816121Y-101833860D01*
X133815615Y-101762866D01*
X133853571Y-101702867D01*
X133854879Y-101701732D01*
X133935433Y-101632933D01*
X134094752Y-101446396D01*
X134143611Y-101366664D01*
X134196259Y-101319034D01*
X134251044Y-101306500D01*
X135288296Y-101306500D01*
X135312877Y-101308920D01*
X135313275Y-101309000D01*
X135313278Y-101309000D01*
X140966724Y-101309000D01*
X140966725Y-101309000D01*
X141117226Y-101279064D01*
X141218216Y-101237232D01*
X141258995Y-101220341D01*
X141386583Y-101135089D01*
X141495089Y-101026583D01*
X143385767Y-99135905D01*
X143448079Y-99101879D01*
X143474862Y-99099000D01*
X143940589Y-99099000D01*
X144008710Y-99119002D01*
X144055203Y-99172658D01*
X144055976Y-99174386D01*
X144067889Y-99201545D01*
X144067891Y-99201549D01*
X144122537Y-99285191D01*
X144200095Y-99403902D01*
X144363792Y-99581725D01*
X144363797Y-99581729D01*
X144363799Y-99581731D01*
X144478856Y-99671283D01*
X144554541Y-99730191D01*
X144554542Y-99730192D01*
X144767119Y-99845233D01*
X144767121Y-99845234D01*
X144887150Y-99886439D01*
X144995732Y-99923716D01*
X145234145Y-99963500D01*
X145234149Y-99963500D01*
X145475856Y-99963500D01*
X145512555Y-99957375D01*
X145614109Y-99940429D01*
X145684592Y-99948945D01*
X145723943Y-99975615D01*
X147264911Y-101516583D01*
X147373417Y-101625089D01*
X147501005Y-101710341D01*
X147501007Y-101710342D01*
X147571887Y-101739701D01*
X147571888Y-101739702D01*
X147596949Y-101750082D01*
X147642774Y-101769064D01*
X147793275Y-101799000D01*
X147793276Y-101799000D01*
X151166724Y-101799000D01*
X151166725Y-101799000D01*
X151317226Y-101769064D01*
X151417471Y-101727540D01*
X151458995Y-101710341D01*
X151586583Y-101625089D01*
X151695089Y-101516583D01*
X153065767Y-100145905D01*
X153128079Y-100111879D01*
X153154862Y-100109000D01*
X162261312Y-100109000D01*
X162329433Y-100129002D01*
X162375926Y-100182658D01*
X162386881Y-100224593D01*
X162388241Y-100241000D01*
X162406461Y-100460887D01*
X162406463Y-100460896D01*
X162465795Y-100695193D01*
X162465797Y-100695197D01*
X162562891Y-100916549D01*
X162624333Y-101010592D01*
X162695095Y-101118902D01*
X162858792Y-101296725D01*
X162858797Y-101296729D01*
X162858799Y-101296731D01*
X163049541Y-101445191D01*
X163049542Y-101445192D01*
X163262119Y-101560233D01*
X163262121Y-101560234D01*
X163382150Y-101601439D01*
X163490732Y-101638716D01*
X163729145Y-101678500D01*
X163729149Y-101678500D01*
X163970851Y-101678500D01*
X163970855Y-101678500D01*
X164209268Y-101638716D01*
X164437881Y-101560233D01*
X164650458Y-101445192D01*
X164841201Y-101296731D01*
X164857467Y-101279062D01*
X165004904Y-101118902D01*
X165004903Y-101118902D01*
X165004906Y-101118900D01*
X165137109Y-100916549D01*
X165234203Y-100695197D01*
X165293539Y-100460884D01*
X165313499Y-100220000D01*
X165293539Y-99979116D01*
X165292652Y-99975615D01*
X165234204Y-99744806D01*
X165234201Y-99744799D01*
X165137109Y-99523451D01*
X165004906Y-99321100D01*
X165004905Y-99321099D01*
X165004904Y-99321097D01*
X164841207Y-99143274D01*
X164831739Y-99135905D01*
X164650458Y-98994808D01*
X164650457Y-98994807D01*
X164437880Y-98879766D01*
X164437878Y-98879765D01*
X164209272Y-98801285D01*
X164209265Y-98801283D01*
X164107230Y-98784256D01*
X163970855Y-98761500D01*
X163729145Y-98761500D01*
X163627579Y-98778447D01*
X163590889Y-98784570D01*
X163520405Y-98776052D01*
X163481056Y-98749383D01*
X163456588Y-98724915D01*
X163456582Y-98724910D01*
X163447831Y-98719063D01*
X163370596Y-98667456D01*
X163328995Y-98639659D01*
X163287471Y-98622459D01*
X163287470Y-98622458D01*
X163187231Y-98580938D01*
X163187226Y-98580936D01*
X163036727Y-98551000D01*
X163036725Y-98551000D01*
X152856725Y-98551000D01*
X152703275Y-98551000D01*
X152703272Y-98551000D01*
X152552773Y-98580936D01*
X152552767Y-98580938D01*
X152452527Y-98622459D01*
X152452526Y-98622458D01*
X152411002Y-98639660D01*
X152292169Y-98719063D01*
X152283417Y-98724910D01*
X152283411Y-98724915D01*
X150804233Y-100204095D01*
X150741921Y-100238120D01*
X150715138Y-100241000D01*
X148244862Y-100241000D01*
X148176741Y-100220998D01*
X148155767Y-100204095D01*
X147685267Y-99733595D01*
X147651241Y-99671283D01*
X147656306Y-99600468D01*
X147698853Y-99543632D01*
X147765373Y-99518821D01*
X147774362Y-99518500D01*
X148000851Y-99518500D01*
X148000855Y-99518500D01*
X148239268Y-99478716D01*
X148467881Y-99400233D01*
X148680458Y-99285192D01*
X148871201Y-99136731D01*
X148871962Y-99135905D01*
X149034900Y-98958906D01*
X149034906Y-98958900D01*
X149075947Y-98896082D01*
X149129949Y-98849996D01*
X149181428Y-98839000D01*
X150166724Y-98839000D01*
X150166725Y-98839000D01*
X150317226Y-98809064D01*
X150432054Y-98761500D01*
X150458995Y-98750341D01*
X150586583Y-98665089D01*
X150695089Y-98556583D01*
X150975967Y-98275705D01*
X151038279Y-98241679D01*
X151065062Y-98238800D01*
X165236738Y-98238800D01*
X165236739Y-98238800D01*
X165387240Y-98208864D01*
X165487485Y-98167340D01*
X165525651Y-98151532D01*
X165596241Y-98143943D01*
X165659727Y-98175723D01*
X165666566Y-98182600D01*
X165730120Y-98251638D01*
X165920862Y-98400098D01*
X165920863Y-98400099D01*
X166133440Y-98515140D01*
X166133442Y-98515141D01*
X166253471Y-98556346D01*
X166362053Y-98593623D01*
X166600466Y-98633407D01*
X166600470Y-98633407D01*
X166842172Y-98633407D01*
X166842176Y-98633407D01*
X167080589Y-98593623D01*
X167309202Y-98515140D01*
X167521779Y-98400099D01*
X167712522Y-98251638D01*
X167724341Y-98238800D01*
X167876225Y-98073809D01*
X167876224Y-98073809D01*
X167876227Y-98073807D01*
X168008430Y-97871456D01*
X168105524Y-97650104D01*
X168151998Y-97466582D01*
X168164857Y-97415803D01*
X168164859Y-97415794D01*
X168164860Y-97415791D01*
X168184820Y-97174907D01*
X168164860Y-96934023D01*
X168154540Y-96893272D01*
X168105525Y-96699713D01*
X168105522Y-96699706D01*
X168102314Y-96692392D01*
X168008430Y-96478358D01*
X167876227Y-96276007D01*
X167876226Y-96276006D01*
X167876225Y-96276004D01*
X167712528Y-96098181D01*
X167521779Y-95949715D01*
X167521778Y-95949714D01*
X167309201Y-95834673D01*
X167309199Y-95834672D01*
X167080593Y-95756192D01*
X167080586Y-95756190D01*
X166978551Y-95739163D01*
X166842176Y-95716407D01*
X166600466Y-95716407D01*
X166481153Y-95736316D01*
X166362055Y-95756190D01*
X166362048Y-95756192D01*
X166133442Y-95834672D01*
X166133440Y-95834673D01*
X165920863Y-95949714D01*
X165920862Y-95949715D01*
X165730113Y-96098181D01*
X165566420Y-96276000D01*
X165566416Y-96276005D01*
X165566415Y-96276007D01*
X165525373Y-96338824D01*
X165471372Y-96384911D01*
X165419893Y-96395907D01*
X165368179Y-96395907D01*
X165255306Y-96418359D01*
X165217681Y-96425843D01*
X165217679Y-96425844D01*
X165144877Y-96456000D01*
X165075909Y-96484567D01*
X165035602Y-96511500D01*
X164948328Y-96569814D01*
X164948321Y-96569820D01*
X164874247Y-96643895D01*
X164811935Y-96677921D01*
X164785152Y-96680800D01*
X150613472Y-96680800D01*
X150518426Y-96699706D01*
X150462974Y-96710736D01*
X150462973Y-96710736D01*
X150462970Y-96710737D01*
X150386362Y-96742470D01*
X150380718Y-96744808D01*
X150337446Y-96762732D01*
X150321203Y-96769460D01*
X150193617Y-96854710D01*
X150065059Y-96983269D01*
X149804231Y-97244096D01*
X149741921Y-97278120D01*
X149715138Y-97281000D01*
X149181428Y-97281000D01*
X149113307Y-97260998D01*
X149075947Y-97223918D01*
X149034906Y-97161100D01*
X149009357Y-97133346D01*
X148871207Y-96983274D01*
X148807929Y-96934023D01*
X148680458Y-96834808D01*
X148680457Y-96834807D01*
X148467880Y-96719766D01*
X148467878Y-96719765D01*
X148239272Y-96641285D01*
X148239265Y-96641283D01*
X148137230Y-96624256D01*
X148000855Y-96601500D01*
X147759145Y-96601500D01*
X147639832Y-96621409D01*
X147520734Y-96641283D01*
X147520727Y-96641285D01*
X147292121Y-96719765D01*
X147292119Y-96719766D01*
X147079542Y-96834807D01*
X147079541Y-96834808D01*
X146888792Y-96983274D01*
X146725095Y-97161097D01*
X146592890Y-97363452D01*
X146571492Y-97412234D01*
X146525810Y-97466582D01*
X146457997Y-97487605D01*
X146389583Y-97468628D01*
X146363402Y-97446954D01*
X146346206Y-97428273D01*
X146155458Y-97279808D01*
X146155457Y-97279807D01*
X145942880Y-97164766D01*
X145942878Y-97164765D01*
X145714272Y-97086285D01*
X145714265Y-97086283D01*
X145608317Y-97068604D01*
X145475855Y-97046500D01*
X145234145Y-97046500D01*
X145114832Y-97066409D01*
X144995734Y-97086283D01*
X144995727Y-97086285D01*
X144767121Y-97164765D01*
X144767119Y-97164766D01*
X144554542Y-97279807D01*
X144554541Y-97279808D01*
X144363796Y-97428271D01*
X144297456Y-97500337D01*
X144236603Y-97536908D01*
X144204754Y-97541000D01*
X143023272Y-97541000D01*
X142910399Y-97563452D01*
X142872774Y-97570936D01*
X142872772Y-97570937D01*
X142800180Y-97601006D01*
X142731005Y-97629659D01*
X142639195Y-97691004D01*
X142639195Y-97691005D01*
X142603654Y-97714752D01*
X142603414Y-97714913D01*
X142603412Y-97714915D01*
X140604233Y-99714095D01*
X140541921Y-99748121D01*
X140515138Y-99751000D01*
X135489204Y-99751000D01*
X135464622Y-99748579D01*
X135464227Y-99748500D01*
X135464225Y-99748500D01*
X134251044Y-99748500D01*
X134182923Y-99728498D01*
X134143611Y-99688335D01*
X134094752Y-99608604D01*
X133935433Y-99422067D01*
X133854929Y-99353309D01*
X133816121Y-99293860D01*
X133815615Y-99222866D01*
X133853571Y-99162867D01*
X133854879Y-99161732D01*
X133935433Y-99092933D01*
X134057753Y-98949715D01*
X134117202Y-98910908D01*
X134188196Y-98910402D01*
X134246263Y-98946211D01*
X134338792Y-99046725D01*
X134338797Y-99046729D01*
X134338799Y-99046731D01*
X134529541Y-99195191D01*
X134529542Y-99195192D01*
X134742119Y-99310233D01*
X134742121Y-99310234D01*
X134773773Y-99321100D01*
X134970732Y-99388716D01*
X135209145Y-99428500D01*
X135209149Y-99428500D01*
X135450851Y-99428500D01*
X135450855Y-99428500D01*
X135689268Y-99388716D01*
X135917881Y-99310233D01*
X136130458Y-99195192D01*
X136321201Y-99046731D01*
X136369000Y-98994808D01*
X136484906Y-98868900D01*
X136529082Y-98801284D01*
X136616517Y-98667454D01*
X136651993Y-98631609D01*
X136736583Y-98575089D01*
X136845089Y-98466583D01*
X142231084Y-93080587D01*
X142293395Y-93046562D01*
X142364210Y-93051627D01*
X142421046Y-93094174D01*
X142445857Y-93160694D01*
X142430766Y-93230068D01*
X142425662Y-93238598D01*
X142402888Y-93273455D01*
X142305798Y-93494799D01*
X142305795Y-93494806D01*
X142246463Y-93729103D01*
X142246461Y-93729112D01*
X142226501Y-93970000D01*
X142246461Y-94210887D01*
X142246463Y-94210896D01*
X142305795Y-94445193D01*
X142305798Y-94445200D01*
X142401837Y-94664147D01*
X142402891Y-94666549D01*
X142456759Y-94749000D01*
X142535095Y-94868902D01*
X142698792Y-95046725D01*
X142698797Y-95046729D01*
X142698799Y-95046731D01*
X142889541Y-95195191D01*
X142889542Y-95195192D01*
X143102119Y-95310233D01*
X143102121Y-95310234D01*
X143222150Y-95351439D01*
X143330732Y-95388716D01*
X143569145Y-95428500D01*
X143569149Y-95428500D01*
X143810851Y-95428500D01*
X143810855Y-95428500D01*
X144049268Y-95388716D01*
X144277881Y-95310233D01*
X144490458Y-95195192D01*
X144681201Y-95046731D01*
X144844906Y-94868900D01*
X144885947Y-94806082D01*
X144939949Y-94759996D01*
X144991428Y-94749000D01*
X151486724Y-94749000D01*
X151486725Y-94749000D01*
X151637226Y-94719064D01*
X151769806Y-94664147D01*
X151778995Y-94660341D01*
X151906583Y-94575089D01*
X152015089Y-94466583D01*
X153574171Y-92907500D01*
X173321681Y-92907500D01*
X173340928Y-93152057D01*
X173398195Y-93390592D01*
X173492073Y-93617232D01*
X173492074Y-93617233D01*
X173620245Y-93826392D01*
X173620246Y-93826394D01*
X173620248Y-93826396D01*
X173779566Y-94012932D01*
X173779569Y-94012935D01*
X173872568Y-94092364D01*
X173911378Y-94151814D01*
X173911884Y-94222809D01*
X173873928Y-94282808D01*
X173872570Y-94283985D01*
X173804567Y-94342066D01*
X173645245Y-94528607D01*
X173517074Y-94737766D01*
X173423195Y-94964407D01*
X173403431Y-95046731D01*
X173365928Y-95202943D01*
X173346681Y-95447500D01*
X173365928Y-95692057D01*
X173423195Y-95930592D01*
X173517073Y-96157232D01*
X173517074Y-96157233D01*
X173645245Y-96366392D01*
X173645246Y-96366394D01*
X173645248Y-96366396D01*
X173804567Y-96552933D01*
X173861431Y-96601500D01*
X173885069Y-96621689D01*
X173923878Y-96681140D01*
X173924384Y-96752135D01*
X173886428Y-96812133D01*
X173885069Y-96813311D01*
X173804567Y-96882067D01*
X173645245Y-97068607D01*
X173517074Y-97277766D01*
X173517073Y-97277768D01*
X173516228Y-97279808D01*
X173423195Y-97504407D01*
X173388217Y-97650104D01*
X173365928Y-97742943D01*
X173346681Y-97987500D01*
X173365928Y-98232057D01*
X173423195Y-98470592D01*
X173517073Y-98697232D01*
X173565374Y-98776052D01*
X173645245Y-98906392D01*
X173645246Y-98906394D01*
X173645248Y-98906396D01*
X173804567Y-99092933D01*
X173863508Y-99143274D01*
X173885069Y-99161689D01*
X173923878Y-99221140D01*
X173924384Y-99292135D01*
X173886428Y-99352133D01*
X173885069Y-99353311D01*
X173804567Y-99422067D01*
X173645245Y-99608607D01*
X173517074Y-99817766D01*
X173423195Y-100044407D01*
X173365928Y-100282943D01*
X173346681Y-100527500D01*
X173365928Y-100772056D01*
X173423195Y-101010592D01*
X173517073Y-101237232D01*
X173645245Y-101446392D01*
X173645246Y-101446394D01*
X173645248Y-101446396D01*
X173804567Y-101632933D01*
X173857919Y-101678500D01*
X173885069Y-101701689D01*
X173923878Y-101761140D01*
X173924384Y-101832135D01*
X173886428Y-101892133D01*
X173885069Y-101893311D01*
X173804567Y-101962067D01*
X173645245Y-102148607D01*
X173517074Y-102357766D01*
X173517073Y-102357768D01*
X173423195Y-102584408D01*
X173365928Y-102822943D01*
X173346681Y-103067500D01*
X173365928Y-103312057D01*
X173423195Y-103550592D01*
X173517073Y-103777232D01*
X173517074Y-103777233D01*
X173625867Y-103954770D01*
X173644405Y-104023303D01*
X173622948Y-104090980D01*
X173593943Y-104121472D01*
X173496738Y-104194238D01*
X173409112Y-104311292D01*
X173409110Y-104311297D01*
X173358011Y-104448295D01*
X173358009Y-104448303D01*
X173351500Y-104508850D01*
X173351500Y-106706149D01*
X173358009Y-106766696D01*
X173358011Y-106766704D01*
X173409110Y-106903702D01*
X173409112Y-106903707D01*
X173496738Y-107020761D01*
X173613792Y-107108387D01*
X173613794Y-107108388D01*
X173613796Y-107108389D01*
X173672875Y-107130424D01*
X173750795Y-107159488D01*
X173750803Y-107159490D01*
X173811350Y-107165999D01*
X173811355Y-107165999D01*
X173811362Y-107166000D01*
X173811368Y-107166000D01*
X176008632Y-107166000D01*
X176008638Y-107166000D01*
X176008645Y-107165999D01*
X176008649Y-107165999D01*
X176069196Y-107159490D01*
X176069199Y-107159489D01*
X176069201Y-107159489D01*
X176206204Y-107108389D01*
X176206799Y-107107944D01*
X176323261Y-107020761D01*
X176410887Y-106903707D01*
X176410887Y-106903706D01*
X176410889Y-106903704D01*
X176461989Y-106766701D01*
X176468500Y-106706138D01*
X176468500Y-104508862D01*
X176462001Y-104448406D01*
X176461990Y-104448303D01*
X176461988Y-104448295D01*
X176410978Y-104311535D01*
X176410889Y-104311296D01*
X176410888Y-104311294D01*
X176410887Y-104311292D01*
X176323262Y-104194240D01*
X176323259Y-104194238D01*
X176279810Y-104161712D01*
X176226055Y-104121471D01*
X176183509Y-104064635D01*
X176178445Y-103993819D01*
X176194129Y-103954775D01*
X176302927Y-103777232D01*
X176396805Y-103550592D01*
X176454072Y-103312057D01*
X176473319Y-103067500D01*
X176454072Y-102822943D01*
X176396805Y-102584408D01*
X176302927Y-102357768D01*
X176174752Y-102148604D01*
X176015433Y-101962067D01*
X175934929Y-101893309D01*
X175896121Y-101833860D01*
X175895615Y-101762866D01*
X175933571Y-101702867D01*
X175934879Y-101701732D01*
X176015433Y-101632933D01*
X176174752Y-101446396D01*
X176302927Y-101237232D01*
X176396805Y-101010592D01*
X176454072Y-100772057D01*
X176473319Y-100527500D01*
X176454072Y-100282943D01*
X176396805Y-100044408D01*
X176302927Y-99817768D01*
X176174752Y-99608604D01*
X176015433Y-99422067D01*
X175934929Y-99353309D01*
X175896121Y-99293860D01*
X175895615Y-99222866D01*
X175933571Y-99162867D01*
X175934879Y-99161732D01*
X176015433Y-99092933D01*
X176174752Y-98906396D01*
X176302927Y-98697232D01*
X176396805Y-98470592D01*
X176454072Y-98232057D01*
X176473319Y-97987500D01*
X176454072Y-97742943D01*
X176396805Y-97504408D01*
X176302927Y-97277768D01*
X176174752Y-97068604D01*
X176015433Y-96882067D01*
X175934929Y-96813309D01*
X175896121Y-96753860D01*
X175895615Y-96682866D01*
X175933571Y-96622867D01*
X175934879Y-96621732D01*
X176015433Y-96552933D01*
X176174752Y-96366396D01*
X176302927Y-96157232D01*
X176396805Y-95930592D01*
X176454072Y-95692057D01*
X176473319Y-95447500D01*
X176454072Y-95202943D01*
X176396805Y-94964408D01*
X176302927Y-94737768D01*
X176196883Y-94564719D01*
X176174754Y-94528607D01*
X176174753Y-94528606D01*
X176174752Y-94528604D01*
X176015433Y-94342067D01*
X175922430Y-94262634D01*
X175883621Y-94203183D01*
X175883115Y-94132188D01*
X175921071Y-94072190D01*
X175922321Y-94071105D01*
X175990433Y-94012933D01*
X176149752Y-93826396D01*
X176277927Y-93617232D01*
X176371805Y-93390592D01*
X176429072Y-93152057D01*
X176448319Y-92907500D01*
X176429072Y-92662943D01*
X176371805Y-92424408D01*
X176277927Y-92197768D01*
X176149752Y-91988604D01*
X175990433Y-91802067D01*
X175909929Y-91733309D01*
X175871121Y-91673860D01*
X175870615Y-91602866D01*
X175908571Y-91542867D01*
X175909879Y-91541732D01*
X175990433Y-91472933D01*
X176149752Y-91286396D01*
X176277927Y-91077232D01*
X176371805Y-90850592D01*
X176429072Y-90612057D01*
X176448319Y-90367500D01*
X176429072Y-90122943D01*
X176371805Y-89884408D01*
X176277927Y-89657768D01*
X176149752Y-89448604D01*
X175990433Y-89262067D01*
X175909929Y-89193309D01*
X175871121Y-89133860D01*
X175870615Y-89062866D01*
X175908571Y-89002867D01*
X175909879Y-89001732D01*
X175990433Y-88932933D01*
X176149752Y-88746396D01*
X176277927Y-88537232D01*
X176371805Y-88310592D01*
X176429072Y-88072057D01*
X176448319Y-87827500D01*
X176429072Y-87582943D01*
X176371805Y-87344408D01*
X176277927Y-87117768D01*
X176149752Y-86908604D01*
X175990433Y-86722067D01*
X175907002Y-86650809D01*
X175868194Y-86591360D01*
X175867688Y-86520366D01*
X175905644Y-86460367D01*
X175906959Y-86459226D01*
X175990433Y-86387933D01*
X176149752Y-86201396D01*
X176277927Y-85992232D01*
X176371805Y-85765592D01*
X176429072Y-85527057D01*
X176448319Y-85282500D01*
X176429072Y-85037943D01*
X176371805Y-84799408D01*
X176277927Y-84572768D01*
X176171883Y-84399719D01*
X176149754Y-84363607D01*
X176149753Y-84363606D01*
X176149752Y-84363604D01*
X175990433Y-84177067D01*
X175803896Y-84017748D01*
X175803894Y-84017746D01*
X175803892Y-84017745D01*
X175595458Y-83890018D01*
X175594732Y-83889573D01*
X175368092Y-83795695D01*
X175129557Y-83738428D01*
X174885000Y-83719181D01*
X174640443Y-83738428D01*
X174401907Y-83795695D01*
X174175266Y-83889574D01*
X173966107Y-84017745D01*
X173779567Y-84177067D01*
X173620245Y-84363607D01*
X173492074Y-84572766D01*
X173398195Y-84799407D01*
X173378270Y-84882401D01*
X173340928Y-85037943D01*
X173321681Y-85282500D01*
X173340928Y-85527057D01*
X173398195Y-85765592D01*
X173492073Y-85992232D01*
X173492074Y-85992233D01*
X173620245Y-86201392D01*
X173620246Y-86201394D01*
X173620248Y-86201396D01*
X173779567Y-86387933D01*
X173830323Y-86431283D01*
X173862996Y-86459189D01*
X173901805Y-86518640D01*
X173902311Y-86589635D01*
X173864355Y-86649634D01*
X173862996Y-86650811D01*
X173779567Y-86722067D01*
X173620245Y-86908607D01*
X173492074Y-87117766D01*
X173492073Y-87117768D01*
X173398195Y-87344408D01*
X173340928Y-87582943D01*
X173321681Y-87827500D01*
X173340928Y-88072057D01*
X173398195Y-88310592D01*
X173492073Y-88537232D01*
X173545094Y-88623756D01*
X173620245Y-88746392D01*
X173620246Y-88746394D01*
X173620248Y-88746396D01*
X173779567Y-88932933D01*
X173845903Y-88989589D01*
X173860069Y-89001689D01*
X173898878Y-89061140D01*
X173899384Y-89132135D01*
X173861428Y-89192133D01*
X173860069Y-89193311D01*
X173779567Y-89262067D01*
X173620245Y-89448607D01*
X173492074Y-89657766D01*
X173492073Y-89657768D01*
X173398195Y-89884408D01*
X173340928Y-90122943D01*
X173321681Y-90367500D01*
X173340928Y-90612057D01*
X173398195Y-90850592D01*
X173492073Y-91077232D01*
X173492074Y-91077233D01*
X173620245Y-91286392D01*
X173620246Y-91286394D01*
X173620248Y-91286396D01*
X173779567Y-91472933D01*
X173845903Y-91529589D01*
X173860069Y-91541689D01*
X173898878Y-91601140D01*
X173899384Y-91672135D01*
X173861428Y-91732133D01*
X173860069Y-91733311D01*
X173779567Y-91802067D01*
X173620245Y-91988607D01*
X173492074Y-92197766D01*
X173398195Y-92424407D01*
X173367735Y-92551283D01*
X173340928Y-92662943D01*
X173321681Y-92907500D01*
X153574171Y-92907500D01*
X157161057Y-89320613D01*
X157223367Y-89286590D01*
X157270889Y-89285429D01*
X157409143Y-89308500D01*
X157409145Y-89308500D01*
X157650851Y-89308500D01*
X157650855Y-89308500D01*
X157889268Y-89268716D01*
X158117881Y-89190233D01*
X158330458Y-89075192D01*
X158521201Y-88926731D01*
X158684906Y-88748900D01*
X158817109Y-88546549D01*
X158914203Y-88325197D01*
X158973539Y-88090884D01*
X158993499Y-87850000D01*
X158973539Y-87609116D01*
X158914203Y-87374803D01*
X158817109Y-87153451D01*
X158684906Y-86951100D01*
X158684905Y-86951099D01*
X158684904Y-86951097D01*
X158521207Y-86773274D01*
X158455416Y-86722067D01*
X158330458Y-86624808D01*
X158330457Y-86624807D01*
X158117880Y-86509766D01*
X158117878Y-86509765D01*
X157889272Y-86431285D01*
X157889265Y-86431283D01*
X157787230Y-86414256D01*
X157650855Y-86391500D01*
X157409145Y-86391500D01*
X157289832Y-86411409D01*
X157170734Y-86431283D01*
X157170727Y-86431285D01*
X156942121Y-86509765D01*
X156942119Y-86509766D01*
X156729542Y-86624807D01*
X156729541Y-86624808D01*
X156538792Y-86773274D01*
X156375095Y-86951097D01*
X156242889Y-87153454D01*
X156145798Y-87374799D01*
X156145795Y-87374806D01*
X156086463Y-87609103D01*
X156086461Y-87609112D01*
X156066501Y-87850000D01*
X156086461Y-88090887D01*
X156089291Y-88102060D01*
X156086623Y-88173007D01*
X156056241Y-88222085D01*
X151124233Y-93154095D01*
X151061921Y-93188120D01*
X151035138Y-93191000D01*
X144991428Y-93191000D01*
X144923307Y-93170998D01*
X144885947Y-93133918D01*
X144844906Y-93071100D01*
X144826980Y-93051627D01*
X144681207Y-92893274D01*
X144490458Y-92744808D01*
X144490457Y-92744807D01*
X144277880Y-92629766D01*
X144277878Y-92629765D01*
X144049272Y-92551285D01*
X144049265Y-92551283D01*
X143947230Y-92534256D01*
X143810855Y-92511500D01*
X143569145Y-92511500D01*
X143449832Y-92531409D01*
X143330734Y-92551283D01*
X143330727Y-92551285D01*
X143102121Y-92629765D01*
X143102119Y-92629767D01*
X142946849Y-92713794D01*
X142877418Y-92728624D01*
X142810992Y-92703563D01*
X142768659Y-92646568D01*
X142763861Y-92575734D01*
X142797783Y-92513888D01*
X148611057Y-86700613D01*
X148673367Y-86666589D01*
X148720889Y-86665429D01*
X148859143Y-86688500D01*
X148859145Y-86688500D01*
X149100851Y-86688500D01*
X149100855Y-86688500D01*
X149339268Y-86648716D01*
X149567881Y-86570233D01*
X149780458Y-86455192D01*
X149971201Y-86306731D01*
X150134906Y-86128900D01*
X150267109Y-85926549D01*
X150364203Y-85705197D01*
X150423539Y-85470884D01*
X150443499Y-85230000D01*
X150423539Y-84989116D01*
X150375498Y-84799408D01*
X150364204Y-84754806D01*
X150364201Y-84754799D01*
X150267110Y-84533454D01*
X150267109Y-84533451D01*
X150134906Y-84331100D01*
X150134905Y-84331099D01*
X150134904Y-84331097D01*
X149971207Y-84153274D01*
X149780458Y-84004808D01*
X149780457Y-84004807D01*
X149567880Y-83889766D01*
X149567878Y-83889765D01*
X149339272Y-83811285D01*
X149339265Y-83811283D01*
X149237230Y-83794256D01*
X149100855Y-83771500D01*
X148859145Y-83771500D01*
X148739832Y-83791409D01*
X148620734Y-83811283D01*
X148620727Y-83811285D01*
X148392121Y-83889765D01*
X148392119Y-83889766D01*
X148179542Y-84004807D01*
X148179541Y-84004808D01*
X147988792Y-84153274D01*
X147825095Y-84331097D01*
X147692889Y-84533454D01*
X147595798Y-84754799D01*
X147595795Y-84754806D01*
X147536463Y-84989103D01*
X147536461Y-84989112D01*
X147516501Y-85230000D01*
X147536461Y-85470887D01*
X147539291Y-85482060D01*
X147536623Y-85553007D01*
X147506241Y-85602085D01*
X137034984Y-96073342D01*
X136972672Y-96107368D01*
X136901857Y-96102303D01*
X136845021Y-96059756D01*
X136820210Y-95993236D01*
X136830504Y-95933628D01*
X136834203Y-95925197D01*
X136849037Y-95866618D01*
X136893536Y-95690896D01*
X136893538Y-95690887D01*
X136893539Y-95690884D01*
X136913499Y-95450000D01*
X136893539Y-95209116D01*
X136834203Y-94974803D01*
X136737109Y-94753451D01*
X136604906Y-94551100D01*
X136604905Y-94551099D01*
X136604904Y-94551097D01*
X136441206Y-94373273D01*
X136441201Y-94373268D01*
X136277609Y-94245939D01*
X136236138Y-94188314D01*
X136229000Y-94146508D01*
X136229000Y-82565000D01*
X136249002Y-82496879D01*
X136302658Y-82450386D01*
X136355000Y-82439000D01*
X146682838Y-82439000D01*
X146750959Y-82459002D01*
X146788321Y-82496084D01*
X146875095Y-82628902D01*
X147038792Y-82806725D01*
X147038797Y-82806729D01*
X147038799Y-82806731D01*
X147229541Y-82955191D01*
X147229542Y-82955192D01*
X147442119Y-83070233D01*
X147442121Y-83070234D01*
X147562150Y-83111439D01*
X147670732Y-83148716D01*
X147909145Y-83188500D01*
X147909149Y-83188500D01*
X148150851Y-83188500D01*
X148150855Y-83188500D01*
X148389268Y-83148716D01*
X148617881Y-83070233D01*
X148830458Y-82955192D01*
X149021201Y-82806731D01*
X149184906Y-82628900D01*
X149317109Y-82426549D01*
X149414203Y-82205197D01*
X149473539Y-81970884D01*
X149493499Y-81730000D01*
X149473539Y-81489116D01*
X149459271Y-81432774D01*
X149414204Y-81254806D01*
X149414201Y-81254799D01*
X149374117Y-81163417D01*
X149317109Y-81033451D01*
X149184906Y-80831100D01*
X149184905Y-80831099D01*
X149184904Y-80831097D01*
X149021207Y-80653274D01*
X148830458Y-80504808D01*
X148830457Y-80504807D01*
X148617880Y-80389766D01*
X148617877Y-80389765D01*
X148592311Y-80380988D01*
X148534377Y-80339950D01*
X148507827Y-80274105D01*
X148521090Y-80204358D01*
X148569955Y-80152854D01*
X148633327Y-80135816D01*
X177393352Y-80159893D01*
X177461453Y-80179952D01*
X177507901Y-80233647D01*
X177519242Y-80286647D01*
X177267817Y-122322154D01*
X177247408Y-122390154D01*
X177193475Y-122436325D01*
X177141819Y-122447400D01*
X129866000Y-122447400D01*
X129797879Y-122427398D01*
X129751386Y-122373742D01*
X129740000Y-122321400D01*
X129740000Y-119583200D01*
X131953011Y-119583200D01*
X131972141Y-119838481D01*
X132029105Y-120088054D01*
X132029106Y-120088056D01*
X132122626Y-120326344D01*
X132122628Y-120326348D01*
X132250624Y-120548044D01*
X132250629Y-120548052D01*
X132291050Y-120598737D01*
X132291052Y-120598737D01*
X132948296Y-119941493D01*
X132956849Y-119962142D01*
X133044399Y-120093170D01*
X133155830Y-120204601D01*
X133286858Y-120292151D01*
X133307504Y-120300703D01*
X132650221Y-120957986D01*
X132650221Y-120957987D01*
X132809410Y-121066521D01*
X132809411Y-121066522D01*
X133040039Y-121177586D01*
X133284662Y-121253044D01*
X133284670Y-121253045D01*
X133537808Y-121291200D01*
X133793792Y-121291200D01*
X134046929Y-121253045D01*
X134046941Y-121253043D01*
X134291546Y-121177592D01*
X134291553Y-121177589D01*
X134522197Y-121066518D01*
X134522199Y-121066517D01*
X134681377Y-120957989D01*
X134681378Y-120957987D01*
X134024094Y-120300703D01*
X134044742Y-120292151D01*
X134175770Y-120204601D01*
X134287201Y-120093170D01*
X134374751Y-119962142D01*
X134383303Y-119941494D01*
X135040547Y-120598738D01*
X135040548Y-120598737D01*
X135080972Y-120548049D01*
X135080972Y-120548048D01*
X135208971Y-120326348D01*
X135208973Y-120326344D01*
X135302493Y-120088056D01*
X135302494Y-120088054D01*
X135359458Y-119838481D01*
X135378588Y-119583200D01*
X135359458Y-119327918D01*
X135302494Y-119078345D01*
X135302493Y-119078343D01*
X135208973Y-118840055D01*
X135208971Y-118840051D01*
X135095877Y-118644166D01*
X135079139Y-118575170D01*
X135102360Y-118508079D01*
X135158167Y-118464192D01*
X135228842Y-118457443D01*
X135275972Y-118477059D01*
X135349155Y-118526954D01*
X135433682Y-118567660D01*
X135579860Y-118638056D01*
X135579873Y-118638061D01*
X135824546Y-118713532D01*
X135824548Y-118713532D01*
X135824557Y-118713535D01*
X136077766Y-118751700D01*
X136077770Y-118751700D01*
X136333830Y-118751700D01*
X136333834Y-118751700D01*
X136587043Y-118713535D01*
X136811930Y-118644167D01*
X136831729Y-118638060D01*
X136831730Y-118638059D01*
X136831735Y-118638058D01*
X137062446Y-118526954D01*
X137135626Y-118477060D01*
X137203175Y-118455214D01*
X137271815Y-118473355D01*
X137319750Y-118525726D01*
X137331762Y-118595699D01*
X137315722Y-118644167D01*
X137202628Y-118840051D01*
X137202626Y-118840055D01*
X137109106Y-119078343D01*
X137109105Y-119078345D01*
X137052141Y-119327918D01*
X137033011Y-119583200D01*
X137052141Y-119838481D01*
X137109105Y-120088054D01*
X137109106Y-120088056D01*
X137202626Y-120326344D01*
X137202628Y-120326348D01*
X137330624Y-120548044D01*
X137330629Y-120548052D01*
X137371050Y-120598737D01*
X137371052Y-120598737D01*
X138028295Y-119941493D01*
X138036849Y-119962142D01*
X138124399Y-120093170D01*
X138235830Y-120204601D01*
X138366858Y-120292151D01*
X138387504Y-120300703D01*
X137730221Y-120957986D01*
X137730221Y-120957987D01*
X137889410Y-121066521D01*
X137889411Y-121066522D01*
X138120039Y-121177586D01*
X138364662Y-121253044D01*
X138364670Y-121253045D01*
X138617808Y-121291200D01*
X138873792Y-121291200D01*
X139126929Y-121253045D01*
X139126941Y-121253043D01*
X139371546Y-121177592D01*
X139371553Y-121177589D01*
X139602197Y-121066518D01*
X139602199Y-121066517D01*
X139761377Y-120957989D01*
X139761378Y-120957987D01*
X139104094Y-120300703D01*
X139124742Y-120292151D01*
X139255770Y-120204601D01*
X139367201Y-120093170D01*
X139454751Y-119962142D01*
X139463303Y-119941494D01*
X140120547Y-120598738D01*
X140120548Y-120598737D01*
X140160972Y-120548049D01*
X140160972Y-120548048D01*
X140288971Y-120326348D01*
X140288973Y-120326344D01*
X140382493Y-120088056D01*
X140382494Y-120088054D01*
X140439458Y-119838481D01*
X140458588Y-119583200D01*
X141953011Y-119583200D01*
X141972141Y-119838481D01*
X142029105Y-120088054D01*
X142029106Y-120088056D01*
X142122626Y-120326344D01*
X142122628Y-120326348D01*
X142250624Y-120548044D01*
X142250629Y-120548052D01*
X142291050Y-120598737D01*
X142291052Y-120598737D01*
X142948296Y-119941493D01*
X142956849Y-119962142D01*
X143044399Y-120093170D01*
X143155830Y-120204601D01*
X143286858Y-120292151D01*
X143307504Y-120300703D01*
X142650221Y-120957986D01*
X142650221Y-120957987D01*
X142809410Y-121066521D01*
X142809411Y-121066522D01*
X143040039Y-121177586D01*
X143284662Y-121253044D01*
X143284670Y-121253045D01*
X143537808Y-121291200D01*
X143793792Y-121291200D01*
X144046929Y-121253045D01*
X144046941Y-121253043D01*
X144291546Y-121177592D01*
X144291553Y-121177589D01*
X144522197Y-121066518D01*
X144522199Y-121066517D01*
X144681377Y-120957989D01*
X144681378Y-120957987D01*
X144024094Y-120300703D01*
X144044742Y-120292151D01*
X144175770Y-120204601D01*
X144287201Y-120093170D01*
X144374751Y-119962142D01*
X144383303Y-119941494D01*
X145040547Y-120598738D01*
X145040548Y-120598737D01*
X145080972Y-120548049D01*
X145080972Y-120548048D01*
X145208971Y-120326348D01*
X145208973Y-120326344D01*
X145302493Y-120088056D01*
X145302494Y-120088054D01*
X145359458Y-119838481D01*
X145378588Y-119583200D01*
X145359458Y-119327918D01*
X145302494Y-119078345D01*
X145302493Y-119078343D01*
X145208973Y-118840055D01*
X145208971Y-118840051D01*
X145095877Y-118644166D01*
X145079139Y-118575170D01*
X145102360Y-118508079D01*
X145158167Y-118464192D01*
X145228842Y-118457443D01*
X145275972Y-118477059D01*
X145349155Y-118526954D01*
X145433682Y-118567660D01*
X145579860Y-118638056D01*
X145579873Y-118638061D01*
X145824546Y-118713532D01*
X145824548Y-118713532D01*
X145824557Y-118713535D01*
X146077766Y-118751700D01*
X146077770Y-118751700D01*
X146333830Y-118751700D01*
X146333834Y-118751700D01*
X146587043Y-118713535D01*
X146811930Y-118644167D01*
X146831729Y-118638060D01*
X146831730Y-118638059D01*
X146831735Y-118638058D01*
X147062446Y-118526954D01*
X147135626Y-118477060D01*
X147203175Y-118455214D01*
X147271815Y-118473355D01*
X147319750Y-118525726D01*
X147331762Y-118595699D01*
X147315722Y-118644167D01*
X147202628Y-118840051D01*
X147202626Y-118840055D01*
X147109106Y-119078343D01*
X147109105Y-119078345D01*
X147052141Y-119327918D01*
X147033011Y-119583200D01*
X147052141Y-119838481D01*
X147109105Y-120088054D01*
X147109106Y-120088056D01*
X147202626Y-120326344D01*
X147202628Y-120326348D01*
X147330624Y-120548044D01*
X147330629Y-120548052D01*
X147371050Y-120598737D01*
X147371052Y-120598737D01*
X148028295Y-119941493D01*
X148036849Y-119962142D01*
X148124399Y-120093170D01*
X148235830Y-120204601D01*
X148366858Y-120292151D01*
X148387504Y-120300703D01*
X147730221Y-120957986D01*
X147730221Y-120957987D01*
X147889410Y-121066521D01*
X147889411Y-121066522D01*
X148120039Y-121177586D01*
X148364662Y-121253044D01*
X148364670Y-121253045D01*
X148617808Y-121291200D01*
X148873792Y-121291200D01*
X149126929Y-121253045D01*
X149126941Y-121253043D01*
X149371546Y-121177592D01*
X149371553Y-121177589D01*
X149602197Y-121066518D01*
X149602199Y-121066517D01*
X149761377Y-120957989D01*
X149761378Y-120957987D01*
X149104094Y-120300703D01*
X149124742Y-120292151D01*
X149255770Y-120204601D01*
X149367201Y-120093170D01*
X149454751Y-119962142D01*
X149463303Y-119941494D01*
X150120547Y-120598738D01*
X150120548Y-120598737D01*
X150160972Y-120548049D01*
X150160972Y-120548048D01*
X150288971Y-120326348D01*
X150288973Y-120326344D01*
X150382493Y-120088056D01*
X150382494Y-120088054D01*
X150439458Y-119838481D01*
X150458588Y-119583200D01*
X156953011Y-119583200D01*
X156972141Y-119838481D01*
X157029105Y-120088054D01*
X157029106Y-120088056D01*
X157122626Y-120326344D01*
X157122628Y-120326348D01*
X157250624Y-120548044D01*
X157250629Y-120548052D01*
X157291050Y-120598737D01*
X157291052Y-120598737D01*
X157948296Y-119941493D01*
X157956849Y-119962142D01*
X158044399Y-120093170D01*
X158155830Y-120204601D01*
X158286858Y-120292151D01*
X158307504Y-120300703D01*
X157650221Y-120957986D01*
X157650221Y-120957987D01*
X157809410Y-121066521D01*
X157809411Y-121066522D01*
X158040039Y-121177586D01*
X158284662Y-121253044D01*
X158284670Y-121253045D01*
X158537808Y-121291200D01*
X158793792Y-121291200D01*
X159046929Y-121253045D01*
X159046941Y-121253043D01*
X159291546Y-121177592D01*
X159291553Y-121177589D01*
X159522197Y-121066518D01*
X159522199Y-121066517D01*
X159681377Y-120957989D01*
X159681378Y-120957987D01*
X159024094Y-120300703D01*
X159044742Y-120292151D01*
X159175770Y-120204601D01*
X159287201Y-120093170D01*
X159374751Y-119962142D01*
X159383303Y-119941494D01*
X160040547Y-120598738D01*
X160040548Y-120598737D01*
X160080972Y-120548049D01*
X160080972Y-120548048D01*
X160208971Y-120326348D01*
X160208973Y-120326344D01*
X160302493Y-120088056D01*
X160302494Y-120088054D01*
X160359458Y-119838481D01*
X160378588Y-119583200D01*
X160359458Y-119327918D01*
X160302494Y-119078345D01*
X160302493Y-119078343D01*
X160208973Y-118840055D01*
X160208971Y-118840051D01*
X160095877Y-118644166D01*
X160079139Y-118575170D01*
X160102360Y-118508079D01*
X160158167Y-118464192D01*
X160228842Y-118457443D01*
X160275972Y-118477059D01*
X160349155Y-118526954D01*
X160433682Y-118567660D01*
X160579860Y-118638056D01*
X160579873Y-118638061D01*
X160824546Y-118713532D01*
X160824548Y-118713532D01*
X160824557Y-118713535D01*
X161077766Y-118751700D01*
X161077770Y-118751700D01*
X161333830Y-118751700D01*
X161333834Y-118751700D01*
X161587043Y-118713535D01*
X161811930Y-118644167D01*
X161831729Y-118638060D01*
X161831730Y-118638059D01*
X161831735Y-118638058D01*
X162062446Y-118526954D01*
X162135626Y-118477060D01*
X162203175Y-118455214D01*
X162271815Y-118473355D01*
X162319750Y-118525726D01*
X162331762Y-118595699D01*
X162315722Y-118644167D01*
X162202628Y-118840051D01*
X162202626Y-118840055D01*
X162109106Y-119078343D01*
X162109105Y-119078345D01*
X162052141Y-119327918D01*
X162033011Y-119583200D01*
X162052141Y-119838481D01*
X162109105Y-120088054D01*
X162109106Y-120088056D01*
X162202626Y-120326344D01*
X162202628Y-120326348D01*
X162330624Y-120548044D01*
X162330629Y-120548052D01*
X162371050Y-120598737D01*
X162371052Y-120598737D01*
X163028295Y-119941493D01*
X163036849Y-119962142D01*
X163124399Y-120093170D01*
X163235830Y-120204601D01*
X163366858Y-120292151D01*
X163387504Y-120300703D01*
X162730221Y-120957986D01*
X162730221Y-120957987D01*
X162889410Y-121066521D01*
X162889411Y-121066522D01*
X163120039Y-121177586D01*
X163364662Y-121253044D01*
X163364670Y-121253045D01*
X163617808Y-121291200D01*
X163873792Y-121291200D01*
X164126929Y-121253045D01*
X164126941Y-121253043D01*
X164371546Y-121177592D01*
X164371553Y-121177589D01*
X164602197Y-121066518D01*
X164602199Y-121066517D01*
X164761377Y-120957989D01*
X164761378Y-120957987D01*
X164104094Y-120300703D01*
X164124742Y-120292151D01*
X164255770Y-120204601D01*
X164367201Y-120093170D01*
X164454751Y-119962142D01*
X164463303Y-119941494D01*
X165120547Y-120598738D01*
X165120548Y-120598737D01*
X165160972Y-120548049D01*
X165160972Y-120548048D01*
X165288971Y-120326348D01*
X165288973Y-120326344D01*
X165382493Y-120088056D01*
X165382494Y-120088054D01*
X165439458Y-119838481D01*
X165458588Y-119583200D01*
X166953011Y-119583200D01*
X166972141Y-119838481D01*
X167029105Y-120088054D01*
X167029106Y-120088056D01*
X167122626Y-120326344D01*
X167122628Y-120326348D01*
X167250624Y-120548044D01*
X167250629Y-120548052D01*
X167291050Y-120598737D01*
X167291052Y-120598737D01*
X167948296Y-119941493D01*
X167956849Y-119962142D01*
X168044399Y-120093170D01*
X168155830Y-120204601D01*
X168286858Y-120292151D01*
X168307504Y-120300703D01*
X167650221Y-120957986D01*
X167650221Y-120957987D01*
X167809410Y-121066521D01*
X167809411Y-121066522D01*
X168040039Y-121177586D01*
X168284662Y-121253044D01*
X168284670Y-121253045D01*
X168537808Y-121291200D01*
X168793792Y-121291200D01*
X169046929Y-121253045D01*
X169046941Y-121253043D01*
X169291546Y-121177592D01*
X169291553Y-121177589D01*
X169522197Y-121066518D01*
X169522199Y-121066517D01*
X169681377Y-120957989D01*
X169681378Y-120957987D01*
X169024094Y-120300703D01*
X169044742Y-120292151D01*
X169175770Y-120204601D01*
X169287201Y-120093170D01*
X169374751Y-119962142D01*
X169383303Y-119941494D01*
X170040547Y-120598738D01*
X170040548Y-120598737D01*
X170080972Y-120548049D01*
X170080972Y-120548048D01*
X170208971Y-120326348D01*
X170208973Y-120326344D01*
X170302493Y-120088056D01*
X170302494Y-120088054D01*
X170359458Y-119838481D01*
X170378588Y-119583200D01*
X170359458Y-119327918D01*
X170302494Y-119078345D01*
X170302493Y-119078343D01*
X170208973Y-118840055D01*
X170208971Y-118840051D01*
X170095877Y-118644166D01*
X170079139Y-118575170D01*
X170102360Y-118508079D01*
X170158167Y-118464192D01*
X170228842Y-118457443D01*
X170275972Y-118477059D01*
X170349155Y-118526954D01*
X170433682Y-118567660D01*
X170579860Y-118638056D01*
X170579873Y-118638061D01*
X170824546Y-118713532D01*
X170824548Y-118713532D01*
X170824557Y-118713535D01*
X171077766Y-118751700D01*
X171077770Y-118751700D01*
X171333830Y-118751700D01*
X171333834Y-118751700D01*
X171587043Y-118713535D01*
X171811930Y-118644167D01*
X171831729Y-118638060D01*
X171831730Y-118638059D01*
X171831735Y-118638058D01*
X172062446Y-118526954D01*
X172135626Y-118477060D01*
X172203175Y-118455214D01*
X172271815Y-118473355D01*
X172319750Y-118525726D01*
X172331762Y-118595699D01*
X172315722Y-118644167D01*
X172202628Y-118840051D01*
X172202626Y-118840055D01*
X172109106Y-119078343D01*
X172109105Y-119078345D01*
X172052141Y-119327918D01*
X172033011Y-119583200D01*
X172052141Y-119838481D01*
X172109105Y-120088054D01*
X172109106Y-120088056D01*
X172202626Y-120326344D01*
X172202628Y-120326348D01*
X172330624Y-120548044D01*
X172330629Y-120548052D01*
X172371050Y-120598737D01*
X172371052Y-120598737D01*
X173028295Y-119941493D01*
X173036849Y-119962142D01*
X173124399Y-120093170D01*
X173235830Y-120204601D01*
X173366858Y-120292151D01*
X173387504Y-120300703D01*
X172730221Y-120957986D01*
X172730221Y-120957987D01*
X172889410Y-121066521D01*
X172889411Y-121066522D01*
X173120039Y-121177586D01*
X173364662Y-121253044D01*
X173364670Y-121253045D01*
X173617808Y-121291200D01*
X173873792Y-121291200D01*
X174126929Y-121253045D01*
X174126941Y-121253043D01*
X174371546Y-121177592D01*
X174371553Y-121177589D01*
X174602197Y-121066518D01*
X174602199Y-121066517D01*
X174761377Y-120957989D01*
X174761378Y-120957987D01*
X174104094Y-120300703D01*
X174124742Y-120292151D01*
X174255770Y-120204601D01*
X174367201Y-120093170D01*
X174454751Y-119962142D01*
X174463303Y-119941494D01*
X175120547Y-120598738D01*
X175120548Y-120598737D01*
X175160972Y-120548049D01*
X175160972Y-120548048D01*
X175288971Y-120326348D01*
X175288973Y-120326344D01*
X175382493Y-120088056D01*
X175382494Y-120088054D01*
X175439458Y-119838481D01*
X175458588Y-119583200D01*
X175439458Y-119327918D01*
X175382494Y-119078345D01*
X175382493Y-119078343D01*
X175288973Y-118840055D01*
X175288971Y-118840051D01*
X175160975Y-118618355D01*
X175120547Y-118567660D01*
X174463303Y-119224904D01*
X174454751Y-119204258D01*
X174367201Y-119073230D01*
X174255770Y-118961799D01*
X174124742Y-118874249D01*
X174104093Y-118865695D01*
X174761378Y-118208411D01*
X174602190Y-118099878D01*
X174602189Y-118099877D01*
X174371553Y-117988810D01*
X174371546Y-117988807D01*
X174126941Y-117913356D01*
X174126929Y-117913354D01*
X173873792Y-117875200D01*
X173617808Y-117875200D01*
X173364670Y-117913354D01*
X173364662Y-117913355D01*
X173120039Y-117988813D01*
X172889411Y-118099877D01*
X172889403Y-118099882D01*
X172816349Y-118149690D01*
X172748798Y-118171537D01*
X172680158Y-118153395D01*
X172632223Y-118101024D01*
X172620212Y-118031051D01*
X172636252Y-117982584D01*
X172676221Y-117913356D01*
X172749422Y-117786569D01*
X172842974Y-117548201D01*
X172899955Y-117298553D01*
X172919091Y-117043200D01*
X172899955Y-116787847D01*
X172842974Y-116538199D01*
X172837813Y-116525049D01*
X172749425Y-116299837D01*
X172749423Y-116299833D01*
X172636252Y-116103815D01*
X172619514Y-116034820D01*
X172642734Y-115967728D01*
X172698542Y-115923841D01*
X172769217Y-115917092D01*
X172816350Y-115936710D01*
X172889401Y-115986516D01*
X172889411Y-115986522D01*
X173120039Y-116097586D01*
X173364662Y-116173044D01*
X173364670Y-116173045D01*
X173617808Y-116211200D01*
X173873792Y-116211200D01*
X174126929Y-116173045D01*
X174126941Y-116173043D01*
X174371546Y-116097592D01*
X174371553Y-116097589D01*
X174602197Y-115986518D01*
X174602199Y-115986517D01*
X174761377Y-115877989D01*
X174761378Y-115877987D01*
X174104094Y-115220703D01*
X174124742Y-115212151D01*
X174255770Y-115124601D01*
X174367201Y-115013170D01*
X174454751Y-114882142D01*
X174463303Y-114861494D01*
X175120547Y-115518738D01*
X175120548Y-115518737D01*
X175160972Y-115468049D01*
X175160972Y-115468048D01*
X175288971Y-115246348D01*
X175288973Y-115246344D01*
X175382493Y-115008056D01*
X175382494Y-115008054D01*
X175439458Y-114758481D01*
X175458588Y-114503200D01*
X175439458Y-114247918D01*
X175382494Y-113998345D01*
X175382493Y-113998343D01*
X175288973Y-113760055D01*
X175288971Y-113760051D01*
X175160975Y-113538355D01*
X175120547Y-113487660D01*
X174463303Y-114144904D01*
X174454751Y-114124258D01*
X174367201Y-113993230D01*
X174255770Y-113881799D01*
X174124742Y-113794249D01*
X174104094Y-113785696D01*
X174761378Y-113128411D01*
X174602190Y-113019878D01*
X174602189Y-113019877D01*
X174371553Y-112908810D01*
X174371546Y-112908807D01*
X174126941Y-112833356D01*
X174126929Y-112833354D01*
X173873792Y-112795200D01*
X173617808Y-112795200D01*
X173364670Y-112833354D01*
X173364662Y-112833355D01*
X173120039Y-112908813D01*
X172889411Y-113019877D01*
X172889403Y-113019882D01*
X172730221Y-113128410D01*
X172730221Y-113128412D01*
X173387505Y-113785696D01*
X173366858Y-113794249D01*
X173235830Y-113881799D01*
X173124399Y-113993230D01*
X173036849Y-114124258D01*
X173028296Y-114144905D01*
X172371052Y-113487661D01*
X172371050Y-113487661D01*
X172330628Y-113538348D01*
X172330625Y-113538353D01*
X172202628Y-113760051D01*
X172202626Y-113760055D01*
X172109106Y-113998343D01*
X172109105Y-113998345D01*
X172052141Y-114247918D01*
X172033011Y-114503200D01*
X172052141Y-114758481D01*
X172109105Y-115008054D01*
X172109106Y-115008056D01*
X172202626Y-115246344D01*
X172202628Y-115246348D01*
X172315722Y-115442232D01*
X172332460Y-115511227D01*
X172309239Y-115578319D01*
X172253432Y-115622206D01*
X172182757Y-115628955D01*
X172135625Y-115609338D01*
X172062448Y-115559447D01*
X172062440Y-115559442D01*
X171831736Y-115448342D01*
X171831729Y-115448339D01*
X171587053Y-115372867D01*
X171587045Y-115372865D01*
X171587043Y-115372865D01*
X171333834Y-115334700D01*
X171077766Y-115334700D01*
X170824557Y-115372865D01*
X170824555Y-115372865D01*
X170824546Y-115372867D01*
X170579873Y-115448338D01*
X170579860Y-115448343D01*
X170349152Y-115559447D01*
X170349145Y-115559452D01*
X170275974Y-115609339D01*
X170208422Y-115631186D01*
X170139783Y-115613044D01*
X170091848Y-115560673D01*
X170079837Y-115490699D01*
X170095877Y-115442233D01*
X170208971Y-115246348D01*
X170208973Y-115246344D01*
X170302493Y-115008056D01*
X170302494Y-115008054D01*
X170359458Y-114758481D01*
X170378588Y-114503200D01*
X170359458Y-114247918D01*
X170302494Y-113998345D01*
X170302493Y-113998343D01*
X170208973Y-113760055D01*
X170208971Y-113760051D01*
X170080975Y-113538355D01*
X170040547Y-113487661D01*
X169383303Y-114144905D01*
X169374751Y-114124258D01*
X169287201Y-113993230D01*
X169175770Y-113881799D01*
X169044742Y-113794249D01*
X169024094Y-113785696D01*
X169681378Y-113128411D01*
X169522190Y-113019878D01*
X169522189Y-113019877D01*
X169291553Y-112908810D01*
X169291546Y-112908807D01*
X169046941Y-112833356D01*
X169046929Y-112833354D01*
X168793792Y-112795200D01*
X168537808Y-112795200D01*
X168284670Y-112833354D01*
X168284662Y-112833355D01*
X168040039Y-112908813D01*
X167809411Y-113019877D01*
X167809403Y-113019882D01*
X167650221Y-113128410D01*
X167650221Y-113128412D01*
X168307505Y-113785696D01*
X168286858Y-113794249D01*
X168155830Y-113881799D01*
X168044399Y-113993230D01*
X167956849Y-114124258D01*
X167948296Y-114144905D01*
X167291052Y-113487661D01*
X167291050Y-113487661D01*
X167250628Y-113538348D01*
X167250625Y-113538353D01*
X167122628Y-113760051D01*
X167122626Y-113760055D01*
X167029106Y-113998343D01*
X167029105Y-113998345D01*
X166972141Y-114247918D01*
X166953011Y-114503200D01*
X166972141Y-114758481D01*
X167029105Y-115008054D01*
X167029106Y-115008056D01*
X167122626Y-115246344D01*
X167122628Y-115246348D01*
X167250624Y-115468044D01*
X167250629Y-115468052D01*
X167291050Y-115518737D01*
X167291052Y-115518737D01*
X167948296Y-114861493D01*
X167956849Y-114882142D01*
X168044399Y-115013170D01*
X168155830Y-115124601D01*
X168286858Y-115212151D01*
X168307506Y-115220703D01*
X167650221Y-115877987D01*
X167809410Y-115986521D01*
X167809411Y-115986522D01*
X168040039Y-116097586D01*
X168284662Y-116173044D01*
X168284670Y-116173045D01*
X168537808Y-116211200D01*
X168793792Y-116211200D01*
X169046929Y-116173045D01*
X169046941Y-116173043D01*
X169291546Y-116097592D01*
X169291553Y-116097589D01*
X169522189Y-115986522D01*
X169522193Y-115986520D01*
X169595248Y-115936711D01*
X169662800Y-115914863D01*
X169731439Y-115933004D01*
X169779375Y-115985375D01*
X169791387Y-116055348D01*
X169775347Y-116103816D01*
X169662176Y-116299833D01*
X169662174Y-116299837D01*
X169568627Y-116538194D01*
X169568626Y-116538197D01*
X169511645Y-116787843D01*
X169492509Y-117043200D01*
X169511645Y-117298556D01*
X169568626Y-117548202D01*
X169568627Y-117548205D01*
X169662174Y-117786562D01*
X169662176Y-117786566D01*
X169775347Y-117982583D01*
X169792085Y-118051578D01*
X169768865Y-118118670D01*
X169713057Y-118162557D01*
X169642382Y-118169306D01*
X169595249Y-118149689D01*
X169522190Y-118099878D01*
X169522189Y-118099877D01*
X169291553Y-117988810D01*
X169291546Y-117988807D01*
X169046941Y-117913356D01*
X169046929Y-117913354D01*
X168793792Y-117875200D01*
X168537808Y-117875200D01*
X168284670Y-117913354D01*
X168284662Y-117913355D01*
X168040039Y-117988813D01*
X167809411Y-118099877D01*
X167809403Y-118099882D01*
X167650221Y-118208410D01*
X167650221Y-118208412D01*
X168307505Y-118865696D01*
X168286858Y-118874249D01*
X168155830Y-118961799D01*
X168044399Y-119073230D01*
X167956849Y-119204258D01*
X167948296Y-119224905D01*
X167291052Y-118567661D01*
X167291050Y-118567661D01*
X167250628Y-118618348D01*
X167250625Y-118618353D01*
X167122628Y-118840051D01*
X167122626Y-118840055D01*
X167029106Y-119078343D01*
X167029105Y-119078345D01*
X166972141Y-119327918D01*
X166953011Y-119583200D01*
X165458588Y-119583200D01*
X165439458Y-119327918D01*
X165382494Y-119078345D01*
X165382493Y-119078343D01*
X165288973Y-118840055D01*
X165288971Y-118840051D01*
X165160975Y-118618355D01*
X165120547Y-118567660D01*
X164463303Y-119224904D01*
X164454751Y-119204258D01*
X164367201Y-119073230D01*
X164255770Y-118961799D01*
X164124742Y-118874249D01*
X164104093Y-118865695D01*
X164761378Y-118208411D01*
X164602190Y-118099878D01*
X164602189Y-118099877D01*
X164371553Y-117988810D01*
X164371546Y-117988807D01*
X164126941Y-117913356D01*
X164126929Y-117913354D01*
X163873792Y-117875200D01*
X163617808Y-117875200D01*
X163364670Y-117913354D01*
X163364662Y-117913355D01*
X163120039Y-117988813D01*
X162889411Y-118099877D01*
X162889403Y-118099882D01*
X162816349Y-118149690D01*
X162748798Y-118171537D01*
X162680158Y-118153395D01*
X162632223Y-118101024D01*
X162620212Y-118031051D01*
X162636252Y-117982584D01*
X162676221Y-117913356D01*
X162749422Y-117786569D01*
X162842974Y-117548201D01*
X162899955Y-117298553D01*
X162919091Y-117043200D01*
X162899955Y-116787847D01*
X162842974Y-116538199D01*
X162837813Y-116525049D01*
X162749425Y-116299837D01*
X162749423Y-116299833D01*
X162636252Y-116103815D01*
X162619514Y-116034820D01*
X162642734Y-115967728D01*
X162698542Y-115923841D01*
X162769217Y-115917092D01*
X162816350Y-115936710D01*
X162889401Y-115986516D01*
X162889411Y-115986522D01*
X163120039Y-116097586D01*
X163364662Y-116173044D01*
X163364670Y-116173045D01*
X163617808Y-116211200D01*
X163873792Y-116211200D01*
X164126929Y-116173045D01*
X164126941Y-116173043D01*
X164371546Y-116097592D01*
X164371553Y-116097589D01*
X164602197Y-115986518D01*
X164602199Y-115986517D01*
X164761377Y-115877989D01*
X164761378Y-115877987D01*
X164104094Y-115220703D01*
X164124742Y-115212151D01*
X164255770Y-115124601D01*
X164367201Y-115013170D01*
X164454751Y-114882142D01*
X164463303Y-114861494D01*
X165120547Y-115518738D01*
X165120548Y-115518737D01*
X165160972Y-115468049D01*
X165160972Y-115468048D01*
X165288971Y-115246348D01*
X165288973Y-115246344D01*
X165382493Y-115008056D01*
X165382494Y-115008054D01*
X165439458Y-114758481D01*
X165458588Y-114503200D01*
X165439458Y-114247918D01*
X165382494Y-113998345D01*
X165382493Y-113998343D01*
X165288973Y-113760055D01*
X165288971Y-113760051D01*
X165160975Y-113538355D01*
X165120547Y-113487660D01*
X164463303Y-114144904D01*
X164454751Y-114124258D01*
X164367201Y-113993230D01*
X164255770Y-113881799D01*
X164124742Y-113794249D01*
X164104094Y-113785696D01*
X164761378Y-113128411D01*
X164602190Y-113019878D01*
X164602189Y-113019877D01*
X164371553Y-112908810D01*
X164371546Y-112908807D01*
X164126941Y-112833356D01*
X164126929Y-112833354D01*
X163873792Y-112795200D01*
X163617808Y-112795200D01*
X163364670Y-112833354D01*
X163364662Y-112833355D01*
X163120039Y-112908813D01*
X162889411Y-113019877D01*
X162889403Y-113019882D01*
X162730221Y-113128410D01*
X162730221Y-113128412D01*
X163387505Y-113785696D01*
X163366858Y-113794249D01*
X163235830Y-113881799D01*
X163124399Y-113993230D01*
X163036849Y-114124258D01*
X163028296Y-114144905D01*
X162371052Y-113487661D01*
X162371050Y-113487661D01*
X162330628Y-113538348D01*
X162330625Y-113538353D01*
X162202628Y-113760051D01*
X162202626Y-113760055D01*
X162109106Y-113998343D01*
X162109105Y-113998345D01*
X162052141Y-114247918D01*
X162033011Y-114503200D01*
X162052141Y-114758481D01*
X162109105Y-115008054D01*
X162109106Y-115008056D01*
X162202626Y-115246344D01*
X162202628Y-115246348D01*
X162315722Y-115442232D01*
X162332460Y-115511227D01*
X162309239Y-115578319D01*
X162253432Y-115622206D01*
X162182757Y-115628955D01*
X162135625Y-115609338D01*
X162062448Y-115559447D01*
X162062440Y-115559442D01*
X161831736Y-115448342D01*
X161831729Y-115448339D01*
X161587053Y-115372867D01*
X161587045Y-115372865D01*
X161587043Y-115372865D01*
X161333834Y-115334700D01*
X161077766Y-115334700D01*
X160824557Y-115372865D01*
X160824555Y-115372865D01*
X160824546Y-115372867D01*
X160579873Y-115448338D01*
X160579860Y-115448343D01*
X160349152Y-115559447D01*
X160349145Y-115559452D01*
X160275974Y-115609339D01*
X160208422Y-115631186D01*
X160139783Y-115613044D01*
X160091848Y-115560673D01*
X160079837Y-115490699D01*
X160095877Y-115442233D01*
X160208971Y-115246348D01*
X160208973Y-115246344D01*
X160302493Y-115008056D01*
X160302494Y-115008054D01*
X160359458Y-114758481D01*
X160378588Y-114503200D01*
X160359458Y-114247918D01*
X160302494Y-113998345D01*
X160302493Y-113998343D01*
X160208973Y-113760055D01*
X160208971Y-113760051D01*
X160080975Y-113538355D01*
X160040547Y-113487661D01*
X159383303Y-114144905D01*
X159374751Y-114124258D01*
X159287201Y-113993230D01*
X159175770Y-113881799D01*
X159044742Y-113794249D01*
X159024094Y-113785696D01*
X159681378Y-113128411D01*
X159522190Y-113019878D01*
X159522189Y-113019877D01*
X159291553Y-112908810D01*
X159291546Y-112908807D01*
X159046941Y-112833356D01*
X159046929Y-112833354D01*
X158793792Y-112795200D01*
X158537808Y-112795200D01*
X158284670Y-112833354D01*
X158284662Y-112833355D01*
X158040039Y-112908813D01*
X157809411Y-113019877D01*
X157809403Y-113019882D01*
X157650221Y-113128410D01*
X157650221Y-113128412D01*
X158307505Y-113785696D01*
X158286858Y-113794249D01*
X158155830Y-113881799D01*
X158044399Y-113993230D01*
X157956849Y-114124258D01*
X157948296Y-114144905D01*
X157291052Y-113487661D01*
X157291050Y-113487661D01*
X157250628Y-113538348D01*
X157250625Y-113538353D01*
X157122628Y-113760051D01*
X157122626Y-113760055D01*
X157029106Y-113998343D01*
X157029105Y-113998345D01*
X156972141Y-114247918D01*
X156953011Y-114503200D01*
X156972141Y-114758481D01*
X157029105Y-115008054D01*
X157029106Y-115008056D01*
X157122626Y-115246344D01*
X157122628Y-115246348D01*
X157250624Y-115468044D01*
X157250629Y-115468052D01*
X157291050Y-115518737D01*
X157291052Y-115518737D01*
X157948296Y-114861493D01*
X157956849Y-114882142D01*
X158044399Y-115013170D01*
X158155830Y-115124601D01*
X158286858Y-115212151D01*
X158307506Y-115220703D01*
X157650221Y-115877987D01*
X157809410Y-115986521D01*
X157809411Y-115986522D01*
X158040039Y-116097586D01*
X158284662Y-116173044D01*
X158284670Y-116173045D01*
X158537808Y-116211200D01*
X158793792Y-116211200D01*
X159046929Y-116173045D01*
X159046941Y-116173043D01*
X159291546Y-116097592D01*
X159291553Y-116097589D01*
X159522189Y-115986522D01*
X159522193Y-115986520D01*
X159595248Y-115936711D01*
X159662800Y-115914863D01*
X159731439Y-115933004D01*
X159779375Y-115985375D01*
X159791387Y-116055348D01*
X159775347Y-116103816D01*
X159662176Y-116299833D01*
X159662174Y-116299837D01*
X159568627Y-116538194D01*
X159568626Y-116538197D01*
X159511645Y-116787843D01*
X159492509Y-117043200D01*
X159511645Y-117298556D01*
X159568626Y-117548202D01*
X159568627Y-117548205D01*
X159662174Y-117786562D01*
X159662176Y-117786566D01*
X159775347Y-117982583D01*
X159792085Y-118051578D01*
X159768865Y-118118670D01*
X159713057Y-118162557D01*
X159642382Y-118169306D01*
X159595249Y-118149689D01*
X159522190Y-118099878D01*
X159522189Y-118099877D01*
X159291553Y-117988810D01*
X159291546Y-117988807D01*
X159046941Y-117913356D01*
X159046929Y-117913354D01*
X158793792Y-117875200D01*
X158537808Y-117875200D01*
X158284670Y-117913354D01*
X158284662Y-117913355D01*
X158040039Y-117988813D01*
X157809411Y-118099877D01*
X157809403Y-118099882D01*
X157650221Y-118208410D01*
X157650221Y-118208412D01*
X158307505Y-118865696D01*
X158286858Y-118874249D01*
X158155830Y-118961799D01*
X158044399Y-119073230D01*
X157956849Y-119204258D01*
X157948296Y-119224905D01*
X157291052Y-118567661D01*
X157291050Y-118567661D01*
X157250628Y-118618348D01*
X157250625Y-118618353D01*
X157122628Y-118840051D01*
X157122626Y-118840055D01*
X157029106Y-119078343D01*
X157029105Y-119078345D01*
X156972141Y-119327918D01*
X156953011Y-119583200D01*
X150458588Y-119583200D01*
X150439458Y-119327918D01*
X150382494Y-119078345D01*
X150382493Y-119078343D01*
X150288973Y-118840055D01*
X150288971Y-118840051D01*
X150160975Y-118618355D01*
X150120547Y-118567660D01*
X149463303Y-119224904D01*
X149454751Y-119204258D01*
X149367201Y-119073230D01*
X149255770Y-118961799D01*
X149124742Y-118874249D01*
X149104093Y-118865695D01*
X149761378Y-118208411D01*
X149602190Y-118099878D01*
X149602189Y-118099877D01*
X149371553Y-117988810D01*
X149371546Y-117988807D01*
X149126941Y-117913356D01*
X149126929Y-117913354D01*
X148873792Y-117875200D01*
X148617808Y-117875200D01*
X148364670Y-117913354D01*
X148364662Y-117913355D01*
X148120039Y-117988813D01*
X147889411Y-118099877D01*
X147889403Y-118099882D01*
X147816349Y-118149690D01*
X147748798Y-118171537D01*
X147680158Y-118153395D01*
X147632223Y-118101024D01*
X147620212Y-118031051D01*
X147636252Y-117982584D01*
X147676221Y-117913356D01*
X147749422Y-117786569D01*
X147842974Y-117548201D01*
X147899955Y-117298553D01*
X147919091Y-117043200D01*
X147899955Y-116787847D01*
X147842974Y-116538199D01*
X147837813Y-116525049D01*
X147749425Y-116299837D01*
X147749423Y-116299833D01*
X147636252Y-116103815D01*
X147619514Y-116034820D01*
X147642734Y-115967728D01*
X147698542Y-115923841D01*
X147769217Y-115917092D01*
X147816350Y-115936710D01*
X147889401Y-115986516D01*
X147889411Y-115986522D01*
X148120039Y-116097586D01*
X148364662Y-116173044D01*
X148364670Y-116173045D01*
X148617808Y-116211200D01*
X148873792Y-116211200D01*
X149126929Y-116173045D01*
X149126941Y-116173043D01*
X149371546Y-116097592D01*
X149371553Y-116097589D01*
X149602197Y-115986518D01*
X149602199Y-115986517D01*
X149761377Y-115877989D01*
X149761378Y-115877987D01*
X149104094Y-115220703D01*
X149124742Y-115212151D01*
X149255770Y-115124601D01*
X149367201Y-115013170D01*
X149454751Y-114882142D01*
X149463303Y-114861494D01*
X150120547Y-115518738D01*
X150120548Y-115518737D01*
X150160972Y-115468049D01*
X150160972Y-115468048D01*
X150288971Y-115246348D01*
X150288973Y-115246344D01*
X150382493Y-115008056D01*
X150382494Y-115008054D01*
X150439458Y-114758481D01*
X150458588Y-114503200D01*
X150439458Y-114247918D01*
X150382494Y-113998345D01*
X150382493Y-113998343D01*
X150288973Y-113760055D01*
X150288971Y-113760051D01*
X150160975Y-113538355D01*
X150120547Y-113487660D01*
X149463303Y-114144904D01*
X149454751Y-114124258D01*
X149367201Y-113993230D01*
X149255770Y-113881799D01*
X149124742Y-113794249D01*
X149104094Y-113785696D01*
X149761378Y-113128411D01*
X149602190Y-113019878D01*
X149602189Y-113019877D01*
X149371553Y-112908810D01*
X149371546Y-112908807D01*
X149126941Y-112833356D01*
X149126929Y-112833354D01*
X148873792Y-112795200D01*
X148617808Y-112795200D01*
X148364670Y-112833354D01*
X148364662Y-112833355D01*
X148120039Y-112908813D01*
X147889411Y-113019877D01*
X147889403Y-113019882D01*
X147730221Y-113128410D01*
X147730221Y-113128412D01*
X148387505Y-113785696D01*
X148366858Y-113794249D01*
X148235830Y-113881799D01*
X148124399Y-113993230D01*
X148036849Y-114124258D01*
X148028296Y-114144905D01*
X147371052Y-113487661D01*
X147371050Y-113487661D01*
X147330628Y-113538348D01*
X147330625Y-113538353D01*
X147202628Y-113760051D01*
X147202626Y-113760055D01*
X147109106Y-113998343D01*
X147109105Y-113998345D01*
X147052141Y-114247918D01*
X147033011Y-114503200D01*
X147052141Y-114758481D01*
X147109105Y-115008054D01*
X147109106Y-115008056D01*
X147202626Y-115246344D01*
X147202628Y-115246348D01*
X147315722Y-115442232D01*
X147332460Y-115511227D01*
X147309239Y-115578319D01*
X147253432Y-115622206D01*
X147182757Y-115628955D01*
X147135625Y-115609338D01*
X147062448Y-115559447D01*
X147062440Y-115559442D01*
X146831736Y-115448342D01*
X146831729Y-115448339D01*
X146587053Y-115372867D01*
X146587045Y-115372865D01*
X146587043Y-115372865D01*
X146333834Y-115334700D01*
X146077766Y-115334700D01*
X145824557Y-115372865D01*
X145824555Y-115372865D01*
X145824546Y-115372867D01*
X145579873Y-115448338D01*
X145579860Y-115448343D01*
X145349152Y-115559447D01*
X145349145Y-115559452D01*
X145275974Y-115609339D01*
X145208422Y-115631186D01*
X145139783Y-115613044D01*
X145091848Y-115560673D01*
X145079837Y-115490699D01*
X145095877Y-115442233D01*
X145208971Y-115246348D01*
X145208973Y-115246344D01*
X145302493Y-115008056D01*
X145302494Y-115008054D01*
X145359458Y-114758481D01*
X145378588Y-114503200D01*
X145359458Y-114247918D01*
X145302494Y-113998345D01*
X145302493Y-113998343D01*
X145208973Y-113760055D01*
X145208971Y-113760051D01*
X145080975Y-113538355D01*
X145040547Y-113487661D01*
X144383303Y-114144905D01*
X144374751Y-114124258D01*
X144287201Y-113993230D01*
X144175770Y-113881799D01*
X144044742Y-113794249D01*
X144024094Y-113785696D01*
X144681378Y-113128411D01*
X144522190Y-113019878D01*
X144522189Y-113019877D01*
X144291553Y-112908810D01*
X144291546Y-112908807D01*
X144046941Y-112833356D01*
X144046929Y-112833354D01*
X143793792Y-112795200D01*
X143537808Y-112795200D01*
X143284670Y-112833354D01*
X143284662Y-112833355D01*
X143040039Y-112908813D01*
X142809411Y-113019877D01*
X142809403Y-113019882D01*
X142650221Y-113128410D01*
X142650221Y-113128412D01*
X143307505Y-113785696D01*
X143286858Y-113794249D01*
X143155830Y-113881799D01*
X143044399Y-113993230D01*
X142956849Y-114124258D01*
X142948296Y-114144905D01*
X142291052Y-113487661D01*
X142291050Y-113487661D01*
X142250628Y-113538348D01*
X142250625Y-113538353D01*
X142122628Y-113760051D01*
X142122626Y-113760055D01*
X142029106Y-113998343D01*
X142029105Y-113998345D01*
X141972141Y-114247918D01*
X141953011Y-114503200D01*
X141972141Y-114758481D01*
X142029105Y-115008054D01*
X142029106Y-115008056D01*
X142122626Y-115246344D01*
X142122628Y-115246348D01*
X142250624Y-115468044D01*
X142250629Y-115468052D01*
X142291050Y-115518737D01*
X142291052Y-115518737D01*
X142948296Y-114861493D01*
X142956849Y-114882142D01*
X143044399Y-115013170D01*
X143155830Y-115124601D01*
X143286858Y-115212151D01*
X143307506Y-115220703D01*
X142650221Y-115877987D01*
X142809410Y-115986521D01*
X142809411Y-115986522D01*
X143040039Y-116097586D01*
X143284662Y-116173044D01*
X143284670Y-116173045D01*
X143537808Y-116211200D01*
X143793792Y-116211200D01*
X144046929Y-116173045D01*
X144046941Y-116173043D01*
X144291546Y-116097592D01*
X144291553Y-116097589D01*
X144522189Y-115986522D01*
X144522193Y-115986520D01*
X144595248Y-115936711D01*
X144662800Y-115914863D01*
X144731439Y-115933004D01*
X144779375Y-115985375D01*
X144791387Y-116055348D01*
X144775347Y-116103816D01*
X144662176Y-116299833D01*
X144662174Y-116299837D01*
X144568627Y-116538194D01*
X144568626Y-116538197D01*
X144511645Y-116787843D01*
X144492509Y-117043200D01*
X144511645Y-117298556D01*
X144568626Y-117548202D01*
X144568627Y-117548205D01*
X144662174Y-117786562D01*
X144662176Y-117786566D01*
X144775347Y-117982583D01*
X144792085Y-118051578D01*
X144768865Y-118118670D01*
X144713057Y-118162557D01*
X144642382Y-118169306D01*
X144595249Y-118149689D01*
X144522190Y-118099878D01*
X144522189Y-118099877D01*
X144291553Y-117988810D01*
X144291546Y-117988807D01*
X144046941Y-117913356D01*
X144046929Y-117913354D01*
X143793792Y-117875200D01*
X143537808Y-117875200D01*
X143284670Y-117913354D01*
X143284662Y-117913355D01*
X143040039Y-117988813D01*
X142809411Y-118099877D01*
X142809403Y-118099882D01*
X142650221Y-118208410D01*
X142650221Y-118208412D01*
X143307505Y-118865696D01*
X143286858Y-118874249D01*
X143155830Y-118961799D01*
X143044399Y-119073230D01*
X142956849Y-119204258D01*
X142948296Y-119224905D01*
X142291052Y-118567661D01*
X142291050Y-118567661D01*
X142250628Y-118618348D01*
X142250625Y-118618353D01*
X142122628Y-118840051D01*
X142122626Y-118840055D01*
X142029106Y-119078343D01*
X142029105Y-119078345D01*
X141972141Y-119327918D01*
X141953011Y-119583200D01*
X140458588Y-119583200D01*
X140439458Y-119327918D01*
X140382494Y-119078345D01*
X140382493Y-119078343D01*
X140288973Y-118840055D01*
X140288971Y-118840051D01*
X140160975Y-118618355D01*
X140120547Y-118567660D01*
X139463303Y-119224904D01*
X139454751Y-119204258D01*
X139367201Y-119073230D01*
X139255770Y-118961799D01*
X139124742Y-118874249D01*
X139104093Y-118865695D01*
X139761378Y-118208411D01*
X139602190Y-118099878D01*
X139602189Y-118099877D01*
X139371553Y-117988810D01*
X139371546Y-117988807D01*
X139126941Y-117913356D01*
X139126929Y-117913354D01*
X138873792Y-117875200D01*
X138617808Y-117875200D01*
X138364670Y-117913354D01*
X138364662Y-117913355D01*
X138120039Y-117988813D01*
X137889411Y-118099877D01*
X137889403Y-118099882D01*
X137816349Y-118149690D01*
X137748798Y-118171537D01*
X137680158Y-118153395D01*
X137632223Y-118101024D01*
X137620212Y-118031051D01*
X137636252Y-117982584D01*
X137676221Y-117913356D01*
X137749422Y-117786569D01*
X137842974Y-117548201D01*
X137899955Y-117298553D01*
X137919091Y-117043200D01*
X137899955Y-116787847D01*
X137842974Y-116538199D01*
X137837813Y-116525049D01*
X137749425Y-116299837D01*
X137749423Y-116299833D01*
X137636252Y-116103815D01*
X137619514Y-116034820D01*
X137642734Y-115967728D01*
X137698542Y-115923841D01*
X137769217Y-115917092D01*
X137816350Y-115936710D01*
X137889401Y-115986516D01*
X137889411Y-115986522D01*
X138120039Y-116097586D01*
X138364662Y-116173044D01*
X138364670Y-116173045D01*
X138617808Y-116211200D01*
X138873792Y-116211200D01*
X139126929Y-116173045D01*
X139126941Y-116173043D01*
X139371546Y-116097592D01*
X139371553Y-116097589D01*
X139602197Y-115986518D01*
X139602199Y-115986517D01*
X139761377Y-115877989D01*
X139761378Y-115877987D01*
X139104094Y-115220703D01*
X139124742Y-115212151D01*
X139255770Y-115124601D01*
X139367201Y-115013170D01*
X139454751Y-114882142D01*
X139463303Y-114861494D01*
X140120547Y-115518738D01*
X140120548Y-115518737D01*
X140160972Y-115468049D01*
X140160972Y-115468048D01*
X140288971Y-115246348D01*
X140288973Y-115246344D01*
X140382493Y-115008056D01*
X140382494Y-115008054D01*
X140439458Y-114758481D01*
X140458588Y-114503200D01*
X140439458Y-114247918D01*
X140382494Y-113998345D01*
X140382493Y-113998343D01*
X140288973Y-113760055D01*
X140288971Y-113760051D01*
X140160975Y-113538355D01*
X140120547Y-113487660D01*
X139463303Y-114144904D01*
X139454751Y-114124258D01*
X139367201Y-113993230D01*
X139255770Y-113881799D01*
X139124742Y-113794249D01*
X139104094Y-113785696D01*
X139761378Y-113128411D01*
X139602190Y-113019878D01*
X139602189Y-113019877D01*
X139371553Y-112908810D01*
X139371546Y-112908807D01*
X139126941Y-112833356D01*
X139126929Y-112833354D01*
X138873792Y-112795200D01*
X138617808Y-112795200D01*
X138364670Y-112833354D01*
X138364662Y-112833355D01*
X138120039Y-112908813D01*
X137889411Y-113019877D01*
X137889403Y-113019882D01*
X137730221Y-113128410D01*
X137730221Y-113128412D01*
X138387505Y-113785696D01*
X138366858Y-113794249D01*
X138235830Y-113881799D01*
X138124399Y-113993230D01*
X138036849Y-114124258D01*
X138028296Y-114144905D01*
X137371052Y-113487661D01*
X137371050Y-113487661D01*
X137330628Y-113538348D01*
X137330625Y-113538353D01*
X137202628Y-113760051D01*
X137202626Y-113760055D01*
X137109106Y-113998343D01*
X137109105Y-113998345D01*
X137052141Y-114247918D01*
X137033011Y-114503200D01*
X137052141Y-114758481D01*
X137109105Y-115008054D01*
X137109106Y-115008056D01*
X137202626Y-115246344D01*
X137202628Y-115246348D01*
X137315722Y-115442232D01*
X137332460Y-115511227D01*
X137309239Y-115578319D01*
X137253432Y-115622206D01*
X137182757Y-115628955D01*
X137135625Y-115609338D01*
X137062448Y-115559447D01*
X137062440Y-115559442D01*
X136831736Y-115448342D01*
X136831729Y-115448339D01*
X136587053Y-115372867D01*
X136587045Y-115372865D01*
X136587043Y-115372865D01*
X136333834Y-115334700D01*
X136077766Y-115334700D01*
X135824557Y-115372865D01*
X135824555Y-115372865D01*
X135824546Y-115372867D01*
X135579873Y-115448338D01*
X135579860Y-115448343D01*
X135349152Y-115559447D01*
X135349145Y-115559452D01*
X135275974Y-115609339D01*
X135208422Y-115631186D01*
X135139783Y-115613044D01*
X135091848Y-115560673D01*
X135079837Y-115490699D01*
X135095877Y-115442233D01*
X135208971Y-115246348D01*
X135208973Y-115246344D01*
X135302493Y-115008056D01*
X135302494Y-115008054D01*
X135359458Y-114758481D01*
X135378588Y-114503200D01*
X135359458Y-114247918D01*
X135302494Y-113998345D01*
X135302493Y-113998343D01*
X135208973Y-113760055D01*
X135208971Y-113760051D01*
X135080975Y-113538355D01*
X135040547Y-113487661D01*
X134383303Y-114144905D01*
X134374751Y-114124258D01*
X134287201Y-113993230D01*
X134175770Y-113881799D01*
X134044742Y-113794249D01*
X134024094Y-113785696D01*
X134681378Y-113128411D01*
X134522190Y-113019878D01*
X134522189Y-113019877D01*
X134291553Y-112908810D01*
X134291546Y-112908807D01*
X134046941Y-112833356D01*
X134046929Y-112833354D01*
X133793792Y-112795200D01*
X133537808Y-112795200D01*
X133284670Y-112833354D01*
X133284662Y-112833355D01*
X133040039Y-112908813D01*
X132809411Y-113019877D01*
X132809403Y-113019882D01*
X132650221Y-113128410D01*
X132650221Y-113128412D01*
X133307505Y-113785696D01*
X133286858Y-113794249D01*
X133155830Y-113881799D01*
X133044399Y-113993230D01*
X132956849Y-114124258D01*
X132948296Y-114144905D01*
X132291052Y-113487661D01*
X132291050Y-113487661D01*
X132250628Y-113538348D01*
X132250625Y-113538353D01*
X132122628Y-113760051D01*
X132122626Y-113760055D01*
X132029106Y-113998343D01*
X132029105Y-113998345D01*
X131972141Y-114247918D01*
X131953011Y-114503200D01*
X131972141Y-114758481D01*
X132029105Y-115008054D01*
X132029106Y-115008056D01*
X132122626Y-115246344D01*
X132122628Y-115246348D01*
X132250624Y-115468044D01*
X132250629Y-115468052D01*
X132291050Y-115518737D01*
X132291052Y-115518737D01*
X132948296Y-114861493D01*
X132956849Y-114882142D01*
X133044399Y-115013170D01*
X133155830Y-115124601D01*
X133286858Y-115212151D01*
X133307506Y-115220703D01*
X132650221Y-115877987D01*
X132809410Y-115986521D01*
X132809411Y-115986522D01*
X133040039Y-116097586D01*
X133284662Y-116173044D01*
X133284670Y-116173045D01*
X133537808Y-116211200D01*
X133793792Y-116211200D01*
X134046929Y-116173045D01*
X134046941Y-116173043D01*
X134291546Y-116097592D01*
X134291553Y-116097589D01*
X134522189Y-115986522D01*
X134522193Y-115986520D01*
X134595248Y-115936711D01*
X134662800Y-115914863D01*
X134731439Y-115933004D01*
X134779375Y-115985375D01*
X134791387Y-116055348D01*
X134775347Y-116103816D01*
X134662176Y-116299833D01*
X134662174Y-116299837D01*
X134568627Y-116538194D01*
X134568626Y-116538197D01*
X134511645Y-116787843D01*
X134492509Y-117043200D01*
X134511645Y-117298556D01*
X134568626Y-117548202D01*
X134568627Y-117548205D01*
X134662174Y-117786562D01*
X134662176Y-117786566D01*
X134775347Y-117982583D01*
X134792085Y-118051578D01*
X134768865Y-118118670D01*
X134713057Y-118162557D01*
X134642382Y-118169306D01*
X134595249Y-118149689D01*
X134522190Y-118099878D01*
X134522189Y-118099877D01*
X134291553Y-117988810D01*
X134291546Y-117988807D01*
X134046941Y-117913356D01*
X134046929Y-117913354D01*
X133793792Y-117875200D01*
X133537808Y-117875200D01*
X133284670Y-117913354D01*
X133284662Y-117913355D01*
X133040039Y-117988813D01*
X132809411Y-118099877D01*
X132809403Y-118099882D01*
X132650221Y-118208410D01*
X132650221Y-118208412D01*
X133307505Y-118865696D01*
X133286858Y-118874249D01*
X133155830Y-118961799D01*
X133044399Y-119073230D01*
X132956849Y-119204258D01*
X132948296Y-119224905D01*
X132291052Y-118567661D01*
X132291050Y-118567661D01*
X132250628Y-118618348D01*
X132250625Y-118618353D01*
X132122628Y-118840051D01*
X132122626Y-118840055D01*
X132029106Y-119078343D01*
X132029105Y-119078345D01*
X131972141Y-119327918D01*
X131953011Y-119583200D01*
X129740000Y-119583200D01*
X129740000Y-80246105D01*
X129760002Y-80177984D01*
X129813658Y-80131491D01*
X129866102Y-80120105D01*
X147429814Y-80134809D01*
G37*
%TD.AperFunction*%
%TD*%
M02*
