%TF.GenerationSoftware,KiCad,Pcbnew,8.0.0-rc1-6-gb7460f29b4*%
%TF.CreationDate,2025-03-10T21:48:14+01:00*%
%TF.ProjectId,LO_daughter,4c4f5f64-6175-4676-9874-65722e6b6963,rev?*%
%TF.SameCoordinates,Original*%
%TF.FileFunction,Drillmap*%
%TF.FilePolarity,Positive*%
%FSLAX45Y45*%
G04 Gerber Fmt 4.5, Leading zero omitted, Abs format (unit mm)*
G04 Created by KiCad (PCBNEW 8.0.0-rc1-6-gb7460f29b4) date 2025-03-10 21:48:14*
%MOMM*%
%LPD*%
G01*
G04 APERTURE LIST*
%ADD10C,0.500000*%
%ADD11C,0.200000*%
G04 APERTURE END LIST*
D10*
X12974000Y-8007000D02*
X17752000Y-8007000D01*
X17752000Y-11785000D01*
X12974000Y-11785000D01*
X12974000Y-8007000D01*
D11*
X13209777Y-12121484D02*
X13209777Y-11921484D01*
X13209777Y-11921484D02*
X13257396Y-11921484D01*
X13257396Y-11921484D02*
X13285967Y-11931008D01*
X13285967Y-11931008D02*
X13305015Y-11950055D01*
X13305015Y-11950055D02*
X13314539Y-11969103D01*
X13314539Y-11969103D02*
X13324062Y-12007198D01*
X13324062Y-12007198D02*
X13324062Y-12035769D01*
X13324062Y-12035769D02*
X13314539Y-12073865D01*
X13314539Y-12073865D02*
X13305015Y-12092912D01*
X13305015Y-12092912D02*
X13285967Y-12111960D01*
X13285967Y-12111960D02*
X13257396Y-12121484D01*
X13257396Y-12121484D02*
X13209777Y-12121484D01*
X13409777Y-12121484D02*
X13409777Y-11988150D01*
X13409777Y-12026246D02*
X13419301Y-12007198D01*
X13419301Y-12007198D02*
X13428824Y-11997674D01*
X13428824Y-11997674D02*
X13447872Y-11988150D01*
X13447872Y-11988150D02*
X13466920Y-11988150D01*
X13533586Y-12121484D02*
X13533586Y-11988150D01*
X13533586Y-11921484D02*
X13524062Y-11931008D01*
X13524062Y-11931008D02*
X13533586Y-11940531D01*
X13533586Y-11940531D02*
X13543110Y-11931008D01*
X13543110Y-11931008D02*
X13533586Y-11921484D01*
X13533586Y-11921484D02*
X13533586Y-11940531D01*
X13657396Y-12121484D02*
X13638348Y-12111960D01*
X13638348Y-12111960D02*
X13628824Y-12092912D01*
X13628824Y-12092912D02*
X13628824Y-11921484D01*
X13762158Y-12121484D02*
X13743110Y-12111960D01*
X13743110Y-12111960D02*
X13733586Y-12092912D01*
X13733586Y-12092912D02*
X13733586Y-11921484D01*
X13990729Y-12121484D02*
X13990729Y-11921484D01*
X13990729Y-11921484D02*
X14057396Y-12064341D01*
X14057396Y-12064341D02*
X14124062Y-11921484D01*
X14124062Y-11921484D02*
X14124062Y-12121484D01*
X14305015Y-12121484D02*
X14305015Y-12016722D01*
X14305015Y-12016722D02*
X14295491Y-11997674D01*
X14295491Y-11997674D02*
X14276443Y-11988150D01*
X14276443Y-11988150D02*
X14238348Y-11988150D01*
X14238348Y-11988150D02*
X14219301Y-11997674D01*
X14305015Y-12111960D02*
X14285967Y-12121484D01*
X14285967Y-12121484D02*
X14238348Y-12121484D01*
X14238348Y-12121484D02*
X14219301Y-12111960D01*
X14219301Y-12111960D02*
X14209777Y-12092912D01*
X14209777Y-12092912D02*
X14209777Y-12073865D01*
X14209777Y-12073865D02*
X14219301Y-12054817D01*
X14219301Y-12054817D02*
X14238348Y-12045293D01*
X14238348Y-12045293D02*
X14285967Y-12045293D01*
X14285967Y-12045293D02*
X14305015Y-12035769D01*
X14400253Y-11988150D02*
X14400253Y-12188150D01*
X14400253Y-11997674D02*
X14419301Y-11988150D01*
X14419301Y-11988150D02*
X14457396Y-11988150D01*
X14457396Y-11988150D02*
X14476443Y-11997674D01*
X14476443Y-11997674D02*
X14485967Y-12007198D01*
X14485967Y-12007198D02*
X14495491Y-12026246D01*
X14495491Y-12026246D02*
X14495491Y-12083388D01*
X14495491Y-12083388D02*
X14485967Y-12102436D01*
X14485967Y-12102436D02*
X14476443Y-12111960D01*
X14476443Y-12111960D02*
X14457396Y-12121484D01*
X14457396Y-12121484D02*
X14419301Y-12121484D01*
X14419301Y-12121484D02*
X14400253Y-12111960D01*
X14581205Y-12102436D02*
X14590729Y-12111960D01*
X14590729Y-12111960D02*
X14581205Y-12121484D01*
X14581205Y-12121484D02*
X14571682Y-12111960D01*
X14571682Y-12111960D02*
X14581205Y-12102436D01*
X14581205Y-12102436D02*
X14581205Y-12121484D01*
X14581205Y-11997674D02*
X14590729Y-12007198D01*
X14590729Y-12007198D02*
X14581205Y-12016722D01*
X14581205Y-12016722D02*
X14571682Y-12007198D01*
X14571682Y-12007198D02*
X14581205Y-11997674D01*
X14581205Y-11997674D02*
X14581205Y-12016722D01*
M02*
