G04 #@! TF.GenerationSoftware,KiCad,Pcbnew,8.0.0-rc1-6-gb7460f29b4*
G04 #@! TF.CreationDate,2025-03-10T21:44:44+01:00*
G04 #@! TF.ProjectId,LO_daughter,4c4f5f64-6175-4676-9874-65722e6b6963,rev?*
G04 #@! TF.SameCoordinates,Original*
G04 #@! TF.FileFunction,Copper,L1,Top*
G04 #@! TF.FilePolarity,Positive*
%FSLAX46Y46*%
G04 Gerber Fmt 4.6, Leading zero omitted, Abs format (unit mm)*
G04 Created by KiCad (PCBNEW 8.0.0-rc1-6-gb7460f29b4) date 2025-03-10 21:44:44*
%MOMM*%
%LPD*%
G01*
G04 APERTURE LIST*
G04 Aperture macros list*
%AMRoundRect*
0 Rectangle with rounded corners*
0 $1 Rounding radius*
0 $2 $3 $4 $5 $6 $7 $8 $9 X,Y pos of 4 corners*
0 Add a 4 corners polygon primitive as box body*
4,1,4,$2,$3,$4,$5,$6,$7,$8,$9,$2,$3,0*
0 Add four circle primitives for the rounded corners*
1,1,$1+$1,$2,$3*
1,1,$1+$1,$4,$5*
1,1,$1+$1,$6,$7*
1,1,$1+$1,$8,$9*
0 Add four rect primitives between the rounded corners*
20,1,$1+$1,$2,$3,$4,$5,0*
20,1,$1+$1,$4,$5,$6,$7,0*
20,1,$1+$1,$6,$7,$8,$9,0*
20,1,$1+$1,$8,$9,$2,$3,0*%
G04 Aperture macros list end*
%ADD10C,0.300000*%
G04 #@! TA.AperFunction,NonConductor*
%ADD11C,0.300000*%
G04 #@! TD*
G04 #@! TA.AperFunction,EtchedComponent*
%ADD12C,0.100000*%
G04 #@! TD*
G04 #@! TA.AperFunction,SMDPad,CuDef*
%ADD13RoundRect,0.237500X-0.237500X0.250000X-0.237500X-0.250000X0.237500X-0.250000X0.237500X0.250000X0*%
G04 #@! TD*
G04 #@! TA.AperFunction,SMDPad,CuDef*
%ADD14R,1.065000X0.360000*%
G04 #@! TD*
G04 #@! TA.AperFunction,SMDPad,CuDef*
%ADD15R,0.710000X0.360000*%
G04 #@! TD*
G04 #@! TA.AperFunction,SMDPad,CuDef*
%ADD16R,0.410000X1.780000*%
G04 #@! TD*
G04 #@! TA.AperFunction,SMDPad,CuDef*
%ADD17RoundRect,0.237500X-0.237500X0.300000X-0.237500X-0.300000X0.237500X-0.300000X0.237500X0.300000X0*%
G04 #@! TD*
G04 #@! TA.AperFunction,SMDPad,CuDef*
%ADD18R,3.180000X1.040000*%
G04 #@! TD*
G04 #@! TA.AperFunction,SMDPad,CuDef*
%ADD19RoundRect,0.250000X0.337500X0.475000X-0.337500X0.475000X-0.337500X-0.475000X0.337500X-0.475000X0*%
G04 #@! TD*
G04 #@! TA.AperFunction,SMDPad,CuDef*
%ADD20RoundRect,0.100000X0.100000X-0.217500X0.100000X0.217500X-0.100000X0.217500X-0.100000X-0.217500X0*%
G04 #@! TD*
G04 #@! TA.AperFunction,SMDPad,CuDef*
%ADD21RoundRect,0.250000X-0.337500X-0.475000X0.337500X-0.475000X0.337500X0.475000X-0.337500X0.475000X0*%
G04 #@! TD*
G04 #@! TA.AperFunction,ComponentPad*
%ADD22C,2.400000*%
G04 #@! TD*
G04 #@! TA.AperFunction,SMDPad,CuDef*
%ADD23RoundRect,0.160000X0.222500X0.160000X-0.222500X0.160000X-0.222500X-0.160000X0.222500X-0.160000X0*%
G04 #@! TD*
G04 #@! TA.AperFunction,SMDPad,CuDef*
%ADD24RoundRect,0.250000X-0.475000X0.337500X-0.475000X-0.337500X0.475000X-0.337500X0.475000X0.337500X0*%
G04 #@! TD*
G04 #@! TA.AperFunction,SMDPad,CuDef*
%ADD25RoundRect,0.237500X-0.300000X-0.237500X0.300000X-0.237500X0.300000X0.237500X-0.300000X0.237500X0*%
G04 #@! TD*
G04 #@! TA.AperFunction,SMDPad,CuDef*
%ADD26RoundRect,0.237500X-0.250000X-0.237500X0.250000X-0.237500X0.250000X0.237500X-0.250000X0.237500X0*%
G04 #@! TD*
G04 #@! TA.AperFunction,SMDPad,CuDef*
%ADD27R,0.500000X0.400000*%
G04 #@! TD*
G04 #@! TA.AperFunction,SMDPad,CuDef*
%ADD28RoundRect,0.250000X-0.412500X-0.650000X0.412500X-0.650000X0.412500X0.650000X-0.412500X0.650000X0*%
G04 #@! TD*
G04 #@! TA.AperFunction,SMDPad,CuDef*
%ADD29RoundRect,0.160000X-0.222500X-0.160000X0.222500X-0.160000X0.222500X0.160000X-0.222500X0.160000X0*%
G04 #@! TD*
G04 #@! TA.AperFunction,SMDPad,CuDef*
%ADD30RoundRect,0.160000X0.197500X0.160000X-0.197500X0.160000X-0.197500X-0.160000X0.197500X-0.160000X0*%
G04 #@! TD*
G04 #@! TA.AperFunction,SMDPad,CuDef*
%ADD31RoundRect,0.237500X0.300000X0.237500X-0.300000X0.237500X-0.300000X-0.237500X0.300000X-0.237500X0*%
G04 #@! TD*
G04 #@! TA.AperFunction,ComponentPad*
%ADD32R,2.100000X2.100000*%
G04 #@! TD*
G04 #@! TA.AperFunction,ComponentPad*
%ADD33C,2.100000*%
G04 #@! TD*
G04 #@! TA.AperFunction,SMDPad,CuDef*
%ADD34RoundRect,0.155000X-0.212500X-0.155000X0.212500X-0.155000X0.212500X0.155000X-0.212500X0.155000X0*%
G04 #@! TD*
G04 #@! TA.AperFunction,SMDPad,CuDef*
%ADD35RoundRect,0.155000X0.212500X0.155000X-0.212500X0.155000X-0.212500X-0.155000X0.212500X-0.155000X0*%
G04 #@! TD*
G04 #@! TA.AperFunction,SMDPad,CuDef*
%ADD36R,0.800000X0.300000*%
G04 #@! TD*
G04 #@! TA.AperFunction,SMDPad,CuDef*
%ADD37R,0.300000X0.800000*%
G04 #@! TD*
G04 #@! TA.AperFunction,SMDPad,CuDef*
%ADD38R,3.750000X3.750000*%
G04 #@! TD*
G04 #@! TA.AperFunction,SMDPad,CuDef*
%ADD39RoundRect,0.250000X0.475000X-0.337500X0.475000X0.337500X-0.475000X0.337500X-0.475000X-0.337500X0*%
G04 #@! TD*
G04 #@! TA.AperFunction,SMDPad,CuDef*
%ADD40RoundRect,0.250000X0.350000X0.450000X-0.350000X0.450000X-0.350000X-0.450000X0.350000X-0.450000X0*%
G04 #@! TD*
G04 #@! TA.AperFunction,SMDPad,CuDef*
%ADD41RoundRect,0.237500X0.237500X-0.300000X0.237500X0.300000X-0.237500X0.300000X-0.237500X-0.300000X0*%
G04 #@! TD*
G04 #@! TA.AperFunction,ViaPad*
%ADD42C,1.900000*%
G04 #@! TD*
G04 #@! TA.AperFunction,ViaPad*
%ADD43C,0.800000*%
G04 #@! TD*
G04 #@! TA.AperFunction,Conductor*
%ADD44C,0.250000*%
G04 #@! TD*
G04 #@! TA.AperFunction,Conductor*
%ADD45C,0.541000*%
G04 #@! TD*
G04 #@! TA.AperFunction,Conductor*
%ADD46C,1.072000*%
G04 #@! TD*
G04 APERTURE END LIST*
D10*
D11*
X172505714Y-114668328D02*
X173362857Y-114668328D01*
X172934285Y-116168328D02*
X172934285Y-114668328D01*
X174148571Y-114668328D02*
X174434285Y-114668328D01*
X174434285Y-114668328D02*
X174577142Y-114739757D01*
X174577142Y-114739757D02*
X174719999Y-114882614D01*
X174719999Y-114882614D02*
X174791428Y-115168328D01*
X174791428Y-115168328D02*
X174791428Y-115668328D01*
X174791428Y-115668328D02*
X174719999Y-115954042D01*
X174719999Y-115954042D02*
X174577142Y-116096900D01*
X174577142Y-116096900D02*
X174434285Y-116168328D01*
X174434285Y-116168328D02*
X174148571Y-116168328D01*
X174148571Y-116168328D02*
X174005714Y-116096900D01*
X174005714Y-116096900D02*
X173862856Y-115954042D01*
X173862856Y-115954042D02*
X173791428Y-115668328D01*
X173791428Y-115668328D02*
X173791428Y-115168328D01*
X173791428Y-115168328D02*
X173862856Y-114882614D01*
X173862856Y-114882614D02*
X174005714Y-114739757D01*
X174005714Y-114739757D02*
X174148571Y-114668328D01*
X175434285Y-116168328D02*
X175434285Y-114668328D01*
X175434285Y-114668328D02*
X176005714Y-114668328D01*
X176005714Y-114668328D02*
X176148571Y-114739757D01*
X176148571Y-114739757D02*
X176220000Y-114811185D01*
X176220000Y-114811185D02*
X176291428Y-114954042D01*
X176291428Y-114954042D02*
X176291428Y-115168328D01*
X176291428Y-115168328D02*
X176220000Y-115311185D01*
X176220000Y-115311185D02*
X176148571Y-115382614D01*
X176148571Y-115382614D02*
X176005714Y-115454042D01*
X176005714Y-115454042D02*
X175434285Y-115454042D01*
D12*
X99750000Y-140960000D02*
X99750000Y-154960000D01*
X106750000Y-147960000D02*
X92750000Y-147960000D01*
X104750000Y-147960000D02*
G75*
G02*
X94750000Y-147960000I-5000000J0D01*
G01*
X94750000Y-147960000D02*
G75*
G02*
X104750000Y-147960000I5000000J0D01*
G01*
X207500000Y-107840000D02*
X207500000Y-121840000D01*
X214500000Y-114840000D02*
X200500000Y-114840000D01*
X212500000Y-114840000D02*
G75*
G02*
X202500000Y-114840000I-5000000J0D01*
G01*
X202500000Y-114840000D02*
G75*
G02*
X212500000Y-114840000I5000000J0D01*
G01*
X99740000Y-43060000D02*
X99740000Y-57060000D01*
X106740000Y-50060000D02*
X92740000Y-50060000D01*
X104740000Y-50060000D02*
G75*
G02*
X94740000Y-50060000I-5000000J0D01*
G01*
X94740000Y-50060000D02*
G75*
G02*
X104740000Y-50060000I5000000J0D01*
G01*
X99750000Y-107830000D02*
X99750000Y-121830000D01*
X106750000Y-114830000D02*
X92750000Y-114830000D01*
X104750000Y-114830000D02*
G75*
G02*
X94750000Y-114830000I-5000000J0D01*
G01*
X94750000Y-114830000D02*
G75*
G02*
X104750000Y-114830000I5000000J0D01*
G01*
X207500000Y-140970000D02*
X207500000Y-154970000D01*
X214500000Y-147970000D02*
X200500000Y-147970000D01*
X212500000Y-147970000D02*
G75*
G02*
X202500000Y-147970000I-5000000J0D01*
G01*
X202500000Y-147970000D02*
G75*
G02*
X212500000Y-147970000I5000000J0D01*
G01*
X207500000Y-43080000D02*
X207500000Y-57080000D01*
X214500000Y-50080000D02*
X200500000Y-50080000D01*
X212500000Y-50080000D02*
G75*
G02*
X202500000Y-50080000I-5000000J0D01*
G01*
X202500000Y-50080000D02*
G75*
G02*
X212500000Y-50080000I5000000J0D01*
G01*
D13*
X172030000Y-95387500D03*
X172030000Y-97212500D03*
D14*
X148903000Y-109900000D03*
D15*
X148725000Y-109190000D03*
D14*
X148903000Y-108480000D03*
D15*
X150555000Y-108480000D03*
D14*
X150377000Y-109190000D03*
D15*
X150555000Y-109900000D03*
D16*
X149640000Y-109190000D03*
D17*
X140797500Y-90620000D03*
X140797500Y-92345000D03*
D18*
X157420000Y-103410000D03*
X157420000Y-106090000D03*
D19*
X142935000Y-98377500D03*
X140860000Y-98377500D03*
D20*
X163710000Y-96625000D03*
X163710000Y-95610000D03*
D21*
X143492500Y-82560000D03*
X145567500Y-82560000D03*
D18*
X152960000Y-103430000D03*
X152960000Y-106110000D03*
D21*
X166952500Y-102740000D03*
X169027500Y-102740000D03*
D22*
X165670000Y-111990000D03*
X163130000Y-109450000D03*
X163130000Y-114530000D03*
X168210000Y-114530000D03*
X168210000Y-109450000D03*
D23*
X152902500Y-101640000D03*
X151757500Y-101640000D03*
D24*
X144050000Y-102142500D03*
X144050000Y-104217500D03*
D25*
X143907500Y-84870000D03*
X145632500Y-84870000D03*
D26*
X151057500Y-84630000D03*
X152882500Y-84630000D03*
D24*
X138757500Y-90615000D03*
X138757500Y-92690000D03*
D17*
X141740000Y-102175000D03*
X141740000Y-103900000D03*
D27*
X149660000Y-103190000D03*
X149660000Y-102390000D03*
D28*
X168867500Y-92980000D03*
X171992500Y-92980000D03*
D29*
X156827500Y-101670000D03*
X157972500Y-101670000D03*
D30*
X167997500Y-94990000D03*
X166802500Y-94990000D03*
D31*
X143030000Y-96417500D03*
X141305000Y-96417500D03*
D17*
X166810000Y-89017500D03*
X166810000Y-90742500D03*
D24*
X161240000Y-82272500D03*
X161240000Y-84347500D03*
D17*
X160320000Y-104057500D03*
X160320000Y-105782500D03*
D32*
X174910000Y-105607500D03*
D33*
X174910000Y-103067500D03*
X174910000Y-100527500D03*
X174910000Y-97987500D03*
X174910000Y-95447500D03*
X174885000Y-92907500D03*
X174885000Y-90367500D03*
X174885000Y-87827500D03*
X174885000Y-85282500D03*
D25*
X166907500Y-100410000D03*
X168632500Y-100410000D03*
D34*
X150302500Y-82710000D03*
X151437500Y-82710000D03*
D35*
X156997500Y-84420000D03*
X155862500Y-84420000D03*
D36*
X152490000Y-93430000D03*
X152490000Y-93930000D03*
X152490000Y-94430000D03*
X152490000Y-94930000D03*
X152490000Y-95430000D03*
X152490000Y-95930000D03*
X152490000Y-96430000D03*
X152490000Y-96930000D03*
D37*
X153240000Y-97680000D03*
X153740000Y-97680000D03*
X154240000Y-97680000D03*
X154740000Y-97680000D03*
X155240000Y-97680000D03*
X155740000Y-97680000D03*
X156240000Y-97680000D03*
X156740000Y-97680000D03*
D36*
X157490000Y-96930000D03*
X157490000Y-96430000D03*
X157490000Y-95930000D03*
X157490000Y-95430000D03*
X157490000Y-94930000D03*
X157490000Y-94430000D03*
X157490000Y-93930000D03*
X157490000Y-93430000D03*
D37*
X156740000Y-92680000D03*
X156240000Y-92680000D03*
X155740000Y-92680000D03*
X155240000Y-92680000D03*
X154740000Y-92680000D03*
X154240000Y-92680000D03*
X153740000Y-92680000D03*
X153240000Y-92680000D03*
D38*
X154990000Y-95180000D03*
D34*
X154802500Y-85850000D03*
X155937500Y-85850000D03*
D39*
X168760000Y-85877500D03*
X168760000Y-83802500D03*
D17*
X163570000Y-82557500D03*
X163570000Y-84282500D03*
D24*
X169800000Y-95502500D03*
X169800000Y-97577500D03*
D22*
X140380000Y-111880000D03*
X137840000Y-109340000D03*
X137840000Y-114420000D03*
X142920000Y-114420000D03*
X142920000Y-109340000D03*
D24*
X168950000Y-88062500D03*
X168950000Y-90137500D03*
D40*
X166000000Y-92890000D03*
X164000000Y-92890000D03*
D32*
X132830000Y-105607500D03*
D33*
X132830000Y-103067500D03*
X132830000Y-100527500D03*
X132830000Y-97987500D03*
X132830000Y-95447500D03*
X132805000Y-92907500D03*
X132805000Y-90367500D03*
X132805000Y-87827500D03*
X132805000Y-85282500D03*
D41*
X166332500Y-85912500D03*
X166332500Y-84187500D03*
D34*
X151612500Y-86280000D03*
X152747500Y-86280000D03*
D42*
X143690000Y-93970000D03*
X157530000Y-87850000D03*
D43*
X155210000Y-107390000D03*
X159830000Y-109470000D03*
X136910000Y-93750000D03*
X163080000Y-111980000D03*
X137640000Y-111860000D03*
X156250000Y-93970000D03*
X150040000Y-111340000D03*
X153850000Y-111410000D03*
X165650000Y-104460000D03*
X140440000Y-114530000D03*
X165670000Y-114490000D03*
X155780000Y-111390000D03*
X148630000Y-107150000D03*
X164350000Y-107340000D03*
X150350000Y-107170000D03*
X168000000Y-112050000D03*
X146260000Y-108840000D03*
X151910000Y-111370000D03*
X157940000Y-111360000D03*
X154940000Y-94450000D03*
X148260000Y-111830000D03*
X146380000Y-103520000D03*
X145470000Y-91460000D03*
X161240000Y-108060000D03*
X140470000Y-109440000D03*
X139130000Y-97730000D03*
X167000000Y-105500000D03*
X166950000Y-107310000D03*
X164070000Y-104430000D03*
X136860000Y-91690000D03*
X153740000Y-93898000D03*
X145100000Y-110610000D03*
X146980000Y-113200000D03*
X145010000Y-113270000D03*
X162750000Y-107170000D03*
D42*
X160800000Y-86680000D03*
X135330000Y-105590000D03*
X146280000Y-106760000D03*
X161860000Y-101980000D03*
X154940000Y-101030000D03*
X135390000Y-100530000D03*
X163850000Y-100220000D03*
X145355000Y-98505000D03*
X148030000Y-81730000D03*
X135450000Y-95450000D03*
X166721321Y-97174907D03*
X147880000Y-98060000D03*
X135330000Y-97970000D03*
X148980000Y-85230000D03*
D44*
X150703604Y-94930000D02*
X150653604Y-94980000D01*
D45*
X149660000Y-93970000D02*
X150558918Y-94868918D01*
X157530000Y-87850000D02*
X157530000Y-89729802D01*
X137740000Y-101240000D02*
X137740000Y-95070000D01*
X132830000Y-103067500D02*
X135912500Y-103067500D01*
X157530000Y-89729802D02*
X155842884Y-91416918D01*
X138840000Y-93970000D02*
X143690000Y-93970000D01*
X140792500Y-90615000D02*
X140797500Y-90620000D01*
X135912500Y-103067500D02*
X137740000Y-101240000D01*
D44*
X152490000Y-94930000D02*
X150703604Y-94930000D01*
D45*
X143690000Y-90960000D02*
X143690000Y-93970000D01*
X140797500Y-90620000D02*
X143350000Y-90620000D01*
X138757500Y-90615000D02*
X140792500Y-90615000D01*
X137740000Y-95070000D02*
X138840000Y-93970000D01*
X143690000Y-93970000D02*
X149660000Y-93970000D01*
D44*
X155740000Y-92680000D02*
X155740000Y-91314034D01*
D45*
X143350000Y-90620000D02*
X143690000Y-90960000D01*
D44*
X152490000Y-94930000D02*
X152480000Y-94940000D01*
D45*
X138757500Y-92690000D02*
X140452500Y-92690000D01*
D44*
X153240000Y-96930000D02*
X154990000Y-95180000D01*
X152490000Y-96930000D02*
X153240000Y-96930000D01*
D45*
X171665000Y-97577500D02*
X172030000Y-97212500D01*
D44*
X153740000Y-92680000D02*
X153740000Y-93898000D01*
D45*
X167415000Y-90137500D02*
X166810000Y-90742500D01*
X140452500Y-92690000D02*
X140797500Y-92345000D01*
D44*
X157490000Y-96430000D02*
X156240000Y-96430000D01*
X163652500Y-95610000D02*
X163762500Y-95720000D01*
X156240000Y-97680000D02*
X156240000Y-96430000D01*
X166000000Y-93040000D02*
X166000000Y-92890000D01*
D45*
X166810000Y-92080000D02*
X166000000Y-92890000D01*
X169800000Y-97577500D02*
X171665000Y-97577500D01*
X168950000Y-90137500D02*
X167415000Y-90137500D01*
X166810000Y-90742500D02*
X166810000Y-92080000D01*
D44*
X157490000Y-94930000D02*
X155240000Y-94930000D01*
X153240000Y-97680000D02*
X153240000Y-96930000D01*
X155240000Y-97680000D02*
X155240000Y-96703500D01*
D45*
X160800000Y-87660000D02*
X156650500Y-91809500D01*
X143030000Y-96417500D02*
X143030000Y-98282500D01*
D44*
X152490000Y-95430000D02*
X150840000Y-95430000D01*
D45*
X146280000Y-106760000D02*
X146250000Y-106730000D01*
X143030000Y-96417500D02*
X145822500Y-96417500D01*
X160800000Y-86680000D02*
X160800000Y-87660000D01*
X145822500Y-96417500D02*
X146580000Y-95660000D01*
D44*
X157100000Y-97680000D02*
X156740000Y-97680000D01*
D45*
X157130000Y-97710000D02*
X157130000Y-97740000D01*
X157130000Y-97740000D02*
X161370000Y-101980000D01*
D46*
X154940000Y-101030000D02*
X154940000Y-101320000D01*
D44*
X157130000Y-97710000D02*
X157100000Y-97680000D01*
D45*
X161370000Y-101980000D02*
X161860000Y-101980000D01*
X154940000Y-101030000D02*
X156187500Y-101030000D01*
X136150000Y-105590000D02*
X142935000Y-98805000D01*
X135312500Y-105607500D02*
X135330000Y-105590000D01*
X146280000Y-106570000D02*
X149660000Y-103190000D01*
X156187500Y-101030000D02*
X156827500Y-101670000D01*
X152902500Y-101640000D02*
X154330000Y-101640000D01*
X146280000Y-106760000D02*
X146280000Y-106570000D01*
X135330000Y-105590000D02*
X136150000Y-105590000D01*
X146250000Y-106730000D02*
X136470000Y-106730000D01*
X132830000Y-105607500D02*
X135312500Y-105607500D01*
D44*
X156240000Y-92030000D02*
X156240000Y-92680000D01*
X156550000Y-91720000D02*
X156240000Y-92030000D01*
D45*
X154330000Y-101640000D02*
X154940000Y-101030000D01*
X146519918Y-95609918D02*
X150763556Y-95609918D01*
X146580000Y-95660000D02*
X146580000Y-95590000D01*
X142935000Y-98805000D02*
X142935000Y-98377500D01*
X136470000Y-106730000D02*
X135330000Y-105590000D01*
X145355000Y-98505000D02*
X147340000Y-96520000D01*
X147340000Y-96520000D02*
X150901406Y-96520000D01*
X145355000Y-98560000D02*
X141740000Y-102175000D01*
X150901406Y-96520000D02*
X151388522Y-96032884D01*
X132830000Y-100527500D02*
X135387500Y-100527500D01*
X135387500Y-100527500D02*
X135390000Y-100530000D01*
X163850000Y-100220000D02*
X160870000Y-100220000D01*
X145355000Y-98505000D02*
X145355000Y-98560000D01*
X163850000Y-100220000D02*
X166717500Y-100220000D01*
D44*
X158370000Y-96110000D02*
X158190000Y-95930000D01*
D45*
X158370000Y-97720000D02*
X158370000Y-96130000D01*
D44*
X151285638Y-95930000D02*
X152490000Y-95930000D01*
D45*
X141740000Y-102175000D02*
X142845000Y-102175000D01*
X166907500Y-102695000D02*
X166952500Y-102740000D01*
D44*
X158190000Y-95930000D02*
X157490000Y-95930000D01*
D45*
X160870000Y-100220000D02*
X158370000Y-97720000D01*
X166717500Y-100220000D02*
X166907500Y-100410000D01*
X166907500Y-100410000D02*
X166907500Y-102695000D01*
X142845000Y-102175000D02*
X143677500Y-102175000D01*
D44*
X157490000Y-96930000D02*
X158306000Y-96930000D01*
D45*
X148030000Y-81730000D02*
X149010000Y-82710000D01*
X132830000Y-95447500D02*
X135447500Y-95447500D01*
X149010000Y-82710000D02*
X150302500Y-82710000D01*
X135447500Y-95447500D02*
X135450000Y-95450000D01*
X151437500Y-83432500D02*
X150980000Y-83890000D01*
X150980000Y-84552500D02*
X151057500Y-84630000D01*
X151080000Y-86300000D02*
X151057500Y-86277500D01*
X151100000Y-86280000D02*
X151080000Y-86300000D01*
X151612500Y-86280000D02*
X151100000Y-86280000D01*
X151057500Y-86277500D02*
X151057500Y-84630000D01*
X150980000Y-83890000D02*
X150980000Y-84552500D01*
X151437500Y-82710000D02*
X151437500Y-83432500D01*
X154800000Y-84630000D02*
X154800000Y-85847500D01*
X155652500Y-84630000D02*
X155862500Y-84420000D01*
X154800000Y-84630000D02*
X155652500Y-84630000D01*
X154800000Y-85847500D02*
X154802500Y-85850000D01*
X152882500Y-84630000D02*
X154800000Y-84630000D01*
D44*
X154660000Y-91100000D02*
X154740000Y-91180000D01*
D45*
X152747500Y-89143000D02*
X154644500Y-91040000D01*
D44*
X154740000Y-91180000D02*
X154740000Y-92680000D01*
D45*
X152747500Y-86280000D02*
X152747500Y-89143000D01*
D44*
X155340000Y-90750000D02*
X155240000Y-90850000D01*
D45*
X155430000Y-86640000D02*
X155430000Y-89640000D01*
D44*
X155240000Y-90850000D02*
X155240000Y-92680000D01*
D45*
X155430000Y-90781870D02*
X155365935Y-90845935D01*
X155937500Y-85850000D02*
X155937500Y-86132500D01*
X155937500Y-86132500D02*
X155430000Y-86640000D01*
X155430000Y-89370000D02*
X155430000Y-90781870D01*
X145632500Y-84870000D02*
X145940000Y-84870000D01*
X145940000Y-84870000D02*
X153119500Y-92049500D01*
X145567500Y-82560000D02*
X145567500Y-84805000D01*
X153119500Y-92049500D02*
X153119500Y-92381568D01*
X145567500Y-84805000D02*
X145632500Y-84870000D01*
X167765000Y-88062500D02*
X166810000Y-89017500D01*
X168950000Y-88062500D02*
X167765000Y-88062500D01*
D44*
X158290000Y-93930000D02*
X158810000Y-93410000D01*
D45*
X163202500Y-89017500D02*
X158810000Y-93410000D01*
X166810000Y-89017500D02*
X163202500Y-89017500D01*
X158810000Y-93410000D02*
X158800000Y-93410000D01*
D44*
X157490000Y-93930000D02*
X158290000Y-93930000D01*
D45*
X163570000Y-84282500D02*
X163570000Y-86230000D01*
X163570000Y-86230000D02*
X157120000Y-92680000D01*
X163505000Y-84347500D02*
X163570000Y-84282500D01*
X157120000Y-92680000D02*
X156860500Y-92680000D01*
X161240000Y-84347500D02*
X163505000Y-84347500D01*
X166721321Y-97174907D02*
X167997500Y-95898728D01*
X168867500Y-92980000D02*
X169700000Y-92980000D01*
X168030000Y-92980000D02*
X167997500Y-93012500D01*
X169710000Y-92970000D02*
X169800000Y-93060000D01*
D44*
X151950000Y-96430000D02*
X151630000Y-96750000D01*
D45*
X150409338Y-98060000D02*
X151609669Y-96859669D01*
X167997500Y-95898728D02*
X167997500Y-94990000D01*
D44*
X152490000Y-96430000D02*
X151950000Y-96430000D01*
D45*
X168867500Y-92980000D02*
X168030000Y-92980000D01*
X147880000Y-98060000D02*
X150409338Y-98060000D01*
X169800000Y-93060000D02*
X169800000Y-95502500D01*
X169700000Y-92980000D02*
X169710000Y-92970000D01*
X167997500Y-93012500D02*
X167997500Y-94990000D01*
D44*
X155765000Y-98255000D02*
X156000560Y-98490560D01*
D45*
X156549380Y-98550500D02*
X156120560Y-98550500D01*
D44*
X155740000Y-97680000D02*
X155765000Y-97705000D01*
X155765000Y-97705000D02*
X155765000Y-98255000D01*
D45*
X160320000Y-102321120D02*
X156549380Y-98550500D01*
X160320000Y-104057500D02*
X160320000Y-102321120D01*
X165670000Y-105850000D02*
X165670000Y-111990000D01*
X165602500Y-105782500D02*
X165670000Y-105850000D01*
X160320000Y-105782500D02*
X165602500Y-105782500D01*
X171992500Y-95350000D02*
X172030000Y-95387500D01*
X171992500Y-92980000D02*
X171992500Y-95350000D01*
D44*
X157490000Y-93430000D02*
X157820000Y-93100000D01*
D45*
X168760000Y-85877500D02*
X166367500Y-85877500D01*
D44*
X157820000Y-93100000D02*
X158050000Y-93100000D01*
D45*
X166332500Y-85912500D02*
X165237500Y-85912500D01*
X166367500Y-85877500D02*
X166332500Y-85912500D01*
X165237500Y-85912500D02*
X158050000Y-93100000D01*
X163710000Y-96625000D02*
X159111000Y-96625000D01*
X159111000Y-96625000D02*
X159111000Y-95821000D01*
X166705000Y-95755000D02*
X166802500Y-95657500D01*
D44*
X166762500Y-94950000D02*
X166802500Y-94990000D01*
D45*
X166802500Y-95657500D02*
X166802500Y-94990000D01*
X164985000Y-95755000D02*
X166705000Y-95755000D01*
D44*
X158610000Y-95430000D02*
X157490000Y-95430000D01*
D45*
X164115000Y-96625000D02*
X164985000Y-95755000D01*
X159111000Y-95821000D02*
X159045000Y-95755000D01*
D44*
X158870000Y-95690000D02*
X158610000Y-95430000D01*
D45*
X163710000Y-96625000D02*
X164115000Y-96625000D01*
X151757500Y-101212500D02*
X154215000Y-98755000D01*
D44*
X154220000Y-97680000D02*
X154215000Y-97685000D01*
X154240000Y-97680000D02*
X154220000Y-97680000D01*
D45*
X151757500Y-102227500D02*
X152960000Y-103430000D01*
X151757500Y-101640000D02*
X151757500Y-102227500D01*
X151757500Y-101640000D02*
X151757500Y-101212500D01*
D44*
X154215000Y-97685000D02*
X154215000Y-98755000D01*
D45*
X152890000Y-108480000D02*
X150555000Y-108480000D01*
X152960000Y-108410000D02*
X152890000Y-108480000D01*
X152960000Y-106110000D02*
X152960000Y-108410000D01*
X155021662Y-98590000D02*
X154960000Y-98590000D01*
X157972500Y-101670000D02*
X157972500Y-101540838D01*
D44*
X154740000Y-97680000D02*
X154740000Y-98370000D01*
D45*
X157972500Y-101540838D02*
X155021662Y-98590000D01*
X157972500Y-102857500D02*
X157420000Y-103410000D01*
X157972500Y-101670000D02*
X157972500Y-102857500D01*
D44*
X154960000Y-98590000D02*
X155510000Y-99140000D01*
X154740000Y-98370000D02*
X154960000Y-98590000D01*
D45*
X157420000Y-109880000D02*
X157390000Y-109910000D01*
X157390000Y-109900000D02*
X150555000Y-109900000D01*
X157420000Y-106090000D02*
X157420000Y-109880000D01*
D44*
X153740000Y-98380000D02*
X153740000Y-97680000D01*
D45*
X153200000Y-98722068D02*
X149660000Y-102262068D01*
X149660000Y-102262068D02*
X149660000Y-102390000D01*
X153200000Y-98700000D02*
X153200000Y-98722068D01*
D44*
X153420000Y-98700000D02*
X153740000Y-98380000D01*
D45*
X135312500Y-97987500D02*
X135330000Y-97970000D01*
D44*
X154035000Y-91775000D02*
X154240000Y-91980000D01*
D45*
X153100000Y-90660000D02*
X150110000Y-87670000D01*
X154130000Y-91680000D02*
X152910000Y-90460000D01*
D44*
X154240000Y-91980000D02*
X154240000Y-92680000D01*
D45*
X150110000Y-87670000D02*
X150110000Y-86360000D01*
X132830000Y-97987500D02*
X135312500Y-97987500D01*
X150110000Y-86360000D02*
X148980000Y-85230000D01*
D44*
X151190000Y-94430000D02*
X151170000Y-94450000D01*
D45*
X137650000Y-88180000D02*
X145010000Y-88180000D01*
X132805000Y-92907500D02*
X137532500Y-88180000D01*
X145010000Y-88180000D02*
X151164500Y-94334500D01*
D44*
X152490000Y-94430000D02*
X151190000Y-94430000D01*
D45*
X137532500Y-88180000D02*
X137650000Y-88180000D01*
X145560000Y-87230000D02*
X151619500Y-93289500D01*
X132805000Y-90367500D02*
X135942500Y-87230000D01*
D44*
X152490000Y-93930000D02*
X151790000Y-93930000D01*
D45*
X135942500Y-87230000D02*
X145560000Y-87230000D01*
D44*
X151790000Y-93930000D02*
X151765000Y-93905000D01*
D45*
X151619500Y-93289500D02*
X151619500Y-93715000D01*
X145990000Y-86300000D02*
X152490000Y-92800000D01*
D44*
X152490000Y-92800000D02*
X152490000Y-93430000D01*
D45*
X132805000Y-87827500D02*
X134332500Y-86300000D01*
X134332500Y-86300000D02*
X145990000Y-86300000D01*
D44*
X158520000Y-94430000D02*
X157490000Y-94430000D01*
D45*
X159007932Y-94260000D02*
X158820000Y-94260000D01*
X164000000Y-92890000D02*
X160377932Y-92890000D01*
D44*
X158770000Y-94180000D02*
X158520000Y-94430000D01*
D45*
X160377932Y-92890000D02*
X159007932Y-94260000D01*
X147520000Y-110480000D02*
X147520000Y-109250000D01*
X140380000Y-111880000D02*
X146120000Y-111880000D01*
X146120000Y-111880000D02*
X147520000Y-110480000D01*
X147580000Y-109190000D02*
X148725000Y-109190000D01*
X147520000Y-109250000D02*
X147580000Y-109190000D01*
G04 #@! TA.AperFunction,Conductor*
G36*
X147469666Y-80121119D02*
G01*
X147537773Y-80141164D01*
X147584232Y-80194849D01*
X147594292Y-80265129D01*
X147564759Y-80329691D01*
X147510499Y-80366292D01*
X147442119Y-80389767D01*
X147229542Y-80504807D01*
X147229541Y-80504808D01*
X147038792Y-80653274D01*
X146875095Y-80831097D01*
X146742889Y-81033454D01*
X146645798Y-81254799D01*
X146645796Y-81254803D01*
X146599542Y-81437457D01*
X146563429Y-81498582D01*
X146500002Y-81530481D01*
X146429398Y-81523024D01*
X146388303Y-81495620D01*
X146378658Y-81485975D01*
X146378652Y-81485970D01*
X146339239Y-81461660D01*
X146227738Y-81392885D01*
X146143582Y-81364999D01*
X146059427Y-81337113D01*
X146059420Y-81337112D01*
X145955553Y-81326500D01*
X145179455Y-81326500D01*
X145075574Y-81337112D01*
X144907261Y-81392885D01*
X144756347Y-81485970D01*
X144756341Y-81485975D01*
X144630971Y-81611345D01*
X144628511Y-81614457D01*
X144626281Y-81616035D01*
X144625780Y-81616537D01*
X144625694Y-81616451D01*
X144570568Y-81655483D01*
X144499643Y-81658671D01*
X144438254Y-81623008D01*
X144430837Y-81614446D01*
X144428632Y-81611657D01*
X144303345Y-81486370D01*
X144303339Y-81486365D01*
X144152525Y-81393342D01*
X143984321Y-81337606D01*
X143984318Y-81337605D01*
X143880516Y-81327000D01*
X143746500Y-81327000D01*
X143746500Y-82688000D01*
X143726498Y-82756121D01*
X143672842Y-82802614D01*
X143620500Y-82814000D01*
X142397000Y-82814000D01*
X142397000Y-83085516D01*
X142407605Y-83189318D01*
X142407606Y-83189321D01*
X142463342Y-83357525D01*
X142556365Y-83508339D01*
X142556370Y-83508345D01*
X142681654Y-83633629D01*
X142681660Y-83633634D01*
X142832474Y-83726657D01*
X143000678Y-83782393D01*
X143000681Y-83782394D01*
X143104483Y-83792999D01*
X143107687Y-83793163D01*
X143107678Y-83793326D01*
X143107684Y-83793327D01*
X143107673Y-83793431D01*
X143107643Y-83794015D01*
X143172307Y-83813002D01*
X143218800Y-83866658D01*
X143228904Y-83936932D01*
X143199410Y-84001512D01*
X143170333Y-84026241D01*
X143141966Y-84043737D01*
X143141960Y-84043742D01*
X143018742Y-84166960D01*
X143018737Y-84166966D01*
X142927248Y-84315292D01*
X142872431Y-84480723D01*
X142872430Y-84480726D01*
X142862000Y-84582815D01*
X142862000Y-84616000D01*
X144035500Y-84616000D01*
X144103621Y-84636002D01*
X144150114Y-84689658D01*
X144161500Y-84742000D01*
X144161500Y-84998000D01*
X144141498Y-85066121D01*
X144087842Y-85112614D01*
X144035500Y-85124000D01*
X142862000Y-85124000D01*
X142862000Y-85157184D01*
X142872430Y-85259273D01*
X142872431Y-85259276D01*
X142904272Y-85355367D01*
X142906712Y-85426322D01*
X142870404Y-85487332D01*
X142806875Y-85519027D01*
X142784667Y-85521000D01*
X134485354Y-85521000D01*
X134417233Y-85500998D01*
X134370740Y-85447342D01*
X134359742Y-85385115D01*
X134367817Y-85282500D01*
X134348576Y-85038021D01*
X134291328Y-84799564D01*
X134197479Y-84572991D01*
X134074462Y-84372247D01*
X134074460Y-84372247D01*
X133289157Y-85157550D01*
X133270925Y-85089507D01*
X133205099Y-84975493D01*
X133112007Y-84882401D01*
X132997993Y-84816575D01*
X132929948Y-84798342D01*
X133715251Y-84013038D01*
X133715251Y-84013037D01*
X133514503Y-83890018D01*
X133287935Y-83796171D01*
X133049478Y-83738923D01*
X132805000Y-83719682D01*
X132560521Y-83738923D01*
X132322064Y-83796171D01*
X132095496Y-83890018D01*
X131894747Y-84013037D01*
X131894747Y-84013038D01*
X132680051Y-84798342D01*
X132612007Y-84816575D01*
X132497993Y-84882401D01*
X132404901Y-84975493D01*
X132339075Y-85089507D01*
X132320842Y-85157551D01*
X131535538Y-84372247D01*
X131535537Y-84372247D01*
X131412518Y-84572996D01*
X131318671Y-84799564D01*
X131261423Y-85038021D01*
X131242182Y-85282500D01*
X131261423Y-85526978D01*
X131318671Y-85765435D01*
X131412518Y-85992003D01*
X131535538Y-86192751D01*
X132320841Y-85407447D01*
X132339075Y-85475493D01*
X132404901Y-85589507D01*
X132497993Y-85682599D01*
X132612007Y-85748425D01*
X132680051Y-85766657D01*
X131874913Y-86571795D01*
X131867649Y-86578510D01*
X131699567Y-86722067D01*
X131540245Y-86908607D01*
X131427603Y-87092425D01*
X131412073Y-87117768D01*
X131408677Y-87125966D01*
X131318195Y-87344407D01*
X131299230Y-87423402D01*
X131260928Y-87582943D01*
X131241681Y-87827500D01*
X131260928Y-88072057D01*
X131318195Y-88310592D01*
X131412073Y-88537232D01*
X131422610Y-88554427D01*
X131540245Y-88746392D01*
X131540246Y-88746394D01*
X131540248Y-88746396D01*
X131699567Y-88932933D01*
X131765903Y-88989589D01*
X131780069Y-89001689D01*
X131818878Y-89061140D01*
X131819384Y-89132135D01*
X131781428Y-89192133D01*
X131780069Y-89193311D01*
X131699567Y-89262067D01*
X131540245Y-89448607D01*
X131419480Y-89645681D01*
X131412073Y-89657768D01*
X131403496Y-89678475D01*
X131318195Y-89884407D01*
X131290874Y-89998209D01*
X131260928Y-90122943D01*
X131241681Y-90367500D01*
X131260928Y-90612057D01*
X131318195Y-90850592D01*
X131412073Y-91077232D01*
X131465094Y-91163756D01*
X131540245Y-91286392D01*
X131540246Y-91286394D01*
X131540248Y-91286396D01*
X131699567Y-91472933D01*
X131741981Y-91509158D01*
X131780069Y-91541689D01*
X131818878Y-91601140D01*
X131819384Y-91672135D01*
X131781428Y-91732133D01*
X131780069Y-91733311D01*
X131699567Y-91802067D01*
X131540245Y-91988607D01*
X131412074Y-92197766D01*
X131325236Y-92407410D01*
X131318195Y-92424408D01*
X131260928Y-92662943D01*
X131241681Y-92907500D01*
X131260928Y-93152057D01*
X131318195Y-93390592D01*
X131412073Y-93617232D01*
X131450537Y-93680000D01*
X131540245Y-93826392D01*
X131540246Y-93826394D01*
X131540248Y-93826396D01*
X131699566Y-94012932D01*
X131699569Y-94012935D01*
X131792568Y-94092364D01*
X131831378Y-94151814D01*
X131831884Y-94222809D01*
X131793928Y-94282808D01*
X131792570Y-94283985D01*
X131724567Y-94342066D01*
X131565245Y-94528607D01*
X131437074Y-94737766D01*
X131343195Y-94964407D01*
X131323431Y-95046731D01*
X131285928Y-95202943D01*
X131266681Y-95447500D01*
X131285928Y-95692057D01*
X131343195Y-95930592D01*
X131437073Y-96157232D01*
X131458682Y-96192495D01*
X131565245Y-96366392D01*
X131565246Y-96366394D01*
X131565248Y-96366396D01*
X131724567Y-96552933D01*
X131777919Y-96598500D01*
X131805069Y-96621689D01*
X131843878Y-96681140D01*
X131844384Y-96752135D01*
X131806428Y-96812133D01*
X131805069Y-96813311D01*
X131724567Y-96882067D01*
X131565245Y-97068607D01*
X131437074Y-97277766D01*
X131343195Y-97504407D01*
X131308217Y-97650104D01*
X131285928Y-97742943D01*
X131266681Y-97987500D01*
X131285928Y-98232057D01*
X131343195Y-98470592D01*
X131437073Y-98697232D01*
X131490094Y-98783756D01*
X131565245Y-98906392D01*
X131565246Y-98906394D01*
X131565248Y-98906396D01*
X131724567Y-99092933D01*
X131783508Y-99143274D01*
X131805069Y-99161689D01*
X131843878Y-99221140D01*
X131844384Y-99292135D01*
X131806428Y-99352133D01*
X131805069Y-99353311D01*
X131724567Y-99422067D01*
X131565245Y-99608607D01*
X131437074Y-99817766D01*
X131353006Y-100020723D01*
X131343195Y-100044408D01*
X131285928Y-100282943D01*
X131266681Y-100527500D01*
X131285928Y-100772057D01*
X131343195Y-101010592D01*
X131437073Y-101237232D01*
X131490094Y-101323756D01*
X131565245Y-101446392D01*
X131565246Y-101446394D01*
X131565248Y-101446396D01*
X131724567Y-101632933D01*
X131777919Y-101678500D01*
X131805069Y-101701689D01*
X131843878Y-101761140D01*
X131844384Y-101832135D01*
X131806428Y-101892133D01*
X131805069Y-101893311D01*
X131724567Y-101962067D01*
X131565245Y-102148607D01*
X131469884Y-102304225D01*
X131437073Y-102357768D01*
X131409578Y-102424145D01*
X131343195Y-102584407D01*
X131304408Y-102745966D01*
X131285928Y-102822943D01*
X131266681Y-103067500D01*
X131285928Y-103312057D01*
X131343195Y-103550592D01*
X131437073Y-103777232D01*
X131437074Y-103777233D01*
X131545867Y-103954770D01*
X131564405Y-104023303D01*
X131542948Y-104090980D01*
X131513943Y-104121472D01*
X131416738Y-104194238D01*
X131329112Y-104311292D01*
X131329110Y-104311297D01*
X131278011Y-104448295D01*
X131278009Y-104448303D01*
X131271500Y-104508850D01*
X131271500Y-106706149D01*
X131278009Y-106766696D01*
X131278011Y-106766704D01*
X131329110Y-106903702D01*
X131329112Y-106903707D01*
X131416738Y-107020761D01*
X131533792Y-107108387D01*
X131533794Y-107108388D01*
X131533796Y-107108389D01*
X131591431Y-107129886D01*
X131670795Y-107159488D01*
X131670803Y-107159490D01*
X131731350Y-107165999D01*
X131731355Y-107165999D01*
X131731362Y-107166000D01*
X131731368Y-107166000D01*
X133928632Y-107166000D01*
X133928638Y-107166000D01*
X133928645Y-107165999D01*
X133928649Y-107165999D01*
X133989196Y-107159490D01*
X133989199Y-107159489D01*
X133989201Y-107159489D01*
X134126204Y-107108389D01*
X134162943Y-107080887D01*
X134243261Y-107020761D01*
X134330887Y-106903707D01*
X134330888Y-106903705D01*
X134330887Y-106903705D01*
X134330889Y-106903704D01*
X134341294Y-106875805D01*
X134383839Y-106818972D01*
X134450359Y-106794160D01*
X134519733Y-106809251D01*
X134528280Y-106814366D01*
X134529532Y-106815184D01*
X134529542Y-106815192D01*
X134642288Y-106876207D01*
X134742119Y-106930233D01*
X134742121Y-106930234D01*
X134862150Y-106971439D01*
X134970732Y-107008716D01*
X135209145Y-107048500D01*
X135209149Y-107048500D01*
X135450856Y-107048500D01*
X135484712Y-107042850D01*
X135589108Y-107025429D01*
X135659591Y-107033945D01*
X135698939Y-107060612D01*
X135973416Y-107335089D01*
X135994233Y-107348998D01*
X135994235Y-107349000D01*
X135994236Y-107349000D01*
X136101005Y-107420341D01*
X136242774Y-107479063D01*
X136393275Y-107509000D01*
X137153531Y-107509000D01*
X137221652Y-107529002D01*
X137268145Y-107582658D01*
X137278249Y-107652932D01*
X137248755Y-107717512D01*
X137208200Y-107748522D01*
X136983611Y-107856677D01*
X136983603Y-107856682D01*
X136824421Y-107965210D01*
X136824421Y-107965212D01*
X137481705Y-108622496D01*
X137461058Y-108631049D01*
X137330030Y-108718599D01*
X137218599Y-108830030D01*
X137131049Y-108961058D01*
X137122496Y-108981705D01*
X136465252Y-108324461D01*
X136465250Y-108324461D01*
X136424828Y-108375148D01*
X136424825Y-108375153D01*
X136296828Y-108596851D01*
X136296826Y-108596855D01*
X136203306Y-108835143D01*
X136203305Y-108835145D01*
X136146341Y-109084718D01*
X136127211Y-109340000D01*
X136146341Y-109595281D01*
X136203305Y-109844854D01*
X136203306Y-109844856D01*
X136296826Y-110083144D01*
X136296828Y-110083148D01*
X136424824Y-110304844D01*
X136424829Y-110304852D01*
X136465250Y-110355537D01*
X136465252Y-110355537D01*
X137122496Y-109698293D01*
X137131049Y-109718942D01*
X137218599Y-109849970D01*
X137330030Y-109961401D01*
X137461058Y-110048951D01*
X137481706Y-110057503D01*
X136824421Y-110714787D01*
X136983610Y-110823321D01*
X136983611Y-110823322D01*
X137214239Y-110934386D01*
X137458862Y-111009844D01*
X137458870Y-111009845D01*
X137712008Y-111048000D01*
X137967992Y-111048000D01*
X138221129Y-111009845D01*
X138221141Y-111009843D01*
X138465746Y-110934392D01*
X138465753Y-110934389D01*
X138696389Y-110823322D01*
X138696393Y-110823320D01*
X138769448Y-110773511D01*
X138837000Y-110751663D01*
X138905639Y-110769804D01*
X138953575Y-110822175D01*
X138965587Y-110892148D01*
X138949547Y-110940616D01*
X138836376Y-111136633D01*
X138836374Y-111136637D01*
X138742827Y-111374994D01*
X138742826Y-111374997D01*
X138685845Y-111624643D01*
X138666709Y-111880000D01*
X138685845Y-112135356D01*
X138742826Y-112385002D01*
X138742827Y-112385005D01*
X138836374Y-112623362D01*
X138836376Y-112623366D01*
X138949547Y-112819383D01*
X138966285Y-112888378D01*
X138943065Y-112955470D01*
X138887257Y-112999357D01*
X138816582Y-113006106D01*
X138769449Y-112986489D01*
X138696390Y-112936678D01*
X138696389Y-112936677D01*
X138465753Y-112825610D01*
X138465746Y-112825607D01*
X138221141Y-112750156D01*
X138221129Y-112750154D01*
X137967992Y-112712000D01*
X137712008Y-112712000D01*
X137458870Y-112750154D01*
X137458862Y-112750155D01*
X137214239Y-112825613D01*
X136983611Y-112936677D01*
X136983603Y-112936682D01*
X136824421Y-113045210D01*
X136824421Y-113045212D01*
X137481705Y-113702496D01*
X137461058Y-113711049D01*
X137330030Y-113798599D01*
X137218599Y-113910030D01*
X137131049Y-114041058D01*
X137122496Y-114061705D01*
X136465252Y-113404461D01*
X136465250Y-113404461D01*
X136424828Y-113455148D01*
X136424825Y-113455153D01*
X136296828Y-113676851D01*
X136296826Y-113676855D01*
X136203306Y-113915143D01*
X136203305Y-113915145D01*
X136146341Y-114164718D01*
X136127211Y-114420000D01*
X136146341Y-114675281D01*
X136203305Y-114924854D01*
X136203306Y-114924856D01*
X136296826Y-115163144D01*
X136296828Y-115163148D01*
X136424824Y-115384844D01*
X136424829Y-115384852D01*
X136465250Y-115435537D01*
X136465252Y-115435537D01*
X137122496Y-114778293D01*
X137131049Y-114798942D01*
X137218599Y-114929970D01*
X137330030Y-115041401D01*
X137461058Y-115128951D01*
X137481704Y-115137503D01*
X136824421Y-115794786D01*
X136824421Y-115794787D01*
X136983610Y-115903321D01*
X136983611Y-115903322D01*
X137214239Y-116014386D01*
X137458862Y-116089844D01*
X137458870Y-116089845D01*
X137712008Y-116128000D01*
X137967992Y-116128000D01*
X138221129Y-116089845D01*
X138221141Y-116089843D01*
X138465746Y-116014392D01*
X138465753Y-116014389D01*
X138696397Y-115903318D01*
X138696399Y-115903317D01*
X138855577Y-115794789D01*
X138855578Y-115794787D01*
X138198294Y-115137503D01*
X138218942Y-115128951D01*
X138349970Y-115041401D01*
X138461401Y-114929970D01*
X138548951Y-114798942D01*
X138557503Y-114778294D01*
X139214747Y-115435538D01*
X139214748Y-115435537D01*
X139255172Y-115384849D01*
X139255172Y-115384848D01*
X139383171Y-115163148D01*
X139383173Y-115163144D01*
X139476693Y-114924856D01*
X139476694Y-114924854D01*
X139533658Y-114675281D01*
X139552788Y-114420000D01*
X139533658Y-114164718D01*
X139476694Y-113915145D01*
X139476693Y-113915143D01*
X139383173Y-113676855D01*
X139383171Y-113676851D01*
X139270077Y-113480966D01*
X139253339Y-113411970D01*
X139276560Y-113344879D01*
X139332367Y-113300992D01*
X139403042Y-113294243D01*
X139450172Y-113313859D01*
X139523355Y-113363754D01*
X139648169Y-113423861D01*
X139754060Y-113474856D01*
X139754073Y-113474861D01*
X139998746Y-113550332D01*
X139998748Y-113550332D01*
X139998757Y-113550335D01*
X140251966Y-113588500D01*
X140251970Y-113588500D01*
X140508030Y-113588500D01*
X140508034Y-113588500D01*
X140761243Y-113550335D01*
X140853201Y-113521970D01*
X141005929Y-113474860D01*
X141005930Y-113474859D01*
X141005935Y-113474858D01*
X141236646Y-113363754D01*
X141309826Y-113313860D01*
X141377375Y-113292014D01*
X141446015Y-113310155D01*
X141493950Y-113362526D01*
X141505962Y-113432499D01*
X141489922Y-113480967D01*
X141376828Y-113676851D01*
X141376826Y-113676855D01*
X141283306Y-113915143D01*
X141283305Y-113915145D01*
X141226341Y-114164718D01*
X141207211Y-114420000D01*
X141226341Y-114675281D01*
X141283305Y-114924854D01*
X141283306Y-114924856D01*
X141376826Y-115163144D01*
X141376828Y-115163148D01*
X141504824Y-115384844D01*
X141504829Y-115384852D01*
X141545250Y-115435537D01*
X141545252Y-115435537D01*
X142202495Y-114778293D01*
X142211049Y-114798942D01*
X142298599Y-114929970D01*
X142410030Y-115041401D01*
X142541058Y-115128951D01*
X142561704Y-115137503D01*
X141904421Y-115794786D01*
X141904421Y-115794787D01*
X142063610Y-115903321D01*
X142063611Y-115903322D01*
X142294239Y-116014386D01*
X142538862Y-116089844D01*
X142538870Y-116089845D01*
X142792008Y-116128000D01*
X143047992Y-116128000D01*
X143301129Y-116089845D01*
X143301141Y-116089843D01*
X143545746Y-116014392D01*
X143545753Y-116014389D01*
X143776397Y-115903318D01*
X143776399Y-115903317D01*
X143935577Y-115794789D01*
X143935578Y-115794787D01*
X143278294Y-115137503D01*
X143298942Y-115128951D01*
X143429970Y-115041401D01*
X143541401Y-114929970D01*
X143628951Y-114798942D01*
X143637503Y-114778294D01*
X144294747Y-115435538D01*
X144294748Y-115435537D01*
X144335172Y-115384849D01*
X144335172Y-115384848D01*
X144463171Y-115163148D01*
X144463173Y-115163144D01*
X144556693Y-114924856D01*
X144556694Y-114924854D01*
X144613658Y-114675281D01*
X144632788Y-114420000D01*
X144613658Y-114164718D01*
X144556694Y-113915145D01*
X144556693Y-113915143D01*
X144463173Y-113676855D01*
X144463171Y-113676851D01*
X144335175Y-113455155D01*
X144294747Y-113404460D01*
X143637503Y-114061704D01*
X143628951Y-114041058D01*
X143541401Y-113910030D01*
X143429970Y-113798599D01*
X143298942Y-113711049D01*
X143278293Y-113702495D01*
X143935578Y-113045211D01*
X143776390Y-112936678D01*
X143776389Y-112936677D01*
X143697158Y-112898522D01*
X143644462Y-112850945D01*
X143625853Y-112782430D01*
X143647240Y-112714731D01*
X143701833Y-112669343D01*
X143751827Y-112659000D01*
X146196724Y-112659000D01*
X146196725Y-112659000D01*
X146347226Y-112629064D01*
X146447471Y-112587540D01*
X146488995Y-112570341D01*
X146616583Y-112485089D01*
X146725089Y-112376583D01*
X148125089Y-110976583D01*
X148188333Y-110881932D01*
X148210341Y-110848995D01*
X148227540Y-110807471D01*
X148269064Y-110707226D01*
X148272606Y-110689415D01*
X148305515Y-110626508D01*
X148367210Y-110591377D01*
X148396185Y-110588000D01*
X148723000Y-110588000D01*
X148723000Y-110088065D01*
X148743002Y-110019944D01*
X148796658Y-109973451D01*
X148824415Y-109964486D01*
X148932421Y-109943002D01*
X149003131Y-109949329D01*
X149059199Y-109992883D01*
X149082819Y-110059835D01*
X149083000Y-110066581D01*
X149083000Y-110588000D01*
X149435000Y-110588000D01*
X149435000Y-109786233D01*
X149455002Y-109718112D01*
X149460134Y-109710722D01*
X149464634Y-109704711D01*
X149521470Y-109662165D01*
X149592286Y-109657102D01*
X149654598Y-109691129D01*
X149688621Y-109753442D01*
X149691500Y-109780222D01*
X149691500Y-110128649D01*
X149698009Y-110189196D01*
X149698011Y-110189204D01*
X149749110Y-110326202D01*
X149749110Y-110326203D01*
X149749111Y-110326204D01*
X149819868Y-110420725D01*
X149844679Y-110487244D01*
X149845000Y-110496233D01*
X149845000Y-110588000D01*
X149893585Y-110588000D01*
X149893597Y-110587999D01*
X149954095Y-110581494D01*
X149954096Y-110581494D01*
X149977747Y-110572672D01*
X150048563Y-110567605D01*
X150065808Y-110572667D01*
X150090799Y-110581989D01*
X150090802Y-110581989D01*
X150090803Y-110581990D01*
X150151350Y-110588499D01*
X150151355Y-110588499D01*
X150151362Y-110588500D01*
X150156497Y-110588500D01*
X150204715Y-110598091D01*
X150327774Y-110649063D01*
X150478275Y-110679000D01*
X157250591Y-110679000D01*
X157275171Y-110681420D01*
X157313275Y-110689000D01*
X157313276Y-110689000D01*
X157466724Y-110689000D01*
X157466725Y-110689000D01*
X157617226Y-110659064D01*
X157758994Y-110600341D01*
X157886583Y-110515089D01*
X158025089Y-110376584D01*
X158086188Y-110285142D01*
X158110341Y-110248995D01*
X158169063Y-110107226D01*
X158199000Y-109956725D01*
X158199000Y-107244500D01*
X158219002Y-107176379D01*
X158272658Y-107129886D01*
X158325000Y-107118500D01*
X159058632Y-107118500D01*
X159058638Y-107118500D01*
X159058645Y-107118499D01*
X159058649Y-107118499D01*
X159119196Y-107111990D01*
X159119199Y-107111989D01*
X159119201Y-107111989D01*
X159256204Y-107060889D01*
X159325902Y-107008714D01*
X159373261Y-106973261D01*
X159460887Y-106856207D01*
X159460887Y-106856206D01*
X159460889Y-106856204D01*
X159492363Y-106771817D01*
X159534909Y-106714984D01*
X159601429Y-106690173D01*
X159670803Y-106705264D01*
X159676565Y-106708612D01*
X159693737Y-106719204D01*
X159759877Y-106760000D01*
X159765077Y-106763207D01*
X159765080Y-106763209D01*
X159930619Y-106818062D01*
X160032787Y-106828500D01*
X160607212Y-106828499D01*
X160709381Y-106818062D01*
X160874920Y-106763209D01*
X161023346Y-106671658D01*
X161096600Y-106598403D01*
X161158910Y-106564380D01*
X161185694Y-106561500D01*
X164765000Y-106561500D01*
X164833121Y-106581502D01*
X164879614Y-106635158D01*
X164891000Y-106687500D01*
X164891000Y-108613904D01*
X164870998Y-108682025D01*
X164817342Y-108728518D01*
X164747068Y-108738622D01*
X164682488Y-108709128D01*
X164655881Y-108676904D01*
X164545175Y-108485155D01*
X164504747Y-108434461D01*
X163847503Y-109091705D01*
X163838951Y-109071058D01*
X163751401Y-108940030D01*
X163639970Y-108828599D01*
X163508942Y-108741049D01*
X163488294Y-108732496D01*
X164145578Y-108075211D01*
X163986390Y-107966678D01*
X163986389Y-107966677D01*
X163755753Y-107855610D01*
X163755746Y-107855607D01*
X163511141Y-107780156D01*
X163511129Y-107780154D01*
X163257992Y-107742000D01*
X163002008Y-107742000D01*
X162748870Y-107780154D01*
X162748862Y-107780155D01*
X162504239Y-107855613D01*
X162273611Y-107966677D01*
X162273603Y-107966682D01*
X162114421Y-108075210D01*
X162114421Y-108075212D01*
X162771705Y-108732496D01*
X162751058Y-108741049D01*
X162620030Y-108828599D01*
X162508599Y-108940030D01*
X162421049Y-109071058D01*
X162412496Y-109091705D01*
X161755252Y-108434461D01*
X161755250Y-108434461D01*
X161714828Y-108485148D01*
X161714825Y-108485153D01*
X161586828Y-108706851D01*
X161586826Y-108706855D01*
X161493306Y-108945143D01*
X161493305Y-108945145D01*
X161436341Y-109194718D01*
X161417211Y-109450000D01*
X161436341Y-109705281D01*
X161493305Y-109954854D01*
X161493306Y-109954856D01*
X161586826Y-110193144D01*
X161586828Y-110193148D01*
X161714824Y-110414844D01*
X161714829Y-110414852D01*
X161755250Y-110465537D01*
X161755252Y-110465537D01*
X162412496Y-109808293D01*
X162421049Y-109828942D01*
X162508599Y-109959970D01*
X162620030Y-110071401D01*
X162751058Y-110158951D01*
X162771706Y-110167503D01*
X162114421Y-110824787D01*
X162273610Y-110933321D01*
X162273611Y-110933322D01*
X162504239Y-111044386D01*
X162748862Y-111119844D01*
X162748870Y-111119845D01*
X163002008Y-111158000D01*
X163257992Y-111158000D01*
X163511129Y-111119845D01*
X163511141Y-111119843D01*
X163755746Y-111044392D01*
X163755753Y-111044389D01*
X163986389Y-110933322D01*
X163986393Y-110933320D01*
X164059448Y-110883511D01*
X164127000Y-110861663D01*
X164195639Y-110879804D01*
X164243575Y-110932175D01*
X164255587Y-111002148D01*
X164239547Y-111050616D01*
X164126376Y-111246633D01*
X164126374Y-111246637D01*
X164032827Y-111484994D01*
X164032826Y-111484997D01*
X163975845Y-111734643D01*
X163956709Y-111990000D01*
X163975845Y-112245356D01*
X164032826Y-112495002D01*
X164032827Y-112495005D01*
X164126374Y-112733362D01*
X164126376Y-112733366D01*
X164239547Y-112929383D01*
X164256285Y-112998378D01*
X164233065Y-113065470D01*
X164177257Y-113109357D01*
X164106582Y-113116106D01*
X164059449Y-113096489D01*
X163986390Y-113046678D01*
X163986389Y-113046677D01*
X163755753Y-112935610D01*
X163755746Y-112935607D01*
X163511141Y-112860156D01*
X163511129Y-112860154D01*
X163257992Y-112822000D01*
X163002008Y-112822000D01*
X162748870Y-112860154D01*
X162748862Y-112860155D01*
X162504239Y-112935613D01*
X162273611Y-113046677D01*
X162273603Y-113046682D01*
X162114421Y-113155210D01*
X162114421Y-113155212D01*
X162771705Y-113812496D01*
X162751058Y-113821049D01*
X162620030Y-113908599D01*
X162508599Y-114020030D01*
X162421049Y-114151058D01*
X162412496Y-114171705D01*
X161755252Y-113514461D01*
X161755250Y-113514461D01*
X161714828Y-113565148D01*
X161714825Y-113565153D01*
X161586828Y-113786851D01*
X161586826Y-113786855D01*
X161493306Y-114025143D01*
X161493305Y-114025145D01*
X161436341Y-114274718D01*
X161417211Y-114530000D01*
X161436341Y-114785281D01*
X161493305Y-115034854D01*
X161493306Y-115034856D01*
X161586826Y-115273144D01*
X161586828Y-115273148D01*
X161714824Y-115494844D01*
X161714829Y-115494852D01*
X161755250Y-115545537D01*
X161755252Y-115545537D01*
X162412496Y-114888293D01*
X162421049Y-114908942D01*
X162508599Y-115039970D01*
X162620030Y-115151401D01*
X162751058Y-115238951D01*
X162771704Y-115247503D01*
X162114421Y-115904786D01*
X162114421Y-115904787D01*
X162273610Y-116013321D01*
X162273611Y-116013322D01*
X162504239Y-116124386D01*
X162748862Y-116199844D01*
X162748870Y-116199845D01*
X163002008Y-116238000D01*
X163257992Y-116238000D01*
X163511129Y-116199845D01*
X163511141Y-116199843D01*
X163755746Y-116124392D01*
X163755753Y-116124389D01*
X163986397Y-116013318D01*
X163986399Y-116013317D01*
X164145577Y-115904789D01*
X164145578Y-115904787D01*
X163488294Y-115247503D01*
X163508942Y-115238951D01*
X163639970Y-115151401D01*
X163751401Y-115039970D01*
X163838951Y-114908942D01*
X163847503Y-114888294D01*
X164504747Y-115545538D01*
X164504748Y-115545537D01*
X164545172Y-115494849D01*
X164545172Y-115494848D01*
X164673171Y-115273148D01*
X164673173Y-115273144D01*
X164766693Y-115034856D01*
X164766694Y-115034854D01*
X164823658Y-114785281D01*
X164842788Y-114530000D01*
X164823658Y-114274718D01*
X164766694Y-114025145D01*
X164766693Y-114025143D01*
X164673173Y-113786855D01*
X164673171Y-113786851D01*
X164560077Y-113590966D01*
X164543339Y-113521970D01*
X164566560Y-113454879D01*
X164622367Y-113410992D01*
X164693042Y-113404243D01*
X164740172Y-113423859D01*
X164813355Y-113473754D01*
X164897882Y-113514460D01*
X165044060Y-113584856D01*
X165044073Y-113584861D01*
X165288746Y-113660332D01*
X165288748Y-113660332D01*
X165288757Y-113660335D01*
X165541966Y-113698500D01*
X165541970Y-113698500D01*
X165798030Y-113698500D01*
X165798034Y-113698500D01*
X166051243Y-113660335D01*
X166276130Y-113590967D01*
X166295929Y-113584860D01*
X166295930Y-113584859D01*
X166295935Y-113584858D01*
X166524347Y-113474861D01*
X166526640Y-113473757D01*
X166526640Y-113473756D01*
X166526646Y-113473754D01*
X166599826Y-113423860D01*
X166667375Y-113402014D01*
X166736015Y-113420155D01*
X166783950Y-113472526D01*
X166795962Y-113542499D01*
X166779922Y-113590967D01*
X166666828Y-113786851D01*
X166666826Y-113786855D01*
X166573306Y-114025143D01*
X166573305Y-114025145D01*
X166516341Y-114274718D01*
X166497211Y-114530000D01*
X166516341Y-114785281D01*
X166573305Y-115034854D01*
X166573306Y-115034856D01*
X166666826Y-115273144D01*
X166666828Y-115273148D01*
X166794824Y-115494844D01*
X166794829Y-115494852D01*
X166835250Y-115545537D01*
X166835252Y-115545537D01*
X167492495Y-114888293D01*
X167501049Y-114908942D01*
X167588599Y-115039970D01*
X167700030Y-115151401D01*
X167831058Y-115238951D01*
X167851704Y-115247503D01*
X167194421Y-115904786D01*
X167194421Y-115904787D01*
X167353610Y-116013321D01*
X167353611Y-116013322D01*
X167584239Y-116124386D01*
X167828862Y-116199844D01*
X167828870Y-116199845D01*
X168082008Y-116238000D01*
X168337992Y-116238000D01*
X168591129Y-116199845D01*
X168591141Y-116199843D01*
X168835746Y-116124392D01*
X168835753Y-116124389D01*
X169066397Y-116013318D01*
X169066399Y-116013317D01*
X169225577Y-115904789D01*
X169225578Y-115904787D01*
X168568294Y-115247503D01*
X168588942Y-115238951D01*
X168719970Y-115151401D01*
X168831401Y-115039970D01*
X168918951Y-114908942D01*
X168927503Y-114888294D01*
X169584747Y-115545538D01*
X169584748Y-115545537D01*
X169625172Y-115494849D01*
X169625172Y-115494848D01*
X169753171Y-115273148D01*
X169753173Y-115273144D01*
X169846693Y-115034856D01*
X169846694Y-115034854D01*
X169903658Y-114785281D01*
X169922788Y-114530000D01*
X169903658Y-114274718D01*
X169846694Y-114025145D01*
X169846693Y-114025143D01*
X169838043Y-114003103D01*
X171842214Y-114003103D01*
X171842214Y-116833553D01*
X176956653Y-116833553D01*
X176956653Y-114003103D01*
X171842214Y-114003103D01*
X169838043Y-114003103D01*
X169753173Y-113786855D01*
X169753171Y-113786851D01*
X169625175Y-113565155D01*
X169584747Y-113514460D01*
X168927503Y-114171704D01*
X168918951Y-114151058D01*
X168831401Y-114020030D01*
X168719970Y-113908599D01*
X168588942Y-113821049D01*
X168568293Y-113812495D01*
X169225578Y-113155211D01*
X169066390Y-113046678D01*
X169066389Y-113046677D01*
X168835753Y-112935610D01*
X168835746Y-112935607D01*
X168591141Y-112860156D01*
X168591129Y-112860154D01*
X168337992Y-112822000D01*
X168082008Y-112822000D01*
X167828870Y-112860154D01*
X167828862Y-112860155D01*
X167584239Y-112935613D01*
X167353611Y-113046677D01*
X167353603Y-113046682D01*
X167280549Y-113096490D01*
X167212998Y-113118337D01*
X167144358Y-113100195D01*
X167096423Y-113047824D01*
X167084412Y-112977851D01*
X167100452Y-112929384D01*
X167140421Y-112860156D01*
X167213622Y-112733369D01*
X167307174Y-112495001D01*
X167364155Y-112245353D01*
X167383291Y-111990000D01*
X167364155Y-111734647D01*
X167307174Y-111484999D01*
X167302013Y-111471849D01*
X167213625Y-111246637D01*
X167213623Y-111246633D01*
X167100452Y-111050615D01*
X167083714Y-110981620D01*
X167106934Y-110914528D01*
X167162742Y-110870641D01*
X167233417Y-110863892D01*
X167280550Y-110883510D01*
X167353601Y-110933316D01*
X167353611Y-110933322D01*
X167584239Y-111044386D01*
X167828862Y-111119844D01*
X167828870Y-111119845D01*
X168082008Y-111158000D01*
X168337992Y-111158000D01*
X168591129Y-111119845D01*
X168591141Y-111119843D01*
X168835746Y-111044392D01*
X168835753Y-111044389D01*
X169066397Y-110933318D01*
X169066399Y-110933317D01*
X169225577Y-110824789D01*
X169225578Y-110824787D01*
X168568294Y-110167503D01*
X168588942Y-110158951D01*
X168719970Y-110071401D01*
X168831401Y-109959970D01*
X168918951Y-109828942D01*
X168927503Y-109808294D01*
X169584747Y-110465538D01*
X169584748Y-110465537D01*
X169625172Y-110414849D01*
X169625172Y-110414848D01*
X169753171Y-110193148D01*
X169753173Y-110193144D01*
X169846693Y-109954856D01*
X169846694Y-109954854D01*
X169903658Y-109705281D01*
X169922788Y-109450000D01*
X169903658Y-109194718D01*
X169846694Y-108945145D01*
X169846693Y-108945143D01*
X169753173Y-108706855D01*
X169753171Y-108706851D01*
X169625175Y-108485155D01*
X169584747Y-108434460D01*
X168927503Y-109091704D01*
X168918951Y-109071058D01*
X168831401Y-108940030D01*
X168719970Y-108828599D01*
X168588942Y-108741049D01*
X168568294Y-108732496D01*
X169225578Y-108075211D01*
X169066390Y-107966678D01*
X169066389Y-107966677D01*
X168835753Y-107855610D01*
X168835746Y-107855607D01*
X168591141Y-107780156D01*
X168591129Y-107780154D01*
X168337992Y-107742000D01*
X168082008Y-107742000D01*
X167828870Y-107780154D01*
X167828862Y-107780155D01*
X167584239Y-107855613D01*
X167353611Y-107966677D01*
X167353603Y-107966682D01*
X167194421Y-108075210D01*
X167194421Y-108075212D01*
X167851705Y-108732496D01*
X167831058Y-108741049D01*
X167700030Y-108828599D01*
X167588599Y-108940030D01*
X167501049Y-109071058D01*
X167492496Y-109091705D01*
X166835252Y-108434461D01*
X166835250Y-108434461D01*
X166794828Y-108485148D01*
X166794825Y-108485153D01*
X166684119Y-108676904D01*
X166632737Y-108725897D01*
X166563023Y-108739333D01*
X166497112Y-108712947D01*
X166455930Y-108655115D01*
X166449000Y-108613904D01*
X166449000Y-105773274D01*
X166448999Y-105773271D01*
X166442876Y-105742488D01*
X166419063Y-105622774D01*
X166360341Y-105481005D01*
X166305987Y-105399659D01*
X166275089Y-105353416D01*
X166220293Y-105298620D01*
X166099089Y-105177416D01*
X166099081Y-105177409D01*
X166011831Y-105119111D01*
X166011830Y-105119110D01*
X165971495Y-105092159D01*
X165913196Y-105068011D01*
X165913191Y-105068009D01*
X165829728Y-105033437D01*
X165829729Y-105033437D01*
X165829726Y-105033436D01*
X165745321Y-105016647D01*
X165679227Y-105003500D01*
X165679225Y-105003500D01*
X161261296Y-105003500D01*
X161193175Y-104983498D01*
X161146682Y-104929842D01*
X161136578Y-104859568D01*
X161154055Y-104811353D01*
X161238209Y-104674920D01*
X161293062Y-104509381D01*
X161303500Y-104407213D01*
X161303499Y-103707788D01*
X161293062Y-103605619D01*
X161269025Y-103533081D01*
X161266585Y-103462128D01*
X161302893Y-103401118D01*
X161366421Y-103369422D01*
X161429540Y-103374275D01*
X161500732Y-103398716D01*
X161739145Y-103438500D01*
X161739149Y-103438500D01*
X161980851Y-103438500D01*
X161980855Y-103438500D01*
X162219268Y-103398716D01*
X162447881Y-103320233D01*
X162660458Y-103205192D01*
X162851201Y-103056731D01*
X162894286Y-103009929D01*
X163014904Y-102878902D01*
X163014903Y-102878902D01*
X163014906Y-102878900D01*
X163147109Y-102676549D01*
X163244203Y-102455197D01*
X163303539Y-102220884D01*
X163323499Y-101980000D01*
X163305420Y-101761825D01*
X163319729Y-101692289D01*
X163369362Y-101641524D01*
X163438561Y-101625652D01*
X163471901Y-101632251D01*
X163490732Y-101638716D01*
X163729145Y-101678500D01*
X163729149Y-101678500D01*
X163970851Y-101678500D01*
X163970855Y-101678500D01*
X164209268Y-101638716D01*
X164437881Y-101560233D01*
X164650458Y-101445192D01*
X164841201Y-101296731D01*
X164854223Y-101282586D01*
X164924752Y-101205970D01*
X165004906Y-101118900D01*
X165045947Y-101056082D01*
X165099949Y-101009996D01*
X165151428Y-100999000D01*
X165877489Y-100999000D01*
X165945610Y-101019002D01*
X165984729Y-101058852D01*
X166018340Y-101113343D01*
X166018342Y-101113346D01*
X166091596Y-101186600D01*
X166125620Y-101248910D01*
X166128500Y-101275694D01*
X166128500Y-101626627D01*
X166108498Y-101694748D01*
X166091595Y-101715722D01*
X166015975Y-101791341D01*
X166015970Y-101791347D01*
X165922885Y-101942262D01*
X165867113Y-102110572D01*
X165867112Y-102110579D01*
X165856500Y-102214446D01*
X165856500Y-103265544D01*
X165867112Y-103369425D01*
X165922885Y-103537738D01*
X166015970Y-103688652D01*
X166015975Y-103688658D01*
X166141341Y-103814024D01*
X166141347Y-103814029D01*
X166141348Y-103814030D01*
X166292262Y-103907115D01*
X166460574Y-103962887D01*
X166564455Y-103973500D01*
X167340544Y-103973499D01*
X167444426Y-103962887D01*
X167612738Y-103907115D01*
X167763652Y-103814030D01*
X167889030Y-103688652D01*
X167889037Y-103688639D01*
X167891478Y-103685554D01*
X167893709Y-103683973D01*
X167894220Y-103683463D01*
X167894307Y-103683550D01*
X167949416Y-103644521D01*
X168020340Y-103641324D01*
X168081734Y-103676980D01*
X168089161Y-103685551D01*
X168091369Y-103688344D01*
X168216654Y-103813629D01*
X168216660Y-103813634D01*
X168367474Y-103906657D01*
X168535678Y-103962393D01*
X168535681Y-103962394D01*
X168639483Y-103972999D01*
X168639483Y-103973000D01*
X168773500Y-103973000D01*
X168773500Y-102994000D01*
X169281500Y-102994000D01*
X169281500Y-103973000D01*
X169415517Y-103973000D01*
X169415516Y-103972999D01*
X169519318Y-103962394D01*
X169519321Y-103962393D01*
X169687525Y-103906657D01*
X169838339Y-103813634D01*
X169838345Y-103813629D01*
X169963629Y-103688345D01*
X169963634Y-103688339D01*
X170056657Y-103537525D01*
X170112393Y-103369321D01*
X170112394Y-103369318D01*
X170122999Y-103265516D01*
X170123000Y-103265516D01*
X170123000Y-102994000D01*
X169281500Y-102994000D01*
X168773500Y-102994000D01*
X168773500Y-102612000D01*
X168793502Y-102543879D01*
X168847158Y-102497386D01*
X168899500Y-102486000D01*
X170123000Y-102486000D01*
X170123000Y-102214483D01*
X170112394Y-102110681D01*
X170112393Y-102110678D01*
X170056657Y-101942474D01*
X169963634Y-101791660D01*
X169963629Y-101791654D01*
X169838345Y-101666370D01*
X169838339Y-101666365D01*
X169687525Y-101573342D01*
X169519321Y-101517606D01*
X169519318Y-101517605D01*
X169415516Y-101507000D01*
X169403389Y-101507000D01*
X169335268Y-101486998D01*
X169288775Y-101433342D01*
X169278671Y-101363068D01*
X169308165Y-101298488D01*
X169337242Y-101273759D01*
X169398033Y-101236262D01*
X169398039Y-101236257D01*
X169521257Y-101113039D01*
X169521262Y-101113033D01*
X169612751Y-100964707D01*
X169667568Y-100799276D01*
X169667569Y-100799273D01*
X169677999Y-100697184D01*
X169678000Y-100697184D01*
X169678000Y-100664000D01*
X168504500Y-100664000D01*
X168436379Y-100643998D01*
X168389886Y-100590342D01*
X168378500Y-100538000D01*
X168378500Y-99427000D01*
X168886500Y-99427000D01*
X168886500Y-100156000D01*
X169678000Y-100156000D01*
X169678000Y-100122815D01*
X169667569Y-100020726D01*
X169667568Y-100020723D01*
X169612751Y-99855292D01*
X169521262Y-99706966D01*
X169521257Y-99706960D01*
X169398039Y-99583742D01*
X169398033Y-99583737D01*
X169249707Y-99492248D01*
X169084276Y-99437431D01*
X169084273Y-99437430D01*
X168982184Y-99427000D01*
X168886500Y-99427000D01*
X168378500Y-99427000D01*
X168282815Y-99427000D01*
X168180726Y-99437430D01*
X168180723Y-99437431D01*
X168015292Y-99492248D01*
X167866966Y-99583737D01*
X167859445Y-99591258D01*
X167797131Y-99625281D01*
X167726316Y-99620213D01*
X167681256Y-99591252D01*
X167673346Y-99583342D01*
X167524920Y-99491791D01*
X167359381Y-99436938D01*
X167359379Y-99436937D01*
X167359377Y-99436937D01*
X167257221Y-99426500D01*
X166557787Y-99426500D01*
X166455619Y-99436937D01*
X166449682Y-99438209D01*
X166423307Y-99441000D01*
X165151428Y-99441000D01*
X165083307Y-99420998D01*
X165045947Y-99383918D01*
X165004906Y-99321100D01*
X165004900Y-99321093D01*
X164841207Y-99143274D01*
X164832795Y-99136727D01*
X164650458Y-98994808D01*
X164650457Y-98994807D01*
X164437880Y-98879766D01*
X164437878Y-98879765D01*
X164209272Y-98801285D01*
X164209265Y-98801283D01*
X164107230Y-98784256D01*
X163970855Y-98761500D01*
X163729145Y-98761500D01*
X163609832Y-98781409D01*
X163490734Y-98801283D01*
X163490727Y-98801285D01*
X163262121Y-98879765D01*
X163262119Y-98879766D01*
X163049542Y-98994807D01*
X163049541Y-98994808D01*
X162858792Y-99143274D01*
X162695099Y-99321093D01*
X162695095Y-99321098D01*
X162695094Y-99321100D01*
X162654052Y-99383917D01*
X162600051Y-99430004D01*
X162548572Y-99441000D01*
X161244862Y-99441000D01*
X161176741Y-99420998D01*
X161155767Y-99404095D01*
X159370767Y-97619095D01*
X159336741Y-97556783D01*
X159341806Y-97485968D01*
X159384353Y-97429132D01*
X159450873Y-97404321D01*
X159459862Y-97404000D01*
X163350430Y-97404000D01*
X163398647Y-97413591D01*
X163418169Y-97421677D01*
X163451150Y-97435338D01*
X163570115Y-97451000D01*
X163849884Y-97450999D01*
X163968850Y-97435338D01*
X164016041Y-97415791D01*
X164021353Y-97413591D01*
X164069570Y-97404000D01*
X164191724Y-97404000D01*
X164191725Y-97404000D01*
X164342226Y-97374064D01*
X164457769Y-97326204D01*
X164483995Y-97315341D01*
X164611583Y-97230089D01*
X164720089Y-97121583D01*
X165079725Y-96761946D01*
X165142034Y-96727924D01*
X165212849Y-96732988D01*
X165269685Y-96775535D01*
X165294496Y-96842055D01*
X165290962Y-96881974D01*
X165277783Y-96934018D01*
X165277782Y-96934019D01*
X165257822Y-97174907D01*
X165277782Y-97415794D01*
X165277784Y-97415803D01*
X165337116Y-97650100D01*
X165337119Y-97650107D01*
X165425670Y-97851983D01*
X165434212Y-97871456D01*
X165474973Y-97933845D01*
X165566416Y-98073809D01*
X165730113Y-98251632D01*
X165730118Y-98251636D01*
X165730120Y-98251638D01*
X165920862Y-98400098D01*
X165920863Y-98400099D01*
X166133440Y-98515140D01*
X166133442Y-98515141D01*
X166253471Y-98556346D01*
X166362053Y-98593623D01*
X166600466Y-98633407D01*
X166600470Y-98633407D01*
X166842172Y-98633407D01*
X166842176Y-98633407D01*
X167080589Y-98593623D01*
X167309202Y-98515140D01*
X167521779Y-98400099D01*
X167712522Y-98251638D01*
X167714491Y-98249500D01*
X167876225Y-98073809D01*
X167876224Y-98073809D01*
X167876227Y-98073807D01*
X168008430Y-97871456D01*
X168025956Y-97831500D01*
X168567000Y-97831500D01*
X168567000Y-97965516D01*
X168577605Y-98069318D01*
X168577606Y-98069321D01*
X168633342Y-98237525D01*
X168726365Y-98388339D01*
X168726370Y-98388345D01*
X168851654Y-98513629D01*
X168851660Y-98513634D01*
X169002474Y-98606657D01*
X169170678Y-98662393D01*
X169170681Y-98662394D01*
X169274483Y-98672999D01*
X169274483Y-98673000D01*
X169546000Y-98673000D01*
X169546000Y-97831500D01*
X168567000Y-97831500D01*
X168025956Y-97831500D01*
X168105524Y-97650104D01*
X168143653Y-97499534D01*
X168164857Y-97415803D01*
X168164859Y-97415794D01*
X168164860Y-97415791D01*
X168184820Y-97174907D01*
X168164860Y-96934023D01*
X168162030Y-96922848D01*
X168164696Y-96851903D01*
X168195077Y-96802821D01*
X168602589Y-96395311D01*
X168602592Y-96395305D01*
X168606516Y-96390526D01*
X168608717Y-96392332D01*
X168653709Y-96354608D01*
X168724138Y-96345646D01*
X168788231Y-96376183D01*
X168793261Y-96380943D01*
X168842318Y-96430000D01*
X168851350Y-96439032D01*
X168854450Y-96441483D01*
X168856024Y-96443706D01*
X168856538Y-96444220D01*
X168856450Y-96444307D01*
X168895481Y-96499422D01*
X168898673Y-96570347D01*
X168863014Y-96631739D01*
X168854454Y-96639157D01*
X168851654Y-96641370D01*
X168726370Y-96766654D01*
X168726365Y-96766660D01*
X168633342Y-96917474D01*
X168577606Y-97085678D01*
X168577605Y-97085681D01*
X168567000Y-97189483D01*
X168567000Y-97323500D01*
X169928000Y-97323500D01*
X169996121Y-97343502D01*
X170042614Y-97397158D01*
X170054000Y-97449500D01*
X170054000Y-98673000D01*
X170325517Y-98673000D01*
X170325516Y-98672999D01*
X170429318Y-98662394D01*
X170429321Y-98662393D01*
X170597525Y-98606657D01*
X170748339Y-98513634D01*
X170748345Y-98513629D01*
X170873629Y-98388345D01*
X170873634Y-98388339D01*
X170966657Y-98237525D01*
X171022393Y-98069324D01*
X171025350Y-98040380D01*
X171052172Y-97974645D01*
X171110275Y-97933845D01*
X171181212Y-97930936D01*
X171239793Y-97964090D01*
X171326960Y-98051257D01*
X171326966Y-98051262D01*
X171475292Y-98142751D01*
X171640723Y-98197568D01*
X171640726Y-98197569D01*
X171742815Y-98207999D01*
X171742815Y-98208000D01*
X171776000Y-98208000D01*
X171776000Y-97466500D01*
X172284000Y-97466500D01*
X172284000Y-98208000D01*
X172317185Y-98208000D01*
X172317184Y-98207999D01*
X172419273Y-98197569D01*
X172419276Y-98197568D01*
X172584707Y-98142751D01*
X172733033Y-98051262D01*
X172733039Y-98051257D01*
X172856257Y-97928039D01*
X172856262Y-97928033D01*
X172947751Y-97779707D01*
X173002568Y-97614276D01*
X173002569Y-97614273D01*
X173012999Y-97512184D01*
X173013000Y-97512184D01*
X173013000Y-97466500D01*
X172284000Y-97466500D01*
X171776000Y-97466500D01*
X171776000Y-97084500D01*
X171796002Y-97016379D01*
X171849658Y-96969886D01*
X171902000Y-96958500D01*
X173013000Y-96958500D01*
X173013000Y-96912815D01*
X173002569Y-96810726D01*
X173002568Y-96810723D01*
X172947751Y-96645292D01*
X172856262Y-96496966D01*
X172856257Y-96496960D01*
X172748746Y-96389449D01*
X172714720Y-96327137D01*
X172719785Y-96256322D01*
X172748746Y-96211259D01*
X172856652Y-96103352D01*
X172856658Y-96103346D01*
X172948209Y-95954920D01*
X173003062Y-95789381D01*
X173013500Y-95687213D01*
X173013499Y-95087788D01*
X173013379Y-95086618D01*
X173003062Y-94985619D01*
X172996102Y-94964614D01*
X172948209Y-94820080D01*
X172856658Y-94671654D01*
X172856657Y-94671653D01*
X172856652Y-94671647D01*
X172808405Y-94623400D01*
X172774379Y-94561088D01*
X172771500Y-94534305D01*
X172771500Y-94365445D01*
X172791502Y-94297324D01*
X172831352Y-94258204D01*
X172878652Y-94229030D01*
X173004030Y-94103652D01*
X173097115Y-93952738D01*
X173152887Y-93784426D01*
X173163500Y-93680545D01*
X173163499Y-93457430D01*
X173183501Y-93389312D01*
X173237156Y-93342819D01*
X173307430Y-93332714D01*
X173372011Y-93362207D01*
X173405908Y-93409213D01*
X173492073Y-93617232D01*
X173492074Y-93617233D01*
X173492075Y-93617235D01*
X173620245Y-93826392D01*
X173620246Y-93826394D01*
X173620248Y-93826396D01*
X173779566Y-94012932D01*
X173779569Y-94012935D01*
X173872568Y-94092364D01*
X173911378Y-94151814D01*
X173911884Y-94222809D01*
X173873928Y-94282808D01*
X173872570Y-94283985D01*
X173804567Y-94342066D01*
X173645245Y-94528607D01*
X173517074Y-94737766D01*
X173423195Y-94964407D01*
X173403431Y-95046731D01*
X173365928Y-95202943D01*
X173346681Y-95447500D01*
X173365928Y-95692057D01*
X173423195Y-95930592D01*
X173517073Y-96157232D01*
X173538682Y-96192495D01*
X173645245Y-96366392D01*
X173645246Y-96366394D01*
X173645248Y-96366396D01*
X173804567Y-96552933D01*
X173857919Y-96598500D01*
X173885069Y-96621689D01*
X173923878Y-96681140D01*
X173924384Y-96752135D01*
X173886428Y-96812133D01*
X173885069Y-96813311D01*
X173804567Y-96882067D01*
X173645245Y-97068607D01*
X173517074Y-97277766D01*
X173423195Y-97504407D01*
X173388217Y-97650104D01*
X173365928Y-97742943D01*
X173346681Y-97987500D01*
X173365928Y-98232057D01*
X173423195Y-98470592D01*
X173517073Y-98697232D01*
X173570094Y-98783756D01*
X173645245Y-98906392D01*
X173645246Y-98906394D01*
X173645248Y-98906396D01*
X173804567Y-99092933D01*
X173863508Y-99143274D01*
X173885069Y-99161689D01*
X173923878Y-99221140D01*
X173924384Y-99292135D01*
X173886428Y-99352133D01*
X173885069Y-99353311D01*
X173804567Y-99422067D01*
X173645245Y-99608607D01*
X173517074Y-99817766D01*
X173433006Y-100020723D01*
X173423195Y-100044408D01*
X173365928Y-100282943D01*
X173346681Y-100527500D01*
X173365928Y-100772057D01*
X173423195Y-101010592D01*
X173517073Y-101237232D01*
X173570094Y-101323756D01*
X173645245Y-101446392D01*
X173645246Y-101446394D01*
X173645248Y-101446396D01*
X173804567Y-101632933D01*
X173857919Y-101678500D01*
X173885069Y-101701689D01*
X173923878Y-101761140D01*
X173924384Y-101832135D01*
X173886428Y-101892133D01*
X173885069Y-101893311D01*
X173804567Y-101962067D01*
X173645245Y-102148607D01*
X173549884Y-102304225D01*
X173517073Y-102357768D01*
X173489578Y-102424145D01*
X173423195Y-102584407D01*
X173384408Y-102745966D01*
X173365928Y-102822943D01*
X173346681Y-103067500D01*
X173365928Y-103312057D01*
X173423195Y-103550592D01*
X173517073Y-103777232D01*
X173517074Y-103777233D01*
X173625867Y-103954770D01*
X173644405Y-104023303D01*
X173622948Y-104090980D01*
X173593943Y-104121472D01*
X173496738Y-104194238D01*
X173409112Y-104311292D01*
X173409110Y-104311297D01*
X173358011Y-104448295D01*
X173358009Y-104448303D01*
X173351500Y-104508850D01*
X173351500Y-106706149D01*
X173358009Y-106766696D01*
X173358011Y-106766704D01*
X173409110Y-106903702D01*
X173409112Y-106903707D01*
X173496738Y-107020761D01*
X173613792Y-107108387D01*
X173613794Y-107108388D01*
X173613796Y-107108389D01*
X173671431Y-107129886D01*
X173750795Y-107159488D01*
X173750803Y-107159490D01*
X173811350Y-107165999D01*
X173811355Y-107165999D01*
X173811362Y-107166000D01*
X173811368Y-107166000D01*
X176008632Y-107166000D01*
X176008638Y-107166000D01*
X176008645Y-107165999D01*
X176008649Y-107165999D01*
X176069196Y-107159490D01*
X176069199Y-107159489D01*
X176069201Y-107159489D01*
X176206204Y-107108389D01*
X176242943Y-107080887D01*
X176323261Y-107020761D01*
X176410887Y-106903707D01*
X176410888Y-106903705D01*
X176410889Y-106903704D01*
X176461989Y-106766701D01*
X176462365Y-106763209D01*
X176468499Y-106706149D01*
X176468500Y-106706132D01*
X176468500Y-104508867D01*
X176468499Y-104508850D01*
X176461990Y-104448303D01*
X176461988Y-104448295D01*
X176425986Y-104351773D01*
X176410889Y-104311296D01*
X176410888Y-104311294D01*
X176410887Y-104311292D01*
X176323262Y-104194240D01*
X176323259Y-104194238D01*
X176226055Y-104121471D01*
X176183509Y-104064635D01*
X176178445Y-103993819D01*
X176194129Y-103954775D01*
X176302927Y-103777232D01*
X176396805Y-103550592D01*
X176454072Y-103312057D01*
X176473319Y-103067500D01*
X176454072Y-102822943D01*
X176396805Y-102584408D01*
X176302927Y-102357768D01*
X176174752Y-102148604D01*
X176015433Y-101962067D01*
X175934929Y-101893309D01*
X175896121Y-101833860D01*
X175895615Y-101762866D01*
X175933571Y-101702867D01*
X175934879Y-101701732D01*
X176015433Y-101632933D01*
X176174752Y-101446396D01*
X176302927Y-101237232D01*
X176396805Y-101010592D01*
X176454072Y-100772057D01*
X176473319Y-100527500D01*
X176454072Y-100282943D01*
X176396805Y-100044408D01*
X176302927Y-99817768D01*
X176188714Y-99631388D01*
X176174754Y-99608607D01*
X176174753Y-99608606D01*
X176174752Y-99608604D01*
X176015433Y-99422067D01*
X175934929Y-99353309D01*
X175896121Y-99293860D01*
X175895615Y-99222866D01*
X175933571Y-99162867D01*
X175934879Y-99161732D01*
X176015433Y-99092933D01*
X176174752Y-98906396D01*
X176302927Y-98697232D01*
X176396805Y-98470592D01*
X176454072Y-98232057D01*
X176473319Y-97987500D01*
X176454072Y-97742943D01*
X176396805Y-97504408D01*
X176302927Y-97277768D01*
X176174752Y-97068604D01*
X176015433Y-96882067D01*
X175934929Y-96813309D01*
X175896121Y-96753860D01*
X175895615Y-96682866D01*
X175933571Y-96622867D01*
X175934879Y-96621732D01*
X176015433Y-96552933D01*
X176174752Y-96366396D01*
X176302927Y-96157232D01*
X176396805Y-95930592D01*
X176454072Y-95692057D01*
X176473319Y-95447500D01*
X176454072Y-95202943D01*
X176396805Y-94964408D01*
X176302927Y-94737768D01*
X176190084Y-94553624D01*
X176174754Y-94528607D01*
X176174753Y-94528606D01*
X176174752Y-94528604D01*
X176015433Y-94342067D01*
X175922430Y-94262634D01*
X175883621Y-94203183D01*
X175883115Y-94132188D01*
X175921071Y-94072190D01*
X175922321Y-94071105D01*
X175990433Y-94012933D01*
X176149752Y-93826396D01*
X176277927Y-93617232D01*
X176371805Y-93390592D01*
X176429072Y-93152057D01*
X176448319Y-92907500D01*
X176429072Y-92662943D01*
X176371805Y-92424408D01*
X176277927Y-92197768D01*
X176161185Y-92007261D01*
X176149754Y-91988607D01*
X176149753Y-91988606D01*
X176149752Y-91988604D01*
X175990433Y-91802067D01*
X175909929Y-91733309D01*
X175871121Y-91673860D01*
X175870615Y-91602866D01*
X175908571Y-91542867D01*
X175909879Y-91541732D01*
X175990433Y-91472933D01*
X176149752Y-91286396D01*
X176277927Y-91077232D01*
X176371805Y-90850592D01*
X176429072Y-90612057D01*
X176448319Y-90367500D01*
X176429072Y-90122943D01*
X176371805Y-89884408D01*
X176277927Y-89657768D01*
X176149752Y-89448604D01*
X175990433Y-89262067D01*
X175909929Y-89193309D01*
X175871121Y-89133860D01*
X175870615Y-89062866D01*
X175908571Y-89002867D01*
X175909879Y-89001732D01*
X175990433Y-88932933D01*
X176149752Y-88746396D01*
X176277927Y-88537232D01*
X176371805Y-88310592D01*
X176429072Y-88072057D01*
X176448319Y-87827500D01*
X176429072Y-87582943D01*
X176371805Y-87344408D01*
X176277927Y-87117768D01*
X176160814Y-86926656D01*
X176149754Y-86908607D01*
X176149753Y-86908606D01*
X176149752Y-86908604D01*
X175990433Y-86722067D01*
X175907002Y-86650809D01*
X175868194Y-86591360D01*
X175867688Y-86520366D01*
X175905644Y-86460367D01*
X175906959Y-86459226D01*
X175990433Y-86387933D01*
X176149752Y-86201396D01*
X176277927Y-85992232D01*
X176371805Y-85765592D01*
X176429072Y-85527057D01*
X176448319Y-85282500D01*
X176429072Y-85037943D01*
X176371805Y-84799408D01*
X176277927Y-84572768D01*
X176162018Y-84383621D01*
X176149754Y-84363607D01*
X176149753Y-84363606D01*
X176149752Y-84363604D01*
X175990433Y-84177067D01*
X175803896Y-84017748D01*
X175803894Y-84017746D01*
X175803892Y-84017745D01*
X175607555Y-83897431D01*
X175594732Y-83889573D01*
X175368092Y-83795695D01*
X175129557Y-83738428D01*
X174885000Y-83719181D01*
X174640443Y-83738428D01*
X174401907Y-83795695D01*
X174175266Y-83889574D01*
X173966107Y-84017745D01*
X173779567Y-84177067D01*
X173620245Y-84363607D01*
X173492074Y-84572766D01*
X173492073Y-84572768D01*
X173475268Y-84613339D01*
X173398195Y-84799407D01*
X173355921Y-84975493D01*
X173340928Y-85037943D01*
X173321681Y-85282500D01*
X173340928Y-85527057D01*
X173398195Y-85765592D01*
X173492073Y-85992232D01*
X173499607Y-86004526D01*
X173620245Y-86201392D01*
X173620246Y-86201394D01*
X173620248Y-86201396D01*
X173779567Y-86387933D01*
X173830323Y-86431283D01*
X173862996Y-86459189D01*
X173901805Y-86518640D01*
X173902311Y-86589635D01*
X173864355Y-86649634D01*
X173862996Y-86650811D01*
X173779567Y-86722067D01*
X173620245Y-86908607D01*
X173507603Y-87092425D01*
X173492073Y-87117768D01*
X173488677Y-87125966D01*
X173398195Y-87344407D01*
X173379230Y-87423402D01*
X173340928Y-87582943D01*
X173321681Y-87827500D01*
X173340928Y-88072057D01*
X173398195Y-88310592D01*
X173492073Y-88537232D01*
X173502610Y-88554427D01*
X173620245Y-88746392D01*
X173620246Y-88746394D01*
X173620248Y-88746396D01*
X173779567Y-88932933D01*
X173845903Y-88989589D01*
X173860069Y-89001689D01*
X173898878Y-89061140D01*
X173899384Y-89132135D01*
X173861428Y-89192133D01*
X173860069Y-89193311D01*
X173779567Y-89262067D01*
X173620245Y-89448607D01*
X173499480Y-89645681D01*
X173492073Y-89657768D01*
X173483496Y-89678475D01*
X173398195Y-89884407D01*
X173370874Y-89998209D01*
X173340928Y-90122943D01*
X173321681Y-90367500D01*
X173340928Y-90612057D01*
X173398195Y-90850592D01*
X173492073Y-91077232D01*
X173545094Y-91163756D01*
X173620245Y-91286392D01*
X173620246Y-91286394D01*
X173620248Y-91286396D01*
X173779567Y-91472933D01*
X173821981Y-91509158D01*
X173860069Y-91541689D01*
X173898878Y-91601140D01*
X173899384Y-91672135D01*
X173861428Y-91732133D01*
X173860069Y-91733311D01*
X173779567Y-91802067D01*
X173620245Y-91988607D01*
X173505672Y-92175576D01*
X173492073Y-92197768D01*
X173418697Y-92374912D01*
X173405908Y-92405788D01*
X173361359Y-92461068D01*
X173293996Y-92483489D01*
X173225204Y-92465931D01*
X173176826Y-92413968D01*
X173163499Y-92357569D01*
X173163499Y-92279455D01*
X173152887Y-92175574D01*
X173133635Y-92117474D01*
X173097115Y-92007262D01*
X173004030Y-91856348D01*
X173004029Y-91856347D01*
X173004024Y-91856341D01*
X172878658Y-91730975D01*
X172878652Y-91730970D01*
X172865327Y-91722751D01*
X172727738Y-91637885D01*
X172615546Y-91600709D01*
X172559427Y-91582113D01*
X172559420Y-91582112D01*
X172455553Y-91571500D01*
X171529455Y-91571500D01*
X171425574Y-91582112D01*
X171257261Y-91637885D01*
X171106347Y-91730970D01*
X171106341Y-91730975D01*
X170980975Y-91856341D01*
X170980970Y-91856347D01*
X170887885Y-92007262D01*
X170832113Y-92175572D01*
X170832112Y-92175579D01*
X170821500Y-92279446D01*
X170821500Y-92923106D01*
X170801498Y-92991227D01*
X170747842Y-93037720D01*
X170677568Y-93047824D01*
X170612988Y-93018330D01*
X170574604Y-92958604D01*
X170571921Y-92947687D01*
X170565462Y-92915215D01*
X170549064Y-92832776D01*
X170549064Y-92832774D01*
X170515010Y-92750563D01*
X170490341Y-92691005D01*
X170431816Y-92603417D01*
X170405089Y-92563416D01*
X170206583Y-92364911D01*
X170084871Y-92283585D01*
X170039344Y-92229110D01*
X170029526Y-92191622D01*
X170027887Y-92175579D01*
X170027887Y-92175574D01*
X169972115Y-92007262D01*
X169879030Y-91856348D01*
X169879029Y-91856347D01*
X169879024Y-91856341D01*
X169753658Y-91730975D01*
X169753652Y-91730970D01*
X169740327Y-91722751D01*
X169602738Y-91637885D01*
X169490546Y-91600709D01*
X169434427Y-91582113D01*
X169434420Y-91582112D01*
X169330553Y-91571500D01*
X168404455Y-91571500D01*
X168300574Y-91582112D01*
X168132261Y-91637885D01*
X167981347Y-91730970D01*
X167981341Y-91730975D01*
X167855975Y-91856341D01*
X167855970Y-91856347D01*
X167762885Y-92007262D01*
X167707112Y-92175576D01*
X167704009Y-92205948D01*
X167677186Y-92271683D01*
X167648665Y-92297904D01*
X167533415Y-92374912D01*
X167518872Y-92389456D01*
X167500917Y-92407411D01*
X167472328Y-92436000D01*
X167392410Y-92515917D01*
X167338765Y-92596203D01*
X167284288Y-92641731D01*
X167213845Y-92650578D01*
X167149801Y-92619937D01*
X167112489Y-92559535D01*
X167108000Y-92526201D01*
X167108000Y-92389483D01*
X167097394Y-92285681D01*
X167097393Y-92285678D01*
X167041657Y-92117474D01*
X166956953Y-91980147D01*
X166938216Y-91911667D01*
X166959475Y-91843929D01*
X167013983Y-91798437D01*
X167064194Y-91788000D01*
X167097185Y-91788000D01*
X167097184Y-91787999D01*
X167199273Y-91777569D01*
X167199276Y-91777568D01*
X167364707Y-91722751D01*
X167513033Y-91631262D01*
X167513039Y-91631257D01*
X167636257Y-91508039D01*
X167636262Y-91508033D01*
X167727751Y-91359707D01*
X167782568Y-91194279D01*
X167787110Y-91149818D01*
X167813932Y-91084083D01*
X167872034Y-91043283D01*
X167942971Y-91040373D01*
X167995221Y-91069944D01*
X167995903Y-91069082D01*
X168001458Y-91073474D01*
X168001553Y-91073528D01*
X168001654Y-91073629D01*
X168001660Y-91073634D01*
X168152474Y-91166657D01*
X168320678Y-91222393D01*
X168320681Y-91222394D01*
X168424483Y-91232999D01*
X168424483Y-91233000D01*
X168696000Y-91233000D01*
X168696000Y-90391500D01*
X169204000Y-90391500D01*
X169204000Y-91233000D01*
X169475517Y-91233000D01*
X169475516Y-91232999D01*
X169579318Y-91222394D01*
X169579321Y-91222393D01*
X169747525Y-91166657D01*
X169898339Y-91073634D01*
X169898345Y-91073629D01*
X170023629Y-90948345D01*
X170023634Y-90948339D01*
X170116657Y-90797525D01*
X170172393Y-90629321D01*
X170172394Y-90629318D01*
X170182999Y-90525516D01*
X170183000Y-90525516D01*
X170183000Y-90391500D01*
X169204000Y-90391500D01*
X168696000Y-90391500D01*
X168696000Y-90009500D01*
X168716002Y-89941379D01*
X168769658Y-89894886D01*
X168822000Y-89883500D01*
X170183000Y-89883500D01*
X170183000Y-89749483D01*
X170172394Y-89645681D01*
X170172393Y-89645678D01*
X170116657Y-89477474D01*
X170023634Y-89326660D01*
X170023629Y-89326654D01*
X169898344Y-89201369D01*
X169895551Y-89199161D01*
X169894131Y-89197156D01*
X169893150Y-89196175D01*
X169893317Y-89196007D01*
X169854519Y-89141222D01*
X169851325Y-89070298D01*
X169886983Y-89008905D01*
X169895554Y-89001478D01*
X169898639Y-88999037D01*
X169898652Y-88999030D01*
X170024030Y-88873652D01*
X170117115Y-88722738D01*
X170172887Y-88554426D01*
X170183500Y-88450545D01*
X170183499Y-87674456D01*
X170172887Y-87570574D01*
X170117115Y-87402262D01*
X170024030Y-87251348D01*
X170024029Y-87251347D01*
X170024024Y-87251341D01*
X169898658Y-87125975D01*
X169898652Y-87125970D01*
X169886543Y-87118501D01*
X169747738Y-87032885D01*
X169747734Y-87032883D01*
X169746964Y-87032628D01*
X169746504Y-87032309D01*
X169741086Y-87029783D01*
X169741517Y-87028857D01*
X169688594Y-86992213D01*
X169661339Y-86926656D01*
X169673855Y-86856771D01*
X169703961Y-86819718D01*
X169703463Y-86819220D01*
X169708277Y-86814405D01*
X169708460Y-86814181D01*
X169708642Y-86814035D01*
X169708652Y-86814030D01*
X169834030Y-86688652D01*
X169927115Y-86537738D01*
X169982887Y-86369426D01*
X169993500Y-86265545D01*
X169993499Y-85489456D01*
X169992965Y-85484233D01*
X169982887Y-85385574D01*
X169975358Y-85362853D01*
X169927115Y-85217262D01*
X169834030Y-85066348D01*
X169834029Y-85066347D01*
X169834024Y-85066341D01*
X169708657Y-84940974D01*
X169705547Y-84938515D01*
X169703967Y-84936284D01*
X169703463Y-84935780D01*
X169703549Y-84935693D01*
X169664518Y-84880575D01*
X169661326Y-84809650D01*
X169696986Y-84748259D01*
X169705558Y-84740832D01*
X169708350Y-84738624D01*
X169833629Y-84613345D01*
X169833634Y-84613339D01*
X169926657Y-84462525D01*
X169982393Y-84294321D01*
X169982394Y-84294318D01*
X169992999Y-84190516D01*
X169993000Y-84190516D01*
X169993000Y-84056500D01*
X168632000Y-84056500D01*
X168563879Y-84036498D01*
X168517386Y-83982842D01*
X168506000Y-83930500D01*
X168506000Y-82707000D01*
X169014000Y-82707000D01*
X169014000Y-83548500D01*
X169993000Y-83548500D01*
X169993000Y-83414483D01*
X169982394Y-83310681D01*
X169982393Y-83310678D01*
X169926657Y-83142474D01*
X169833634Y-82991660D01*
X169833629Y-82991654D01*
X169708345Y-82866370D01*
X169708339Y-82866365D01*
X169557525Y-82773342D01*
X169389321Y-82717606D01*
X169389318Y-82717605D01*
X169285516Y-82707000D01*
X169014000Y-82707000D01*
X168506000Y-82707000D01*
X168234483Y-82707000D01*
X168130681Y-82717605D01*
X168130678Y-82717606D01*
X167962474Y-82773342D01*
X167811660Y-82866365D01*
X167811654Y-82866370D01*
X167686370Y-82991654D01*
X167686365Y-82991660D01*
X167593342Y-83142474D01*
X167537606Y-83310678D01*
X167537605Y-83310681D01*
X167527000Y-83414483D01*
X167527000Y-83624646D01*
X167506998Y-83692767D01*
X167453342Y-83739260D01*
X167383068Y-83749364D01*
X167318488Y-83719870D01*
X167281395Y-83664279D01*
X167250251Y-83570292D01*
X167158762Y-83421966D01*
X167158757Y-83421960D01*
X167035539Y-83298742D01*
X167035533Y-83298737D01*
X166887207Y-83207248D01*
X166721776Y-83152431D01*
X166721773Y-83152430D01*
X166619684Y-83142000D01*
X166586500Y-83142000D01*
X166586500Y-84315500D01*
X166566498Y-84383621D01*
X166512842Y-84430114D01*
X166460500Y-84441500D01*
X165349500Y-84441500D01*
X165349500Y-84537184D01*
X165359930Y-84639273D01*
X165359931Y-84639276D01*
X165414748Y-84804707D01*
X165499033Y-84941353D01*
X165517770Y-85009832D01*
X165496511Y-85077571D01*
X165442004Y-85123063D01*
X165391792Y-85133500D01*
X165160772Y-85133500D01*
X165010273Y-85163436D01*
X165010267Y-85163438D01*
X164910027Y-85204959D01*
X164910026Y-85204958D01*
X164868501Y-85222160D01*
X164868500Y-85222160D01*
X164812800Y-85259380D01*
X164812799Y-85259381D01*
X164740921Y-85307408D01*
X164740914Y-85307413D01*
X164564095Y-85484233D01*
X164501783Y-85518259D01*
X164430968Y-85513194D01*
X164374132Y-85470647D01*
X164349321Y-85404127D01*
X164349000Y-85395138D01*
X164349000Y-85148194D01*
X164369002Y-85080073D01*
X164385902Y-85059101D01*
X164396658Y-85048346D01*
X164488209Y-84899920D01*
X164543062Y-84734381D01*
X164553500Y-84632213D01*
X164553499Y-83933500D01*
X165349500Y-83933500D01*
X166078500Y-83933500D01*
X166078500Y-83142000D01*
X166045315Y-83142000D01*
X165943226Y-83152430D01*
X165943223Y-83152431D01*
X165777792Y-83207248D01*
X165629466Y-83298737D01*
X165629460Y-83298742D01*
X165506242Y-83421960D01*
X165506237Y-83421966D01*
X165414748Y-83570292D01*
X165359931Y-83735723D01*
X165359930Y-83735726D01*
X165349500Y-83837815D01*
X165349500Y-83933500D01*
X164553499Y-83933500D01*
X164553499Y-83932788D01*
X164543062Y-83830619D01*
X164488209Y-83665080D01*
X164396658Y-83516654D01*
X164388746Y-83508742D01*
X164354721Y-83446434D01*
X164359783Y-83375618D01*
X164388748Y-83330547D01*
X164396262Y-83323033D01*
X164487751Y-83174707D01*
X164542568Y-83009276D01*
X164542569Y-83009273D01*
X164552999Y-82907184D01*
X164553000Y-82907184D01*
X164553000Y-82811500D01*
X163442000Y-82811500D01*
X163373879Y-82791498D01*
X163327386Y-82737842D01*
X163316000Y-82685500D01*
X163316000Y-81512000D01*
X163824000Y-81512000D01*
X163824000Y-82303500D01*
X164553000Y-82303500D01*
X164553000Y-82207815D01*
X164542569Y-82105726D01*
X164542568Y-82105723D01*
X164487751Y-81940292D01*
X164396262Y-81791966D01*
X164396257Y-81791960D01*
X164273039Y-81668742D01*
X164273033Y-81668737D01*
X164124707Y-81577248D01*
X163959276Y-81522431D01*
X163959273Y-81522430D01*
X163857184Y-81512000D01*
X163824000Y-81512000D01*
X163316000Y-81512000D01*
X163282815Y-81512000D01*
X163180726Y-81522430D01*
X163180723Y-81522431D01*
X163015292Y-81577248D01*
X162866966Y-81668737D01*
X162866960Y-81668742D01*
X162743742Y-81791960D01*
X162743735Y-81791969D01*
X162698223Y-81865755D01*
X162645437Y-81913233D01*
X162575362Y-81924635D01*
X162510246Y-81896342D01*
X162470764Y-81837336D01*
X162465635Y-81812411D01*
X162462393Y-81780676D01*
X162406657Y-81612474D01*
X162313634Y-81461660D01*
X162313629Y-81461654D01*
X162188345Y-81336370D01*
X162188339Y-81336365D01*
X162037525Y-81243342D01*
X161869321Y-81187606D01*
X161869318Y-81187605D01*
X161765516Y-81177000D01*
X161494000Y-81177000D01*
X161494000Y-82400500D01*
X161473998Y-82468621D01*
X161420342Y-82515114D01*
X161368000Y-82526500D01*
X160007000Y-82526500D01*
X160007000Y-82660516D01*
X160017605Y-82764318D01*
X160017606Y-82764321D01*
X160073342Y-82932525D01*
X160166365Y-83083339D01*
X160166370Y-83083345D01*
X160291657Y-83208632D01*
X160294446Y-83210837D01*
X160295863Y-83212838D01*
X160296850Y-83213825D01*
X160296681Y-83213993D01*
X160335479Y-83268775D01*
X160338674Y-83339700D01*
X160303017Y-83401093D01*
X160294457Y-83408511D01*
X160291345Y-83410971D01*
X160165975Y-83536341D01*
X160165970Y-83536347D01*
X160072885Y-83687262D01*
X160017113Y-83855572D01*
X160017112Y-83855579D01*
X160006500Y-83959446D01*
X160006500Y-84735544D01*
X160017112Y-84839425D01*
X160072885Y-85007738D01*
X160165970Y-85158652D01*
X160165975Y-85158658D01*
X160180207Y-85172890D01*
X160214233Y-85235202D01*
X160209168Y-85306017D01*
X160166621Y-85362853D01*
X160151086Y-85372796D01*
X160093192Y-85404127D01*
X159999539Y-85454809D01*
X159808792Y-85603274D01*
X159645095Y-85781097D01*
X159512889Y-85983454D01*
X159415798Y-86204799D01*
X159415795Y-86204806D01*
X159356463Y-86439103D01*
X159356461Y-86439112D01*
X159336501Y-86680000D01*
X159356461Y-86920887D01*
X159356463Y-86920896D01*
X159415795Y-87155193D01*
X159415798Y-87155200D01*
X159512890Y-87376548D01*
X159642212Y-87574490D01*
X159662725Y-87642458D01*
X159643236Y-87710727D01*
X159625824Y-87732500D01*
X159190033Y-88168291D01*
X159127721Y-88202317D01*
X159056906Y-88197252D01*
X159000070Y-88154705D01*
X158975259Y-88088185D01*
X158975367Y-88068812D01*
X158993499Y-87850000D01*
X158973539Y-87609116D01*
X158965887Y-87578900D01*
X158914204Y-87374806D01*
X158914201Y-87374799D01*
X158902151Y-87347328D01*
X158817109Y-87153451D01*
X158684906Y-86951100D01*
X158684905Y-86951099D01*
X158684904Y-86951097D01*
X158521207Y-86773274D01*
X158519855Y-86772222D01*
X158330458Y-86624808D01*
X158330457Y-86624807D01*
X158117880Y-86509766D01*
X158117878Y-86509765D01*
X157889272Y-86431285D01*
X157889265Y-86431283D01*
X157787230Y-86414256D01*
X157650855Y-86391500D01*
X157409145Y-86391500D01*
X157297585Y-86410116D01*
X157170734Y-86431283D01*
X157170727Y-86431285D01*
X156942121Y-86509765D01*
X156942119Y-86509767D01*
X156871145Y-86548176D01*
X156801715Y-86563006D01*
X156735288Y-86537945D01*
X156692956Y-86480950D01*
X156688157Y-86410116D01*
X156703348Y-86372177D01*
X156759489Y-86279309D01*
X156807425Y-86125478D01*
X156813500Y-86058625D01*
X156813499Y-85641376D01*
X156807425Y-85574522D01*
X156759489Y-85420691D01*
X156735701Y-85381342D01*
X156717578Y-85312698D01*
X156739442Y-85245152D01*
X156743500Y-85240255D01*
X156743500Y-84674000D01*
X157251500Y-84674000D01*
X157251500Y-85237999D01*
X157263588Y-85237999D01*
X157330383Y-85231930D01*
X157484101Y-85184030D01*
X157484102Y-85184030D01*
X157621888Y-85100735D01*
X157621893Y-85100731D01*
X157735731Y-84986893D01*
X157735735Y-84986888D01*
X157819030Y-84849102D01*
X157819030Y-84849101D01*
X157866929Y-84695388D01*
X157868874Y-84674000D01*
X157251500Y-84674000D01*
X156743500Y-84674000D01*
X156743500Y-83602000D01*
X157251500Y-83602000D01*
X157251500Y-84166000D01*
X157868873Y-84166000D01*
X157868873Y-84165999D01*
X157866930Y-84144613D01*
X157866930Y-84144612D01*
X157819030Y-83990898D01*
X157819030Y-83990897D01*
X157735735Y-83853111D01*
X157735731Y-83853106D01*
X157621893Y-83739268D01*
X157621888Y-83739264D01*
X157484102Y-83655969D01*
X157330383Y-83608069D01*
X157263588Y-83602000D01*
X157251500Y-83602000D01*
X156743500Y-83602000D01*
X156743499Y-83601999D01*
X156731412Y-83602000D01*
X156664614Y-83608069D01*
X156510904Y-83655966D01*
X156510898Y-83655968D01*
X156495664Y-83665178D01*
X156427019Y-83683300D01*
X156365299Y-83665177D01*
X156349311Y-83655512D01*
X156349310Y-83655511D01*
X156349309Y-83655511D01*
X156195478Y-83607575D01*
X156195475Y-83607574D01*
X156195473Y-83607574D01*
X156155349Y-83603928D01*
X156128625Y-83601500D01*
X156128621Y-83601500D01*
X155596378Y-83601500D01*
X155529526Y-83607574D01*
X155529523Y-83607574D01*
X155529522Y-83607575D01*
X155375691Y-83655511D01*
X155375689Y-83655511D01*
X155375689Y-83655512D01*
X155237801Y-83738868D01*
X155205170Y-83771500D01*
X155162573Y-83814096D01*
X155100264Y-83848120D01*
X155073480Y-83851000D01*
X153698195Y-83851000D01*
X153630074Y-83830998D01*
X153609100Y-83814095D01*
X153598352Y-83803347D01*
X153598346Y-83803342D01*
X153581843Y-83793163D01*
X153449920Y-83711791D01*
X153284381Y-83656938D01*
X153284379Y-83656937D01*
X153284377Y-83656937D01*
X153182221Y-83646500D01*
X152582787Y-83646500D01*
X152480618Y-83656938D01*
X152371839Y-83692983D01*
X152300884Y-83695423D01*
X152239874Y-83659114D01*
X152208179Y-83595585D01*
X152208629Y-83548794D01*
X152208688Y-83548500D01*
X152212666Y-83528499D01*
X152216499Y-83509232D01*
X152216500Y-83509223D01*
X152216500Y-83245545D01*
X152234671Y-83180361D01*
X152259489Y-83139309D01*
X152307425Y-82985478D01*
X152313500Y-82918625D01*
X152313499Y-82501376D01*
X152307425Y-82434522D01*
X152259489Y-82280691D01*
X152176132Y-82142802D01*
X152176131Y-82142801D01*
X152176127Y-82142796D01*
X152062203Y-82028872D01*
X152062198Y-82028868D01*
X152045047Y-82018500D01*
X160007000Y-82018500D01*
X160986000Y-82018500D01*
X160986000Y-81177000D01*
X160714483Y-81177000D01*
X160610681Y-81187605D01*
X160610678Y-81187606D01*
X160442474Y-81243342D01*
X160291660Y-81336365D01*
X160291654Y-81336370D01*
X160166370Y-81461654D01*
X160166365Y-81461660D01*
X160073342Y-81612474D01*
X160017606Y-81780678D01*
X160017605Y-81780681D01*
X160007000Y-81884483D01*
X160007000Y-82018500D01*
X152045047Y-82018500D01*
X152004999Y-81994290D01*
X151924309Y-81945511D01*
X151770478Y-81897575D01*
X151770475Y-81897574D01*
X151770473Y-81897574D01*
X151730349Y-81893928D01*
X151703625Y-81891500D01*
X151703621Y-81891500D01*
X151171378Y-81891500D01*
X151104526Y-81897574D01*
X151104523Y-81897574D01*
X151104522Y-81897575D01*
X151054274Y-81913233D01*
X150950687Y-81945512D01*
X150935181Y-81954886D01*
X150866536Y-81973007D01*
X150804819Y-81954886D01*
X150789312Y-81945512D01*
X150789309Y-81945511D01*
X150635478Y-81897575D01*
X150635475Y-81897574D01*
X150635473Y-81897574D01*
X150595349Y-81893928D01*
X150568625Y-81891500D01*
X150568621Y-81891500D01*
X150036378Y-81891500D01*
X149969525Y-81897574D01*
X149880565Y-81925295D01*
X149843080Y-81931000D01*
X149613716Y-81931000D01*
X149545595Y-81910998D01*
X149499102Y-81857342D01*
X149488146Y-81794597D01*
X149493499Y-81730000D01*
X149473539Y-81489116D01*
X149472842Y-81486365D01*
X149414204Y-81254806D01*
X149414201Y-81254799D01*
X149317109Y-81033451D01*
X149184906Y-80831100D01*
X149184905Y-80831099D01*
X149184904Y-80831097D01*
X149021207Y-80653274D01*
X148830458Y-80504808D01*
X148830457Y-80504807D01*
X148617880Y-80389766D01*
X148617877Y-80389765D01*
X148551555Y-80366997D01*
X148493620Y-80325960D01*
X148467068Y-80260115D01*
X148480330Y-80190368D01*
X148529194Y-80138863D01*
X148592544Y-80121824D01*
X177394082Y-80139907D01*
X177462187Y-80159952D01*
X177508646Y-80213637D01*
X177520000Y-80265907D01*
X177520000Y-117724000D01*
X177499998Y-117792121D01*
X177446342Y-117838614D01*
X177394000Y-117850000D01*
X161596667Y-117850000D01*
X129865842Y-117810194D01*
X129797746Y-117790106D01*
X129751321Y-117736392D01*
X129740000Y-117684194D01*
X129740000Y-95190000D01*
X129750983Y-86908607D01*
X129757087Y-82306000D01*
X142397000Y-82306000D01*
X143238500Y-82306000D01*
X143238500Y-81327000D01*
X143104483Y-81327000D01*
X143000681Y-81337605D01*
X143000678Y-81337606D01*
X142832474Y-81393342D01*
X142681660Y-81486365D01*
X142681654Y-81486370D01*
X142556370Y-81611654D01*
X142556365Y-81611660D01*
X142463342Y-81762474D01*
X142407606Y-81930678D01*
X142407605Y-81930681D01*
X142397000Y-82034483D01*
X142397000Y-82306000D01*
X129757087Y-82306000D01*
X129759833Y-80235911D01*
X129779925Y-80167818D01*
X129833643Y-80121396D01*
X129885911Y-80110079D01*
X147469666Y-80121119D01*
G37*
G04 #@! TD.AperFunction*
G04 #@! TA.AperFunction,Conductor*
G36*
X150901972Y-102225933D02*
G01*
X150958808Y-102268480D01*
X150981519Y-102319407D01*
X151008437Y-102454731D01*
X151009301Y-102457579D01*
X151009314Y-102459140D01*
X151009644Y-102460796D01*
X151009329Y-102460858D01*
X151009924Y-102528573D01*
X150989589Y-102569647D01*
X150919113Y-102663792D01*
X150919110Y-102663797D01*
X150868011Y-102800795D01*
X150868009Y-102800803D01*
X150861500Y-102861350D01*
X150861500Y-103998649D01*
X150868009Y-104059196D01*
X150868011Y-104059204D01*
X150919110Y-104196202D01*
X150919112Y-104196207D01*
X151006738Y-104313261D01*
X151123792Y-104400887D01*
X151123794Y-104400888D01*
X151123796Y-104400889D01*
X151182875Y-104422924D01*
X151260795Y-104451988D01*
X151260803Y-104451990D01*
X151321350Y-104458499D01*
X151321355Y-104458499D01*
X151321362Y-104458500D01*
X151321368Y-104458500D01*
X154598632Y-104458500D01*
X154598638Y-104458500D01*
X154598645Y-104458499D01*
X154598649Y-104458499D01*
X154659196Y-104451990D01*
X154659199Y-104451989D01*
X154659201Y-104451989D01*
X154669084Y-104448303D01*
X154695366Y-104438500D01*
X154796204Y-104400889D01*
X154822924Y-104380887D01*
X154913261Y-104313261D01*
X155000887Y-104196207D01*
X155000887Y-104196206D01*
X155000889Y-104196204D01*
X155051989Y-104059201D01*
X155054140Y-104039201D01*
X155058499Y-103998649D01*
X155058500Y-103998632D01*
X155058500Y-102861367D01*
X155058499Y-102861350D01*
X155051990Y-102800803D01*
X155051988Y-102800795D01*
X154997740Y-102655353D01*
X155000173Y-102654445D01*
X154987991Y-102598434D01*
X155012805Y-102531915D01*
X155069642Y-102489371D01*
X155092918Y-102483149D01*
X155248880Y-102457124D01*
X155319363Y-102465642D01*
X155374053Y-102510913D01*
X155395585Y-102578566D01*
X155381814Y-102635186D01*
X155382260Y-102635353D01*
X155380862Y-102639098D01*
X155380211Y-102641779D01*
X155379112Y-102643790D01*
X155328011Y-102780795D01*
X155328009Y-102780803D01*
X155321500Y-102841350D01*
X155321500Y-103978649D01*
X155328009Y-104039196D01*
X155328011Y-104039204D01*
X155379110Y-104176202D01*
X155379112Y-104176207D01*
X155466738Y-104293261D01*
X155583792Y-104380887D01*
X155583794Y-104380888D01*
X155583796Y-104380889D01*
X155637412Y-104400887D01*
X155720795Y-104431988D01*
X155720803Y-104431990D01*
X155781350Y-104438499D01*
X155781355Y-104438499D01*
X155781362Y-104438500D01*
X155781368Y-104438500D01*
X159058632Y-104438500D01*
X159058638Y-104438500D01*
X159058645Y-104438499D01*
X159058649Y-104438499D01*
X159119196Y-104431990D01*
X159119199Y-104431989D01*
X159119201Y-104431989D01*
X159119204Y-104431988D01*
X159178156Y-104410000D01*
X159248971Y-104404934D01*
X159311284Y-104438959D01*
X159345309Y-104501271D01*
X159345623Y-104503240D01*
X159346937Y-104509378D01*
X159401791Y-104674920D01*
X159493342Y-104823346D01*
X159493347Y-104823352D01*
X159500900Y-104830905D01*
X159534926Y-104893217D01*
X159529861Y-104964032D01*
X159500900Y-105009095D01*
X159493347Y-105016647D01*
X159493340Y-105016656D01*
X159447578Y-105090847D01*
X159394792Y-105138325D01*
X159324717Y-105149727D01*
X159264829Y-105125567D01*
X159256207Y-105119112D01*
X159256202Y-105119110D01*
X159119204Y-105068011D01*
X159119196Y-105068009D01*
X159058649Y-105061500D01*
X159058638Y-105061500D01*
X155781362Y-105061500D01*
X155781350Y-105061500D01*
X155720803Y-105068009D01*
X155720795Y-105068011D01*
X155583797Y-105119110D01*
X155583792Y-105119112D01*
X155466738Y-105206738D01*
X155379112Y-105323792D01*
X155379110Y-105323797D01*
X155328011Y-105460795D01*
X155328009Y-105460803D01*
X155321500Y-105521350D01*
X155321500Y-106658649D01*
X155328009Y-106719196D01*
X155328011Y-106719204D01*
X155379110Y-106856202D01*
X155379112Y-106856207D01*
X155466738Y-106973261D01*
X155583792Y-107060887D01*
X155583794Y-107060888D01*
X155583796Y-107060889D01*
X155637412Y-107080887D01*
X155720795Y-107111988D01*
X155720803Y-107111990D01*
X155781350Y-107118499D01*
X155781355Y-107118499D01*
X155781362Y-107118500D01*
X156515000Y-107118500D01*
X156583121Y-107138502D01*
X156629614Y-107192158D01*
X156641000Y-107244500D01*
X156641000Y-108995000D01*
X156620998Y-109063121D01*
X156567342Y-109109614D01*
X156515000Y-109121000D01*
X153654863Y-109121000D01*
X153586742Y-109100998D01*
X153540249Y-109047342D01*
X153530145Y-108977068D01*
X153559639Y-108912488D01*
X153564733Y-108907015D01*
X153565084Y-108906587D01*
X153565089Y-108906583D01*
X153603569Y-108848994D01*
X153650341Y-108778995D01*
X153679484Y-108708638D01*
X153709064Y-108637226D01*
X153739000Y-108486725D01*
X153739000Y-108333275D01*
X153739000Y-107264500D01*
X153759002Y-107196379D01*
X153812658Y-107149886D01*
X153865000Y-107138500D01*
X154598632Y-107138500D01*
X154598638Y-107138500D01*
X154598645Y-107138499D01*
X154598649Y-107138499D01*
X154659196Y-107131990D01*
X154659199Y-107131989D01*
X154659201Y-107131989D01*
X154664840Y-107129886D01*
X154695366Y-107118500D01*
X154796204Y-107080889D01*
X154822924Y-107060887D01*
X154913261Y-106993261D01*
X155000887Y-106876207D01*
X155000887Y-106876206D01*
X155000889Y-106876204D01*
X155051989Y-106739201D01*
X155054140Y-106719201D01*
X155058499Y-106678649D01*
X155058500Y-106678632D01*
X155058500Y-105541367D01*
X155058499Y-105541350D01*
X155051990Y-105480803D01*
X155051988Y-105480795D01*
X155000889Y-105343797D01*
X155000887Y-105343792D01*
X154913261Y-105226738D01*
X154796207Y-105139112D01*
X154796202Y-105139110D01*
X154659204Y-105088011D01*
X154659196Y-105088009D01*
X154598649Y-105081500D01*
X154598638Y-105081500D01*
X151321362Y-105081500D01*
X151321350Y-105081500D01*
X151260803Y-105088009D01*
X151260795Y-105088011D01*
X151123797Y-105139110D01*
X151123792Y-105139112D01*
X151006738Y-105226738D01*
X150919112Y-105343792D01*
X150919110Y-105343797D01*
X150868011Y-105480795D01*
X150868009Y-105480803D01*
X150861500Y-105541350D01*
X150861500Y-106678649D01*
X150868009Y-106739196D01*
X150868011Y-106739204D01*
X150919110Y-106876202D01*
X150919112Y-106876207D01*
X151006738Y-106993261D01*
X151123792Y-107080887D01*
X151123794Y-107080888D01*
X151123796Y-107080889D01*
X151182875Y-107102924D01*
X151260795Y-107131988D01*
X151260803Y-107131990D01*
X151321350Y-107138499D01*
X151321355Y-107138499D01*
X151321362Y-107138500D01*
X152055000Y-107138500D01*
X152123121Y-107158502D01*
X152169614Y-107212158D01*
X152181000Y-107264500D01*
X152181000Y-107575000D01*
X152160998Y-107643121D01*
X152107342Y-107689614D01*
X152055000Y-107701000D01*
X150478271Y-107701000D01*
X150327773Y-107730937D01*
X150327770Y-107730938D01*
X150204715Y-107781909D01*
X150156497Y-107791500D01*
X150151350Y-107791500D01*
X150090804Y-107798009D01*
X150090794Y-107798012D01*
X150065814Y-107807329D01*
X149994999Y-107812393D01*
X149977753Y-107807329D01*
X149954095Y-107798505D01*
X149954096Y-107798505D01*
X149893597Y-107792000D01*
X149845000Y-107792000D01*
X149845000Y-107883766D01*
X149824998Y-107951887D01*
X149819868Y-107959275D01*
X149749112Y-108053792D01*
X149749110Y-108053797D01*
X149698011Y-108190795D01*
X149698009Y-108190803D01*
X149691500Y-108251350D01*
X149691500Y-108599777D01*
X149671498Y-108667898D01*
X149617842Y-108714391D01*
X149547568Y-108724495D01*
X149482988Y-108695001D01*
X149464634Y-108675288D01*
X149460134Y-108669277D01*
X149435321Y-108602758D01*
X149435000Y-108593766D01*
X149435000Y-107792000D01*
X149083000Y-107792000D01*
X149083000Y-108313418D01*
X149062998Y-108381539D01*
X149009342Y-108428032D01*
X148939068Y-108438136D01*
X148932428Y-108436998D01*
X148901404Y-108430827D01*
X148824417Y-108415513D01*
X148761508Y-108382604D01*
X148726377Y-108320909D01*
X148723000Y-108291934D01*
X148723000Y-107792000D01*
X148321902Y-107792000D01*
X148261406Y-107798505D01*
X148124535Y-107849555D01*
X148124534Y-107849555D01*
X148007595Y-107937095D01*
X147920055Y-108054034D01*
X147920055Y-108054035D01*
X147869005Y-108190906D01*
X147862500Y-108251402D01*
X147862500Y-108285000D01*
X147842498Y-108353121D01*
X147788842Y-108399614D01*
X147736500Y-108411000D01*
X147503272Y-108411000D01*
X147352773Y-108440936D01*
X147352767Y-108440938D01*
X147252527Y-108482459D01*
X147252526Y-108482458D01*
X147211002Y-108499660D01*
X147121209Y-108559659D01*
X147083417Y-108584910D01*
X147065570Y-108602758D01*
X147023417Y-108644911D01*
X146993040Y-108675288D01*
X146914910Y-108753417D01*
X146829660Y-108881002D01*
X146812458Y-108922526D01*
X146812459Y-108922527D01*
X146770938Y-109022767D01*
X146770936Y-109022772D01*
X146770936Y-109022774D01*
X146754253Y-109106649D01*
X146745443Y-109150938D01*
X146745443Y-109150939D01*
X146741000Y-109173272D01*
X146741000Y-110105138D01*
X146720998Y-110173259D01*
X146704095Y-110194233D01*
X145834233Y-111064095D01*
X145771921Y-111098121D01*
X145745138Y-111101000D01*
X143751827Y-111101000D01*
X143683706Y-111080998D01*
X143637213Y-111027342D01*
X143627109Y-110957068D01*
X143656603Y-110892488D01*
X143697158Y-110861478D01*
X143776397Y-110823318D01*
X143776399Y-110823317D01*
X143935577Y-110714789D01*
X143935578Y-110714787D01*
X143278294Y-110057503D01*
X143298942Y-110048951D01*
X143429970Y-109961401D01*
X143541401Y-109849970D01*
X143628951Y-109718942D01*
X143637503Y-109698294D01*
X144294747Y-110355538D01*
X144294748Y-110355537D01*
X144335172Y-110304849D01*
X144335172Y-110304848D01*
X144463171Y-110083148D01*
X144463173Y-110083144D01*
X144556693Y-109844856D01*
X144556694Y-109844854D01*
X144613658Y-109595281D01*
X144632788Y-109340000D01*
X144613658Y-109084718D01*
X144556694Y-108835145D01*
X144556693Y-108835143D01*
X144463173Y-108596855D01*
X144463171Y-108596851D01*
X144335175Y-108375155D01*
X144294747Y-108324460D01*
X143637503Y-108981704D01*
X143628951Y-108961058D01*
X143541401Y-108830030D01*
X143429970Y-108718599D01*
X143298942Y-108631049D01*
X143278294Y-108622496D01*
X143935578Y-107965211D01*
X143776390Y-107856678D01*
X143776389Y-107856677D01*
X143551800Y-107748522D01*
X143499104Y-107700945D01*
X143480495Y-107632430D01*
X143501882Y-107564732D01*
X143556475Y-107519343D01*
X143606469Y-107509000D01*
X144958971Y-107509000D01*
X145027092Y-107529002D01*
X145064453Y-107566083D01*
X145125097Y-107658904D01*
X145125098Y-107658905D01*
X145288792Y-107836725D01*
X145288797Y-107836729D01*
X145288799Y-107836731D01*
X145479541Y-107985191D01*
X145479542Y-107985192D01*
X145692119Y-108100233D01*
X145692121Y-108100234D01*
X145812150Y-108141439D01*
X145920732Y-108178716D01*
X146159145Y-108218500D01*
X146159149Y-108218500D01*
X146400851Y-108218500D01*
X146400855Y-108218500D01*
X146639268Y-108178716D01*
X146867881Y-108100233D01*
X147080458Y-107985192D01*
X147271201Y-107836731D01*
X147298268Y-107807329D01*
X147434904Y-107658902D01*
X147434903Y-107658902D01*
X147434906Y-107658900D01*
X147567109Y-107456549D01*
X147664203Y-107235197D01*
X147717323Y-107025429D01*
X147723536Y-107000896D01*
X147723538Y-107000887D01*
X147723539Y-107000884D01*
X147743499Y-106760000D01*
X147723539Y-106519116D01*
X147682316Y-106356331D01*
X147684983Y-106285385D01*
X147715363Y-106236307D01*
X150064383Y-103887287D01*
X150109443Y-103858329D01*
X150156204Y-103840889D01*
X150273261Y-103753261D01*
X150307302Y-103707788D01*
X150360887Y-103636207D01*
X150360887Y-103636206D01*
X150360889Y-103636204D01*
X150411989Y-103499201D01*
X150415191Y-103469423D01*
X150418499Y-103438649D01*
X150418500Y-103438632D01*
X150418500Y-103382196D01*
X150420921Y-103357614D01*
X150439000Y-103266725D01*
X150439000Y-103113275D01*
X150432755Y-103081881D01*
X150420921Y-103022383D01*
X150418500Y-102997802D01*
X150418500Y-102941367D01*
X150418499Y-102941350D01*
X150411990Y-102880803D01*
X150411989Y-102880798D01*
X150394546Y-102834034D01*
X150389480Y-102763218D01*
X150394546Y-102745966D01*
X150411989Y-102699201D01*
X150411990Y-102699196D01*
X150416703Y-102655353D01*
X150417771Y-102645412D01*
X150444938Y-102579821D01*
X150453945Y-102569794D01*
X150768845Y-102254893D01*
X150831157Y-102220868D01*
X150901972Y-102225933D01*
G37*
G04 #@! TD.AperFunction*
G04 #@! TA.AperFunction,Conductor*
G36*
X142301652Y-107529002D02*
G01*
X142348145Y-107582658D01*
X142358249Y-107652932D01*
X142328755Y-107717512D01*
X142288200Y-107748522D01*
X142063611Y-107856677D01*
X142063603Y-107856682D01*
X141904421Y-107965210D01*
X141904421Y-107965212D01*
X142561705Y-108622496D01*
X142541058Y-108631049D01*
X142410030Y-108718599D01*
X142298599Y-108830030D01*
X142211049Y-108961058D01*
X142202496Y-108981705D01*
X141545252Y-108324461D01*
X141545250Y-108324461D01*
X141504828Y-108375148D01*
X141504825Y-108375153D01*
X141376828Y-108596851D01*
X141376826Y-108596855D01*
X141283306Y-108835143D01*
X141283305Y-108835145D01*
X141226341Y-109084718D01*
X141207211Y-109340000D01*
X141226341Y-109595281D01*
X141283305Y-109844854D01*
X141283306Y-109844856D01*
X141376826Y-110083144D01*
X141376828Y-110083148D01*
X141489922Y-110279032D01*
X141506660Y-110348027D01*
X141483439Y-110415119D01*
X141427632Y-110459006D01*
X141356957Y-110465755D01*
X141309825Y-110446138D01*
X141236648Y-110396247D01*
X141236640Y-110396242D01*
X141005936Y-110285142D01*
X141005929Y-110285139D01*
X140761253Y-110209667D01*
X140761245Y-110209665D01*
X140761243Y-110209665D01*
X140508034Y-110171500D01*
X140251966Y-110171500D01*
X139998757Y-110209665D01*
X139998755Y-110209665D01*
X139998746Y-110209667D01*
X139754073Y-110285138D01*
X139754060Y-110285143D01*
X139523352Y-110396247D01*
X139523345Y-110396252D01*
X139450174Y-110446139D01*
X139382622Y-110467986D01*
X139313983Y-110449844D01*
X139266048Y-110397473D01*
X139254037Y-110327499D01*
X139270077Y-110279033D01*
X139383171Y-110083148D01*
X139383173Y-110083144D01*
X139476693Y-109844856D01*
X139476694Y-109844854D01*
X139533658Y-109595281D01*
X139552788Y-109340000D01*
X139533658Y-109084718D01*
X139476694Y-108835145D01*
X139476693Y-108835143D01*
X139383173Y-108596855D01*
X139383171Y-108596851D01*
X139255175Y-108375155D01*
X139214747Y-108324461D01*
X138557503Y-108981705D01*
X138548951Y-108961058D01*
X138461401Y-108830030D01*
X138349970Y-108718599D01*
X138218942Y-108631049D01*
X138198294Y-108622496D01*
X138855578Y-107965211D01*
X138696390Y-107856678D01*
X138696389Y-107856677D01*
X138471800Y-107748522D01*
X138419104Y-107700945D01*
X138400495Y-107632430D01*
X138421882Y-107564732D01*
X138476475Y-107519343D01*
X138526469Y-107509000D01*
X142233531Y-107509000D01*
X142301652Y-107529002D01*
G37*
G04 #@! TD.AperFunction*
G04 #@! TA.AperFunction,Conductor*
G36*
X152582121Y-97108502D02*
G01*
X152628614Y-97162158D01*
X152640000Y-97214500D01*
X152640000Y-97530000D01*
X152955500Y-97530000D01*
X153023621Y-97550002D01*
X153070114Y-97603658D01*
X153081500Y-97656000D01*
X153081500Y-97704000D01*
X153061498Y-97772121D01*
X153007842Y-97818614D01*
X152955500Y-97830000D01*
X152582000Y-97830000D01*
X152582000Y-98128597D01*
X152585832Y-98164230D01*
X152573227Y-98234098D01*
X152565318Y-98247704D01*
X152557363Y-98259609D01*
X152541694Y-98278700D01*
X150000954Y-100819442D01*
X149163417Y-101656979D01*
X149128107Y-101692289D01*
X149054910Y-101765485D01*
X148969659Y-101893073D01*
X148954819Y-101928900D01*
X148954818Y-101928901D01*
X148910938Y-102034834D01*
X148910936Y-102034840D01*
X148910936Y-102034842D01*
X148895851Y-102110681D01*
X148888840Y-102145928D01*
X148881000Y-102185340D01*
X148881000Y-102466725D01*
X148899079Y-102557612D01*
X148901500Y-102582193D01*
X148901500Y-102638649D01*
X148908009Y-102699195D01*
X148908010Y-102699198D01*
X148918049Y-102726114D01*
X148923112Y-102796930D01*
X148889087Y-102859239D01*
X146483732Y-105264595D01*
X146421420Y-105298620D01*
X146394637Y-105301500D01*
X146159145Y-105301500D01*
X146039832Y-105321409D01*
X145920734Y-105341283D01*
X145920727Y-105341285D01*
X145692121Y-105419765D01*
X145692119Y-105419766D01*
X145479542Y-105534807D01*
X145479541Y-105534808D01*
X145288792Y-105683274D01*
X145125100Y-105861092D01*
X145125091Y-105861103D01*
X145103653Y-105893917D01*
X145049649Y-105940005D01*
X144998171Y-105951000D01*
X137194862Y-105951000D01*
X137126741Y-105930998D01*
X137080248Y-105877342D01*
X137070144Y-105807068D01*
X137099638Y-105742488D01*
X137105767Y-105735905D01*
X137964147Y-104877525D01*
X138687671Y-104154000D01*
X140757000Y-104154000D01*
X140757000Y-104249684D01*
X140767430Y-104351773D01*
X140767431Y-104351776D01*
X140822248Y-104517207D01*
X140913737Y-104665533D01*
X140913742Y-104665539D01*
X141036960Y-104788757D01*
X141036966Y-104788762D01*
X141185292Y-104880251D01*
X141350723Y-104935068D01*
X141350726Y-104935069D01*
X141452815Y-104945499D01*
X141452815Y-104945500D01*
X141486000Y-104945500D01*
X141486000Y-104154000D01*
X140757000Y-104154000D01*
X138687671Y-104154000D01*
X140541407Y-102300263D01*
X140603717Y-102266240D01*
X140674532Y-102271304D01*
X140731368Y-102313851D01*
X140756179Y-102380371D01*
X140756500Y-102389359D01*
X140756500Y-102524712D01*
X140766937Y-102626880D01*
X140783396Y-102676549D01*
X140821791Y-102792420D01*
X140913342Y-102940846D01*
X140921252Y-102948756D01*
X140955278Y-103011065D01*
X140950216Y-103081881D01*
X140921258Y-103126945D01*
X140913737Y-103134466D01*
X140822248Y-103282792D01*
X140767431Y-103448223D01*
X140767430Y-103448226D01*
X140757000Y-103550315D01*
X140757000Y-103646000D01*
X141868000Y-103646000D01*
X141936121Y-103666002D01*
X141982614Y-103719658D01*
X141994000Y-103772000D01*
X141994000Y-104945500D01*
X142027185Y-104945500D01*
X142027184Y-104945499D01*
X142129273Y-104935069D01*
X142129276Y-104935068D01*
X142294707Y-104880251D01*
X142443033Y-104788762D01*
X142443039Y-104788757D01*
X142566257Y-104665539D01*
X142566259Y-104665536D01*
X142591767Y-104624182D01*
X142644553Y-104576704D01*
X142714627Y-104565300D01*
X142779743Y-104593591D01*
X142819227Y-104652596D01*
X142824356Y-104677519D01*
X142827605Y-104709319D01*
X142827606Y-104709321D01*
X142883342Y-104877525D01*
X142976365Y-105028339D01*
X142976370Y-105028345D01*
X143101654Y-105153629D01*
X143101660Y-105153634D01*
X143252474Y-105246657D01*
X143420678Y-105302393D01*
X143420681Y-105302394D01*
X143524483Y-105312999D01*
X143524483Y-105313000D01*
X143796000Y-105313000D01*
X143796000Y-104471500D01*
X144304000Y-104471500D01*
X144304000Y-105313000D01*
X144575517Y-105313000D01*
X144575516Y-105312999D01*
X144679318Y-105302394D01*
X144679321Y-105302393D01*
X144847525Y-105246657D01*
X144998339Y-105153634D01*
X144998345Y-105153629D01*
X145123629Y-105028345D01*
X145123634Y-105028339D01*
X145216657Y-104877525D01*
X145272393Y-104709321D01*
X145272394Y-104709318D01*
X145282999Y-104605516D01*
X145283000Y-104605516D01*
X145283000Y-104471500D01*
X144304000Y-104471500D01*
X143796000Y-104471500D01*
X143796000Y-104089500D01*
X143816002Y-104021379D01*
X143869658Y-103974886D01*
X143922000Y-103963500D01*
X145283000Y-103963500D01*
X145283000Y-103829483D01*
X145272394Y-103725681D01*
X145272393Y-103725678D01*
X145216657Y-103557474D01*
X145123634Y-103406660D01*
X145123629Y-103406654D01*
X144998344Y-103281369D01*
X144995551Y-103279161D01*
X144994131Y-103277156D01*
X144993150Y-103276175D01*
X144993317Y-103276007D01*
X144954519Y-103221222D01*
X144951325Y-103150298D01*
X144986983Y-103088905D01*
X144995554Y-103081478D01*
X144998639Y-103079037D01*
X144998652Y-103079030D01*
X145124030Y-102953652D01*
X145217115Y-102802738D01*
X145272887Y-102634426D01*
X145283500Y-102530545D01*
X145283499Y-101754456D01*
X145272887Y-101650574D01*
X145217115Y-101482262D01*
X145124030Y-101331348D01*
X145124029Y-101331347D01*
X145124024Y-101331341D01*
X144998658Y-101205975D01*
X144998652Y-101205970D01*
X144958858Y-101181425D01*
X144847738Y-101112885D01*
X144763582Y-101084999D01*
X144679427Y-101057113D01*
X144679420Y-101057112D01*
X144575553Y-101046500D01*
X144575545Y-101046500D01*
X144274361Y-101046500D01*
X144206240Y-101026498D01*
X144159747Y-100972842D01*
X144149643Y-100902568D01*
X144179137Y-100837988D01*
X144185251Y-100831419D01*
X145033193Y-99983477D01*
X145095502Y-99949455D01*
X145143022Y-99948294D01*
X145234145Y-99963500D01*
X145475851Y-99963500D01*
X145475855Y-99963500D01*
X145714268Y-99923716D01*
X145942881Y-99845233D01*
X146155458Y-99730192D01*
X146346201Y-99581731D01*
X146355620Y-99571500D01*
X146478322Y-99438209D01*
X146509906Y-99403900D01*
X146642109Y-99201549D01*
X146663507Y-99152764D01*
X146709184Y-99098419D01*
X146776996Y-99077394D01*
X146845410Y-99096369D01*
X146871594Y-99118042D01*
X146888030Y-99135896D01*
X146888799Y-99136731D01*
X147050706Y-99262748D01*
X147079541Y-99285191D01*
X147079542Y-99285192D01*
X147292119Y-99400233D01*
X147292121Y-99400234D01*
X147378839Y-99430004D01*
X147520732Y-99478716D01*
X147759145Y-99518500D01*
X147759149Y-99518500D01*
X148000851Y-99518500D01*
X148000855Y-99518500D01*
X148239268Y-99478716D01*
X148467881Y-99400233D01*
X148680458Y-99285192D01*
X148871201Y-99136731D01*
X148879959Y-99127218D01*
X148954057Y-99046725D01*
X149034906Y-98958900D01*
X149075947Y-98896082D01*
X149129949Y-98849996D01*
X149181428Y-98839000D01*
X150486062Y-98839000D01*
X150486063Y-98839000D01*
X150636564Y-98809064D01*
X150751392Y-98761500D01*
X150778333Y-98750341D01*
X150905921Y-98665089D01*
X151014427Y-98556583D01*
X151073931Y-98497079D01*
X151073943Y-98497065D01*
X151946253Y-97624756D01*
X152008560Y-97590734D01*
X152038035Y-97588365D01*
X152038035Y-97588000D01*
X152340000Y-97588000D01*
X152340000Y-97214500D01*
X152360002Y-97146379D01*
X152413658Y-97099886D01*
X152466000Y-97088500D01*
X152514000Y-97088500D01*
X152582121Y-97108502D01*
G37*
G04 #@! TD.AperFunction*
G04 #@! TA.AperFunction,Conductor*
G36*
X142456693Y-94769002D02*
G01*
X142494052Y-94806081D01*
X142535094Y-94868900D01*
X142535097Y-94868904D01*
X142535099Y-94868906D01*
X142698792Y-95046725D01*
X142698797Y-95046729D01*
X142698799Y-95046731D01*
X142889542Y-95195192D01*
X142889546Y-95195194D01*
X142893223Y-95197184D01*
X142943616Y-95247194D01*
X142958971Y-95316511D01*
X142934414Y-95383125D01*
X142877740Y-95425887D01*
X142833260Y-95434000D01*
X142680287Y-95434000D01*
X142578119Y-95444437D01*
X142412579Y-95499291D01*
X142264153Y-95590842D01*
X142264147Y-95590847D01*
X142256241Y-95598754D01*
X142193929Y-95632780D01*
X142123114Y-95627715D01*
X142078051Y-95598754D01*
X142070539Y-95591242D01*
X142070533Y-95591237D01*
X141922207Y-95499748D01*
X141756776Y-95444931D01*
X141756773Y-95444930D01*
X141654684Y-95434500D01*
X141559000Y-95434500D01*
X141559000Y-96545500D01*
X141538998Y-96613621D01*
X141485342Y-96660114D01*
X141433000Y-96671500D01*
X140259500Y-96671500D01*
X140259500Y-96704684D01*
X140269930Y-96806773D01*
X140269931Y-96806776D01*
X140324749Y-96972208D01*
X140342131Y-97000390D01*
X140360867Y-97068870D01*
X140339607Y-97136608D01*
X140285099Y-97182099D01*
X140274522Y-97186139D01*
X140199978Y-97210840D01*
X140049160Y-97303865D01*
X140049154Y-97303870D01*
X139923870Y-97429154D01*
X139923865Y-97429160D01*
X139830842Y-97579974D01*
X139775106Y-97748178D01*
X139775105Y-97748181D01*
X139764500Y-97851983D01*
X139764500Y-98123500D01*
X140988000Y-98123500D01*
X141056121Y-98143502D01*
X141102614Y-98197158D01*
X141114000Y-98249500D01*
X141114000Y-98505500D01*
X141093998Y-98573621D01*
X141040342Y-98620114D01*
X140988000Y-98631500D01*
X139764500Y-98631500D01*
X139764500Y-98903016D01*
X139775105Y-99006818D01*
X139775106Y-99006821D01*
X139830842Y-99175025D01*
X139923865Y-99325839D01*
X139923870Y-99325845D01*
X140049154Y-99451129D01*
X140049160Y-99451134D01*
X140199974Y-99544157D01*
X140368178Y-99599893D01*
X140368181Y-99599894D01*
X140471983Y-99610499D01*
X140471983Y-99610500D01*
X140723637Y-99610500D01*
X140791758Y-99630502D01*
X140838251Y-99684158D01*
X140848355Y-99754432D01*
X140818861Y-99819012D01*
X140812732Y-99825595D01*
X136289338Y-104348988D01*
X136227026Y-104383014D01*
X136156211Y-104377949D01*
X136135057Y-104367260D01*
X136135042Y-104367289D01*
X136134040Y-104366747D01*
X136131331Y-104365378D01*
X136130463Y-104364811D01*
X136130459Y-104364808D01*
X136130458Y-104364808D01*
X136032445Y-104311766D01*
X135917880Y-104249766D01*
X135917878Y-104249765D01*
X135689272Y-104171285D01*
X135689265Y-104171283D01*
X135585690Y-104154000D01*
X135450855Y-104131500D01*
X135209145Y-104131500D01*
X135089832Y-104151409D01*
X134970734Y-104171283D01*
X134970727Y-104171285D01*
X134742121Y-104249765D01*
X134742119Y-104249766D01*
X134529542Y-104364807D01*
X134529530Y-104364815D01*
X134526507Y-104367169D01*
X134460464Y-104393223D01*
X134390819Y-104379436D01*
X134339684Y-104330184D01*
X134331064Y-104311766D01*
X134330888Y-104311294D01*
X134330887Y-104311292D01*
X134243262Y-104194240D01*
X134243259Y-104194238D01*
X134146055Y-104121471D01*
X134103509Y-104064635D01*
X134098445Y-103993819D01*
X134114132Y-103954769D01*
X134129177Y-103930219D01*
X134143613Y-103906663D01*
X134196261Y-103859033D01*
X134251044Y-103846500D01*
X135989224Y-103846500D01*
X135989225Y-103846500D01*
X136139726Y-103816564D01*
X136239971Y-103775040D01*
X136281495Y-103757841D01*
X136409083Y-103672589D01*
X136517589Y-103564083D01*
X136577114Y-103504558D01*
X136577116Y-103504554D01*
X138345089Y-101736584D01*
X138398279Y-101656979D01*
X138430341Y-101608995D01*
X138489063Y-101467226D01*
X138496687Y-101428900D01*
X138519000Y-101316726D01*
X138519000Y-101163275D01*
X138519000Y-96163500D01*
X140259500Y-96163500D01*
X141051000Y-96163500D01*
X141051000Y-95434500D01*
X140955315Y-95434500D01*
X140853226Y-95444930D01*
X140853223Y-95444931D01*
X140687792Y-95499748D01*
X140539466Y-95591237D01*
X140539460Y-95591242D01*
X140416242Y-95714460D01*
X140416237Y-95714466D01*
X140324748Y-95862792D01*
X140269931Y-96028223D01*
X140269930Y-96028226D01*
X140259500Y-96130315D01*
X140259500Y-96163500D01*
X138519000Y-96163500D01*
X138519000Y-95444862D01*
X138539002Y-95376741D01*
X138555905Y-95355767D01*
X139125767Y-94785905D01*
X139188079Y-94751879D01*
X139214862Y-94749000D01*
X142388572Y-94749000D01*
X142456693Y-94769002D01*
G37*
G04 #@! TD.AperFunction*
G04 #@! TA.AperFunction,Conductor*
G36*
X166196121Y-92656002D02*
G01*
X166242614Y-92709658D01*
X166254000Y-92762000D01*
X166254000Y-94108073D01*
X166275909Y-94148196D01*
X166270844Y-94219011D01*
X166228297Y-94275847D01*
X166217974Y-94282807D01*
X166189698Y-94299900D01*
X166189688Y-94299908D01*
X166074908Y-94414688D01*
X166074900Y-94414698D01*
X165990918Y-94553624D01*
X165942620Y-94708617D01*
X165936500Y-94775972D01*
X165936500Y-94850000D01*
X165916498Y-94918121D01*
X165862842Y-94964614D01*
X165810500Y-94976000D01*
X164908272Y-94976000D01*
X164821426Y-94993275D01*
X164757774Y-95005936D01*
X164757773Y-95005936D01*
X164757770Y-95005937D01*
X164670709Y-95042000D01*
X164616003Y-95064660D01*
X164526021Y-95124785D01*
X164526019Y-95124786D01*
X164520634Y-95128384D01*
X164452881Y-95149598D01*
X164384414Y-95130814D01*
X164346711Y-95091971D01*
X164346115Y-95092429D01*
X164342188Y-95087311D01*
X164341515Y-95086618D01*
X164341086Y-95085875D01*
X164243630Y-94958869D01*
X164116629Y-94861417D01*
X164116621Y-94861412D01*
X163968718Y-94800149D01*
X163910000Y-94792419D01*
X163910000Y-95673000D01*
X163889998Y-95741121D01*
X163836342Y-95787614D01*
X163784001Y-95799000D01*
X163570116Y-95799000D01*
X163570107Y-95799001D01*
X163494753Y-95808922D01*
X163478307Y-95810000D01*
X163001248Y-95810000D01*
X162940593Y-95843121D01*
X162913810Y-95846000D01*
X160013640Y-95846000D01*
X159945519Y-95825998D01*
X159899026Y-95772342D01*
X159890062Y-95744588D01*
X159890000Y-95744275D01*
X159886595Y-95727159D01*
X159860064Y-95593774D01*
X159801341Y-95452005D01*
X159773274Y-95410000D01*
X163002000Y-95410000D01*
X163510000Y-95410000D01*
X163510000Y-94792419D01*
X163509999Y-94792419D01*
X163451281Y-94800149D01*
X163303378Y-94861412D01*
X163303370Y-94861417D01*
X163176369Y-94958869D01*
X163078917Y-95085870D01*
X163078912Y-95085878D01*
X163017649Y-95233781D01*
X163002000Y-95352650D01*
X163002000Y-95410000D01*
X159773274Y-95410000D01*
X159716089Y-95324417D01*
X159541583Y-95149911D01*
X159466706Y-95099880D01*
X159421180Y-95045405D01*
X159412331Y-94974962D01*
X159442972Y-94910918D01*
X159466703Y-94890354D01*
X159504515Y-94865089D01*
X159613021Y-94756583D01*
X160663699Y-93705905D01*
X160726011Y-93671879D01*
X160752794Y-93669000D01*
X162891424Y-93669000D01*
X162959545Y-93689002D01*
X162998664Y-93728852D01*
X163050968Y-93813650D01*
X163050975Y-93813658D01*
X163176341Y-93939024D01*
X163176347Y-93939029D01*
X163176348Y-93939030D01*
X163327262Y-94032115D01*
X163495574Y-94087887D01*
X163599455Y-94098500D01*
X164400544Y-94098499D01*
X164504426Y-94087887D01*
X164672738Y-94032115D01*
X164823652Y-93939030D01*
X164824053Y-93938629D01*
X164911259Y-93851424D01*
X164973571Y-93817398D01*
X165044386Y-93822463D01*
X165089449Y-93851424D01*
X165176654Y-93938629D01*
X165176660Y-93938634D01*
X165327474Y-94031657D01*
X165495678Y-94087393D01*
X165495681Y-94087394D01*
X165599483Y-94097999D01*
X165599483Y-94098000D01*
X165746000Y-94098000D01*
X165746000Y-92762000D01*
X165766002Y-92693879D01*
X165819658Y-92647386D01*
X165872000Y-92636000D01*
X166128000Y-92636000D01*
X166196121Y-92656002D01*
G37*
G04 #@! TD.AperFunction*
G04 #@! TA.AperFunction,Conductor*
G36*
X144703259Y-88979002D02*
G01*
X144724233Y-88995905D01*
X148704232Y-92975905D01*
X148738258Y-93038217D01*
X148733193Y-93109033D01*
X148690646Y-93165868D01*
X148624126Y-93190679D01*
X148615137Y-93191000D01*
X144991428Y-93191000D01*
X144923307Y-93170998D01*
X144885947Y-93133918D01*
X144844906Y-93071100D01*
X144823479Y-93047824D01*
X144681206Y-92893273D01*
X144681201Y-92893268D01*
X144517609Y-92765939D01*
X144476138Y-92708314D01*
X144469000Y-92666508D01*
X144469000Y-90883273D01*
X144468335Y-90879931D01*
X144462499Y-90850592D01*
X144439064Y-90732774D01*
X144382708Y-90596721D01*
X144381034Y-90592042D01*
X144295089Y-90463417D01*
X144186583Y-90354911D01*
X143846583Y-90014911D01*
X143759955Y-89957028D01*
X143759953Y-89957026D01*
X143718997Y-89929660D01*
X143663465Y-89906658D01*
X143663463Y-89906657D01*
X143577228Y-89870937D01*
X143577229Y-89870937D01*
X143577226Y-89870936D01*
X143501975Y-89855968D01*
X143426727Y-89841000D01*
X143426725Y-89841000D01*
X141663194Y-89841000D01*
X141595073Y-89820998D01*
X141574103Y-89804099D01*
X141500846Y-89730842D01*
X141352420Y-89639291D01*
X141186881Y-89584438D01*
X141186879Y-89584437D01*
X141186877Y-89584437D01*
X141084721Y-89574000D01*
X140510287Y-89574000D01*
X140408119Y-89584437D01*
X140242579Y-89639291D01*
X140094153Y-89730842D01*
X140094152Y-89730843D01*
X140075513Y-89749483D01*
X140025899Y-89799096D01*
X139963590Y-89833120D01*
X139936806Y-89836000D01*
X139915872Y-89836000D01*
X139847751Y-89815998D01*
X139826781Y-89799099D01*
X139706152Y-89678470D01*
X139555238Y-89585385D01*
X139471082Y-89557499D01*
X139386927Y-89529613D01*
X139386920Y-89529612D01*
X139283053Y-89519000D01*
X138231955Y-89519000D01*
X138128074Y-89529612D01*
X137959761Y-89585385D01*
X137808847Y-89678470D01*
X137808841Y-89678475D01*
X137683475Y-89803841D01*
X137683470Y-89803847D01*
X137590385Y-89954762D01*
X137534613Y-90123072D01*
X137534612Y-90123079D01*
X137524000Y-90226946D01*
X137524000Y-91003044D01*
X137534612Y-91106925D01*
X137590385Y-91275238D01*
X137683470Y-91426152D01*
X137683475Y-91426158D01*
X137808845Y-91551528D01*
X137811950Y-91553983D01*
X137813527Y-91556210D01*
X137814037Y-91556720D01*
X137813949Y-91556807D01*
X137852981Y-91611922D01*
X137856173Y-91682847D01*
X137820514Y-91744239D01*
X137811954Y-91751657D01*
X137809154Y-91753870D01*
X137683870Y-91879154D01*
X137683865Y-91879160D01*
X137590842Y-92029974D01*
X137535106Y-92198178D01*
X137535105Y-92198181D01*
X137524500Y-92301983D01*
X137524500Y-92436000D01*
X138885500Y-92436000D01*
X138953621Y-92456002D01*
X139000114Y-92509658D01*
X139011500Y-92562000D01*
X139011500Y-92818000D01*
X138991498Y-92886121D01*
X138937842Y-92932614D01*
X138885500Y-92944000D01*
X137524500Y-92944000D01*
X137524500Y-93078016D01*
X137535105Y-93181818D01*
X137535106Y-93181821D01*
X137590842Y-93350025D01*
X137683865Y-93500839D01*
X137683870Y-93500845D01*
X137809154Y-93626129D01*
X137809163Y-93626136D01*
X137842402Y-93646638D01*
X137889881Y-93699423D01*
X137901284Y-93769498D01*
X137872992Y-93834614D01*
X137865352Y-93842974D01*
X137243417Y-94464911D01*
X137243416Y-94464911D01*
X137134915Y-94573411D01*
X137134910Y-94573417D01*
X137049658Y-94701006D01*
X137049655Y-94701012D01*
X137042178Y-94719063D01*
X136999774Y-94821433D01*
X136955226Y-94876714D01*
X136887862Y-94899134D01*
X136819071Y-94881575D01*
X136770693Y-94829613D01*
X136767989Y-94823852D01*
X136737109Y-94753451D01*
X136604906Y-94551100D01*
X136604905Y-94551099D01*
X136604904Y-94551097D01*
X136441207Y-94373274D01*
X136431148Y-94365445D01*
X136250458Y-94224808D01*
X136250457Y-94224807D01*
X136037880Y-94109766D01*
X136037878Y-94109765D01*
X135809272Y-94031285D01*
X135809265Y-94031283D01*
X135699290Y-94012932D01*
X135570855Y-93991500D01*
X135329145Y-93991500D01*
X135209832Y-94011409D01*
X135090734Y-94031283D01*
X135090727Y-94031285D01*
X134862121Y-94109765D01*
X134862119Y-94109766D01*
X134649542Y-94224807D01*
X134649541Y-94224808D01*
X134458795Y-94373272D01*
X134296070Y-94550039D01*
X134235217Y-94586610D01*
X134164253Y-94584475D01*
X134105707Y-94544314D01*
X134095940Y-94530541D01*
X134094758Y-94528613D01*
X134094754Y-94528607D01*
X134094753Y-94528606D01*
X134094752Y-94528604D01*
X133935433Y-94342067D01*
X133842430Y-94262634D01*
X133803621Y-94203183D01*
X133803115Y-94132188D01*
X133841071Y-94072190D01*
X133842321Y-94071105D01*
X133910433Y-94012933D01*
X134069752Y-93826396D01*
X134197927Y-93617232D01*
X134291805Y-93390592D01*
X134349072Y-93152057D01*
X134368319Y-92907500D01*
X134349072Y-92662943D01*
X134346103Y-92650578D01*
X134327242Y-92572015D01*
X134330788Y-92501107D01*
X134360663Y-92453507D01*
X137818267Y-88995905D01*
X137880579Y-88961879D01*
X137907362Y-88959000D01*
X144635138Y-88959000D01*
X144703259Y-88979002D01*
G37*
G04 #@! TD.AperFunction*
G04 #@! TA.AperFunction,Conductor*
G36*
X142853121Y-91419002D02*
G01*
X142899614Y-91472658D01*
X142911000Y-91525000D01*
X142911000Y-92666508D01*
X142890998Y-92734629D01*
X142862391Y-92765939D01*
X142698798Y-92893268D01*
X142698793Y-92893273D01*
X142535099Y-93071093D01*
X142535095Y-93071098D01*
X142535094Y-93071100D01*
X142494052Y-93133917D01*
X142440051Y-93180004D01*
X142388572Y-93191000D01*
X141799889Y-93191000D01*
X141731768Y-93170998D01*
X141685275Y-93117342D01*
X141675171Y-93047068D01*
X141692648Y-92998853D01*
X141715251Y-92962207D01*
X141770068Y-92796776D01*
X141770069Y-92796773D01*
X141780499Y-92694684D01*
X141780500Y-92694684D01*
X141780500Y-92599000D01*
X140669500Y-92599000D01*
X140601379Y-92578998D01*
X140554886Y-92525342D01*
X140543500Y-92473000D01*
X140543500Y-92217000D01*
X140563502Y-92148879D01*
X140617158Y-92102386D01*
X140669500Y-92091000D01*
X141780500Y-92091000D01*
X141780500Y-91995315D01*
X141770069Y-91893226D01*
X141770068Y-91893223D01*
X141715251Y-91727792D01*
X141630967Y-91591147D01*
X141612230Y-91522668D01*
X141633489Y-91454929D01*
X141687996Y-91409437D01*
X141738208Y-91399000D01*
X142785000Y-91399000D01*
X142853121Y-91419002D01*
G37*
G04 #@! TD.AperFunction*
G04 #@! TA.AperFunction,Conductor*
G36*
X165937413Y-89816502D02*
G01*
X165983906Y-89870158D01*
X165994010Y-89940432D01*
X165976533Y-89988647D01*
X165892248Y-90125292D01*
X165837431Y-90290723D01*
X165837430Y-90290726D01*
X165827000Y-90392815D01*
X165827000Y-90488500D01*
X166938000Y-90488500D01*
X167006121Y-90508502D01*
X167052614Y-90562158D01*
X167064000Y-90614500D01*
X167064000Y-90870500D01*
X167043998Y-90938621D01*
X166990342Y-90985114D01*
X166938000Y-90996500D01*
X165827000Y-90996500D01*
X165827000Y-91092184D01*
X165837430Y-91194273D01*
X165837431Y-91194276D01*
X165892248Y-91359707D01*
X165972524Y-91489853D01*
X165991261Y-91558332D01*
X165970002Y-91626071D01*
X165915495Y-91671563D01*
X165865283Y-91682000D01*
X165599483Y-91682000D01*
X165495681Y-91692605D01*
X165495678Y-91692606D01*
X165327474Y-91748342D01*
X165176660Y-91841365D01*
X165176654Y-91841370D01*
X165089449Y-91928576D01*
X165027137Y-91962602D01*
X164956322Y-91957537D01*
X164911259Y-91928576D01*
X164823658Y-91840975D01*
X164823652Y-91840970D01*
X164672738Y-91747885D01*
X164588582Y-91719999D01*
X164504427Y-91692113D01*
X164504420Y-91692112D01*
X164400553Y-91681500D01*
X163599455Y-91681500D01*
X163495574Y-91692112D01*
X163327261Y-91747885D01*
X163176347Y-91840970D01*
X163176341Y-91840975D01*
X163050975Y-91966341D01*
X163050968Y-91966349D01*
X162998664Y-92051148D01*
X162945878Y-92098625D01*
X162891424Y-92111000D01*
X161514862Y-92111000D01*
X161446741Y-92090998D01*
X161400248Y-92037342D01*
X161390144Y-91967068D01*
X161419638Y-91902488D01*
X161425767Y-91895905D01*
X163488267Y-89833405D01*
X163550579Y-89799379D01*
X163577362Y-89796500D01*
X165869292Y-89796500D01*
X165937413Y-89816502D01*
G37*
G04 #@! TD.AperFunction*
M02*
