G04 #@! TF.GenerationSoftware,KiCad,Pcbnew,8.0.0-rc1-6-gb7460f29b4*
G04 #@! TF.CreationDate,2025-03-10T21:44:44+01:00*
G04 #@! TF.ProjectId,LO_daughter,4c4f5f64-6175-4676-9874-65722e6b6963,rev?*
G04 #@! TF.SameCoordinates,Original*
G04 #@! TF.FileFunction,Legend,Top*
G04 #@! TF.FilePolarity,Positive*
%FSLAX46Y46*%
G04 Gerber Fmt 4.6, Leading zero omitted, Abs format (unit mm)*
G04 Created by KiCad (PCBNEW 8.0.0-rc1-6-gb7460f29b4) date 2025-03-10 21:44:44*
%MOMM*%
%LPD*%
G01*
G04 APERTURE LIST*
G04 Aperture macros list*
%AMRoundRect*
0 Rectangle with rounded corners*
0 $1 Rounding radius*
0 $2 $3 $4 $5 $6 $7 $8 $9 X,Y pos of 4 corners*
0 Add a 4 corners polygon primitive as box body*
4,1,4,$2,$3,$4,$5,$6,$7,$8,$9,$2,$3,0*
0 Add four circle primitives for the rounded corners*
1,1,$1+$1,$2,$3*
1,1,$1+$1,$4,$5*
1,1,$1+$1,$6,$7*
1,1,$1+$1,$8,$9*
0 Add four rect primitives between the rounded corners*
20,1,$1+$1,$2,$3,$4,$5,0*
20,1,$1+$1,$4,$5,$6,$7,0*
20,1,$1+$1,$6,$7,$8,$9,0*
20,1,$1+$1,$8,$9,$2,$3,0*%
G04 Aperture macros list end*
%ADD10C,0.120000*%
%ADD11C,0.100000*%
%ADD12C,0.200000*%
%ADD13C,0.050000*%
%ADD14C,0.250000*%
%ADD15RoundRect,0.237500X-0.237500X0.250000X-0.237500X-0.250000X0.237500X-0.250000X0.237500X0.250000X0*%
%ADD16R,1.065000X0.360000*%
%ADD17R,0.710000X0.360000*%
%ADD18R,0.410000X1.780000*%
%ADD19RoundRect,0.237500X-0.237500X0.300000X-0.237500X-0.300000X0.237500X-0.300000X0.237500X0.300000X0*%
%ADD20R,3.180000X1.040000*%
%ADD21RoundRect,0.250000X0.337500X0.475000X-0.337500X0.475000X-0.337500X-0.475000X0.337500X-0.475000X0*%
%ADD22RoundRect,0.100000X0.100000X-0.217500X0.100000X0.217500X-0.100000X0.217500X-0.100000X-0.217500X0*%
%ADD23RoundRect,0.250000X-0.337500X-0.475000X0.337500X-0.475000X0.337500X0.475000X-0.337500X0.475000X0*%
%ADD24C,2.400000*%
%ADD25RoundRect,0.160000X0.222500X0.160000X-0.222500X0.160000X-0.222500X-0.160000X0.222500X-0.160000X0*%
%ADD26RoundRect,0.250000X-0.475000X0.337500X-0.475000X-0.337500X0.475000X-0.337500X0.475000X0.337500X0*%
%ADD27RoundRect,0.237500X-0.300000X-0.237500X0.300000X-0.237500X0.300000X0.237500X-0.300000X0.237500X0*%
%ADD28RoundRect,0.237500X-0.250000X-0.237500X0.250000X-0.237500X0.250000X0.237500X-0.250000X0.237500X0*%
%ADD29R,0.500000X0.400000*%
%ADD30RoundRect,0.250000X-0.412500X-0.650000X0.412500X-0.650000X0.412500X0.650000X-0.412500X0.650000X0*%
%ADD31RoundRect,0.160000X-0.222500X-0.160000X0.222500X-0.160000X0.222500X0.160000X-0.222500X0.160000X0*%
%ADD32RoundRect,0.160000X0.197500X0.160000X-0.197500X0.160000X-0.197500X-0.160000X0.197500X-0.160000X0*%
%ADD33RoundRect,0.237500X0.300000X0.237500X-0.300000X0.237500X-0.300000X-0.237500X0.300000X-0.237500X0*%
%ADD34R,2.100000X2.100000*%
%ADD35C,2.100000*%
%ADD36RoundRect,0.155000X-0.212500X-0.155000X0.212500X-0.155000X0.212500X0.155000X-0.212500X0.155000X0*%
%ADD37RoundRect,0.155000X0.212500X0.155000X-0.212500X0.155000X-0.212500X-0.155000X0.212500X-0.155000X0*%
%ADD38R,0.800000X0.300000*%
%ADD39R,0.300000X0.800000*%
%ADD40R,3.750000X3.750000*%
%ADD41RoundRect,0.250000X0.475000X-0.337500X0.475000X0.337500X-0.475000X0.337500X-0.475000X-0.337500X0*%
%ADD42RoundRect,0.250000X0.350000X0.450000X-0.350000X0.450000X-0.350000X-0.450000X0.350000X-0.450000X0*%
%ADD43RoundRect,0.237500X0.237500X-0.300000X0.237500X0.300000X-0.237500X0.300000X-0.237500X-0.300000X0*%
G04 APERTURE END LIST*
D10*
X171507500Y-96045276D02*
X171507500Y-96554724D01*
X172552500Y-96045276D02*
X172552500Y-96554724D01*
D11*
X147940000Y-109790000D02*
X147940000Y-109790000D01*
X147940000Y-109890000D02*
X147940000Y-109890000D01*
X150040000Y-110190000D02*
X149940000Y-110190000D01*
X150140000Y-108190000D02*
X149940000Y-108190000D01*
X147940000Y-109790000D02*
G75*
G02*
X147940000Y-109890000I0J-50000D01*
G01*
X147940000Y-109890000D02*
G75*
G02*
X147940000Y-109790000I0J50000D01*
G01*
D10*
X140287500Y-91336233D02*
X140287500Y-91628767D01*
X141307500Y-91336233D02*
X141307500Y-91628767D01*
D12*
X158715000Y-104750000D02*
X156125000Y-104750000D01*
D10*
X142158752Y-97642500D02*
X141636248Y-97642500D01*
X142158752Y-99112500D02*
X141636248Y-99112500D01*
X144268748Y-81825000D02*
X144791252Y-81825000D01*
X144268748Y-83295000D02*
X144791252Y-83295000D01*
D12*
X154255000Y-104770000D02*
X151665000Y-104770000D01*
D10*
X167728748Y-102005000D02*
X168251252Y-102005000D01*
X167728748Y-103475000D02*
X168251252Y-103475000D01*
D11*
X162170000Y-110490000D02*
X162170000Y-113490000D01*
X164170000Y-108490000D02*
X167170000Y-108490000D01*
X164170000Y-115490000D02*
X167170000Y-115490000D01*
X169170000Y-110490000D02*
X169170000Y-113490000D01*
D10*
X152430200Y-101280000D02*
X152229800Y-101280000D01*
X152430200Y-102000000D02*
X152229800Y-102000000D01*
X143315000Y-102918748D02*
X143315000Y-103441252D01*
X144785000Y-102918748D02*
X144785000Y-103441252D01*
X144623733Y-84360000D02*
X144916267Y-84360000D01*
X144623733Y-85380000D02*
X144916267Y-85380000D01*
X151715276Y-84107500D02*
X152224724Y-84107500D01*
X151715276Y-85152500D02*
X152224724Y-85152500D01*
X138022500Y-91391248D02*
X138022500Y-91913752D01*
X139492500Y-91391248D02*
X139492500Y-91913752D01*
X141230000Y-102891233D02*
X141230000Y-103183767D01*
X142250000Y-102891233D02*
X142250000Y-103183767D01*
D13*
X149510000Y-102790000D02*
X149810000Y-102790000D01*
D10*
X169718748Y-92070000D02*
X171141252Y-92070000D01*
X169718748Y-93890000D02*
X171141252Y-93890000D01*
X157299800Y-101310000D02*
X157500200Y-101310000D01*
X157299800Y-102030000D02*
X157500200Y-102030000D01*
X167567621Y-94610000D02*
X167232379Y-94610000D01*
X167567621Y-95370000D02*
X167232379Y-95370000D01*
X142313767Y-95907500D02*
X142021233Y-95907500D01*
X142313767Y-96927500D02*
X142021233Y-96927500D01*
X166300000Y-89733733D02*
X166300000Y-90026267D01*
X167320000Y-89733733D02*
X167320000Y-90026267D01*
X160505000Y-83048748D02*
X160505000Y-83571252D01*
X161975000Y-83048748D02*
X161975000Y-83571252D01*
X159810000Y-104773733D02*
X159810000Y-105066267D01*
X160830000Y-104773733D02*
X160830000Y-105066267D01*
D12*
X173610000Y-83787500D02*
X173610000Y-107032500D01*
X173610000Y-107032500D02*
X176180000Y-107052500D01*
X176180000Y-107052500D02*
X176225000Y-83787500D01*
X176225000Y-83787500D02*
X173685000Y-83787500D01*
D10*
X167623733Y-99900000D02*
X167916267Y-99900000D01*
X167623733Y-100920000D02*
X167916267Y-100920000D01*
X150754165Y-82350000D02*
X150985835Y-82350000D01*
X150754165Y-83070000D02*
X150985835Y-83070000D01*
X156545835Y-84060000D02*
X156314165Y-84060000D01*
X156545835Y-84780000D02*
X156314165Y-84780000D01*
D14*
X152215000Y-92680000D02*
G75*
G02*
X151965000Y-92680000I-125000J0D01*
G01*
X151965000Y-92680000D02*
G75*
G02*
X152215000Y-92680000I125000J0D01*
G01*
D10*
X155254165Y-85490000D02*
X155485835Y-85490000D01*
X155254165Y-86210000D02*
X155485835Y-86210000D01*
X168025000Y-85101252D02*
X168025000Y-84578748D01*
X169495000Y-85101252D02*
X169495000Y-84578748D01*
X163060000Y-83273733D02*
X163060000Y-83566267D01*
X164080000Y-83273733D02*
X164080000Y-83566267D01*
X169065000Y-96278748D02*
X169065000Y-96801252D01*
X170535000Y-96278748D02*
X170535000Y-96801252D01*
D11*
X136880000Y-110380000D02*
X136880000Y-113380000D01*
X138880000Y-108380000D02*
X141880000Y-108380000D01*
X138880000Y-115380000D02*
X141880000Y-115380000D01*
X143880000Y-110380000D02*
X143880000Y-113380000D01*
D10*
X168215000Y-88838748D02*
X168215000Y-89361252D01*
X169685000Y-88838748D02*
X169685000Y-89361252D01*
X165227064Y-92155000D02*
X164772936Y-92155000D01*
X165227064Y-93625000D02*
X164772936Y-93625000D01*
D12*
X131530000Y-83787500D02*
X131530000Y-107032500D01*
X131530000Y-107032500D02*
X134100000Y-107052500D01*
X134100000Y-107052500D02*
X134145000Y-83787500D01*
X134145000Y-83787500D02*
X131605000Y-83787500D01*
D10*
X165822500Y-85196267D02*
X165822500Y-84903733D01*
X166842500Y-85196267D02*
X166842500Y-84903733D01*
X152064165Y-85920000D02*
X152295835Y-85920000D01*
X152064165Y-86640000D02*
X152295835Y-86640000D01*
%LPC*%
D15*
X172030000Y-95387500D03*
X172030000Y-97212500D03*
D16*
X148903000Y-109900000D03*
D17*
X148725000Y-109190000D03*
D16*
X148903000Y-108480000D03*
D17*
X150555000Y-108480000D03*
D16*
X150377000Y-109190000D03*
D17*
X150555000Y-109900000D03*
D18*
X149640000Y-109190000D03*
D19*
X140797500Y-90620000D03*
X140797500Y-92345000D03*
D20*
X157420000Y-103410000D03*
X157420000Y-106090000D03*
D21*
X142935000Y-98377500D03*
X140860000Y-98377500D03*
D22*
X163710000Y-96625000D03*
X163710000Y-95610000D03*
D23*
X143492500Y-82560000D03*
X145567500Y-82560000D03*
D20*
X152960000Y-103430000D03*
X152960000Y-106110000D03*
D23*
X166952500Y-102740000D03*
X169027500Y-102740000D03*
D24*
X165670000Y-111990000D03*
X163130000Y-109450000D03*
X163130000Y-114530000D03*
X168210000Y-114530000D03*
X168210000Y-109450000D03*
D25*
X152902500Y-101640000D03*
X151757500Y-101640000D03*
D26*
X144050000Y-102142500D03*
X144050000Y-104217500D03*
D27*
X143907500Y-84870000D03*
X145632500Y-84870000D03*
D28*
X151057500Y-84630000D03*
X152882500Y-84630000D03*
D26*
X138757500Y-90615000D03*
X138757500Y-92690000D03*
D19*
X141740000Y-102175000D03*
X141740000Y-103900000D03*
D29*
X149660000Y-103190000D03*
X149660000Y-102390000D03*
D30*
X168867500Y-92980000D03*
X171992500Y-92980000D03*
D31*
X156827500Y-101670000D03*
X157972500Y-101670000D03*
D32*
X167997500Y-94990000D03*
X166802500Y-94990000D03*
D33*
X143030000Y-96417500D03*
X141305000Y-96417500D03*
D19*
X166810000Y-89017500D03*
X166810000Y-90742500D03*
D26*
X161240000Y-82272500D03*
X161240000Y-84347500D03*
D19*
X160320000Y-104057500D03*
X160320000Y-105782500D03*
D34*
X174910000Y-105607500D03*
D35*
X174910000Y-103067500D03*
X174910000Y-100527500D03*
X174910000Y-97987500D03*
X174910000Y-95447500D03*
X174885000Y-92907500D03*
X174885000Y-90367500D03*
X174885000Y-87827500D03*
X174885000Y-85282500D03*
D27*
X166907500Y-100410000D03*
X168632500Y-100410000D03*
D36*
X150302500Y-82710000D03*
X151437500Y-82710000D03*
D37*
X156997500Y-84420000D03*
X155862500Y-84420000D03*
D38*
X152490000Y-93430000D03*
X152490000Y-93930000D03*
X152490000Y-94430000D03*
X152490000Y-94930000D03*
X152490000Y-95430000D03*
X152490000Y-95930000D03*
X152490000Y-96430000D03*
X152490000Y-96930000D03*
D39*
X153240000Y-97680000D03*
X153740000Y-97680000D03*
X154240000Y-97680000D03*
X154740000Y-97680000D03*
X155240000Y-97680000D03*
X155740000Y-97680000D03*
X156240000Y-97680000D03*
X156740000Y-97680000D03*
D38*
X157490000Y-96930000D03*
X157490000Y-96430000D03*
X157490000Y-95930000D03*
X157490000Y-95430000D03*
X157490000Y-94930000D03*
X157490000Y-94430000D03*
X157490000Y-93930000D03*
X157490000Y-93430000D03*
D39*
X156740000Y-92680000D03*
X156240000Y-92680000D03*
X155740000Y-92680000D03*
X155240000Y-92680000D03*
X154740000Y-92680000D03*
X154240000Y-92680000D03*
X153740000Y-92680000D03*
X153240000Y-92680000D03*
D40*
X154990000Y-95180000D03*
D36*
X154802500Y-85850000D03*
X155937500Y-85850000D03*
D41*
X168760000Y-85877500D03*
X168760000Y-83802500D03*
D19*
X163570000Y-82557500D03*
X163570000Y-84282500D03*
D26*
X169800000Y-95502500D03*
X169800000Y-97577500D03*
D24*
X140380000Y-111880000D03*
X137840000Y-109340000D03*
X137840000Y-114420000D03*
X142920000Y-114420000D03*
X142920000Y-109340000D03*
D26*
X168950000Y-88062500D03*
X168950000Y-90137500D03*
D42*
X166000000Y-92890000D03*
X164000000Y-92890000D03*
D34*
X132830000Y-105607500D03*
D35*
X132830000Y-103067500D03*
X132830000Y-100527500D03*
X132830000Y-97987500D03*
X132830000Y-95447500D03*
X132805000Y-92907500D03*
X132805000Y-90367500D03*
X132805000Y-87827500D03*
X132805000Y-85282500D03*
D43*
X166332500Y-85912500D03*
X166332500Y-84187500D03*
D36*
X151612500Y-86280000D03*
X152747500Y-86280000D03*
%LPD*%
M02*
