G04 #@! TF.GenerationSoftware,KiCad,Pcbnew,8.0.0-rc1-6-gb7460f29b4*
G04 #@! TF.CreationDate,2025-03-10T21:44:44+01:00*
G04 #@! TF.ProjectId,LO_daughter,4c4f5f64-6175-4676-9874-65722e6b6963,rev?*
G04 #@! TF.SameCoordinates,Original*
G04 #@! TF.FileFunction,Soldermask,Top*
G04 #@! TF.FilePolarity,Negative*
%FSLAX46Y46*%
G04 Gerber Fmt 4.6, Leading zero omitted, Abs format (unit mm)*
G04 Created by KiCad (PCBNEW 8.0.0-rc1-6-gb7460f29b4) date 2025-03-10 21:44:44*
%MOMM*%
%LPD*%
G01*
G04 APERTURE LIST*
G04 Aperture macros list*
%AMRoundRect*
0 Rectangle with rounded corners*
0 $1 Rounding radius*
0 $2 $3 $4 $5 $6 $7 $8 $9 X,Y pos of 4 corners*
0 Add a 4 corners polygon primitive as box body*
4,1,4,$2,$3,$4,$5,$6,$7,$8,$9,$2,$3,0*
0 Add four circle primitives for the rounded corners*
1,1,$1+$1,$2,$3*
1,1,$1+$1,$4,$5*
1,1,$1+$1,$6,$7*
1,1,$1+$1,$8,$9*
0 Add four rect primitives between the rounded corners*
20,1,$1+$1,$2,$3,$4,$5,0*
20,1,$1+$1,$4,$5,$6,$7,0*
20,1,$1+$1,$6,$7,$8,$9,0*
20,1,$1+$1,$8,$9,$2,$3,0*%
G04 Aperture macros list end*
%ADD10RoundRect,0.237500X-0.237500X0.250000X-0.237500X-0.250000X0.237500X-0.250000X0.237500X0.250000X0*%
%ADD11R,1.065000X0.360000*%
%ADD12R,0.710000X0.360000*%
%ADD13R,0.410000X1.780000*%
%ADD14RoundRect,0.237500X-0.237500X0.300000X-0.237500X-0.300000X0.237500X-0.300000X0.237500X0.300000X0*%
%ADD15R,3.180000X1.040000*%
%ADD16RoundRect,0.250000X0.337500X0.475000X-0.337500X0.475000X-0.337500X-0.475000X0.337500X-0.475000X0*%
%ADD17RoundRect,0.100000X0.100000X-0.217500X0.100000X0.217500X-0.100000X0.217500X-0.100000X-0.217500X0*%
%ADD18RoundRect,0.250000X-0.337500X-0.475000X0.337500X-0.475000X0.337500X0.475000X-0.337500X0.475000X0*%
%ADD19C,2.400000*%
%ADD20RoundRect,0.160000X0.222500X0.160000X-0.222500X0.160000X-0.222500X-0.160000X0.222500X-0.160000X0*%
%ADD21RoundRect,0.250000X-0.475000X0.337500X-0.475000X-0.337500X0.475000X-0.337500X0.475000X0.337500X0*%
%ADD22RoundRect,0.237500X-0.300000X-0.237500X0.300000X-0.237500X0.300000X0.237500X-0.300000X0.237500X0*%
%ADD23RoundRect,0.237500X-0.250000X-0.237500X0.250000X-0.237500X0.250000X0.237500X-0.250000X0.237500X0*%
%ADD24R,0.500000X0.400000*%
%ADD25RoundRect,0.250000X-0.412500X-0.650000X0.412500X-0.650000X0.412500X0.650000X-0.412500X0.650000X0*%
%ADD26RoundRect,0.160000X-0.222500X-0.160000X0.222500X-0.160000X0.222500X0.160000X-0.222500X0.160000X0*%
%ADD27RoundRect,0.160000X0.197500X0.160000X-0.197500X0.160000X-0.197500X-0.160000X0.197500X-0.160000X0*%
%ADD28RoundRect,0.237500X0.300000X0.237500X-0.300000X0.237500X-0.300000X-0.237500X0.300000X-0.237500X0*%
%ADD29R,2.100000X2.100000*%
%ADD30C,2.100000*%
%ADD31RoundRect,0.155000X-0.212500X-0.155000X0.212500X-0.155000X0.212500X0.155000X-0.212500X0.155000X0*%
%ADD32RoundRect,0.155000X0.212500X0.155000X-0.212500X0.155000X-0.212500X-0.155000X0.212500X-0.155000X0*%
%ADD33R,0.800000X0.300000*%
%ADD34R,0.300000X0.800000*%
%ADD35R,3.750000X3.750000*%
%ADD36RoundRect,0.250000X0.475000X-0.337500X0.475000X0.337500X-0.475000X0.337500X-0.475000X-0.337500X0*%
%ADD37RoundRect,0.250000X0.350000X0.450000X-0.350000X0.450000X-0.350000X-0.450000X0.350000X-0.450000X0*%
%ADD38RoundRect,0.237500X0.237500X-0.300000X0.237500X0.300000X-0.237500X0.300000X-0.237500X-0.300000X0*%
G04 APERTURE END LIST*
D10*
X172030000Y-95387500D03*
X172030000Y-97212500D03*
D11*
X148903000Y-109900000D03*
D12*
X148725000Y-109190000D03*
D11*
X148903000Y-108480000D03*
D12*
X150555000Y-108480000D03*
D11*
X150377000Y-109190000D03*
D12*
X150555000Y-109900000D03*
D13*
X149640000Y-109190000D03*
D14*
X140797500Y-90620000D03*
X140797500Y-92345000D03*
D15*
X157420000Y-103410000D03*
X157420000Y-106090000D03*
D16*
X142935000Y-98377500D03*
X140860000Y-98377500D03*
D17*
X163710000Y-96625000D03*
X163710000Y-95610000D03*
D18*
X143492500Y-82560000D03*
X145567500Y-82560000D03*
D15*
X152960000Y-103430000D03*
X152960000Y-106110000D03*
D18*
X166952500Y-102740000D03*
X169027500Y-102740000D03*
D19*
X165670000Y-111990000D03*
X163130000Y-109450000D03*
X163130000Y-114530000D03*
X168210000Y-114530000D03*
X168210000Y-109450000D03*
D20*
X152902500Y-101640000D03*
X151757500Y-101640000D03*
D21*
X144050000Y-102142500D03*
X144050000Y-104217500D03*
D22*
X143907500Y-84870000D03*
X145632500Y-84870000D03*
D23*
X151057500Y-84630000D03*
X152882500Y-84630000D03*
D21*
X138757500Y-90615000D03*
X138757500Y-92690000D03*
D14*
X141740000Y-102175000D03*
X141740000Y-103900000D03*
D24*
X149660000Y-103190000D03*
X149660000Y-102390000D03*
D25*
X168867500Y-92980000D03*
X171992500Y-92980000D03*
D26*
X156827500Y-101670000D03*
X157972500Y-101670000D03*
D27*
X167997500Y-94990000D03*
X166802500Y-94990000D03*
D28*
X143030000Y-96417500D03*
X141305000Y-96417500D03*
D14*
X166810000Y-89017500D03*
X166810000Y-90742500D03*
D21*
X161240000Y-82272500D03*
X161240000Y-84347500D03*
D14*
X160320000Y-104057500D03*
X160320000Y-105782500D03*
D29*
X174910000Y-105607500D03*
D30*
X174910000Y-103067500D03*
X174910000Y-100527500D03*
X174910000Y-97987500D03*
X174910000Y-95447500D03*
X174885000Y-92907500D03*
X174885000Y-90367500D03*
X174885000Y-87827500D03*
X174885000Y-85282500D03*
D22*
X166907500Y-100410000D03*
X168632500Y-100410000D03*
D31*
X150302500Y-82710000D03*
X151437500Y-82710000D03*
D32*
X156997500Y-84420000D03*
X155862500Y-84420000D03*
D33*
X152490000Y-93430000D03*
X152490000Y-93930000D03*
X152490000Y-94430000D03*
X152490000Y-94930000D03*
X152490000Y-95430000D03*
X152490000Y-95930000D03*
X152490000Y-96430000D03*
X152490000Y-96930000D03*
D34*
X153240000Y-97680000D03*
X153740000Y-97680000D03*
X154240000Y-97680000D03*
X154740000Y-97680000D03*
X155240000Y-97680000D03*
X155740000Y-97680000D03*
X156240000Y-97680000D03*
X156740000Y-97680000D03*
D33*
X157490000Y-96930000D03*
X157490000Y-96430000D03*
X157490000Y-95930000D03*
X157490000Y-95430000D03*
X157490000Y-94930000D03*
X157490000Y-94430000D03*
X157490000Y-93930000D03*
X157490000Y-93430000D03*
D34*
X156740000Y-92680000D03*
X156240000Y-92680000D03*
X155740000Y-92680000D03*
X155240000Y-92680000D03*
X154740000Y-92680000D03*
X154240000Y-92680000D03*
X153740000Y-92680000D03*
X153240000Y-92680000D03*
D35*
X154990000Y-95180000D03*
D31*
X154802500Y-85850000D03*
X155937500Y-85850000D03*
D36*
X168760000Y-85877500D03*
X168760000Y-83802500D03*
D14*
X163570000Y-82557500D03*
X163570000Y-84282500D03*
D21*
X169800000Y-95502500D03*
X169800000Y-97577500D03*
D19*
X140380000Y-111880000D03*
X137840000Y-109340000D03*
X137840000Y-114420000D03*
X142920000Y-114420000D03*
X142920000Y-109340000D03*
D21*
X168950000Y-88062500D03*
X168950000Y-90137500D03*
D37*
X166000000Y-92890000D03*
X164000000Y-92890000D03*
D29*
X132830000Y-105607500D03*
D30*
X132830000Y-103067500D03*
X132830000Y-100527500D03*
X132830000Y-97987500D03*
X132830000Y-95447500D03*
X132805000Y-92907500D03*
X132805000Y-90367500D03*
X132805000Y-87827500D03*
X132805000Y-85282500D03*
D38*
X166332500Y-85912500D03*
X166332500Y-84187500D03*
D31*
X151612500Y-86280000D03*
X152747500Y-86280000D03*
M02*
