M48
; DRILL file {KiCad 8.0.0-rc1-6-gb7460f29b4} date 2025-03-10T21:45:37+0100
; FORMAT={-:-/ absolute / metric / decimal}
; #@! TF.CreationDate,2025-03-10T21:45:37+01:00
; #@! TF.GenerationSoftware,Kicad,Pcbnew,8.0.0-rc1-6-gb7460f29b4
; #@! TF.FileFunction,Plated,1,2,PTH
FMAT,2
METRIC
; #@! TA.AperFunction,Plated,PTH,ViaDrill
T1C0.750
; #@! TA.AperFunction,Plated,PTH,ViaDrill
T2C0.800
; #@! TA.AperFunction,Plated,PTH,ComponentDrill
T3C1.000
; #@! TA.AperFunction,Plated,PTH,ComponentDrill
T4C1.600
%
G90
G05
T1
X136.86Y-91.69
X136.91Y-93.75
X137.64Y-111.86
X139.13Y-97.73
X140.44Y-114.53
X140.47Y-109.44
X145.01Y-113.27
X145.1Y-110.61
X145.47Y-91.46
X146.26Y-108.84
X146.38Y-103.52
X146.98Y-113.2
X148.26Y-111.83
X148.63Y-107.15
X150.04Y-111.34
X150.35Y-107.17
X151.91Y-111.37
X153.74Y-93.898
X153.85Y-111.41
X154.94Y-94.45
X155.21Y-107.39
X155.78Y-111.39
X156.25Y-93.97
X157.94Y-111.36
X159.83Y-109.47
X161.24Y-108.06
X162.75Y-107.17
X163.08Y-111.98
X164.07Y-104.43
X164.35Y-107.34
X165.65Y-104.46
X165.67Y-114.49
X166.95Y-107.31
X167.0Y-105.5
X168.0Y-112.05
T2
X135.33Y-97.97
X135.33Y-105.59
X135.39Y-100.53
X135.45Y-95.45
X143.69Y-93.97
X145.355Y-98.505
X146.28Y-106.76
X147.88Y-98.06
X148.03Y-81.73
X148.98Y-85.23
X154.94Y-101.03
X157.53Y-87.85
X160.8Y-86.68
X161.86Y-101.98
X163.85Y-100.22
X166.721Y-97.175
T3
X132.805Y-85.282
X132.805Y-87.828
X132.805Y-90.367
X132.805Y-92.907
X132.83Y-95.447
X132.83Y-97.987
X132.83Y-100.527
X132.83Y-103.067
X132.83Y-105.608
X174.885Y-85.282
X174.885Y-87.828
X174.885Y-90.367
X174.885Y-92.907
X174.91Y-95.447
X174.91Y-97.987
X174.91Y-100.527
X174.91Y-103.067
X174.91Y-105.608
T4
X137.84Y-109.34
X137.84Y-114.42
X140.38Y-111.88
X142.92Y-109.34
X142.92Y-114.42
X163.13Y-109.45
X163.13Y-114.53
X165.67Y-111.99
X168.21Y-109.45
X168.21Y-114.53
M30
