%TF.GenerationSoftware,KiCad,Pcbnew,8.0.0-rc1-6-gb7460f29b4*%
%TF.CreationDate,2025-03-10T21:48:14+01:00*%
%TF.ProjectId,LO_daughter,4c4f5f64-6175-4676-9874-65722e6b6963,rev?*%
%TF.SameCoordinates,Original*%
%TF.FileFunction,Drillmap*%
%TF.FilePolarity,Positive*%
%FSLAX45Y45*%
G04 Gerber Fmt 4.5, Leading zero omitted, Abs format (unit mm)*
G04 Created by KiCad (PCBNEW 8.0.0-rc1-6-gb7460f29b4) date 2025-03-10 21:48:14*
%MOMM*%
%LPD*%
G01*
G04 APERTURE LIST*
%ADD10C,0.500000*%
%ADD11C,0.200000*%
%ADD12C,0.100000*%
%ADD13C,0.160000*%
G04 APERTURE END LIST*
D10*
X12974000Y-8007000D02*
X17752000Y-8007000D01*
X17752000Y-11785000D01*
X12974000Y-11785000D01*
X12974000Y-8007000D01*
D11*
D12*
X13648500Y-9131500D02*
X13723500Y-9206500D01*
X13723500Y-9131500D02*
X13648500Y-9206500D01*
X13653500Y-9337500D02*
X13728500Y-9412500D01*
X13728500Y-9337500D02*
X13653500Y-9412500D01*
X13726500Y-11148500D02*
X13801500Y-11223500D01*
X13801500Y-11148500D02*
X13726500Y-11223500D01*
X13875500Y-9735500D02*
X13950500Y-9810500D01*
X13950500Y-9735500D02*
X13875500Y-9810500D01*
X14006500Y-11415500D02*
X14081500Y-11490500D01*
X14081500Y-11415500D02*
X14006500Y-11490500D01*
X14009500Y-10906500D02*
X14084500Y-10981500D01*
X14084500Y-10906500D02*
X14009500Y-10981500D01*
X14463500Y-11289500D02*
X14538500Y-11364500D01*
X14538500Y-11289500D02*
X14463500Y-11364500D01*
X14472500Y-11023500D02*
X14547500Y-11098500D01*
X14547500Y-11023500D02*
X14472500Y-11098500D01*
X14509500Y-9108500D02*
X14584500Y-9183500D01*
X14584500Y-9108500D02*
X14509500Y-9183500D01*
X14588500Y-10846500D02*
X14663500Y-10921500D01*
X14663500Y-10846500D02*
X14588500Y-10921500D01*
X14600500Y-10314500D02*
X14675500Y-10389500D01*
X14675500Y-10314500D02*
X14600500Y-10389500D01*
X14660500Y-11282500D02*
X14735500Y-11357500D01*
X14735500Y-11282500D02*
X14660500Y-11357500D01*
X14788500Y-11145500D02*
X14863500Y-11220500D01*
X14863500Y-11145500D02*
X14788500Y-11220500D01*
X14825500Y-10677500D02*
X14900500Y-10752500D01*
X14900500Y-10677500D02*
X14825500Y-10752500D01*
X14966500Y-11096500D02*
X15041500Y-11171500D01*
X15041500Y-11096500D02*
X14966500Y-11171500D01*
X14997500Y-10679500D02*
X15072500Y-10754500D01*
X15072500Y-10679500D02*
X14997500Y-10754500D01*
X15153500Y-11099500D02*
X15228500Y-11174500D01*
X15228500Y-11099500D02*
X15153500Y-11174500D01*
X15336500Y-9352300D02*
X15411500Y-9427300D01*
X15411500Y-9352300D02*
X15336500Y-9427300D01*
X15347500Y-11103500D02*
X15422500Y-11178500D01*
X15422500Y-11103500D02*
X15347500Y-11178500D01*
X15456500Y-9407500D02*
X15531500Y-9482500D01*
X15531500Y-9407500D02*
X15456500Y-9482500D01*
X15483500Y-10701500D02*
X15558500Y-10776500D01*
X15558500Y-10701500D02*
X15483500Y-10776500D01*
X15540500Y-11101500D02*
X15615500Y-11176500D01*
X15615500Y-11101500D02*
X15540500Y-11176500D01*
X15587500Y-9359500D02*
X15662500Y-9434500D01*
X15662500Y-9359500D02*
X15587500Y-9434500D01*
X15756500Y-11098500D02*
X15831500Y-11173500D01*
X15831500Y-11098500D02*
X15756500Y-11173500D01*
X15945500Y-10909500D02*
X16020500Y-10984500D01*
X16020500Y-10909500D02*
X15945500Y-10984500D01*
X16086500Y-10768500D02*
X16161500Y-10843500D01*
X16161500Y-10768500D02*
X16086500Y-10843500D01*
X16237500Y-10679500D02*
X16312500Y-10754500D01*
X16312500Y-10679500D02*
X16237500Y-10754500D01*
X16270500Y-11160500D02*
X16345500Y-11235500D01*
X16345500Y-11160500D02*
X16270500Y-11235500D01*
X16369500Y-10405500D02*
X16444500Y-10480500D01*
X16444500Y-10405500D02*
X16369500Y-10480500D01*
X16397500Y-10696500D02*
X16472500Y-10771500D01*
X16472500Y-10696500D02*
X16397500Y-10771500D01*
X16527500Y-10408500D02*
X16602500Y-10483500D01*
X16602500Y-10408500D02*
X16527500Y-10483500D01*
X16529500Y-11411500D02*
X16604500Y-11486500D01*
X16604500Y-11411500D02*
X16529500Y-11486500D01*
X16657500Y-10693500D02*
X16732500Y-10768500D01*
X16732500Y-10693500D02*
X16657500Y-10768500D01*
X16662500Y-10512500D02*
X16737500Y-10587500D01*
X16737500Y-10512500D02*
X16662500Y-10587500D01*
X16762500Y-11167500D02*
X16837500Y-11242500D01*
X16837500Y-11167500D02*
X16762500Y-11242500D01*
X13573000Y-9797000D02*
G75*
G02*
X13493000Y-9797000I-40000J0D01*
G01*
X13493000Y-9797000D02*
G75*
G02*
X13573000Y-9797000I40000J0D01*
G01*
X13573000Y-10559000D02*
G75*
G02*
X13493000Y-10559000I-40000J0D01*
G01*
X13493000Y-10559000D02*
G75*
G02*
X13573000Y-10559000I40000J0D01*
G01*
X13579000Y-10053000D02*
G75*
G02*
X13499000Y-10053000I-40000J0D01*
G01*
X13499000Y-10053000D02*
G75*
G02*
X13579000Y-10053000I40000J0D01*
G01*
X13585000Y-9545000D02*
G75*
G02*
X13505000Y-9545000I-40000J0D01*
G01*
X13505000Y-9545000D02*
G75*
G02*
X13585000Y-9545000I40000J0D01*
G01*
X14409000Y-9397000D02*
G75*
G02*
X14329000Y-9397000I-40000J0D01*
G01*
X14329000Y-9397000D02*
G75*
G02*
X14409000Y-9397000I40000J0D01*
G01*
X14575500Y-9850500D02*
G75*
G02*
X14495500Y-9850500I-40000J0D01*
G01*
X14495500Y-9850500D02*
G75*
G02*
X14575500Y-9850500I40000J0D01*
G01*
X14668000Y-10676000D02*
G75*
G02*
X14588000Y-10676000I-40000J0D01*
G01*
X14588000Y-10676000D02*
G75*
G02*
X14668000Y-10676000I40000J0D01*
G01*
X14828000Y-9806000D02*
G75*
G02*
X14748000Y-9806000I-40000J0D01*
G01*
X14748000Y-9806000D02*
G75*
G02*
X14828000Y-9806000I40000J0D01*
G01*
X14843000Y-8173000D02*
G75*
G02*
X14763000Y-8173000I-40000J0D01*
G01*
X14763000Y-8173000D02*
G75*
G02*
X14843000Y-8173000I40000J0D01*
G01*
X14938000Y-8523000D02*
G75*
G02*
X14858000Y-8523000I-40000J0D01*
G01*
X14858000Y-8523000D02*
G75*
G02*
X14938000Y-8523000I40000J0D01*
G01*
X15534000Y-10103000D02*
G75*
G02*
X15454000Y-10103000I-40000J0D01*
G01*
X15454000Y-10103000D02*
G75*
G02*
X15534000Y-10103000I40000J0D01*
G01*
X15793000Y-8785000D02*
G75*
G02*
X15713000Y-8785000I-40000J0D01*
G01*
X15713000Y-8785000D02*
G75*
G02*
X15793000Y-8785000I40000J0D01*
G01*
X16120000Y-8668000D02*
G75*
G02*
X16040000Y-8668000I-40000J0D01*
G01*
X16040000Y-8668000D02*
G75*
G02*
X16120000Y-8668000I40000J0D01*
G01*
X16226000Y-10198000D02*
G75*
G02*
X16146000Y-10198000I-40000J0D01*
G01*
X16146000Y-10198000D02*
G75*
G02*
X16226000Y-10198000I40000J0D01*
G01*
X16425000Y-10022000D02*
G75*
G02*
X16345000Y-10022000I-40000J0D01*
G01*
X16345000Y-10022000D02*
G75*
G02*
X16425000Y-10022000I40000J0D01*
G01*
X16712132Y-9717491D02*
G75*
G02*
X16632132Y-9717491I-40000J0D01*
G01*
X16632132Y-9717491D02*
G75*
G02*
X16712132Y-9717491I40000J0D01*
G01*
X13280500Y-8478250D02*
X13280500Y-8578250D01*
X13230500Y-8528250D02*
X13330500Y-8528250D01*
X13280500Y-8732750D02*
X13280500Y-8832750D01*
X13230500Y-8782750D02*
X13330500Y-8782750D01*
X13280500Y-8986750D02*
X13280500Y-9086750D01*
X13230500Y-9036750D02*
X13330500Y-9036750D01*
X13280500Y-9240750D02*
X13280500Y-9340750D01*
X13230500Y-9290750D02*
X13330500Y-9290750D01*
X13283000Y-9494750D02*
X13283000Y-9594750D01*
X13233000Y-9544750D02*
X13333000Y-9544750D01*
X13283000Y-9748750D02*
X13283000Y-9848750D01*
X13233000Y-9798750D02*
X13333000Y-9798750D01*
X13283000Y-10002750D02*
X13283000Y-10102750D01*
X13233000Y-10052750D02*
X13333000Y-10052750D01*
X13283000Y-10256750D02*
X13283000Y-10356750D01*
X13233000Y-10306750D02*
X13333000Y-10306750D01*
X13283000Y-10510750D02*
X13283000Y-10610750D01*
X13233000Y-10560750D02*
X13333000Y-10560750D01*
X17488500Y-8478250D02*
X17488500Y-8578250D01*
X17438500Y-8528250D02*
X17538500Y-8528250D01*
X17488500Y-8732750D02*
X17488500Y-8832750D01*
X17438500Y-8782750D02*
X17538500Y-8782750D01*
X17488500Y-8986750D02*
X17488500Y-9086750D01*
X17438500Y-9036750D02*
X17538500Y-9036750D01*
X17488500Y-9240750D02*
X17488500Y-9340750D01*
X17438500Y-9290750D02*
X17538500Y-9290750D01*
X17491000Y-9494750D02*
X17491000Y-9594750D01*
X17441000Y-9544750D02*
X17541000Y-9544750D01*
X17491000Y-9748750D02*
X17491000Y-9848750D01*
X17441000Y-9798750D02*
X17541000Y-9798750D01*
X17491000Y-10002750D02*
X17491000Y-10102750D01*
X17441000Y-10052750D02*
X17541000Y-10052750D01*
X17491000Y-10256750D02*
X17491000Y-10356750D01*
X17441000Y-10306750D02*
X17541000Y-10306750D01*
X17491000Y-10510750D02*
X17491000Y-10610750D01*
X17441000Y-10560750D02*
X17541000Y-10560750D01*
D13*
X13840569Y-10990569D02*
X13840569Y-10877431D01*
X13727431Y-10877431D01*
X13727431Y-10990569D01*
X13840569Y-10990569D01*
X13840569Y-11498569D02*
X13840569Y-11385431D01*
X13727431Y-11385431D01*
X13727431Y-11498569D01*
X13840569Y-11498569D01*
X14094569Y-11244569D02*
X14094569Y-11131431D01*
X13981431Y-11131431D01*
X13981431Y-11244569D01*
X14094569Y-11244569D01*
X14348569Y-10990569D02*
X14348569Y-10877431D01*
X14235431Y-10877431D01*
X14235431Y-10990569D01*
X14348569Y-10990569D01*
X14348569Y-11498569D02*
X14348569Y-11385431D01*
X14235431Y-11385431D01*
X14235431Y-11498569D01*
X14348569Y-11498569D01*
X16369569Y-11001569D02*
X16369569Y-10888431D01*
X16256431Y-10888431D01*
X16256431Y-11001569D01*
X16369569Y-11001569D01*
X16369569Y-11509569D02*
X16369569Y-11396431D01*
X16256431Y-11396431D01*
X16256431Y-11509569D01*
X16369569Y-11509569D01*
X16623569Y-11255569D02*
X16623569Y-11142431D01*
X16510431Y-11142431D01*
X16510431Y-11255569D01*
X16623569Y-11255569D01*
X16877569Y-11001569D02*
X16877569Y-10888431D01*
X16764431Y-10888431D01*
X16764431Y-11001569D01*
X16877569Y-11001569D01*
X16877569Y-11509569D02*
X16877569Y-11396431D01*
X16764431Y-11396431D01*
X16764431Y-11509569D01*
X16877569Y-11509569D01*
D11*
X13209777Y-12121484D02*
X13209777Y-11921484D01*
X13209777Y-11921484D02*
X13257396Y-11921484D01*
X13257396Y-11921484D02*
X13285967Y-11931008D01*
X13285967Y-11931008D02*
X13305015Y-11950055D01*
X13305015Y-11950055D02*
X13314539Y-11969103D01*
X13314539Y-11969103D02*
X13324062Y-12007198D01*
X13324062Y-12007198D02*
X13324062Y-12035769D01*
X13324062Y-12035769D02*
X13314539Y-12073865D01*
X13314539Y-12073865D02*
X13305015Y-12092912D01*
X13305015Y-12092912D02*
X13285967Y-12111960D01*
X13285967Y-12111960D02*
X13257396Y-12121484D01*
X13257396Y-12121484D02*
X13209777Y-12121484D01*
X13409777Y-12121484D02*
X13409777Y-11988150D01*
X13409777Y-12026246D02*
X13419301Y-12007198D01*
X13419301Y-12007198D02*
X13428824Y-11997674D01*
X13428824Y-11997674D02*
X13447872Y-11988150D01*
X13447872Y-11988150D02*
X13466920Y-11988150D01*
X13533586Y-12121484D02*
X13533586Y-11988150D01*
X13533586Y-11921484D02*
X13524062Y-11931008D01*
X13524062Y-11931008D02*
X13533586Y-11940531D01*
X13533586Y-11940531D02*
X13543110Y-11931008D01*
X13543110Y-11931008D02*
X13533586Y-11921484D01*
X13533586Y-11921484D02*
X13533586Y-11940531D01*
X13657396Y-12121484D02*
X13638348Y-12111960D01*
X13638348Y-12111960D02*
X13628824Y-12092912D01*
X13628824Y-12092912D02*
X13628824Y-11921484D01*
X13762158Y-12121484D02*
X13743110Y-12111960D01*
X13743110Y-12111960D02*
X13733586Y-12092912D01*
X13733586Y-12092912D02*
X13733586Y-11921484D01*
X13990729Y-12121484D02*
X13990729Y-11921484D01*
X13990729Y-11921484D02*
X14057396Y-12064341D01*
X14057396Y-12064341D02*
X14124062Y-11921484D01*
X14124062Y-11921484D02*
X14124062Y-12121484D01*
X14305015Y-12121484D02*
X14305015Y-12016722D01*
X14305015Y-12016722D02*
X14295491Y-11997674D01*
X14295491Y-11997674D02*
X14276443Y-11988150D01*
X14276443Y-11988150D02*
X14238348Y-11988150D01*
X14238348Y-11988150D02*
X14219301Y-11997674D01*
X14305015Y-12111960D02*
X14285967Y-12121484D01*
X14285967Y-12121484D02*
X14238348Y-12121484D01*
X14238348Y-12121484D02*
X14219301Y-12111960D01*
X14219301Y-12111960D02*
X14209777Y-12092912D01*
X14209777Y-12092912D02*
X14209777Y-12073865D01*
X14209777Y-12073865D02*
X14219301Y-12054817D01*
X14219301Y-12054817D02*
X14238348Y-12045293D01*
X14238348Y-12045293D02*
X14285967Y-12045293D01*
X14285967Y-12045293D02*
X14305015Y-12035769D01*
X14400253Y-11988150D02*
X14400253Y-12188150D01*
X14400253Y-11997674D02*
X14419301Y-11988150D01*
X14419301Y-11988150D02*
X14457396Y-11988150D01*
X14457396Y-11988150D02*
X14476443Y-11997674D01*
X14476443Y-11997674D02*
X14485967Y-12007198D01*
X14485967Y-12007198D02*
X14495491Y-12026246D01*
X14495491Y-12026246D02*
X14495491Y-12083388D01*
X14495491Y-12083388D02*
X14485967Y-12102436D01*
X14485967Y-12102436D02*
X14476443Y-12111960D01*
X14476443Y-12111960D02*
X14457396Y-12121484D01*
X14457396Y-12121484D02*
X14419301Y-12121484D01*
X14419301Y-12121484D02*
X14400253Y-12111960D01*
X14581205Y-12102436D02*
X14590729Y-12111960D01*
X14590729Y-12111960D02*
X14581205Y-12121484D01*
X14581205Y-12121484D02*
X14571682Y-12111960D01*
X14571682Y-12111960D02*
X14581205Y-12102436D01*
X14581205Y-12102436D02*
X14581205Y-12121484D01*
X14581205Y-11997674D02*
X14590729Y-12007198D01*
X14590729Y-12007198D02*
X14581205Y-12016722D01*
X14581205Y-12016722D02*
X14571682Y-12007198D01*
X14571682Y-12007198D02*
X14581205Y-11997674D01*
X14581205Y-11997674D02*
X14581205Y-12016722D01*
D12*
X12874000Y-12412500D02*
X12949000Y-12487500D01*
X12949000Y-12412500D02*
X12874000Y-12487500D01*
D11*
X13247872Y-12341484D02*
X13266920Y-12341484D01*
X13266920Y-12341484D02*
X13285967Y-12351008D01*
X13285967Y-12351008D02*
X13295491Y-12360531D01*
X13295491Y-12360531D02*
X13305015Y-12379579D01*
X13305015Y-12379579D02*
X13314539Y-12417674D01*
X13314539Y-12417674D02*
X13314539Y-12465293D01*
X13314539Y-12465293D02*
X13305015Y-12503388D01*
X13305015Y-12503388D02*
X13295491Y-12522436D01*
X13295491Y-12522436D02*
X13285967Y-12531960D01*
X13285967Y-12531960D02*
X13266920Y-12541484D01*
X13266920Y-12541484D02*
X13247872Y-12541484D01*
X13247872Y-12541484D02*
X13228824Y-12531960D01*
X13228824Y-12531960D02*
X13219301Y-12522436D01*
X13219301Y-12522436D02*
X13209777Y-12503388D01*
X13209777Y-12503388D02*
X13200253Y-12465293D01*
X13200253Y-12465293D02*
X13200253Y-12417674D01*
X13200253Y-12417674D02*
X13209777Y-12379579D01*
X13209777Y-12379579D02*
X13219301Y-12360531D01*
X13219301Y-12360531D02*
X13228824Y-12351008D01*
X13228824Y-12351008D02*
X13247872Y-12341484D01*
X13400253Y-12522436D02*
X13409777Y-12531960D01*
X13409777Y-12531960D02*
X13400253Y-12541484D01*
X13400253Y-12541484D02*
X13390729Y-12531960D01*
X13390729Y-12531960D02*
X13400253Y-12522436D01*
X13400253Y-12522436D02*
X13400253Y-12541484D01*
X13476443Y-12341484D02*
X13609777Y-12341484D01*
X13609777Y-12341484D02*
X13524062Y-12541484D01*
X13781205Y-12341484D02*
X13685967Y-12341484D01*
X13685967Y-12341484D02*
X13676443Y-12436722D01*
X13676443Y-12436722D02*
X13685967Y-12427198D01*
X13685967Y-12427198D02*
X13705015Y-12417674D01*
X13705015Y-12417674D02*
X13752634Y-12417674D01*
X13752634Y-12417674D02*
X13771682Y-12427198D01*
X13771682Y-12427198D02*
X13781205Y-12436722D01*
X13781205Y-12436722D02*
X13790729Y-12455769D01*
X13790729Y-12455769D02*
X13790729Y-12503388D01*
X13790729Y-12503388D02*
X13781205Y-12522436D01*
X13781205Y-12522436D02*
X13771682Y-12531960D01*
X13771682Y-12531960D02*
X13752634Y-12541484D01*
X13752634Y-12541484D02*
X13705015Y-12541484D01*
X13705015Y-12541484D02*
X13685967Y-12531960D01*
X13685967Y-12531960D02*
X13676443Y-12522436D01*
X13914539Y-12341484D02*
X13933586Y-12341484D01*
X13933586Y-12341484D02*
X13952634Y-12351008D01*
X13952634Y-12351008D02*
X13962158Y-12360531D01*
X13962158Y-12360531D02*
X13971682Y-12379579D01*
X13971682Y-12379579D02*
X13981205Y-12417674D01*
X13981205Y-12417674D02*
X13981205Y-12465293D01*
X13981205Y-12465293D02*
X13971682Y-12503388D01*
X13971682Y-12503388D02*
X13962158Y-12522436D01*
X13962158Y-12522436D02*
X13952634Y-12531960D01*
X13952634Y-12531960D02*
X13933586Y-12541484D01*
X13933586Y-12541484D02*
X13914539Y-12541484D01*
X13914539Y-12541484D02*
X13895491Y-12531960D01*
X13895491Y-12531960D02*
X13885967Y-12522436D01*
X13885967Y-12522436D02*
X13876443Y-12503388D01*
X13876443Y-12503388D02*
X13866920Y-12465293D01*
X13866920Y-12465293D02*
X13866920Y-12417674D01*
X13866920Y-12417674D02*
X13876443Y-12379579D01*
X13876443Y-12379579D02*
X13885967Y-12360531D01*
X13885967Y-12360531D02*
X13895491Y-12351008D01*
X13895491Y-12351008D02*
X13914539Y-12341484D01*
X14066920Y-12541484D02*
X14066920Y-12408150D01*
X14066920Y-12427198D02*
X14076443Y-12417674D01*
X14076443Y-12417674D02*
X14095491Y-12408150D01*
X14095491Y-12408150D02*
X14124063Y-12408150D01*
X14124063Y-12408150D02*
X14143110Y-12417674D01*
X14143110Y-12417674D02*
X14152634Y-12436722D01*
X14152634Y-12436722D02*
X14152634Y-12541484D01*
X14152634Y-12436722D02*
X14162158Y-12417674D01*
X14162158Y-12417674D02*
X14181205Y-12408150D01*
X14181205Y-12408150D02*
X14209777Y-12408150D01*
X14209777Y-12408150D02*
X14228824Y-12417674D01*
X14228824Y-12417674D02*
X14238348Y-12436722D01*
X14238348Y-12436722D02*
X14238348Y-12541484D01*
X14333586Y-12541484D02*
X14333586Y-12408150D01*
X14333586Y-12427198D02*
X14343110Y-12417674D01*
X14343110Y-12417674D02*
X14362158Y-12408150D01*
X14362158Y-12408150D02*
X14390729Y-12408150D01*
X14390729Y-12408150D02*
X14409777Y-12417674D01*
X14409777Y-12417674D02*
X14419301Y-12436722D01*
X14419301Y-12436722D02*
X14419301Y-12541484D01*
X14419301Y-12436722D02*
X14428824Y-12417674D01*
X14428824Y-12417674D02*
X14447872Y-12408150D01*
X14447872Y-12408150D02*
X14476443Y-12408150D01*
X14476443Y-12408150D02*
X14495491Y-12417674D01*
X14495491Y-12417674D02*
X14505015Y-12436722D01*
X14505015Y-12436722D02*
X14505015Y-12541484D01*
X14895491Y-12331960D02*
X14724063Y-12589103D01*
X15152634Y-12341484D02*
X15171682Y-12341484D01*
X15171682Y-12341484D02*
X15190729Y-12351008D01*
X15190729Y-12351008D02*
X15200253Y-12360531D01*
X15200253Y-12360531D02*
X15209777Y-12379579D01*
X15209777Y-12379579D02*
X15219301Y-12417674D01*
X15219301Y-12417674D02*
X15219301Y-12465293D01*
X15219301Y-12465293D02*
X15209777Y-12503388D01*
X15209777Y-12503388D02*
X15200253Y-12522436D01*
X15200253Y-12522436D02*
X15190729Y-12531960D01*
X15190729Y-12531960D02*
X15171682Y-12541484D01*
X15171682Y-12541484D02*
X15152634Y-12541484D01*
X15152634Y-12541484D02*
X15133586Y-12531960D01*
X15133586Y-12531960D02*
X15124063Y-12522436D01*
X15124063Y-12522436D02*
X15114539Y-12503388D01*
X15114539Y-12503388D02*
X15105015Y-12465293D01*
X15105015Y-12465293D02*
X15105015Y-12417674D01*
X15105015Y-12417674D02*
X15114539Y-12379579D01*
X15114539Y-12379579D02*
X15124063Y-12360531D01*
X15124063Y-12360531D02*
X15133586Y-12351008D01*
X15133586Y-12351008D02*
X15152634Y-12341484D01*
X15305015Y-12522436D02*
X15314539Y-12531960D01*
X15314539Y-12531960D02*
X15305015Y-12541484D01*
X15305015Y-12541484D02*
X15295491Y-12531960D01*
X15295491Y-12531960D02*
X15305015Y-12522436D01*
X15305015Y-12522436D02*
X15305015Y-12541484D01*
X15438348Y-12341484D02*
X15457396Y-12341484D01*
X15457396Y-12341484D02*
X15476444Y-12351008D01*
X15476444Y-12351008D02*
X15485967Y-12360531D01*
X15485967Y-12360531D02*
X15495491Y-12379579D01*
X15495491Y-12379579D02*
X15505015Y-12417674D01*
X15505015Y-12417674D02*
X15505015Y-12465293D01*
X15505015Y-12465293D02*
X15495491Y-12503388D01*
X15495491Y-12503388D02*
X15485967Y-12522436D01*
X15485967Y-12522436D02*
X15476444Y-12531960D01*
X15476444Y-12531960D02*
X15457396Y-12541484D01*
X15457396Y-12541484D02*
X15438348Y-12541484D01*
X15438348Y-12541484D02*
X15419301Y-12531960D01*
X15419301Y-12531960D02*
X15409777Y-12522436D01*
X15409777Y-12522436D02*
X15400253Y-12503388D01*
X15400253Y-12503388D02*
X15390729Y-12465293D01*
X15390729Y-12465293D02*
X15390729Y-12417674D01*
X15390729Y-12417674D02*
X15400253Y-12379579D01*
X15400253Y-12379579D02*
X15409777Y-12360531D01*
X15409777Y-12360531D02*
X15419301Y-12351008D01*
X15419301Y-12351008D02*
X15438348Y-12341484D01*
X15581206Y-12360531D02*
X15590729Y-12351008D01*
X15590729Y-12351008D02*
X15609777Y-12341484D01*
X15609777Y-12341484D02*
X15657396Y-12341484D01*
X15657396Y-12341484D02*
X15676444Y-12351008D01*
X15676444Y-12351008D02*
X15685967Y-12360531D01*
X15685967Y-12360531D02*
X15695491Y-12379579D01*
X15695491Y-12379579D02*
X15695491Y-12398627D01*
X15695491Y-12398627D02*
X15685967Y-12427198D01*
X15685967Y-12427198D02*
X15571682Y-12541484D01*
X15571682Y-12541484D02*
X15695491Y-12541484D01*
X15790729Y-12541484D02*
X15828825Y-12541484D01*
X15828825Y-12541484D02*
X15847872Y-12531960D01*
X15847872Y-12531960D02*
X15857396Y-12522436D01*
X15857396Y-12522436D02*
X15876444Y-12493865D01*
X15876444Y-12493865D02*
X15885967Y-12455769D01*
X15885967Y-12455769D02*
X15885967Y-12379579D01*
X15885967Y-12379579D02*
X15876444Y-12360531D01*
X15876444Y-12360531D02*
X15866920Y-12351008D01*
X15866920Y-12351008D02*
X15847872Y-12341484D01*
X15847872Y-12341484D02*
X15809777Y-12341484D01*
X15809777Y-12341484D02*
X15790729Y-12351008D01*
X15790729Y-12351008D02*
X15781206Y-12360531D01*
X15781206Y-12360531D02*
X15771682Y-12379579D01*
X15771682Y-12379579D02*
X15771682Y-12427198D01*
X15771682Y-12427198D02*
X15781206Y-12446246D01*
X15781206Y-12446246D02*
X15790729Y-12455769D01*
X15790729Y-12455769D02*
X15809777Y-12465293D01*
X15809777Y-12465293D02*
X15847872Y-12465293D01*
X15847872Y-12465293D02*
X15866920Y-12455769D01*
X15866920Y-12455769D02*
X15876444Y-12446246D01*
X15876444Y-12446246D02*
X15885967Y-12427198D01*
X16066920Y-12341484D02*
X15971682Y-12341484D01*
X15971682Y-12341484D02*
X15962158Y-12436722D01*
X15962158Y-12436722D02*
X15971682Y-12427198D01*
X15971682Y-12427198D02*
X15990729Y-12417674D01*
X15990729Y-12417674D02*
X16038348Y-12417674D01*
X16038348Y-12417674D02*
X16057396Y-12427198D01*
X16057396Y-12427198D02*
X16066920Y-12436722D01*
X16066920Y-12436722D02*
X16076444Y-12455769D01*
X16076444Y-12455769D02*
X16076444Y-12503388D01*
X16076444Y-12503388D02*
X16066920Y-12522436D01*
X16066920Y-12522436D02*
X16057396Y-12531960D01*
X16057396Y-12531960D02*
X16038348Y-12541484D01*
X16038348Y-12541484D02*
X15990729Y-12541484D01*
X15990729Y-12541484D02*
X15971682Y-12531960D01*
X15971682Y-12531960D02*
X15962158Y-12522436D01*
X16152634Y-12341484D02*
X16152634Y-12379579D01*
X16228825Y-12341484D02*
X16228825Y-12379579D01*
X16524063Y-12617674D02*
X16514539Y-12608150D01*
X16514539Y-12608150D02*
X16495491Y-12579579D01*
X16495491Y-12579579D02*
X16485968Y-12560531D01*
X16485968Y-12560531D02*
X16476444Y-12531960D01*
X16476444Y-12531960D02*
X16466920Y-12484341D01*
X16466920Y-12484341D02*
X16466920Y-12446246D01*
X16466920Y-12446246D02*
X16476444Y-12398627D01*
X16476444Y-12398627D02*
X16485968Y-12370055D01*
X16485968Y-12370055D02*
X16495491Y-12351008D01*
X16495491Y-12351008D02*
X16514539Y-12322436D01*
X16514539Y-12322436D02*
X16524063Y-12312912D01*
X16581206Y-12341484D02*
X16705015Y-12341484D01*
X16705015Y-12341484D02*
X16638348Y-12417674D01*
X16638348Y-12417674D02*
X16666920Y-12417674D01*
X16666920Y-12417674D02*
X16685968Y-12427198D01*
X16685968Y-12427198D02*
X16695491Y-12436722D01*
X16695491Y-12436722D02*
X16705015Y-12455769D01*
X16705015Y-12455769D02*
X16705015Y-12503388D01*
X16705015Y-12503388D02*
X16695491Y-12522436D01*
X16695491Y-12522436D02*
X16685968Y-12531960D01*
X16685968Y-12531960D02*
X16666920Y-12541484D01*
X16666920Y-12541484D02*
X16609777Y-12541484D01*
X16609777Y-12541484D02*
X16590729Y-12531960D01*
X16590729Y-12531960D02*
X16581206Y-12522436D01*
X16885968Y-12341484D02*
X16790730Y-12341484D01*
X16790730Y-12341484D02*
X16781206Y-12436722D01*
X16781206Y-12436722D02*
X16790730Y-12427198D01*
X16790730Y-12427198D02*
X16809777Y-12417674D01*
X16809777Y-12417674D02*
X16857396Y-12417674D01*
X16857396Y-12417674D02*
X16876444Y-12427198D01*
X16876444Y-12427198D02*
X16885968Y-12436722D01*
X16885968Y-12436722D02*
X16895491Y-12455769D01*
X16895491Y-12455769D02*
X16895491Y-12503388D01*
X16895491Y-12503388D02*
X16885968Y-12522436D01*
X16885968Y-12522436D02*
X16876444Y-12531960D01*
X16876444Y-12531960D02*
X16857396Y-12541484D01*
X16857396Y-12541484D02*
X16809777Y-12541484D01*
X16809777Y-12541484D02*
X16790730Y-12531960D01*
X16790730Y-12531960D02*
X16781206Y-12522436D01*
X17133587Y-12541484D02*
X17133587Y-12341484D01*
X17219301Y-12541484D02*
X17219301Y-12436722D01*
X17219301Y-12436722D02*
X17209777Y-12417674D01*
X17209777Y-12417674D02*
X17190730Y-12408150D01*
X17190730Y-12408150D02*
X17162158Y-12408150D01*
X17162158Y-12408150D02*
X17143111Y-12417674D01*
X17143111Y-12417674D02*
X17133587Y-12427198D01*
X17343111Y-12541484D02*
X17324063Y-12531960D01*
X17324063Y-12531960D02*
X17314539Y-12522436D01*
X17314539Y-12522436D02*
X17305015Y-12503388D01*
X17305015Y-12503388D02*
X17305015Y-12446246D01*
X17305015Y-12446246D02*
X17314539Y-12427198D01*
X17314539Y-12427198D02*
X17324063Y-12417674D01*
X17324063Y-12417674D02*
X17343111Y-12408150D01*
X17343111Y-12408150D02*
X17371682Y-12408150D01*
X17371682Y-12408150D02*
X17390730Y-12417674D01*
X17390730Y-12417674D02*
X17400253Y-12427198D01*
X17400253Y-12427198D02*
X17409777Y-12446246D01*
X17409777Y-12446246D02*
X17409777Y-12503388D01*
X17409777Y-12503388D02*
X17400253Y-12522436D01*
X17400253Y-12522436D02*
X17390730Y-12531960D01*
X17390730Y-12531960D02*
X17371682Y-12541484D01*
X17371682Y-12541484D02*
X17343111Y-12541484D01*
X17524063Y-12541484D02*
X17505015Y-12531960D01*
X17505015Y-12531960D02*
X17495492Y-12512912D01*
X17495492Y-12512912D02*
X17495492Y-12341484D01*
X17676444Y-12531960D02*
X17657396Y-12541484D01*
X17657396Y-12541484D02*
X17619301Y-12541484D01*
X17619301Y-12541484D02*
X17600253Y-12531960D01*
X17600253Y-12531960D02*
X17590730Y-12512912D01*
X17590730Y-12512912D02*
X17590730Y-12436722D01*
X17590730Y-12436722D02*
X17600253Y-12417674D01*
X17600253Y-12417674D02*
X17619301Y-12408150D01*
X17619301Y-12408150D02*
X17657396Y-12408150D01*
X17657396Y-12408150D02*
X17676444Y-12417674D01*
X17676444Y-12417674D02*
X17685968Y-12436722D01*
X17685968Y-12436722D02*
X17685968Y-12455769D01*
X17685968Y-12455769D02*
X17590730Y-12474817D01*
X17762158Y-12531960D02*
X17781206Y-12541484D01*
X17781206Y-12541484D02*
X17819301Y-12541484D01*
X17819301Y-12541484D02*
X17838349Y-12531960D01*
X17838349Y-12531960D02*
X17847873Y-12512912D01*
X17847873Y-12512912D02*
X17847873Y-12503388D01*
X17847873Y-12503388D02*
X17838349Y-12484341D01*
X17838349Y-12484341D02*
X17819301Y-12474817D01*
X17819301Y-12474817D02*
X17790730Y-12474817D01*
X17790730Y-12474817D02*
X17771682Y-12465293D01*
X17771682Y-12465293D02*
X17762158Y-12446246D01*
X17762158Y-12446246D02*
X17762158Y-12436722D01*
X17762158Y-12436722D02*
X17771682Y-12417674D01*
X17771682Y-12417674D02*
X17790730Y-12408150D01*
X17790730Y-12408150D02*
X17819301Y-12408150D01*
X17819301Y-12408150D02*
X17838349Y-12417674D01*
X17914539Y-12617674D02*
X17924063Y-12608150D01*
X17924063Y-12608150D02*
X17943111Y-12579579D01*
X17943111Y-12579579D02*
X17952634Y-12560531D01*
X17952634Y-12560531D02*
X17962158Y-12531960D01*
X17962158Y-12531960D02*
X17971682Y-12484341D01*
X17971682Y-12484341D02*
X17971682Y-12446246D01*
X17971682Y-12446246D02*
X17962158Y-12398627D01*
X17962158Y-12398627D02*
X17952634Y-12370055D01*
X17952634Y-12370055D02*
X17943111Y-12351008D01*
X17943111Y-12351008D02*
X17924063Y-12322436D01*
X17924063Y-12322436D02*
X17914539Y-12312912D01*
D12*
X12949000Y-12714000D02*
G75*
G02*
X12869000Y-12714000I-40000J0D01*
G01*
X12869000Y-12714000D02*
G75*
G02*
X12949000Y-12714000I40000J0D01*
G01*
D11*
X13247872Y-12605484D02*
X13266920Y-12605484D01*
X13266920Y-12605484D02*
X13285967Y-12615008D01*
X13285967Y-12615008D02*
X13295491Y-12624531D01*
X13295491Y-12624531D02*
X13305015Y-12643579D01*
X13305015Y-12643579D02*
X13314539Y-12681674D01*
X13314539Y-12681674D02*
X13314539Y-12729293D01*
X13314539Y-12729293D02*
X13305015Y-12767388D01*
X13305015Y-12767388D02*
X13295491Y-12786436D01*
X13295491Y-12786436D02*
X13285967Y-12795960D01*
X13285967Y-12795960D02*
X13266920Y-12805484D01*
X13266920Y-12805484D02*
X13247872Y-12805484D01*
X13247872Y-12805484D02*
X13228824Y-12795960D01*
X13228824Y-12795960D02*
X13219301Y-12786436D01*
X13219301Y-12786436D02*
X13209777Y-12767388D01*
X13209777Y-12767388D02*
X13200253Y-12729293D01*
X13200253Y-12729293D02*
X13200253Y-12681674D01*
X13200253Y-12681674D02*
X13209777Y-12643579D01*
X13209777Y-12643579D02*
X13219301Y-12624531D01*
X13219301Y-12624531D02*
X13228824Y-12615008D01*
X13228824Y-12615008D02*
X13247872Y-12605484D01*
X13400253Y-12786436D02*
X13409777Y-12795960D01*
X13409777Y-12795960D02*
X13400253Y-12805484D01*
X13400253Y-12805484D02*
X13390729Y-12795960D01*
X13390729Y-12795960D02*
X13400253Y-12786436D01*
X13400253Y-12786436D02*
X13400253Y-12805484D01*
X13524062Y-12691198D02*
X13505015Y-12681674D01*
X13505015Y-12681674D02*
X13495491Y-12672150D01*
X13495491Y-12672150D02*
X13485967Y-12653103D01*
X13485967Y-12653103D02*
X13485967Y-12643579D01*
X13485967Y-12643579D02*
X13495491Y-12624531D01*
X13495491Y-12624531D02*
X13505015Y-12615008D01*
X13505015Y-12615008D02*
X13524062Y-12605484D01*
X13524062Y-12605484D02*
X13562158Y-12605484D01*
X13562158Y-12605484D02*
X13581205Y-12615008D01*
X13581205Y-12615008D02*
X13590729Y-12624531D01*
X13590729Y-12624531D02*
X13600253Y-12643579D01*
X13600253Y-12643579D02*
X13600253Y-12653103D01*
X13600253Y-12653103D02*
X13590729Y-12672150D01*
X13590729Y-12672150D02*
X13581205Y-12681674D01*
X13581205Y-12681674D02*
X13562158Y-12691198D01*
X13562158Y-12691198D02*
X13524062Y-12691198D01*
X13524062Y-12691198D02*
X13505015Y-12700722D01*
X13505015Y-12700722D02*
X13495491Y-12710246D01*
X13495491Y-12710246D02*
X13485967Y-12729293D01*
X13485967Y-12729293D02*
X13485967Y-12767388D01*
X13485967Y-12767388D02*
X13495491Y-12786436D01*
X13495491Y-12786436D02*
X13505015Y-12795960D01*
X13505015Y-12795960D02*
X13524062Y-12805484D01*
X13524062Y-12805484D02*
X13562158Y-12805484D01*
X13562158Y-12805484D02*
X13581205Y-12795960D01*
X13581205Y-12795960D02*
X13590729Y-12786436D01*
X13590729Y-12786436D02*
X13600253Y-12767388D01*
X13600253Y-12767388D02*
X13600253Y-12729293D01*
X13600253Y-12729293D02*
X13590729Y-12710246D01*
X13590729Y-12710246D02*
X13581205Y-12700722D01*
X13581205Y-12700722D02*
X13562158Y-12691198D01*
X13724062Y-12605484D02*
X13743110Y-12605484D01*
X13743110Y-12605484D02*
X13762158Y-12615008D01*
X13762158Y-12615008D02*
X13771682Y-12624531D01*
X13771682Y-12624531D02*
X13781205Y-12643579D01*
X13781205Y-12643579D02*
X13790729Y-12681674D01*
X13790729Y-12681674D02*
X13790729Y-12729293D01*
X13790729Y-12729293D02*
X13781205Y-12767388D01*
X13781205Y-12767388D02*
X13771682Y-12786436D01*
X13771682Y-12786436D02*
X13762158Y-12795960D01*
X13762158Y-12795960D02*
X13743110Y-12805484D01*
X13743110Y-12805484D02*
X13724062Y-12805484D01*
X13724062Y-12805484D02*
X13705015Y-12795960D01*
X13705015Y-12795960D02*
X13695491Y-12786436D01*
X13695491Y-12786436D02*
X13685967Y-12767388D01*
X13685967Y-12767388D02*
X13676443Y-12729293D01*
X13676443Y-12729293D02*
X13676443Y-12681674D01*
X13676443Y-12681674D02*
X13685967Y-12643579D01*
X13685967Y-12643579D02*
X13695491Y-12624531D01*
X13695491Y-12624531D02*
X13705015Y-12615008D01*
X13705015Y-12615008D02*
X13724062Y-12605484D01*
X13914539Y-12605484D02*
X13933586Y-12605484D01*
X13933586Y-12605484D02*
X13952634Y-12615008D01*
X13952634Y-12615008D02*
X13962158Y-12624531D01*
X13962158Y-12624531D02*
X13971682Y-12643579D01*
X13971682Y-12643579D02*
X13981205Y-12681674D01*
X13981205Y-12681674D02*
X13981205Y-12729293D01*
X13981205Y-12729293D02*
X13971682Y-12767388D01*
X13971682Y-12767388D02*
X13962158Y-12786436D01*
X13962158Y-12786436D02*
X13952634Y-12795960D01*
X13952634Y-12795960D02*
X13933586Y-12805484D01*
X13933586Y-12805484D02*
X13914539Y-12805484D01*
X13914539Y-12805484D02*
X13895491Y-12795960D01*
X13895491Y-12795960D02*
X13885967Y-12786436D01*
X13885967Y-12786436D02*
X13876443Y-12767388D01*
X13876443Y-12767388D02*
X13866920Y-12729293D01*
X13866920Y-12729293D02*
X13866920Y-12681674D01*
X13866920Y-12681674D02*
X13876443Y-12643579D01*
X13876443Y-12643579D02*
X13885967Y-12624531D01*
X13885967Y-12624531D02*
X13895491Y-12615008D01*
X13895491Y-12615008D02*
X13914539Y-12605484D01*
X14066920Y-12805484D02*
X14066920Y-12672150D01*
X14066920Y-12691198D02*
X14076443Y-12681674D01*
X14076443Y-12681674D02*
X14095491Y-12672150D01*
X14095491Y-12672150D02*
X14124063Y-12672150D01*
X14124063Y-12672150D02*
X14143110Y-12681674D01*
X14143110Y-12681674D02*
X14152634Y-12700722D01*
X14152634Y-12700722D02*
X14152634Y-12805484D01*
X14152634Y-12700722D02*
X14162158Y-12681674D01*
X14162158Y-12681674D02*
X14181205Y-12672150D01*
X14181205Y-12672150D02*
X14209777Y-12672150D01*
X14209777Y-12672150D02*
X14228824Y-12681674D01*
X14228824Y-12681674D02*
X14238348Y-12700722D01*
X14238348Y-12700722D02*
X14238348Y-12805484D01*
X14333586Y-12805484D02*
X14333586Y-12672150D01*
X14333586Y-12691198D02*
X14343110Y-12681674D01*
X14343110Y-12681674D02*
X14362158Y-12672150D01*
X14362158Y-12672150D02*
X14390729Y-12672150D01*
X14390729Y-12672150D02*
X14409777Y-12681674D01*
X14409777Y-12681674D02*
X14419301Y-12700722D01*
X14419301Y-12700722D02*
X14419301Y-12805484D01*
X14419301Y-12700722D02*
X14428824Y-12681674D01*
X14428824Y-12681674D02*
X14447872Y-12672150D01*
X14447872Y-12672150D02*
X14476443Y-12672150D01*
X14476443Y-12672150D02*
X14495491Y-12681674D01*
X14495491Y-12681674D02*
X14505015Y-12700722D01*
X14505015Y-12700722D02*
X14505015Y-12805484D01*
X14895491Y-12595960D02*
X14724063Y-12853103D01*
X15152634Y-12605484D02*
X15171682Y-12605484D01*
X15171682Y-12605484D02*
X15190729Y-12615008D01*
X15190729Y-12615008D02*
X15200253Y-12624531D01*
X15200253Y-12624531D02*
X15209777Y-12643579D01*
X15209777Y-12643579D02*
X15219301Y-12681674D01*
X15219301Y-12681674D02*
X15219301Y-12729293D01*
X15219301Y-12729293D02*
X15209777Y-12767388D01*
X15209777Y-12767388D02*
X15200253Y-12786436D01*
X15200253Y-12786436D02*
X15190729Y-12795960D01*
X15190729Y-12795960D02*
X15171682Y-12805484D01*
X15171682Y-12805484D02*
X15152634Y-12805484D01*
X15152634Y-12805484D02*
X15133586Y-12795960D01*
X15133586Y-12795960D02*
X15124063Y-12786436D01*
X15124063Y-12786436D02*
X15114539Y-12767388D01*
X15114539Y-12767388D02*
X15105015Y-12729293D01*
X15105015Y-12729293D02*
X15105015Y-12681674D01*
X15105015Y-12681674D02*
X15114539Y-12643579D01*
X15114539Y-12643579D02*
X15124063Y-12624531D01*
X15124063Y-12624531D02*
X15133586Y-12615008D01*
X15133586Y-12615008D02*
X15152634Y-12605484D01*
X15305015Y-12786436D02*
X15314539Y-12795960D01*
X15314539Y-12795960D02*
X15305015Y-12805484D01*
X15305015Y-12805484D02*
X15295491Y-12795960D01*
X15295491Y-12795960D02*
X15305015Y-12786436D01*
X15305015Y-12786436D02*
X15305015Y-12805484D01*
X15438348Y-12605484D02*
X15457396Y-12605484D01*
X15457396Y-12605484D02*
X15476444Y-12615008D01*
X15476444Y-12615008D02*
X15485967Y-12624531D01*
X15485967Y-12624531D02*
X15495491Y-12643579D01*
X15495491Y-12643579D02*
X15505015Y-12681674D01*
X15505015Y-12681674D02*
X15505015Y-12729293D01*
X15505015Y-12729293D02*
X15495491Y-12767388D01*
X15495491Y-12767388D02*
X15485967Y-12786436D01*
X15485967Y-12786436D02*
X15476444Y-12795960D01*
X15476444Y-12795960D02*
X15457396Y-12805484D01*
X15457396Y-12805484D02*
X15438348Y-12805484D01*
X15438348Y-12805484D02*
X15419301Y-12795960D01*
X15419301Y-12795960D02*
X15409777Y-12786436D01*
X15409777Y-12786436D02*
X15400253Y-12767388D01*
X15400253Y-12767388D02*
X15390729Y-12729293D01*
X15390729Y-12729293D02*
X15390729Y-12681674D01*
X15390729Y-12681674D02*
X15400253Y-12643579D01*
X15400253Y-12643579D02*
X15409777Y-12624531D01*
X15409777Y-12624531D02*
X15419301Y-12615008D01*
X15419301Y-12615008D02*
X15438348Y-12605484D01*
X15571682Y-12605484D02*
X15695491Y-12605484D01*
X15695491Y-12605484D02*
X15628825Y-12681674D01*
X15628825Y-12681674D02*
X15657396Y-12681674D01*
X15657396Y-12681674D02*
X15676444Y-12691198D01*
X15676444Y-12691198D02*
X15685967Y-12700722D01*
X15685967Y-12700722D02*
X15695491Y-12719769D01*
X15695491Y-12719769D02*
X15695491Y-12767388D01*
X15695491Y-12767388D02*
X15685967Y-12786436D01*
X15685967Y-12786436D02*
X15676444Y-12795960D01*
X15676444Y-12795960D02*
X15657396Y-12805484D01*
X15657396Y-12805484D02*
X15600253Y-12805484D01*
X15600253Y-12805484D02*
X15581206Y-12795960D01*
X15581206Y-12795960D02*
X15571682Y-12786436D01*
X15885967Y-12805484D02*
X15771682Y-12805484D01*
X15828825Y-12805484D02*
X15828825Y-12605484D01*
X15828825Y-12605484D02*
X15809777Y-12634055D01*
X15809777Y-12634055D02*
X15790729Y-12653103D01*
X15790729Y-12653103D02*
X15771682Y-12662627D01*
X16066920Y-12605484D02*
X15971682Y-12605484D01*
X15971682Y-12605484D02*
X15962158Y-12700722D01*
X15962158Y-12700722D02*
X15971682Y-12691198D01*
X15971682Y-12691198D02*
X15990729Y-12681674D01*
X15990729Y-12681674D02*
X16038348Y-12681674D01*
X16038348Y-12681674D02*
X16057396Y-12691198D01*
X16057396Y-12691198D02*
X16066920Y-12700722D01*
X16066920Y-12700722D02*
X16076444Y-12719769D01*
X16076444Y-12719769D02*
X16076444Y-12767388D01*
X16076444Y-12767388D02*
X16066920Y-12786436D01*
X16066920Y-12786436D02*
X16057396Y-12795960D01*
X16057396Y-12795960D02*
X16038348Y-12805484D01*
X16038348Y-12805484D02*
X15990729Y-12805484D01*
X15990729Y-12805484D02*
X15971682Y-12795960D01*
X15971682Y-12795960D02*
X15962158Y-12786436D01*
X16152634Y-12605484D02*
X16152634Y-12643579D01*
X16228825Y-12605484D02*
X16228825Y-12643579D01*
X16524063Y-12881674D02*
X16514539Y-12872150D01*
X16514539Y-12872150D02*
X16495491Y-12843579D01*
X16495491Y-12843579D02*
X16485968Y-12824531D01*
X16485968Y-12824531D02*
X16476444Y-12795960D01*
X16476444Y-12795960D02*
X16466920Y-12748341D01*
X16466920Y-12748341D02*
X16466920Y-12710246D01*
X16466920Y-12710246D02*
X16476444Y-12662627D01*
X16476444Y-12662627D02*
X16485968Y-12634055D01*
X16485968Y-12634055D02*
X16495491Y-12615008D01*
X16495491Y-12615008D02*
X16514539Y-12586436D01*
X16514539Y-12586436D02*
X16524063Y-12576912D01*
X16705015Y-12805484D02*
X16590729Y-12805484D01*
X16647872Y-12805484D02*
X16647872Y-12605484D01*
X16647872Y-12605484D02*
X16628825Y-12634055D01*
X16628825Y-12634055D02*
X16609777Y-12653103D01*
X16609777Y-12653103D02*
X16590729Y-12662627D01*
X16876444Y-12605484D02*
X16838349Y-12605484D01*
X16838349Y-12605484D02*
X16819301Y-12615008D01*
X16819301Y-12615008D02*
X16809777Y-12624531D01*
X16809777Y-12624531D02*
X16790730Y-12653103D01*
X16790730Y-12653103D02*
X16781206Y-12691198D01*
X16781206Y-12691198D02*
X16781206Y-12767388D01*
X16781206Y-12767388D02*
X16790730Y-12786436D01*
X16790730Y-12786436D02*
X16800253Y-12795960D01*
X16800253Y-12795960D02*
X16819301Y-12805484D01*
X16819301Y-12805484D02*
X16857396Y-12805484D01*
X16857396Y-12805484D02*
X16876444Y-12795960D01*
X16876444Y-12795960D02*
X16885968Y-12786436D01*
X16885968Y-12786436D02*
X16895491Y-12767388D01*
X16895491Y-12767388D02*
X16895491Y-12719769D01*
X16895491Y-12719769D02*
X16885968Y-12700722D01*
X16885968Y-12700722D02*
X16876444Y-12691198D01*
X16876444Y-12691198D02*
X16857396Y-12681674D01*
X16857396Y-12681674D02*
X16819301Y-12681674D01*
X16819301Y-12681674D02*
X16800253Y-12691198D01*
X16800253Y-12691198D02*
X16790730Y-12700722D01*
X16790730Y-12700722D02*
X16781206Y-12719769D01*
X17133587Y-12805484D02*
X17133587Y-12605484D01*
X17219301Y-12805484D02*
X17219301Y-12700722D01*
X17219301Y-12700722D02*
X17209777Y-12681674D01*
X17209777Y-12681674D02*
X17190730Y-12672150D01*
X17190730Y-12672150D02*
X17162158Y-12672150D01*
X17162158Y-12672150D02*
X17143111Y-12681674D01*
X17143111Y-12681674D02*
X17133587Y-12691198D01*
X17343111Y-12805484D02*
X17324063Y-12795960D01*
X17324063Y-12795960D02*
X17314539Y-12786436D01*
X17314539Y-12786436D02*
X17305015Y-12767388D01*
X17305015Y-12767388D02*
X17305015Y-12710246D01*
X17305015Y-12710246D02*
X17314539Y-12691198D01*
X17314539Y-12691198D02*
X17324063Y-12681674D01*
X17324063Y-12681674D02*
X17343111Y-12672150D01*
X17343111Y-12672150D02*
X17371682Y-12672150D01*
X17371682Y-12672150D02*
X17390730Y-12681674D01*
X17390730Y-12681674D02*
X17400253Y-12691198D01*
X17400253Y-12691198D02*
X17409777Y-12710246D01*
X17409777Y-12710246D02*
X17409777Y-12767388D01*
X17409777Y-12767388D02*
X17400253Y-12786436D01*
X17400253Y-12786436D02*
X17390730Y-12795960D01*
X17390730Y-12795960D02*
X17371682Y-12805484D01*
X17371682Y-12805484D02*
X17343111Y-12805484D01*
X17524063Y-12805484D02*
X17505015Y-12795960D01*
X17505015Y-12795960D02*
X17495492Y-12776912D01*
X17495492Y-12776912D02*
X17495492Y-12605484D01*
X17676444Y-12795960D02*
X17657396Y-12805484D01*
X17657396Y-12805484D02*
X17619301Y-12805484D01*
X17619301Y-12805484D02*
X17600253Y-12795960D01*
X17600253Y-12795960D02*
X17590730Y-12776912D01*
X17590730Y-12776912D02*
X17590730Y-12700722D01*
X17590730Y-12700722D02*
X17600253Y-12681674D01*
X17600253Y-12681674D02*
X17619301Y-12672150D01*
X17619301Y-12672150D02*
X17657396Y-12672150D01*
X17657396Y-12672150D02*
X17676444Y-12681674D01*
X17676444Y-12681674D02*
X17685968Y-12700722D01*
X17685968Y-12700722D02*
X17685968Y-12719769D01*
X17685968Y-12719769D02*
X17590730Y-12738817D01*
X17762158Y-12795960D02*
X17781206Y-12805484D01*
X17781206Y-12805484D02*
X17819301Y-12805484D01*
X17819301Y-12805484D02*
X17838349Y-12795960D01*
X17838349Y-12795960D02*
X17847873Y-12776912D01*
X17847873Y-12776912D02*
X17847873Y-12767388D01*
X17847873Y-12767388D02*
X17838349Y-12748341D01*
X17838349Y-12748341D02*
X17819301Y-12738817D01*
X17819301Y-12738817D02*
X17790730Y-12738817D01*
X17790730Y-12738817D02*
X17771682Y-12729293D01*
X17771682Y-12729293D02*
X17762158Y-12710246D01*
X17762158Y-12710246D02*
X17762158Y-12700722D01*
X17762158Y-12700722D02*
X17771682Y-12681674D01*
X17771682Y-12681674D02*
X17790730Y-12672150D01*
X17790730Y-12672150D02*
X17819301Y-12672150D01*
X17819301Y-12672150D02*
X17838349Y-12681674D01*
X17914539Y-12881674D02*
X17924063Y-12872150D01*
X17924063Y-12872150D02*
X17943111Y-12843579D01*
X17943111Y-12843579D02*
X17952634Y-12824531D01*
X17952634Y-12824531D02*
X17962158Y-12795960D01*
X17962158Y-12795960D02*
X17971682Y-12748341D01*
X17971682Y-12748341D02*
X17971682Y-12710246D01*
X17971682Y-12710246D02*
X17962158Y-12662627D01*
X17962158Y-12662627D02*
X17952634Y-12634055D01*
X17952634Y-12634055D02*
X17943111Y-12615008D01*
X17943111Y-12615008D02*
X17924063Y-12586436D01*
X17924063Y-12586436D02*
X17914539Y-12576912D01*
D12*
X12899000Y-12928000D02*
X12899000Y-13028000D01*
X12849000Y-12978000D02*
X12949000Y-12978000D01*
D11*
X13314539Y-13069484D02*
X13200253Y-13069484D01*
X13257396Y-13069484D02*
X13257396Y-12869484D01*
X13257396Y-12869484D02*
X13238348Y-12898055D01*
X13238348Y-12898055D02*
X13219301Y-12917103D01*
X13219301Y-12917103D02*
X13200253Y-12926627D01*
X13400253Y-13050436D02*
X13409777Y-13059960D01*
X13409777Y-13059960D02*
X13400253Y-13069484D01*
X13400253Y-13069484D02*
X13390729Y-13059960D01*
X13390729Y-13059960D02*
X13400253Y-13050436D01*
X13400253Y-13050436D02*
X13400253Y-13069484D01*
X13533586Y-12869484D02*
X13552634Y-12869484D01*
X13552634Y-12869484D02*
X13571682Y-12879008D01*
X13571682Y-12879008D02*
X13581205Y-12888531D01*
X13581205Y-12888531D02*
X13590729Y-12907579D01*
X13590729Y-12907579D02*
X13600253Y-12945674D01*
X13600253Y-12945674D02*
X13600253Y-12993293D01*
X13600253Y-12993293D02*
X13590729Y-13031388D01*
X13590729Y-13031388D02*
X13581205Y-13050436D01*
X13581205Y-13050436D02*
X13571682Y-13059960D01*
X13571682Y-13059960D02*
X13552634Y-13069484D01*
X13552634Y-13069484D02*
X13533586Y-13069484D01*
X13533586Y-13069484D02*
X13514539Y-13059960D01*
X13514539Y-13059960D02*
X13505015Y-13050436D01*
X13505015Y-13050436D02*
X13495491Y-13031388D01*
X13495491Y-13031388D02*
X13485967Y-12993293D01*
X13485967Y-12993293D02*
X13485967Y-12945674D01*
X13485967Y-12945674D02*
X13495491Y-12907579D01*
X13495491Y-12907579D02*
X13505015Y-12888531D01*
X13505015Y-12888531D02*
X13514539Y-12879008D01*
X13514539Y-12879008D02*
X13533586Y-12869484D01*
X13724062Y-12869484D02*
X13743110Y-12869484D01*
X13743110Y-12869484D02*
X13762158Y-12879008D01*
X13762158Y-12879008D02*
X13771682Y-12888531D01*
X13771682Y-12888531D02*
X13781205Y-12907579D01*
X13781205Y-12907579D02*
X13790729Y-12945674D01*
X13790729Y-12945674D02*
X13790729Y-12993293D01*
X13790729Y-12993293D02*
X13781205Y-13031388D01*
X13781205Y-13031388D02*
X13771682Y-13050436D01*
X13771682Y-13050436D02*
X13762158Y-13059960D01*
X13762158Y-13059960D02*
X13743110Y-13069484D01*
X13743110Y-13069484D02*
X13724062Y-13069484D01*
X13724062Y-13069484D02*
X13705015Y-13059960D01*
X13705015Y-13059960D02*
X13695491Y-13050436D01*
X13695491Y-13050436D02*
X13685967Y-13031388D01*
X13685967Y-13031388D02*
X13676443Y-12993293D01*
X13676443Y-12993293D02*
X13676443Y-12945674D01*
X13676443Y-12945674D02*
X13685967Y-12907579D01*
X13685967Y-12907579D02*
X13695491Y-12888531D01*
X13695491Y-12888531D02*
X13705015Y-12879008D01*
X13705015Y-12879008D02*
X13724062Y-12869484D01*
X13914539Y-12869484D02*
X13933586Y-12869484D01*
X13933586Y-12869484D02*
X13952634Y-12879008D01*
X13952634Y-12879008D02*
X13962158Y-12888531D01*
X13962158Y-12888531D02*
X13971682Y-12907579D01*
X13971682Y-12907579D02*
X13981205Y-12945674D01*
X13981205Y-12945674D02*
X13981205Y-12993293D01*
X13981205Y-12993293D02*
X13971682Y-13031388D01*
X13971682Y-13031388D02*
X13962158Y-13050436D01*
X13962158Y-13050436D02*
X13952634Y-13059960D01*
X13952634Y-13059960D02*
X13933586Y-13069484D01*
X13933586Y-13069484D02*
X13914539Y-13069484D01*
X13914539Y-13069484D02*
X13895491Y-13059960D01*
X13895491Y-13059960D02*
X13885967Y-13050436D01*
X13885967Y-13050436D02*
X13876443Y-13031388D01*
X13876443Y-13031388D02*
X13866920Y-12993293D01*
X13866920Y-12993293D02*
X13866920Y-12945674D01*
X13866920Y-12945674D02*
X13876443Y-12907579D01*
X13876443Y-12907579D02*
X13885967Y-12888531D01*
X13885967Y-12888531D02*
X13895491Y-12879008D01*
X13895491Y-12879008D02*
X13914539Y-12869484D01*
X14066920Y-13069484D02*
X14066920Y-12936150D01*
X14066920Y-12955198D02*
X14076443Y-12945674D01*
X14076443Y-12945674D02*
X14095491Y-12936150D01*
X14095491Y-12936150D02*
X14124063Y-12936150D01*
X14124063Y-12936150D02*
X14143110Y-12945674D01*
X14143110Y-12945674D02*
X14152634Y-12964722D01*
X14152634Y-12964722D02*
X14152634Y-13069484D01*
X14152634Y-12964722D02*
X14162158Y-12945674D01*
X14162158Y-12945674D02*
X14181205Y-12936150D01*
X14181205Y-12936150D02*
X14209777Y-12936150D01*
X14209777Y-12936150D02*
X14228824Y-12945674D01*
X14228824Y-12945674D02*
X14238348Y-12964722D01*
X14238348Y-12964722D02*
X14238348Y-13069484D01*
X14333586Y-13069484D02*
X14333586Y-12936150D01*
X14333586Y-12955198D02*
X14343110Y-12945674D01*
X14343110Y-12945674D02*
X14362158Y-12936150D01*
X14362158Y-12936150D02*
X14390729Y-12936150D01*
X14390729Y-12936150D02*
X14409777Y-12945674D01*
X14409777Y-12945674D02*
X14419301Y-12964722D01*
X14419301Y-12964722D02*
X14419301Y-13069484D01*
X14419301Y-12964722D02*
X14428824Y-12945674D01*
X14428824Y-12945674D02*
X14447872Y-12936150D01*
X14447872Y-12936150D02*
X14476443Y-12936150D01*
X14476443Y-12936150D02*
X14495491Y-12945674D01*
X14495491Y-12945674D02*
X14505015Y-12964722D01*
X14505015Y-12964722D02*
X14505015Y-13069484D01*
X14895491Y-12859960D02*
X14724063Y-13117103D01*
X15152634Y-12869484D02*
X15171682Y-12869484D01*
X15171682Y-12869484D02*
X15190729Y-12879008D01*
X15190729Y-12879008D02*
X15200253Y-12888531D01*
X15200253Y-12888531D02*
X15209777Y-12907579D01*
X15209777Y-12907579D02*
X15219301Y-12945674D01*
X15219301Y-12945674D02*
X15219301Y-12993293D01*
X15219301Y-12993293D02*
X15209777Y-13031388D01*
X15209777Y-13031388D02*
X15200253Y-13050436D01*
X15200253Y-13050436D02*
X15190729Y-13059960D01*
X15190729Y-13059960D02*
X15171682Y-13069484D01*
X15171682Y-13069484D02*
X15152634Y-13069484D01*
X15152634Y-13069484D02*
X15133586Y-13059960D01*
X15133586Y-13059960D02*
X15124063Y-13050436D01*
X15124063Y-13050436D02*
X15114539Y-13031388D01*
X15114539Y-13031388D02*
X15105015Y-12993293D01*
X15105015Y-12993293D02*
X15105015Y-12945674D01*
X15105015Y-12945674D02*
X15114539Y-12907579D01*
X15114539Y-12907579D02*
X15124063Y-12888531D01*
X15124063Y-12888531D02*
X15133586Y-12879008D01*
X15133586Y-12879008D02*
X15152634Y-12869484D01*
X15305015Y-13050436D02*
X15314539Y-13059960D01*
X15314539Y-13059960D02*
X15305015Y-13069484D01*
X15305015Y-13069484D02*
X15295491Y-13059960D01*
X15295491Y-13059960D02*
X15305015Y-13050436D01*
X15305015Y-13050436D02*
X15305015Y-13069484D01*
X15438348Y-12869484D02*
X15457396Y-12869484D01*
X15457396Y-12869484D02*
X15476444Y-12879008D01*
X15476444Y-12879008D02*
X15485967Y-12888531D01*
X15485967Y-12888531D02*
X15495491Y-12907579D01*
X15495491Y-12907579D02*
X15505015Y-12945674D01*
X15505015Y-12945674D02*
X15505015Y-12993293D01*
X15505015Y-12993293D02*
X15495491Y-13031388D01*
X15495491Y-13031388D02*
X15485967Y-13050436D01*
X15485967Y-13050436D02*
X15476444Y-13059960D01*
X15476444Y-13059960D02*
X15457396Y-13069484D01*
X15457396Y-13069484D02*
X15438348Y-13069484D01*
X15438348Y-13069484D02*
X15419301Y-13059960D01*
X15419301Y-13059960D02*
X15409777Y-13050436D01*
X15409777Y-13050436D02*
X15400253Y-13031388D01*
X15400253Y-13031388D02*
X15390729Y-12993293D01*
X15390729Y-12993293D02*
X15390729Y-12945674D01*
X15390729Y-12945674D02*
X15400253Y-12907579D01*
X15400253Y-12907579D02*
X15409777Y-12888531D01*
X15409777Y-12888531D02*
X15419301Y-12879008D01*
X15419301Y-12879008D02*
X15438348Y-12869484D01*
X15571682Y-12869484D02*
X15695491Y-12869484D01*
X15695491Y-12869484D02*
X15628825Y-12945674D01*
X15628825Y-12945674D02*
X15657396Y-12945674D01*
X15657396Y-12945674D02*
X15676444Y-12955198D01*
X15676444Y-12955198D02*
X15685967Y-12964722D01*
X15685967Y-12964722D02*
X15695491Y-12983769D01*
X15695491Y-12983769D02*
X15695491Y-13031388D01*
X15695491Y-13031388D02*
X15685967Y-13050436D01*
X15685967Y-13050436D02*
X15676444Y-13059960D01*
X15676444Y-13059960D02*
X15657396Y-13069484D01*
X15657396Y-13069484D02*
X15600253Y-13069484D01*
X15600253Y-13069484D02*
X15581206Y-13059960D01*
X15581206Y-13059960D02*
X15571682Y-13050436D01*
X15790729Y-13069484D02*
X15828825Y-13069484D01*
X15828825Y-13069484D02*
X15847872Y-13059960D01*
X15847872Y-13059960D02*
X15857396Y-13050436D01*
X15857396Y-13050436D02*
X15876444Y-13021865D01*
X15876444Y-13021865D02*
X15885967Y-12983769D01*
X15885967Y-12983769D02*
X15885967Y-12907579D01*
X15885967Y-12907579D02*
X15876444Y-12888531D01*
X15876444Y-12888531D02*
X15866920Y-12879008D01*
X15866920Y-12879008D02*
X15847872Y-12869484D01*
X15847872Y-12869484D02*
X15809777Y-12869484D01*
X15809777Y-12869484D02*
X15790729Y-12879008D01*
X15790729Y-12879008D02*
X15781206Y-12888531D01*
X15781206Y-12888531D02*
X15771682Y-12907579D01*
X15771682Y-12907579D02*
X15771682Y-12955198D01*
X15771682Y-12955198D02*
X15781206Y-12974246D01*
X15781206Y-12974246D02*
X15790729Y-12983769D01*
X15790729Y-12983769D02*
X15809777Y-12993293D01*
X15809777Y-12993293D02*
X15847872Y-12993293D01*
X15847872Y-12993293D02*
X15866920Y-12983769D01*
X15866920Y-12983769D02*
X15876444Y-12974246D01*
X15876444Y-12974246D02*
X15885967Y-12955198D01*
X16057396Y-12936150D02*
X16057396Y-13069484D01*
X16009777Y-12859960D02*
X15962158Y-13002817D01*
X15962158Y-13002817D02*
X16085967Y-13002817D01*
X16152634Y-12869484D02*
X16152634Y-12907579D01*
X16228825Y-12869484D02*
X16228825Y-12907579D01*
X16524063Y-13145674D02*
X16514539Y-13136150D01*
X16514539Y-13136150D02*
X16495491Y-13107579D01*
X16495491Y-13107579D02*
X16485968Y-13088531D01*
X16485968Y-13088531D02*
X16476444Y-13059960D01*
X16476444Y-13059960D02*
X16466920Y-13012341D01*
X16466920Y-13012341D02*
X16466920Y-12974246D01*
X16466920Y-12974246D02*
X16476444Y-12926627D01*
X16476444Y-12926627D02*
X16485968Y-12898055D01*
X16485968Y-12898055D02*
X16495491Y-12879008D01*
X16495491Y-12879008D02*
X16514539Y-12850436D01*
X16514539Y-12850436D02*
X16524063Y-12840912D01*
X16705015Y-13069484D02*
X16590729Y-13069484D01*
X16647872Y-13069484D02*
X16647872Y-12869484D01*
X16647872Y-12869484D02*
X16628825Y-12898055D01*
X16628825Y-12898055D02*
X16609777Y-12917103D01*
X16609777Y-12917103D02*
X16590729Y-12926627D01*
X16819301Y-12955198D02*
X16800253Y-12945674D01*
X16800253Y-12945674D02*
X16790730Y-12936150D01*
X16790730Y-12936150D02*
X16781206Y-12917103D01*
X16781206Y-12917103D02*
X16781206Y-12907579D01*
X16781206Y-12907579D02*
X16790730Y-12888531D01*
X16790730Y-12888531D02*
X16800253Y-12879008D01*
X16800253Y-12879008D02*
X16819301Y-12869484D01*
X16819301Y-12869484D02*
X16857396Y-12869484D01*
X16857396Y-12869484D02*
X16876444Y-12879008D01*
X16876444Y-12879008D02*
X16885968Y-12888531D01*
X16885968Y-12888531D02*
X16895491Y-12907579D01*
X16895491Y-12907579D02*
X16895491Y-12917103D01*
X16895491Y-12917103D02*
X16885968Y-12936150D01*
X16885968Y-12936150D02*
X16876444Y-12945674D01*
X16876444Y-12945674D02*
X16857396Y-12955198D01*
X16857396Y-12955198D02*
X16819301Y-12955198D01*
X16819301Y-12955198D02*
X16800253Y-12964722D01*
X16800253Y-12964722D02*
X16790730Y-12974246D01*
X16790730Y-12974246D02*
X16781206Y-12993293D01*
X16781206Y-12993293D02*
X16781206Y-13031388D01*
X16781206Y-13031388D02*
X16790730Y-13050436D01*
X16790730Y-13050436D02*
X16800253Y-13059960D01*
X16800253Y-13059960D02*
X16819301Y-13069484D01*
X16819301Y-13069484D02*
X16857396Y-13069484D01*
X16857396Y-13069484D02*
X16876444Y-13059960D01*
X16876444Y-13059960D02*
X16885968Y-13050436D01*
X16885968Y-13050436D02*
X16895491Y-13031388D01*
X16895491Y-13031388D02*
X16895491Y-12993293D01*
X16895491Y-12993293D02*
X16885968Y-12974246D01*
X16885968Y-12974246D02*
X16876444Y-12964722D01*
X16876444Y-12964722D02*
X16857396Y-12955198D01*
X17133587Y-13069484D02*
X17133587Y-12869484D01*
X17219301Y-13069484D02*
X17219301Y-12964722D01*
X17219301Y-12964722D02*
X17209777Y-12945674D01*
X17209777Y-12945674D02*
X17190730Y-12936150D01*
X17190730Y-12936150D02*
X17162158Y-12936150D01*
X17162158Y-12936150D02*
X17143111Y-12945674D01*
X17143111Y-12945674D02*
X17133587Y-12955198D01*
X17343111Y-13069484D02*
X17324063Y-13059960D01*
X17324063Y-13059960D02*
X17314539Y-13050436D01*
X17314539Y-13050436D02*
X17305015Y-13031388D01*
X17305015Y-13031388D02*
X17305015Y-12974246D01*
X17305015Y-12974246D02*
X17314539Y-12955198D01*
X17314539Y-12955198D02*
X17324063Y-12945674D01*
X17324063Y-12945674D02*
X17343111Y-12936150D01*
X17343111Y-12936150D02*
X17371682Y-12936150D01*
X17371682Y-12936150D02*
X17390730Y-12945674D01*
X17390730Y-12945674D02*
X17400253Y-12955198D01*
X17400253Y-12955198D02*
X17409777Y-12974246D01*
X17409777Y-12974246D02*
X17409777Y-13031388D01*
X17409777Y-13031388D02*
X17400253Y-13050436D01*
X17400253Y-13050436D02*
X17390730Y-13059960D01*
X17390730Y-13059960D02*
X17371682Y-13069484D01*
X17371682Y-13069484D02*
X17343111Y-13069484D01*
X17524063Y-13069484D02*
X17505015Y-13059960D01*
X17505015Y-13059960D02*
X17495492Y-13040912D01*
X17495492Y-13040912D02*
X17495492Y-12869484D01*
X17676444Y-13059960D02*
X17657396Y-13069484D01*
X17657396Y-13069484D02*
X17619301Y-13069484D01*
X17619301Y-13069484D02*
X17600253Y-13059960D01*
X17600253Y-13059960D02*
X17590730Y-13040912D01*
X17590730Y-13040912D02*
X17590730Y-12964722D01*
X17590730Y-12964722D02*
X17600253Y-12945674D01*
X17600253Y-12945674D02*
X17619301Y-12936150D01*
X17619301Y-12936150D02*
X17657396Y-12936150D01*
X17657396Y-12936150D02*
X17676444Y-12945674D01*
X17676444Y-12945674D02*
X17685968Y-12964722D01*
X17685968Y-12964722D02*
X17685968Y-12983769D01*
X17685968Y-12983769D02*
X17590730Y-13002817D01*
X17762158Y-13059960D02*
X17781206Y-13069484D01*
X17781206Y-13069484D02*
X17819301Y-13069484D01*
X17819301Y-13069484D02*
X17838349Y-13059960D01*
X17838349Y-13059960D02*
X17847873Y-13040912D01*
X17847873Y-13040912D02*
X17847873Y-13031388D01*
X17847873Y-13031388D02*
X17838349Y-13012341D01*
X17838349Y-13012341D02*
X17819301Y-13002817D01*
X17819301Y-13002817D02*
X17790730Y-13002817D01*
X17790730Y-13002817D02*
X17771682Y-12993293D01*
X17771682Y-12993293D02*
X17762158Y-12974246D01*
X17762158Y-12974246D02*
X17762158Y-12964722D01*
X17762158Y-12964722D02*
X17771682Y-12945674D01*
X17771682Y-12945674D02*
X17790730Y-12936150D01*
X17790730Y-12936150D02*
X17819301Y-12936150D01*
X17819301Y-12936150D02*
X17838349Y-12945674D01*
X17914539Y-13145674D02*
X17924063Y-13136150D01*
X17924063Y-13136150D02*
X17943111Y-13107579D01*
X17943111Y-13107579D02*
X17952634Y-13088531D01*
X17952634Y-13088531D02*
X17962158Y-13059960D01*
X17962158Y-13059960D02*
X17971682Y-13012341D01*
X17971682Y-13012341D02*
X17971682Y-12974246D01*
X17971682Y-12974246D02*
X17962158Y-12926627D01*
X17962158Y-12926627D02*
X17952634Y-12898055D01*
X17952634Y-12898055D02*
X17943111Y-12879008D01*
X17943111Y-12879008D02*
X17924063Y-12850436D01*
X17924063Y-12850436D02*
X17914539Y-12840912D01*
D13*
X12925569Y-13298569D02*
X12925569Y-13185431D01*
X12812431Y-13185431D01*
X12812431Y-13298569D01*
X12925569Y-13298569D01*
D11*
X13314539Y-13333484D02*
X13200253Y-13333484D01*
X13257396Y-13333484D02*
X13257396Y-13133484D01*
X13257396Y-13133484D02*
X13238348Y-13162055D01*
X13238348Y-13162055D02*
X13219301Y-13181103D01*
X13219301Y-13181103D02*
X13200253Y-13190627D01*
X13400253Y-13314436D02*
X13409777Y-13323960D01*
X13409777Y-13323960D02*
X13400253Y-13333484D01*
X13400253Y-13333484D02*
X13390729Y-13323960D01*
X13390729Y-13323960D02*
X13400253Y-13314436D01*
X13400253Y-13314436D02*
X13400253Y-13333484D01*
X13581205Y-13133484D02*
X13543110Y-13133484D01*
X13543110Y-13133484D02*
X13524062Y-13143008D01*
X13524062Y-13143008D02*
X13514539Y-13152531D01*
X13514539Y-13152531D02*
X13495491Y-13181103D01*
X13495491Y-13181103D02*
X13485967Y-13219198D01*
X13485967Y-13219198D02*
X13485967Y-13295388D01*
X13485967Y-13295388D02*
X13495491Y-13314436D01*
X13495491Y-13314436D02*
X13505015Y-13323960D01*
X13505015Y-13323960D02*
X13524062Y-13333484D01*
X13524062Y-13333484D02*
X13562158Y-13333484D01*
X13562158Y-13333484D02*
X13581205Y-13323960D01*
X13581205Y-13323960D02*
X13590729Y-13314436D01*
X13590729Y-13314436D02*
X13600253Y-13295388D01*
X13600253Y-13295388D02*
X13600253Y-13247769D01*
X13600253Y-13247769D02*
X13590729Y-13228722D01*
X13590729Y-13228722D02*
X13581205Y-13219198D01*
X13581205Y-13219198D02*
X13562158Y-13209674D01*
X13562158Y-13209674D02*
X13524062Y-13209674D01*
X13524062Y-13209674D02*
X13505015Y-13219198D01*
X13505015Y-13219198D02*
X13495491Y-13228722D01*
X13495491Y-13228722D02*
X13485967Y-13247769D01*
X13724062Y-13133484D02*
X13743110Y-13133484D01*
X13743110Y-13133484D02*
X13762158Y-13143008D01*
X13762158Y-13143008D02*
X13771682Y-13152531D01*
X13771682Y-13152531D02*
X13781205Y-13171579D01*
X13781205Y-13171579D02*
X13790729Y-13209674D01*
X13790729Y-13209674D02*
X13790729Y-13257293D01*
X13790729Y-13257293D02*
X13781205Y-13295388D01*
X13781205Y-13295388D02*
X13771682Y-13314436D01*
X13771682Y-13314436D02*
X13762158Y-13323960D01*
X13762158Y-13323960D02*
X13743110Y-13333484D01*
X13743110Y-13333484D02*
X13724062Y-13333484D01*
X13724062Y-13333484D02*
X13705015Y-13323960D01*
X13705015Y-13323960D02*
X13695491Y-13314436D01*
X13695491Y-13314436D02*
X13685967Y-13295388D01*
X13685967Y-13295388D02*
X13676443Y-13257293D01*
X13676443Y-13257293D02*
X13676443Y-13209674D01*
X13676443Y-13209674D02*
X13685967Y-13171579D01*
X13685967Y-13171579D02*
X13695491Y-13152531D01*
X13695491Y-13152531D02*
X13705015Y-13143008D01*
X13705015Y-13143008D02*
X13724062Y-13133484D01*
X13914539Y-13133484D02*
X13933586Y-13133484D01*
X13933586Y-13133484D02*
X13952634Y-13143008D01*
X13952634Y-13143008D02*
X13962158Y-13152531D01*
X13962158Y-13152531D02*
X13971682Y-13171579D01*
X13971682Y-13171579D02*
X13981205Y-13209674D01*
X13981205Y-13209674D02*
X13981205Y-13257293D01*
X13981205Y-13257293D02*
X13971682Y-13295388D01*
X13971682Y-13295388D02*
X13962158Y-13314436D01*
X13962158Y-13314436D02*
X13952634Y-13323960D01*
X13952634Y-13323960D02*
X13933586Y-13333484D01*
X13933586Y-13333484D02*
X13914539Y-13333484D01*
X13914539Y-13333484D02*
X13895491Y-13323960D01*
X13895491Y-13323960D02*
X13885967Y-13314436D01*
X13885967Y-13314436D02*
X13876443Y-13295388D01*
X13876443Y-13295388D02*
X13866920Y-13257293D01*
X13866920Y-13257293D02*
X13866920Y-13209674D01*
X13866920Y-13209674D02*
X13876443Y-13171579D01*
X13876443Y-13171579D02*
X13885967Y-13152531D01*
X13885967Y-13152531D02*
X13895491Y-13143008D01*
X13895491Y-13143008D02*
X13914539Y-13133484D01*
X14066920Y-13333484D02*
X14066920Y-13200150D01*
X14066920Y-13219198D02*
X14076443Y-13209674D01*
X14076443Y-13209674D02*
X14095491Y-13200150D01*
X14095491Y-13200150D02*
X14124063Y-13200150D01*
X14124063Y-13200150D02*
X14143110Y-13209674D01*
X14143110Y-13209674D02*
X14152634Y-13228722D01*
X14152634Y-13228722D02*
X14152634Y-13333484D01*
X14152634Y-13228722D02*
X14162158Y-13209674D01*
X14162158Y-13209674D02*
X14181205Y-13200150D01*
X14181205Y-13200150D02*
X14209777Y-13200150D01*
X14209777Y-13200150D02*
X14228824Y-13209674D01*
X14228824Y-13209674D02*
X14238348Y-13228722D01*
X14238348Y-13228722D02*
X14238348Y-13333484D01*
X14333586Y-13333484D02*
X14333586Y-13200150D01*
X14333586Y-13219198D02*
X14343110Y-13209674D01*
X14343110Y-13209674D02*
X14362158Y-13200150D01*
X14362158Y-13200150D02*
X14390729Y-13200150D01*
X14390729Y-13200150D02*
X14409777Y-13209674D01*
X14409777Y-13209674D02*
X14419301Y-13228722D01*
X14419301Y-13228722D02*
X14419301Y-13333484D01*
X14419301Y-13228722D02*
X14428824Y-13209674D01*
X14428824Y-13209674D02*
X14447872Y-13200150D01*
X14447872Y-13200150D02*
X14476443Y-13200150D01*
X14476443Y-13200150D02*
X14495491Y-13209674D01*
X14495491Y-13209674D02*
X14505015Y-13228722D01*
X14505015Y-13228722D02*
X14505015Y-13333484D01*
X14895491Y-13123960D02*
X14724063Y-13381103D01*
X15152634Y-13133484D02*
X15171682Y-13133484D01*
X15171682Y-13133484D02*
X15190729Y-13143008D01*
X15190729Y-13143008D02*
X15200253Y-13152531D01*
X15200253Y-13152531D02*
X15209777Y-13171579D01*
X15209777Y-13171579D02*
X15219301Y-13209674D01*
X15219301Y-13209674D02*
X15219301Y-13257293D01*
X15219301Y-13257293D02*
X15209777Y-13295388D01*
X15209777Y-13295388D02*
X15200253Y-13314436D01*
X15200253Y-13314436D02*
X15190729Y-13323960D01*
X15190729Y-13323960D02*
X15171682Y-13333484D01*
X15171682Y-13333484D02*
X15152634Y-13333484D01*
X15152634Y-13333484D02*
X15133586Y-13323960D01*
X15133586Y-13323960D02*
X15124063Y-13314436D01*
X15124063Y-13314436D02*
X15114539Y-13295388D01*
X15114539Y-13295388D02*
X15105015Y-13257293D01*
X15105015Y-13257293D02*
X15105015Y-13209674D01*
X15105015Y-13209674D02*
X15114539Y-13171579D01*
X15114539Y-13171579D02*
X15124063Y-13152531D01*
X15124063Y-13152531D02*
X15133586Y-13143008D01*
X15133586Y-13143008D02*
X15152634Y-13133484D01*
X15305015Y-13314436D02*
X15314539Y-13323960D01*
X15314539Y-13323960D02*
X15305015Y-13333484D01*
X15305015Y-13333484D02*
X15295491Y-13323960D01*
X15295491Y-13323960D02*
X15305015Y-13314436D01*
X15305015Y-13314436D02*
X15305015Y-13333484D01*
X15438348Y-13133484D02*
X15457396Y-13133484D01*
X15457396Y-13133484D02*
X15476444Y-13143008D01*
X15476444Y-13143008D02*
X15485967Y-13152531D01*
X15485967Y-13152531D02*
X15495491Y-13171579D01*
X15495491Y-13171579D02*
X15505015Y-13209674D01*
X15505015Y-13209674D02*
X15505015Y-13257293D01*
X15505015Y-13257293D02*
X15495491Y-13295388D01*
X15495491Y-13295388D02*
X15485967Y-13314436D01*
X15485967Y-13314436D02*
X15476444Y-13323960D01*
X15476444Y-13323960D02*
X15457396Y-13333484D01*
X15457396Y-13333484D02*
X15438348Y-13333484D01*
X15438348Y-13333484D02*
X15419301Y-13323960D01*
X15419301Y-13323960D02*
X15409777Y-13314436D01*
X15409777Y-13314436D02*
X15400253Y-13295388D01*
X15400253Y-13295388D02*
X15390729Y-13257293D01*
X15390729Y-13257293D02*
X15390729Y-13209674D01*
X15390729Y-13209674D02*
X15400253Y-13171579D01*
X15400253Y-13171579D02*
X15409777Y-13152531D01*
X15409777Y-13152531D02*
X15419301Y-13143008D01*
X15419301Y-13143008D02*
X15438348Y-13133484D01*
X15676444Y-13133484D02*
X15638348Y-13133484D01*
X15638348Y-13133484D02*
X15619301Y-13143008D01*
X15619301Y-13143008D02*
X15609777Y-13152531D01*
X15609777Y-13152531D02*
X15590729Y-13181103D01*
X15590729Y-13181103D02*
X15581206Y-13219198D01*
X15581206Y-13219198D02*
X15581206Y-13295388D01*
X15581206Y-13295388D02*
X15590729Y-13314436D01*
X15590729Y-13314436D02*
X15600253Y-13323960D01*
X15600253Y-13323960D02*
X15619301Y-13333484D01*
X15619301Y-13333484D02*
X15657396Y-13333484D01*
X15657396Y-13333484D02*
X15676444Y-13323960D01*
X15676444Y-13323960D02*
X15685967Y-13314436D01*
X15685967Y-13314436D02*
X15695491Y-13295388D01*
X15695491Y-13295388D02*
X15695491Y-13247769D01*
X15695491Y-13247769D02*
X15685967Y-13228722D01*
X15685967Y-13228722D02*
X15676444Y-13219198D01*
X15676444Y-13219198D02*
X15657396Y-13209674D01*
X15657396Y-13209674D02*
X15619301Y-13209674D01*
X15619301Y-13209674D02*
X15600253Y-13219198D01*
X15600253Y-13219198D02*
X15590729Y-13228722D01*
X15590729Y-13228722D02*
X15581206Y-13247769D01*
X15762158Y-13133484D02*
X15885967Y-13133484D01*
X15885967Y-13133484D02*
X15819301Y-13209674D01*
X15819301Y-13209674D02*
X15847872Y-13209674D01*
X15847872Y-13209674D02*
X15866920Y-13219198D01*
X15866920Y-13219198D02*
X15876444Y-13228722D01*
X15876444Y-13228722D02*
X15885967Y-13247769D01*
X15885967Y-13247769D02*
X15885967Y-13295388D01*
X15885967Y-13295388D02*
X15876444Y-13314436D01*
X15876444Y-13314436D02*
X15866920Y-13323960D01*
X15866920Y-13323960D02*
X15847872Y-13333484D01*
X15847872Y-13333484D02*
X15790729Y-13333484D01*
X15790729Y-13333484D02*
X15771682Y-13323960D01*
X15771682Y-13323960D02*
X15762158Y-13314436D01*
X16009777Y-13133484D02*
X16028825Y-13133484D01*
X16028825Y-13133484D02*
X16047872Y-13143008D01*
X16047872Y-13143008D02*
X16057396Y-13152531D01*
X16057396Y-13152531D02*
X16066920Y-13171579D01*
X16066920Y-13171579D02*
X16076444Y-13209674D01*
X16076444Y-13209674D02*
X16076444Y-13257293D01*
X16076444Y-13257293D02*
X16066920Y-13295388D01*
X16066920Y-13295388D02*
X16057396Y-13314436D01*
X16057396Y-13314436D02*
X16047872Y-13323960D01*
X16047872Y-13323960D02*
X16028825Y-13333484D01*
X16028825Y-13333484D02*
X16009777Y-13333484D01*
X16009777Y-13333484D02*
X15990729Y-13323960D01*
X15990729Y-13323960D02*
X15981206Y-13314436D01*
X15981206Y-13314436D02*
X15971682Y-13295388D01*
X15971682Y-13295388D02*
X15962158Y-13257293D01*
X15962158Y-13257293D02*
X15962158Y-13209674D01*
X15962158Y-13209674D02*
X15971682Y-13171579D01*
X15971682Y-13171579D02*
X15981206Y-13152531D01*
X15981206Y-13152531D02*
X15990729Y-13143008D01*
X15990729Y-13143008D02*
X16009777Y-13133484D01*
X16152634Y-13133484D02*
X16152634Y-13171579D01*
X16228825Y-13133484D02*
X16228825Y-13171579D01*
X16524063Y-13409674D02*
X16514539Y-13400150D01*
X16514539Y-13400150D02*
X16495491Y-13371579D01*
X16495491Y-13371579D02*
X16485968Y-13352531D01*
X16485968Y-13352531D02*
X16476444Y-13323960D01*
X16476444Y-13323960D02*
X16466920Y-13276341D01*
X16466920Y-13276341D02*
X16466920Y-13238246D01*
X16466920Y-13238246D02*
X16476444Y-13190627D01*
X16476444Y-13190627D02*
X16485968Y-13162055D01*
X16485968Y-13162055D02*
X16495491Y-13143008D01*
X16495491Y-13143008D02*
X16514539Y-13114436D01*
X16514539Y-13114436D02*
X16524063Y-13104912D01*
X16705015Y-13333484D02*
X16590729Y-13333484D01*
X16647872Y-13333484D02*
X16647872Y-13133484D01*
X16647872Y-13133484D02*
X16628825Y-13162055D01*
X16628825Y-13162055D02*
X16609777Y-13181103D01*
X16609777Y-13181103D02*
X16590729Y-13190627D01*
X16828825Y-13133484D02*
X16847872Y-13133484D01*
X16847872Y-13133484D02*
X16866920Y-13143008D01*
X16866920Y-13143008D02*
X16876444Y-13152531D01*
X16876444Y-13152531D02*
X16885968Y-13171579D01*
X16885968Y-13171579D02*
X16895491Y-13209674D01*
X16895491Y-13209674D02*
X16895491Y-13257293D01*
X16895491Y-13257293D02*
X16885968Y-13295388D01*
X16885968Y-13295388D02*
X16876444Y-13314436D01*
X16876444Y-13314436D02*
X16866920Y-13323960D01*
X16866920Y-13323960D02*
X16847872Y-13333484D01*
X16847872Y-13333484D02*
X16828825Y-13333484D01*
X16828825Y-13333484D02*
X16809777Y-13323960D01*
X16809777Y-13323960D02*
X16800253Y-13314436D01*
X16800253Y-13314436D02*
X16790730Y-13295388D01*
X16790730Y-13295388D02*
X16781206Y-13257293D01*
X16781206Y-13257293D02*
X16781206Y-13209674D01*
X16781206Y-13209674D02*
X16790730Y-13171579D01*
X16790730Y-13171579D02*
X16800253Y-13152531D01*
X16800253Y-13152531D02*
X16809777Y-13143008D01*
X16809777Y-13143008D02*
X16828825Y-13133484D01*
X17133587Y-13333484D02*
X17133587Y-13133484D01*
X17219301Y-13333484D02*
X17219301Y-13228722D01*
X17219301Y-13228722D02*
X17209777Y-13209674D01*
X17209777Y-13209674D02*
X17190730Y-13200150D01*
X17190730Y-13200150D02*
X17162158Y-13200150D01*
X17162158Y-13200150D02*
X17143111Y-13209674D01*
X17143111Y-13209674D02*
X17133587Y-13219198D01*
X17343111Y-13333484D02*
X17324063Y-13323960D01*
X17324063Y-13323960D02*
X17314539Y-13314436D01*
X17314539Y-13314436D02*
X17305015Y-13295388D01*
X17305015Y-13295388D02*
X17305015Y-13238246D01*
X17305015Y-13238246D02*
X17314539Y-13219198D01*
X17314539Y-13219198D02*
X17324063Y-13209674D01*
X17324063Y-13209674D02*
X17343111Y-13200150D01*
X17343111Y-13200150D02*
X17371682Y-13200150D01*
X17371682Y-13200150D02*
X17390730Y-13209674D01*
X17390730Y-13209674D02*
X17400253Y-13219198D01*
X17400253Y-13219198D02*
X17409777Y-13238246D01*
X17409777Y-13238246D02*
X17409777Y-13295388D01*
X17409777Y-13295388D02*
X17400253Y-13314436D01*
X17400253Y-13314436D02*
X17390730Y-13323960D01*
X17390730Y-13323960D02*
X17371682Y-13333484D01*
X17371682Y-13333484D02*
X17343111Y-13333484D01*
X17524063Y-13333484D02*
X17505015Y-13323960D01*
X17505015Y-13323960D02*
X17495492Y-13304912D01*
X17495492Y-13304912D02*
X17495492Y-13133484D01*
X17676444Y-13323960D02*
X17657396Y-13333484D01*
X17657396Y-13333484D02*
X17619301Y-13333484D01*
X17619301Y-13333484D02*
X17600253Y-13323960D01*
X17600253Y-13323960D02*
X17590730Y-13304912D01*
X17590730Y-13304912D02*
X17590730Y-13228722D01*
X17590730Y-13228722D02*
X17600253Y-13209674D01*
X17600253Y-13209674D02*
X17619301Y-13200150D01*
X17619301Y-13200150D02*
X17657396Y-13200150D01*
X17657396Y-13200150D02*
X17676444Y-13209674D01*
X17676444Y-13209674D02*
X17685968Y-13228722D01*
X17685968Y-13228722D02*
X17685968Y-13247769D01*
X17685968Y-13247769D02*
X17590730Y-13266817D01*
X17762158Y-13323960D02*
X17781206Y-13333484D01*
X17781206Y-13333484D02*
X17819301Y-13333484D01*
X17819301Y-13333484D02*
X17838349Y-13323960D01*
X17838349Y-13323960D02*
X17847873Y-13304912D01*
X17847873Y-13304912D02*
X17847873Y-13295388D01*
X17847873Y-13295388D02*
X17838349Y-13276341D01*
X17838349Y-13276341D02*
X17819301Y-13266817D01*
X17819301Y-13266817D02*
X17790730Y-13266817D01*
X17790730Y-13266817D02*
X17771682Y-13257293D01*
X17771682Y-13257293D02*
X17762158Y-13238246D01*
X17762158Y-13238246D02*
X17762158Y-13228722D01*
X17762158Y-13228722D02*
X17771682Y-13209674D01*
X17771682Y-13209674D02*
X17790730Y-13200150D01*
X17790730Y-13200150D02*
X17819301Y-13200150D01*
X17819301Y-13200150D02*
X17838349Y-13209674D01*
X17914539Y-13409674D02*
X17924063Y-13400150D01*
X17924063Y-13400150D02*
X17943111Y-13371579D01*
X17943111Y-13371579D02*
X17952634Y-13352531D01*
X17952634Y-13352531D02*
X17962158Y-13323960D01*
X17962158Y-13323960D02*
X17971682Y-13276341D01*
X17971682Y-13276341D02*
X17971682Y-13238246D01*
X17971682Y-13238246D02*
X17962158Y-13190627D01*
X17962158Y-13190627D02*
X17952634Y-13162055D01*
X17952634Y-13162055D02*
X17943111Y-13143008D01*
X17943111Y-13143008D02*
X17924063Y-13114436D01*
X17924063Y-13114436D02*
X17914539Y-13104912D01*
M02*
