%TF.GenerationSoftware,KiCad,Pcbnew,8.0.0-rc1-6-gb7460f29b4*%
%TF.CreationDate,2025-03-10T16:23:27+01:00*%
%TF.ProjectId,yig_current_regulator,7969675f-6375-4727-9265-6e745f726567,rev?*%
%TF.SameCoordinates,Original*%
%TF.FileFunction,Copper,L1,Top*%
%TF.FilePolarity,Positive*%
%FSLAX46Y46*%
G04 Gerber Fmt 4.6, Leading zero omitted, Abs format (unit mm)*
G04 Created by KiCad (PCBNEW 8.0.0-rc1-6-gb7460f29b4) date 2025-03-10 16:23:27*
%MOMM*%
%LPD*%
G01*
G04 APERTURE LIST*
G04 Aperture macros list*
%AMRoundRect*
0 Rectangle with rounded corners*
0 $1 Rounding radius*
0 $2 $3 $4 $5 $6 $7 $8 $9 X,Y pos of 4 corners*
0 Add a 4 corners polygon primitive as box body*
4,1,4,$2,$3,$4,$5,$6,$7,$8,$9,$2,$3,0*
0 Add four circle primitives for the rounded corners*
1,1,$1+$1,$2,$3*
1,1,$1+$1,$4,$5*
1,1,$1+$1,$6,$7*
1,1,$1+$1,$8,$9*
0 Add four rect primitives between the rounded corners*
20,1,$1+$1,$2,$3,$4,$5,0*
20,1,$1+$1,$4,$5,$6,$7,0*
20,1,$1+$1,$6,$7,$8,$9,0*
20,1,$1+$1,$8,$9,$2,$3,0*%
G04 Aperture macros list end*
%ADD10C,0.300000*%
%TA.AperFunction,NonConductor*%
%ADD11C,0.300000*%
%TD*%
%TA.AperFunction,SMDPad,CuDef*%
%ADD12RoundRect,0.035000X0.105000X-0.700000X0.105000X0.700000X-0.105000X0.700000X-0.105000X-0.700000X0*%
%TD*%
%TA.AperFunction,SMDPad,CuDef*%
%ADD13RoundRect,0.250000X0.350000X0.450000X-0.350000X0.450000X-0.350000X-0.450000X0.350000X-0.450000X0*%
%TD*%
%TA.AperFunction,SMDPad,CuDef*%
%ADD14RoundRect,0.150000X-0.150000X0.587500X-0.150000X-0.587500X0.150000X-0.587500X0.150000X0.587500X0*%
%TD*%
%TA.AperFunction,SMDPad,CuDef*%
%ADD15RoundRect,0.250000X-0.475000X0.337500X-0.475000X-0.337500X0.475000X-0.337500X0.475000X0.337500X0*%
%TD*%
%TA.AperFunction,SMDPad,CuDef*%
%ADD16RoundRect,0.250000X-0.412500X-0.650000X0.412500X-0.650000X0.412500X0.650000X-0.412500X0.650000X0*%
%TD*%
%TA.AperFunction,SMDPad,CuDef*%
%ADD17RoundRect,0.250000X-0.350000X-0.450000X0.350000X-0.450000X0.350000X0.450000X-0.350000X0.450000X0*%
%TD*%
%TA.AperFunction,SMDPad,CuDef*%
%ADD18RoundRect,0.250000X-0.337500X-0.475000X0.337500X-0.475000X0.337500X0.475000X-0.337500X0.475000X0*%
%TD*%
%TA.AperFunction,ComponentPad*%
%ADD19R,1.397000X1.397000*%
%TD*%
%TA.AperFunction,ComponentPad*%
%ADD20C,1.397000*%
%TD*%
%TA.AperFunction,ComponentPad*%
%ADD21O,1.700000X1.700000*%
%TD*%
%TA.AperFunction,ComponentPad*%
%ADD22R,1.700000X1.700000*%
%TD*%
%TA.AperFunction,ComponentPad*%
%ADD23R,3.960000X1.980000*%
%TD*%
%TA.AperFunction,ComponentPad*%
%ADD24O,3.960000X1.980000*%
%TD*%
%TA.AperFunction,ViaPad*%
%ADD25C,0.800000*%
%TD*%
%TA.AperFunction,Conductor*%
%ADD26C,0.250000*%
%TD*%
%TA.AperFunction,Conductor*%
%ADD27C,0.700000*%
%TD*%
G04 APERTURE END LIST*
D10*
D11*
X86806453Y-56468228D02*
X86306453Y-55753942D01*
X85949310Y-56468228D02*
X85949310Y-54968228D01*
X85949310Y-54968228D02*
X86520739Y-54968228D01*
X86520739Y-54968228D02*
X86663596Y-55039657D01*
X86663596Y-55039657D02*
X86735025Y-55111085D01*
X86735025Y-55111085D02*
X86806453Y-55253942D01*
X86806453Y-55253942D02*
X86806453Y-55468228D01*
X86806453Y-55468228D02*
X86735025Y-55611085D01*
X86735025Y-55611085D02*
X86663596Y-55682514D01*
X86663596Y-55682514D02*
X86520739Y-55753942D01*
X86520739Y-55753942D02*
X85949310Y-55753942D01*
X87449310Y-56468228D02*
X87449310Y-54968228D01*
X87449310Y-54968228D02*
X88020739Y-54968228D01*
X88020739Y-54968228D02*
X88163596Y-55039657D01*
X88163596Y-55039657D02*
X88235025Y-55111085D01*
X88235025Y-55111085D02*
X88306453Y-55253942D01*
X88306453Y-55253942D02*
X88306453Y-55468228D01*
X88306453Y-55468228D02*
X88235025Y-55611085D01*
X88235025Y-55611085D02*
X88163596Y-55682514D01*
X88163596Y-55682514D02*
X88020739Y-55753942D01*
X88020739Y-55753942D02*
X87449310Y-55753942D01*
X88949310Y-55896800D02*
X90092168Y-55896800D01*
X90806453Y-54968228D02*
X90806453Y-56182514D01*
X90806453Y-56182514D02*
X90877882Y-56325371D01*
X90877882Y-56325371D02*
X90949311Y-56396800D01*
X90949311Y-56396800D02*
X91092168Y-56468228D01*
X91092168Y-56468228D02*
X91377882Y-56468228D01*
X91377882Y-56468228D02*
X91520739Y-56396800D01*
X91520739Y-56396800D02*
X91592168Y-56325371D01*
X91592168Y-56325371D02*
X91663596Y-56182514D01*
X91663596Y-56182514D02*
X91663596Y-54968228D01*
X92306454Y-56396800D02*
X92520740Y-56468228D01*
X92520740Y-56468228D02*
X92877882Y-56468228D01*
X92877882Y-56468228D02*
X93020740Y-56396800D01*
X93020740Y-56396800D02*
X93092168Y-56325371D01*
X93092168Y-56325371D02*
X93163597Y-56182514D01*
X93163597Y-56182514D02*
X93163597Y-56039657D01*
X93163597Y-56039657D02*
X93092168Y-55896800D01*
X93092168Y-55896800D02*
X93020740Y-55825371D01*
X93020740Y-55825371D02*
X92877882Y-55753942D01*
X92877882Y-55753942D02*
X92592168Y-55682514D01*
X92592168Y-55682514D02*
X92449311Y-55611085D01*
X92449311Y-55611085D02*
X92377882Y-55539657D01*
X92377882Y-55539657D02*
X92306454Y-55396800D01*
X92306454Y-55396800D02*
X92306454Y-55253942D01*
X92306454Y-55253942D02*
X92377882Y-55111085D01*
X92377882Y-55111085D02*
X92449311Y-55039657D01*
X92449311Y-55039657D02*
X92592168Y-54968228D01*
X92592168Y-54968228D02*
X92949311Y-54968228D01*
X92949311Y-54968228D02*
X93163597Y-55039657D01*
X94306453Y-55682514D02*
X94520739Y-55753942D01*
X94520739Y-55753942D02*
X94592168Y-55825371D01*
X94592168Y-55825371D02*
X94663596Y-55968228D01*
X94663596Y-55968228D02*
X94663596Y-56182514D01*
X94663596Y-56182514D02*
X94592168Y-56325371D01*
X94592168Y-56325371D02*
X94520739Y-56396800D01*
X94520739Y-56396800D02*
X94377882Y-56468228D01*
X94377882Y-56468228D02*
X93806453Y-56468228D01*
X93806453Y-56468228D02*
X93806453Y-54968228D01*
X93806453Y-54968228D02*
X94306453Y-54968228D01*
X94306453Y-54968228D02*
X94449311Y-55039657D01*
X94449311Y-55039657D02*
X94520739Y-55111085D01*
X94520739Y-55111085D02*
X94592168Y-55253942D01*
X94592168Y-55253942D02*
X94592168Y-55396800D01*
X94592168Y-55396800D02*
X94520739Y-55539657D01*
X94520739Y-55539657D02*
X94449311Y-55611085D01*
X94449311Y-55611085D02*
X94306453Y-55682514D01*
X94306453Y-55682514D02*
X93806453Y-55682514D01*
D10*
D11*
X101381425Y-105031628D02*
X102238568Y-105031628D01*
X101809996Y-106531628D02*
X101809996Y-105031628D01*
X103024282Y-105031628D02*
X103309996Y-105031628D01*
X103309996Y-105031628D02*
X103452853Y-105103057D01*
X103452853Y-105103057D02*
X103595710Y-105245914D01*
X103595710Y-105245914D02*
X103667139Y-105531628D01*
X103667139Y-105531628D02*
X103667139Y-106031628D01*
X103667139Y-106031628D02*
X103595710Y-106317342D01*
X103595710Y-106317342D02*
X103452853Y-106460200D01*
X103452853Y-106460200D02*
X103309996Y-106531628D01*
X103309996Y-106531628D02*
X103024282Y-106531628D01*
X103024282Y-106531628D02*
X102881425Y-106460200D01*
X102881425Y-106460200D02*
X102738567Y-106317342D01*
X102738567Y-106317342D02*
X102667139Y-106031628D01*
X102667139Y-106031628D02*
X102667139Y-105531628D01*
X102667139Y-105531628D02*
X102738567Y-105245914D01*
X102738567Y-105245914D02*
X102881425Y-105103057D01*
X102881425Y-105103057D02*
X103024282Y-105031628D01*
X104309996Y-106531628D02*
X104309996Y-105031628D01*
X104309996Y-105031628D02*
X104881425Y-105031628D01*
X104881425Y-105031628D02*
X105024282Y-105103057D01*
X105024282Y-105103057D02*
X105095711Y-105174485D01*
X105095711Y-105174485D02*
X105167139Y-105317342D01*
X105167139Y-105317342D02*
X105167139Y-105531628D01*
X105167139Y-105531628D02*
X105095711Y-105674485D01*
X105095711Y-105674485D02*
X105024282Y-105745914D01*
X105024282Y-105745914D02*
X104881425Y-105817342D01*
X104881425Y-105817342D02*
X104309996Y-105817342D01*
D10*
D11*
X49227225Y-106172942D02*
X49227225Y-106887228D01*
X48727225Y-105387228D02*
X49227225Y-106172942D01*
X49227225Y-106172942D02*
X49727225Y-105387228D01*
X50227224Y-106887228D02*
X50227224Y-105387228D01*
X51727225Y-105458657D02*
X51584368Y-105387228D01*
X51584368Y-105387228D02*
X51370082Y-105387228D01*
X51370082Y-105387228D02*
X51155796Y-105458657D01*
X51155796Y-105458657D02*
X51012939Y-105601514D01*
X51012939Y-105601514D02*
X50941510Y-105744371D01*
X50941510Y-105744371D02*
X50870082Y-106030085D01*
X50870082Y-106030085D02*
X50870082Y-106244371D01*
X50870082Y-106244371D02*
X50941510Y-106530085D01*
X50941510Y-106530085D02*
X51012939Y-106672942D01*
X51012939Y-106672942D02*
X51155796Y-106815800D01*
X51155796Y-106815800D02*
X51370082Y-106887228D01*
X51370082Y-106887228D02*
X51512939Y-106887228D01*
X51512939Y-106887228D02*
X51727225Y-106815800D01*
X51727225Y-106815800D02*
X51798653Y-106744371D01*
X51798653Y-106744371D02*
X51798653Y-106244371D01*
X51798653Y-106244371D02*
X51512939Y-106244371D01*
X53370082Y-105887228D02*
X53941510Y-105887228D01*
X53584367Y-106887228D02*
X53584367Y-105601514D01*
X53584367Y-105601514D02*
X53655796Y-105458657D01*
X53655796Y-105458657D02*
X53798653Y-105387228D01*
X53798653Y-105387228D02*
X53941510Y-105387228D01*
X54441510Y-106887228D02*
X54441510Y-105887228D01*
X54441510Y-105387228D02*
X54370082Y-105458657D01*
X54370082Y-105458657D02*
X54441510Y-105530085D01*
X54441510Y-105530085D02*
X54512939Y-105458657D01*
X54512939Y-105458657D02*
X54441510Y-105387228D01*
X54441510Y-105387228D02*
X54441510Y-105530085D01*
X55370082Y-106887228D02*
X55227225Y-106815800D01*
X55227225Y-106815800D02*
X55155796Y-106672942D01*
X55155796Y-106672942D02*
X55155796Y-105387228D01*
X55727225Y-105887228D02*
X56298653Y-105887228D01*
X55941510Y-105387228D02*
X55941510Y-106672942D01*
X55941510Y-106672942D02*
X56012939Y-106815800D01*
X56012939Y-106815800D02*
X56155796Y-106887228D01*
X56155796Y-106887228D02*
X56298653Y-106887228D01*
X57370082Y-106815800D02*
X57227225Y-106887228D01*
X57227225Y-106887228D02*
X56941511Y-106887228D01*
X56941511Y-106887228D02*
X56798653Y-106815800D01*
X56798653Y-106815800D02*
X56727225Y-106672942D01*
X56727225Y-106672942D02*
X56727225Y-106101514D01*
X56727225Y-106101514D02*
X56798653Y-105958657D01*
X56798653Y-105958657D02*
X56941511Y-105887228D01*
X56941511Y-105887228D02*
X57227225Y-105887228D01*
X57227225Y-105887228D02*
X57370082Y-105958657D01*
X57370082Y-105958657D02*
X57441511Y-106101514D01*
X57441511Y-106101514D02*
X57441511Y-106244371D01*
X57441511Y-106244371D02*
X56727225Y-106387228D01*
X58084367Y-106887228D02*
X58084367Y-105887228D01*
X58084367Y-106172942D02*
X58155796Y-106030085D01*
X58155796Y-106030085D02*
X58227225Y-105958657D01*
X58227225Y-105958657D02*
X58370082Y-105887228D01*
X58370082Y-105887228D02*
X58512939Y-105887228D01*
X60798653Y-106815800D02*
X60655795Y-106887228D01*
X60655795Y-106887228D02*
X60370081Y-106887228D01*
X60370081Y-106887228D02*
X60227224Y-106815800D01*
X60227224Y-106815800D02*
X60155795Y-106744371D01*
X60155795Y-106744371D02*
X60084367Y-106601514D01*
X60084367Y-106601514D02*
X60084367Y-106172942D01*
X60084367Y-106172942D02*
X60155795Y-106030085D01*
X60155795Y-106030085D02*
X60227224Y-105958657D01*
X60227224Y-105958657D02*
X60370081Y-105887228D01*
X60370081Y-105887228D02*
X60655795Y-105887228D01*
X60655795Y-105887228D02*
X60798653Y-105958657D01*
X62084367Y-105887228D02*
X62084367Y-106887228D01*
X61441509Y-105887228D02*
X61441509Y-106672942D01*
X61441509Y-106672942D02*
X61512938Y-106815800D01*
X61512938Y-106815800D02*
X61655795Y-106887228D01*
X61655795Y-106887228D02*
X61870081Y-106887228D01*
X61870081Y-106887228D02*
X62012938Y-106815800D01*
X62012938Y-106815800D02*
X62084367Y-106744371D01*
X62798652Y-106887228D02*
X62798652Y-105887228D01*
X62798652Y-106172942D02*
X62870081Y-106030085D01*
X62870081Y-106030085D02*
X62941510Y-105958657D01*
X62941510Y-105958657D02*
X63084367Y-105887228D01*
X63084367Y-105887228D02*
X63227224Y-105887228D01*
X63727223Y-106887228D02*
X63727223Y-105887228D01*
X63727223Y-106172942D02*
X63798652Y-106030085D01*
X63798652Y-106030085D02*
X63870081Y-105958657D01*
X63870081Y-105958657D02*
X64012938Y-105887228D01*
X64012938Y-105887228D02*
X64155795Y-105887228D01*
X65227223Y-106815800D02*
X65084366Y-106887228D01*
X65084366Y-106887228D02*
X64798652Y-106887228D01*
X64798652Y-106887228D02*
X64655794Y-106815800D01*
X64655794Y-106815800D02*
X64584366Y-106672942D01*
X64584366Y-106672942D02*
X64584366Y-106101514D01*
X64584366Y-106101514D02*
X64655794Y-105958657D01*
X64655794Y-105958657D02*
X64798652Y-105887228D01*
X64798652Y-105887228D02*
X65084366Y-105887228D01*
X65084366Y-105887228D02*
X65227223Y-105958657D01*
X65227223Y-105958657D02*
X65298652Y-106101514D01*
X65298652Y-106101514D02*
X65298652Y-106244371D01*
X65298652Y-106244371D02*
X64584366Y-106387228D01*
X65941508Y-105887228D02*
X65941508Y-106887228D01*
X65941508Y-106030085D02*
X66012937Y-105958657D01*
X66012937Y-105958657D02*
X66155794Y-105887228D01*
X66155794Y-105887228D02*
X66370080Y-105887228D01*
X66370080Y-105887228D02*
X66512937Y-105958657D01*
X66512937Y-105958657D02*
X66584366Y-106101514D01*
X66584366Y-106101514D02*
X66584366Y-106887228D01*
X67084366Y-105887228D02*
X67655794Y-105887228D01*
X67298651Y-105387228D02*
X67298651Y-106672942D01*
X67298651Y-106672942D02*
X67370080Y-106815800D01*
X67370080Y-106815800D02*
X67512937Y-106887228D01*
X67512937Y-106887228D02*
X67655794Y-106887228D01*
X69298651Y-106887228D02*
X69298651Y-105887228D01*
X69298651Y-106172942D02*
X69370080Y-106030085D01*
X69370080Y-106030085D02*
X69441509Y-105958657D01*
X69441509Y-105958657D02*
X69584366Y-105887228D01*
X69584366Y-105887228D02*
X69727223Y-105887228D01*
X70798651Y-106815800D02*
X70655794Y-106887228D01*
X70655794Y-106887228D02*
X70370080Y-106887228D01*
X70370080Y-106887228D02*
X70227222Y-106815800D01*
X70227222Y-106815800D02*
X70155794Y-106672942D01*
X70155794Y-106672942D02*
X70155794Y-106101514D01*
X70155794Y-106101514D02*
X70227222Y-105958657D01*
X70227222Y-105958657D02*
X70370080Y-105887228D01*
X70370080Y-105887228D02*
X70655794Y-105887228D01*
X70655794Y-105887228D02*
X70798651Y-105958657D01*
X70798651Y-105958657D02*
X70870080Y-106101514D01*
X70870080Y-106101514D02*
X70870080Y-106244371D01*
X70870080Y-106244371D02*
X70155794Y-106387228D01*
X72155794Y-105887228D02*
X72155794Y-107101514D01*
X72155794Y-107101514D02*
X72084365Y-107244371D01*
X72084365Y-107244371D02*
X72012936Y-107315800D01*
X72012936Y-107315800D02*
X71870079Y-107387228D01*
X71870079Y-107387228D02*
X71655794Y-107387228D01*
X71655794Y-107387228D02*
X71512936Y-107315800D01*
X72155794Y-106815800D02*
X72012936Y-106887228D01*
X72012936Y-106887228D02*
X71727222Y-106887228D01*
X71727222Y-106887228D02*
X71584365Y-106815800D01*
X71584365Y-106815800D02*
X71512936Y-106744371D01*
X71512936Y-106744371D02*
X71441508Y-106601514D01*
X71441508Y-106601514D02*
X71441508Y-106172942D01*
X71441508Y-106172942D02*
X71512936Y-106030085D01*
X71512936Y-106030085D02*
X71584365Y-105958657D01*
X71584365Y-105958657D02*
X71727222Y-105887228D01*
X71727222Y-105887228D02*
X72012936Y-105887228D01*
X72012936Y-105887228D02*
X72155794Y-105958657D01*
X73512937Y-105887228D02*
X73512937Y-106887228D01*
X72870079Y-105887228D02*
X72870079Y-106672942D01*
X72870079Y-106672942D02*
X72941508Y-106815800D01*
X72941508Y-106815800D02*
X73084365Y-106887228D01*
X73084365Y-106887228D02*
X73298651Y-106887228D01*
X73298651Y-106887228D02*
X73441508Y-106815800D01*
X73441508Y-106815800D02*
X73512937Y-106744371D01*
X74441508Y-106887228D02*
X74298651Y-106815800D01*
X74298651Y-106815800D02*
X74227222Y-106672942D01*
X74227222Y-106672942D02*
X74227222Y-105387228D01*
X75655794Y-106887228D02*
X75655794Y-106101514D01*
X75655794Y-106101514D02*
X75584365Y-105958657D01*
X75584365Y-105958657D02*
X75441508Y-105887228D01*
X75441508Y-105887228D02*
X75155794Y-105887228D01*
X75155794Y-105887228D02*
X75012936Y-105958657D01*
X75655794Y-106815800D02*
X75512936Y-106887228D01*
X75512936Y-106887228D02*
X75155794Y-106887228D01*
X75155794Y-106887228D02*
X75012936Y-106815800D01*
X75012936Y-106815800D02*
X74941508Y-106672942D01*
X74941508Y-106672942D02*
X74941508Y-106530085D01*
X74941508Y-106530085D02*
X75012936Y-106387228D01*
X75012936Y-106387228D02*
X75155794Y-106315800D01*
X75155794Y-106315800D02*
X75512936Y-106315800D01*
X75512936Y-106315800D02*
X75655794Y-106244371D01*
X76155794Y-105887228D02*
X76727222Y-105887228D01*
X76370079Y-105387228D02*
X76370079Y-106672942D01*
X76370079Y-106672942D02*
X76441508Y-106815800D01*
X76441508Y-106815800D02*
X76584365Y-106887228D01*
X76584365Y-106887228D02*
X76727222Y-106887228D01*
X77441508Y-106887228D02*
X77298651Y-106815800D01*
X77298651Y-106815800D02*
X77227222Y-106744371D01*
X77227222Y-106744371D02*
X77155794Y-106601514D01*
X77155794Y-106601514D02*
X77155794Y-106172942D01*
X77155794Y-106172942D02*
X77227222Y-106030085D01*
X77227222Y-106030085D02*
X77298651Y-105958657D01*
X77298651Y-105958657D02*
X77441508Y-105887228D01*
X77441508Y-105887228D02*
X77655794Y-105887228D01*
X77655794Y-105887228D02*
X77798651Y-105958657D01*
X77798651Y-105958657D02*
X77870080Y-106030085D01*
X77870080Y-106030085D02*
X77941508Y-106172942D01*
X77941508Y-106172942D02*
X77941508Y-106601514D01*
X77941508Y-106601514D02*
X77870080Y-106744371D01*
X77870080Y-106744371D02*
X77798651Y-106815800D01*
X77798651Y-106815800D02*
X77655794Y-106887228D01*
X77655794Y-106887228D02*
X77441508Y-106887228D01*
X78584365Y-106887228D02*
X78584365Y-105887228D01*
X78584365Y-106172942D02*
X78655794Y-106030085D01*
X78655794Y-106030085D02*
X78727223Y-105958657D01*
X78727223Y-105958657D02*
X78870080Y-105887228D01*
X78870080Y-105887228D02*
X79012937Y-105887228D01*
D12*
%TO.P,IC1,1,VOUTA*%
%TO.N,/VoutA*%
X65802000Y-67758200D03*
%TO.P,IC1,2,VOUTB*%
%TO.N,/VoutB*%
X66302000Y-67758200D03*
%TO.P,IC1,3,GND*%
%TO.N,GND*%
X66802000Y-67758200D03*
%TO.P,IC1,4,~{LDAC}*%
%TO.N,/{slash}LDAC*%
X67302000Y-67758200D03*
%TO.P,IC1,5,~{CLR}*%
%TO.N,/{slash}CLR*%
X67802000Y-67758200D03*
%TO.P,IC1,6,~{SYNC}*%
%TO.N,/{slash}SYNC*%
X67802000Y-63458200D03*
%TO.P,IC1,7,SCLK*%
%TO.N,/SCLK*%
X67302000Y-63458200D03*
%TO.P,IC1,8,DIN*%
%TO.N,/DIN*%
X66802000Y-63458200D03*
%TO.P,IC1,9,AVDD*%
%TO.N,/Vdd*%
X66302000Y-63458200D03*
%TO.P,IC1,10,VREFIN/VREFOUT*%
%TO.N,/Vref*%
X65802000Y-63458200D03*
%TD*%
D13*
%TO.P,R2,1*%
%TO.N,GND*%
X62595000Y-81076800D03*
%TO.P,R2,2*%
%TO.N,Net-(Q1-E)*%
X60595000Y-81076800D03*
%TD*%
%TO.P,R1,1*%
%TO.N,Net-(U2-OUTA)*%
X54877300Y-88138000D03*
%TO.P,R1,2*%
%TO.N,Net-(Q1-B)*%
X52877300Y-88138000D03*
%TD*%
D14*
%TO.P,Q1,1,C*%
%TO.N,/YIG_TUNE_NEG*%
X54696400Y-81993500D03*
%TO.P,Q1,2,B*%
%TO.N,Net-(Q1-B)*%
X52796400Y-81993500D03*
%TO.P,Q1,3,E*%
%TO.N,Net-(Q1-E)*%
X53746400Y-83868500D03*
%TD*%
D13*
%TO.P,R4,1*%
%TO.N,GND*%
X67395600Y-84531200D03*
%TO.P,R4,2*%
%TO.N,Net-(U2-+INA)*%
X65395600Y-84531200D03*
%TD*%
D15*
%TO.P,C2,1*%
%TO.N,/Vdd*%
X59029600Y-93069500D03*
%TO.P,C2,2*%
%TO.N,GND*%
X59029600Y-95144500D03*
%TD*%
D16*
%TO.P,C3,1*%
%TO.N,/Vdd*%
X65112500Y-54838600D03*
%TO.P,C3,2*%
%TO.N,GND*%
X68237500Y-54838600D03*
%TD*%
D17*
%TO.P,R3,1*%
%TO.N,Net-(U2-+INA)*%
X65344800Y-81686400D03*
%TO.P,R3,2*%
%TO.N,/VoutA*%
X67344800Y-81686400D03*
%TD*%
D15*
%TO.P,C1,1*%
%TO.N,/Vref*%
X62077600Y-63402300D03*
%TO.P,C1,2*%
%TO.N,GND*%
X62077600Y-65477300D03*
%TD*%
D18*
%TO.P,C4,1*%
%TO.N,/Vdd*%
X65633600Y-58851800D03*
%TO.P,C4,2*%
%TO.N,GND*%
X67708600Y-58851800D03*
%TD*%
D19*
%TO.P,U2,1,OUTA*%
%TO.N,Net-(U2-OUTA)*%
X69824600Y-88823800D03*
D20*
%TO.P,U2,2,-INA*%
%TO.N,Net-(Q1-E)*%
X69824600Y-91363800D03*
%TO.P,U2,3,+INA*%
%TO.N,Net-(U2-+INA)*%
X69824600Y-93903800D03*
%TO.P,U2,4,V-*%
%TO.N,GND*%
X69824600Y-96443800D03*
%TO.P,U2,5,+INB*%
%TO.N,unconnected-(U2-+INB-Pad5)*%
X62204600Y-96443800D03*
%TO.P,U2,6,-INB*%
%TO.N,unconnected-(U2--INB-Pad6)*%
X62204600Y-93903800D03*
%TO.P,U2,7,OUTB*%
%TO.N,unconnected-(U2-OUTB-Pad7)*%
X62204600Y-91363800D03*
%TO.P,U2,8,V+*%
%TO.N,/Vdd*%
X62204600Y-88823800D03*
%TD*%
D21*
%TO.P,U1,1,GPIO0*%
%TO.N,unconnected-(U1-GPIO0-Pad1)_0*%
X98755200Y-53873400D03*
%TO.P,U1,2,GPIO1*%
%TO.N,unconnected-(U1-GPIO1-Pad2)*%
X98755200Y-56413400D03*
D22*
%TO.P,U1,3,GND*%
%TO.N,GND*%
X98755200Y-58953400D03*
D21*
%TO.P,U1,4,GPIO2*%
%TO.N,/SCLK*%
X98755200Y-61493400D03*
%TO.P,U1,5,GPIO3*%
%TO.N,/DIN*%
X98755200Y-64033400D03*
%TO.P,U1,6,GPIO4*%
%TO.N,/{slash}SYNC*%
X98755200Y-66573400D03*
%TO.P,U1,7,GPIO5*%
%TO.N,/{slash}LDAC*%
X98755200Y-69113400D03*
D22*
%TO.P,U1,8,GND*%
%TO.N,GND*%
X98755200Y-71653400D03*
D21*
%TO.P,U1,9,GPIO6*%
%TO.N,/{slash}CLR*%
X98755200Y-74193400D03*
%TO.P,U1,10,GPIO7*%
%TO.N,unconnected-(U1-GPIO7-Pad10)*%
X98755200Y-76733400D03*
%TO.P,U1,11,GPIO8*%
%TO.N,unconnected-(U1-GPIO8-Pad11)*%
X98755200Y-79273400D03*
%TO.P,U1,12,GPIO9*%
%TO.N,unconnected-(U1-GPIO9-Pad12)*%
X98755200Y-81813400D03*
D22*
%TO.P,U1,13,GND*%
%TO.N,GND*%
X98755200Y-84353400D03*
D21*
%TO.P,U1,14,GPIO10*%
%TO.N,unconnected-(U1-GPIO10-Pad14)_0*%
X98755200Y-86893400D03*
%TO.P,U1,15,GPIO11*%
%TO.N,unconnected-(U1-GPIO11-Pad15)*%
X98755200Y-89433400D03*
%TO.P,U1,16,GPIO12*%
%TO.N,unconnected-(U1-GPIO12-Pad16)*%
X98755200Y-91973400D03*
%TO.P,U1,17,GPIO13*%
%TO.N,unconnected-(U1-GPIO13-Pad17)_0*%
X98755200Y-94513400D03*
D22*
%TO.P,U1,18,GND*%
%TO.N,GND*%
X98755200Y-97053400D03*
D21*
%TO.P,U1,19,GPIO14*%
%TO.N,unconnected-(U1-GPIO14-Pad19)*%
X98755200Y-99593400D03*
%TO.P,U1,20,GPIO15*%
%TO.N,unconnected-(U1-GPIO15-Pad20)*%
X98755200Y-102133400D03*
%TO.P,U1,21,GPIO16*%
%TO.N,unconnected-(U1-GPIO16-Pad21)_0*%
X80975200Y-102133400D03*
%TO.P,U1,22,GPIO17*%
%TO.N,unconnected-(U1-GPIO17-Pad22)_0*%
X80975200Y-99593400D03*
D22*
%TO.P,U1,23,GND*%
%TO.N,GND*%
X80975200Y-97053400D03*
D21*
%TO.P,U1,24,GPIO18*%
%TO.N,unconnected-(U1-GPIO18-Pad24)*%
X80975200Y-94513400D03*
%TO.P,U1,25,GPIO19*%
%TO.N,unconnected-(U1-GPIO19-Pad25)*%
X80975200Y-91973400D03*
%TO.P,U1,26,GPIO20*%
%TO.N,unconnected-(U1-GPIO20-Pad26)*%
X80975200Y-89433400D03*
%TO.P,U1,27,GPIO21*%
%TO.N,unconnected-(U1-GPIO21-Pad27)*%
X80975200Y-86893400D03*
D22*
%TO.P,U1,28,GND*%
%TO.N,GND*%
X80975200Y-84353400D03*
D21*
%TO.P,U1,29,GPIO22*%
%TO.N,unconnected-(U1-GPIO22-Pad29)_0*%
X80975200Y-81813400D03*
%TO.P,U1,30,RUN*%
%TO.N,unconnected-(U1-RUN-Pad30)*%
X80975200Y-79273400D03*
%TO.P,U1,31,GPIO26_ADC0*%
%TO.N,unconnected-(U1-GPIO26_ADC0-Pad31)*%
X80975200Y-76733400D03*
%TO.P,U1,32,GPIO27_ADC1*%
%TO.N,unconnected-(U1-GPIO27_ADC1-Pad32)_0*%
X80975200Y-74193400D03*
D22*
%TO.P,U1,33,AGND*%
%TO.N,GND*%
X80975200Y-71653400D03*
D21*
%TO.P,U1,34,GPIO28_ADC2*%
%TO.N,unconnected-(U1-GPIO28_ADC2-Pad34)_0*%
X80975200Y-69113400D03*
%TO.P,U1,35,ADC_VREF*%
%TO.N,unconnected-(U1-ADC_VREF-Pad35)_0*%
X80975200Y-66573400D03*
%TO.P,U1,36,3V3*%
%TO.N,unconnected-(U1-3V3-Pad36)_0*%
X80975200Y-64033400D03*
%TO.P,U1,37,3V3_EN*%
%TO.N,unconnected-(U1-3V3_EN-Pad37)*%
X80975200Y-61493400D03*
D22*
%TO.P,U1,38,GND*%
%TO.N,GND*%
X80975200Y-58953400D03*
D21*
%TO.P,U1,39,VSYS*%
%TO.N,unconnected-(U1-VSYS-Pad39)_0*%
X80975200Y-56413400D03*
%TO.P,U1,40,VBUS*%
%TO.N,unconnected-(U1-VBUS-Pad40)_0*%
X80975200Y-53873400D03*
%TO.P,U1,41,SWCLK*%
%TO.N,unconnected-(U1-SWCLK-Pad41)*%
X92405200Y-101903400D03*
D22*
%TO.P,U1,42,GND*%
%TO.N,GND*%
X89865200Y-101903400D03*
D21*
%TO.P,U1,43,SWDIO*%
%TO.N,unconnected-(U1-SWDIO-Pad43)_0*%
X87325200Y-101903400D03*
%TD*%
D23*
%TO.P,J1,1,Pin_1*%
%TO.N,/Vdd*%
X54254400Y-63187600D03*
D24*
%TO.P,J1,2,Pin_2*%
%TO.N,GND*%
X54254400Y-58187600D03*
%TO.P,J1,3,Pin_3*%
%TO.N,/YIG_TUNE_NEG*%
X54254400Y-53187600D03*
%TD*%
D25*
%TO.N,GND*%
X105161200Y-107244000D03*
X105161200Y-102244000D03*
X105161200Y-97244000D03*
X105161200Y-92244000D03*
X105161200Y-87244000D03*
X105161200Y-82244000D03*
X105161200Y-77244000D03*
X105161200Y-72244000D03*
X105161200Y-67244000D03*
X105161200Y-62244000D03*
X105161200Y-57244000D03*
X105161200Y-52244000D03*
X100161200Y-107244000D03*
X95161200Y-107244000D03*
X95161200Y-102244000D03*
X95161200Y-97244000D03*
X95161200Y-92244000D03*
X95161200Y-87244000D03*
X95161200Y-82244000D03*
X95161200Y-77244000D03*
X95161200Y-72244000D03*
X95161200Y-57244000D03*
X95161200Y-52244000D03*
X90161200Y-107244000D03*
X90161200Y-97244000D03*
X90161200Y-92244000D03*
X90161200Y-87244000D03*
X90161200Y-82244000D03*
X90161200Y-77244000D03*
X90161200Y-72244000D03*
X90161200Y-52244000D03*
X85161200Y-107244000D03*
X85161200Y-97244000D03*
X85161200Y-92244000D03*
X85161200Y-87244000D03*
X85161200Y-82244000D03*
X85161200Y-77244000D03*
X85161200Y-72244000D03*
X85161200Y-57244000D03*
X80161200Y-107244000D03*
X75161200Y-102244000D03*
X75161200Y-97244000D03*
X75161200Y-82244000D03*
X75161200Y-77244000D03*
X75161200Y-57244000D03*
X75161200Y-52244000D03*
X70161200Y-102244000D03*
X70161200Y-82244000D03*
X70161200Y-77244000D03*
X70161200Y-57244000D03*
X70161200Y-52244000D03*
X65161200Y-102244000D03*
X65161200Y-97244000D03*
X65161200Y-77244000D03*
X65161200Y-52244000D03*
X60161200Y-102244000D03*
X60161200Y-77244000D03*
X60161200Y-72244000D03*
X60161200Y-57244000D03*
X55161200Y-102244000D03*
X55161200Y-97244000D03*
X50161200Y-102244000D03*
X50161200Y-97244000D03*
X50161200Y-67244000D03*
%TD*%
D26*
%TO.N,GND*%
X66802000Y-68986400D02*
X66802000Y-70154800D01*
X65807500Y-65477300D02*
X62077600Y-65477300D01*
X66802000Y-70154800D02*
X67640200Y-70993000D01*
X66802000Y-66471800D02*
X66802000Y-68986400D01*
X66802000Y-67758200D02*
X66802000Y-66471800D01*
X66802000Y-66471800D02*
X65807500Y-65477300D01*
%TO.N,/Vref*%
X62133500Y-63458200D02*
X62077600Y-63402300D01*
X65802000Y-63458200D02*
X62133500Y-63458200D01*
D27*
%TO.N,Net-(U2-OUTA)*%
X71018400Y-88823800D02*
X69824600Y-88823800D01*
X68423700Y-92655300D02*
X71479500Y-92655300D01*
X55440000Y-87575300D02*
X55477500Y-87575300D01*
X72440800Y-90246200D02*
X71018400Y-88823800D01*
X55477500Y-87575300D02*
X56540400Y-86512400D01*
X54877300Y-88138000D02*
X55440000Y-87575300D01*
X71479500Y-92655300D02*
X72440800Y-91694000D01*
X62280800Y-86512400D02*
X68423700Y-92655300D01*
X72440800Y-91694000D02*
X72440800Y-90246200D01*
X56540400Y-86512400D02*
X62280800Y-86512400D01*
%TO.N,/Vdd*%
X51993800Y-50749200D02*
X58514000Y-50749200D01*
X65637500Y-54838600D02*
X65637500Y-58847900D01*
X62603400Y-54838600D02*
X65112500Y-54838600D01*
X54254400Y-71704200D02*
X49047400Y-76911200D01*
X54254400Y-63187600D02*
X54254400Y-71704200D01*
D26*
X65633600Y-58851800D02*
X65633600Y-60934600D01*
D27*
X50368200Y-52374800D02*
X51993800Y-50749200D01*
D26*
X66294000Y-61595000D02*
X66294000Y-61747400D01*
D27*
X59029600Y-91998800D02*
X62204600Y-88823800D01*
X58514000Y-50749200D02*
X62603400Y-54838600D01*
X65637500Y-58847900D02*
X65633600Y-58851800D01*
D26*
X66302000Y-61755400D02*
X66302000Y-63458200D01*
D27*
X49047400Y-89255600D02*
X52861300Y-93069500D01*
X52861300Y-93069500D02*
X59029600Y-93069500D01*
X65535900Y-54737000D02*
X65637500Y-54838600D01*
D26*
X66294000Y-61747400D02*
X66302000Y-61755400D01*
D27*
X54254400Y-63187600D02*
X50368200Y-59301400D01*
X49047400Y-76911200D02*
X49047400Y-89255600D01*
X50368200Y-59301400D02*
X50368200Y-52374800D01*
D26*
X65633600Y-60934600D02*
X66294000Y-61595000D01*
D27*
X59029600Y-93069500D02*
X59029600Y-91998800D01*
D26*
%TO.N,/DIN*%
X97580200Y-65208400D02*
X67737112Y-65208400D01*
X98755200Y-64033400D02*
X97580200Y-65208400D01*
X67737112Y-65208400D02*
X66802000Y-64273288D01*
X66802000Y-64273288D02*
X66802000Y-63458200D01*
%TO.N,/{slash}SYNC*%
X100221800Y-62858400D02*
X101117400Y-63754000D01*
X100609400Y-66573400D02*
X98755200Y-66573400D01*
X68401800Y-62858400D02*
X100221800Y-62858400D01*
X101117400Y-63754000D02*
X101117400Y-66065400D01*
X101117400Y-66065400D02*
X100609400Y-66573400D01*
X67802000Y-63458200D02*
X68401800Y-62858400D01*
%TO.N,/SCLK*%
X67302000Y-62643112D02*
X67302000Y-63458200D01*
X69626712Y-60318400D02*
X67302000Y-62643112D01*
X97580200Y-60318400D02*
X69626712Y-60318400D01*
X98755200Y-61493400D02*
X97580200Y-60318400D01*
%TO.N,/{slash}CLR*%
X67802000Y-67758200D02*
X67802000Y-68183000D01*
X85769200Y-75368400D02*
X86944200Y-74193400D01*
X74987400Y-75368400D02*
X85769200Y-75368400D01*
X86944200Y-74193400D02*
X98755200Y-74193400D01*
X67802000Y-68183000D02*
X74987400Y-75368400D01*
%TO.N,/{slash}LDAC*%
X67640200Y-66065400D02*
X77647800Y-66065400D01*
X67302000Y-67758200D02*
X67302000Y-66403600D01*
X97580200Y-67938400D02*
X98755200Y-69113400D01*
X79520800Y-67938400D02*
X97580200Y-67938400D01*
X77647800Y-66065400D02*
X79520800Y-67938400D01*
X67302000Y-66403600D02*
X67640200Y-66065400D01*
D27*
%TO.N,/VoutA*%
X67344800Y-81686400D02*
X67344800Y-74863200D01*
D26*
X65760600Y-70662800D02*
X65802000Y-70621400D01*
D27*
X67344800Y-74863200D02*
X65760600Y-73279000D01*
D26*
X65802000Y-70621400D02*
X65802000Y-67758200D01*
D27*
X65760600Y-73279000D02*
X65760600Y-70662800D01*
%TO.N,/YIG_TUNE_NEG*%
X54762400Y-53187600D02*
X58343800Y-56769000D01*
X58343800Y-71978600D02*
X54696400Y-75626000D01*
X54254400Y-53187600D02*
X54762400Y-53187600D01*
X58343800Y-56769000D02*
X58343800Y-71978600D01*
X54696400Y-75626000D02*
X54696400Y-81993500D01*
%TO.N,Net-(Q1-E)*%
X53746400Y-83868500D02*
X57803300Y-83868500D01*
X69799200Y-91363800D02*
X69824600Y-91363800D01*
X60595000Y-81076800D02*
X60595000Y-82159600D01*
X60595000Y-82159600D02*
X69799200Y-91363800D01*
X57803300Y-83868500D02*
X60595000Y-81076800D01*
%TO.N,Net-(Q1-B)*%
X52796400Y-81993500D02*
X51587400Y-83202500D01*
X51587400Y-86848100D02*
X52877300Y-88138000D01*
X51587400Y-83202500D02*
X51587400Y-86848100D01*
%TO.N,Net-(U2-+INA)*%
X65344800Y-81686400D02*
X65344800Y-84480400D01*
X65344800Y-84480400D02*
X65395600Y-84531200D01*
X72288400Y-93903800D02*
X69824600Y-93903800D01*
X65395600Y-84531200D02*
X65457302Y-84531200D01*
X65457302Y-84531200D02*
X67641702Y-86715600D01*
X65395600Y-84531200D02*
X65395600Y-84648800D01*
X73939400Y-87630000D02*
X73939400Y-92252800D01*
X67641702Y-86715600D02*
X73025000Y-86715600D01*
X73025000Y-86715600D02*
X73939400Y-87630000D01*
X73939400Y-92252800D02*
X72288400Y-93903800D01*
%TD*%
%TA.AperFunction,Conductor*%
%TO.N,GND*%
G36*
X58260231Y-51419385D02*
G01*
X58280873Y-51436019D01*
X62188725Y-55343872D01*
X62188726Y-55343873D01*
X62188729Y-55343875D01*
X62188731Y-55343877D01*
X62295273Y-55415065D01*
X62413656Y-55464101D01*
X62413660Y-55464101D01*
X62413661Y-55464102D01*
X62539328Y-55489100D01*
X62539331Y-55489100D01*
X64034384Y-55489100D01*
X64101423Y-55508785D01*
X64147178Y-55561589D01*
X64157500Y-55598318D01*
X64160122Y-55620161D01*
X64215639Y-55760943D01*
X64307077Y-55881522D01*
X64427656Y-55972960D01*
X64427657Y-55972960D01*
X64427658Y-55972961D01*
X64568436Y-56028477D01*
X64656898Y-56039100D01*
X64863000Y-56039100D01*
X64930039Y-56058785D01*
X64975794Y-56111589D01*
X64987000Y-56163100D01*
X64987000Y-57858724D01*
X64967315Y-57925763D01*
X64937927Y-57957527D01*
X64903176Y-57983879D01*
X64903174Y-57983882D01*
X64811739Y-58104456D01*
X64756222Y-58245238D01*
X64755338Y-58252604D01*
X64745600Y-58333698D01*
X64745600Y-59369902D01*
X64746427Y-59376786D01*
X64756222Y-59458361D01*
X64756222Y-59458363D01*
X64756223Y-59458364D01*
X64758209Y-59463400D01*
X64811739Y-59599143D01*
X64903177Y-59719722D01*
X65023757Y-59811161D01*
X65047214Y-59820411D01*
X65129590Y-59852896D01*
X65184734Y-59895801D01*
X65207927Y-59961709D01*
X65208100Y-59968250D01*
X65208100Y-60990617D01*
X65237097Y-61098836D01*
X65237098Y-61098839D01*
X65255769Y-61131179D01*
X65293115Y-61195863D01*
X65293117Y-61195865D01*
X65833858Y-61736606D01*
X65866098Y-61795649D01*
X65866397Y-61795569D01*
X65866727Y-61796801D01*
X65867343Y-61797929D01*
X65867927Y-61801282D01*
X65872275Y-61817507D01*
X65876500Y-61849599D01*
X65876500Y-62298700D01*
X65856815Y-62365739D01*
X65804011Y-62411494D01*
X65752500Y-62422700D01*
X65657683Y-62422700D01*
X65608828Y-62429131D01*
X65501595Y-62479135D01*
X65417935Y-62562795D01*
X65367931Y-62670028D01*
X65361500Y-62718883D01*
X65361500Y-62908700D01*
X65341815Y-62975739D01*
X65289011Y-63021494D01*
X65237500Y-63032700D01*
X63214175Y-63032700D01*
X63147136Y-63013015D01*
X63101381Y-62960211D01*
X63093956Y-62939087D01*
X63092478Y-62933240D01*
X63092477Y-62933238D01*
X63092477Y-62933236D01*
X63036961Y-62792458D01*
X63036960Y-62792457D01*
X63036960Y-62792456D01*
X62945522Y-62671877D01*
X62824943Y-62580439D01*
X62684161Y-62524922D01*
X62638526Y-62519442D01*
X62595702Y-62514300D01*
X61559498Y-62514300D01*
X61520453Y-62518988D01*
X61471038Y-62524922D01*
X61330256Y-62580439D01*
X61209677Y-62671877D01*
X61118239Y-62792456D01*
X61062722Y-62933238D01*
X61057619Y-62975739D01*
X61052100Y-63021698D01*
X61052100Y-63782902D01*
X61056686Y-63821089D01*
X61062722Y-63871361D01*
X61118239Y-64012143D01*
X61209677Y-64132722D01*
X61337016Y-64229286D01*
X61335628Y-64231115D01*
X61375915Y-64272418D01*
X61389916Y-64340871D01*
X61364687Y-64406026D01*
X61308236Y-64447198D01*
X61305359Y-64448191D01*
X61283482Y-64455440D01*
X61283475Y-64455443D01*
X61134254Y-64547484D01*
X61010284Y-64671454D01*
X60918243Y-64820675D01*
X60918241Y-64820680D01*
X60863094Y-64987102D01*
X60863093Y-64987109D01*
X60852600Y-65089813D01*
X60852600Y-65227300D01*
X63302599Y-65227300D01*
X63302599Y-65089828D01*
X63302598Y-65089813D01*
X63292105Y-64987102D01*
X63236958Y-64820680D01*
X63236956Y-64820675D01*
X63144915Y-64671454D01*
X63020945Y-64547484D01*
X62871724Y-64455443D01*
X62871721Y-64455442D01*
X62849841Y-64448192D01*
X62792397Y-64408419D01*
X62765574Y-64343903D01*
X62777889Y-64275127D01*
X62819205Y-64230632D01*
X62818184Y-64229286D01*
X62945522Y-64132722D01*
X63036959Y-64012144D01*
X63036961Y-64012142D01*
X63056652Y-63962208D01*
X63099557Y-63907066D01*
X63165465Y-63883873D01*
X63172006Y-63883700D01*
X65237500Y-63883700D01*
X65304539Y-63903385D01*
X65350294Y-63956189D01*
X65361500Y-64007700D01*
X65361500Y-64197516D01*
X65367931Y-64246371D01*
X65367932Y-64246373D01*
X65417935Y-64353604D01*
X65501596Y-64437265D01*
X65608827Y-64487268D01*
X65657683Y-64493700D01*
X65657684Y-64493700D01*
X65946317Y-64493700D01*
X65958530Y-64492092D01*
X65995173Y-64487268D01*
X65999589Y-64485208D01*
X66068664Y-64474712D01*
X66104409Y-64485207D01*
X66108827Y-64487268D01*
X66119074Y-64488617D01*
X66157683Y-64493700D01*
X66157684Y-64493700D01*
X66369302Y-64493700D01*
X66436341Y-64513385D01*
X66456983Y-64530019D01*
X67437707Y-65510743D01*
X67471192Y-65572066D01*
X67466208Y-65641758D01*
X67424336Y-65697691D01*
X67412026Y-65705811D01*
X67378940Y-65724913D01*
X67378934Y-65724917D01*
X66961517Y-66142334D01*
X66961513Y-66142340D01*
X66905498Y-66239360D01*
X66905497Y-66239363D01*
X66876500Y-66347582D01*
X66876500Y-66438338D01*
X66856815Y-66505377D01*
X66804011Y-66551132D01*
X66734853Y-66561076D01*
X66671297Y-66532051D01*
X66664819Y-66526019D01*
X66662000Y-66523200D01*
X66655116Y-66523200D01*
X66569141Y-66533524D01*
X66432323Y-66587478D01*
X66315138Y-66676342D01*
X66309143Y-66682338D01*
X66307556Y-66680751D01*
X66261006Y-66715149D01*
X66218396Y-66722700D01*
X66157683Y-66722700D01*
X66108827Y-66729131D01*
X66108825Y-66729132D01*
X66104402Y-66731195D01*
X66035325Y-66741686D01*
X65999598Y-66731195D01*
X65995174Y-66729132D01*
X65995172Y-66729131D01*
X65946317Y-66722700D01*
X65946316Y-66722700D01*
X65657684Y-66722700D01*
X65657683Y-66722700D01*
X65608828Y-66729131D01*
X65501595Y-66779135D01*
X65417935Y-66862795D01*
X65367931Y-66970028D01*
X65361500Y-67018883D01*
X65361500Y-68497516D01*
X65367931Y-68546372D01*
X65370586Y-68555478D01*
X65368484Y-68556090D01*
X65376500Y-68592236D01*
X65376500Y-70075592D01*
X65356815Y-70142631D01*
X65340181Y-70163273D01*
X65255326Y-70248127D01*
X65255323Y-70248131D01*
X65184138Y-70354666D01*
X65184133Y-70354675D01*
X65135099Y-70473055D01*
X65135097Y-70473061D01*
X65110100Y-70598728D01*
X65110100Y-73343070D01*
X65124219Y-73414046D01*
X65124219Y-73414048D01*
X65135097Y-73468736D01*
X65135099Y-73468744D01*
X65184134Y-73587125D01*
X65255326Y-73693673D01*
X65255327Y-73693674D01*
X66657981Y-75096326D01*
X66691466Y-75157649D01*
X66694300Y-75184007D01*
X66694300Y-80711802D01*
X66674615Y-80778841D01*
X66645227Y-80810604D01*
X66601880Y-80843475D01*
X66601874Y-80843482D01*
X66510439Y-80964056D01*
X66493902Y-81005992D01*
X66460153Y-81091571D01*
X66417249Y-81146714D01*
X66351341Y-81169907D01*
X66283356Y-81153786D01*
X66234880Y-81103470D01*
X66229448Y-81091578D01*
X66179161Y-80964058D01*
X66179160Y-80964057D01*
X66179160Y-80964056D01*
X66087722Y-80843477D01*
X65967143Y-80752039D01*
X65826361Y-80696522D01*
X65780726Y-80691042D01*
X65737902Y-80685900D01*
X64951698Y-80685900D01*
X64912653Y-80690588D01*
X64863238Y-80696522D01*
X64722456Y-80752039D01*
X64601877Y-80843477D01*
X64510439Y-80964056D01*
X64454922Y-81104838D01*
X64449894Y-81146714D01*
X64444300Y-81193298D01*
X64444300Y-82179502D01*
X64449045Y-82219012D01*
X64454922Y-82267961D01*
X64510439Y-82408743D01*
X64601877Y-82529322D01*
X64645225Y-82562193D01*
X64686748Y-82618385D01*
X64694300Y-82660997D01*
X64694300Y-83595293D01*
X64674615Y-83662332D01*
X64657985Y-83682970D01*
X64652683Y-83688271D01*
X64561238Y-83808858D01*
X64505722Y-83949638D01*
X64499788Y-83999053D01*
X64495100Y-84038098D01*
X64495100Y-84038103D01*
X64495100Y-84840392D01*
X64475415Y-84907431D01*
X64422611Y-84953186D01*
X64353453Y-84963130D01*
X64289897Y-84934105D01*
X64283419Y-84928073D01*
X61738192Y-82382846D01*
X61704707Y-82321523D01*
X61709691Y-82251831D01*
X61751563Y-82195898D01*
X61817027Y-82171481D01*
X61885300Y-82186333D01*
X61890970Y-82189626D01*
X61925875Y-82211156D01*
X61925880Y-82211158D01*
X62092302Y-82266305D01*
X62092309Y-82266306D01*
X62195019Y-82276799D01*
X62344999Y-82276799D01*
X62345000Y-82276798D01*
X62345000Y-81326800D01*
X62845000Y-81326800D01*
X62845000Y-82276799D01*
X62994972Y-82276799D01*
X62994986Y-82276798D01*
X63097697Y-82266305D01*
X63264119Y-82211158D01*
X63264124Y-82211156D01*
X63413345Y-82119115D01*
X63537315Y-81995145D01*
X63629356Y-81845924D01*
X63629358Y-81845919D01*
X63684505Y-81679497D01*
X63684506Y-81679490D01*
X63694999Y-81576786D01*
X63695000Y-81576773D01*
X63695000Y-81326800D01*
X62845000Y-81326800D01*
X62345000Y-81326800D01*
X62345000Y-79876800D01*
X62845000Y-79876800D01*
X62845000Y-80826800D01*
X63694999Y-80826800D01*
X63694999Y-80576828D01*
X63694998Y-80576813D01*
X63684505Y-80474102D01*
X63629358Y-80307680D01*
X63629356Y-80307675D01*
X63537315Y-80158454D01*
X63413345Y-80034484D01*
X63264124Y-79942443D01*
X63264119Y-79942441D01*
X63097697Y-79887294D01*
X63097690Y-79887293D01*
X62994986Y-79876800D01*
X62845000Y-79876800D01*
X62345000Y-79876800D01*
X62195027Y-79876800D01*
X62195012Y-79876801D01*
X62092302Y-79887294D01*
X61925880Y-79942441D01*
X61925875Y-79942443D01*
X61776654Y-80034484D01*
X61652682Y-80158456D01*
X61580843Y-80274925D01*
X61528895Y-80321649D01*
X61459932Y-80332870D01*
X61395850Y-80305027D01*
X61376501Y-80284752D01*
X61337922Y-80233877D01*
X61217343Y-80142439D01*
X61076561Y-80086922D01*
X61030926Y-80081442D01*
X60988102Y-80076300D01*
X60201898Y-80076300D01*
X60162853Y-80080988D01*
X60113438Y-80086922D01*
X59972656Y-80142439D01*
X59852077Y-80233877D01*
X59760639Y-80354456D01*
X59705122Y-80495238D01*
X59699188Y-80544653D01*
X59694500Y-80583698D01*
X59694500Y-80583703D01*
X59694500Y-81005992D01*
X59674815Y-81073031D01*
X59658181Y-81093673D01*
X57570173Y-83181681D01*
X57508850Y-83215166D01*
X57482492Y-83218000D01*
X55116131Y-83218000D01*
X55049092Y-83198315D01*
X55003337Y-83145511D01*
X54993393Y-83076353D01*
X55022418Y-83012797D01*
X55051867Y-82989395D01*
X55051805Y-82989311D01*
X55054171Y-82987564D01*
X55058194Y-82984368D01*
X55059276Y-82983795D01*
X55059282Y-82983793D01*
X55168550Y-82903150D01*
X55249193Y-82793882D01*
X55281054Y-82702829D01*
X55294046Y-82665701D01*
X55294046Y-82665699D01*
X55296900Y-82635269D01*
X55296900Y-82268266D01*
X55306339Y-82220813D01*
X55320621Y-82186333D01*
X55321901Y-82183244D01*
X55330082Y-82142115D01*
X55346900Y-82057571D01*
X55346900Y-75946808D01*
X55366585Y-75879769D01*
X55383219Y-75859127D01*
X58849072Y-72393274D01*
X58849077Y-72393269D01*
X58920266Y-72286726D01*
X58948989Y-72217379D01*
X58969301Y-72168344D01*
X58979142Y-72118873D01*
X58994300Y-72042671D01*
X58994300Y-65727300D01*
X60852601Y-65727300D01*
X60852601Y-65864786D01*
X60863094Y-65967497D01*
X60918241Y-66133919D01*
X60918243Y-66133924D01*
X61010284Y-66283145D01*
X61134254Y-66407115D01*
X61283475Y-66499156D01*
X61283480Y-66499158D01*
X61449902Y-66554305D01*
X61449909Y-66554306D01*
X61552619Y-66564799D01*
X61827599Y-66564799D01*
X61827600Y-66564798D01*
X61827600Y-65727300D01*
X62327600Y-65727300D01*
X62327600Y-66564799D01*
X62602572Y-66564799D01*
X62602586Y-66564798D01*
X62705297Y-66554305D01*
X62871719Y-66499158D01*
X62871724Y-66499156D01*
X63020945Y-66407115D01*
X63144915Y-66283145D01*
X63236956Y-66133924D01*
X63236958Y-66133919D01*
X63292105Y-65967497D01*
X63292106Y-65967490D01*
X63302599Y-65864786D01*
X63302600Y-65864773D01*
X63302600Y-65727300D01*
X62327600Y-65727300D01*
X61827600Y-65727300D01*
X60852601Y-65727300D01*
X58994300Y-65727300D01*
X58994300Y-56704928D01*
X58969302Y-56579261D01*
X58969301Y-56579260D01*
X58969301Y-56579256D01*
X58920265Y-56460873D01*
X58876663Y-56395618D01*
X58849076Y-56354330D01*
X56415409Y-53920663D01*
X56381924Y-53859340D01*
X56386908Y-53789648D01*
X56392601Y-53776696D01*
X56440353Y-53682980D01*
X56503123Y-53489793D01*
X56534900Y-53289165D01*
X56534900Y-53086035D01*
X56503123Y-52885407D01*
X56503122Y-52885403D01*
X56503122Y-52885402D01*
X56440354Y-52692222D01*
X56397403Y-52607927D01*
X56348134Y-52511231D01*
X56332880Y-52490235D01*
X56228743Y-52346902D01*
X56228739Y-52346897D01*
X56085102Y-52203260D01*
X56085097Y-52203256D01*
X55920772Y-52083868D01*
X55920771Y-52083867D01*
X55920769Y-52083866D01*
X55830274Y-52037756D01*
X55739777Y-51991645D01*
X55546596Y-51928877D01*
X55396122Y-51905044D01*
X55345965Y-51897100D01*
X53162835Y-51897100D01*
X53095959Y-51907692D01*
X52962205Y-51928877D01*
X52962202Y-51928877D01*
X52769022Y-51991645D01*
X52588027Y-52083868D01*
X52423702Y-52203256D01*
X52423697Y-52203260D01*
X52280060Y-52346897D01*
X52280056Y-52346902D01*
X52160668Y-52511227D01*
X52068445Y-52692222D01*
X52005677Y-52885402D01*
X52005677Y-52885405D01*
X51973900Y-53086035D01*
X51973900Y-53289164D01*
X52005677Y-53489794D01*
X52005677Y-53489797D01*
X52068445Y-53682977D01*
X52068447Y-53682980D01*
X52158307Y-53859340D01*
X52160668Y-53863972D01*
X52280056Y-54028297D01*
X52280060Y-54028302D01*
X52423697Y-54171939D01*
X52423702Y-54171943D01*
X52567035Y-54276080D01*
X52588031Y-54291334D01*
X52741157Y-54369356D01*
X52769022Y-54383554D01*
X52962203Y-54446322D01*
X52962204Y-54446322D01*
X52962207Y-54446323D01*
X53162835Y-54478100D01*
X55081592Y-54478100D01*
X55148631Y-54497785D01*
X55169273Y-54514419D01*
X57656981Y-57002127D01*
X57690466Y-57063450D01*
X57693300Y-57089808D01*
X57693300Y-71657791D01*
X57673615Y-71724830D01*
X57656981Y-71745472D01*
X54191127Y-75211325D01*
X54191126Y-75211326D01*
X54191123Y-75211331D01*
X54128725Y-75304719D01*
X54128724Y-75304720D01*
X54119933Y-75317876D01*
X54070899Y-75436255D01*
X54070897Y-75436261D01*
X54045900Y-75561928D01*
X54045900Y-75561931D01*
X54045900Y-82057569D01*
X54045900Y-82057571D01*
X54045899Y-82057571D01*
X54070897Y-82183238D01*
X54070899Y-82183244D01*
X54086461Y-82220813D01*
X54095900Y-82268266D01*
X54095900Y-82635269D01*
X54098753Y-82665699D01*
X54098754Y-82665704D01*
X54099556Y-82667995D01*
X54099647Y-82669793D01*
X54100364Y-82673073D01*
X54099820Y-82673191D01*
X54103113Y-82737774D01*
X54068380Y-82798399D01*
X54006385Y-82830622D01*
X53970937Y-82832401D01*
X53950666Y-82830500D01*
X53542134Y-82830500D01*
X53526252Y-82831989D01*
X53521862Y-82832401D01*
X53453278Y-82819060D01*
X53402794Y-82770757D01*
X53386438Y-82702829D01*
X53393247Y-82667984D01*
X53394046Y-82665699D01*
X53396900Y-82635269D01*
X53396900Y-82268266D01*
X53406339Y-82220813D01*
X53420621Y-82186333D01*
X53421901Y-82183244D01*
X53446899Y-82057569D01*
X53446899Y-81929431D01*
X53444968Y-81919722D01*
X53421903Y-81803764D01*
X53421901Y-81803761D01*
X53421901Y-81803757D01*
X53406337Y-81766182D01*
X53396900Y-81718734D01*
X53396900Y-81351730D01*
X53394046Y-81321300D01*
X53394046Y-81321298D01*
X53353401Y-81205145D01*
X53349193Y-81193118D01*
X53268550Y-81083850D01*
X53159282Y-81003207D01*
X53159280Y-81003206D01*
X53031100Y-80958353D01*
X53000670Y-80955500D01*
X53000666Y-80955500D01*
X52592134Y-80955500D01*
X52592130Y-80955500D01*
X52561700Y-80958353D01*
X52561698Y-80958353D01*
X52433519Y-81003206D01*
X52433517Y-81003207D01*
X52324250Y-81083850D01*
X52243607Y-81193117D01*
X52243606Y-81193119D01*
X52198753Y-81321298D01*
X52198753Y-81321300D01*
X52195900Y-81351730D01*
X52195900Y-81622691D01*
X52176215Y-81689730D01*
X52159581Y-81710372D01*
X51082127Y-82787825D01*
X51082124Y-82787828D01*
X51042121Y-82847697D01*
X51042122Y-82847698D01*
X51010934Y-82894374D01*
X50961899Y-83012755D01*
X50961897Y-83012761D01*
X50936900Y-83138428D01*
X50936900Y-83138431D01*
X50936900Y-86912169D01*
X50955266Y-87004499D01*
X50961899Y-87037844D01*
X51010935Y-87156227D01*
X51054132Y-87220877D01*
X51082126Y-87262773D01*
X51082127Y-87262774D01*
X51940481Y-88121127D01*
X51973966Y-88182450D01*
X51976800Y-88208808D01*
X51976800Y-88631102D01*
X51979573Y-88654194D01*
X51987422Y-88719561D01*
X52042939Y-88860343D01*
X52134377Y-88980922D01*
X52254956Y-89072360D01*
X52254957Y-89072360D01*
X52254958Y-89072361D01*
X52395736Y-89127877D01*
X52484198Y-89138500D01*
X52484203Y-89138500D01*
X53270397Y-89138500D01*
X53270402Y-89138500D01*
X53358864Y-89127877D01*
X53499642Y-89072361D01*
X53620222Y-88980922D01*
X53711661Y-88860342D01*
X53761946Y-88732826D01*
X53804851Y-88677685D01*
X53870759Y-88654492D01*
X53938743Y-88670612D01*
X53987220Y-88720929D01*
X53992648Y-88732814D01*
X54027952Y-88822339D01*
X54042939Y-88860343D01*
X54134377Y-88980922D01*
X54254956Y-89072360D01*
X54254957Y-89072360D01*
X54254958Y-89072361D01*
X54395736Y-89127877D01*
X54484198Y-89138500D01*
X54484203Y-89138500D01*
X55270397Y-89138500D01*
X55270402Y-89138500D01*
X55358864Y-89127877D01*
X55499642Y-89072361D01*
X55620222Y-88980922D01*
X55711661Y-88860342D01*
X55767177Y-88719564D01*
X55777800Y-88631102D01*
X55777800Y-88223274D01*
X55797485Y-88156235D01*
X55832907Y-88120173D01*
X55892169Y-88080577D01*
X56773527Y-87199219D01*
X56834850Y-87165734D01*
X56861208Y-87162900D01*
X61959992Y-87162900D01*
X62027031Y-87182585D01*
X62047673Y-87199219D01*
X62474040Y-87625586D01*
X62507525Y-87686909D01*
X62502541Y-87756601D01*
X62460669Y-87812534D01*
X62395205Y-87836951D01*
X62374205Y-87836670D01*
X62204600Y-87819966D01*
X62008763Y-87839253D01*
X61820446Y-87896379D01*
X61761854Y-87927698D01*
X61646900Y-87989143D01*
X61646898Y-87989144D01*
X61646897Y-87989145D01*
X61494781Y-88113981D01*
X61369945Y-88266097D01*
X61277179Y-88439646D01*
X61220053Y-88627963D01*
X61200766Y-88823800D01*
X61200766Y-88823806D01*
X61202538Y-88841806D01*
X61189517Y-88910452D01*
X61166816Y-88941636D01*
X58524326Y-91584126D01*
X58462717Y-91676333D01*
X58462715Y-91676336D01*
X58453136Y-91690670D01*
X58453133Y-91690675D01*
X58404099Y-91809055D01*
X58404097Y-91809061D01*
X58379100Y-91934728D01*
X58379100Y-92125055D01*
X58359415Y-92192094D01*
X58306611Y-92237849D01*
X58300599Y-92240405D01*
X58295638Y-92242362D01*
X58282256Y-92247639D01*
X58161678Y-92339077D01*
X58138287Y-92369924D01*
X58082094Y-92411448D01*
X58039482Y-92419000D01*
X53182108Y-92419000D01*
X53115069Y-92399315D01*
X53094427Y-92382681D01*
X49734219Y-89022473D01*
X49700734Y-88961150D01*
X49697900Y-88934792D01*
X49697900Y-77232008D01*
X49717585Y-77164969D01*
X49734219Y-77144327D01*
X54759673Y-72118873D01*
X54759677Y-72118869D01*
X54830865Y-72012327D01*
X54879901Y-71893944D01*
X54904900Y-71768269D01*
X54904900Y-64602099D01*
X54924585Y-64535060D01*
X54977389Y-64489305D01*
X55028900Y-64478099D01*
X56279256Y-64478099D01*
X56279264Y-64478099D01*
X56279279Y-64478097D01*
X56279282Y-64478097D01*
X56304387Y-64475186D01*
X56304388Y-64475185D01*
X56304391Y-64475185D01*
X56407165Y-64429806D01*
X56486606Y-64350365D01*
X56531985Y-64247591D01*
X56534900Y-64222465D01*
X56534899Y-62152736D01*
X56534897Y-62152717D01*
X56531986Y-62127612D01*
X56531985Y-62127610D01*
X56531985Y-62127609D01*
X56486606Y-62024835D01*
X56407165Y-61945394D01*
X56304392Y-61900015D01*
X56279268Y-61897100D01*
X56279265Y-61897100D01*
X53935208Y-61897100D01*
X53868169Y-61877415D01*
X53847527Y-61860781D01*
X51055019Y-59068273D01*
X51021534Y-59006950D01*
X51018700Y-58980592D01*
X51018700Y-58437600D01*
X51795423Y-58437600D01*
X51811088Y-58536505D01*
X51811088Y-58536506D01*
X51883564Y-58759563D01*
X51990038Y-58968530D01*
X52127894Y-59158272D01*
X52293727Y-59324105D01*
X52483469Y-59461961D01*
X52692434Y-59568435D01*
X52915490Y-59640910D01*
X53147135Y-59677600D01*
X54004400Y-59677600D01*
X54004400Y-58798424D01*
X54061885Y-58822236D01*
X54189396Y-58847600D01*
X54319404Y-58847600D01*
X54446915Y-58822236D01*
X54504400Y-58798424D01*
X54504400Y-59677600D01*
X55361665Y-59677600D01*
X55593309Y-59640910D01*
X55816365Y-59568435D01*
X56025330Y-59461961D01*
X56215072Y-59324105D01*
X56380905Y-59158272D01*
X56518761Y-58968530D01*
X56625235Y-58759563D01*
X56697711Y-58536506D01*
X56697711Y-58536505D01*
X56713377Y-58437600D01*
X54865225Y-58437600D01*
X54889036Y-58380115D01*
X54914400Y-58252604D01*
X54914400Y-58122596D01*
X54889036Y-57995085D01*
X54865225Y-57937600D01*
X56713377Y-57937600D01*
X56697711Y-57838694D01*
X56697711Y-57838693D01*
X56625235Y-57615636D01*
X56518761Y-57406669D01*
X56380905Y-57216927D01*
X56215072Y-57051094D01*
X56025330Y-56913238D01*
X55816365Y-56806764D01*
X55593309Y-56734289D01*
X55361665Y-56697600D01*
X54504400Y-56697600D01*
X54504400Y-57576775D01*
X54446915Y-57552964D01*
X54319404Y-57527600D01*
X54189396Y-57527600D01*
X54061885Y-57552964D01*
X54004400Y-57576775D01*
X54004400Y-56697600D01*
X53147135Y-56697600D01*
X52915490Y-56734289D01*
X52692434Y-56806764D01*
X52483469Y-56913238D01*
X52293727Y-57051094D01*
X52127894Y-57216927D01*
X51990038Y-57406669D01*
X51883564Y-57615636D01*
X51811088Y-57838693D01*
X51811088Y-57838694D01*
X51795423Y-57937600D01*
X53643575Y-57937600D01*
X53619764Y-57995085D01*
X53594400Y-58122596D01*
X53594400Y-58252604D01*
X53619764Y-58380115D01*
X53643575Y-58437600D01*
X51795423Y-58437600D01*
X51018700Y-58437600D01*
X51018700Y-52695608D01*
X51038385Y-52628569D01*
X51055019Y-52607927D01*
X52226927Y-51436019D01*
X52288250Y-51402534D01*
X52314608Y-51399700D01*
X58193192Y-51399700D01*
X58260231Y-51419385D01*
G37*
%TD.AperFunction*%
%TA.AperFunction,Conductor*%
G36*
X77487229Y-66510585D02*
G01*
X77507871Y-66527219D01*
X79259537Y-68278885D01*
X79356563Y-68334903D01*
X79464782Y-68363900D01*
X79576818Y-68363900D01*
X79862899Y-68363900D01*
X79929938Y-68383585D01*
X79975693Y-68436389D01*
X79985637Y-68505547D01*
X79973899Y-68543171D01*
X79897796Y-68696005D01*
X79897796Y-68696007D01*
X79839444Y-68901089D01*
X79819771Y-69113399D01*
X79819771Y-69113400D01*
X79839444Y-69325710D01*
X79897796Y-69530792D01*
X79897796Y-69530794D01*
X79992832Y-69721653D01*
X79992834Y-69721655D01*
X80121328Y-69891807D01*
X80278898Y-70035452D01*
X80278900Y-70035453D01*
X80278901Y-70035454D01*
X80341111Y-70073973D01*
X80387747Y-70126001D01*
X80398851Y-70194982D01*
X80370898Y-70259017D01*
X80312763Y-70297773D01*
X80275834Y-70303400D01*
X80077355Y-70303400D01*
X80017827Y-70309801D01*
X80017820Y-70309803D01*
X79883113Y-70360045D01*
X79883106Y-70360049D01*
X79768012Y-70446209D01*
X79768009Y-70446212D01*
X79681849Y-70561306D01*
X79681845Y-70561313D01*
X79631603Y-70696020D01*
X79631601Y-70696027D01*
X79625200Y-70755555D01*
X79625200Y-71403400D01*
X80530640Y-71403400D01*
X80499955Y-71456547D01*
X80465200Y-71586257D01*
X80465200Y-71720543D01*
X80499955Y-71850253D01*
X80530640Y-71903400D01*
X79625200Y-71903400D01*
X79625200Y-72551244D01*
X79631601Y-72610772D01*
X79631603Y-72610779D01*
X79681845Y-72745486D01*
X79681849Y-72745493D01*
X79768009Y-72860587D01*
X79768012Y-72860590D01*
X79883106Y-72946750D01*
X79883113Y-72946754D01*
X80017820Y-72996996D01*
X80017827Y-72996998D01*
X80077355Y-73003399D01*
X80077372Y-73003400D01*
X80275834Y-73003400D01*
X80342873Y-73023085D01*
X80388628Y-73075889D01*
X80398572Y-73145047D01*
X80369547Y-73208603D01*
X80341111Y-73232827D01*
X80278901Y-73271345D01*
X80121327Y-73414993D01*
X79992832Y-73585146D01*
X79897796Y-73776005D01*
X79897796Y-73776007D01*
X79839444Y-73981089D01*
X79819771Y-74193399D01*
X79819771Y-74193400D01*
X79839444Y-74405710D01*
X79897796Y-74610792D01*
X79897796Y-74610794D01*
X79973899Y-74763629D01*
X79986160Y-74832414D01*
X79959287Y-74896909D01*
X79901811Y-74936637D01*
X79862899Y-74942900D01*
X75215010Y-74942900D01*
X75147971Y-74923215D01*
X75127329Y-74906581D01*
X68278819Y-68058071D01*
X68245334Y-67996748D01*
X68242500Y-67970390D01*
X68242500Y-67018883D01*
X68236068Y-66970028D01*
X68236010Y-66969903D01*
X68186065Y-66862796D01*
X68102404Y-66779135D01*
X67995173Y-66729132D01*
X67995172Y-66729131D01*
X67991205Y-66727282D01*
X67938766Y-66681110D01*
X67919614Y-66613916D01*
X67939830Y-66547035D01*
X67992995Y-66501700D01*
X68043610Y-66490900D01*
X77420190Y-66490900D01*
X77487229Y-66510585D01*
G37*
%TD.AperFunction*%
%TA.AperFunction,Conductor*%
G36*
X97419629Y-68383585D02*
G01*
X97440271Y-68400219D01*
X97639174Y-68599122D01*
X97672659Y-68660445D01*
X97670759Y-68720738D01*
X97619444Y-68901089D01*
X97599771Y-69113399D01*
X97599771Y-69113400D01*
X97619444Y-69325710D01*
X97677796Y-69530792D01*
X97677796Y-69530794D01*
X97772832Y-69721653D01*
X97772834Y-69721655D01*
X97901328Y-69891807D01*
X98058898Y-70035452D01*
X98058900Y-70035453D01*
X98058901Y-70035454D01*
X98121111Y-70073973D01*
X98167747Y-70126001D01*
X98178851Y-70194982D01*
X98150898Y-70259017D01*
X98092763Y-70297773D01*
X98055834Y-70303400D01*
X97857355Y-70303400D01*
X97797827Y-70309801D01*
X97797820Y-70309803D01*
X97663113Y-70360045D01*
X97663106Y-70360049D01*
X97548012Y-70446209D01*
X97548009Y-70446212D01*
X97461849Y-70561306D01*
X97461845Y-70561313D01*
X97411603Y-70696020D01*
X97411601Y-70696027D01*
X97405200Y-70755555D01*
X97405200Y-71403400D01*
X98310640Y-71403400D01*
X98279955Y-71456547D01*
X98245200Y-71586257D01*
X98245200Y-71720543D01*
X98279955Y-71850253D01*
X98310640Y-71903400D01*
X97405200Y-71903400D01*
X97405200Y-72551244D01*
X97411601Y-72610772D01*
X97411603Y-72610779D01*
X97461845Y-72745486D01*
X97461849Y-72745493D01*
X97548009Y-72860587D01*
X97548012Y-72860590D01*
X97663106Y-72946750D01*
X97663113Y-72946754D01*
X97797820Y-72996996D01*
X97797827Y-72996998D01*
X97857355Y-73003399D01*
X97857372Y-73003400D01*
X98055834Y-73003400D01*
X98122873Y-73023085D01*
X98168628Y-73075889D01*
X98178572Y-73145047D01*
X98149547Y-73208603D01*
X98121111Y-73232827D01*
X98058901Y-73271345D01*
X97901327Y-73414993D01*
X97772832Y-73585146D01*
X97716056Y-73699171D01*
X97668554Y-73750408D01*
X97605056Y-73767900D01*
X86888182Y-73767900D01*
X86779963Y-73796897D01*
X86779960Y-73796898D01*
X86682940Y-73852913D01*
X86682934Y-73852917D01*
X85629271Y-74906581D01*
X85567948Y-74940066D01*
X85541590Y-74942900D01*
X82087501Y-74942900D01*
X82020462Y-74923215D01*
X81974707Y-74870411D01*
X81964763Y-74801253D01*
X81976501Y-74763629D01*
X82052603Y-74610794D01*
X82052603Y-74610793D01*
X82052605Y-74610789D01*
X82110956Y-74405710D01*
X82130629Y-74193400D01*
X82110956Y-73981090D01*
X82052605Y-73776011D01*
X82052603Y-73776006D01*
X82052603Y-73776005D01*
X81957567Y-73585146D01*
X81829072Y-73414993D01*
X81828033Y-73414046D01*
X81671502Y-73271348D01*
X81671499Y-73271346D01*
X81671498Y-73271345D01*
X81609289Y-73232827D01*
X81562653Y-73180799D01*
X81551549Y-73111818D01*
X81579502Y-73047783D01*
X81637637Y-73009027D01*
X81674566Y-73003400D01*
X81873028Y-73003400D01*
X81873044Y-73003399D01*
X81932572Y-72996998D01*
X81932579Y-72996996D01*
X82067286Y-72946754D01*
X82067293Y-72946750D01*
X82182387Y-72860590D01*
X82182390Y-72860587D01*
X82268550Y-72745493D01*
X82268554Y-72745486D01*
X82318796Y-72610779D01*
X82318798Y-72610772D01*
X82325199Y-72551244D01*
X82325200Y-72551227D01*
X82325200Y-71903400D01*
X81419760Y-71903400D01*
X81450445Y-71850253D01*
X81485200Y-71720543D01*
X81485200Y-71586257D01*
X81450445Y-71456547D01*
X81419760Y-71403400D01*
X82325200Y-71403400D01*
X82325200Y-70755572D01*
X82325199Y-70755555D01*
X82318798Y-70696027D01*
X82318796Y-70696020D01*
X82268554Y-70561313D01*
X82268550Y-70561306D01*
X82182390Y-70446212D01*
X82182387Y-70446209D01*
X82067293Y-70360049D01*
X82067286Y-70360045D01*
X81932579Y-70309803D01*
X81932572Y-70309801D01*
X81873044Y-70303400D01*
X81674566Y-70303400D01*
X81607527Y-70283715D01*
X81561772Y-70230911D01*
X81551828Y-70161753D01*
X81580853Y-70098197D01*
X81609289Y-70073973D01*
X81629649Y-70061366D01*
X81671502Y-70035452D01*
X81829072Y-69891807D01*
X81957566Y-69721655D01*
X82052605Y-69530789D01*
X82110956Y-69325710D01*
X82130629Y-69113400D01*
X82110956Y-68901090D01*
X82052605Y-68696011D01*
X82052603Y-68696006D01*
X82052603Y-68696005D01*
X81976501Y-68543171D01*
X81964240Y-68474386D01*
X81991113Y-68409891D01*
X82048589Y-68370163D01*
X82087501Y-68363900D01*
X97352590Y-68363900D01*
X97419629Y-68383585D01*
G37*
%TD.AperFunction*%
%TA.AperFunction,Conductor*%
G36*
X106216639Y-48762285D02*
G01*
X106262394Y-48815089D01*
X106273600Y-48866600D01*
X106273600Y-107673600D01*
X106253915Y-107740639D01*
X106201111Y-107786394D01*
X106149600Y-107797600D01*
X79592437Y-107797600D01*
X79525398Y-107777915D01*
X79479643Y-107725111D01*
X79468437Y-107673600D01*
X79468437Y-104928903D01*
X48268900Y-104928903D01*
X48268900Y-107673600D01*
X48249215Y-107740639D01*
X48196411Y-107786394D01*
X48144900Y-107797600D01*
X47342600Y-107797600D01*
X47275561Y-107777915D01*
X47229806Y-107725111D01*
X47218600Y-107673600D01*
X47218600Y-104574403D01*
X100925925Y-104574403D01*
X100925925Y-106988853D01*
X105624364Y-106988853D01*
X105624364Y-104574403D01*
X100925925Y-104574403D01*
X47218600Y-104574403D01*
X47218600Y-96443800D01*
X61200766Y-96443800D01*
X61220053Y-96639636D01*
X61248616Y-96733794D01*
X61277178Y-96827951D01*
X61369943Y-97001500D01*
X61369945Y-97001502D01*
X61494781Y-97153618D01*
X61586663Y-97229022D01*
X61646900Y-97278457D01*
X61820449Y-97371222D01*
X62008762Y-97428346D01*
X62204600Y-97447634D01*
X62400438Y-97428346D01*
X62588751Y-97371222D01*
X62762300Y-97278457D01*
X62914418Y-97153618D01*
X63039257Y-97001500D01*
X63132022Y-96827951D01*
X63189146Y-96639638D01*
X63208434Y-96443800D01*
X68620966Y-96443800D01*
X68641459Y-96664966D01*
X68641460Y-96664968D01*
X68702243Y-96878598D01*
X68702249Y-96878613D01*
X68801252Y-97077436D01*
X68816808Y-97098036D01*
X69386952Y-96527893D01*
X69410392Y-96615371D01*
X69468911Y-96716730D01*
X69551670Y-96799489D01*
X69653029Y-96858008D01*
X69740505Y-96881447D01*
X69172361Y-97449590D01*
X69172362Y-97449591D01*
X69288090Y-97521247D01*
X69288096Y-97521250D01*
X69495207Y-97601484D01*
X69713545Y-97642300D01*
X69935655Y-97642300D01*
X70153992Y-97601484D01*
X70361105Y-97521249D01*
X70361106Y-97521248D01*
X70476837Y-97449590D01*
X69908695Y-96881447D01*
X69996171Y-96858008D01*
X70097530Y-96799489D01*
X70180289Y-96716730D01*
X70238808Y-96615371D01*
X70262247Y-96527894D01*
X70832390Y-97098036D01*
X70847948Y-97077434D01*
X70847953Y-97077426D01*
X70946950Y-96878613D01*
X70946956Y-96878598D01*
X71007739Y-96664968D01*
X71007740Y-96664966D01*
X71028234Y-96443800D01*
X71028234Y-96443799D01*
X71007740Y-96222633D01*
X71007739Y-96222631D01*
X70946956Y-96009001D01*
X70946950Y-96008986D01*
X70847953Y-95810174D01*
X70847948Y-95810167D01*
X70832389Y-95789562D01*
X70262247Y-96359704D01*
X70238808Y-96272229D01*
X70180289Y-96170870D01*
X70097530Y-96088111D01*
X69996171Y-96029592D01*
X69908694Y-96006152D01*
X70476837Y-95438008D01*
X70476836Y-95438007D01*
X70361109Y-95366352D01*
X70361103Y-95366349D01*
X70153992Y-95286115D01*
X69935655Y-95245300D01*
X69713545Y-95245300D01*
X69495207Y-95286115D01*
X69288095Y-95366350D01*
X69172361Y-95438008D01*
X69740506Y-96006152D01*
X69653029Y-96029592D01*
X69551670Y-96088111D01*
X69468911Y-96170870D01*
X69410392Y-96272229D01*
X69386952Y-96359705D01*
X68816809Y-95789562D01*
X68801251Y-95810165D01*
X68702249Y-96008986D01*
X68702243Y-96009001D01*
X68641460Y-96222631D01*
X68641459Y-96222633D01*
X68620966Y-96443799D01*
X68620966Y-96443800D01*
X63208434Y-96443800D01*
X63189146Y-96247962D01*
X63132022Y-96059649D01*
X63039257Y-95886100D01*
X62969520Y-95801124D01*
X62914418Y-95733981D01*
X62793429Y-95634690D01*
X62762300Y-95609143D01*
X62588751Y-95516378D01*
X62494594Y-95487816D01*
X62400436Y-95459253D01*
X62204600Y-95439966D01*
X62008763Y-95459253D01*
X61820446Y-95516379D01*
X61761854Y-95547698D01*
X61646900Y-95609143D01*
X61646898Y-95609144D01*
X61646897Y-95609145D01*
X61494781Y-95733981D01*
X61369945Y-95886097D01*
X61277179Y-96059646D01*
X61220053Y-96247963D01*
X61200766Y-96443800D01*
X47218600Y-96443800D01*
X47218600Y-95394500D01*
X57804601Y-95394500D01*
X57804601Y-95531986D01*
X57815094Y-95634697D01*
X57870241Y-95801119D01*
X57870243Y-95801124D01*
X57962284Y-95950345D01*
X58086254Y-96074315D01*
X58235475Y-96166356D01*
X58235480Y-96166358D01*
X58401902Y-96221505D01*
X58401909Y-96221506D01*
X58504619Y-96231999D01*
X58779599Y-96231999D01*
X58779600Y-96231998D01*
X58779600Y-95394500D01*
X59279600Y-95394500D01*
X59279600Y-96231999D01*
X59554572Y-96231999D01*
X59554586Y-96231998D01*
X59657297Y-96221505D01*
X59823719Y-96166358D01*
X59823724Y-96166356D01*
X59972945Y-96074315D01*
X60096915Y-95950345D01*
X60188956Y-95801124D01*
X60188958Y-95801119D01*
X60244105Y-95634697D01*
X60244106Y-95634690D01*
X60254599Y-95531986D01*
X60254600Y-95531973D01*
X60254600Y-95394500D01*
X59279600Y-95394500D01*
X58779600Y-95394500D01*
X57804601Y-95394500D01*
X47218600Y-95394500D01*
X47218600Y-89319671D01*
X48396899Y-89319671D01*
X48419523Y-89433400D01*
X48419524Y-89433403D01*
X48421898Y-89445343D01*
X48432217Y-89470254D01*
X48470935Y-89563727D01*
X48534229Y-89658454D01*
X48542126Y-89670273D01*
X52446626Y-93574773D01*
X52446629Y-93574775D01*
X52446631Y-93574777D01*
X52553173Y-93645965D01*
X52671556Y-93695001D01*
X52671560Y-93695001D01*
X52671561Y-93695002D01*
X52797228Y-93720000D01*
X52797231Y-93720000D01*
X58039482Y-93720000D01*
X58106521Y-93739685D01*
X58138287Y-93769076D01*
X58161678Y-93799922D01*
X58289016Y-93896486D01*
X58287628Y-93898315D01*
X58327915Y-93939618D01*
X58341916Y-94008071D01*
X58316687Y-94073226D01*
X58260236Y-94114398D01*
X58257359Y-94115391D01*
X58235482Y-94122640D01*
X58235475Y-94122643D01*
X58086254Y-94214684D01*
X57962284Y-94338654D01*
X57870243Y-94487875D01*
X57870241Y-94487880D01*
X57815094Y-94654302D01*
X57815093Y-94654309D01*
X57804600Y-94757013D01*
X57804600Y-94894500D01*
X60254599Y-94894500D01*
X60254599Y-94757028D01*
X60254598Y-94757013D01*
X60244105Y-94654302D01*
X60188958Y-94487880D01*
X60188956Y-94487875D01*
X60096915Y-94338654D01*
X59972945Y-94214684D01*
X59823724Y-94122643D01*
X59823721Y-94122642D01*
X59801841Y-94115392D01*
X59744397Y-94075619D01*
X59717574Y-94011103D01*
X59729889Y-93942327D01*
X59765663Y-93903800D01*
X61200766Y-93903800D01*
X61220053Y-94099636D01*
X61227032Y-94122642D01*
X61277178Y-94287951D01*
X61369943Y-94461500D01*
X61369945Y-94461502D01*
X61494781Y-94613618D01*
X61586663Y-94689022D01*
X61646900Y-94738457D01*
X61820449Y-94831222D01*
X62008762Y-94888346D01*
X62204600Y-94907634D01*
X62400438Y-94888346D01*
X62588751Y-94831222D01*
X62762300Y-94738457D01*
X62914418Y-94613618D01*
X63039257Y-94461500D01*
X63132022Y-94287951D01*
X63189146Y-94099638D01*
X63208434Y-93903800D01*
X63189146Y-93707962D01*
X63132022Y-93519649D01*
X63039257Y-93346100D01*
X62963099Y-93253300D01*
X62914418Y-93193981D01*
X62781282Y-93084721D01*
X62762300Y-93069143D01*
X62588751Y-92976378D01*
X62494594Y-92947816D01*
X62400436Y-92919253D01*
X62204600Y-92899966D01*
X62008763Y-92919253D01*
X61820446Y-92976379D01*
X61761854Y-93007698D01*
X61646900Y-93069143D01*
X61646898Y-93069144D01*
X61646897Y-93069145D01*
X61494781Y-93193981D01*
X61369945Y-93346097D01*
X61369943Y-93346100D01*
X61340021Y-93402079D01*
X61277179Y-93519646D01*
X61220053Y-93707963D01*
X61200766Y-93903800D01*
X59765663Y-93903800D01*
X59771205Y-93897832D01*
X59770184Y-93896486D01*
X59897522Y-93799922D01*
X59967258Y-93707962D01*
X59988961Y-93679342D01*
X60044477Y-93538564D01*
X60055100Y-93450102D01*
X60055100Y-92688898D01*
X60044477Y-92600436D01*
X59988961Y-92459658D01*
X59988960Y-92459657D01*
X59988960Y-92459656D01*
X59897522Y-92339077D01*
X59846897Y-92300688D01*
X59805374Y-92244496D01*
X59800822Y-92174775D01*
X59834139Y-92114205D01*
X61061461Y-90886883D01*
X61122782Y-90853400D01*
X61192474Y-90858384D01*
X61248407Y-90900256D01*
X61272824Y-90965720D01*
X61267801Y-91010561D01*
X61220053Y-91167963D01*
X61200766Y-91363800D01*
X61220053Y-91559636D01*
X61220054Y-91559638D01*
X61277178Y-91747951D01*
X61369943Y-91921500D01*
X61398250Y-91955992D01*
X61494781Y-92073618D01*
X61586663Y-92149022D01*
X61646900Y-92198457D01*
X61820449Y-92291222D01*
X62008762Y-92348346D01*
X62204600Y-92367634D01*
X62400438Y-92348346D01*
X62588751Y-92291222D01*
X62762300Y-92198457D01*
X62914418Y-92073618D01*
X63039257Y-91921500D01*
X63132022Y-91747951D01*
X63189146Y-91559638D01*
X63208434Y-91363800D01*
X63189146Y-91167962D01*
X63132022Y-90979649D01*
X63039257Y-90806100D01*
X62979519Y-90733308D01*
X62914418Y-90653981D01*
X62781282Y-90544721D01*
X62762300Y-90529143D01*
X62588751Y-90436378D01*
X62494594Y-90407816D01*
X62400436Y-90379253D01*
X62204600Y-90359966D01*
X62008763Y-90379253D01*
X61851361Y-90427001D01*
X61781494Y-90427624D01*
X61722381Y-90390376D01*
X61692790Y-90327082D01*
X61702116Y-90257837D01*
X61727682Y-90220662D01*
X62086764Y-89861580D01*
X62148085Y-89828097D01*
X62186593Y-89825860D01*
X62204600Y-89827634D01*
X62400438Y-89808346D01*
X62588751Y-89751222D01*
X62762300Y-89658457D01*
X62914418Y-89533618D01*
X63039257Y-89381500D01*
X63132022Y-89207951D01*
X63189146Y-89019638D01*
X63208434Y-88823800D01*
X63191729Y-88654191D01*
X63204748Y-88585548D01*
X63252813Y-88534838D01*
X63320664Y-88518163D01*
X63386758Y-88540819D01*
X63402813Y-88554359D01*
X68009024Y-93160571D01*
X68009031Y-93160577D01*
X68115571Y-93231764D01*
X68115570Y-93231764D01*
X68150244Y-93246126D01*
X68233956Y-93280801D01*
X68233960Y-93280801D01*
X68233961Y-93280802D01*
X68359628Y-93305800D01*
X68359631Y-93305800D01*
X68804601Y-93305800D01*
X68871640Y-93325485D01*
X68917395Y-93378289D01*
X68927339Y-93447447D01*
X68913959Y-93488253D01*
X68897179Y-93519644D01*
X68840053Y-93707963D01*
X68820766Y-93903800D01*
X68840053Y-94099636D01*
X68847032Y-94122642D01*
X68897178Y-94287951D01*
X68989943Y-94461500D01*
X68989945Y-94461502D01*
X69114781Y-94613618D01*
X69206663Y-94689022D01*
X69266900Y-94738457D01*
X69440449Y-94831222D01*
X69628762Y-94888346D01*
X69824600Y-94907634D01*
X70020438Y-94888346D01*
X70208751Y-94831222D01*
X70382300Y-94738457D01*
X70534418Y-94613618D01*
X70545893Y-94599636D01*
X70603639Y-94560301D01*
X70641747Y-94554300D01*
X72352471Y-94554300D01*
X72437015Y-94537482D01*
X72478144Y-94529301D01*
X72596527Y-94480265D01*
X72624611Y-94461500D01*
X72703069Y-94409077D01*
X74444677Y-92667469D01*
X74515866Y-92560926D01*
X74544589Y-92491579D01*
X74564901Y-92442544D01*
X74575195Y-92390794D01*
X74589900Y-92316871D01*
X74589900Y-87565928D01*
X74564902Y-87440261D01*
X74564901Y-87440260D01*
X74564901Y-87440256D01*
X74515865Y-87321873D01*
X74479316Y-87267173D01*
X74479316Y-87267172D01*
X74444675Y-87215328D01*
X73439673Y-86210326D01*
X73439669Y-86210323D01*
X73333127Y-86139135D01*
X73214744Y-86090099D01*
X73214738Y-86090097D01*
X73089071Y-86065100D01*
X73089069Y-86065100D01*
X67962510Y-86065100D01*
X67895471Y-86045415D01*
X67874829Y-86028781D01*
X67782003Y-85935955D01*
X67748518Y-85874632D01*
X67753502Y-85804940D01*
X67795374Y-85749007D01*
X67857083Y-85724916D01*
X67898296Y-85720705D01*
X68064719Y-85665558D01*
X68064724Y-85665556D01*
X68213945Y-85573515D01*
X68337915Y-85449545D01*
X68429956Y-85300324D01*
X68429958Y-85300319D01*
X68485105Y-85133897D01*
X68485106Y-85133890D01*
X68495599Y-85031186D01*
X68495600Y-85031173D01*
X68495600Y-84781200D01*
X67269600Y-84781200D01*
X67202561Y-84761515D01*
X67156806Y-84708711D01*
X67145600Y-84657200D01*
X67145600Y-83331200D01*
X67645600Y-83331200D01*
X67645600Y-84281200D01*
X68495599Y-84281200D01*
X68495599Y-84031228D01*
X68495598Y-84031213D01*
X68485105Y-83928502D01*
X68429958Y-83762080D01*
X68429956Y-83762075D01*
X68337915Y-83612854D01*
X68213945Y-83488884D01*
X68064724Y-83396843D01*
X68064719Y-83396841D01*
X67898297Y-83341694D01*
X67898290Y-83341693D01*
X67795586Y-83331200D01*
X67645600Y-83331200D01*
X67145600Y-83331200D01*
X66995627Y-83331200D01*
X66995612Y-83331201D01*
X66892902Y-83341694D01*
X66726480Y-83396841D01*
X66726475Y-83396843D01*
X66577254Y-83488884D01*
X66453282Y-83612856D01*
X66381443Y-83729325D01*
X66329495Y-83776049D01*
X66260532Y-83787270D01*
X66196450Y-83759427D01*
X66177101Y-83739152D01*
X66138523Y-83688279D01*
X66138512Y-83688271D01*
X66044374Y-83616883D01*
X66002851Y-83560690D01*
X65995300Y-83518079D01*
X65995300Y-82660997D01*
X66014985Y-82593958D01*
X66044375Y-82562193D01*
X66087722Y-82529322D01*
X66179160Y-82408743D01*
X66179159Y-82408743D01*
X66179161Y-82408742D01*
X66229446Y-82281226D01*
X66272351Y-82226085D01*
X66338259Y-82202892D01*
X66406243Y-82219012D01*
X66454720Y-82269329D01*
X66460148Y-82281214D01*
X66495452Y-82370739D01*
X66510439Y-82408743D01*
X66601877Y-82529322D01*
X66722456Y-82620760D01*
X66722457Y-82620760D01*
X66722458Y-82620761D01*
X66863236Y-82676277D01*
X66951698Y-82686900D01*
X66951703Y-82686900D01*
X67737897Y-82686900D01*
X67737902Y-82686900D01*
X67826364Y-82676277D01*
X67967142Y-82620761D01*
X68087722Y-82529322D01*
X68179161Y-82408742D01*
X68234677Y-82267964D01*
X68245300Y-82179502D01*
X68245300Y-81193298D01*
X68234677Y-81104836D01*
X68179161Y-80964058D01*
X68179160Y-80964057D01*
X68179160Y-80964056D01*
X68087725Y-80843482D01*
X68087719Y-80843475D01*
X68044373Y-80810604D01*
X68002851Y-80754411D01*
X67995300Y-80711802D01*
X67995300Y-74799128D01*
X67970302Y-74673461D01*
X67970301Y-74673460D01*
X67970301Y-74673456D01*
X67921265Y-74555073D01*
X67921264Y-74555072D01*
X67921261Y-74555066D01*
X67850077Y-74448532D01*
X67807255Y-74405710D01*
X67759469Y-74357924D01*
X67151953Y-73750408D01*
X66447419Y-73045873D01*
X66413934Y-72984550D01*
X66411100Y-72958192D01*
X66411100Y-70598728D01*
X66386102Y-70473061D01*
X66386101Y-70473060D01*
X66386101Y-70473056D01*
X66337065Y-70354673D01*
X66337064Y-70354672D01*
X66337061Y-70354666D01*
X66265876Y-70248131D01*
X66265873Y-70248127D01*
X66263819Y-70246073D01*
X66263086Y-70244731D01*
X66262011Y-70243421D01*
X66262259Y-70243217D01*
X66230334Y-70184750D01*
X66227500Y-70158392D01*
X66227500Y-69023252D01*
X66247185Y-68956213D01*
X66299989Y-68910458D01*
X66369147Y-68900514D01*
X66426427Y-68924450D01*
X66432322Y-68928920D01*
X66432323Y-68928921D01*
X66569142Y-68982875D01*
X66569141Y-68982875D01*
X66655116Y-68993200D01*
X66662000Y-68993200D01*
X66662000Y-68727068D01*
X66681685Y-68660029D01*
X66684428Y-68655940D01*
X66686059Y-68653610D01*
X66686065Y-68653604D01*
X66689618Y-68645983D01*
X66735790Y-68593545D01*
X66802984Y-68574393D01*
X66869865Y-68594609D01*
X66914381Y-68645983D01*
X66917935Y-68653604D01*
X66917937Y-68653606D01*
X66919572Y-68655940D01*
X66921003Y-68660183D01*
X66922520Y-68663436D01*
X66922157Y-68663605D01*
X66941902Y-68722145D01*
X66942000Y-68727068D01*
X66942000Y-68993200D01*
X66948884Y-68993200D01*
X67034858Y-68982875D01*
X67171676Y-68928921D01*
X67288861Y-68840057D01*
X67294857Y-68834062D01*
X67296443Y-68835648D01*
X67342994Y-68801251D01*
X67385604Y-68793700D01*
X67446317Y-68793700D01*
X67458530Y-68792092D01*
X67495173Y-68787268D01*
X67499589Y-68785208D01*
X67568664Y-68774712D01*
X67604409Y-68785207D01*
X67608827Y-68787268D01*
X67633255Y-68790484D01*
X67657683Y-68793700D01*
X67657684Y-68793700D01*
X67759590Y-68793700D01*
X67826629Y-68813385D01*
X67847271Y-68830019D01*
X74726137Y-75708885D01*
X74823163Y-75764903D01*
X74931381Y-75793900D01*
X74931382Y-75793900D01*
X79993954Y-75793900D01*
X80060993Y-75813585D01*
X80106748Y-75866389D01*
X80116692Y-75935547D01*
X80092908Y-75992627D01*
X79992832Y-76125146D01*
X79897796Y-76316005D01*
X79897796Y-76316007D01*
X79846432Y-76496531D01*
X79839444Y-76521090D01*
X79819771Y-76733400D01*
X79839444Y-76945710D01*
X79895956Y-77144327D01*
X79897796Y-77150792D01*
X79897796Y-77150794D01*
X79992832Y-77341653D01*
X79992834Y-77341655D01*
X80121328Y-77511807D01*
X80278898Y-77655452D01*
X80460181Y-77767698D01*
X80659002Y-77844721D01*
X80855813Y-77881511D01*
X80918093Y-77913179D01*
X80953366Y-77973492D01*
X80950432Y-78043300D01*
X80910223Y-78100440D01*
X80855813Y-78125288D01*
X80659002Y-78162079D01*
X80658999Y-78162079D01*
X80658999Y-78162080D01*
X80460182Y-78239101D01*
X80460180Y-78239102D01*
X80278899Y-78351347D01*
X80121327Y-78494993D01*
X79992832Y-78665146D01*
X79897796Y-78856005D01*
X79897796Y-78856007D01*
X79839444Y-79061089D01*
X79819771Y-79273399D01*
X79819771Y-79273400D01*
X79839444Y-79485710D01*
X79897796Y-79690792D01*
X79897796Y-79690794D01*
X79992832Y-79881653D01*
X80038739Y-79942443D01*
X80121328Y-80051807D01*
X80278898Y-80195452D01*
X80460181Y-80307698D01*
X80659002Y-80384721D01*
X80855813Y-80421511D01*
X80918093Y-80453179D01*
X80953366Y-80513492D01*
X80950432Y-80583300D01*
X80910223Y-80640440D01*
X80855813Y-80665288D01*
X80659002Y-80702079D01*
X80658999Y-80702079D01*
X80658999Y-80702080D01*
X80460182Y-80779101D01*
X80460180Y-80779102D01*
X80278899Y-80891347D01*
X80121327Y-81034993D01*
X79992832Y-81205146D01*
X79897796Y-81396005D01*
X79897796Y-81396007D01*
X79839444Y-81601089D01*
X79820665Y-81803757D01*
X79819771Y-81813400D01*
X79839444Y-82025710D01*
X79892209Y-82211158D01*
X79897796Y-82230792D01*
X79897796Y-82230794D01*
X79992832Y-82421653D01*
X79992834Y-82421655D01*
X80121328Y-82591807D01*
X80278898Y-82735452D01*
X80278900Y-82735453D01*
X80278901Y-82735454D01*
X80341111Y-82773973D01*
X80387747Y-82826001D01*
X80398851Y-82894982D01*
X80370898Y-82959017D01*
X80312763Y-82997773D01*
X80275834Y-83003400D01*
X80077355Y-83003400D01*
X80017827Y-83009801D01*
X80017820Y-83009803D01*
X79883113Y-83060045D01*
X79883106Y-83060049D01*
X79768012Y-83146209D01*
X79768009Y-83146212D01*
X79681849Y-83261306D01*
X79681845Y-83261313D01*
X79631603Y-83396020D01*
X79631601Y-83396027D01*
X79625200Y-83455555D01*
X79625200Y-84103400D01*
X80530640Y-84103400D01*
X80499955Y-84156547D01*
X80465200Y-84286257D01*
X80465200Y-84420543D01*
X80499955Y-84550253D01*
X80530640Y-84603400D01*
X79625200Y-84603400D01*
X79625200Y-85251244D01*
X79631601Y-85310772D01*
X79631603Y-85310779D01*
X79681845Y-85445486D01*
X79681849Y-85445493D01*
X79768009Y-85560587D01*
X79768012Y-85560590D01*
X79883106Y-85646750D01*
X79883113Y-85646754D01*
X80017820Y-85696996D01*
X80017827Y-85696998D01*
X80077355Y-85703399D01*
X80077372Y-85703400D01*
X80275834Y-85703400D01*
X80342873Y-85723085D01*
X80388628Y-85775889D01*
X80398572Y-85845047D01*
X80369547Y-85908603D01*
X80341111Y-85932827D01*
X80278901Y-85971345D01*
X80121327Y-86114993D01*
X79992832Y-86285146D01*
X79897796Y-86476005D01*
X79897796Y-86476007D01*
X79897795Y-86476011D01*
X79839444Y-86681090D01*
X79819771Y-86893400D01*
X79839444Y-87105710D01*
X79893324Y-87295077D01*
X79897796Y-87310792D01*
X79897796Y-87310794D01*
X79992832Y-87501653D01*
X80083343Y-87621507D01*
X80121328Y-87671807D01*
X80278898Y-87815452D01*
X80460181Y-87927698D01*
X80659002Y-88004721D01*
X80855813Y-88041511D01*
X80918093Y-88073179D01*
X80953366Y-88133492D01*
X80950432Y-88203300D01*
X80910223Y-88260440D01*
X80855813Y-88285288D01*
X80659002Y-88322079D01*
X80658999Y-88322079D01*
X80658999Y-88322080D01*
X80460182Y-88399101D01*
X80460180Y-88399102D01*
X80278899Y-88511347D01*
X80121327Y-88654993D01*
X79992832Y-88825146D01*
X79897796Y-89016005D01*
X79897796Y-89016007D01*
X79839444Y-89221089D01*
X79830310Y-89319669D01*
X79819771Y-89433400D01*
X79839444Y-89645710D01*
X79891338Y-89828097D01*
X79897796Y-89850792D01*
X79897796Y-89850794D01*
X79992832Y-90041653D01*
X80121327Y-90211806D01*
X80121328Y-90211807D01*
X80278898Y-90355452D01*
X80460181Y-90467698D01*
X80659002Y-90544721D01*
X80855813Y-90581511D01*
X80918093Y-90613179D01*
X80953366Y-90673492D01*
X80950432Y-90743300D01*
X80910223Y-90800440D01*
X80855813Y-90825288D01*
X80659002Y-90862079D01*
X80658999Y-90862079D01*
X80658999Y-90862080D01*
X80460182Y-90939101D01*
X80460180Y-90939102D01*
X80278899Y-91051347D01*
X80121327Y-91194993D01*
X79992832Y-91365146D01*
X79897796Y-91556005D01*
X79897796Y-91556007D01*
X79840304Y-91758069D01*
X79839444Y-91761090D01*
X79819771Y-91973400D01*
X79839444Y-92185710D01*
X79891206Y-92367633D01*
X79897796Y-92390792D01*
X79897796Y-92390794D01*
X79992832Y-92581653D01*
X80121327Y-92751806D01*
X80121328Y-92751807D01*
X80278898Y-92895452D01*
X80460181Y-93007698D01*
X80659002Y-93084721D01*
X80855813Y-93121511D01*
X80918093Y-93153179D01*
X80953366Y-93213492D01*
X80950432Y-93283300D01*
X80910223Y-93340440D01*
X80855813Y-93365288D01*
X80659002Y-93402079D01*
X80658999Y-93402079D01*
X80658999Y-93402080D01*
X80460182Y-93479101D01*
X80460180Y-93479102D01*
X80278899Y-93591347D01*
X80121327Y-93734993D01*
X79992832Y-93905146D01*
X79897796Y-94096005D01*
X79897796Y-94096007D01*
X79892281Y-94115392D01*
X79839444Y-94301090D01*
X79819771Y-94513400D01*
X79839444Y-94725710D01*
X79891206Y-94907633D01*
X79897796Y-94930792D01*
X79897796Y-94930794D01*
X79992832Y-95121653D01*
X80121327Y-95291806D01*
X80121328Y-95291807D01*
X80278898Y-95435452D01*
X80278900Y-95435453D01*
X80278901Y-95435454D01*
X80341111Y-95473973D01*
X80387747Y-95526001D01*
X80398851Y-95594982D01*
X80370898Y-95659017D01*
X80312763Y-95697773D01*
X80275834Y-95703400D01*
X80077355Y-95703400D01*
X80017827Y-95709801D01*
X80017820Y-95709803D01*
X79883113Y-95760045D01*
X79883106Y-95760049D01*
X79768012Y-95846209D01*
X79768009Y-95846212D01*
X79681849Y-95961306D01*
X79681845Y-95961313D01*
X79631603Y-96096020D01*
X79631601Y-96096027D01*
X79625200Y-96155555D01*
X79625200Y-96803400D01*
X80530640Y-96803400D01*
X80499955Y-96856547D01*
X80465200Y-96986257D01*
X80465200Y-97120543D01*
X80499955Y-97250253D01*
X80530640Y-97303400D01*
X79625200Y-97303400D01*
X79625200Y-97951244D01*
X79631601Y-98010772D01*
X79631603Y-98010779D01*
X79681845Y-98145486D01*
X79681849Y-98145493D01*
X79768009Y-98260587D01*
X79768012Y-98260590D01*
X79883106Y-98346750D01*
X79883113Y-98346754D01*
X80017820Y-98396996D01*
X80017827Y-98396998D01*
X80077355Y-98403399D01*
X80077372Y-98403400D01*
X80275834Y-98403400D01*
X80342873Y-98423085D01*
X80388628Y-98475889D01*
X80398572Y-98545047D01*
X80369547Y-98608603D01*
X80341111Y-98632827D01*
X80278901Y-98671345D01*
X80121327Y-98814993D01*
X79992832Y-98985146D01*
X79897796Y-99176005D01*
X79897796Y-99176007D01*
X79839444Y-99381089D01*
X79819771Y-99593399D01*
X79819771Y-99593400D01*
X79839444Y-99805710D01*
X79897796Y-100010792D01*
X79897796Y-100010794D01*
X79992832Y-100201653D01*
X79992834Y-100201655D01*
X80121328Y-100371807D01*
X80278898Y-100515452D01*
X80460181Y-100627698D01*
X80659002Y-100704721D01*
X80855813Y-100741511D01*
X80918093Y-100773179D01*
X80953366Y-100833492D01*
X80950432Y-100903300D01*
X80910223Y-100960440D01*
X80855813Y-100985288D01*
X80659002Y-101022079D01*
X80658999Y-101022079D01*
X80658999Y-101022080D01*
X80460182Y-101099101D01*
X80460180Y-101099102D01*
X80278899Y-101211347D01*
X80121327Y-101354993D01*
X79992832Y-101525146D01*
X79897796Y-101716005D01*
X79897796Y-101716007D01*
X79844478Y-101903399D01*
X79839444Y-101921090D01*
X79819771Y-102133400D01*
X79839444Y-102345710D01*
X79888851Y-102519356D01*
X79897796Y-102550792D01*
X79897796Y-102550794D01*
X79992832Y-102741653D01*
X80082793Y-102860779D01*
X80121328Y-102911807D01*
X80278898Y-103055452D01*
X80460181Y-103167698D01*
X80659002Y-103244721D01*
X80868590Y-103283900D01*
X80868592Y-103283900D01*
X81081808Y-103283900D01*
X81081810Y-103283900D01*
X81291398Y-103244721D01*
X81490219Y-103167698D01*
X81671502Y-103055452D01*
X81829072Y-102911807D01*
X81957566Y-102741655D01*
X81957567Y-102741653D01*
X82052603Y-102550794D01*
X82052603Y-102550793D01*
X82052605Y-102550789D01*
X82110956Y-102345710D01*
X82130629Y-102133400D01*
X82110956Y-101921090D01*
X82105923Y-101903400D01*
X86169771Y-101903400D01*
X86189444Y-102115710D01*
X86247796Y-102320792D01*
X86247796Y-102320794D01*
X86342832Y-102511653D01*
X86414585Y-102606668D01*
X86471328Y-102681807D01*
X86628898Y-102825452D01*
X86810181Y-102937698D01*
X87009002Y-103014721D01*
X87218590Y-103053900D01*
X87218592Y-103053900D01*
X87431808Y-103053900D01*
X87431810Y-103053900D01*
X87641398Y-103014721D01*
X87840219Y-102937698D01*
X88021502Y-102825452D01*
X88179072Y-102681807D01*
X88292247Y-102531940D01*
X88348355Y-102490305D01*
X88418067Y-102485614D01*
X88479249Y-102519356D01*
X88512476Y-102580819D01*
X88515200Y-102606668D01*
X88515200Y-102801244D01*
X88521601Y-102860772D01*
X88521603Y-102860779D01*
X88571845Y-102995486D01*
X88571849Y-102995493D01*
X88658009Y-103110587D01*
X88658012Y-103110590D01*
X88773106Y-103196750D01*
X88773113Y-103196754D01*
X88907820Y-103246996D01*
X88907827Y-103246998D01*
X88967355Y-103253399D01*
X88967372Y-103253400D01*
X89615200Y-103253400D01*
X89615200Y-102347960D01*
X89668347Y-102378645D01*
X89798057Y-102413400D01*
X89932343Y-102413400D01*
X90062053Y-102378645D01*
X90115200Y-102347960D01*
X90115200Y-103253400D01*
X90763028Y-103253400D01*
X90763044Y-103253399D01*
X90822572Y-103246998D01*
X90822579Y-103246996D01*
X90957286Y-103196754D01*
X90957293Y-103196750D01*
X91072387Y-103110590D01*
X91072390Y-103110587D01*
X91158550Y-102995493D01*
X91158554Y-102995486D01*
X91208796Y-102860779D01*
X91208798Y-102860772D01*
X91215199Y-102801244D01*
X91215200Y-102801227D01*
X91215200Y-102606668D01*
X91234885Y-102539629D01*
X91287689Y-102493874D01*
X91356847Y-102483930D01*
X91420403Y-102512955D01*
X91438150Y-102531937D01*
X91551328Y-102681807D01*
X91708898Y-102825452D01*
X91890181Y-102937698D01*
X92089002Y-103014721D01*
X92298590Y-103053900D01*
X92298592Y-103053900D01*
X92511808Y-103053900D01*
X92511810Y-103053900D01*
X92721398Y-103014721D01*
X92920219Y-102937698D01*
X93101502Y-102825452D01*
X93259072Y-102681807D01*
X93387566Y-102511655D01*
X93436491Y-102413400D01*
X93482603Y-102320794D01*
X93482603Y-102320793D01*
X93482605Y-102320789D01*
X93540956Y-102115710D01*
X93560629Y-101903400D01*
X93540956Y-101691090D01*
X93482605Y-101486011D01*
X93482603Y-101486006D01*
X93482603Y-101486005D01*
X93387567Y-101295146D01*
X93259072Y-101124993D01*
X93230670Y-101099101D01*
X93101502Y-100981348D01*
X92920219Y-100869102D01*
X92920217Y-100869101D01*
X92771029Y-100811306D01*
X92721398Y-100792079D01*
X92511810Y-100752900D01*
X92298590Y-100752900D01*
X92089002Y-100792079D01*
X92088999Y-100792079D01*
X92088999Y-100792080D01*
X91890182Y-100869101D01*
X91890180Y-100869102D01*
X91708899Y-100981347D01*
X91551327Y-101124993D01*
X91438154Y-101274858D01*
X91382045Y-101316494D01*
X91312333Y-101321185D01*
X91251151Y-101287443D01*
X91217924Y-101225979D01*
X91215200Y-101200131D01*
X91215200Y-101005572D01*
X91215199Y-101005555D01*
X91208798Y-100946027D01*
X91208796Y-100946020D01*
X91158554Y-100811313D01*
X91158550Y-100811306D01*
X91072390Y-100696212D01*
X91072387Y-100696209D01*
X90957293Y-100610049D01*
X90957286Y-100610045D01*
X90822579Y-100559803D01*
X90822572Y-100559801D01*
X90763044Y-100553400D01*
X90115200Y-100553400D01*
X90115200Y-101458839D01*
X90062053Y-101428155D01*
X89932343Y-101393400D01*
X89798057Y-101393400D01*
X89668347Y-101428155D01*
X89615200Y-101458839D01*
X89615200Y-100553400D01*
X88967355Y-100553400D01*
X88907827Y-100559801D01*
X88907820Y-100559803D01*
X88773113Y-100610045D01*
X88773106Y-100610049D01*
X88658012Y-100696209D01*
X88658009Y-100696212D01*
X88571849Y-100811306D01*
X88571845Y-100811313D01*
X88521603Y-100946020D01*
X88521601Y-100946027D01*
X88515200Y-101005555D01*
X88515200Y-101200131D01*
X88495515Y-101267170D01*
X88442711Y-101312925D01*
X88373553Y-101322869D01*
X88309997Y-101293844D01*
X88292246Y-101274858D01*
X88179072Y-101124993D01*
X88150670Y-101099101D01*
X88021502Y-100981348D01*
X87840219Y-100869102D01*
X87840217Y-100869101D01*
X87691029Y-100811306D01*
X87641398Y-100792079D01*
X87431810Y-100752900D01*
X87218590Y-100752900D01*
X87009002Y-100792079D01*
X87008999Y-100792079D01*
X87008999Y-100792080D01*
X86810182Y-100869101D01*
X86810180Y-100869102D01*
X86628899Y-100981347D01*
X86471327Y-101124993D01*
X86342832Y-101295146D01*
X86247796Y-101486005D01*
X86247796Y-101486007D01*
X86189444Y-101691089D01*
X86169771Y-101903399D01*
X86169771Y-101903400D01*
X82105923Y-101903400D01*
X82052605Y-101716011D01*
X82052603Y-101716006D01*
X82052603Y-101716005D01*
X81957567Y-101525146D01*
X81829072Y-101354993D01*
X81793834Y-101322869D01*
X81671502Y-101211348D01*
X81490219Y-101099102D01*
X81490217Y-101099101D01*
X81390808Y-101060590D01*
X81291398Y-101022079D01*
X81094585Y-100985288D01*
X81032306Y-100953621D01*
X80997033Y-100893308D01*
X80999967Y-100823500D01*
X81040176Y-100766360D01*
X81094584Y-100741511D01*
X81291398Y-100704721D01*
X81490219Y-100627698D01*
X81671502Y-100515452D01*
X81829072Y-100371807D01*
X81957566Y-100201655D01*
X82052605Y-100010789D01*
X82110956Y-99805710D01*
X82130629Y-99593400D01*
X82110956Y-99381090D01*
X82052605Y-99176011D01*
X82052603Y-99176006D01*
X82052603Y-99176005D01*
X81957567Y-98985146D01*
X81829072Y-98814993D01*
X81671502Y-98671348D01*
X81671499Y-98671346D01*
X81671498Y-98671345D01*
X81609289Y-98632827D01*
X81562653Y-98580799D01*
X81551549Y-98511818D01*
X81579502Y-98447783D01*
X81637637Y-98409027D01*
X81674566Y-98403400D01*
X81873028Y-98403400D01*
X81873044Y-98403399D01*
X81932572Y-98396998D01*
X81932579Y-98396996D01*
X82067286Y-98346754D01*
X82067293Y-98346750D01*
X82182387Y-98260590D01*
X82182390Y-98260587D01*
X82268550Y-98145493D01*
X82268554Y-98145486D01*
X82318796Y-98010779D01*
X82318798Y-98010772D01*
X82325199Y-97951244D01*
X82325200Y-97951227D01*
X82325200Y-97303400D01*
X81419760Y-97303400D01*
X81450445Y-97250253D01*
X81485200Y-97120543D01*
X81485200Y-96986257D01*
X81450445Y-96856547D01*
X81419760Y-96803400D01*
X82325200Y-96803400D01*
X82325200Y-96155572D01*
X82325199Y-96155555D01*
X82318798Y-96096027D01*
X82318796Y-96096020D01*
X82268554Y-95961313D01*
X82268550Y-95961306D01*
X82182390Y-95846212D01*
X82182387Y-95846209D01*
X82067293Y-95760049D01*
X82067286Y-95760045D01*
X81932579Y-95709803D01*
X81932572Y-95709801D01*
X81873044Y-95703400D01*
X81674566Y-95703400D01*
X81607527Y-95683715D01*
X81561772Y-95630911D01*
X81551828Y-95561753D01*
X81580853Y-95498197D01*
X81609289Y-95473973D01*
X81629649Y-95461366D01*
X81671502Y-95435452D01*
X81829072Y-95291807D01*
X81957566Y-95121655D01*
X82052605Y-94930789D01*
X82110956Y-94725710D01*
X82130629Y-94513400D01*
X82110956Y-94301090D01*
X82052605Y-94096011D01*
X82052603Y-94096006D01*
X82052603Y-94096005D01*
X81957567Y-93905146D01*
X81829072Y-93734993D01*
X81671502Y-93591348D01*
X81490219Y-93479102D01*
X81490217Y-93479101D01*
X81390808Y-93440590D01*
X81291398Y-93402079D01*
X81094585Y-93365288D01*
X81032306Y-93333621D01*
X80997033Y-93273308D01*
X80999967Y-93203500D01*
X81040176Y-93146360D01*
X81094584Y-93121511D01*
X81291398Y-93084721D01*
X81490219Y-93007698D01*
X81671502Y-92895452D01*
X81829072Y-92751807D01*
X81957566Y-92581655D01*
X82018314Y-92459656D01*
X82052603Y-92390794D01*
X82052603Y-92390793D01*
X82052605Y-92390789D01*
X82110956Y-92185710D01*
X82130629Y-91973400D01*
X82110956Y-91761090D01*
X82052605Y-91556011D01*
X82052603Y-91556006D01*
X82052603Y-91556005D01*
X81957567Y-91365146D01*
X81829072Y-91194993D01*
X81799422Y-91167963D01*
X81671502Y-91051348D01*
X81490219Y-90939102D01*
X81490217Y-90939101D01*
X81355430Y-90886885D01*
X81291398Y-90862079D01*
X81094585Y-90825288D01*
X81032306Y-90793621D01*
X80997033Y-90733308D01*
X80999967Y-90663500D01*
X81040176Y-90606360D01*
X81094584Y-90581511D01*
X81291398Y-90544721D01*
X81490219Y-90467698D01*
X81671502Y-90355452D01*
X81829072Y-90211807D01*
X81957566Y-90041655D01*
X82052605Y-89850789D01*
X82110956Y-89645710D01*
X82130629Y-89433400D01*
X82110956Y-89221090D01*
X82052605Y-89016011D01*
X82052603Y-89016006D01*
X82052603Y-89016005D01*
X81957567Y-88825146D01*
X81829072Y-88654993D01*
X81799422Y-88627963D01*
X81671502Y-88511348D01*
X81490219Y-88399102D01*
X81490217Y-88399101D01*
X81390808Y-88360590D01*
X81291398Y-88322079D01*
X81094585Y-88285288D01*
X81032306Y-88253621D01*
X80997033Y-88193308D01*
X80999967Y-88123500D01*
X81040176Y-88066360D01*
X81094584Y-88041511D01*
X81291398Y-88004721D01*
X81490219Y-87927698D01*
X81671502Y-87815452D01*
X81829072Y-87671807D01*
X81957566Y-87501655D01*
X82037512Y-87341100D01*
X82052603Y-87310794D01*
X82052603Y-87310793D01*
X82052605Y-87310789D01*
X82110956Y-87105710D01*
X82130629Y-86893400D01*
X82110956Y-86681090D01*
X82052605Y-86476011D01*
X82052603Y-86476006D01*
X82052603Y-86476005D01*
X81957567Y-86285146D01*
X81829072Y-86114993D01*
X81801765Y-86090099D01*
X81671502Y-85971348D01*
X81671499Y-85971346D01*
X81671498Y-85971345D01*
X81609289Y-85932827D01*
X81562653Y-85880799D01*
X81551549Y-85811818D01*
X81579502Y-85747783D01*
X81637637Y-85709027D01*
X81674566Y-85703400D01*
X81873028Y-85703400D01*
X81873044Y-85703399D01*
X81932572Y-85696998D01*
X81932579Y-85696996D01*
X82067286Y-85646754D01*
X82067293Y-85646750D01*
X82182387Y-85560590D01*
X82182390Y-85560587D01*
X82268550Y-85445493D01*
X82268554Y-85445486D01*
X82318796Y-85310779D01*
X82318798Y-85310772D01*
X82325199Y-85251244D01*
X82325200Y-85251227D01*
X82325200Y-84603400D01*
X81419760Y-84603400D01*
X81450445Y-84550253D01*
X81485200Y-84420543D01*
X81485200Y-84286257D01*
X81450445Y-84156547D01*
X81419760Y-84103400D01*
X82325200Y-84103400D01*
X82325200Y-83455572D01*
X82325199Y-83455555D01*
X82318798Y-83396027D01*
X82318796Y-83396020D01*
X82268554Y-83261313D01*
X82268550Y-83261306D01*
X82182390Y-83146212D01*
X82182387Y-83146209D01*
X82067293Y-83060049D01*
X82067286Y-83060045D01*
X81932579Y-83009803D01*
X81932572Y-83009801D01*
X81873044Y-83003400D01*
X81674566Y-83003400D01*
X81607527Y-82983715D01*
X81561772Y-82930911D01*
X81551828Y-82861753D01*
X81580853Y-82798197D01*
X81609289Y-82773973D01*
X81629649Y-82761366D01*
X81671502Y-82735452D01*
X81829072Y-82591807D01*
X81957566Y-82421655D01*
X81976890Y-82382846D01*
X82052603Y-82230794D01*
X82052603Y-82230793D01*
X82052605Y-82230789D01*
X82110956Y-82025710D01*
X82130629Y-81813400D01*
X82129735Y-81803757D01*
X82121082Y-81710372D01*
X82110956Y-81601090D01*
X82052605Y-81396011D01*
X82052603Y-81396006D01*
X82052603Y-81396005D01*
X81957567Y-81205146D01*
X81829072Y-81034993D01*
X81671502Y-80891348D01*
X81490219Y-80779102D01*
X81490217Y-80779101D01*
X81316496Y-80711802D01*
X81291398Y-80702079D01*
X81094585Y-80665288D01*
X81032306Y-80633621D01*
X80997033Y-80573308D01*
X80999967Y-80503500D01*
X81040176Y-80446360D01*
X81094584Y-80421511D01*
X81291398Y-80384721D01*
X81490219Y-80307698D01*
X81671502Y-80195452D01*
X81829072Y-80051807D01*
X81957566Y-79881655D01*
X82052605Y-79690789D01*
X82110956Y-79485710D01*
X82130629Y-79273400D01*
X82110956Y-79061090D01*
X82052605Y-78856011D01*
X82052603Y-78856006D01*
X82052603Y-78856005D01*
X81957567Y-78665146D01*
X81829072Y-78494993D01*
X81671502Y-78351348D01*
X81490219Y-78239102D01*
X81490217Y-78239101D01*
X81390808Y-78200590D01*
X81291398Y-78162079D01*
X81094585Y-78125288D01*
X81032306Y-78093621D01*
X80997033Y-78033308D01*
X80999967Y-77963500D01*
X81040176Y-77906360D01*
X81094584Y-77881511D01*
X81291398Y-77844721D01*
X81490219Y-77767698D01*
X81671502Y-77655452D01*
X81829072Y-77511807D01*
X81957566Y-77341655D01*
X82012163Y-77232008D01*
X82052603Y-77150794D01*
X82052603Y-77150793D01*
X82052605Y-77150789D01*
X82110956Y-76945710D01*
X82130629Y-76733400D01*
X82110956Y-76521090D01*
X82052605Y-76316011D01*
X82052603Y-76316006D01*
X82052603Y-76316005D01*
X81957567Y-76125146D01*
X81857492Y-75992627D01*
X81832800Y-75927266D01*
X81847365Y-75858931D01*
X81896562Y-75809319D01*
X81956446Y-75793900D01*
X85825216Y-75793900D01*
X85825218Y-75793900D01*
X85933437Y-75764903D01*
X86030463Y-75708885D01*
X87084129Y-74655219D01*
X87145452Y-74621734D01*
X87171810Y-74618900D01*
X97605056Y-74618900D01*
X97672095Y-74638585D01*
X97716056Y-74687629D01*
X97772832Y-74801653D01*
X97877358Y-74940066D01*
X97901328Y-74971807D01*
X98058898Y-75115452D01*
X98240181Y-75227698D01*
X98439002Y-75304721D01*
X98635813Y-75341511D01*
X98698093Y-75373179D01*
X98733366Y-75433492D01*
X98730432Y-75503300D01*
X98690223Y-75560440D01*
X98635813Y-75585288D01*
X98439002Y-75622079D01*
X98438999Y-75622079D01*
X98438999Y-75622080D01*
X98240182Y-75699101D01*
X98240180Y-75699102D01*
X98058899Y-75811347D01*
X97901327Y-75954993D01*
X97772832Y-76125146D01*
X97677796Y-76316005D01*
X97677796Y-76316007D01*
X97626432Y-76496531D01*
X97619444Y-76521090D01*
X97599771Y-76733400D01*
X97619444Y-76945710D01*
X97675956Y-77144327D01*
X97677796Y-77150792D01*
X97677796Y-77150794D01*
X97772832Y-77341653D01*
X97772834Y-77341655D01*
X97901328Y-77511807D01*
X98058898Y-77655452D01*
X98240181Y-77767698D01*
X98439002Y-77844721D01*
X98635813Y-77881511D01*
X98698093Y-77913179D01*
X98733366Y-77973492D01*
X98730432Y-78043300D01*
X98690223Y-78100440D01*
X98635813Y-78125288D01*
X98439002Y-78162079D01*
X98438999Y-78162079D01*
X98438999Y-78162080D01*
X98240182Y-78239101D01*
X98240180Y-78239102D01*
X98058899Y-78351347D01*
X97901327Y-78494993D01*
X97772832Y-78665146D01*
X97677796Y-78856005D01*
X97677796Y-78856007D01*
X97619444Y-79061089D01*
X97599771Y-79273399D01*
X97599771Y-79273400D01*
X97619444Y-79485710D01*
X97677796Y-79690792D01*
X97677796Y-79690794D01*
X97772832Y-79881653D01*
X97818739Y-79942443D01*
X97901328Y-80051807D01*
X98058898Y-80195452D01*
X98240181Y-80307698D01*
X98439002Y-80384721D01*
X98635813Y-80421511D01*
X98698093Y-80453179D01*
X98733366Y-80513492D01*
X98730432Y-80583300D01*
X98690223Y-80640440D01*
X98635813Y-80665288D01*
X98439002Y-80702079D01*
X98438999Y-80702079D01*
X98438999Y-80702080D01*
X98240182Y-80779101D01*
X98240180Y-80779102D01*
X98058899Y-80891347D01*
X97901327Y-81034993D01*
X97772832Y-81205146D01*
X97677796Y-81396005D01*
X97677796Y-81396007D01*
X97619444Y-81601089D01*
X97600665Y-81803757D01*
X97599771Y-81813400D01*
X97619444Y-82025710D01*
X97672209Y-82211158D01*
X97677796Y-82230792D01*
X97677796Y-82230794D01*
X97772832Y-82421653D01*
X97772834Y-82421655D01*
X97901328Y-82591807D01*
X98058898Y-82735452D01*
X98058900Y-82735453D01*
X98058901Y-82735454D01*
X98121111Y-82773973D01*
X98167747Y-82826001D01*
X98178851Y-82894982D01*
X98150898Y-82959017D01*
X98092763Y-82997773D01*
X98055834Y-83003400D01*
X97857355Y-83003400D01*
X97797827Y-83009801D01*
X97797820Y-83009803D01*
X97663113Y-83060045D01*
X97663106Y-83060049D01*
X97548012Y-83146209D01*
X97548009Y-83146212D01*
X97461849Y-83261306D01*
X97461845Y-83261313D01*
X97411603Y-83396020D01*
X97411601Y-83396027D01*
X97405200Y-83455555D01*
X97405200Y-84103400D01*
X98310640Y-84103400D01*
X98279955Y-84156547D01*
X98245200Y-84286257D01*
X98245200Y-84420543D01*
X98279955Y-84550253D01*
X98310640Y-84603400D01*
X97405200Y-84603400D01*
X97405200Y-85251244D01*
X97411601Y-85310772D01*
X97411603Y-85310779D01*
X97461845Y-85445486D01*
X97461849Y-85445493D01*
X97548009Y-85560587D01*
X97548012Y-85560590D01*
X97663106Y-85646750D01*
X97663113Y-85646754D01*
X97797820Y-85696996D01*
X97797827Y-85696998D01*
X97857355Y-85703399D01*
X97857372Y-85703400D01*
X98055834Y-85703400D01*
X98122873Y-85723085D01*
X98168628Y-85775889D01*
X98178572Y-85845047D01*
X98149547Y-85908603D01*
X98121111Y-85932827D01*
X98058901Y-85971345D01*
X97901327Y-86114993D01*
X97772832Y-86285146D01*
X97677796Y-86476005D01*
X97677796Y-86476007D01*
X97677795Y-86476011D01*
X97619444Y-86681090D01*
X97599771Y-86893400D01*
X97619444Y-87105710D01*
X97673324Y-87295077D01*
X97677796Y-87310792D01*
X97677796Y-87310794D01*
X97772832Y-87501653D01*
X97863343Y-87621507D01*
X97901328Y-87671807D01*
X98058898Y-87815452D01*
X98240181Y-87927698D01*
X98439002Y-88004721D01*
X98635813Y-88041511D01*
X98698093Y-88073179D01*
X98733366Y-88133492D01*
X98730432Y-88203300D01*
X98690223Y-88260440D01*
X98635813Y-88285288D01*
X98439002Y-88322079D01*
X98438999Y-88322079D01*
X98438999Y-88322080D01*
X98240182Y-88399101D01*
X98240180Y-88399102D01*
X98058899Y-88511347D01*
X97901327Y-88654993D01*
X97772832Y-88825146D01*
X97677796Y-89016005D01*
X97677796Y-89016007D01*
X97619444Y-89221089D01*
X97610310Y-89319669D01*
X97599771Y-89433400D01*
X97619444Y-89645710D01*
X97671338Y-89828097D01*
X97677796Y-89850792D01*
X97677796Y-89850794D01*
X97772832Y-90041653D01*
X97901327Y-90211806D01*
X97901328Y-90211807D01*
X98058898Y-90355452D01*
X98240181Y-90467698D01*
X98439002Y-90544721D01*
X98635813Y-90581511D01*
X98698093Y-90613179D01*
X98733366Y-90673492D01*
X98730432Y-90743300D01*
X98690223Y-90800440D01*
X98635813Y-90825288D01*
X98439002Y-90862079D01*
X98438999Y-90862079D01*
X98438999Y-90862080D01*
X98240182Y-90939101D01*
X98240180Y-90939102D01*
X98058899Y-91051347D01*
X97901327Y-91194993D01*
X97772832Y-91365146D01*
X97677796Y-91556005D01*
X97677796Y-91556007D01*
X97620304Y-91758069D01*
X97619444Y-91761090D01*
X97599771Y-91973400D01*
X97619444Y-92185710D01*
X97671206Y-92367633D01*
X97677796Y-92390792D01*
X97677796Y-92390794D01*
X97772832Y-92581653D01*
X97901327Y-92751806D01*
X97901328Y-92751807D01*
X98058898Y-92895452D01*
X98240181Y-93007698D01*
X98439002Y-93084721D01*
X98635813Y-93121511D01*
X98698093Y-93153179D01*
X98733366Y-93213492D01*
X98730432Y-93283300D01*
X98690223Y-93340440D01*
X98635813Y-93365288D01*
X98439002Y-93402079D01*
X98438999Y-93402079D01*
X98438999Y-93402080D01*
X98240182Y-93479101D01*
X98240180Y-93479102D01*
X98058899Y-93591347D01*
X97901327Y-93734993D01*
X97772832Y-93905146D01*
X97677796Y-94096005D01*
X97677796Y-94096007D01*
X97672281Y-94115392D01*
X97619444Y-94301090D01*
X97599771Y-94513400D01*
X97619444Y-94725710D01*
X97671206Y-94907633D01*
X97677796Y-94930792D01*
X97677796Y-94930794D01*
X97772832Y-95121653D01*
X97901327Y-95291806D01*
X97901328Y-95291807D01*
X98058898Y-95435452D01*
X98058900Y-95435453D01*
X98058901Y-95435454D01*
X98121111Y-95473973D01*
X98167747Y-95526001D01*
X98178851Y-95594982D01*
X98150898Y-95659017D01*
X98092763Y-95697773D01*
X98055834Y-95703400D01*
X97857355Y-95703400D01*
X97797827Y-95709801D01*
X97797820Y-95709803D01*
X97663113Y-95760045D01*
X97663106Y-95760049D01*
X97548012Y-95846209D01*
X97548009Y-95846212D01*
X97461849Y-95961306D01*
X97461845Y-95961313D01*
X97411603Y-96096020D01*
X97411601Y-96096027D01*
X97405200Y-96155555D01*
X97405200Y-96803400D01*
X98310640Y-96803400D01*
X98279955Y-96856547D01*
X98245200Y-96986257D01*
X98245200Y-97120543D01*
X98279955Y-97250253D01*
X98310640Y-97303400D01*
X97405200Y-97303400D01*
X97405200Y-97951244D01*
X97411601Y-98010772D01*
X97411603Y-98010779D01*
X97461845Y-98145486D01*
X97461849Y-98145493D01*
X97548009Y-98260587D01*
X97548012Y-98260590D01*
X97663106Y-98346750D01*
X97663113Y-98346754D01*
X97797820Y-98396996D01*
X97797827Y-98396998D01*
X97857355Y-98403399D01*
X97857372Y-98403400D01*
X98055834Y-98403400D01*
X98122873Y-98423085D01*
X98168628Y-98475889D01*
X98178572Y-98545047D01*
X98149547Y-98608603D01*
X98121111Y-98632827D01*
X98058901Y-98671345D01*
X97901327Y-98814993D01*
X97772832Y-98985146D01*
X97677796Y-99176005D01*
X97677796Y-99176007D01*
X97619444Y-99381089D01*
X97599771Y-99593399D01*
X97599771Y-99593400D01*
X97619444Y-99805710D01*
X97677796Y-100010792D01*
X97677796Y-100010794D01*
X97772832Y-100201653D01*
X97772834Y-100201655D01*
X97901328Y-100371807D01*
X98058898Y-100515452D01*
X98240181Y-100627698D01*
X98439002Y-100704721D01*
X98635813Y-100741511D01*
X98698093Y-100773179D01*
X98733366Y-100833492D01*
X98730432Y-100903300D01*
X98690223Y-100960440D01*
X98635813Y-100985288D01*
X98439002Y-101022079D01*
X98438999Y-101022079D01*
X98438999Y-101022080D01*
X98240182Y-101099101D01*
X98240180Y-101099102D01*
X98058899Y-101211347D01*
X97901327Y-101354993D01*
X97772832Y-101525146D01*
X97677796Y-101716005D01*
X97677796Y-101716007D01*
X97624478Y-101903399D01*
X97619444Y-101921090D01*
X97599771Y-102133400D01*
X97619444Y-102345710D01*
X97668851Y-102519356D01*
X97677796Y-102550792D01*
X97677796Y-102550794D01*
X97772832Y-102741653D01*
X97862793Y-102860779D01*
X97901328Y-102911807D01*
X98058898Y-103055452D01*
X98240181Y-103167698D01*
X98439002Y-103244721D01*
X98648590Y-103283900D01*
X98648592Y-103283900D01*
X98861808Y-103283900D01*
X98861810Y-103283900D01*
X99071398Y-103244721D01*
X99270219Y-103167698D01*
X99451502Y-103055452D01*
X99609072Y-102911807D01*
X99737566Y-102741655D01*
X99737567Y-102741653D01*
X99832603Y-102550794D01*
X99832603Y-102550793D01*
X99832605Y-102550789D01*
X99890956Y-102345710D01*
X99910629Y-102133400D01*
X99890956Y-101921090D01*
X99832605Y-101716011D01*
X99832603Y-101716006D01*
X99832603Y-101716005D01*
X99737567Y-101525146D01*
X99609072Y-101354993D01*
X99573834Y-101322869D01*
X99451502Y-101211348D01*
X99270219Y-101099102D01*
X99270217Y-101099101D01*
X99170808Y-101060590D01*
X99071398Y-101022079D01*
X98874585Y-100985288D01*
X98812306Y-100953621D01*
X98777033Y-100893308D01*
X98779967Y-100823500D01*
X98820176Y-100766360D01*
X98874584Y-100741511D01*
X99071398Y-100704721D01*
X99270219Y-100627698D01*
X99451502Y-100515452D01*
X99609072Y-100371807D01*
X99737566Y-100201655D01*
X99832605Y-100010789D01*
X99890956Y-99805710D01*
X99910629Y-99593400D01*
X99890956Y-99381090D01*
X99832605Y-99176011D01*
X99832603Y-99176006D01*
X99832603Y-99176005D01*
X99737567Y-98985146D01*
X99609072Y-98814993D01*
X99451502Y-98671348D01*
X99451499Y-98671346D01*
X99451498Y-98671345D01*
X99389289Y-98632827D01*
X99342653Y-98580799D01*
X99331549Y-98511818D01*
X99359502Y-98447783D01*
X99417637Y-98409027D01*
X99454566Y-98403400D01*
X99653028Y-98403400D01*
X99653044Y-98403399D01*
X99712572Y-98396998D01*
X99712579Y-98396996D01*
X99847286Y-98346754D01*
X99847293Y-98346750D01*
X99962387Y-98260590D01*
X99962390Y-98260587D01*
X100048550Y-98145493D01*
X100048554Y-98145486D01*
X100098796Y-98010779D01*
X100098798Y-98010772D01*
X100105199Y-97951244D01*
X100105200Y-97951227D01*
X100105200Y-97303400D01*
X99199760Y-97303400D01*
X99230445Y-97250253D01*
X99265200Y-97120543D01*
X99265200Y-96986257D01*
X99230445Y-96856547D01*
X99199760Y-96803400D01*
X100105200Y-96803400D01*
X100105200Y-96155572D01*
X100105199Y-96155555D01*
X100098798Y-96096027D01*
X100098796Y-96096020D01*
X100048554Y-95961313D01*
X100048550Y-95961306D01*
X99962390Y-95846212D01*
X99962387Y-95846209D01*
X99847293Y-95760049D01*
X99847286Y-95760045D01*
X99712579Y-95709803D01*
X99712572Y-95709801D01*
X99653044Y-95703400D01*
X99454566Y-95703400D01*
X99387527Y-95683715D01*
X99341772Y-95630911D01*
X99331828Y-95561753D01*
X99360853Y-95498197D01*
X99389289Y-95473973D01*
X99409649Y-95461366D01*
X99451502Y-95435452D01*
X99609072Y-95291807D01*
X99737566Y-95121655D01*
X99832605Y-94930789D01*
X99890956Y-94725710D01*
X99910629Y-94513400D01*
X99890956Y-94301090D01*
X99832605Y-94096011D01*
X99832603Y-94096006D01*
X99832603Y-94096005D01*
X99737567Y-93905146D01*
X99609072Y-93734993D01*
X99451502Y-93591348D01*
X99270219Y-93479102D01*
X99270217Y-93479101D01*
X99170808Y-93440590D01*
X99071398Y-93402079D01*
X98874585Y-93365288D01*
X98812306Y-93333621D01*
X98777033Y-93273308D01*
X98779967Y-93203500D01*
X98820176Y-93146360D01*
X98874584Y-93121511D01*
X99071398Y-93084721D01*
X99270219Y-93007698D01*
X99451502Y-92895452D01*
X99609072Y-92751807D01*
X99737566Y-92581655D01*
X99798314Y-92459656D01*
X99832603Y-92390794D01*
X99832603Y-92390793D01*
X99832605Y-92390789D01*
X99890956Y-92185710D01*
X99910629Y-91973400D01*
X99890956Y-91761090D01*
X99832605Y-91556011D01*
X99832603Y-91556006D01*
X99832603Y-91556005D01*
X99737567Y-91365146D01*
X99609072Y-91194993D01*
X99579422Y-91167963D01*
X99451502Y-91051348D01*
X99270219Y-90939102D01*
X99270217Y-90939101D01*
X99135430Y-90886885D01*
X99071398Y-90862079D01*
X98874585Y-90825288D01*
X98812306Y-90793621D01*
X98777033Y-90733308D01*
X98779967Y-90663500D01*
X98820176Y-90606360D01*
X98874584Y-90581511D01*
X99071398Y-90544721D01*
X99270219Y-90467698D01*
X99451502Y-90355452D01*
X99609072Y-90211807D01*
X99737566Y-90041655D01*
X99832605Y-89850789D01*
X99890956Y-89645710D01*
X99910629Y-89433400D01*
X99890956Y-89221090D01*
X99832605Y-89016011D01*
X99832603Y-89016006D01*
X99832603Y-89016005D01*
X99737567Y-88825146D01*
X99609072Y-88654993D01*
X99579422Y-88627963D01*
X99451502Y-88511348D01*
X99270219Y-88399102D01*
X99270217Y-88399101D01*
X99170808Y-88360590D01*
X99071398Y-88322079D01*
X98874585Y-88285288D01*
X98812306Y-88253621D01*
X98777033Y-88193308D01*
X98779967Y-88123500D01*
X98820176Y-88066360D01*
X98874584Y-88041511D01*
X99071398Y-88004721D01*
X99270219Y-87927698D01*
X99451502Y-87815452D01*
X99609072Y-87671807D01*
X99737566Y-87501655D01*
X99817512Y-87341100D01*
X99832603Y-87310794D01*
X99832603Y-87310793D01*
X99832605Y-87310789D01*
X99890956Y-87105710D01*
X99910629Y-86893400D01*
X99890956Y-86681090D01*
X99832605Y-86476011D01*
X99832603Y-86476006D01*
X99832603Y-86476005D01*
X99737567Y-86285146D01*
X99609072Y-86114993D01*
X99581765Y-86090099D01*
X99451502Y-85971348D01*
X99451499Y-85971346D01*
X99451498Y-85971345D01*
X99389289Y-85932827D01*
X99342653Y-85880799D01*
X99331549Y-85811818D01*
X99359502Y-85747783D01*
X99417637Y-85709027D01*
X99454566Y-85703400D01*
X99653028Y-85703400D01*
X99653044Y-85703399D01*
X99712572Y-85696998D01*
X99712579Y-85696996D01*
X99847286Y-85646754D01*
X99847293Y-85646750D01*
X99962387Y-85560590D01*
X99962390Y-85560587D01*
X100048550Y-85445493D01*
X100048554Y-85445486D01*
X100098796Y-85310779D01*
X100098798Y-85310772D01*
X100105199Y-85251244D01*
X100105200Y-85251227D01*
X100105200Y-84603400D01*
X99199760Y-84603400D01*
X99230445Y-84550253D01*
X99265200Y-84420543D01*
X99265200Y-84286257D01*
X99230445Y-84156547D01*
X99199760Y-84103400D01*
X100105200Y-84103400D01*
X100105200Y-83455572D01*
X100105199Y-83455555D01*
X100098798Y-83396027D01*
X100098796Y-83396020D01*
X100048554Y-83261313D01*
X100048550Y-83261306D01*
X99962390Y-83146212D01*
X99962387Y-83146209D01*
X99847293Y-83060049D01*
X99847286Y-83060045D01*
X99712579Y-83009803D01*
X99712572Y-83009801D01*
X99653044Y-83003400D01*
X99454566Y-83003400D01*
X99387527Y-82983715D01*
X99341772Y-82930911D01*
X99331828Y-82861753D01*
X99360853Y-82798197D01*
X99389289Y-82773973D01*
X99409649Y-82761366D01*
X99451502Y-82735452D01*
X99609072Y-82591807D01*
X99737566Y-82421655D01*
X99756890Y-82382846D01*
X99832603Y-82230794D01*
X99832603Y-82230793D01*
X99832605Y-82230789D01*
X99890956Y-82025710D01*
X99910629Y-81813400D01*
X99909735Y-81803757D01*
X99901082Y-81710372D01*
X99890956Y-81601090D01*
X99832605Y-81396011D01*
X99832603Y-81396006D01*
X99832603Y-81396005D01*
X99737567Y-81205146D01*
X99609072Y-81034993D01*
X99451502Y-80891348D01*
X99270219Y-80779102D01*
X99270217Y-80779101D01*
X99096496Y-80711802D01*
X99071398Y-80702079D01*
X98874585Y-80665288D01*
X98812306Y-80633621D01*
X98777033Y-80573308D01*
X98779967Y-80503500D01*
X98820176Y-80446360D01*
X98874584Y-80421511D01*
X99071398Y-80384721D01*
X99270219Y-80307698D01*
X99451502Y-80195452D01*
X99609072Y-80051807D01*
X99737566Y-79881655D01*
X99832605Y-79690789D01*
X99890956Y-79485710D01*
X99910629Y-79273400D01*
X99890956Y-79061090D01*
X99832605Y-78856011D01*
X99832603Y-78856006D01*
X99832603Y-78856005D01*
X99737567Y-78665146D01*
X99609072Y-78494993D01*
X99451502Y-78351348D01*
X99270219Y-78239102D01*
X99270217Y-78239101D01*
X99170808Y-78200590D01*
X99071398Y-78162079D01*
X98874585Y-78125288D01*
X98812306Y-78093621D01*
X98777033Y-78033308D01*
X98779967Y-77963500D01*
X98820176Y-77906360D01*
X98874584Y-77881511D01*
X99071398Y-77844721D01*
X99270219Y-77767698D01*
X99451502Y-77655452D01*
X99609072Y-77511807D01*
X99737566Y-77341655D01*
X99792163Y-77232008D01*
X99832603Y-77150794D01*
X99832603Y-77150793D01*
X99832605Y-77150789D01*
X99890956Y-76945710D01*
X99910629Y-76733400D01*
X99890956Y-76521090D01*
X99832605Y-76316011D01*
X99832603Y-76316006D01*
X99832603Y-76316005D01*
X99737567Y-76125146D01*
X99609072Y-75954993D01*
X99451502Y-75811348D01*
X99270219Y-75699102D01*
X99270217Y-75699101D01*
X99170808Y-75660590D01*
X99071398Y-75622079D01*
X98874585Y-75585288D01*
X98812306Y-75553621D01*
X98777033Y-75493308D01*
X98779967Y-75423500D01*
X98820176Y-75366360D01*
X98874584Y-75341511D01*
X99071398Y-75304721D01*
X99270219Y-75227698D01*
X99451502Y-75115452D01*
X99609072Y-74971807D01*
X99737566Y-74801655D01*
X99794344Y-74687629D01*
X99832603Y-74610794D01*
X99832603Y-74610793D01*
X99832605Y-74610789D01*
X99890956Y-74405710D01*
X99910629Y-74193400D01*
X99890956Y-73981090D01*
X99832605Y-73776011D01*
X99832603Y-73776006D01*
X99832603Y-73776005D01*
X99737567Y-73585146D01*
X99609072Y-73414993D01*
X99608033Y-73414046D01*
X99451502Y-73271348D01*
X99451499Y-73271346D01*
X99451498Y-73271345D01*
X99389289Y-73232827D01*
X99342653Y-73180799D01*
X99331549Y-73111818D01*
X99359502Y-73047783D01*
X99417637Y-73009027D01*
X99454566Y-73003400D01*
X99653028Y-73003400D01*
X99653044Y-73003399D01*
X99712572Y-72996998D01*
X99712579Y-72996996D01*
X99847286Y-72946754D01*
X99847293Y-72946750D01*
X99962387Y-72860590D01*
X99962390Y-72860587D01*
X100048550Y-72745493D01*
X100048554Y-72745486D01*
X100098796Y-72610779D01*
X100098798Y-72610772D01*
X100105199Y-72551244D01*
X100105200Y-72551227D01*
X100105200Y-71903400D01*
X99199760Y-71903400D01*
X99230445Y-71850253D01*
X99265200Y-71720543D01*
X99265200Y-71586257D01*
X99230445Y-71456547D01*
X99199760Y-71403400D01*
X100105200Y-71403400D01*
X100105200Y-70755572D01*
X100105199Y-70755555D01*
X100098798Y-70696027D01*
X100098796Y-70696020D01*
X100048554Y-70561313D01*
X100048550Y-70561306D01*
X99962390Y-70446212D01*
X99962387Y-70446209D01*
X99847293Y-70360049D01*
X99847286Y-70360045D01*
X99712579Y-70309803D01*
X99712572Y-70309801D01*
X99653044Y-70303400D01*
X99454566Y-70303400D01*
X99387527Y-70283715D01*
X99341772Y-70230911D01*
X99331828Y-70161753D01*
X99360853Y-70098197D01*
X99389289Y-70073973D01*
X99409649Y-70061366D01*
X99451502Y-70035452D01*
X99609072Y-69891807D01*
X99737566Y-69721655D01*
X99832605Y-69530789D01*
X99890956Y-69325710D01*
X99910629Y-69113400D01*
X99890956Y-68901090D01*
X99832605Y-68696011D01*
X99832603Y-68696006D01*
X99832603Y-68696005D01*
X99737567Y-68505146D01*
X99609072Y-68334993D01*
X99547525Y-68278885D01*
X99451502Y-68191348D01*
X99270219Y-68079102D01*
X99270217Y-68079101D01*
X99122180Y-68021752D01*
X99071398Y-68002079D01*
X98874585Y-67965288D01*
X98812306Y-67933621D01*
X98777033Y-67873308D01*
X98779967Y-67803500D01*
X98820176Y-67746360D01*
X98874584Y-67721511D01*
X99071398Y-67684721D01*
X99270219Y-67607698D01*
X99451502Y-67495452D01*
X99609072Y-67351807D01*
X99737566Y-67181655D01*
X99737567Y-67181653D01*
X99794344Y-67067629D01*
X99841846Y-67016392D01*
X99905344Y-66998900D01*
X100665416Y-66998900D01*
X100665418Y-66998900D01*
X100773637Y-66969903D01*
X100870663Y-66913885D01*
X101457884Y-66326664D01*
X101466272Y-66312137D01*
X101513903Y-66229637D01*
X101542900Y-66121418D01*
X101542900Y-63697982D01*
X101513903Y-63589763D01*
X101457885Y-63492737D01*
X101378663Y-63413515D01*
X100483063Y-62517915D01*
X100386037Y-62461897D01*
X100277818Y-62432900D01*
X100277817Y-62432900D01*
X99736446Y-62432900D01*
X99669407Y-62413215D01*
X99623652Y-62360411D01*
X99613708Y-62291253D01*
X99637492Y-62234173D01*
X99737566Y-62101655D01*
X99737567Y-62101653D01*
X99832603Y-61910794D01*
X99832603Y-61910793D01*
X99832605Y-61910789D01*
X99890956Y-61705710D01*
X99910629Y-61493400D01*
X99890956Y-61281090D01*
X99832605Y-61076011D01*
X99832603Y-61076006D01*
X99832603Y-61076005D01*
X99737567Y-60885146D01*
X99609072Y-60714993D01*
X99600293Y-60706990D01*
X99451502Y-60571348D01*
X99451499Y-60571346D01*
X99451498Y-60571345D01*
X99389289Y-60532827D01*
X99342653Y-60480799D01*
X99331549Y-60411818D01*
X99359502Y-60347783D01*
X99417637Y-60309027D01*
X99454566Y-60303400D01*
X99653028Y-60303400D01*
X99653044Y-60303399D01*
X99712572Y-60296998D01*
X99712579Y-60296996D01*
X99847286Y-60246754D01*
X99847293Y-60246750D01*
X99962387Y-60160590D01*
X99962390Y-60160587D01*
X100048550Y-60045493D01*
X100048554Y-60045486D01*
X100098796Y-59910779D01*
X100098798Y-59910772D01*
X100105199Y-59851244D01*
X100105200Y-59851227D01*
X100105200Y-59203400D01*
X99199760Y-59203400D01*
X99230445Y-59150253D01*
X99265200Y-59020543D01*
X99265200Y-58886257D01*
X99230445Y-58756547D01*
X99199760Y-58703400D01*
X100105200Y-58703400D01*
X100105200Y-58055572D01*
X100105199Y-58055555D01*
X100098798Y-57996027D01*
X100098796Y-57996020D01*
X100048554Y-57861313D01*
X100048550Y-57861306D01*
X99962390Y-57746212D01*
X99962387Y-57746209D01*
X99847293Y-57660049D01*
X99847286Y-57660045D01*
X99712579Y-57609803D01*
X99712572Y-57609801D01*
X99653044Y-57603400D01*
X99454566Y-57603400D01*
X99387527Y-57583715D01*
X99341772Y-57530911D01*
X99331828Y-57461753D01*
X99360853Y-57398197D01*
X99389289Y-57373973D01*
X99409649Y-57361366D01*
X99451502Y-57335452D01*
X99609072Y-57191807D01*
X99737566Y-57021655D01*
X99832605Y-56830789D01*
X99890956Y-56625710D01*
X99910629Y-56413400D01*
X99890956Y-56201090D01*
X99832605Y-55996011D01*
X99832603Y-55996006D01*
X99832603Y-55996005D01*
X99737567Y-55805146D01*
X99609072Y-55634993D01*
X99592802Y-55620161D01*
X99451502Y-55491348D01*
X99270219Y-55379102D01*
X99270217Y-55379101D01*
X99170808Y-55340590D01*
X99071398Y-55302079D01*
X98874585Y-55265288D01*
X98812306Y-55233621D01*
X98777033Y-55173308D01*
X98779967Y-55103500D01*
X98820176Y-55046360D01*
X98874584Y-55021511D01*
X99071398Y-54984721D01*
X99270219Y-54907698D01*
X99451502Y-54795452D01*
X99609072Y-54651807D01*
X99737566Y-54481655D01*
X99758841Y-54438928D01*
X99832603Y-54290794D01*
X99832603Y-54290793D01*
X99832605Y-54290789D01*
X99890956Y-54085710D01*
X99910629Y-53873400D01*
X99890956Y-53661090D01*
X99832605Y-53456011D01*
X99832603Y-53456006D01*
X99832603Y-53456005D01*
X99737567Y-53265146D01*
X99609072Y-53094993D01*
X99599246Y-53086035D01*
X99451502Y-52951348D01*
X99270219Y-52839102D01*
X99270217Y-52839101D01*
X99170808Y-52800590D01*
X99071398Y-52762079D01*
X98861810Y-52722900D01*
X98648590Y-52722900D01*
X98439002Y-52762079D01*
X98438999Y-52762079D01*
X98438999Y-52762080D01*
X98240182Y-52839101D01*
X98240180Y-52839102D01*
X98058899Y-52951347D01*
X97901327Y-53094993D01*
X97772832Y-53265146D01*
X97677796Y-53456005D01*
X97677796Y-53456007D01*
X97622963Y-53648723D01*
X97619444Y-53661090D01*
X97599771Y-53873400D01*
X97619444Y-54085710D01*
X97659056Y-54224931D01*
X97677796Y-54290792D01*
X97677796Y-54290794D01*
X97772832Y-54481653D01*
X97899099Y-54648856D01*
X97901328Y-54651807D01*
X98058898Y-54795452D01*
X98240181Y-54907698D01*
X98439002Y-54984721D01*
X98635813Y-55021511D01*
X98698093Y-55053179D01*
X98733366Y-55113492D01*
X98730432Y-55183300D01*
X98690223Y-55240440D01*
X98635813Y-55265288D01*
X98439002Y-55302079D01*
X98438999Y-55302079D01*
X98438999Y-55302080D01*
X98240182Y-55379101D01*
X98240180Y-55379102D01*
X98058899Y-55491347D01*
X97901327Y-55634993D01*
X97772832Y-55805146D01*
X97677796Y-55996005D01*
X97677796Y-55996007D01*
X97619444Y-56201089D01*
X97599771Y-56413399D01*
X97599771Y-56413400D01*
X97619444Y-56625710D01*
X97677796Y-56830792D01*
X97677796Y-56830794D01*
X97772832Y-57021653D01*
X97804396Y-57063450D01*
X97901328Y-57191807D01*
X98058898Y-57335452D01*
X98058900Y-57335453D01*
X98058901Y-57335454D01*
X98121111Y-57373973D01*
X98167747Y-57426001D01*
X98178851Y-57494982D01*
X98150898Y-57559017D01*
X98092763Y-57597773D01*
X98055834Y-57603400D01*
X97857355Y-57603400D01*
X97797827Y-57609801D01*
X97797820Y-57609803D01*
X97663113Y-57660045D01*
X97663106Y-57660049D01*
X97548012Y-57746209D01*
X97548009Y-57746212D01*
X97461849Y-57861306D01*
X97461845Y-57861313D01*
X97411603Y-57996020D01*
X97411601Y-57996027D01*
X97405200Y-58055555D01*
X97405200Y-58703400D01*
X98310640Y-58703400D01*
X98279955Y-58756547D01*
X98245200Y-58886257D01*
X98245200Y-59020543D01*
X98279955Y-59150253D01*
X98310640Y-59203400D01*
X97405200Y-59203400D01*
X97405200Y-59768900D01*
X97385515Y-59835939D01*
X97332711Y-59881694D01*
X97281200Y-59892900D01*
X82449200Y-59892900D01*
X82382161Y-59873215D01*
X82336406Y-59820411D01*
X82325200Y-59768900D01*
X82325200Y-59203400D01*
X81419760Y-59203400D01*
X81450445Y-59150253D01*
X81485200Y-59020543D01*
X81485200Y-58886257D01*
X81450445Y-58756547D01*
X81419760Y-58703400D01*
X82325200Y-58703400D01*
X82325200Y-58055572D01*
X82325199Y-58055555D01*
X82318798Y-57996027D01*
X82318796Y-57996020D01*
X82268554Y-57861313D01*
X82268550Y-57861306D01*
X82182390Y-57746212D01*
X82182387Y-57746209D01*
X82067293Y-57660049D01*
X82067286Y-57660045D01*
X81932579Y-57609803D01*
X81932572Y-57609801D01*
X81873044Y-57603400D01*
X81674566Y-57603400D01*
X81607527Y-57583715D01*
X81561772Y-57530911D01*
X81551828Y-57461753D01*
X81580853Y-57398197D01*
X81609289Y-57373973D01*
X81629649Y-57361366D01*
X81671502Y-57335452D01*
X81829072Y-57191807D01*
X81957566Y-57021655D01*
X82004920Y-56926555D01*
X85493810Y-56926555D01*
X86261707Y-56926555D01*
X86328746Y-56946240D01*
X86374501Y-56999044D01*
X86385110Y-57038401D01*
X86404899Y-57239332D01*
X86404900Y-57239334D01*
X86464968Y-57437354D01*
X86562515Y-57619850D01*
X86562517Y-57619852D01*
X86693789Y-57779810D01*
X86765541Y-57838694D01*
X86853750Y-57911085D01*
X87036246Y-58008632D01*
X87234266Y-58068700D01*
X87234265Y-58068700D01*
X87252729Y-58070518D01*
X87440200Y-58088983D01*
X87646134Y-58068700D01*
X87844154Y-58008632D01*
X88026650Y-57911085D01*
X88186610Y-57779810D01*
X88317885Y-57619850D01*
X88415432Y-57437354D01*
X88475500Y-57239334D01*
X88495290Y-57038399D01*
X88521451Y-56973614D01*
X88578485Y-56933255D01*
X88618693Y-56926555D01*
X91111707Y-56926555D01*
X91178746Y-56946240D01*
X91224501Y-56999044D01*
X91235110Y-57038401D01*
X91254899Y-57239332D01*
X91254900Y-57239334D01*
X91314968Y-57437354D01*
X91412515Y-57619850D01*
X91412517Y-57619852D01*
X91543789Y-57779810D01*
X91615541Y-57838694D01*
X91703750Y-57911085D01*
X91886246Y-58008632D01*
X92084266Y-58068700D01*
X92084265Y-58068700D01*
X92102729Y-58070518D01*
X92290200Y-58088983D01*
X92496134Y-58068700D01*
X92694154Y-58008632D01*
X92876650Y-57911085D01*
X93036610Y-57779810D01*
X93167885Y-57619850D01*
X93265432Y-57437354D01*
X93325500Y-57239334D01*
X93345290Y-57038399D01*
X93371451Y-56973614D01*
X93428485Y-56933255D01*
X93468693Y-56926555D01*
X95120821Y-56926555D01*
X95120821Y-54511003D01*
X93858125Y-54511003D01*
X93791086Y-54491318D01*
X93745331Y-54438514D01*
X93735387Y-54369356D01*
X93738858Y-54353069D01*
X93775315Y-54224936D01*
X93795843Y-54003400D01*
X93775315Y-53781864D01*
X93714429Y-53567872D01*
X93714424Y-53567861D01*
X93615261Y-53368716D01*
X93615256Y-53368708D01*
X93481179Y-53191161D01*
X93316762Y-53041276D01*
X93316760Y-53041274D01*
X93127604Y-52924154D01*
X93127598Y-52924152D01*
X92920140Y-52843782D01*
X92701443Y-52802900D01*
X92478957Y-52802900D01*
X92260260Y-52843782D01*
X92152827Y-52885402D01*
X92052801Y-52924152D01*
X92052795Y-52924154D01*
X91863639Y-53041274D01*
X91863637Y-53041276D01*
X91699220Y-53191161D01*
X91565143Y-53368708D01*
X91565138Y-53368716D01*
X91465975Y-53567861D01*
X91465969Y-53567876D01*
X91405085Y-53781862D01*
X91405084Y-53781864D01*
X91384557Y-54003399D01*
X91384557Y-54003400D01*
X91405084Y-54224931D01*
X91405084Y-54224933D01*
X91405085Y-54224936D01*
X91441542Y-54353069D01*
X91440954Y-54422937D01*
X91402687Y-54481395D01*
X91338890Y-54509885D01*
X91322275Y-54511003D01*
X88408125Y-54511003D01*
X88341086Y-54491318D01*
X88295331Y-54438514D01*
X88285387Y-54369356D01*
X88288858Y-54353069D01*
X88325315Y-54224936D01*
X88345843Y-54003400D01*
X88325315Y-53781864D01*
X88264429Y-53567872D01*
X88264424Y-53567861D01*
X88165261Y-53368716D01*
X88165256Y-53368708D01*
X88031179Y-53191161D01*
X87866762Y-53041276D01*
X87866760Y-53041274D01*
X87677604Y-52924154D01*
X87677598Y-52924152D01*
X87470140Y-52843782D01*
X87251443Y-52802900D01*
X87028957Y-52802900D01*
X86810260Y-52843782D01*
X86702827Y-52885402D01*
X86602801Y-52924152D01*
X86602795Y-52924154D01*
X86413639Y-53041274D01*
X86413637Y-53041276D01*
X86249220Y-53191161D01*
X86115143Y-53368708D01*
X86115138Y-53368716D01*
X86015975Y-53567861D01*
X86015969Y-53567876D01*
X85955085Y-53781862D01*
X85955084Y-53781864D01*
X85934557Y-54003399D01*
X85934557Y-54003400D01*
X85955084Y-54224931D01*
X85955084Y-54224933D01*
X85955085Y-54224936D01*
X85991542Y-54353069D01*
X85990954Y-54422937D01*
X85952687Y-54481395D01*
X85888890Y-54509885D01*
X85872275Y-54511003D01*
X85493810Y-54511003D01*
X85493810Y-56926555D01*
X82004920Y-56926555D01*
X82052605Y-56830789D01*
X82110956Y-56625710D01*
X82130629Y-56413400D01*
X82110956Y-56201090D01*
X82052605Y-55996011D01*
X82052603Y-55996006D01*
X82052603Y-55996005D01*
X81957567Y-55805146D01*
X81829072Y-55634993D01*
X81812802Y-55620161D01*
X81671502Y-55491348D01*
X81490219Y-55379102D01*
X81490217Y-55379101D01*
X81390808Y-55340590D01*
X81291398Y-55302079D01*
X81094585Y-55265288D01*
X81032306Y-55233621D01*
X80997033Y-55173308D01*
X80999967Y-55103500D01*
X81040176Y-55046360D01*
X81094584Y-55021511D01*
X81291398Y-54984721D01*
X81490219Y-54907698D01*
X81671502Y-54795452D01*
X81829072Y-54651807D01*
X81957566Y-54481655D01*
X81978841Y-54438928D01*
X82052603Y-54290794D01*
X82052603Y-54290793D01*
X82052605Y-54290789D01*
X82110956Y-54085710D01*
X82130629Y-53873400D01*
X82110956Y-53661090D01*
X82052605Y-53456011D01*
X82052603Y-53456006D01*
X82052603Y-53456005D01*
X81957567Y-53265146D01*
X81829072Y-53094993D01*
X81819246Y-53086035D01*
X81671502Y-52951348D01*
X81490219Y-52839102D01*
X81490217Y-52839101D01*
X81390808Y-52800590D01*
X81291398Y-52762079D01*
X81081810Y-52722900D01*
X80868590Y-52722900D01*
X80659002Y-52762079D01*
X80658999Y-52762079D01*
X80658999Y-52762080D01*
X80460182Y-52839101D01*
X80460180Y-52839102D01*
X80278899Y-52951347D01*
X80121327Y-53094993D01*
X79992832Y-53265146D01*
X79897796Y-53456005D01*
X79897796Y-53456007D01*
X79842963Y-53648723D01*
X79839444Y-53661090D01*
X79819771Y-53873400D01*
X79839444Y-54085710D01*
X79879056Y-54224931D01*
X79897796Y-54290792D01*
X79897796Y-54290794D01*
X79992832Y-54481653D01*
X80119099Y-54648856D01*
X80121328Y-54651807D01*
X80278898Y-54795452D01*
X80460181Y-54907698D01*
X80659002Y-54984721D01*
X80855813Y-55021511D01*
X80918093Y-55053179D01*
X80953366Y-55113492D01*
X80950432Y-55183300D01*
X80910223Y-55240440D01*
X80855813Y-55265288D01*
X80659002Y-55302079D01*
X80658999Y-55302079D01*
X80658999Y-55302080D01*
X80460182Y-55379101D01*
X80460180Y-55379102D01*
X80278899Y-55491347D01*
X80121327Y-55634993D01*
X79992832Y-55805146D01*
X79897796Y-55996005D01*
X79897796Y-55996007D01*
X79839444Y-56201089D01*
X79819771Y-56413399D01*
X79819771Y-56413400D01*
X79839444Y-56625710D01*
X79897796Y-56830792D01*
X79897796Y-56830794D01*
X79992832Y-57021653D01*
X80024396Y-57063450D01*
X80121328Y-57191807D01*
X80278898Y-57335452D01*
X80278900Y-57335453D01*
X80278901Y-57335454D01*
X80341111Y-57373973D01*
X80387747Y-57426001D01*
X80398851Y-57494982D01*
X80370898Y-57559017D01*
X80312763Y-57597773D01*
X80275834Y-57603400D01*
X80077355Y-57603400D01*
X80017827Y-57609801D01*
X80017820Y-57609803D01*
X79883113Y-57660045D01*
X79883106Y-57660049D01*
X79768012Y-57746209D01*
X79768009Y-57746212D01*
X79681849Y-57861306D01*
X79681845Y-57861313D01*
X79631603Y-57996020D01*
X79631601Y-57996027D01*
X79625200Y-58055555D01*
X79625200Y-58703400D01*
X80530640Y-58703400D01*
X80499955Y-58756547D01*
X80465200Y-58886257D01*
X80465200Y-59020543D01*
X80499955Y-59150253D01*
X80530640Y-59203400D01*
X79625200Y-59203400D01*
X79625200Y-59768900D01*
X79605515Y-59835939D01*
X79552711Y-59881694D01*
X79501200Y-59892900D01*
X69682730Y-59892900D01*
X69570693Y-59892900D01*
X69462475Y-59921897D01*
X69462473Y-59921898D01*
X69462472Y-59921898D01*
X69365452Y-59977913D01*
X69365446Y-59977917D01*
X69286225Y-60057139D01*
X67023296Y-62320067D01*
X67023295Y-62320067D01*
X67023296Y-62320068D01*
X66961515Y-62381849D01*
X66961513Y-62381851D01*
X66956984Y-62386381D01*
X66895661Y-62419866D01*
X66869302Y-62422700D01*
X66851500Y-62422700D01*
X66784461Y-62403015D01*
X66738706Y-62350211D01*
X66727500Y-62298700D01*
X66727500Y-61699384D01*
X66727500Y-61699382D01*
X66723723Y-61685288D01*
X66719500Y-61653200D01*
X66719500Y-61538984D01*
X66719500Y-61538982D01*
X66690503Y-61430763D01*
X66634485Y-61333737D01*
X66555263Y-61254515D01*
X66095419Y-60794671D01*
X66061934Y-60733348D01*
X66059100Y-60706990D01*
X66059100Y-59968250D01*
X66078785Y-59901211D01*
X66131589Y-59855456D01*
X66137591Y-59852903D01*
X66243442Y-59811161D01*
X66364022Y-59719722D01*
X66423787Y-59640910D01*
X66460586Y-59592384D01*
X66462417Y-59593772D01*
X66503707Y-59553489D01*
X66572158Y-59539482D01*
X66637316Y-59564705D01*
X66678494Y-59621151D01*
X66679491Y-59624041D01*
X66686740Y-59645915D01*
X66686743Y-59645924D01*
X66778784Y-59795145D01*
X66902754Y-59919115D01*
X67051975Y-60011156D01*
X67051980Y-60011158D01*
X67218402Y-60066305D01*
X67218409Y-60066306D01*
X67321119Y-60076799D01*
X67458599Y-60076799D01*
X67458600Y-60076798D01*
X67458600Y-59101800D01*
X67958600Y-59101800D01*
X67958600Y-60076799D01*
X68096072Y-60076799D01*
X68096086Y-60076798D01*
X68198797Y-60066305D01*
X68365219Y-60011158D01*
X68365224Y-60011156D01*
X68514445Y-59919115D01*
X68638415Y-59795145D01*
X68730456Y-59645924D01*
X68730458Y-59645919D01*
X68785605Y-59479497D01*
X68785606Y-59479490D01*
X68796099Y-59376786D01*
X68796100Y-59376773D01*
X68796100Y-59101800D01*
X67958600Y-59101800D01*
X67458600Y-59101800D01*
X67458600Y-57626800D01*
X67958600Y-57626800D01*
X67958600Y-58601800D01*
X68796099Y-58601800D01*
X68796099Y-58326828D01*
X68796098Y-58326813D01*
X68785605Y-58224102D01*
X68730458Y-58057680D01*
X68730456Y-58057675D01*
X68638415Y-57908454D01*
X68514445Y-57784484D01*
X68365224Y-57692443D01*
X68365219Y-57692441D01*
X68198797Y-57637294D01*
X68198790Y-57637293D01*
X68096086Y-57626800D01*
X67958600Y-57626800D01*
X67458600Y-57626800D01*
X67321127Y-57626800D01*
X67321112Y-57626801D01*
X67218402Y-57637294D01*
X67051980Y-57692441D01*
X67051975Y-57692443D01*
X66902754Y-57784484D01*
X66778784Y-57908454D01*
X66686743Y-58057675D01*
X66686740Y-58057684D01*
X66679491Y-58079559D01*
X66639718Y-58137003D01*
X66575202Y-58163825D01*
X66506426Y-58151509D01*
X66461934Y-58110193D01*
X66460586Y-58111216D01*
X66364025Y-57983882D01*
X66364023Y-57983879D01*
X66337073Y-57963442D01*
X66295551Y-57907248D01*
X66288000Y-57864639D01*
X66288000Y-55088600D01*
X67075001Y-55088600D01*
X67075001Y-55538586D01*
X67085494Y-55641297D01*
X67140641Y-55807719D01*
X67140643Y-55807724D01*
X67232684Y-55956945D01*
X67356654Y-56080915D01*
X67505875Y-56172956D01*
X67505880Y-56172958D01*
X67672302Y-56228105D01*
X67672309Y-56228106D01*
X67775019Y-56238599D01*
X67987499Y-56238599D01*
X67987500Y-56238598D01*
X67987500Y-55088600D01*
X68487500Y-55088600D01*
X68487500Y-56238599D01*
X68699972Y-56238599D01*
X68699986Y-56238598D01*
X68802697Y-56228105D01*
X68969119Y-56172958D01*
X68969124Y-56172956D01*
X69118345Y-56080915D01*
X69242315Y-55956945D01*
X69334356Y-55807724D01*
X69334358Y-55807719D01*
X69389505Y-55641297D01*
X69389506Y-55641290D01*
X69399999Y-55538586D01*
X69400000Y-55538573D01*
X69400000Y-55088600D01*
X68487500Y-55088600D01*
X67987500Y-55088600D01*
X67075001Y-55088600D01*
X66288000Y-55088600D01*
X66288000Y-54774528D01*
X66263002Y-54648861D01*
X66263001Y-54648860D01*
X66263001Y-54648856D01*
X66238042Y-54588600D01*
X67075000Y-54588600D01*
X67987500Y-54588600D01*
X67987500Y-53438600D01*
X68487500Y-53438600D01*
X68487500Y-54588600D01*
X69399999Y-54588600D01*
X69399999Y-54138628D01*
X69399998Y-54138613D01*
X69389505Y-54035902D01*
X69334358Y-53869480D01*
X69334356Y-53869475D01*
X69242315Y-53720254D01*
X69118345Y-53596284D01*
X68969124Y-53504243D01*
X68969119Y-53504241D01*
X68802697Y-53449094D01*
X68802690Y-53449093D01*
X68699986Y-53438600D01*
X68487500Y-53438600D01*
X67987500Y-53438600D01*
X67775029Y-53438600D01*
X67775012Y-53438601D01*
X67672302Y-53449094D01*
X67505880Y-53504241D01*
X67505875Y-53504243D01*
X67356654Y-53596284D01*
X67232684Y-53720254D01*
X67140643Y-53869475D01*
X67140641Y-53869480D01*
X67085494Y-54035902D01*
X67085493Y-54035909D01*
X67075000Y-54138613D01*
X67075000Y-54588600D01*
X66238042Y-54588600D01*
X66213965Y-54530473D01*
X66200956Y-54511003D01*
X66200954Y-54511000D01*
X66200954Y-54510999D01*
X66142775Y-54423928D01*
X66111819Y-54392972D01*
X66078334Y-54331649D01*
X66075500Y-54305291D01*
X66075500Y-54145503D01*
X66075500Y-54145498D01*
X66064877Y-54057036D01*
X66009361Y-53916258D01*
X66009360Y-53916257D01*
X66009360Y-53916256D01*
X65917922Y-53795677D01*
X65797343Y-53704239D01*
X65656561Y-53648722D01*
X65610926Y-53643242D01*
X65568102Y-53638100D01*
X64656898Y-53638100D01*
X64617853Y-53642788D01*
X64568438Y-53648722D01*
X64427656Y-53704239D01*
X64307077Y-53795677D01*
X64215639Y-53916256D01*
X64160122Y-54057038D01*
X64157500Y-54078882D01*
X64129964Y-54143097D01*
X64072082Y-54182231D01*
X64034384Y-54188100D01*
X62924208Y-54188100D01*
X62857169Y-54168415D01*
X62836527Y-54151781D01*
X58928674Y-50243927D01*
X58928673Y-50243926D01*
X58822134Y-50172740D01*
X58822127Y-50172735D01*
X58703744Y-50123699D01*
X58703738Y-50123697D01*
X58578071Y-50098700D01*
X58578069Y-50098700D01*
X51929731Y-50098700D01*
X51929729Y-50098700D01*
X51804061Y-50123697D01*
X51804051Y-50123700D01*
X51755020Y-50144010D01*
X51685681Y-50172730D01*
X51685663Y-50172740D01*
X51579132Y-50243921D01*
X51579125Y-50243927D01*
X49862926Y-51960126D01*
X49791734Y-52066674D01*
X49742699Y-52185055D01*
X49742697Y-52185061D01*
X49717700Y-52310728D01*
X49717700Y-59365470D01*
X49739169Y-59473396D01*
X49739169Y-59473398D01*
X49742697Y-59491136D01*
X49742701Y-59491149D01*
X49791732Y-59609523D01*
X49862926Y-59716073D01*
X52010158Y-61863305D01*
X52043643Y-61924628D01*
X52038659Y-61994320D01*
X52024783Y-62021053D01*
X52022197Y-62024828D01*
X51976815Y-62127606D01*
X51976815Y-62127608D01*
X51973900Y-62152731D01*
X51973900Y-64222456D01*
X51973902Y-64222482D01*
X51976813Y-64247587D01*
X51976815Y-64247591D01*
X52022193Y-64350364D01*
X52022194Y-64350365D01*
X52101635Y-64429806D01*
X52204409Y-64475185D01*
X52229535Y-64478100D01*
X53479900Y-64478099D01*
X53546939Y-64497784D01*
X53592694Y-64550587D01*
X53603900Y-64602099D01*
X53603900Y-71383391D01*
X53584215Y-71450430D01*
X53567581Y-71471072D01*
X48542127Y-76496525D01*
X48542126Y-76496526D01*
X48470934Y-76603074D01*
X48421899Y-76721455D01*
X48421897Y-76721461D01*
X48396900Y-76847128D01*
X48396900Y-76847131D01*
X48396900Y-89319669D01*
X48396900Y-89319671D01*
X48396899Y-89319671D01*
X47218600Y-89319671D01*
X47218600Y-48866600D01*
X47238285Y-48799561D01*
X47291089Y-48753806D01*
X47342600Y-48742600D01*
X106149600Y-48742600D01*
X106216639Y-48762285D01*
G37*
%TD.AperFunction*%
%TD*%
M02*
